%TF.GenerationSoftware,KiCad,Pcbnew,5.1.6-c6e7f7d~87~ubuntu18.04.1*%
%TF.CreationDate,2020-07-13T16:32:38+01:00*%
%TF.ProjectId,MainBoard_Rev1,4d61696e-426f-4617-9264-5f526576312e,rev?*%
%TF.SameCoordinates,Original*%
%TF.FileFunction,Soldermask,Bot*%
%TF.FilePolarity,Negative*%
%FSLAX46Y46*%
G04 Gerber Fmt 4.6, Leading zero omitted, Abs format (unit mm)*
G04 Created by KiCad (PCBNEW 5.1.6-c6e7f7d~87~ubuntu18.04.1) date 2020-07-13 16:32:38*
%MOMM*%
%LPD*%
G01*
G04 APERTURE LIST*
%ADD10C,1.700000*%
%ADD11C,1.600000*%
%ADD12O,1.700000X1.700000*%
%ADD13O,2.100000X2.005000*%
%ADD14R,2.100000X2.005000*%
%ADD15R,1.700000X1.700000*%
%ADD16C,1.497000*%
%ADD17O,1.800000X1.800000*%
%ADD18R,1.800000X1.800000*%
%ADD19R,3.600000X3.600000*%
%ADD20C,1.900000*%
%ADD21R,1.900000X1.900000*%
G04 APERTURE END LIST*
D10*
%TO.C,C12*%
X230505000Y-57070000D03*
X230505000Y-52070000D03*
%TD*%
%TO.C,C11*%
X208280000Y-57110000D03*
X208280000Y-52110000D03*
%TD*%
%TO.C,C10*%
X186055000Y-57070000D03*
X186055000Y-52070000D03*
%TD*%
%TO.C,C9*%
X163830000Y-57070000D03*
X163830000Y-52070000D03*
%TD*%
%TO.C,C8*%
X141605000Y-57070000D03*
X141605000Y-52070000D03*
%TD*%
%TO.C,C7*%
X119380000Y-57070000D03*
X119380000Y-52070000D03*
%TD*%
%TO.C,C6*%
X97155000Y-57070000D03*
X97155000Y-52070000D03*
%TD*%
%TO.C,C5*%
X74930000Y-57070000D03*
X74930000Y-52070000D03*
%TD*%
%TO.C,C2*%
X53340000Y-52625000D03*
X53340000Y-47625000D03*
%TD*%
%TO.C,C1*%
X56515000Y-47705000D03*
X56515000Y-52705000D03*
%TD*%
D11*
%TO.C,Y1*%
X58220000Y-78105000D03*
X53340000Y-78105000D03*
%TD*%
D12*
%TO.C,R5*%
X68580000Y-59690000D03*
D10*
X60960000Y-59690000D03*
%TD*%
D12*
%TO.C,R4*%
X68580000Y-55880000D03*
D10*
X60960000Y-55880000D03*
%TD*%
D12*
%TO.C,R3*%
X72390000Y-74930000D03*
D10*
X72390000Y-67310000D03*
%TD*%
D12*
%TO.C,R2*%
X64770000Y-67310000D03*
D10*
X64770000Y-74930000D03*
%TD*%
D12*
%TO.C,R1*%
X68580000Y-74930000D03*
D10*
X68580000Y-67310000D03*
%TD*%
D13*
%TO.C,U2*%
X49530000Y-47625000D03*
X49530000Y-50165000D03*
D14*
X49530000Y-52705000D03*
%TD*%
D12*
%TO.C,U1*%
X60325000Y-71755000D03*
X45085000Y-64135000D03*
X57785000Y-71755000D03*
X47625000Y-64135000D03*
X55245000Y-71755000D03*
X50165000Y-64135000D03*
X52705000Y-71755000D03*
X52705000Y-64135000D03*
X50165000Y-71755000D03*
X55245000Y-64135000D03*
X47625000Y-71755000D03*
X57785000Y-64135000D03*
X45085000Y-71755000D03*
D15*
X60325000Y-64135000D03*
%TD*%
D16*
%TO.C,SW1*%
X33655000Y-76200000D03*
X33655000Y-71120000D03*
X41275000Y-76200000D03*
X41275000Y-71120000D03*
%TD*%
D17*
%TO.C,J9*%
X233680000Y-151130000D03*
X233680000Y-148590000D03*
X233680000Y-146050000D03*
X233680000Y-143510000D03*
X233680000Y-140970000D03*
X233680000Y-138430000D03*
X233680000Y-135890000D03*
X233680000Y-133350000D03*
X233680000Y-130810000D03*
X233680000Y-128270000D03*
X233680000Y-125730000D03*
X233680000Y-123190000D03*
X233680000Y-120650000D03*
X233680000Y-118110000D03*
X233680000Y-115570000D03*
X233680000Y-113030000D03*
X233680000Y-110490000D03*
X233680000Y-107950000D03*
X233680000Y-105410000D03*
X233680000Y-102870000D03*
X233680000Y-100330000D03*
X233680000Y-97790000D03*
X233680000Y-95250000D03*
X233680000Y-92710000D03*
X233680000Y-90170000D03*
X233680000Y-87630000D03*
X233680000Y-85090000D03*
X233680000Y-82550000D03*
X233680000Y-80010000D03*
X233680000Y-77470000D03*
X233680000Y-74930000D03*
X233680000Y-72390000D03*
X233680000Y-69850000D03*
X233680000Y-67310000D03*
X233680000Y-64770000D03*
X233680000Y-62230000D03*
X233680000Y-59690000D03*
X233680000Y-57150000D03*
X233680000Y-54610000D03*
D18*
X233680000Y-52070000D03*
%TD*%
D17*
%TO.C,J8*%
X211455000Y-151130000D03*
X211455000Y-148590000D03*
X211455000Y-146050000D03*
X211455000Y-143510000D03*
X211455000Y-140970000D03*
X211455000Y-138430000D03*
X211455000Y-135890000D03*
X211455000Y-133350000D03*
X211455000Y-130810000D03*
X211455000Y-128270000D03*
X211455000Y-125730000D03*
X211455000Y-123190000D03*
X211455000Y-120650000D03*
X211455000Y-118110000D03*
X211455000Y-115570000D03*
X211455000Y-113030000D03*
X211455000Y-110490000D03*
X211455000Y-107950000D03*
X211455000Y-105410000D03*
X211455000Y-102870000D03*
X211455000Y-100330000D03*
X211455000Y-97790000D03*
X211455000Y-95250000D03*
X211455000Y-92710000D03*
X211455000Y-90170000D03*
X211455000Y-87630000D03*
X211455000Y-85090000D03*
X211455000Y-82550000D03*
X211455000Y-80010000D03*
X211455000Y-77470000D03*
X211455000Y-74930000D03*
X211455000Y-72390000D03*
X211455000Y-69850000D03*
X211455000Y-67310000D03*
X211455000Y-64770000D03*
X211455000Y-62230000D03*
X211455000Y-59690000D03*
X211455000Y-57150000D03*
X211455000Y-54610000D03*
D18*
X211455000Y-52070000D03*
%TD*%
D17*
%TO.C,J7*%
X189230000Y-151130000D03*
X189230000Y-148590000D03*
X189230000Y-146050000D03*
X189230000Y-143510000D03*
X189230000Y-140970000D03*
X189230000Y-138430000D03*
X189230000Y-135890000D03*
X189230000Y-133350000D03*
X189230000Y-130810000D03*
X189230000Y-128270000D03*
X189230000Y-125730000D03*
X189230000Y-123190000D03*
X189230000Y-120650000D03*
X189230000Y-118110000D03*
X189230000Y-115570000D03*
X189230000Y-113030000D03*
X189230000Y-110490000D03*
X189230000Y-107950000D03*
X189230000Y-105410000D03*
X189230000Y-102870000D03*
X189230000Y-100330000D03*
X189230000Y-97790000D03*
X189230000Y-95250000D03*
X189230000Y-92710000D03*
X189230000Y-90170000D03*
X189230000Y-87630000D03*
X189230000Y-85090000D03*
X189230000Y-82550000D03*
X189230000Y-80010000D03*
X189230000Y-77470000D03*
X189230000Y-74930000D03*
X189230000Y-72390000D03*
X189230000Y-69850000D03*
X189230000Y-67310000D03*
X189230000Y-64770000D03*
X189230000Y-62230000D03*
X189230000Y-59690000D03*
X189230000Y-57150000D03*
X189230000Y-54610000D03*
D18*
X189230000Y-52070000D03*
%TD*%
D17*
%TO.C,J6*%
X167005000Y-151130000D03*
X167005000Y-148590000D03*
X167005000Y-146050000D03*
X167005000Y-143510000D03*
X167005000Y-140970000D03*
X167005000Y-138430000D03*
X167005000Y-135890000D03*
X167005000Y-133350000D03*
X167005000Y-130810000D03*
X167005000Y-128270000D03*
X167005000Y-125730000D03*
X167005000Y-123190000D03*
X167005000Y-120650000D03*
X167005000Y-118110000D03*
X167005000Y-115570000D03*
X167005000Y-113030000D03*
X167005000Y-110490000D03*
X167005000Y-107950000D03*
X167005000Y-105410000D03*
X167005000Y-102870000D03*
X167005000Y-100330000D03*
X167005000Y-97790000D03*
X167005000Y-95250000D03*
X167005000Y-92710000D03*
X167005000Y-90170000D03*
X167005000Y-87630000D03*
X167005000Y-85090000D03*
X167005000Y-82550000D03*
X167005000Y-80010000D03*
X167005000Y-77470000D03*
X167005000Y-74930000D03*
X167005000Y-72390000D03*
X167005000Y-69850000D03*
X167005000Y-67310000D03*
X167005000Y-64770000D03*
X167005000Y-62230000D03*
X167005000Y-59690000D03*
X167005000Y-57150000D03*
X167005000Y-54610000D03*
D18*
X167005000Y-52070000D03*
%TD*%
D17*
%TO.C,J5*%
X144780000Y-151130000D03*
X144780000Y-148590000D03*
X144780000Y-146050000D03*
X144780000Y-143510000D03*
X144780000Y-140970000D03*
X144780000Y-138430000D03*
X144780000Y-135890000D03*
X144780000Y-133350000D03*
X144780000Y-130810000D03*
X144780000Y-128270000D03*
X144780000Y-125730000D03*
X144780000Y-123190000D03*
X144780000Y-120650000D03*
X144780000Y-118110000D03*
X144780000Y-115570000D03*
X144780000Y-113030000D03*
X144780000Y-110490000D03*
X144780000Y-107950000D03*
X144780000Y-105410000D03*
X144780000Y-102870000D03*
X144780000Y-100330000D03*
X144780000Y-97790000D03*
X144780000Y-95250000D03*
X144780000Y-92710000D03*
X144780000Y-90170000D03*
X144780000Y-87630000D03*
X144780000Y-85090000D03*
X144780000Y-82550000D03*
X144780000Y-80010000D03*
X144780000Y-77470000D03*
X144780000Y-74930000D03*
X144780000Y-72390000D03*
X144780000Y-69850000D03*
X144780000Y-67310000D03*
X144780000Y-64770000D03*
X144780000Y-62230000D03*
X144780000Y-59690000D03*
X144780000Y-57150000D03*
X144780000Y-54610000D03*
D18*
X144780000Y-52070000D03*
%TD*%
D17*
%TO.C,J4*%
X122555000Y-151130000D03*
X122555000Y-148590000D03*
X122555000Y-146050000D03*
X122555000Y-143510000D03*
X122555000Y-140970000D03*
X122555000Y-138430000D03*
X122555000Y-135890000D03*
X122555000Y-133350000D03*
X122555000Y-130810000D03*
X122555000Y-128270000D03*
X122555000Y-125730000D03*
X122555000Y-123190000D03*
X122555000Y-120650000D03*
X122555000Y-118110000D03*
X122555000Y-115570000D03*
X122555000Y-113030000D03*
X122555000Y-110490000D03*
X122555000Y-107950000D03*
X122555000Y-105410000D03*
X122555000Y-102870000D03*
X122555000Y-100330000D03*
X122555000Y-97790000D03*
X122555000Y-95250000D03*
X122555000Y-92710000D03*
X122555000Y-90170000D03*
X122555000Y-87630000D03*
X122555000Y-85090000D03*
X122555000Y-82550000D03*
X122555000Y-80010000D03*
X122555000Y-77470000D03*
X122555000Y-74930000D03*
X122555000Y-72390000D03*
X122555000Y-69850000D03*
X122555000Y-67310000D03*
X122555000Y-64770000D03*
X122555000Y-62230000D03*
X122555000Y-59690000D03*
X122555000Y-57150000D03*
X122555000Y-54610000D03*
D18*
X122555000Y-52070000D03*
%TD*%
D17*
%TO.C,J3*%
X100330000Y-151130000D03*
X100330000Y-148590000D03*
X100330000Y-146050000D03*
X100330000Y-143510000D03*
X100330000Y-140970000D03*
X100330000Y-138430000D03*
X100330000Y-135890000D03*
X100330000Y-133350000D03*
X100330000Y-130810000D03*
X100330000Y-128270000D03*
X100330000Y-125730000D03*
X100330000Y-123190000D03*
X100330000Y-120650000D03*
X100330000Y-118110000D03*
X100330000Y-115570000D03*
X100330000Y-113030000D03*
X100330000Y-110490000D03*
X100330000Y-107950000D03*
X100330000Y-105410000D03*
X100330000Y-102870000D03*
X100330000Y-100330000D03*
X100330000Y-97790000D03*
X100330000Y-95250000D03*
X100330000Y-92710000D03*
X100330000Y-90170000D03*
X100330000Y-87630000D03*
X100330000Y-85090000D03*
X100330000Y-82550000D03*
X100330000Y-80010000D03*
X100330000Y-77470000D03*
X100330000Y-74930000D03*
X100330000Y-72390000D03*
X100330000Y-69850000D03*
X100330000Y-67310000D03*
X100330000Y-64770000D03*
X100330000Y-62230000D03*
X100330000Y-59690000D03*
X100330000Y-57150000D03*
X100330000Y-54610000D03*
D18*
X100330000Y-52070000D03*
%TD*%
%TO.C,J2*%
G36*
G01*
X32500000Y-53620000D02*
X34300000Y-53620000D01*
G75*
G02*
X35200000Y-54520000I0J-900000D01*
G01*
X35200000Y-56320000D01*
G75*
G02*
X34300000Y-57220000I-900000J0D01*
G01*
X32500000Y-57220000D01*
G75*
G02*
X31600000Y-56320000I0J900000D01*
G01*
X31600000Y-54520000D01*
G75*
G02*
X32500000Y-53620000I900000J0D01*
G01*
G37*
G36*
G01*
X37075000Y-50870000D02*
X39125000Y-50870000D01*
G75*
G02*
X39900000Y-51645000I0J-775000D01*
G01*
X39900000Y-53195000D01*
G75*
G02*
X39125000Y-53970000I-775000J0D01*
G01*
X37075000Y-53970000D01*
G75*
G02*
X36300000Y-53195000I0J775000D01*
G01*
X36300000Y-51645000D01*
G75*
G02*
X37075000Y-50870000I775000J0D01*
G01*
G37*
D19*
X38100000Y-58420000D03*
%TD*%
D17*
%TO.C,J1*%
X78105000Y-151130000D03*
X78105000Y-148590000D03*
X78105000Y-146050000D03*
X78105000Y-143510000D03*
X78105000Y-140970000D03*
X78105000Y-138430000D03*
X78105000Y-135890000D03*
X78105000Y-133350000D03*
X78105000Y-130810000D03*
X78105000Y-128270000D03*
X78105000Y-125730000D03*
X78105000Y-123190000D03*
X78105000Y-120650000D03*
X78105000Y-118110000D03*
X78105000Y-115570000D03*
X78105000Y-113030000D03*
X78105000Y-110490000D03*
X78105000Y-107950000D03*
X78105000Y-105410000D03*
X78105000Y-102870000D03*
X78105000Y-100330000D03*
X78105000Y-97790000D03*
X78105000Y-95250000D03*
X78105000Y-92710000D03*
X78105000Y-90170000D03*
X78105000Y-87630000D03*
X78105000Y-85090000D03*
X78105000Y-82550000D03*
X78105000Y-80010000D03*
X78105000Y-77470000D03*
X78105000Y-74930000D03*
X78105000Y-72390000D03*
X78105000Y-69850000D03*
X78105000Y-67310000D03*
X78105000Y-64770000D03*
X78105000Y-62230000D03*
X78105000Y-59690000D03*
X78105000Y-57150000D03*
X78105000Y-54610000D03*
D18*
X78105000Y-52070000D03*
%TD*%
D20*
%TO.C,D2*%
X62230000Y-51435000D03*
D21*
X62230000Y-48895000D03*
%TD*%
D20*
%TO.C,D1*%
X67310000Y-51435000D03*
D21*
X67310000Y-48895000D03*
%TD*%
D10*
%TO.C,C4*%
X47585000Y-79375000D03*
X45085000Y-79375000D03*
%TD*%
%TO.C,C3*%
X47585000Y-76835000D03*
X45085000Y-76835000D03*
%TD*%
M02*
