M48
; DRILL file {KiCad 5.1.6-c6e7f7d~87~ubuntu18.04.1} date Mon Jul 13 16:32:36 2020
; FORMAT={-:-/ absolute / inch / decimal}
; #@! TF.CreationDate,2020-07-13T16:32:36+01:00
; #@! TF.GenerationSoftware,Kicad,Pcbnew,5.1.6-c6e7f7d~87~ubuntu18.04.1
FMAT,2
INCH
T1C0.0315
T2C0.0320
T3C0.0354
T4C0.0394
T5C0.0433
%
G90
G05
T1
X5.575Y-2.05
X5.575Y-2.2469
X2.1Y-1.875
X2.1Y-2.0719
X2.225Y-1.8781
X2.225Y-2.075
X1.775Y-3.025
X1.8734Y-3.025
X2.7Y-2.65
X2.7Y-2.95
X4.7Y-2.05
X4.7Y-2.2469
X1.775Y-2.525
X1.775Y-2.825
X1.875Y-2.525
X1.875Y-2.825
X1.975Y-2.525
X1.975Y-2.825
X2.075Y-2.525
X2.075Y-2.825
X2.175Y-2.525
X2.175Y-2.825
X2.275Y-2.525
X2.275Y-2.825
X2.375Y-2.525
X2.375Y-2.825
X3.825Y-2.05
X3.825Y-2.2469
X2.85Y-2.65
X2.85Y-2.95
X9.075Y-2.05
X9.075Y-2.2469
X2.4Y-2.35
X2.7Y-2.35
X1.775Y-3.125
X1.8734Y-3.125
X2.4Y-2.2
X2.7Y-2.2
X8.2Y-2.0516
X8.2Y-2.2484
X6.45Y-2.05
X6.45Y-2.2469
X7.325Y-2.05
X7.325Y-2.2469
X2.95Y-2.05
X2.95Y-2.2469
X2.55Y-2.65
X2.55Y-2.95
X2.1Y-3.075
X2.2921Y-3.075
T2
X1.325Y-2.8
X1.325Y-3.0
X1.625Y-2.8
X1.625Y-3.0
T3
X2.45Y-1.925
X2.45Y-2.025
X2.65Y-1.925
X2.65Y-2.025
T4
X3.95Y-2.05
X3.95Y-2.15
X3.95Y-2.25
X3.95Y-2.35
X3.95Y-2.45
X3.95Y-2.55
X3.95Y-2.65
X3.95Y-2.75
X3.95Y-2.85
X3.95Y-2.95
X3.95Y-3.05
X3.95Y-3.15
X3.95Y-3.25
X3.95Y-3.35
X3.95Y-3.45
X3.95Y-3.55
X3.95Y-3.65
X3.95Y-3.75
X3.95Y-3.85
X3.95Y-3.95
X3.95Y-4.05
X3.95Y-4.15
X3.95Y-4.25
X3.95Y-4.35
X3.95Y-4.45
X3.95Y-4.55
X3.95Y-4.65
X3.95Y-4.75
X3.95Y-4.85
X3.95Y-4.95
X3.95Y-5.05
X3.95Y-5.15
X3.95Y-5.25
X3.95Y-5.35
X3.95Y-5.45
X3.95Y-5.55
X3.95Y-5.65
X3.95Y-5.75
X3.95Y-5.85
X3.95Y-5.95
X5.7Y-2.05
X5.7Y-2.15
X5.7Y-2.25
X5.7Y-2.35
X5.7Y-2.45
X5.7Y-2.55
X5.7Y-2.65
X5.7Y-2.75
X5.7Y-2.85
X5.7Y-2.95
X5.7Y-3.05
X5.7Y-3.15
X5.7Y-3.25
X5.7Y-3.35
X5.7Y-3.45
X5.7Y-3.55
X5.7Y-3.65
X5.7Y-3.75
X5.7Y-3.85
X5.7Y-3.95
X5.7Y-4.05
X5.7Y-4.15
X5.7Y-4.25
X5.7Y-4.35
X5.7Y-4.45
X5.7Y-4.55
X5.7Y-4.65
X5.7Y-4.75
X5.7Y-4.85
X5.7Y-4.95
X5.7Y-5.05
X5.7Y-5.15
X5.7Y-5.25
X5.7Y-5.35
X5.7Y-5.45
X5.7Y-5.55
X5.7Y-5.65
X5.7Y-5.75
X5.7Y-5.85
X5.7Y-5.95
X8.325Y-2.05
X8.325Y-2.15
X8.325Y-2.25
X8.325Y-2.35
X8.325Y-2.45
X8.325Y-2.55
X8.325Y-2.65
X8.325Y-2.75
X8.325Y-2.85
X8.325Y-2.95
X8.325Y-3.05
X8.325Y-3.15
X8.325Y-3.25
X8.325Y-3.35
X8.325Y-3.45
X8.325Y-3.55
X8.325Y-3.65
X8.325Y-3.75
X8.325Y-3.85
X8.325Y-3.95
X8.325Y-4.05
X8.325Y-4.15
X8.325Y-4.25
X8.325Y-4.35
X8.325Y-4.45
X8.325Y-4.55
X8.325Y-4.65
X8.325Y-4.75
X8.325Y-4.85
X8.325Y-4.95
X8.325Y-5.05
X8.325Y-5.15
X8.325Y-5.25
X8.325Y-5.35
X8.325Y-5.45
X8.325Y-5.55
X8.325Y-5.65
X8.325Y-5.75
X8.325Y-5.85
X8.325Y-5.95
X4.825Y-2.05
X4.825Y-2.15
X4.825Y-2.25
X4.825Y-2.35
X4.825Y-2.45
X4.825Y-2.55
X4.825Y-2.65
X4.825Y-2.75
X4.825Y-2.85
X4.825Y-2.95
X4.825Y-3.05
X4.825Y-3.15
X4.825Y-3.25
X4.825Y-3.35
X4.825Y-3.45
X4.825Y-3.55
X4.825Y-3.65
X4.825Y-3.75
X4.825Y-3.85
X4.825Y-3.95
X4.825Y-4.05
X4.825Y-4.15
X4.825Y-4.25
X4.825Y-4.35
X4.825Y-4.45
X4.825Y-4.55
X4.825Y-4.65
X4.825Y-4.75
X4.825Y-4.85
X4.825Y-4.95
X4.825Y-5.05
X4.825Y-5.15
X4.825Y-5.25
X4.825Y-5.35
X4.825Y-5.45
X4.825Y-5.55
X4.825Y-5.65
X4.825Y-5.75
X4.825Y-5.85
X4.825Y-5.95
X3.075Y-2.05
X3.075Y-2.15
X3.075Y-2.25
X3.075Y-2.35
X3.075Y-2.45
X3.075Y-2.55
X3.075Y-2.65
X3.075Y-2.75
X3.075Y-2.85
X3.075Y-2.95
X3.075Y-3.05
X3.075Y-3.15
X3.075Y-3.25
X3.075Y-3.35
X3.075Y-3.45
X3.075Y-3.55
X3.075Y-3.65
X3.075Y-3.75
X3.075Y-3.85
X3.075Y-3.95
X3.075Y-4.05
X3.075Y-4.15
X3.075Y-4.25
X3.075Y-4.35
X3.075Y-4.45
X3.075Y-4.55
X3.075Y-4.65
X3.075Y-4.75
X3.075Y-4.85
X3.075Y-4.95
X3.075Y-5.05
X3.075Y-5.15
X3.075Y-5.25
X3.075Y-5.35
X3.075Y-5.45
X3.075Y-5.55
X3.075Y-5.65
X3.075Y-5.75
X3.075Y-5.85
X3.075Y-5.95
X6.575Y-2.05
X6.575Y-2.15
X6.575Y-2.25
X6.575Y-2.35
X6.575Y-2.45
X6.575Y-2.55
X6.575Y-2.65
X6.575Y-2.75
X6.575Y-2.85
X6.575Y-2.95
X6.575Y-3.05
X6.575Y-3.15
X6.575Y-3.25
X6.575Y-3.35
X6.575Y-3.45
X6.575Y-3.55
X6.575Y-3.65
X6.575Y-3.75
X6.575Y-3.85
X6.575Y-3.95
X6.575Y-4.05
X6.575Y-4.15
X6.575Y-4.25
X6.575Y-4.35
X6.575Y-4.45
X6.575Y-4.55
X6.575Y-4.65
X6.575Y-4.75
X6.575Y-4.85
X6.575Y-4.95
X6.575Y-5.05
X6.575Y-5.15
X6.575Y-5.25
X6.575Y-5.35
X6.575Y-5.45
X6.575Y-5.55
X6.575Y-5.65
X6.575Y-5.75
X6.575Y-5.85
X6.575Y-5.95
X7.45Y-2.05
X7.45Y-2.15
X7.45Y-2.25
X7.45Y-2.35
X7.45Y-2.45
X7.45Y-2.55
X7.45Y-2.65
X7.45Y-2.75
X7.45Y-2.85
X7.45Y-2.95
X7.45Y-3.05
X7.45Y-3.15
X7.45Y-3.25
X7.45Y-3.35
X7.45Y-3.45
X7.45Y-3.55
X7.45Y-3.65
X7.45Y-3.75
X7.45Y-3.85
X7.45Y-3.95
X7.45Y-4.05
X7.45Y-4.15
X7.45Y-4.25
X7.45Y-4.35
X7.45Y-4.45
X7.45Y-4.55
X7.45Y-4.65
X7.45Y-4.75
X7.45Y-4.85
X7.45Y-4.95
X7.45Y-5.05
X7.45Y-5.15
X7.45Y-5.25
X7.45Y-5.35
X7.45Y-5.45
X7.45Y-5.55
X7.45Y-5.65
X7.45Y-5.75
X7.45Y-5.85
X7.45Y-5.95
X9.2Y-2.05
X9.2Y-2.15
X9.2Y-2.25
X9.2Y-2.35
X9.2Y-2.45
X9.2Y-2.55
X9.2Y-2.65
X9.2Y-2.75
X9.2Y-2.85
X9.2Y-2.95
X9.2Y-3.05
X9.2Y-3.15
X9.2Y-3.25
X9.2Y-3.35
X9.2Y-3.45
X9.2Y-3.55
X9.2Y-3.65
X9.2Y-3.75
X9.2Y-3.85
X9.2Y-3.95
X9.2Y-4.05
X9.2Y-4.15
X9.2Y-4.25
X9.2Y-4.35
X9.2Y-4.45
X9.2Y-4.55
X9.2Y-4.65
X9.2Y-4.75
X9.2Y-4.85
X9.2Y-4.95
X9.2Y-5.05
X9.2Y-5.15
X9.2Y-5.25
X9.2Y-5.35
X9.2Y-5.45
X9.2Y-5.55
X9.2Y-5.65
X9.2Y-5.75
X9.2Y-5.85
X9.2Y-5.95
T5
X1.95Y-1.875
X1.95Y-1.975
X1.95Y-2.075
T4
G00X1.315Y-2.1425
M15
G01X1.315Y-2.2213
M16
G05
G00X1.5394Y-2.0638
M15
G01X1.4606Y-2.0638
M16
G05
G00X1.5394Y-2.3
M15
G01X1.4606Y-2.3
M16
G05
T0
M30
