%FSLAX45Y45*%
G04 Gerber Fmt 4.5, Leading zero omitted, Abs format (unit mm)*
G04 Created by KiCad (PCBNEW 6.0.2+dfsg-1) date 2023-09-16 22:12:09*
%MOMM*%
%LPD*%
G01*
G04 APERTURE LIST*
%TA.AperFunction,Profile*%
%ADD10C,0.050000*%
%TD*%
%ADD11C,0.200000*%
G04 APERTURE END LIST*
D10*
X13970000Y-4318000D02*
X13970000Y-6858000D01*
X13970000Y-6858000D02*
X13462000Y-7366000D01*
X13462000Y-7366000D02*
X13462000Y-13716000D01*
X13462000Y-13716000D02*
X12954000Y-14224000D01*
X12954000Y-14224000D02*
X8890000Y-14224000D01*
X8890000Y-14224000D02*
X8890000Y-3810000D01*
X8890000Y-3810000D02*
X13462000Y-3810000D01*
X13462000Y-3810000D02*
X13970000Y-4318000D01*
D11*
X9145119Y-14536976D02*
X9145119Y-14336976D01*
X9192738Y-14336976D01*
X9221310Y-14346500D01*
X9240357Y-14365548D01*
X9249881Y-14384595D01*
X9259405Y-14422690D01*
X9259405Y-14451262D01*
X9249881Y-14489357D01*
X9240357Y-14508405D01*
X9221310Y-14527452D01*
X9192738Y-14536976D01*
X9145119Y-14536976D01*
X9345119Y-14536976D02*
X9345119Y-14403643D01*
X9345119Y-14441738D02*
X9354643Y-14422690D01*
X9364167Y-14413167D01*
X9383214Y-14403643D01*
X9402262Y-14403643D01*
X9468929Y-14536976D02*
X9468929Y-14403643D01*
X9468929Y-14336976D02*
X9459405Y-14346500D01*
X9468929Y-14356024D01*
X9478452Y-14346500D01*
X9468929Y-14336976D01*
X9468929Y-14356024D01*
X9592738Y-14536976D02*
X9573690Y-14527452D01*
X9564167Y-14508405D01*
X9564167Y-14336976D01*
X9697500Y-14536976D02*
X9678452Y-14527452D01*
X9668929Y-14508405D01*
X9668929Y-14336976D01*
X9926071Y-14536976D02*
X9926071Y-14336976D01*
X9992738Y-14479833D01*
X10059405Y-14336976D01*
X10059405Y-14536976D01*
X10240357Y-14536976D02*
X10240357Y-14432214D01*
X10230833Y-14413167D01*
X10211786Y-14403643D01*
X10173690Y-14403643D01*
X10154643Y-14413167D01*
X10240357Y-14527452D02*
X10221310Y-14536976D01*
X10173690Y-14536976D01*
X10154643Y-14527452D01*
X10145119Y-14508405D01*
X10145119Y-14489357D01*
X10154643Y-14470309D01*
X10173690Y-14460786D01*
X10221310Y-14460786D01*
X10240357Y-14451262D01*
X10335595Y-14403643D02*
X10335595Y-14603643D01*
X10335595Y-14413167D02*
X10354643Y-14403643D01*
X10392738Y-14403643D01*
X10411786Y-14413167D01*
X10421310Y-14422690D01*
X10430833Y-14441738D01*
X10430833Y-14498881D01*
X10421310Y-14517928D01*
X10411786Y-14527452D01*
X10392738Y-14536976D01*
X10354643Y-14536976D01*
X10335595Y-14527452D01*
X10516548Y-14517928D02*
X10526071Y-14527452D01*
X10516548Y-14536976D01*
X10507024Y-14527452D01*
X10516548Y-14517928D01*
X10516548Y-14536976D01*
X10516548Y-14413167D02*
X10526071Y-14422690D01*
X10516548Y-14432214D01*
X10507024Y-14422690D01*
X10516548Y-14413167D01*
X10516548Y-14432214D01*
M02*
