G04 #@! TF.GenerationSoftware,KiCad,Pcbnew,6.0.2+dfsg-1*
G04 #@! TF.CreationDate,2023-09-16T22:11:42+01:00*
G04 #@! TF.ProjectId,Banked_RAM_Higher,42616e6b-6564-45f5-9241-4d5f48696768,rev?*
G04 #@! TF.SameCoordinates,Original*
G04 #@! TF.FileFunction,Soldermask,Top*
G04 #@! TF.FilePolarity,Negative*
%FSLAX46Y46*%
G04 Gerber Fmt 4.6, Leading zero omitted, Abs format (unit mm)*
G04 Created by KiCad (PCBNEW 6.0.2+dfsg-1) date 2023-09-16 22:11:42*
%MOMM*%
%LPD*%
G01*
G04 APERTURE LIST*
%ADD10C,1.400000*%
%ADD11O,1.400000X1.400000*%
%ADD12R,1.700000X1.700000*%
%ADD13O,1.700000X1.700000*%
%ADD14R,1.800000X1.800000*%
%ADD15C,1.800000*%
%ADD16R,1.600000X1.600000*%
%ADD17O,1.600000X1.600000*%
G04 APERTURE END LIST*
D10*
X124460000Y-95250000D03*
D11*
X119380000Y-95250000D03*
D12*
X99075000Y-67315000D03*
D13*
X99075000Y-64775000D03*
X101615000Y-67315000D03*
X101615000Y-64775000D03*
X104155000Y-67315000D03*
X104155000Y-64775000D03*
D14*
X128270000Y-95250000D03*
D15*
X130810000Y-95250000D03*
D12*
X91440000Y-40640000D03*
D13*
X91440000Y-43180000D03*
X91440000Y-45720000D03*
X91440000Y-48260000D03*
X91440000Y-50800000D03*
X91440000Y-53340000D03*
X91440000Y-55880000D03*
X91440000Y-58420000D03*
X91440000Y-60960000D03*
X91440000Y-63500000D03*
X91440000Y-66040000D03*
X91440000Y-68580000D03*
X91440000Y-71120000D03*
X91440000Y-73660000D03*
X91440000Y-76200000D03*
X91440000Y-78740000D03*
X91440000Y-81280000D03*
X91440000Y-83820000D03*
X91440000Y-86360000D03*
X91440000Y-88900000D03*
X91440000Y-91440000D03*
X91440000Y-93980000D03*
X91440000Y-96520000D03*
X91440000Y-99060000D03*
X91440000Y-101600000D03*
X91440000Y-104140000D03*
X91440000Y-106680000D03*
X91440000Y-109220000D03*
X91440000Y-111760000D03*
X91440000Y-114300000D03*
X91440000Y-116840000D03*
X91440000Y-119380000D03*
X91440000Y-121920000D03*
X91440000Y-124460000D03*
X91440000Y-127000000D03*
X91440000Y-129540000D03*
X91440000Y-132080000D03*
X91440000Y-134620000D03*
X91440000Y-137160000D03*
X91440000Y-139700000D03*
D12*
X127000000Y-52070000D03*
D13*
X127000000Y-54610000D03*
X124460000Y-52070000D03*
X124460000Y-54610000D03*
X121920000Y-52070000D03*
X121920000Y-54610000D03*
X119380000Y-52070000D03*
X119380000Y-54610000D03*
X116840000Y-52070000D03*
X116840000Y-54610000D03*
X114300000Y-52070000D03*
X114300000Y-54610000D03*
X111760000Y-52070000D03*
X111760000Y-54610000D03*
X109220000Y-52070000D03*
X109220000Y-54610000D03*
D16*
X113025000Y-71110000D03*
D17*
X115565000Y-71110000D03*
X118105000Y-71110000D03*
X120645000Y-71110000D03*
X123185000Y-71110000D03*
X125725000Y-71110000D03*
X128265000Y-71110000D03*
X128265000Y-63490000D03*
X125725000Y-63490000D03*
X123185000Y-63490000D03*
X120645000Y-63490000D03*
X118105000Y-63490000D03*
X115565000Y-63490000D03*
X113025000Y-63490000D03*
D16*
X104130000Y-57155000D03*
D17*
X104130000Y-54615000D03*
X104130000Y-52075000D03*
X104130000Y-49535000D03*
X104130000Y-46995000D03*
X104130000Y-44455000D03*
X104130000Y-41915000D03*
X96510000Y-41915000D03*
X96510000Y-44455000D03*
X96510000Y-46995000D03*
X96510000Y-49535000D03*
X96510000Y-52075000D03*
X96510000Y-54615000D03*
X96510000Y-57155000D03*
D16*
X126985000Y-40650000D03*
D17*
X124445000Y-40650000D03*
X121905000Y-40650000D03*
X119365000Y-40650000D03*
X116825000Y-40650000D03*
X114285000Y-40650000D03*
X111745000Y-40650000D03*
X109205000Y-40650000D03*
X109205000Y-48270000D03*
X111745000Y-48270000D03*
X114285000Y-48270000D03*
X116825000Y-48270000D03*
X119365000Y-48270000D03*
X121905000Y-48270000D03*
X124445000Y-48270000D03*
X126985000Y-48270000D03*
D16*
X114305000Y-133350000D03*
D17*
X114305000Y-130810000D03*
X114305000Y-128270000D03*
X114305000Y-125730000D03*
X114305000Y-123190000D03*
X114305000Y-120650000D03*
X114305000Y-118110000D03*
X114305000Y-115570000D03*
X114305000Y-113030000D03*
X114305000Y-110490000D03*
X114305000Y-107950000D03*
X114305000Y-105410000D03*
X114305000Y-102870000D03*
X114305000Y-100330000D03*
X114305000Y-97790000D03*
X114305000Y-95250000D03*
X99065000Y-95250000D03*
X99065000Y-97790000D03*
X99065000Y-100330000D03*
X99065000Y-102870000D03*
X99065000Y-105410000D03*
X99065000Y-107950000D03*
X99065000Y-110490000D03*
X99065000Y-113030000D03*
X99065000Y-115570000D03*
X99065000Y-118110000D03*
X99065000Y-120650000D03*
X99065000Y-123190000D03*
X99065000Y-125730000D03*
X99065000Y-128270000D03*
X99065000Y-130810000D03*
X99065000Y-133350000D03*
D14*
X128270000Y-105410000D03*
D15*
X130810000Y-105410000D03*
D10*
X124460000Y-105410000D03*
D11*
X119380000Y-105410000D03*
D10*
X124460000Y-115570000D03*
D11*
X119380000Y-115570000D03*
D16*
X128265000Y-78750000D03*
D17*
X125725000Y-78750000D03*
X123185000Y-78750000D03*
X120645000Y-78750000D03*
X118105000Y-78750000D03*
X115565000Y-78750000D03*
X113025000Y-78750000D03*
X110485000Y-78750000D03*
X107945000Y-78750000D03*
X105405000Y-78750000D03*
X105405000Y-86370000D03*
X107945000Y-86370000D03*
X110485000Y-86370000D03*
X113025000Y-86370000D03*
X115565000Y-86370000D03*
X118105000Y-86370000D03*
X120645000Y-86370000D03*
X123185000Y-86370000D03*
X125725000Y-86370000D03*
X128265000Y-86370000D03*
D10*
X124460000Y-100330000D03*
D11*
X119380000Y-100330000D03*
D10*
X128270000Y-74930000D03*
D11*
X123190000Y-74930000D03*
D14*
X128270000Y-110490000D03*
D15*
X130810000Y-110490000D03*
D14*
X128270000Y-100330000D03*
D15*
X130810000Y-100330000D03*
D14*
X128270000Y-115570000D03*
D15*
X130810000Y-115570000D03*
D10*
X124460000Y-110490000D03*
D11*
X119380000Y-110490000D03*
M02*
