%FSLAX45Y45*%
G04 Gerber Fmt 4.5, Leading zero omitted, Abs format (unit mm)*
G04 Created by KiCad (PCBNEW 6.0.2+dfsg-1) date 2023-09-16 22:12:09*
%MOMM*%
%LPD*%
G01*
G04 APERTURE LIST*
%TA.AperFunction,Profile*%
%ADD10C,0.050000*%
%TD*%
%ADD11C,0.200000*%
%ADD12C,0.040000*%
%ADD13C,0.070000*%
%ADD14C,0.080000*%
%ADD15C,0.090000*%
%ADD16C,0.100000*%
G04 APERTURE END LIST*
D10*
X13970000Y-4318000D02*
X13970000Y-6858000D01*
X13970000Y-6858000D02*
X13462000Y-7366000D01*
X13462000Y-7366000D02*
X13462000Y-13716000D01*
X13462000Y-13716000D02*
X12954000Y-14224000D01*
X12954000Y-14224000D02*
X8890000Y-14224000D01*
X8890000Y-14224000D02*
X8890000Y-3810000D01*
X8890000Y-3810000D02*
X13462000Y-3810000D01*
X13462000Y-3810000D02*
X13970000Y-4318000D01*
D11*
D12*
X9314500Y-9305550D02*
X9354500Y-9345550D01*
X9354500Y-9305550D02*
X9314500Y-9345550D01*
X9378000Y-12553000D02*
X9418000Y-12593000D01*
X9418000Y-12553000D02*
X9378000Y-12593000D01*
X9695500Y-9251000D02*
X9735500Y-9291000D01*
X9735500Y-9251000D02*
X9695500Y-9291000D01*
X9759000Y-8235000D02*
X9799000Y-8275000D01*
X9799000Y-8235000D02*
X9759000Y-8275000D01*
X9759000Y-8870000D02*
X9799000Y-8910000D01*
X9799000Y-8870000D02*
X9759000Y-8910000D01*
X9886000Y-7600000D02*
X9926000Y-7640000D01*
X9926000Y-7600000D02*
X9886000Y-7640000D01*
X9886000Y-8870000D02*
X9926000Y-8910000D01*
X9926000Y-8870000D02*
X9886000Y-8910000D01*
X9940550Y-5885500D02*
X9980550Y-5925500D01*
X9980550Y-5885500D02*
X9940550Y-5925500D01*
X10073285Y-10397215D02*
X10113285Y-10437215D01*
X10113285Y-10397215D02*
X10073285Y-10437215D01*
X10140000Y-7727000D02*
X10180000Y-7767000D01*
X10180000Y-7727000D02*
X10140000Y-7767000D01*
X10212450Y-8162550D02*
X10252450Y-8202550D01*
X10252450Y-8162550D02*
X10212450Y-8202550D01*
X10521000Y-6965000D02*
X10561000Y-7005000D01*
X10561000Y-6965000D02*
X10521000Y-7005000D01*
X10584500Y-9124000D02*
X10624500Y-9164000D01*
X10624500Y-9124000D02*
X10584500Y-9164000D01*
X10648000Y-8171928D02*
X10688000Y-8211928D01*
X10688000Y-8171928D02*
X10648000Y-8211928D01*
X10648000Y-8806500D02*
X10688000Y-8846500D01*
X10688000Y-8806500D02*
X10648000Y-8846500D01*
X10711500Y-6139500D02*
X10751500Y-6179500D01*
X10751500Y-6139500D02*
X10711500Y-6179500D01*
X10902000Y-5822000D02*
X10942000Y-5862000D01*
X10942000Y-5822000D02*
X10902000Y-5862000D01*
X10902000Y-6584000D02*
X10942000Y-6624000D01*
X10942000Y-6584000D02*
X10902000Y-6624000D01*
X10902000Y-8108000D02*
X10942000Y-8148000D01*
X10942000Y-8108000D02*
X10902000Y-8148000D01*
X10902000Y-8806500D02*
X10942000Y-8846500D01*
X10942000Y-8806500D02*
X10902000Y-8846500D01*
X10902000Y-9124000D02*
X10942000Y-9164000D01*
X10942000Y-9124000D02*
X10902000Y-9164000D01*
X11028500Y-8807000D02*
X11068500Y-8847000D01*
X11068500Y-8807000D02*
X11028500Y-8847000D01*
X11029000Y-6457000D02*
X11069000Y-6497000D01*
X11069000Y-6457000D02*
X11029000Y-6497000D01*
X11029000Y-6838000D02*
X11069000Y-6878000D01*
X11069000Y-6838000D02*
X11029000Y-6878000D01*
X11029000Y-9124000D02*
X11069000Y-9164000D01*
X11069000Y-9124000D02*
X11029000Y-9164000D01*
X11029000Y-9686550D02*
X11069000Y-9726550D01*
X11069000Y-9686550D02*
X11029000Y-9726550D01*
X11083550Y-9568500D02*
X11123550Y-9608500D01*
X11123550Y-9568500D02*
X11083550Y-9608500D01*
X11156000Y-8108000D02*
X11196000Y-8148000D01*
X11196000Y-8108000D02*
X11156000Y-8148000D01*
X11156000Y-8806500D02*
X11196000Y-8846500D01*
X11196000Y-8806500D02*
X11156000Y-8846500D01*
X11156000Y-9124000D02*
X11196000Y-9164000D01*
X11196000Y-9124000D02*
X11156000Y-9164000D01*
X11219500Y-7727000D02*
X11259500Y-7767000D01*
X11259500Y-7727000D02*
X11219500Y-7767000D01*
X11410000Y-8108000D02*
X11450000Y-8148000D01*
X11450000Y-8108000D02*
X11410000Y-8148000D01*
X11410000Y-8489000D02*
X11450000Y-8529000D01*
X11450000Y-8489000D02*
X11410000Y-8529000D01*
X11464550Y-8933500D02*
X11504550Y-8973500D01*
X11504550Y-8933500D02*
X11464550Y-8973500D01*
X11537047Y-8477051D02*
X11577047Y-8517051D01*
X11577047Y-8477051D02*
X11537047Y-8517051D01*
X11718550Y-7525793D02*
X11758550Y-7565793D01*
X11758550Y-7525793D02*
X11718550Y-7565793D01*
X11721401Y-9949500D02*
X11761401Y-9989500D01*
X11761401Y-9949500D02*
X11721401Y-9989500D01*
X11727500Y-8933500D02*
X11767500Y-8973500D01*
X11767500Y-8933500D02*
X11727500Y-8973500D01*
X11727500Y-11727500D02*
X11767500Y-11767500D01*
X11767500Y-11727500D02*
X11727500Y-11767500D01*
X11791000Y-7409500D02*
X11831000Y-7449500D01*
X11831000Y-7409500D02*
X11791000Y-7449500D01*
X11791000Y-8434450D02*
X11831000Y-8474450D01*
X11831000Y-8434450D02*
X11791000Y-8474450D01*
X11918000Y-7672450D02*
X11958000Y-7712450D01*
X11958000Y-7672450D02*
X11918000Y-7712450D01*
X12045000Y-10140000D02*
X12085000Y-10180000D01*
X12085000Y-10140000D02*
X12045000Y-10180000D01*
X12045000Y-11854500D02*
X12085000Y-11894500D01*
X12085000Y-11854500D02*
X12045000Y-11894500D01*
X12108500Y-4425000D02*
X12148500Y-4465000D01*
X12148500Y-4425000D02*
X12108500Y-4465000D01*
X12172000Y-8108000D02*
X12212000Y-8148000D01*
X12212000Y-8108000D02*
X12172000Y-8148000D01*
X12172000Y-8434450D02*
X12212000Y-8474450D01*
X12212000Y-8434450D02*
X12172000Y-8474450D01*
X12172000Y-9632000D02*
X12212000Y-9672000D01*
X12212000Y-9632000D02*
X12172000Y-9672000D01*
X12426000Y-7600000D02*
X12466000Y-7640000D01*
X12466000Y-7600000D02*
X12426000Y-7640000D01*
X12426000Y-8162550D02*
X12466000Y-8202550D01*
X12466000Y-8162550D02*
X12426000Y-8202550D01*
X12489500Y-11727500D02*
X12529500Y-11767500D01*
X12529500Y-11727500D02*
X12489500Y-11767500D01*
X12553000Y-8108000D02*
X12593000Y-8148000D01*
X12593000Y-8108000D02*
X12553000Y-8148000D01*
X12553000Y-8434450D02*
X12593000Y-8474450D01*
X12593000Y-8434450D02*
X12553000Y-8474450D01*
X12553000Y-11210550D02*
X12593000Y-11250550D01*
X12593000Y-11210550D02*
X12553000Y-11250550D01*
X12680000Y-8099050D02*
X12720000Y-8139050D01*
X12720000Y-8099050D02*
X12680000Y-8139050D01*
X12692270Y-7714730D02*
X12732270Y-7754730D01*
X12732270Y-7714730D02*
X12692270Y-7754730D01*
X12766499Y-8806500D02*
X12806499Y-8846500D01*
X12806499Y-8806500D02*
X12766499Y-8846500D01*
X12807000Y-5631500D02*
X12847000Y-5671500D01*
X12847000Y-5631500D02*
X12807000Y-5671500D01*
X12807000Y-5822000D02*
X12847000Y-5862000D01*
X12847000Y-5822000D02*
X12807000Y-5862000D01*
X12807000Y-8362000D02*
X12847000Y-8402000D01*
X12847000Y-8362000D02*
X12807000Y-8402000D01*
X12934000Y-6139500D02*
X12974000Y-6179500D01*
X12974000Y-6139500D02*
X12934000Y-6179500D01*
X12940339Y-8241360D02*
X12980339Y-8281360D01*
X12980339Y-8241360D02*
X12940339Y-8281360D01*
X13061000Y-4171000D02*
X13101000Y-4211000D01*
X13101000Y-4171000D02*
X13061000Y-4211000D01*
X13061000Y-8489000D02*
X13101000Y-8529000D01*
X13101000Y-8489000D02*
X13061000Y-8529000D01*
X13061000Y-13315000D02*
X13101000Y-13355000D01*
X13101000Y-13315000D02*
X13061000Y-13355000D01*
X13188000Y-8489000D02*
X13228000Y-8529000D01*
X13228000Y-8489000D02*
X13188000Y-8529000D01*
X13188000Y-11854500D02*
X13228000Y-11894500D01*
X13228000Y-11854500D02*
X13188000Y-11894500D01*
X13242550Y-10013000D02*
X13282550Y-10053000D01*
X13282550Y-10013000D02*
X13242550Y-10053000D01*
X13359952Y-4469952D02*
X13399952Y-4509952D01*
X13399952Y-4469952D02*
X13359952Y-4509952D01*
D13*
X11973000Y-9525000D02*
G75*
G03*
X11973000Y-9525000I-35000J0D01*
G01*
X11973000Y-10033000D02*
G75*
G03*
X11973000Y-10033000I-35000J0D01*
G01*
X11973000Y-10541000D02*
G75*
G03*
X11973000Y-10541000I-35000J0D01*
G01*
X11973000Y-11049000D02*
G75*
G03*
X11973000Y-11049000I-35000J0D01*
G01*
X11973000Y-11557000D02*
G75*
G03*
X11973000Y-11557000I-35000J0D01*
G01*
X12354000Y-7493000D02*
G75*
G03*
X12354000Y-7493000I-35000J0D01*
G01*
X12481000Y-9525000D02*
G75*
G03*
X12481000Y-9525000I-35000J0D01*
G01*
X12481000Y-10033000D02*
G75*
G03*
X12481000Y-10033000I-35000J0D01*
G01*
X12481000Y-10541000D02*
G75*
G03*
X12481000Y-10541000I-35000J0D01*
G01*
X12481000Y-11049000D02*
G75*
G03*
X12481000Y-11049000I-35000J0D01*
G01*
X12481000Y-11557000D02*
G75*
G03*
X12481000Y-11557000I-35000J0D01*
G01*
X12862000Y-7493000D02*
G75*
G03*
X12862000Y-7493000I-35000J0D01*
G01*
D14*
X9651000Y-4151500D02*
X9651000Y-4231500D01*
X9611000Y-4191500D02*
X9691000Y-4191500D01*
X9651000Y-4405500D02*
X9651000Y-4485500D01*
X9611000Y-4445500D02*
X9691000Y-4445500D01*
X9651000Y-4659500D02*
X9651000Y-4739500D01*
X9611000Y-4699500D02*
X9691000Y-4699500D01*
X9651000Y-4913500D02*
X9651000Y-4993500D01*
X9611000Y-4953500D02*
X9691000Y-4953500D01*
X9651000Y-5167500D02*
X9651000Y-5247500D01*
X9611000Y-5207500D02*
X9691000Y-5207500D01*
X9651000Y-5421500D02*
X9651000Y-5501500D01*
X9611000Y-5461500D02*
X9691000Y-5461500D01*
X9651000Y-5675500D02*
X9651000Y-5755500D01*
X9611000Y-5715500D02*
X9691000Y-5715500D01*
X9906500Y-9485000D02*
X9906500Y-9565000D01*
X9866500Y-9525000D02*
X9946500Y-9525000D01*
X9906500Y-9739000D02*
X9906500Y-9819000D01*
X9866500Y-9779000D02*
X9946500Y-9779000D01*
X9906500Y-9993000D02*
X9906500Y-10073000D01*
X9866500Y-10033000D02*
X9946500Y-10033000D01*
X9906500Y-10247000D02*
X9906500Y-10327000D01*
X9866500Y-10287000D02*
X9946500Y-10287000D01*
X9906500Y-10501000D02*
X9906500Y-10581000D01*
X9866500Y-10541000D02*
X9946500Y-10541000D01*
X9906500Y-10755000D02*
X9906500Y-10835000D01*
X9866500Y-10795000D02*
X9946500Y-10795000D01*
X9906500Y-11009000D02*
X9906500Y-11089000D01*
X9866500Y-11049000D02*
X9946500Y-11049000D01*
X9906500Y-11263000D02*
X9906500Y-11343000D01*
X9866500Y-11303000D02*
X9946500Y-11303000D01*
X9906500Y-11517000D02*
X9906500Y-11597000D01*
X9866500Y-11557000D02*
X9946500Y-11557000D01*
X9906500Y-11771000D02*
X9906500Y-11851000D01*
X9866500Y-11811000D02*
X9946500Y-11811000D01*
X9906500Y-12025000D02*
X9906500Y-12105000D01*
X9866500Y-12065000D02*
X9946500Y-12065000D01*
X9906500Y-12279000D02*
X9906500Y-12359000D01*
X9866500Y-12319000D02*
X9946500Y-12319000D01*
X9906500Y-12533000D02*
X9906500Y-12613000D01*
X9866500Y-12573000D02*
X9946500Y-12573000D01*
X9906500Y-12787000D02*
X9906500Y-12867000D01*
X9866500Y-12827000D02*
X9946500Y-12827000D01*
X9906500Y-13041000D02*
X9906500Y-13121000D01*
X9866500Y-13081000D02*
X9946500Y-13081000D01*
X9906500Y-13295000D02*
X9906500Y-13375000D01*
X9866500Y-13335000D02*
X9946500Y-13335000D01*
X10413000Y-4151500D02*
X10413000Y-4231500D01*
X10373000Y-4191500D02*
X10453000Y-4191500D01*
X10413000Y-4405500D02*
X10413000Y-4485500D01*
X10373000Y-4445500D02*
X10453000Y-4445500D01*
X10413000Y-4659500D02*
X10413000Y-4739500D01*
X10373000Y-4699500D02*
X10453000Y-4699500D01*
X10413000Y-4913500D02*
X10413000Y-4993500D01*
X10373000Y-4953500D02*
X10453000Y-4953500D01*
X10413000Y-5167500D02*
X10413000Y-5247500D01*
X10373000Y-5207500D02*
X10453000Y-5207500D01*
X10413000Y-5421500D02*
X10413000Y-5501500D01*
X10373000Y-5461500D02*
X10453000Y-5461500D01*
X10413000Y-5675500D02*
X10413000Y-5755500D01*
X10373000Y-5715500D02*
X10453000Y-5715500D01*
X10540500Y-7835000D02*
X10540500Y-7915000D01*
X10500500Y-7875000D02*
X10580500Y-7875000D01*
X10540500Y-8597000D02*
X10540500Y-8677000D01*
X10500500Y-8637000D02*
X10580500Y-8637000D01*
X10794500Y-7835000D02*
X10794500Y-7915000D01*
X10754500Y-7875000D02*
X10834500Y-7875000D01*
X10794500Y-8597000D02*
X10794500Y-8677000D01*
X10754500Y-8637000D02*
X10834500Y-8637000D01*
X10920500Y-4025000D02*
X10920500Y-4105000D01*
X10880500Y-4065000D02*
X10960500Y-4065000D01*
X10920500Y-4787000D02*
X10920500Y-4867000D01*
X10880500Y-4827000D02*
X10960500Y-4827000D01*
X11048500Y-7835000D02*
X11048500Y-7915000D01*
X11008500Y-7875000D02*
X11088500Y-7875000D01*
X11048500Y-8597000D02*
X11048500Y-8677000D01*
X11008500Y-8637000D02*
X11088500Y-8637000D01*
X11174500Y-4025000D02*
X11174500Y-4105000D01*
X11134500Y-4065000D02*
X11214500Y-4065000D01*
X11174500Y-4787000D02*
X11174500Y-4867000D01*
X11134500Y-4827000D02*
X11214500Y-4827000D01*
X11302500Y-6309000D02*
X11302500Y-6389000D01*
X11262500Y-6349000D02*
X11342500Y-6349000D01*
X11302500Y-7071000D02*
X11302500Y-7151000D01*
X11262500Y-7111000D02*
X11342500Y-7111000D01*
X11302500Y-7835000D02*
X11302500Y-7915000D01*
X11262500Y-7875000D02*
X11342500Y-7875000D01*
X11302500Y-8597000D02*
X11302500Y-8677000D01*
X11262500Y-8637000D02*
X11342500Y-8637000D01*
X11428500Y-4025000D02*
X11428500Y-4105000D01*
X11388500Y-4065000D02*
X11468500Y-4065000D01*
X11428500Y-4787000D02*
X11428500Y-4867000D01*
X11388500Y-4827000D02*
X11468500Y-4827000D01*
X11430500Y-9485000D02*
X11430500Y-9565000D01*
X11390500Y-9525000D02*
X11470500Y-9525000D01*
X11430500Y-9739000D02*
X11430500Y-9819000D01*
X11390500Y-9779000D02*
X11470500Y-9779000D01*
X11430500Y-9993000D02*
X11430500Y-10073000D01*
X11390500Y-10033000D02*
X11470500Y-10033000D01*
X11430500Y-10247000D02*
X11430500Y-10327000D01*
X11390500Y-10287000D02*
X11470500Y-10287000D01*
X11430500Y-10501000D02*
X11430500Y-10581000D01*
X11390500Y-10541000D02*
X11470500Y-10541000D01*
X11430500Y-10755000D02*
X11430500Y-10835000D01*
X11390500Y-10795000D02*
X11470500Y-10795000D01*
X11430500Y-11009000D02*
X11430500Y-11089000D01*
X11390500Y-11049000D02*
X11470500Y-11049000D01*
X11430500Y-11263000D02*
X11430500Y-11343000D01*
X11390500Y-11303000D02*
X11470500Y-11303000D01*
X11430500Y-11517000D02*
X11430500Y-11597000D01*
X11390500Y-11557000D02*
X11470500Y-11557000D01*
X11430500Y-11771000D02*
X11430500Y-11851000D01*
X11390500Y-11811000D02*
X11470500Y-11811000D01*
X11430500Y-12025000D02*
X11430500Y-12105000D01*
X11390500Y-12065000D02*
X11470500Y-12065000D01*
X11430500Y-12279000D02*
X11430500Y-12359000D01*
X11390500Y-12319000D02*
X11470500Y-12319000D01*
X11430500Y-12533000D02*
X11430500Y-12613000D01*
X11390500Y-12573000D02*
X11470500Y-12573000D01*
X11430500Y-12787000D02*
X11430500Y-12867000D01*
X11390500Y-12827000D02*
X11470500Y-12827000D01*
X11430500Y-13041000D02*
X11430500Y-13121000D01*
X11390500Y-13081000D02*
X11470500Y-13081000D01*
X11430500Y-13295000D02*
X11430500Y-13375000D01*
X11390500Y-13335000D02*
X11470500Y-13335000D01*
X11556500Y-6309000D02*
X11556500Y-6389000D01*
X11516500Y-6349000D02*
X11596500Y-6349000D01*
X11556500Y-7071000D02*
X11556500Y-7151000D01*
X11516500Y-7111000D02*
X11596500Y-7111000D01*
X11556500Y-7835000D02*
X11556500Y-7915000D01*
X11516500Y-7875000D02*
X11596500Y-7875000D01*
X11556500Y-8597000D02*
X11556500Y-8677000D01*
X11516500Y-8637000D02*
X11596500Y-8637000D01*
X11682500Y-4025000D02*
X11682500Y-4105000D01*
X11642500Y-4065000D02*
X11722500Y-4065000D01*
X11682500Y-4787000D02*
X11682500Y-4867000D01*
X11642500Y-4827000D02*
X11722500Y-4827000D01*
X11810500Y-6309000D02*
X11810500Y-6389000D01*
X11770500Y-6349000D02*
X11850500Y-6349000D01*
X11810500Y-7071000D02*
X11810500Y-7151000D01*
X11770500Y-7111000D02*
X11850500Y-7111000D01*
X11810500Y-7835000D02*
X11810500Y-7915000D01*
X11770500Y-7875000D02*
X11850500Y-7875000D01*
X11810500Y-8597000D02*
X11810500Y-8677000D01*
X11770500Y-8637000D02*
X11850500Y-8637000D01*
X11936500Y-4025000D02*
X11936500Y-4105000D01*
X11896500Y-4065000D02*
X11976500Y-4065000D01*
X11936500Y-4787000D02*
X11936500Y-4867000D01*
X11896500Y-4827000D02*
X11976500Y-4827000D01*
X12064500Y-6309000D02*
X12064500Y-6389000D01*
X12024500Y-6349000D02*
X12104500Y-6349000D01*
X12064500Y-7071000D02*
X12064500Y-7151000D01*
X12024500Y-7111000D02*
X12104500Y-7111000D01*
X12064500Y-7835000D02*
X12064500Y-7915000D01*
X12024500Y-7875000D02*
X12104500Y-7875000D01*
X12064500Y-8597000D02*
X12064500Y-8677000D01*
X12024500Y-8637000D02*
X12104500Y-8637000D01*
X12190500Y-4025000D02*
X12190500Y-4105000D01*
X12150500Y-4065000D02*
X12230500Y-4065000D01*
X12190500Y-4787000D02*
X12190500Y-4867000D01*
X12150500Y-4827000D02*
X12230500Y-4827000D01*
X12318500Y-6309000D02*
X12318500Y-6389000D01*
X12278500Y-6349000D02*
X12358500Y-6349000D01*
X12318500Y-7071000D02*
X12318500Y-7151000D01*
X12278500Y-7111000D02*
X12358500Y-7111000D01*
X12318500Y-7835000D02*
X12318500Y-7915000D01*
X12278500Y-7875000D02*
X12358500Y-7875000D01*
X12318500Y-8597000D02*
X12318500Y-8677000D01*
X12278500Y-8637000D02*
X12358500Y-8637000D01*
X12444500Y-4025000D02*
X12444500Y-4105000D01*
X12404500Y-4065000D02*
X12484500Y-4065000D01*
X12444500Y-4787000D02*
X12444500Y-4867000D01*
X12404500Y-4827000D02*
X12484500Y-4827000D01*
X12572500Y-6309000D02*
X12572500Y-6389000D01*
X12532500Y-6349000D02*
X12612500Y-6349000D01*
X12572500Y-7071000D02*
X12572500Y-7151000D01*
X12532500Y-7111000D02*
X12612500Y-7111000D01*
X12572500Y-7835000D02*
X12572500Y-7915000D01*
X12532500Y-7875000D02*
X12612500Y-7875000D01*
X12572500Y-8597000D02*
X12572500Y-8677000D01*
X12532500Y-8637000D02*
X12612500Y-8637000D01*
X12698500Y-4025000D02*
X12698500Y-4105000D01*
X12658500Y-4065000D02*
X12738500Y-4065000D01*
X12698500Y-4787000D02*
X12698500Y-4867000D01*
X12658500Y-4827000D02*
X12738500Y-4827000D01*
X12826500Y-6309000D02*
X12826500Y-6389000D01*
X12786500Y-6349000D02*
X12866500Y-6349000D01*
X12826500Y-7071000D02*
X12826500Y-7151000D01*
X12786500Y-7111000D02*
X12866500Y-7111000D01*
X12826500Y-7835000D02*
X12826500Y-7915000D01*
X12786500Y-7875000D02*
X12866500Y-7875000D01*
X12826500Y-8597000D02*
X12826500Y-8677000D01*
X12786500Y-8637000D02*
X12866500Y-8637000D01*
D15*
X12858820Y-9556820D02*
X12858820Y-9493180D01*
X12795180Y-9493180D01*
X12795180Y-9556820D01*
X12858820Y-9556820D01*
X12858820Y-10064820D02*
X12858820Y-10001180D01*
X12795180Y-10001180D01*
X12795180Y-10064820D01*
X12858820Y-10064820D01*
X12858820Y-10572820D02*
X12858820Y-10509180D01*
X12795180Y-10509180D01*
X12795180Y-10572820D01*
X12858820Y-10572820D01*
X12858820Y-11080820D02*
X12858820Y-11017180D01*
X12795180Y-11017180D01*
X12795180Y-11080820D01*
X12858820Y-11080820D01*
X12858820Y-11588820D02*
X12858820Y-11525180D01*
X12795180Y-11525180D01*
X12795180Y-11588820D01*
X12858820Y-11588820D01*
X13112820Y-9556820D02*
X13112820Y-9493180D01*
X13049180Y-9493180D01*
X13049180Y-9556820D01*
X13112820Y-9556820D01*
X13112820Y-10064820D02*
X13112820Y-10001180D01*
X13049180Y-10001180D01*
X13049180Y-10064820D01*
X13112820Y-10064820D01*
X13112820Y-10572820D02*
X13112820Y-10509180D01*
X13049180Y-10509180D01*
X13049180Y-10572820D01*
X13112820Y-10572820D01*
X13112820Y-11080820D02*
X13112820Y-11017180D01*
X13049180Y-11017180D01*
X13049180Y-11080820D01*
X13112820Y-11080820D01*
X13112820Y-11588820D02*
X13112820Y-11525180D01*
X13049180Y-11525180D01*
X13049180Y-11588820D01*
X13112820Y-11588820D01*
D16*
X9144000Y-4114000D02*
X9194000Y-4064000D01*
X9144000Y-4014000D01*
X9094000Y-4064000D01*
X9144000Y-4114000D01*
X9144000Y-4368000D02*
X9194000Y-4318000D01*
X9144000Y-4268000D01*
X9094000Y-4318000D01*
X9144000Y-4368000D01*
X9144000Y-4622000D02*
X9194000Y-4572000D01*
X9144000Y-4522000D01*
X9094000Y-4572000D01*
X9144000Y-4622000D01*
X9144000Y-4876000D02*
X9194000Y-4826000D01*
X9144000Y-4776000D01*
X9094000Y-4826000D01*
X9144000Y-4876000D01*
X9144000Y-5130000D02*
X9194000Y-5080000D01*
X9144000Y-5030000D01*
X9094000Y-5080000D01*
X9144000Y-5130000D01*
X9144000Y-5384000D02*
X9194000Y-5334000D01*
X9144000Y-5284000D01*
X9094000Y-5334000D01*
X9144000Y-5384000D01*
X9144000Y-5638000D02*
X9194000Y-5588000D01*
X9144000Y-5538000D01*
X9094000Y-5588000D01*
X9144000Y-5638000D01*
X9144000Y-5892000D02*
X9194000Y-5842000D01*
X9144000Y-5792000D01*
X9094000Y-5842000D01*
X9144000Y-5892000D01*
X9144000Y-6146000D02*
X9194000Y-6096000D01*
X9144000Y-6046000D01*
X9094000Y-6096000D01*
X9144000Y-6146000D01*
X9144000Y-6400000D02*
X9194000Y-6350000D01*
X9144000Y-6300000D01*
X9094000Y-6350000D01*
X9144000Y-6400000D01*
X9144000Y-6654000D02*
X9194000Y-6604000D01*
X9144000Y-6554000D01*
X9094000Y-6604000D01*
X9144000Y-6654000D01*
X9144000Y-6908000D02*
X9194000Y-6858000D01*
X9144000Y-6808000D01*
X9094000Y-6858000D01*
X9144000Y-6908000D01*
X9144000Y-7162000D02*
X9194000Y-7112000D01*
X9144000Y-7062000D01*
X9094000Y-7112000D01*
X9144000Y-7162000D01*
X9144000Y-7416000D02*
X9194000Y-7366000D01*
X9144000Y-7316000D01*
X9094000Y-7366000D01*
X9144000Y-7416000D01*
X9144000Y-7670000D02*
X9194000Y-7620000D01*
X9144000Y-7570000D01*
X9094000Y-7620000D01*
X9144000Y-7670000D01*
X9144000Y-7924000D02*
X9194000Y-7874000D01*
X9144000Y-7824000D01*
X9094000Y-7874000D01*
X9144000Y-7924000D01*
X9144000Y-8178000D02*
X9194000Y-8128000D01*
X9144000Y-8078000D01*
X9094000Y-8128000D01*
X9144000Y-8178000D01*
X9144000Y-8432000D02*
X9194000Y-8382000D01*
X9144000Y-8332000D01*
X9094000Y-8382000D01*
X9144000Y-8432000D01*
X9144000Y-8686000D02*
X9194000Y-8636000D01*
X9144000Y-8586000D01*
X9094000Y-8636000D01*
X9144000Y-8686000D01*
X9144000Y-8940000D02*
X9194000Y-8890000D01*
X9144000Y-8840000D01*
X9094000Y-8890000D01*
X9144000Y-8940000D01*
X9144000Y-9194000D02*
X9194000Y-9144000D01*
X9144000Y-9094000D01*
X9094000Y-9144000D01*
X9144000Y-9194000D01*
X9144000Y-9448000D02*
X9194000Y-9398000D01*
X9144000Y-9348000D01*
X9094000Y-9398000D01*
X9144000Y-9448000D01*
X9144000Y-9702000D02*
X9194000Y-9652000D01*
X9144000Y-9602000D01*
X9094000Y-9652000D01*
X9144000Y-9702000D01*
X9144000Y-9956000D02*
X9194000Y-9906000D01*
X9144000Y-9856000D01*
X9094000Y-9906000D01*
X9144000Y-9956000D01*
X9144000Y-10210000D02*
X9194000Y-10160000D01*
X9144000Y-10110000D01*
X9094000Y-10160000D01*
X9144000Y-10210000D01*
X9144000Y-10464000D02*
X9194000Y-10414000D01*
X9144000Y-10364000D01*
X9094000Y-10414000D01*
X9144000Y-10464000D01*
X9144000Y-10718000D02*
X9194000Y-10668000D01*
X9144000Y-10618000D01*
X9094000Y-10668000D01*
X9144000Y-10718000D01*
X9144000Y-10972000D02*
X9194000Y-10922000D01*
X9144000Y-10872000D01*
X9094000Y-10922000D01*
X9144000Y-10972000D01*
X9144000Y-11226000D02*
X9194000Y-11176000D01*
X9144000Y-11126000D01*
X9094000Y-11176000D01*
X9144000Y-11226000D01*
X9144000Y-11480000D02*
X9194000Y-11430000D01*
X9144000Y-11380000D01*
X9094000Y-11430000D01*
X9144000Y-11480000D01*
X9144000Y-11734000D02*
X9194000Y-11684000D01*
X9144000Y-11634000D01*
X9094000Y-11684000D01*
X9144000Y-11734000D01*
X9144000Y-11988000D02*
X9194000Y-11938000D01*
X9144000Y-11888000D01*
X9094000Y-11938000D01*
X9144000Y-11988000D01*
X9144000Y-12242000D02*
X9194000Y-12192000D01*
X9144000Y-12142000D01*
X9094000Y-12192000D01*
X9144000Y-12242000D01*
X9144000Y-12496000D02*
X9194000Y-12446000D01*
X9144000Y-12396000D01*
X9094000Y-12446000D01*
X9144000Y-12496000D01*
X9144000Y-12750000D02*
X9194000Y-12700000D01*
X9144000Y-12650000D01*
X9094000Y-12700000D01*
X9144000Y-12750000D01*
X9144000Y-13004000D02*
X9194000Y-12954000D01*
X9144000Y-12904000D01*
X9094000Y-12954000D01*
X9144000Y-13004000D01*
X9144000Y-13258000D02*
X9194000Y-13208000D01*
X9144000Y-13158000D01*
X9094000Y-13208000D01*
X9144000Y-13258000D01*
X9144000Y-13512000D02*
X9194000Y-13462000D01*
X9144000Y-13412000D01*
X9094000Y-13462000D01*
X9144000Y-13512000D01*
X9144000Y-13766000D02*
X9194000Y-13716000D01*
X9144000Y-13666000D01*
X9094000Y-13716000D01*
X9144000Y-13766000D01*
X9144000Y-14020000D02*
X9194000Y-13970000D01*
X9144000Y-13920000D01*
X9094000Y-13970000D01*
X9144000Y-14020000D01*
X9907500Y-6527500D02*
X9957500Y-6477500D01*
X9907500Y-6427500D01*
X9857500Y-6477500D01*
X9907500Y-6527500D01*
X9907500Y-6781500D02*
X9957500Y-6731500D01*
X9907500Y-6681500D01*
X9857500Y-6731500D01*
X9907500Y-6781500D01*
X10161500Y-6527500D02*
X10211500Y-6477500D01*
X10161500Y-6427500D01*
X10111500Y-6477500D01*
X10161500Y-6527500D01*
X10161500Y-6781500D02*
X10211500Y-6731500D01*
X10161500Y-6681500D01*
X10111500Y-6731500D01*
X10161500Y-6781500D01*
X10415500Y-6527500D02*
X10465500Y-6477500D01*
X10415500Y-6427500D01*
X10365500Y-6477500D01*
X10415500Y-6527500D01*
X10415500Y-6781500D02*
X10465500Y-6731500D01*
X10415500Y-6681500D01*
X10365500Y-6731500D01*
X10415500Y-6781500D01*
X10922000Y-5257000D02*
X10972000Y-5207000D01*
X10922000Y-5157000D01*
X10872000Y-5207000D01*
X10922000Y-5257000D01*
X10922000Y-5511000D02*
X10972000Y-5461000D01*
X10922000Y-5411000D01*
X10872000Y-5461000D01*
X10922000Y-5511000D01*
X11176000Y-5257000D02*
X11226000Y-5207000D01*
X11176000Y-5157000D01*
X11126000Y-5207000D01*
X11176000Y-5257000D01*
X11176000Y-5511000D02*
X11226000Y-5461000D01*
X11176000Y-5411000D01*
X11126000Y-5461000D01*
X11176000Y-5511000D01*
X11430000Y-5257000D02*
X11480000Y-5207000D01*
X11430000Y-5157000D01*
X11380000Y-5207000D01*
X11430000Y-5257000D01*
X11430000Y-5511000D02*
X11480000Y-5461000D01*
X11430000Y-5411000D01*
X11380000Y-5461000D01*
X11430000Y-5511000D01*
X11684000Y-5257000D02*
X11734000Y-5207000D01*
X11684000Y-5157000D01*
X11634000Y-5207000D01*
X11684000Y-5257000D01*
X11684000Y-5511000D02*
X11734000Y-5461000D01*
X11684000Y-5411000D01*
X11634000Y-5461000D01*
X11684000Y-5511000D01*
X11938000Y-5257000D02*
X11988000Y-5207000D01*
X11938000Y-5157000D01*
X11888000Y-5207000D01*
X11938000Y-5257000D01*
X11938000Y-5511000D02*
X11988000Y-5461000D01*
X11938000Y-5411000D01*
X11888000Y-5461000D01*
X11938000Y-5511000D01*
X12192000Y-5257000D02*
X12242000Y-5207000D01*
X12192000Y-5157000D01*
X12142000Y-5207000D01*
X12192000Y-5257000D01*
X12192000Y-5511000D02*
X12242000Y-5461000D01*
X12192000Y-5411000D01*
X12142000Y-5461000D01*
X12192000Y-5511000D01*
X12446000Y-5257000D02*
X12496000Y-5207000D01*
X12446000Y-5157000D01*
X12396000Y-5207000D01*
X12446000Y-5257000D01*
X12446000Y-5511000D02*
X12496000Y-5461000D01*
X12446000Y-5411000D01*
X12396000Y-5461000D01*
X12446000Y-5511000D01*
X12700000Y-5257000D02*
X12750000Y-5207000D01*
X12700000Y-5157000D01*
X12650000Y-5207000D01*
X12700000Y-5257000D01*
X12700000Y-5511000D02*
X12750000Y-5461000D01*
X12700000Y-5411000D01*
X12650000Y-5461000D01*
X12700000Y-5511000D01*
D11*
X9145119Y-14536976D02*
X9145119Y-14336976D01*
X9192738Y-14336976D01*
X9221310Y-14346500D01*
X9240357Y-14365548D01*
X9249881Y-14384595D01*
X9259405Y-14422690D01*
X9259405Y-14451262D01*
X9249881Y-14489357D01*
X9240357Y-14508405D01*
X9221310Y-14527452D01*
X9192738Y-14536976D01*
X9145119Y-14536976D01*
X9345119Y-14536976D02*
X9345119Y-14403643D01*
X9345119Y-14441738D02*
X9354643Y-14422690D01*
X9364167Y-14413167D01*
X9383214Y-14403643D01*
X9402262Y-14403643D01*
X9468929Y-14536976D02*
X9468929Y-14403643D01*
X9468929Y-14336976D02*
X9459405Y-14346500D01*
X9468929Y-14356024D01*
X9478452Y-14346500D01*
X9468929Y-14336976D01*
X9468929Y-14356024D01*
X9592738Y-14536976D02*
X9573690Y-14527452D01*
X9564167Y-14508405D01*
X9564167Y-14336976D01*
X9697500Y-14536976D02*
X9678452Y-14527452D01*
X9668929Y-14508405D01*
X9668929Y-14336976D01*
X9926071Y-14536976D02*
X9926071Y-14336976D01*
X9992738Y-14479833D01*
X10059405Y-14336976D01*
X10059405Y-14536976D01*
X10240357Y-14536976D02*
X10240357Y-14432214D01*
X10230833Y-14413167D01*
X10211786Y-14403643D01*
X10173690Y-14403643D01*
X10154643Y-14413167D01*
X10240357Y-14527452D02*
X10221310Y-14536976D01*
X10173690Y-14536976D01*
X10154643Y-14527452D01*
X10145119Y-14508405D01*
X10145119Y-14489357D01*
X10154643Y-14470309D01*
X10173690Y-14460786D01*
X10221310Y-14460786D01*
X10240357Y-14451262D01*
X10335595Y-14403643D02*
X10335595Y-14603643D01*
X10335595Y-14413167D02*
X10354643Y-14403643D01*
X10392738Y-14403643D01*
X10411786Y-14413167D01*
X10421310Y-14422690D01*
X10430833Y-14441738D01*
X10430833Y-14498881D01*
X10421310Y-14517928D01*
X10411786Y-14527452D01*
X10392738Y-14536976D01*
X10354643Y-14536976D01*
X10335595Y-14527452D01*
X10516548Y-14517928D02*
X10526071Y-14527452D01*
X10516548Y-14536976D01*
X10507024Y-14527452D01*
X10516548Y-14517928D01*
X10516548Y-14536976D01*
X10516548Y-14413167D02*
X10526071Y-14422690D01*
X10516548Y-14432214D01*
X10507024Y-14422690D01*
X10516548Y-14413167D01*
X10516548Y-14432214D01*
D12*
X8847500Y-14846500D02*
X8887500Y-14886500D01*
X8887500Y-14846500D02*
X8847500Y-14886500D01*
D11*
X9183214Y-14756976D02*
X9202262Y-14756976D01*
X9221310Y-14766500D01*
X9230833Y-14776024D01*
X9240357Y-14795071D01*
X9249881Y-14833167D01*
X9249881Y-14880786D01*
X9240357Y-14918881D01*
X9230833Y-14937928D01*
X9221310Y-14947452D01*
X9202262Y-14956976D01*
X9183214Y-14956976D01*
X9164167Y-14947452D01*
X9154643Y-14937928D01*
X9145119Y-14918881D01*
X9135595Y-14880786D01*
X9135595Y-14833167D01*
X9145119Y-14795071D01*
X9154643Y-14776024D01*
X9164167Y-14766500D01*
X9183214Y-14756976D01*
X9335595Y-14937928D02*
X9345119Y-14947452D01*
X9335595Y-14956976D01*
X9326071Y-14947452D01*
X9335595Y-14937928D01*
X9335595Y-14956976D01*
X9516548Y-14823643D02*
X9516548Y-14956976D01*
X9468929Y-14747452D02*
X9421310Y-14890309D01*
X9545119Y-14890309D01*
X9659405Y-14756976D02*
X9678452Y-14756976D01*
X9697500Y-14766500D01*
X9707024Y-14776024D01*
X9716548Y-14795071D01*
X9726071Y-14833167D01*
X9726071Y-14880786D01*
X9716548Y-14918881D01*
X9707024Y-14937928D01*
X9697500Y-14947452D01*
X9678452Y-14956976D01*
X9659405Y-14956976D01*
X9640357Y-14947452D01*
X9630833Y-14937928D01*
X9621310Y-14918881D01*
X9611786Y-14880786D01*
X9611786Y-14833167D01*
X9621310Y-14795071D01*
X9630833Y-14776024D01*
X9640357Y-14766500D01*
X9659405Y-14756976D01*
X9849881Y-14756976D02*
X9868929Y-14756976D01*
X9887976Y-14766500D01*
X9897500Y-14776024D01*
X9907024Y-14795071D01*
X9916548Y-14833167D01*
X9916548Y-14880786D01*
X9907024Y-14918881D01*
X9897500Y-14937928D01*
X9887976Y-14947452D01*
X9868929Y-14956976D01*
X9849881Y-14956976D01*
X9830833Y-14947452D01*
X9821310Y-14937928D01*
X9811786Y-14918881D01*
X9802262Y-14880786D01*
X9802262Y-14833167D01*
X9811786Y-14795071D01*
X9821310Y-14776024D01*
X9830833Y-14766500D01*
X9849881Y-14756976D01*
X10002262Y-14956976D02*
X10002262Y-14823643D01*
X10002262Y-14842690D02*
X10011786Y-14833167D01*
X10030833Y-14823643D01*
X10059405Y-14823643D01*
X10078452Y-14833167D01*
X10087976Y-14852214D01*
X10087976Y-14956976D01*
X10087976Y-14852214D02*
X10097500Y-14833167D01*
X10116548Y-14823643D01*
X10145119Y-14823643D01*
X10164167Y-14833167D01*
X10173690Y-14852214D01*
X10173690Y-14956976D01*
X10268929Y-14956976D02*
X10268929Y-14823643D01*
X10268929Y-14842690D02*
X10278452Y-14833167D01*
X10297500Y-14823643D01*
X10326071Y-14823643D01*
X10345119Y-14833167D01*
X10354643Y-14852214D01*
X10354643Y-14956976D01*
X10354643Y-14852214D02*
X10364167Y-14833167D01*
X10383214Y-14823643D01*
X10411786Y-14823643D01*
X10430833Y-14833167D01*
X10440357Y-14852214D01*
X10440357Y-14956976D01*
X10830833Y-14747452D02*
X10659405Y-15004595D01*
X11087976Y-14756976D02*
X11107024Y-14756976D01*
X11126071Y-14766500D01*
X11135595Y-14776024D01*
X11145119Y-14795071D01*
X11154643Y-14833167D01*
X11154643Y-14880786D01*
X11145119Y-14918881D01*
X11135595Y-14937928D01*
X11126071Y-14947452D01*
X11107024Y-14956976D01*
X11087976Y-14956976D01*
X11068929Y-14947452D01*
X11059405Y-14937928D01*
X11049881Y-14918881D01*
X11040357Y-14880786D01*
X11040357Y-14833167D01*
X11049881Y-14795071D01*
X11059405Y-14776024D01*
X11068929Y-14766500D01*
X11087976Y-14756976D01*
X11240357Y-14937928D02*
X11249881Y-14947452D01*
X11240357Y-14956976D01*
X11230833Y-14947452D01*
X11240357Y-14937928D01*
X11240357Y-14956976D01*
X11373690Y-14756976D02*
X11392738Y-14756976D01*
X11411786Y-14766500D01*
X11421309Y-14776024D01*
X11430833Y-14795071D01*
X11440357Y-14833167D01*
X11440357Y-14880786D01*
X11430833Y-14918881D01*
X11421309Y-14937928D01*
X11411786Y-14947452D01*
X11392738Y-14956976D01*
X11373690Y-14956976D01*
X11354643Y-14947452D01*
X11345119Y-14937928D01*
X11335595Y-14918881D01*
X11326071Y-14880786D01*
X11326071Y-14833167D01*
X11335595Y-14795071D01*
X11345119Y-14776024D01*
X11354643Y-14766500D01*
X11373690Y-14756976D01*
X11630833Y-14956976D02*
X11516548Y-14956976D01*
X11573690Y-14956976D02*
X11573690Y-14756976D01*
X11554643Y-14785548D01*
X11535595Y-14804595D01*
X11516548Y-14814119D01*
X11811786Y-14756976D02*
X11716548Y-14756976D01*
X11707024Y-14852214D01*
X11716548Y-14842690D01*
X11735595Y-14833167D01*
X11783214Y-14833167D01*
X11802262Y-14842690D01*
X11811786Y-14852214D01*
X11821309Y-14871262D01*
X11821309Y-14918881D01*
X11811786Y-14937928D01*
X11802262Y-14947452D01*
X11783214Y-14956976D01*
X11735595Y-14956976D01*
X11716548Y-14947452D01*
X11707024Y-14937928D01*
X11887976Y-14756976D02*
X12021309Y-14756976D01*
X11935595Y-14956976D01*
X12087976Y-14756976D02*
X12087976Y-14795071D01*
X12164167Y-14756976D02*
X12164167Y-14795071D01*
X12459405Y-15033167D02*
X12449881Y-15023643D01*
X12430833Y-14995071D01*
X12421309Y-14976024D01*
X12411786Y-14947452D01*
X12402262Y-14899833D01*
X12402262Y-14861738D01*
X12411786Y-14814119D01*
X12421309Y-14785548D01*
X12430833Y-14766500D01*
X12449881Y-14737928D01*
X12459405Y-14728405D01*
X12621309Y-14756976D02*
X12583214Y-14756976D01*
X12564167Y-14766500D01*
X12554643Y-14776024D01*
X12535595Y-14804595D01*
X12526071Y-14842690D01*
X12526071Y-14918881D01*
X12535595Y-14937928D01*
X12545119Y-14947452D01*
X12564167Y-14956976D01*
X12602262Y-14956976D01*
X12621309Y-14947452D01*
X12630833Y-14937928D01*
X12640357Y-14918881D01*
X12640357Y-14871262D01*
X12630833Y-14852214D01*
X12621309Y-14842690D01*
X12602262Y-14833167D01*
X12564167Y-14833167D01*
X12545119Y-14842690D01*
X12535595Y-14852214D01*
X12526071Y-14871262D01*
X12735595Y-14956976D02*
X12773690Y-14956976D01*
X12792738Y-14947452D01*
X12802262Y-14937928D01*
X12821309Y-14909357D01*
X12830833Y-14871262D01*
X12830833Y-14795071D01*
X12821309Y-14776024D01*
X12811786Y-14766500D01*
X12792738Y-14756976D01*
X12754643Y-14756976D01*
X12735595Y-14766500D01*
X12726071Y-14776024D01*
X12716548Y-14795071D01*
X12716548Y-14842690D01*
X12726071Y-14861738D01*
X12735595Y-14871262D01*
X12754643Y-14880786D01*
X12792738Y-14880786D01*
X12811786Y-14871262D01*
X12821309Y-14861738D01*
X12830833Y-14842690D01*
X13068928Y-14956976D02*
X13068928Y-14756976D01*
X13154643Y-14956976D02*
X13154643Y-14852214D01*
X13145119Y-14833167D01*
X13126071Y-14823643D01*
X13097500Y-14823643D01*
X13078452Y-14833167D01*
X13068928Y-14842690D01*
X13278452Y-14956976D02*
X13259405Y-14947452D01*
X13249881Y-14937928D01*
X13240357Y-14918881D01*
X13240357Y-14861738D01*
X13249881Y-14842690D01*
X13259405Y-14833167D01*
X13278452Y-14823643D01*
X13307024Y-14823643D01*
X13326071Y-14833167D01*
X13335595Y-14842690D01*
X13345119Y-14861738D01*
X13345119Y-14918881D01*
X13335595Y-14937928D01*
X13326071Y-14947452D01*
X13307024Y-14956976D01*
X13278452Y-14956976D01*
X13459405Y-14956976D02*
X13440357Y-14947452D01*
X13430833Y-14928405D01*
X13430833Y-14756976D01*
X13611786Y-14947452D02*
X13592738Y-14956976D01*
X13554643Y-14956976D01*
X13535595Y-14947452D01*
X13526071Y-14928405D01*
X13526071Y-14852214D01*
X13535595Y-14833167D01*
X13554643Y-14823643D01*
X13592738Y-14823643D01*
X13611786Y-14833167D01*
X13621309Y-14852214D01*
X13621309Y-14871262D01*
X13526071Y-14890309D01*
X13697500Y-14947452D02*
X13716548Y-14956976D01*
X13754643Y-14956976D01*
X13773690Y-14947452D01*
X13783214Y-14928405D01*
X13783214Y-14918881D01*
X13773690Y-14899833D01*
X13754643Y-14890309D01*
X13726071Y-14890309D01*
X13707024Y-14880786D01*
X13697500Y-14861738D01*
X13697500Y-14852214D01*
X13707024Y-14833167D01*
X13726071Y-14823643D01*
X13754643Y-14823643D01*
X13773690Y-14833167D01*
X13849881Y-15033167D02*
X13859405Y-15023643D01*
X13878452Y-14995071D01*
X13887976Y-14976024D01*
X13897500Y-14947452D01*
X13907024Y-14899833D01*
X13907024Y-14861738D01*
X13897500Y-14814119D01*
X13887976Y-14785548D01*
X13878452Y-14766500D01*
X13859405Y-14737928D01*
X13849881Y-14728405D01*
D13*
X8887500Y-15130500D02*
G75*
G03*
X8887500Y-15130500I-35000J0D01*
G01*
D11*
X9183214Y-15020976D02*
X9202262Y-15020976D01*
X9221310Y-15030500D01*
X9230833Y-15040024D01*
X9240357Y-15059071D01*
X9249881Y-15097167D01*
X9249881Y-15144786D01*
X9240357Y-15182881D01*
X9230833Y-15201928D01*
X9221310Y-15211452D01*
X9202262Y-15220976D01*
X9183214Y-15220976D01*
X9164167Y-15211452D01*
X9154643Y-15201928D01*
X9145119Y-15182881D01*
X9135595Y-15144786D01*
X9135595Y-15097167D01*
X9145119Y-15059071D01*
X9154643Y-15040024D01*
X9164167Y-15030500D01*
X9183214Y-15020976D01*
X9335595Y-15201928D02*
X9345119Y-15211452D01*
X9335595Y-15220976D01*
X9326071Y-15211452D01*
X9335595Y-15201928D01*
X9335595Y-15220976D01*
X9411786Y-15020976D02*
X9545119Y-15020976D01*
X9459405Y-15220976D01*
X9659405Y-15020976D02*
X9678452Y-15020976D01*
X9697500Y-15030500D01*
X9707024Y-15040024D01*
X9716548Y-15059071D01*
X9726071Y-15097167D01*
X9726071Y-15144786D01*
X9716548Y-15182881D01*
X9707024Y-15201928D01*
X9697500Y-15211452D01*
X9678452Y-15220976D01*
X9659405Y-15220976D01*
X9640357Y-15211452D01*
X9630833Y-15201928D01*
X9621310Y-15182881D01*
X9611786Y-15144786D01*
X9611786Y-15097167D01*
X9621310Y-15059071D01*
X9630833Y-15040024D01*
X9640357Y-15030500D01*
X9659405Y-15020976D01*
X9849881Y-15020976D02*
X9868929Y-15020976D01*
X9887976Y-15030500D01*
X9897500Y-15040024D01*
X9907024Y-15059071D01*
X9916548Y-15097167D01*
X9916548Y-15144786D01*
X9907024Y-15182881D01*
X9897500Y-15201928D01*
X9887976Y-15211452D01*
X9868929Y-15220976D01*
X9849881Y-15220976D01*
X9830833Y-15211452D01*
X9821310Y-15201928D01*
X9811786Y-15182881D01*
X9802262Y-15144786D01*
X9802262Y-15097167D01*
X9811786Y-15059071D01*
X9821310Y-15040024D01*
X9830833Y-15030500D01*
X9849881Y-15020976D01*
X10002262Y-15220976D02*
X10002262Y-15087643D01*
X10002262Y-15106690D02*
X10011786Y-15097167D01*
X10030833Y-15087643D01*
X10059405Y-15087643D01*
X10078452Y-15097167D01*
X10087976Y-15116214D01*
X10087976Y-15220976D01*
X10087976Y-15116214D02*
X10097500Y-15097167D01*
X10116548Y-15087643D01*
X10145119Y-15087643D01*
X10164167Y-15097167D01*
X10173690Y-15116214D01*
X10173690Y-15220976D01*
X10268929Y-15220976D02*
X10268929Y-15087643D01*
X10268929Y-15106690D02*
X10278452Y-15097167D01*
X10297500Y-15087643D01*
X10326071Y-15087643D01*
X10345119Y-15097167D01*
X10354643Y-15116214D01*
X10354643Y-15220976D01*
X10354643Y-15116214D02*
X10364167Y-15097167D01*
X10383214Y-15087643D01*
X10411786Y-15087643D01*
X10430833Y-15097167D01*
X10440357Y-15116214D01*
X10440357Y-15220976D01*
X10830833Y-15011452D02*
X10659405Y-15268595D01*
X11087976Y-15020976D02*
X11107024Y-15020976D01*
X11126071Y-15030500D01*
X11135595Y-15040024D01*
X11145119Y-15059071D01*
X11154643Y-15097167D01*
X11154643Y-15144786D01*
X11145119Y-15182881D01*
X11135595Y-15201928D01*
X11126071Y-15211452D01*
X11107024Y-15220976D01*
X11087976Y-15220976D01*
X11068929Y-15211452D01*
X11059405Y-15201928D01*
X11049881Y-15182881D01*
X11040357Y-15144786D01*
X11040357Y-15097167D01*
X11049881Y-15059071D01*
X11059405Y-15040024D01*
X11068929Y-15030500D01*
X11087976Y-15020976D01*
X11240357Y-15201928D02*
X11249881Y-15211452D01*
X11240357Y-15220976D01*
X11230833Y-15211452D01*
X11240357Y-15201928D01*
X11240357Y-15220976D01*
X11373690Y-15020976D02*
X11392738Y-15020976D01*
X11411786Y-15030500D01*
X11421309Y-15040024D01*
X11430833Y-15059071D01*
X11440357Y-15097167D01*
X11440357Y-15144786D01*
X11430833Y-15182881D01*
X11421309Y-15201928D01*
X11411786Y-15211452D01*
X11392738Y-15220976D01*
X11373690Y-15220976D01*
X11354643Y-15211452D01*
X11345119Y-15201928D01*
X11335595Y-15182881D01*
X11326071Y-15144786D01*
X11326071Y-15097167D01*
X11335595Y-15059071D01*
X11345119Y-15040024D01*
X11354643Y-15030500D01*
X11373690Y-15020976D01*
X11516548Y-15040024D02*
X11526071Y-15030500D01*
X11545119Y-15020976D01*
X11592738Y-15020976D01*
X11611786Y-15030500D01*
X11621309Y-15040024D01*
X11630833Y-15059071D01*
X11630833Y-15078119D01*
X11621309Y-15106690D01*
X11507024Y-15220976D01*
X11630833Y-15220976D01*
X11697500Y-15020976D02*
X11830833Y-15020976D01*
X11745119Y-15220976D01*
X11992738Y-15020976D02*
X11954643Y-15020976D01*
X11935595Y-15030500D01*
X11926071Y-15040024D01*
X11907024Y-15068595D01*
X11897500Y-15106690D01*
X11897500Y-15182881D01*
X11907024Y-15201928D01*
X11916548Y-15211452D01*
X11935595Y-15220976D01*
X11973690Y-15220976D01*
X11992738Y-15211452D01*
X12002262Y-15201928D01*
X12011786Y-15182881D01*
X12011786Y-15135262D01*
X12002262Y-15116214D01*
X11992738Y-15106690D01*
X11973690Y-15097167D01*
X11935595Y-15097167D01*
X11916548Y-15106690D01*
X11907024Y-15116214D01*
X11897500Y-15135262D01*
X12087976Y-15020976D02*
X12087976Y-15059071D01*
X12164167Y-15020976D02*
X12164167Y-15059071D01*
X12459405Y-15297167D02*
X12449881Y-15287643D01*
X12430833Y-15259071D01*
X12421309Y-15240024D01*
X12411786Y-15211452D01*
X12402262Y-15163833D01*
X12402262Y-15125738D01*
X12411786Y-15078119D01*
X12421309Y-15049548D01*
X12430833Y-15030500D01*
X12449881Y-15001928D01*
X12459405Y-14992405D01*
X12640357Y-15220976D02*
X12526071Y-15220976D01*
X12583214Y-15220976D02*
X12583214Y-15020976D01*
X12564167Y-15049548D01*
X12545119Y-15068595D01*
X12526071Y-15078119D01*
X12716548Y-15040024D02*
X12726071Y-15030500D01*
X12745119Y-15020976D01*
X12792738Y-15020976D01*
X12811786Y-15030500D01*
X12821309Y-15040024D01*
X12830833Y-15059071D01*
X12830833Y-15078119D01*
X12821309Y-15106690D01*
X12707024Y-15220976D01*
X12830833Y-15220976D01*
X13068928Y-15220976D02*
X13068928Y-15020976D01*
X13154643Y-15220976D02*
X13154643Y-15116214D01*
X13145119Y-15097167D01*
X13126071Y-15087643D01*
X13097500Y-15087643D01*
X13078452Y-15097167D01*
X13068928Y-15106690D01*
X13278452Y-15220976D02*
X13259405Y-15211452D01*
X13249881Y-15201928D01*
X13240357Y-15182881D01*
X13240357Y-15125738D01*
X13249881Y-15106690D01*
X13259405Y-15097167D01*
X13278452Y-15087643D01*
X13307024Y-15087643D01*
X13326071Y-15097167D01*
X13335595Y-15106690D01*
X13345119Y-15125738D01*
X13345119Y-15182881D01*
X13335595Y-15201928D01*
X13326071Y-15211452D01*
X13307024Y-15220976D01*
X13278452Y-15220976D01*
X13459405Y-15220976D02*
X13440357Y-15211452D01*
X13430833Y-15192405D01*
X13430833Y-15020976D01*
X13611786Y-15211452D02*
X13592738Y-15220976D01*
X13554643Y-15220976D01*
X13535595Y-15211452D01*
X13526071Y-15192405D01*
X13526071Y-15116214D01*
X13535595Y-15097167D01*
X13554643Y-15087643D01*
X13592738Y-15087643D01*
X13611786Y-15097167D01*
X13621309Y-15116214D01*
X13621309Y-15135262D01*
X13526071Y-15154309D01*
X13697500Y-15211452D02*
X13716548Y-15220976D01*
X13754643Y-15220976D01*
X13773690Y-15211452D01*
X13783214Y-15192405D01*
X13783214Y-15182881D01*
X13773690Y-15163833D01*
X13754643Y-15154309D01*
X13726071Y-15154309D01*
X13707024Y-15144786D01*
X13697500Y-15125738D01*
X13697500Y-15116214D01*
X13707024Y-15097167D01*
X13726071Y-15087643D01*
X13754643Y-15087643D01*
X13773690Y-15097167D01*
X13849881Y-15297167D02*
X13859405Y-15287643D01*
X13878452Y-15259071D01*
X13887976Y-15240024D01*
X13897500Y-15211452D01*
X13907024Y-15163833D01*
X13907024Y-15125738D01*
X13897500Y-15078119D01*
X13887976Y-15049548D01*
X13878452Y-15030500D01*
X13859405Y-15001928D01*
X13849881Y-14992405D01*
D14*
X8847500Y-15354500D02*
X8847500Y-15434500D01*
X8807500Y-15394500D02*
X8887500Y-15394500D01*
D11*
X9183214Y-15284976D02*
X9202262Y-15284976D01*
X9221310Y-15294500D01*
X9230833Y-15304024D01*
X9240357Y-15323071D01*
X9249881Y-15361167D01*
X9249881Y-15408786D01*
X9240357Y-15446881D01*
X9230833Y-15465928D01*
X9221310Y-15475452D01*
X9202262Y-15484976D01*
X9183214Y-15484976D01*
X9164167Y-15475452D01*
X9154643Y-15465928D01*
X9145119Y-15446881D01*
X9135595Y-15408786D01*
X9135595Y-15361167D01*
X9145119Y-15323071D01*
X9154643Y-15304024D01*
X9164167Y-15294500D01*
X9183214Y-15284976D01*
X9335595Y-15465928D02*
X9345119Y-15475452D01*
X9335595Y-15484976D01*
X9326071Y-15475452D01*
X9335595Y-15465928D01*
X9335595Y-15484976D01*
X9459405Y-15370690D02*
X9440357Y-15361167D01*
X9430833Y-15351643D01*
X9421310Y-15332595D01*
X9421310Y-15323071D01*
X9430833Y-15304024D01*
X9440357Y-15294500D01*
X9459405Y-15284976D01*
X9497500Y-15284976D01*
X9516548Y-15294500D01*
X9526071Y-15304024D01*
X9535595Y-15323071D01*
X9535595Y-15332595D01*
X9526071Y-15351643D01*
X9516548Y-15361167D01*
X9497500Y-15370690D01*
X9459405Y-15370690D01*
X9440357Y-15380214D01*
X9430833Y-15389738D01*
X9421310Y-15408786D01*
X9421310Y-15446881D01*
X9430833Y-15465928D01*
X9440357Y-15475452D01*
X9459405Y-15484976D01*
X9497500Y-15484976D01*
X9516548Y-15475452D01*
X9526071Y-15465928D01*
X9535595Y-15446881D01*
X9535595Y-15408786D01*
X9526071Y-15389738D01*
X9516548Y-15380214D01*
X9497500Y-15370690D01*
X9659405Y-15284976D02*
X9678452Y-15284976D01*
X9697500Y-15294500D01*
X9707024Y-15304024D01*
X9716548Y-15323071D01*
X9726071Y-15361167D01*
X9726071Y-15408786D01*
X9716548Y-15446881D01*
X9707024Y-15465928D01*
X9697500Y-15475452D01*
X9678452Y-15484976D01*
X9659405Y-15484976D01*
X9640357Y-15475452D01*
X9630833Y-15465928D01*
X9621310Y-15446881D01*
X9611786Y-15408786D01*
X9611786Y-15361167D01*
X9621310Y-15323071D01*
X9630833Y-15304024D01*
X9640357Y-15294500D01*
X9659405Y-15284976D01*
X9849881Y-15284976D02*
X9868929Y-15284976D01*
X9887976Y-15294500D01*
X9897500Y-15304024D01*
X9907024Y-15323071D01*
X9916548Y-15361167D01*
X9916548Y-15408786D01*
X9907024Y-15446881D01*
X9897500Y-15465928D01*
X9887976Y-15475452D01*
X9868929Y-15484976D01*
X9849881Y-15484976D01*
X9830833Y-15475452D01*
X9821310Y-15465928D01*
X9811786Y-15446881D01*
X9802262Y-15408786D01*
X9802262Y-15361167D01*
X9811786Y-15323071D01*
X9821310Y-15304024D01*
X9830833Y-15294500D01*
X9849881Y-15284976D01*
X10002262Y-15484976D02*
X10002262Y-15351643D01*
X10002262Y-15370690D02*
X10011786Y-15361167D01*
X10030833Y-15351643D01*
X10059405Y-15351643D01*
X10078452Y-15361167D01*
X10087976Y-15380214D01*
X10087976Y-15484976D01*
X10087976Y-15380214D02*
X10097500Y-15361167D01*
X10116548Y-15351643D01*
X10145119Y-15351643D01*
X10164167Y-15361167D01*
X10173690Y-15380214D01*
X10173690Y-15484976D01*
X10268929Y-15484976D02*
X10268929Y-15351643D01*
X10268929Y-15370690D02*
X10278452Y-15361167D01*
X10297500Y-15351643D01*
X10326071Y-15351643D01*
X10345119Y-15361167D01*
X10354643Y-15380214D01*
X10354643Y-15484976D01*
X10354643Y-15380214D02*
X10364167Y-15361167D01*
X10383214Y-15351643D01*
X10411786Y-15351643D01*
X10430833Y-15361167D01*
X10440357Y-15380214D01*
X10440357Y-15484976D01*
X10830833Y-15275452D02*
X10659405Y-15532595D01*
X11087976Y-15284976D02*
X11107024Y-15284976D01*
X11126071Y-15294500D01*
X11135595Y-15304024D01*
X11145119Y-15323071D01*
X11154643Y-15361167D01*
X11154643Y-15408786D01*
X11145119Y-15446881D01*
X11135595Y-15465928D01*
X11126071Y-15475452D01*
X11107024Y-15484976D01*
X11087976Y-15484976D01*
X11068929Y-15475452D01*
X11059405Y-15465928D01*
X11049881Y-15446881D01*
X11040357Y-15408786D01*
X11040357Y-15361167D01*
X11049881Y-15323071D01*
X11059405Y-15304024D01*
X11068929Y-15294500D01*
X11087976Y-15284976D01*
X11240357Y-15465928D02*
X11249881Y-15475452D01*
X11240357Y-15484976D01*
X11230833Y-15475452D01*
X11240357Y-15465928D01*
X11240357Y-15484976D01*
X11373690Y-15284976D02*
X11392738Y-15284976D01*
X11411786Y-15294500D01*
X11421309Y-15304024D01*
X11430833Y-15323071D01*
X11440357Y-15361167D01*
X11440357Y-15408786D01*
X11430833Y-15446881D01*
X11421309Y-15465928D01*
X11411786Y-15475452D01*
X11392738Y-15484976D01*
X11373690Y-15484976D01*
X11354643Y-15475452D01*
X11345119Y-15465928D01*
X11335595Y-15446881D01*
X11326071Y-15408786D01*
X11326071Y-15361167D01*
X11335595Y-15323071D01*
X11345119Y-15304024D01*
X11354643Y-15294500D01*
X11373690Y-15284976D01*
X11507024Y-15284976D02*
X11630833Y-15284976D01*
X11564167Y-15361167D01*
X11592738Y-15361167D01*
X11611786Y-15370690D01*
X11621309Y-15380214D01*
X11630833Y-15399262D01*
X11630833Y-15446881D01*
X11621309Y-15465928D01*
X11611786Y-15475452D01*
X11592738Y-15484976D01*
X11535595Y-15484976D01*
X11516548Y-15475452D01*
X11507024Y-15465928D01*
X11821309Y-15484976D02*
X11707024Y-15484976D01*
X11764167Y-15484976D02*
X11764167Y-15284976D01*
X11745119Y-15313548D01*
X11726071Y-15332595D01*
X11707024Y-15342119D01*
X12002262Y-15284976D02*
X11907024Y-15284976D01*
X11897500Y-15380214D01*
X11907024Y-15370690D01*
X11926071Y-15361167D01*
X11973690Y-15361167D01*
X11992738Y-15370690D01*
X12002262Y-15380214D01*
X12011786Y-15399262D01*
X12011786Y-15446881D01*
X12002262Y-15465928D01*
X11992738Y-15475452D01*
X11973690Y-15484976D01*
X11926071Y-15484976D01*
X11907024Y-15475452D01*
X11897500Y-15465928D01*
X12087976Y-15284976D02*
X12087976Y-15323071D01*
X12164167Y-15284976D02*
X12164167Y-15323071D01*
X12459405Y-15561167D02*
X12449881Y-15551643D01*
X12430833Y-15523071D01*
X12421309Y-15504024D01*
X12411786Y-15475452D01*
X12402262Y-15427833D01*
X12402262Y-15389738D01*
X12411786Y-15342119D01*
X12421309Y-15313548D01*
X12430833Y-15294500D01*
X12449881Y-15265928D01*
X12459405Y-15256405D01*
X12545119Y-15484976D02*
X12583214Y-15484976D01*
X12602262Y-15475452D01*
X12611786Y-15465928D01*
X12630833Y-15437357D01*
X12640357Y-15399262D01*
X12640357Y-15323071D01*
X12630833Y-15304024D01*
X12621309Y-15294500D01*
X12602262Y-15284976D01*
X12564167Y-15284976D01*
X12545119Y-15294500D01*
X12535595Y-15304024D01*
X12526071Y-15323071D01*
X12526071Y-15370690D01*
X12535595Y-15389738D01*
X12545119Y-15399262D01*
X12564167Y-15408786D01*
X12602262Y-15408786D01*
X12621309Y-15399262D01*
X12630833Y-15389738D01*
X12640357Y-15370690D01*
X12811786Y-15284976D02*
X12773690Y-15284976D01*
X12754643Y-15294500D01*
X12745119Y-15304024D01*
X12726071Y-15332595D01*
X12716548Y-15370690D01*
X12716548Y-15446881D01*
X12726071Y-15465928D01*
X12735595Y-15475452D01*
X12754643Y-15484976D01*
X12792738Y-15484976D01*
X12811786Y-15475452D01*
X12821309Y-15465928D01*
X12830833Y-15446881D01*
X12830833Y-15399262D01*
X12821309Y-15380214D01*
X12811786Y-15370690D01*
X12792738Y-15361167D01*
X12754643Y-15361167D01*
X12735595Y-15370690D01*
X12726071Y-15380214D01*
X12716548Y-15399262D01*
X13068928Y-15484976D02*
X13068928Y-15284976D01*
X13154643Y-15484976D02*
X13154643Y-15380214D01*
X13145119Y-15361167D01*
X13126071Y-15351643D01*
X13097500Y-15351643D01*
X13078452Y-15361167D01*
X13068928Y-15370690D01*
X13278452Y-15484976D02*
X13259405Y-15475452D01*
X13249881Y-15465928D01*
X13240357Y-15446881D01*
X13240357Y-15389738D01*
X13249881Y-15370690D01*
X13259405Y-15361167D01*
X13278452Y-15351643D01*
X13307024Y-15351643D01*
X13326071Y-15361167D01*
X13335595Y-15370690D01*
X13345119Y-15389738D01*
X13345119Y-15446881D01*
X13335595Y-15465928D01*
X13326071Y-15475452D01*
X13307024Y-15484976D01*
X13278452Y-15484976D01*
X13459405Y-15484976D02*
X13440357Y-15475452D01*
X13430833Y-15456405D01*
X13430833Y-15284976D01*
X13611786Y-15475452D02*
X13592738Y-15484976D01*
X13554643Y-15484976D01*
X13535595Y-15475452D01*
X13526071Y-15456405D01*
X13526071Y-15380214D01*
X13535595Y-15361167D01*
X13554643Y-15351643D01*
X13592738Y-15351643D01*
X13611786Y-15361167D01*
X13621309Y-15380214D01*
X13621309Y-15399262D01*
X13526071Y-15418309D01*
X13697500Y-15475452D02*
X13716548Y-15484976D01*
X13754643Y-15484976D01*
X13773690Y-15475452D01*
X13783214Y-15456405D01*
X13783214Y-15446881D01*
X13773690Y-15427833D01*
X13754643Y-15418309D01*
X13726071Y-15418309D01*
X13707024Y-15408786D01*
X13697500Y-15389738D01*
X13697500Y-15380214D01*
X13707024Y-15361167D01*
X13726071Y-15351643D01*
X13754643Y-15351643D01*
X13773690Y-15361167D01*
X13849881Y-15561167D02*
X13859405Y-15551643D01*
X13878452Y-15523071D01*
X13887976Y-15504024D01*
X13897500Y-15475452D01*
X13907024Y-15427833D01*
X13907024Y-15389738D01*
X13897500Y-15342119D01*
X13887976Y-15313548D01*
X13878452Y-15294500D01*
X13859405Y-15265928D01*
X13849881Y-15256405D01*
D15*
X8874320Y-15690320D02*
X8874320Y-15626680D01*
X8810680Y-15626680D01*
X8810680Y-15690320D01*
X8874320Y-15690320D01*
D11*
X9183214Y-15548976D02*
X9202262Y-15548976D01*
X9221310Y-15558500D01*
X9230833Y-15568024D01*
X9240357Y-15587071D01*
X9249881Y-15625167D01*
X9249881Y-15672786D01*
X9240357Y-15710881D01*
X9230833Y-15729928D01*
X9221310Y-15739452D01*
X9202262Y-15748976D01*
X9183214Y-15748976D01*
X9164167Y-15739452D01*
X9154643Y-15729928D01*
X9145119Y-15710881D01*
X9135595Y-15672786D01*
X9135595Y-15625167D01*
X9145119Y-15587071D01*
X9154643Y-15568024D01*
X9164167Y-15558500D01*
X9183214Y-15548976D01*
X9335595Y-15729928D02*
X9345119Y-15739452D01*
X9335595Y-15748976D01*
X9326071Y-15739452D01*
X9335595Y-15729928D01*
X9335595Y-15748976D01*
X9440357Y-15748976D02*
X9478452Y-15748976D01*
X9497500Y-15739452D01*
X9507024Y-15729928D01*
X9526071Y-15701357D01*
X9535595Y-15663262D01*
X9535595Y-15587071D01*
X9526071Y-15568024D01*
X9516548Y-15558500D01*
X9497500Y-15548976D01*
X9459405Y-15548976D01*
X9440357Y-15558500D01*
X9430833Y-15568024D01*
X9421310Y-15587071D01*
X9421310Y-15634690D01*
X9430833Y-15653738D01*
X9440357Y-15663262D01*
X9459405Y-15672786D01*
X9497500Y-15672786D01*
X9516548Y-15663262D01*
X9526071Y-15653738D01*
X9535595Y-15634690D01*
X9659405Y-15548976D02*
X9678452Y-15548976D01*
X9697500Y-15558500D01*
X9707024Y-15568024D01*
X9716548Y-15587071D01*
X9726071Y-15625167D01*
X9726071Y-15672786D01*
X9716548Y-15710881D01*
X9707024Y-15729928D01*
X9697500Y-15739452D01*
X9678452Y-15748976D01*
X9659405Y-15748976D01*
X9640357Y-15739452D01*
X9630833Y-15729928D01*
X9621310Y-15710881D01*
X9611786Y-15672786D01*
X9611786Y-15625167D01*
X9621310Y-15587071D01*
X9630833Y-15568024D01*
X9640357Y-15558500D01*
X9659405Y-15548976D01*
X9849881Y-15548976D02*
X9868929Y-15548976D01*
X9887976Y-15558500D01*
X9897500Y-15568024D01*
X9907024Y-15587071D01*
X9916548Y-15625167D01*
X9916548Y-15672786D01*
X9907024Y-15710881D01*
X9897500Y-15729928D01*
X9887976Y-15739452D01*
X9868929Y-15748976D01*
X9849881Y-15748976D01*
X9830833Y-15739452D01*
X9821310Y-15729928D01*
X9811786Y-15710881D01*
X9802262Y-15672786D01*
X9802262Y-15625167D01*
X9811786Y-15587071D01*
X9821310Y-15568024D01*
X9830833Y-15558500D01*
X9849881Y-15548976D01*
X10002262Y-15748976D02*
X10002262Y-15615643D01*
X10002262Y-15634690D02*
X10011786Y-15625167D01*
X10030833Y-15615643D01*
X10059405Y-15615643D01*
X10078452Y-15625167D01*
X10087976Y-15644214D01*
X10087976Y-15748976D01*
X10087976Y-15644214D02*
X10097500Y-15625167D01*
X10116548Y-15615643D01*
X10145119Y-15615643D01*
X10164167Y-15625167D01*
X10173690Y-15644214D01*
X10173690Y-15748976D01*
X10268929Y-15748976D02*
X10268929Y-15615643D01*
X10268929Y-15634690D02*
X10278452Y-15625167D01*
X10297500Y-15615643D01*
X10326071Y-15615643D01*
X10345119Y-15625167D01*
X10354643Y-15644214D01*
X10354643Y-15748976D01*
X10354643Y-15644214D02*
X10364167Y-15625167D01*
X10383214Y-15615643D01*
X10411786Y-15615643D01*
X10430833Y-15625167D01*
X10440357Y-15644214D01*
X10440357Y-15748976D01*
X10830833Y-15539452D02*
X10659405Y-15796595D01*
X11087976Y-15548976D02*
X11107024Y-15548976D01*
X11126071Y-15558500D01*
X11135595Y-15568024D01*
X11145119Y-15587071D01*
X11154643Y-15625167D01*
X11154643Y-15672786D01*
X11145119Y-15710881D01*
X11135595Y-15729928D01*
X11126071Y-15739452D01*
X11107024Y-15748976D01*
X11087976Y-15748976D01*
X11068929Y-15739452D01*
X11059405Y-15729928D01*
X11049881Y-15710881D01*
X11040357Y-15672786D01*
X11040357Y-15625167D01*
X11049881Y-15587071D01*
X11059405Y-15568024D01*
X11068929Y-15558500D01*
X11087976Y-15548976D01*
X11240357Y-15729928D02*
X11249881Y-15739452D01*
X11240357Y-15748976D01*
X11230833Y-15739452D01*
X11240357Y-15729928D01*
X11240357Y-15748976D01*
X11373690Y-15548976D02*
X11392738Y-15548976D01*
X11411786Y-15558500D01*
X11421309Y-15568024D01*
X11430833Y-15587071D01*
X11440357Y-15625167D01*
X11440357Y-15672786D01*
X11430833Y-15710881D01*
X11421309Y-15729928D01*
X11411786Y-15739452D01*
X11392738Y-15748976D01*
X11373690Y-15748976D01*
X11354643Y-15739452D01*
X11345119Y-15729928D01*
X11335595Y-15710881D01*
X11326071Y-15672786D01*
X11326071Y-15625167D01*
X11335595Y-15587071D01*
X11345119Y-15568024D01*
X11354643Y-15558500D01*
X11373690Y-15548976D01*
X11507024Y-15548976D02*
X11630833Y-15548976D01*
X11564167Y-15625167D01*
X11592738Y-15625167D01*
X11611786Y-15634690D01*
X11621309Y-15644214D01*
X11630833Y-15663262D01*
X11630833Y-15710881D01*
X11621309Y-15729928D01*
X11611786Y-15739452D01*
X11592738Y-15748976D01*
X11535595Y-15748976D01*
X11516548Y-15739452D01*
X11507024Y-15729928D01*
X11811786Y-15548976D02*
X11716548Y-15548976D01*
X11707024Y-15644214D01*
X11716548Y-15634690D01*
X11735595Y-15625167D01*
X11783214Y-15625167D01*
X11802262Y-15634690D01*
X11811786Y-15644214D01*
X11821309Y-15663262D01*
X11821309Y-15710881D01*
X11811786Y-15729928D01*
X11802262Y-15739452D01*
X11783214Y-15748976D01*
X11735595Y-15748976D01*
X11716548Y-15739452D01*
X11707024Y-15729928D01*
X11992738Y-15615643D02*
X11992738Y-15748976D01*
X11945119Y-15539452D02*
X11897500Y-15682309D01*
X12021309Y-15682309D01*
X12087976Y-15548976D02*
X12087976Y-15587071D01*
X12164167Y-15548976D02*
X12164167Y-15587071D01*
X12459405Y-15825167D02*
X12449881Y-15815643D01*
X12430833Y-15787071D01*
X12421309Y-15768024D01*
X12411786Y-15739452D01*
X12402262Y-15691833D01*
X12402262Y-15653738D01*
X12411786Y-15606119D01*
X12421309Y-15577548D01*
X12430833Y-15558500D01*
X12449881Y-15529928D01*
X12459405Y-15520405D01*
X12640357Y-15748976D02*
X12526071Y-15748976D01*
X12583214Y-15748976D02*
X12583214Y-15548976D01*
X12564167Y-15577548D01*
X12545119Y-15596595D01*
X12526071Y-15606119D01*
X12764167Y-15548976D02*
X12783214Y-15548976D01*
X12802262Y-15558500D01*
X12811786Y-15568024D01*
X12821309Y-15587071D01*
X12830833Y-15625167D01*
X12830833Y-15672786D01*
X12821309Y-15710881D01*
X12811786Y-15729928D01*
X12802262Y-15739452D01*
X12783214Y-15748976D01*
X12764167Y-15748976D01*
X12745119Y-15739452D01*
X12735595Y-15729928D01*
X12726071Y-15710881D01*
X12716548Y-15672786D01*
X12716548Y-15625167D01*
X12726071Y-15587071D01*
X12735595Y-15568024D01*
X12745119Y-15558500D01*
X12764167Y-15548976D01*
X13068928Y-15748976D02*
X13068928Y-15548976D01*
X13154643Y-15748976D02*
X13154643Y-15644214D01*
X13145119Y-15625167D01*
X13126071Y-15615643D01*
X13097500Y-15615643D01*
X13078452Y-15625167D01*
X13068928Y-15634690D01*
X13278452Y-15748976D02*
X13259405Y-15739452D01*
X13249881Y-15729928D01*
X13240357Y-15710881D01*
X13240357Y-15653738D01*
X13249881Y-15634690D01*
X13259405Y-15625167D01*
X13278452Y-15615643D01*
X13307024Y-15615643D01*
X13326071Y-15625167D01*
X13335595Y-15634690D01*
X13345119Y-15653738D01*
X13345119Y-15710881D01*
X13335595Y-15729928D01*
X13326071Y-15739452D01*
X13307024Y-15748976D01*
X13278452Y-15748976D01*
X13459405Y-15748976D02*
X13440357Y-15739452D01*
X13430833Y-15720405D01*
X13430833Y-15548976D01*
X13611786Y-15739452D02*
X13592738Y-15748976D01*
X13554643Y-15748976D01*
X13535595Y-15739452D01*
X13526071Y-15720405D01*
X13526071Y-15644214D01*
X13535595Y-15625167D01*
X13554643Y-15615643D01*
X13592738Y-15615643D01*
X13611786Y-15625167D01*
X13621309Y-15644214D01*
X13621309Y-15663262D01*
X13526071Y-15682309D01*
X13697500Y-15739452D02*
X13716548Y-15748976D01*
X13754643Y-15748976D01*
X13773690Y-15739452D01*
X13783214Y-15720405D01*
X13783214Y-15710881D01*
X13773690Y-15691833D01*
X13754643Y-15682309D01*
X13726071Y-15682309D01*
X13707024Y-15672786D01*
X13697500Y-15653738D01*
X13697500Y-15644214D01*
X13707024Y-15625167D01*
X13726071Y-15615643D01*
X13754643Y-15615643D01*
X13773690Y-15625167D01*
X13849881Y-15825167D02*
X13859405Y-15815643D01*
X13878452Y-15787071D01*
X13887976Y-15768024D01*
X13897500Y-15739452D01*
X13907024Y-15691833D01*
X13907024Y-15653738D01*
X13897500Y-15606119D01*
X13887976Y-15577548D01*
X13878452Y-15558500D01*
X13859405Y-15529928D01*
X13849881Y-15520405D01*
D16*
X8837500Y-15972500D02*
X8887500Y-15922500D01*
X8837500Y-15872500D01*
X8787500Y-15922500D01*
X8837500Y-15972500D01*
D11*
X9249881Y-16012976D02*
X9135595Y-16012976D01*
X9192738Y-16012976D02*
X9192738Y-15812976D01*
X9173690Y-15841548D01*
X9154643Y-15860595D01*
X9135595Y-15870119D01*
X9335595Y-15993928D02*
X9345119Y-16003452D01*
X9335595Y-16012976D01*
X9326071Y-16003452D01*
X9335595Y-15993928D01*
X9335595Y-16012976D01*
X9468929Y-15812976D02*
X9487976Y-15812976D01*
X9507024Y-15822500D01*
X9516548Y-15832024D01*
X9526071Y-15851071D01*
X9535595Y-15889167D01*
X9535595Y-15936786D01*
X9526071Y-15974881D01*
X9516548Y-15993928D01*
X9507024Y-16003452D01*
X9487976Y-16012976D01*
X9468929Y-16012976D01*
X9449881Y-16003452D01*
X9440357Y-15993928D01*
X9430833Y-15974881D01*
X9421310Y-15936786D01*
X9421310Y-15889167D01*
X9430833Y-15851071D01*
X9440357Y-15832024D01*
X9449881Y-15822500D01*
X9468929Y-15812976D01*
X9659405Y-15812976D02*
X9678452Y-15812976D01*
X9697500Y-15822500D01*
X9707024Y-15832024D01*
X9716548Y-15851071D01*
X9726071Y-15889167D01*
X9726071Y-15936786D01*
X9716548Y-15974881D01*
X9707024Y-15993928D01*
X9697500Y-16003452D01*
X9678452Y-16012976D01*
X9659405Y-16012976D01*
X9640357Y-16003452D01*
X9630833Y-15993928D01*
X9621310Y-15974881D01*
X9611786Y-15936786D01*
X9611786Y-15889167D01*
X9621310Y-15851071D01*
X9630833Y-15832024D01*
X9640357Y-15822500D01*
X9659405Y-15812976D01*
X9849881Y-15812976D02*
X9868929Y-15812976D01*
X9887976Y-15822500D01*
X9897500Y-15832024D01*
X9907024Y-15851071D01*
X9916548Y-15889167D01*
X9916548Y-15936786D01*
X9907024Y-15974881D01*
X9897500Y-15993928D01*
X9887976Y-16003452D01*
X9868929Y-16012976D01*
X9849881Y-16012976D01*
X9830833Y-16003452D01*
X9821310Y-15993928D01*
X9811786Y-15974881D01*
X9802262Y-15936786D01*
X9802262Y-15889167D01*
X9811786Y-15851071D01*
X9821310Y-15832024D01*
X9830833Y-15822500D01*
X9849881Y-15812976D01*
X10002262Y-16012976D02*
X10002262Y-15879643D01*
X10002262Y-15898690D02*
X10011786Y-15889167D01*
X10030833Y-15879643D01*
X10059405Y-15879643D01*
X10078452Y-15889167D01*
X10087976Y-15908214D01*
X10087976Y-16012976D01*
X10087976Y-15908214D02*
X10097500Y-15889167D01*
X10116548Y-15879643D01*
X10145119Y-15879643D01*
X10164167Y-15889167D01*
X10173690Y-15908214D01*
X10173690Y-16012976D01*
X10268929Y-16012976D02*
X10268929Y-15879643D01*
X10268929Y-15898690D02*
X10278452Y-15889167D01*
X10297500Y-15879643D01*
X10326071Y-15879643D01*
X10345119Y-15889167D01*
X10354643Y-15908214D01*
X10354643Y-16012976D01*
X10354643Y-15908214D02*
X10364167Y-15889167D01*
X10383214Y-15879643D01*
X10411786Y-15879643D01*
X10430833Y-15889167D01*
X10440357Y-15908214D01*
X10440357Y-16012976D01*
X10830833Y-15803452D02*
X10659405Y-16060595D01*
X11087976Y-15812976D02*
X11107024Y-15812976D01*
X11126071Y-15822500D01*
X11135595Y-15832024D01*
X11145119Y-15851071D01*
X11154643Y-15889167D01*
X11154643Y-15936786D01*
X11145119Y-15974881D01*
X11135595Y-15993928D01*
X11126071Y-16003452D01*
X11107024Y-16012976D01*
X11087976Y-16012976D01*
X11068929Y-16003452D01*
X11059405Y-15993928D01*
X11049881Y-15974881D01*
X11040357Y-15936786D01*
X11040357Y-15889167D01*
X11049881Y-15851071D01*
X11059405Y-15832024D01*
X11068929Y-15822500D01*
X11087976Y-15812976D01*
X11240357Y-15993928D02*
X11249881Y-16003452D01*
X11240357Y-16012976D01*
X11230833Y-16003452D01*
X11240357Y-15993928D01*
X11240357Y-16012976D01*
X11373690Y-15812976D02*
X11392738Y-15812976D01*
X11411786Y-15822500D01*
X11421309Y-15832024D01*
X11430833Y-15851071D01*
X11440357Y-15889167D01*
X11440357Y-15936786D01*
X11430833Y-15974881D01*
X11421309Y-15993928D01*
X11411786Y-16003452D01*
X11392738Y-16012976D01*
X11373690Y-16012976D01*
X11354643Y-16003452D01*
X11345119Y-15993928D01*
X11335595Y-15974881D01*
X11326071Y-15936786D01*
X11326071Y-15889167D01*
X11335595Y-15851071D01*
X11345119Y-15832024D01*
X11354643Y-15822500D01*
X11373690Y-15812976D01*
X11507024Y-15812976D02*
X11630833Y-15812976D01*
X11564167Y-15889167D01*
X11592738Y-15889167D01*
X11611786Y-15898690D01*
X11621309Y-15908214D01*
X11630833Y-15927262D01*
X11630833Y-15974881D01*
X11621309Y-15993928D01*
X11611786Y-16003452D01*
X11592738Y-16012976D01*
X11535595Y-16012976D01*
X11516548Y-16003452D01*
X11507024Y-15993928D01*
X11726071Y-16012976D02*
X11764167Y-16012976D01*
X11783214Y-16003452D01*
X11792738Y-15993928D01*
X11811786Y-15965357D01*
X11821309Y-15927262D01*
X11821309Y-15851071D01*
X11811786Y-15832024D01*
X11802262Y-15822500D01*
X11783214Y-15812976D01*
X11745119Y-15812976D01*
X11726071Y-15822500D01*
X11716548Y-15832024D01*
X11707024Y-15851071D01*
X11707024Y-15898690D01*
X11716548Y-15917738D01*
X11726071Y-15927262D01*
X11745119Y-15936786D01*
X11783214Y-15936786D01*
X11802262Y-15927262D01*
X11811786Y-15917738D01*
X11821309Y-15898690D01*
X11992738Y-15879643D02*
X11992738Y-16012976D01*
X11945119Y-15803452D02*
X11897500Y-15946309D01*
X12021309Y-15946309D01*
X12087976Y-15812976D02*
X12087976Y-15851071D01*
X12164167Y-15812976D02*
X12164167Y-15851071D01*
X12459405Y-16089167D02*
X12449881Y-16079643D01*
X12430833Y-16051071D01*
X12421309Y-16032024D01*
X12411786Y-16003452D01*
X12402262Y-15955833D01*
X12402262Y-15917738D01*
X12411786Y-15870119D01*
X12421309Y-15841548D01*
X12430833Y-15822500D01*
X12449881Y-15793928D01*
X12459405Y-15784405D01*
X12621309Y-15812976D02*
X12583214Y-15812976D01*
X12564167Y-15822500D01*
X12554643Y-15832024D01*
X12535595Y-15860595D01*
X12526071Y-15898690D01*
X12526071Y-15974881D01*
X12535595Y-15993928D01*
X12545119Y-16003452D01*
X12564167Y-16012976D01*
X12602262Y-16012976D01*
X12621309Y-16003452D01*
X12630833Y-15993928D01*
X12640357Y-15974881D01*
X12640357Y-15927262D01*
X12630833Y-15908214D01*
X12621309Y-15898690D01*
X12602262Y-15889167D01*
X12564167Y-15889167D01*
X12545119Y-15898690D01*
X12535595Y-15908214D01*
X12526071Y-15927262D01*
X12716548Y-15832024D02*
X12726071Y-15822500D01*
X12745119Y-15812976D01*
X12792738Y-15812976D01*
X12811786Y-15822500D01*
X12821309Y-15832024D01*
X12830833Y-15851071D01*
X12830833Y-15870119D01*
X12821309Y-15898690D01*
X12707024Y-16012976D01*
X12830833Y-16012976D01*
X13068928Y-16012976D02*
X13068928Y-15812976D01*
X13154643Y-16012976D02*
X13154643Y-15908214D01*
X13145119Y-15889167D01*
X13126071Y-15879643D01*
X13097500Y-15879643D01*
X13078452Y-15889167D01*
X13068928Y-15898690D01*
X13278452Y-16012976D02*
X13259405Y-16003452D01*
X13249881Y-15993928D01*
X13240357Y-15974881D01*
X13240357Y-15917738D01*
X13249881Y-15898690D01*
X13259405Y-15889167D01*
X13278452Y-15879643D01*
X13307024Y-15879643D01*
X13326071Y-15889167D01*
X13335595Y-15898690D01*
X13345119Y-15917738D01*
X13345119Y-15974881D01*
X13335595Y-15993928D01*
X13326071Y-16003452D01*
X13307024Y-16012976D01*
X13278452Y-16012976D01*
X13459405Y-16012976D02*
X13440357Y-16003452D01*
X13430833Y-15984405D01*
X13430833Y-15812976D01*
X13611786Y-16003452D02*
X13592738Y-16012976D01*
X13554643Y-16012976D01*
X13535595Y-16003452D01*
X13526071Y-15984405D01*
X13526071Y-15908214D01*
X13535595Y-15889167D01*
X13554643Y-15879643D01*
X13592738Y-15879643D01*
X13611786Y-15889167D01*
X13621309Y-15908214D01*
X13621309Y-15927262D01*
X13526071Y-15946309D01*
X13697500Y-16003452D02*
X13716548Y-16012976D01*
X13754643Y-16012976D01*
X13773690Y-16003452D01*
X13783214Y-15984405D01*
X13783214Y-15974881D01*
X13773690Y-15955833D01*
X13754643Y-15946309D01*
X13726071Y-15946309D01*
X13707024Y-15936786D01*
X13697500Y-15917738D01*
X13697500Y-15908214D01*
X13707024Y-15889167D01*
X13726071Y-15879643D01*
X13754643Y-15879643D01*
X13773690Y-15889167D01*
X13849881Y-16089167D02*
X13859405Y-16079643D01*
X13878452Y-16051071D01*
X13887976Y-16032024D01*
X13897500Y-16003452D01*
X13907024Y-15955833D01*
X13907024Y-15917738D01*
X13897500Y-15870119D01*
X13887976Y-15841548D01*
X13878452Y-15822500D01*
X13859405Y-15793928D01*
X13849881Y-15784405D01*
M02*
