M48
; DRILL file {KiCad 6.0.2+dfsg-1} date Sat 16 Sep 2023 22:12:17 BST
; FORMAT={-:-/ absolute / metric / decimal}
; #@! TF.CreationDate,2023-09-16T22:12:17+01:00
; #@! TF.GenerationSoftware,Kicad,Pcbnew,6.0.2+dfsg-1
; #@! TF.FileFunction,Plated,1,2,PTH
FMAT,2
METRIC
; #@! TA.AperFunction,Plated,PTH,ViaDrill
T1C0.400
; #@! TA.AperFunction,Plated,PTH,ComponentDrill
T2C0.700
; #@! TA.AperFunction,Plated,PTH,ComponentDrill
T3C0.800
; #@! TA.AperFunction,Plated,PTH,ComponentDrill
T4C0.900
; #@! TA.AperFunction,Plated,PTH,ComponentDrill
T5C1.000
%
G90
G05
T1
X93.345Y-93.255
X93.98Y-125.73
X97.155Y-92.71
X97.79Y-82.55
X97.79Y-88.9
X99.06Y-76.2
X99.06Y-88.9
X99.605Y-59.055
X100.933Y-104.172
X101.6Y-77.47
X102.325Y-81.825
X105.41Y-69.85
X106.045Y-91.44
X106.68Y-81.919
X106.68Y-88.265
X107.315Y-61.595
X109.22Y-58.42
X109.22Y-66.04
X109.22Y-81.28
X109.22Y-88.265
X109.22Y-91.44
X110.485Y-88.27
X110.49Y-64.77
X110.49Y-68.58
X110.49Y-91.44
X110.49Y-97.066
X111.035Y-95.885
X111.76Y-81.28
X111.76Y-88.265
X111.76Y-91.44
X112.395Y-77.47
X114.3Y-81.28
X114.3Y-85.09
X114.846Y-89.535
X115.57Y-84.971
X117.385Y-75.458
X117.414Y-99.695
X117.475Y-89.535
X117.475Y-117.475
X118.11Y-74.295
X118.11Y-84.544
X119.38Y-76.924
X120.65Y-101.6
X120.65Y-118.745
X121.285Y-44.45
X121.92Y-81.28
X121.92Y-84.544
X121.92Y-96.52
X124.46Y-76.2
X124.46Y-81.825
X125.095Y-117.475
X125.73Y-81.28
X125.73Y-84.544
X125.73Y-112.305
X127.0Y-81.191
X127.123Y-77.347
X127.865Y-88.265
X128.27Y-56.515
X128.27Y-58.42
X128.27Y-83.82
X129.54Y-61.595
X129.603Y-82.614
X130.81Y-41.91
X130.81Y-85.09
X130.81Y-133.35
X132.08Y-85.09
X132.08Y-118.745
X132.625Y-100.33
X133.8Y-44.9
T2
X119.38Y-95.25
X119.38Y-100.33
X119.38Y-105.41
X119.38Y-110.49
X119.38Y-115.57
X123.19Y-74.93
X124.46Y-95.25
X124.46Y-100.33
X124.46Y-105.41
X124.46Y-110.49
X124.46Y-115.57
X128.27Y-74.93
T3
X96.51Y-41.915
X96.51Y-44.455
X96.51Y-46.995
X96.51Y-49.535
X96.51Y-52.075
X96.51Y-54.615
X96.51Y-57.155
X99.065Y-95.25
X99.065Y-97.79
X99.065Y-100.33
X99.065Y-102.87
X99.065Y-105.41
X99.065Y-107.95
X99.065Y-110.49
X99.065Y-113.03
X99.065Y-115.57
X99.065Y-118.11
X99.065Y-120.65
X99.065Y-123.19
X99.065Y-125.73
X99.065Y-128.27
X99.065Y-130.81
X99.065Y-133.35
X104.13Y-41.915
X104.13Y-44.455
X104.13Y-46.995
X104.13Y-49.535
X104.13Y-52.075
X104.13Y-54.615
X104.13Y-57.155
X105.405Y-78.75
X105.405Y-86.37
X107.945Y-78.75
X107.945Y-86.37
X109.205Y-40.65
X109.205Y-48.27
X110.485Y-78.75
X110.485Y-86.37
X111.745Y-40.65
X111.745Y-48.27
X113.025Y-63.49
X113.025Y-71.11
X113.025Y-78.75
X113.025Y-86.37
X114.285Y-40.65
X114.285Y-48.27
X114.305Y-95.25
X114.305Y-97.79
X114.305Y-100.33
X114.305Y-102.87
X114.305Y-105.41
X114.305Y-107.95
X114.305Y-110.49
X114.305Y-113.03
X114.305Y-115.57
X114.305Y-118.11
X114.305Y-120.65
X114.305Y-123.19
X114.305Y-125.73
X114.305Y-128.27
X114.305Y-130.81
X114.305Y-133.35
X115.565Y-63.49
X115.565Y-71.11
X115.565Y-78.75
X115.565Y-86.37
X116.825Y-40.65
X116.825Y-48.27
X118.105Y-63.49
X118.105Y-71.11
X118.105Y-78.75
X118.105Y-86.37
X119.365Y-40.65
X119.365Y-48.27
X120.645Y-63.49
X120.645Y-71.11
X120.645Y-78.75
X120.645Y-86.37
X121.905Y-40.65
X121.905Y-48.27
X123.185Y-63.49
X123.185Y-71.11
X123.185Y-78.75
X123.185Y-86.37
X124.445Y-40.65
X124.445Y-48.27
X125.725Y-63.49
X125.725Y-71.11
X125.725Y-78.75
X125.725Y-86.37
X126.985Y-40.65
X126.985Y-48.27
X128.265Y-63.49
X128.265Y-71.11
X128.265Y-78.75
X128.265Y-86.37
T4
X128.27Y-95.25
X128.27Y-100.33
X128.27Y-105.41
X128.27Y-110.49
X128.27Y-115.57
X130.81Y-95.25
X130.81Y-100.33
X130.81Y-105.41
X130.81Y-110.49
X130.81Y-115.57
T5
X91.44Y-40.64
X91.44Y-43.18
X91.44Y-45.72
X91.44Y-48.26
X91.44Y-50.8
X91.44Y-53.34
X91.44Y-55.88
X91.44Y-58.42
X91.44Y-60.96
X91.44Y-63.5
X91.44Y-66.04
X91.44Y-68.58
X91.44Y-71.12
X91.44Y-73.66
X91.44Y-76.2
X91.44Y-78.74
X91.44Y-81.28
X91.44Y-83.82
X91.44Y-86.36
X91.44Y-88.9
X91.44Y-91.44
X91.44Y-93.98
X91.44Y-96.52
X91.44Y-99.06
X91.44Y-101.6
X91.44Y-104.14
X91.44Y-106.68
X91.44Y-109.22
X91.44Y-111.76
X91.44Y-114.3
X91.44Y-116.84
X91.44Y-119.38
X91.44Y-121.92
X91.44Y-124.46
X91.44Y-127.0
X91.44Y-129.54
X91.44Y-132.08
X91.44Y-134.62
X91.44Y-137.16
X91.44Y-139.7
X99.075Y-64.775
X99.075Y-67.315
X101.615Y-64.775
X101.615Y-67.315
X104.155Y-64.775
X104.155Y-67.315
X109.22Y-52.07
X109.22Y-54.61
X111.76Y-52.07
X111.76Y-54.61
X114.3Y-52.07
X114.3Y-54.61
X116.84Y-52.07
X116.84Y-54.61
X119.38Y-52.07
X119.38Y-54.61
X121.92Y-52.07
X121.92Y-54.61
X124.46Y-52.07
X124.46Y-54.61
X127.0Y-52.07
X127.0Y-54.61
T0
M30
