G04 #@! TF.GenerationSoftware,KiCad,Pcbnew,6.0.2+dfsg-1*
G04 #@! TF.CreationDate,2023-09-16T22:11:41+01:00*
G04 #@! TF.ProjectId,Banked_RAM_Higher,42616e6b-6564-45f5-9241-4d5f48696768,rev?*
G04 #@! TF.SameCoordinates,Original*
G04 #@! TF.FileFunction,Copper,L1,Top*
G04 #@! TF.FilePolarity,Positive*
%FSLAX46Y46*%
G04 Gerber Fmt 4.6, Leading zero omitted, Abs format (unit mm)*
G04 Created by KiCad (PCBNEW 6.0.2+dfsg-1) date 2023-09-16 22:11:41*
%MOMM*%
%LPD*%
G01*
G04 APERTURE LIST*
G04 #@! TA.AperFunction,ComponentPad*
%ADD10C,1.400000*%
G04 #@! TD*
G04 #@! TA.AperFunction,ComponentPad*
%ADD11O,1.400000X1.400000*%
G04 #@! TD*
G04 #@! TA.AperFunction,ComponentPad*
%ADD12R,1.700000X1.700000*%
G04 #@! TD*
G04 #@! TA.AperFunction,ComponentPad*
%ADD13O,1.700000X1.700000*%
G04 #@! TD*
G04 #@! TA.AperFunction,ComponentPad*
%ADD14R,1.800000X1.800000*%
G04 #@! TD*
G04 #@! TA.AperFunction,ComponentPad*
%ADD15C,1.800000*%
G04 #@! TD*
G04 #@! TA.AperFunction,ComponentPad*
%ADD16R,1.600000X1.600000*%
G04 #@! TD*
G04 #@! TA.AperFunction,ComponentPad*
%ADD17O,1.600000X1.600000*%
G04 #@! TD*
G04 #@! TA.AperFunction,ViaPad*
%ADD18C,0.800000*%
G04 #@! TD*
G04 #@! TA.AperFunction,Conductor*
%ADD19C,0.500000*%
G04 #@! TD*
G04 #@! TA.AperFunction,Conductor*
%ADD20C,0.250000*%
G04 #@! TD*
G04 APERTURE END LIST*
D10*
X124460000Y-95250000D03*
D11*
X119380000Y-95250000D03*
D12*
X99075000Y-67315000D03*
D13*
X99075000Y-64775000D03*
X101615000Y-67315000D03*
X101615000Y-64775000D03*
X104155000Y-67315000D03*
X104155000Y-64775000D03*
D14*
X128270000Y-95250000D03*
D15*
X130810000Y-95250000D03*
D12*
X91440000Y-40640000D03*
D13*
X91440000Y-43180000D03*
X91440000Y-45720000D03*
X91440000Y-48260000D03*
X91440000Y-50800000D03*
X91440000Y-53340000D03*
X91440000Y-55880000D03*
X91440000Y-58420000D03*
X91440000Y-60960000D03*
X91440000Y-63500000D03*
X91440000Y-66040000D03*
X91440000Y-68580000D03*
X91440000Y-71120000D03*
X91440000Y-73660000D03*
X91440000Y-76200000D03*
X91440000Y-78740000D03*
X91440000Y-81280000D03*
X91440000Y-83820000D03*
X91440000Y-86360000D03*
X91440000Y-88900000D03*
X91440000Y-91440000D03*
X91440000Y-93980000D03*
X91440000Y-96520000D03*
X91440000Y-99060000D03*
X91440000Y-101600000D03*
X91440000Y-104140000D03*
X91440000Y-106680000D03*
X91440000Y-109220000D03*
X91440000Y-111760000D03*
X91440000Y-114300000D03*
X91440000Y-116840000D03*
X91440000Y-119380000D03*
X91440000Y-121920000D03*
X91440000Y-124460000D03*
X91440000Y-127000000D03*
X91440000Y-129540000D03*
X91440000Y-132080000D03*
X91440000Y-134620000D03*
X91440000Y-137160000D03*
X91440000Y-139700000D03*
D12*
X127000000Y-52070000D03*
D13*
X127000000Y-54610000D03*
X124460000Y-52070000D03*
X124460000Y-54610000D03*
X121920000Y-52070000D03*
X121920000Y-54610000D03*
X119380000Y-52070000D03*
X119380000Y-54610000D03*
X116840000Y-52070000D03*
X116840000Y-54610000D03*
X114300000Y-52070000D03*
X114300000Y-54610000D03*
X111760000Y-52070000D03*
X111760000Y-54610000D03*
X109220000Y-52070000D03*
X109220000Y-54610000D03*
D16*
X113025000Y-71110000D03*
D17*
X115565000Y-71110000D03*
X118105000Y-71110000D03*
X120645000Y-71110000D03*
X123185000Y-71110000D03*
X125725000Y-71110000D03*
X128265000Y-71110000D03*
X128265000Y-63490000D03*
X125725000Y-63490000D03*
X123185000Y-63490000D03*
X120645000Y-63490000D03*
X118105000Y-63490000D03*
X115565000Y-63490000D03*
X113025000Y-63490000D03*
D16*
X104130000Y-57155000D03*
D17*
X104130000Y-54615000D03*
X104130000Y-52075000D03*
X104130000Y-49535000D03*
X104130000Y-46995000D03*
X104130000Y-44455000D03*
X104130000Y-41915000D03*
X96510000Y-41915000D03*
X96510000Y-44455000D03*
X96510000Y-46995000D03*
X96510000Y-49535000D03*
X96510000Y-52075000D03*
X96510000Y-54615000D03*
X96510000Y-57155000D03*
D16*
X126985000Y-40650000D03*
D17*
X124445000Y-40650000D03*
X121905000Y-40650000D03*
X119365000Y-40650000D03*
X116825000Y-40650000D03*
X114285000Y-40650000D03*
X111745000Y-40650000D03*
X109205000Y-40650000D03*
X109205000Y-48270000D03*
X111745000Y-48270000D03*
X114285000Y-48270000D03*
X116825000Y-48270000D03*
X119365000Y-48270000D03*
X121905000Y-48270000D03*
X124445000Y-48270000D03*
X126985000Y-48270000D03*
D16*
X114305000Y-133350000D03*
D17*
X114305000Y-130810000D03*
X114305000Y-128270000D03*
X114305000Y-125730000D03*
X114305000Y-123190000D03*
X114305000Y-120650000D03*
X114305000Y-118110000D03*
X114305000Y-115570000D03*
X114305000Y-113030000D03*
X114305000Y-110490000D03*
X114305000Y-107950000D03*
X114305000Y-105410000D03*
X114305000Y-102870000D03*
X114305000Y-100330000D03*
X114305000Y-97790000D03*
X114305000Y-95250000D03*
X99065000Y-95250000D03*
X99065000Y-97790000D03*
X99065000Y-100330000D03*
X99065000Y-102870000D03*
X99065000Y-105410000D03*
X99065000Y-107950000D03*
X99065000Y-110490000D03*
X99065000Y-113030000D03*
X99065000Y-115570000D03*
X99065000Y-118110000D03*
X99065000Y-120650000D03*
X99065000Y-123190000D03*
X99065000Y-125730000D03*
X99065000Y-128270000D03*
X99065000Y-130810000D03*
X99065000Y-133350000D03*
D14*
X128270000Y-105410000D03*
D15*
X130810000Y-105410000D03*
D10*
X124460000Y-105410000D03*
D11*
X119380000Y-105410000D03*
D10*
X124460000Y-115570000D03*
D11*
X119380000Y-115570000D03*
D16*
X128265000Y-78750000D03*
D17*
X125725000Y-78750000D03*
X123185000Y-78750000D03*
X120645000Y-78750000D03*
X118105000Y-78750000D03*
X115565000Y-78750000D03*
X113025000Y-78750000D03*
X110485000Y-78750000D03*
X107945000Y-78750000D03*
X105405000Y-78750000D03*
X105405000Y-86370000D03*
X107945000Y-86370000D03*
X110485000Y-86370000D03*
X113025000Y-86370000D03*
X115565000Y-86370000D03*
X118105000Y-86370000D03*
X120645000Y-86370000D03*
X123185000Y-86370000D03*
X125725000Y-86370000D03*
X128265000Y-86370000D03*
D10*
X124460000Y-100330000D03*
D11*
X119380000Y-100330000D03*
D10*
X128270000Y-74930000D03*
D11*
X123190000Y-74930000D03*
D14*
X128270000Y-110490000D03*
D15*
X130810000Y-110490000D03*
D14*
X128270000Y-100330000D03*
D15*
X130810000Y-100330000D03*
D14*
X128270000Y-115570000D03*
D15*
X130810000Y-115570000D03*
D10*
X124460000Y-110490000D03*
D11*
X119380000Y-110490000D03*
D18*
X132625500Y-100330000D03*
X127864989Y-88265000D03*
X125730000Y-84544500D03*
X125730000Y-81280000D03*
X124460000Y-76200000D03*
X124460000Y-81825500D03*
X127000000Y-81190500D03*
X127122701Y-77347299D03*
X129603394Y-82613597D03*
X128270000Y-83820000D03*
X129540000Y-61595000D03*
X128270000Y-56515000D03*
X121285000Y-44450000D03*
X117385500Y-75457931D03*
X111035500Y-95885000D03*
X114845500Y-89535000D03*
X100932851Y-104172149D03*
X99605500Y-59055000D03*
X107315000Y-61595000D03*
X110490000Y-64770000D03*
X130810000Y-41910000D03*
X133799520Y-44899520D03*
X128270000Y-58420000D03*
X120650000Y-118745000D03*
X132080000Y-118745000D03*
X111760000Y-91440000D03*
X111760000Y-88265000D03*
X110490000Y-91440000D03*
X110485000Y-88270000D03*
X109220000Y-91440000D03*
X109220000Y-88265000D03*
X106680000Y-88265000D03*
X106045000Y-91440000D03*
X97155000Y-92710000D03*
X93345000Y-93255500D03*
X117475000Y-117475000D03*
X125095000Y-117475000D03*
X125730000Y-112305500D03*
X120650000Y-101600000D03*
X121920000Y-96520000D03*
X118110000Y-84544500D03*
X117414011Y-99695000D03*
X117475000Y-89535000D03*
X109220000Y-81280000D03*
X112395000Y-77470000D03*
X106680000Y-81919282D03*
X111760000Y-81280000D03*
X114300000Y-81280000D03*
X102324500Y-81825500D03*
X101600000Y-77470000D03*
X121920000Y-84544500D03*
X121920000Y-81280000D03*
X118110000Y-74295000D03*
X119380000Y-76924500D03*
X93980000Y-125730000D03*
X97790000Y-82550000D03*
X110490000Y-68580000D03*
X109220000Y-58420000D03*
X109220000Y-66040000D03*
X105410000Y-69850000D03*
X99060000Y-76200000D03*
X110490000Y-97065500D03*
X99060000Y-88900000D03*
X97790000Y-88900000D03*
X130810000Y-133350000D03*
X132080000Y-85090000D03*
X130810000Y-85090000D03*
X114300000Y-85090000D03*
X115570467Y-84970508D03*
D19*
X130810000Y-78740000D02*
X128270000Y-76200000D01*
X128265000Y-86370000D02*
X130810000Y-83825000D01*
X130810000Y-83825000D02*
X130810000Y-78740000D01*
X128270000Y-76200000D02*
X128270000Y-74930000D01*
X133508071Y-129381929D02*
X133508071Y-78898071D01*
D20*
X132933551Y-113446449D02*
X132933551Y-100638051D01*
X132933551Y-100638051D02*
X132625500Y-100330000D01*
X126849511Y-85574511D02*
X126849511Y-87831478D01*
X127283033Y-88265000D02*
X127864989Y-88265000D01*
X126849511Y-87831478D02*
X127283033Y-88265000D01*
X126365000Y-85090000D02*
X126849511Y-85574511D01*
X125730000Y-84544500D02*
X125819500Y-84544500D01*
X125819500Y-84544500D02*
X126365000Y-85090000D01*
X125730000Y-81280000D02*
X125730000Y-80010000D01*
X125730000Y-80010000D02*
X125725000Y-80005000D01*
X125725000Y-80005000D02*
X125725000Y-78750000D01*
X124460000Y-81825500D02*
X124460000Y-76200000D01*
X127000000Y-81190500D02*
X127000000Y-77470000D01*
X127000000Y-77470000D02*
X127122701Y-77347299D01*
X122215300Y-44450000D02*
X121285000Y-44450000D01*
X125569511Y-49369511D02*
X125569511Y-47804211D01*
X126365000Y-50165000D02*
X125569511Y-49369511D01*
X128270000Y-50990978D02*
X127444022Y-50165000D01*
X128270000Y-56515000D02*
X128270000Y-50990978D01*
X125725000Y-71110000D02*
X129540000Y-67295000D01*
X129540000Y-67295000D02*
X129540000Y-61595000D01*
X127444022Y-50165000D02*
X126365000Y-50165000D01*
X125569511Y-47804211D02*
X122215300Y-44450000D01*
X117492569Y-75565000D02*
X120015000Y-75565000D01*
X117385500Y-75457931D02*
X117492569Y-75565000D01*
X120015000Y-75565000D02*
X120645000Y-74935000D01*
X120645000Y-74935000D02*
X120645000Y-71110000D01*
X111035500Y-95885000D02*
X114845500Y-92075000D01*
X114845500Y-92075000D02*
X114845500Y-89535000D01*
X100900702Y-104140000D02*
X100932851Y-104172149D01*
X99385300Y-104140000D02*
X100900702Y-104140000D01*
X99605500Y-59055000D02*
X99605500Y-62765500D01*
X99605500Y-62765500D02*
X101615000Y-64775000D01*
X107315000Y-61595000D02*
X110490000Y-64770000D01*
X130810000Y-41910000D02*
X133799520Y-44899520D01*
X120650000Y-57150000D02*
X121920000Y-58420000D01*
X120650000Y-51678990D02*
X120650000Y-57150000D01*
X121920000Y-58420000D02*
X128270000Y-58420000D01*
X118240489Y-49269479D02*
X120650000Y-51678990D01*
X118240489Y-44314511D02*
X118240489Y-49269479D01*
X121905000Y-40650000D02*
X118240489Y-44314511D01*
X132080000Y-118745000D02*
X120650000Y-118745000D01*
X111760000Y-88265000D02*
X111760000Y-91440000D01*
X110490000Y-91440000D02*
X110490000Y-88275000D01*
X110490000Y-88275000D02*
X110485000Y-88270000D01*
X109220000Y-88265000D02*
X109220000Y-91440000D01*
X106045000Y-88900000D02*
X106680000Y-88265000D01*
X106045000Y-91440000D02*
X106045000Y-88900000D01*
X97155000Y-92710000D02*
X93890500Y-92710000D01*
X93890500Y-92710000D02*
X93345000Y-93255500D01*
X106665000Y-54610000D02*
X109220000Y-54610000D01*
X111760000Y-54610000D02*
X114300000Y-54610000D01*
X125095000Y-117475000D02*
X117475000Y-117475000D01*
X125730000Y-112305500D02*
X115029500Y-112305500D01*
X115029500Y-112305500D02*
X114305000Y-113030000D01*
X122640795Y-97228180D02*
X122640795Y-99609205D01*
X120650000Y-101600000D02*
X122640795Y-99609205D01*
X122640795Y-97228180D02*
X122644511Y-97224464D01*
X122644511Y-97224464D02*
X122644511Y-87719511D01*
X122644511Y-87719511D02*
X121920000Y-86995000D01*
X119229511Y-86835789D02*
X119229511Y-85664011D01*
X121920000Y-96520000D02*
X121920000Y-89526278D01*
X121920000Y-89526278D02*
X119229511Y-86835789D01*
X119229511Y-85664011D02*
X118110000Y-84544500D01*
X117475000Y-99634011D02*
X117414011Y-99695000D01*
X117475000Y-89535000D02*
X117475000Y-99634011D01*
X110485000Y-80015000D02*
X110485000Y-78750000D01*
X109220000Y-81280000D02*
X110485000Y-80015000D01*
X112395000Y-77470000D02*
X107634700Y-77470000D01*
X107634700Y-77470000D02*
X106680000Y-78424700D01*
X106680000Y-78424700D02*
X106680000Y-81919282D01*
X111760000Y-80010000D02*
X111760000Y-81280000D01*
X113020000Y-78750000D02*
X111760000Y-80010000D01*
X113025000Y-78750000D02*
X113020000Y-78750000D01*
X115254700Y-77470000D02*
X116825000Y-77470000D01*
X114300000Y-81280000D02*
X114300000Y-78424700D01*
X114300000Y-78424700D02*
X115254700Y-77470000D01*
X116825000Y-77470000D02*
X118105000Y-78750000D01*
X102324500Y-81825500D02*
X103400500Y-81825500D01*
X103400500Y-81825500D02*
X107945000Y-86370000D01*
X101600000Y-82565000D02*
X101600000Y-77470000D01*
X105405000Y-86370000D02*
X101600000Y-82565000D01*
X120409800Y-76924500D02*
X119380000Y-76924500D01*
X121920000Y-78434700D02*
X120409800Y-76924500D01*
X121920000Y-81280000D02*
X121920000Y-78434700D01*
X121920000Y-86995000D02*
X121920000Y-84544500D01*
X118110000Y-74295000D02*
X118105000Y-74290000D01*
X118105000Y-74290000D02*
X118105000Y-71110000D01*
X90170000Y-124851010D02*
X91048990Y-125730000D01*
X90170000Y-83428990D02*
X90170000Y-124851010D01*
X91048990Y-82550000D02*
X90170000Y-83428990D01*
X97790000Y-82550000D02*
X91048990Y-82550000D01*
X91048990Y-125730000D02*
X93980000Y-125730000D01*
X91440000Y-76200000D02*
X97065489Y-70574511D01*
X97065489Y-70574511D02*
X108495489Y-70574511D01*
X108495489Y-70574511D02*
X110490000Y-68580000D01*
X106539511Y-55739511D02*
X109220000Y-58420000D01*
X97634511Y-55739511D02*
X106539511Y-55739511D01*
X96510000Y-54615000D02*
X97634511Y-55739511D01*
X124460000Y-54610000D02*
X127000000Y-54610000D01*
X104130000Y-52075000D02*
X106665000Y-54610000D01*
D19*
X128260000Y-48270000D02*
X129540000Y-49550000D01*
X129540000Y-49550000D02*
X129540000Y-59690000D01*
X91440000Y-40640000D02*
X92710000Y-39370000D01*
X128260000Y-48270000D02*
X126985000Y-48270000D01*
X92710000Y-39370000D02*
X128204022Y-39370000D01*
X129540000Y-40705978D02*
X129540000Y-46990000D01*
X128204022Y-39370000D02*
X129540000Y-40705978D01*
X129540000Y-46990000D02*
X128260000Y-48270000D01*
D20*
X102865000Y-45720000D02*
X113030000Y-45720000D01*
X96510000Y-52075000D02*
X102865000Y-45720000D01*
X113030000Y-45720000D02*
X114285000Y-44465000D01*
X114285000Y-44465000D02*
X114285000Y-40650000D01*
X118105000Y-63490000D02*
X119229511Y-62365489D01*
X124600489Y-62365489D02*
X125725000Y-63490000D01*
X119229511Y-62365489D02*
X124600489Y-62365489D01*
X91440000Y-73660000D02*
X95250000Y-69850000D01*
X95250000Y-69850000D02*
X105410000Y-69850000D01*
X109220000Y-66040000D02*
X116840000Y-66040000D01*
X118105000Y-64775000D02*
X118105000Y-63490000D01*
X116840000Y-66040000D02*
X118105000Y-64775000D01*
X121920000Y-68580000D02*
X123190000Y-67310000D01*
X116980489Y-69709511D02*
X118110000Y-68580000D01*
X91440000Y-78740000D02*
X97945489Y-72234511D01*
X118110000Y-68580000D02*
X121920000Y-68580000D01*
X97945489Y-72234511D02*
X116030789Y-72234511D01*
X116030789Y-72234511D02*
X116980489Y-71284811D01*
X116980489Y-71284811D02*
X116980489Y-69709511D01*
X123190000Y-67310000D02*
X123185000Y-67305000D01*
X123185000Y-67305000D02*
X123185000Y-63490000D01*
X91440000Y-81280000D02*
X90170000Y-80010000D01*
X90170000Y-80010000D02*
X90170000Y-55488990D01*
X91043990Y-54615000D02*
X96510000Y-54615000D01*
X90170000Y-55488990D02*
X91043990Y-54615000D01*
X123190000Y-74930000D02*
X125730000Y-74930000D01*
X125730000Y-74930000D02*
X128265000Y-77465000D01*
X128265000Y-77465000D02*
X128265000Y-78750000D01*
X99060000Y-76200000D02*
X120650000Y-76200000D01*
X120650000Y-76215000D02*
X123185000Y-78750000D01*
X120650000Y-76200000D02*
X120650000Y-76215000D01*
X107225500Y-97065500D02*
X110490000Y-97065500D01*
X99060000Y-88900000D02*
X107225500Y-97065500D01*
X97790000Y-88900000D02*
X106680000Y-97790000D01*
X106680000Y-97790000D02*
X114305000Y-97790000D01*
D19*
X99065000Y-133350000D02*
X99065000Y-134625000D01*
X99065000Y-134625000D02*
X100330000Y-135890000D01*
X127000000Y-135890000D02*
X133508071Y-129381929D01*
X100330000Y-135890000D02*
X127000000Y-135890000D01*
X133508071Y-78898071D02*
X132080000Y-77470000D01*
D20*
X130810000Y-134620000D02*
X130810000Y-133350000D01*
X132080000Y-85724283D02*
X132080000Y-85090000D01*
X129539797Y-82550000D02*
X109220000Y-82550000D01*
X129603394Y-82613597D02*
X129539797Y-82550000D01*
X109220000Y-82550000D02*
X107945000Y-81275000D01*
X107945000Y-81275000D02*
X107945000Y-78750000D01*
X128270000Y-83820000D02*
X110490000Y-83820000D01*
D19*
X132080000Y-77470000D02*
X129540000Y-74930000D01*
X129540000Y-74930000D02*
X128270000Y-74930000D01*
X130810000Y-60960000D02*
X129540000Y-59690000D01*
X128270000Y-74930000D02*
X130810000Y-72390000D01*
X116825000Y-59690000D02*
X113025000Y-63490000D01*
X130810000Y-72390000D02*
X130810000Y-60960000D01*
X129540000Y-59690000D02*
X116825000Y-59690000D01*
X96510000Y-57155000D02*
X100335000Y-57155000D01*
X100335000Y-57155000D02*
X102870000Y-59690000D01*
X102870000Y-59690000D02*
X109225000Y-59690000D01*
X109225000Y-59690000D02*
X113025000Y-63490000D01*
D20*
X104155000Y-67315000D02*
X114305000Y-67315000D01*
X114305000Y-67315000D02*
X115565000Y-68575000D01*
X115565000Y-68575000D02*
X115565000Y-71110000D01*
X101615000Y-67315000D02*
X104155000Y-67315000D01*
X99075000Y-67315000D02*
X101615000Y-67315000D01*
X130810000Y-115570000D02*
X132933551Y-113446449D01*
X114300000Y-86695300D02*
X114300000Y-85090000D01*
X115570000Y-87965300D02*
X114300000Y-86695300D01*
X122290789Y-106434511D02*
X115570000Y-99713722D01*
X115570000Y-99713722D02*
X115570000Y-87965300D01*
X126754511Y-106434511D02*
X122290789Y-106434511D01*
X130810000Y-110490000D02*
X126754511Y-106434511D01*
X115755808Y-84970508D02*
X115570467Y-84970508D01*
X116689511Y-100179511D02*
X116689511Y-85904211D01*
X116689511Y-85904211D02*
X115755808Y-84970508D01*
X130810000Y-105410000D02*
X128270000Y-102870000D01*
X119380000Y-102870000D02*
X116689511Y-100179511D01*
X128270000Y-102870000D02*
X119380000Y-102870000D01*
X116469040Y-131185960D02*
X116469040Y-114672396D01*
X114305000Y-133350000D02*
X116469040Y-131185960D01*
X116469040Y-114672396D02*
X117212396Y-113929040D01*
X117212396Y-113929040D02*
X129912396Y-113929040D01*
X129912396Y-113929040D02*
X132484031Y-111357405D01*
X132484031Y-102004031D02*
X130810000Y-100330000D01*
X132484031Y-111357405D02*
X132484031Y-102004031D01*
X117026198Y-113479520D02*
X116019520Y-114486198D01*
X116019520Y-114486198D02*
X116019520Y-130685780D01*
X116019520Y-130685780D02*
X114625300Y-132080000D01*
X130810000Y-105410000D02*
X132034511Y-106634511D01*
X132034511Y-106634511D02*
X132034511Y-111171207D01*
X132034511Y-111171207D02*
X129726197Y-113479520D01*
X129726197Y-113479520D02*
X117026198Y-113479520D01*
X114625300Y-132080000D02*
X106680000Y-132080000D01*
X106680000Y-132080000D02*
X102870000Y-128270000D01*
X102870000Y-128270000D02*
X99065000Y-128270000D01*
X114305000Y-130810000D02*
X115570000Y-129545000D01*
X115570000Y-129545000D02*
X115570000Y-114300000D01*
X115570000Y-114300000D02*
X116840000Y-113030000D01*
X129540000Y-113030000D02*
X130810000Y-111760000D01*
X116840000Y-113030000D02*
X129540000Y-113030000D01*
X130810000Y-111760000D02*
X130810000Y-110490000D01*
X130810000Y-100330000D02*
X132080000Y-99060000D01*
X132080000Y-99060000D02*
X132080000Y-85724283D01*
X130810000Y-95250000D02*
X130810000Y-85090000D01*
X110495000Y-83820000D02*
X107945000Y-86370000D01*
X97940489Y-131934511D02*
X97940489Y-136040489D01*
X99065000Y-130810000D02*
X97940489Y-131934511D01*
X99060000Y-137160000D02*
X128270000Y-137160000D01*
X97940489Y-136040489D02*
X99060000Y-137160000D01*
X128270000Y-137160000D02*
X130810000Y-134620000D01*
X93672451Y-86360000D02*
X108849040Y-101536589D01*
X108849040Y-104140000D02*
X110119040Y-105410000D01*
X91440000Y-86360000D02*
X93672451Y-86360000D01*
X108849040Y-101536589D02*
X108849040Y-104140000D01*
X110119040Y-105410000D02*
X114305000Y-105410000D01*
X91440000Y-88900000D02*
X95576734Y-88900000D01*
X95576734Y-88900000D02*
X108399520Y-101722786D01*
X108399520Y-101722786D02*
X108399520Y-107129520D01*
X108399520Y-107129520D02*
X109220000Y-107950000D01*
X109220000Y-107950000D02*
X114305000Y-107950000D01*
X107950000Y-109220000D02*
X109220000Y-110490000D01*
X97481017Y-91440000D02*
X107950000Y-101908983D01*
X109220000Y-110490000D02*
X114305000Y-110490000D01*
X91440000Y-91440000D02*
X97481017Y-91440000D01*
X107950000Y-101908983D02*
X107950000Y-109220000D01*
X91440000Y-93980000D02*
X99385300Y-93980000D01*
X107208080Y-101802780D02*
X107208080Y-112288080D01*
X99385300Y-93980000D02*
X107208080Y-101802780D01*
X107208080Y-112288080D02*
X107950000Y-113030000D01*
X107950000Y-113030000D02*
X114305000Y-113030000D01*
X91440000Y-96520000D02*
X100330000Y-96520000D01*
X106758560Y-114378560D02*
X107950000Y-115570000D01*
X100330000Y-96520000D02*
X106758560Y-102948560D01*
X106758560Y-102948560D02*
X106758560Y-114378560D01*
X107950000Y-115570000D02*
X114305000Y-115570000D01*
X106309040Y-105983740D02*
X106309040Y-116469040D01*
X107950000Y-118110000D02*
X114305000Y-118110000D01*
X106309040Y-116469040D02*
X107950000Y-118110000D01*
X91440000Y-99060000D02*
X99385300Y-99060000D01*
X99385300Y-99060000D02*
X106309040Y-105983740D01*
X105859520Y-108074220D02*
X105859520Y-119193802D01*
X107315718Y-120650000D02*
X114305000Y-120650000D01*
X91440000Y-101600000D02*
X99385300Y-101600000D01*
X99385300Y-101600000D02*
X105859520Y-108074220D01*
X105859520Y-119193802D02*
X107315718Y-120650000D01*
X91440000Y-104140000D02*
X99385300Y-104140000D01*
X99385300Y-104140000D02*
X105410000Y-110164700D01*
X105410000Y-110164700D02*
X105410000Y-119380000D01*
X105410000Y-119380000D02*
X109220000Y-123190000D01*
X109220000Y-123190000D02*
X114305000Y-123190000D01*
X124460000Y-115570000D02*
X128270000Y-115570000D01*
X124460000Y-110490000D02*
X128270000Y-110490000D01*
X124460000Y-105410000D02*
X128270000Y-105410000D01*
X124460000Y-100330000D02*
X128270000Y-100330000D01*
X124460000Y-95250000D02*
X128270000Y-95250000D01*
X97644511Y-121774511D02*
X103994511Y-121774511D01*
X92710000Y-116840000D02*
X97644511Y-121774511D01*
X91440000Y-116840000D02*
X92710000Y-116840000D01*
X103994511Y-121774511D02*
X107950000Y-125730000D01*
X107950000Y-125730000D02*
X114305000Y-125730000D01*
X91440000Y-106680000D02*
X100330000Y-106680000D01*
X100330000Y-106680000D02*
X102049520Y-108399520D01*
X102049520Y-117665480D02*
X99065000Y-120650000D01*
X102049520Y-108399520D02*
X102049520Y-117665480D01*
X101600000Y-110490000D02*
X101600000Y-116840000D01*
X91440000Y-109220000D02*
X100330000Y-109220000D01*
X100330000Y-109220000D02*
X101600000Y-110490000D01*
X101600000Y-116840000D02*
X100330000Y-118110000D01*
X100330000Y-118110000D02*
X99065000Y-118110000D01*
X95250000Y-111760000D02*
X96520000Y-110490000D01*
X91440000Y-111760000D02*
X95250000Y-111760000D01*
X96520000Y-110490000D02*
X99065000Y-110490000D01*
X91440000Y-114300000D02*
X95250000Y-114300000D01*
X95250000Y-114300000D02*
X96520000Y-115570000D01*
X96520000Y-115570000D02*
X99065000Y-115570000D01*
X91440000Y-119380000D02*
X93980000Y-119380000D01*
X93980000Y-119380000D02*
X97790000Y-123190000D01*
X97790000Y-123190000D02*
X99065000Y-123190000D01*
X91440000Y-121920000D02*
X96520000Y-127000000D01*
X96520000Y-127000000D02*
X106680000Y-127000000D01*
X106680000Y-127000000D02*
X107950000Y-128270000D01*
X107950000Y-128270000D02*
X114305000Y-128270000D01*
X124445000Y-48270000D02*
X124445000Y-49515000D01*
X124445000Y-49515000D02*
X127000000Y-52070000D01*
X121905000Y-48270000D02*
X121905000Y-49515000D01*
X121905000Y-49515000D02*
X124460000Y-52070000D01*
X119365000Y-48270000D02*
X119365000Y-49515000D01*
X119365000Y-49515000D02*
X121920000Y-52070000D01*
X116825000Y-48270000D02*
X116825000Y-49515000D01*
X116825000Y-49515000D02*
X119380000Y-52070000D01*
X114285000Y-48270000D02*
X114285000Y-49515000D01*
X114285000Y-49515000D02*
X116840000Y-52070000D01*
X111745000Y-48270000D02*
X111745000Y-49515000D01*
X111745000Y-49515000D02*
X114300000Y-52070000D01*
X109205000Y-48270000D02*
X109205000Y-49515000D01*
X109205000Y-49515000D02*
X111760000Y-52070000D01*
M02*
