M48
; DRILL file {KiCad 5.1.6-c6e7f7d~87~ubuntu18.04.1} date Fri Oct 23 19:42:11 2020
; FORMAT={-:-/ absolute / inch / decimal}
; #@! TF.CreationDate,2020-10-23T19:42:11+01:00
; #@! TF.GenerationSoftware,Kicad,Pcbnew,5.1.6-c6e7f7d~87~ubuntu18.04.1
FMAT,2
INCH
T1C0.0157
T2C0.0315
T3C0.0354
T4C0.0394
%
G90
G05
T1
X4.33Y-4.13
X4.4202Y-2.7973
X4.44Y-4.2
X4.49Y-4.2
X4.5218Y-3.8276
X4.5548Y-2.9352
X4.5656Y-5.2728
X4.5899Y-3.3715
X4.6Y-3.0598
X4.6303Y-3.0238
X4.6662Y-2.9588
X4.7252Y-3.4008
X4.7695Y-3.8284
X4.8587Y-4.1365
X4.9014Y-3.3667
X5.0107Y-2.9893
X5.0308Y-5.7492
X5.0596Y-4.1243
X5.108Y-3.8692
X5.2014Y-5.4
X5.2727Y-5.4915
X5.3012Y-4.2075
X5.3169Y-5.4927
T2
X4.45Y-3.72
X4.45Y-4.02
X4.025Y-2.125
X4.125Y-2.125
X4.225Y-2.125
X4.325Y-2.125
X4.425Y-2.125
X4.525Y-2.125
X4.625Y-2.125
X4.725Y-2.125
X4.825Y-2.125
X4.61Y-3.7
X4.61Y-4.0
X4.71Y-3.7
X4.71Y-4.0
X4.81Y-3.7
X4.81Y-4.0
X4.91Y-3.7
X4.91Y-4.0
X5.01Y-3.7
X5.01Y-4.0
X5.11Y-3.7
X5.11Y-4.0
X5.21Y-3.7
X5.21Y-4.0
X4.8Y-4.2
X4.8Y-4.3
X4.8Y-4.4
X4.8Y-4.5
X4.8Y-4.6
X4.8Y-4.7
X4.8Y-4.8
X4.8Y-4.9
X4.8Y-5.0
X4.8Y-5.1
X4.8Y-5.2
X4.8Y-5.3
X4.8Y-5.4
X4.8Y-5.5
X5.4Y-4.2
X5.4Y-4.3
X5.4Y-4.4
X5.4Y-4.5
X5.4Y-4.6
X5.4Y-4.7
X5.4Y-4.8
X5.4Y-4.9
X5.4Y-5.0
X5.4Y-5.1
X5.4Y-5.2
X5.4Y-5.3
X5.4Y-5.4
X5.4Y-5.5
X4.6112Y-2.8138
X4.6112Y-3.1138
X4.7112Y-2.8138
X4.7112Y-3.1138
X4.8112Y-2.8138
X4.8112Y-3.1138
X4.9112Y-2.8138
X4.9112Y-3.1138
X5.0112Y-2.8138
X5.0112Y-3.1138
X5.1112Y-2.8138
X5.1112Y-3.1138
X5.2112Y-2.8138
X5.2112Y-3.1138
X4.6105Y-3.2581
X4.6105Y-3.5581
X4.7105Y-3.2581
X4.7105Y-3.5581
X4.8105Y-3.2581
X4.8105Y-3.5581
X4.9105Y-3.2581
X4.9105Y-3.5581
X5.0105Y-3.2581
X5.0105Y-3.5581
X5.1105Y-3.2581
X5.1105Y-3.5581
X5.2105Y-3.2581
X5.2105Y-3.5581
X4.05Y-4.2
X4.05Y-4.3
X4.05Y-4.4
X4.05Y-4.5
X4.05Y-4.6
X4.05Y-4.7
X4.05Y-4.8
X4.05Y-4.9
X4.05Y-5.0
X4.05Y-5.1
X4.05Y-5.2
X4.05Y-5.3
X4.05Y-5.4
X4.05Y-5.5
X4.65Y-4.2
X4.65Y-4.3
X4.65Y-4.4
X4.65Y-4.5
X4.65Y-4.6
X4.65Y-4.7
X4.65Y-4.8
X4.65Y-4.9
X4.65Y-5.0
X4.65Y-5.1
X4.65Y-5.2
X4.65Y-5.3
X4.65Y-5.4
X4.65Y-5.5
X4.8Y-5.64
X4.9969Y-5.64
X4.22Y-2.3
X4.22Y-2.6
X4.32Y-2.3
X4.32Y-2.6
X4.42Y-2.3
X4.42Y-2.6
X4.52Y-2.3
X4.52Y-2.6
X4.62Y-2.3
X4.62Y-2.6
X4.72Y-2.3
X4.72Y-2.6
X4.82Y-2.3
X4.82Y-2.6
X4.92Y-2.3
X4.92Y-2.6
X5.02Y-2.3
X5.02Y-2.6
X5.12Y-2.3
X5.12Y-2.6
X4.05Y-5.64
X4.2469Y-5.64
T3
X4.225Y-1.775
X4.225Y-1.875
X4.625Y-1.775
X4.625Y-1.875
X5.425Y-1.775
X5.425Y-1.875
X5.025Y-1.775
X5.025Y-1.875
X4.025Y-1.775
X4.025Y-1.875
X4.825Y-1.775
X4.825Y-1.875
X4.425Y-1.775
X4.425Y-1.875
X5.225Y-1.775
X5.225Y-1.875
T4
X3.8Y-1.8
X3.8Y-1.9
X3.8Y-2.0
X3.8Y-2.1
X3.8Y-2.2
X3.8Y-2.3
X3.8Y-2.4
X3.8Y-2.5
X3.8Y-2.6
X3.8Y-2.7
X3.8Y-2.8
X3.8Y-2.9
X3.8Y-3.0
X3.8Y-3.1
X3.8Y-3.2
X3.8Y-3.3
X3.8Y-3.4
X3.8Y-3.5
X3.8Y-3.6
X3.8Y-3.7
X3.8Y-3.8
X3.8Y-3.9
X3.8Y-4.0
X3.8Y-4.1
X3.8Y-4.2
X3.8Y-4.3
X3.8Y-4.4
X3.8Y-4.5
X3.8Y-4.6
X3.8Y-4.7
X3.8Y-4.8
X3.8Y-4.9
X3.8Y-5.0
X3.8Y-5.1
X3.8Y-5.2
X3.8Y-5.3
X3.8Y-5.4
X3.8Y-5.5
X3.8Y-5.6
X3.8Y-5.7
T0
M30
