%TF.GenerationSoftware,KiCad,Pcbnew,5.1.6-c6e7f7d~87~ubuntu18.04.1*%
%TF.CreationDate,2020-10-23T19:42:14+01:00*%
%TF.ProjectId,Banked_ROM,42616e6b-6564-45f5-924f-4d2e6b696361,rev?*%
%TF.SameCoordinates,Original*%
%TF.FileFunction,Soldermask,Bot*%
%TF.FilePolarity,Negative*%
%FSLAX46Y46*%
G04 Gerber Fmt 4.6, Leading zero omitted, Abs format (unit mm)*
G04 Created by KiCad (PCBNEW 5.1.6-c6e7f7d~87~ubuntu18.04.1) date 2020-10-23 19:42:14*
%MOMM*%
%LPD*%
G01*
G04 APERTURE LIST*
%ADD10O,1.700000X1.700000*%
%ADD11R,1.700000X1.700000*%
%ADD12C,1.700000*%
%ADD13O,1.800000X1.800000*%
%ADD14R,1.800000X1.800000*%
%ADD15C,1.900000*%
%ADD16R,1.900000X1.900000*%
G04 APERTURE END LIST*
D10*
%TO.C,U6*%
X130048000Y-66040000D03*
X107188000Y-58420000D03*
X127508000Y-66040000D03*
X109728000Y-58420000D03*
X124968000Y-66040000D03*
X112268000Y-58420000D03*
X122428000Y-66040000D03*
X114808000Y-58420000D03*
X119888000Y-66040000D03*
X117348000Y-58420000D03*
X117348000Y-66040000D03*
X119888000Y-58420000D03*
X114808000Y-66040000D03*
X122428000Y-58420000D03*
X112268000Y-66040000D03*
X124968000Y-58420000D03*
X109728000Y-66040000D03*
X127508000Y-58420000D03*
X107188000Y-66040000D03*
D11*
X130048000Y-58420000D03*
%TD*%
D10*
%TO.C,U7*%
X102870000Y-139700000D03*
X118110000Y-106680000D03*
X102870000Y-137160000D03*
X118110000Y-109220000D03*
X102870000Y-134620000D03*
X118110000Y-111760000D03*
X102870000Y-132080000D03*
X118110000Y-114300000D03*
X102870000Y-129540000D03*
X118110000Y-116840000D03*
X102870000Y-127000000D03*
X118110000Y-119380000D03*
X102870000Y-124460000D03*
X118110000Y-121920000D03*
X102870000Y-121920000D03*
X118110000Y-124460000D03*
X102870000Y-119380000D03*
X118110000Y-127000000D03*
X102870000Y-116840000D03*
X118110000Y-129540000D03*
X102870000Y-114300000D03*
X118110000Y-132080000D03*
X102870000Y-111760000D03*
X118110000Y-134620000D03*
X102870000Y-109220000D03*
X118110000Y-137160000D03*
X102870000Y-106680000D03*
D11*
X118110000Y-139700000D03*
%TD*%
D10*
%TO.C,U5*%
X121920000Y-139700000D03*
X137160000Y-106680000D03*
X121920000Y-137160000D03*
X137160000Y-109220000D03*
X121920000Y-134620000D03*
X137160000Y-111760000D03*
X121920000Y-132080000D03*
X137160000Y-114300000D03*
X121920000Y-129540000D03*
X137160000Y-116840000D03*
X121920000Y-127000000D03*
X137160000Y-119380000D03*
X121920000Y-124460000D03*
X137160000Y-121920000D03*
X121920000Y-121920000D03*
X137160000Y-124460000D03*
X121920000Y-119380000D03*
X137160000Y-127000000D03*
X121920000Y-116840000D03*
X137160000Y-129540000D03*
X121920000Y-114300000D03*
X137160000Y-132080000D03*
X121920000Y-111760000D03*
X137160000Y-134620000D03*
X121920000Y-109220000D03*
X137160000Y-137160000D03*
X121920000Y-106680000D03*
D11*
X137160000Y-139700000D03*
%TD*%
D10*
%TO.C,U3*%
X132364480Y-79090520D03*
X117124480Y-71470520D03*
X129824480Y-79090520D03*
X119664480Y-71470520D03*
X127284480Y-79090520D03*
X122204480Y-71470520D03*
X124744480Y-79090520D03*
X124744480Y-71470520D03*
X122204480Y-79090520D03*
X127284480Y-71470520D03*
X119664480Y-79090520D03*
X129824480Y-71470520D03*
X117124480Y-79090520D03*
D11*
X132364480Y-71470520D03*
%TD*%
D10*
%TO.C,U2*%
X132346700Y-90375740D03*
X117106700Y-82755740D03*
X129806700Y-90375740D03*
X119646700Y-82755740D03*
X127266700Y-90375740D03*
X122186700Y-82755740D03*
X124726700Y-90375740D03*
X124726700Y-82755740D03*
X122186700Y-90375740D03*
X127266700Y-82755740D03*
X119646700Y-90375740D03*
X129806700Y-82755740D03*
X117106700Y-90375740D03*
D11*
X132346700Y-82755740D03*
%TD*%
D10*
%TO.C,U1*%
X132334000Y-101600000D03*
X117094000Y-93980000D03*
X129794000Y-101600000D03*
X119634000Y-93980000D03*
X127254000Y-101600000D03*
X122174000Y-93980000D03*
X124714000Y-101600000D03*
X124714000Y-93980000D03*
X122174000Y-101600000D03*
X127254000Y-93980000D03*
X119634000Y-101600000D03*
X129794000Y-93980000D03*
X117094000Y-101600000D03*
D11*
X132334000Y-93980000D03*
%TD*%
D10*
%TO.C,RN1*%
X122555000Y-53975000D03*
X120015000Y-53975000D03*
X117475000Y-53975000D03*
X114935000Y-53975000D03*
X112395000Y-53975000D03*
X109855000Y-53975000D03*
X107315000Y-53975000D03*
X104775000Y-53975000D03*
D11*
X102235000Y-53975000D03*
%TD*%
D10*
%TO.C,R1*%
X113030000Y-102108000D03*
D12*
X113030000Y-94488000D03*
%TD*%
D13*
%TO.C,J1*%
X96520000Y-144780000D03*
X96520000Y-142240000D03*
X96520000Y-139700000D03*
X96520000Y-137160000D03*
X96520000Y-134620000D03*
X96520000Y-132080000D03*
X96520000Y-129540000D03*
X96520000Y-127000000D03*
X96520000Y-124460000D03*
X96520000Y-121920000D03*
X96520000Y-119380000D03*
X96520000Y-116840000D03*
X96520000Y-114300000D03*
X96520000Y-111760000D03*
X96520000Y-109220000D03*
X96520000Y-106680000D03*
X96520000Y-104140000D03*
X96520000Y-101600000D03*
X96520000Y-99060000D03*
X96520000Y-96520000D03*
X96520000Y-93980000D03*
X96520000Y-91440000D03*
X96520000Y-88900000D03*
X96520000Y-86360000D03*
X96520000Y-83820000D03*
X96520000Y-81280000D03*
X96520000Y-78740000D03*
X96520000Y-76200000D03*
X96520000Y-73660000D03*
X96520000Y-71120000D03*
X96520000Y-68580000D03*
X96520000Y-66040000D03*
X96520000Y-63500000D03*
X96520000Y-60960000D03*
X96520000Y-58420000D03*
X96520000Y-55880000D03*
X96520000Y-53340000D03*
X96520000Y-50800000D03*
X96520000Y-48260000D03*
D14*
X96520000Y-45720000D03*
%TD*%
D15*
%TO.C,D8*%
X137795000Y-45085000D03*
D16*
X137795000Y-47625000D03*
%TD*%
D15*
%TO.C,D7*%
X132715000Y-45085000D03*
D16*
X132715000Y-47625000D03*
%TD*%
D15*
%TO.C,D6*%
X127635000Y-45085000D03*
D16*
X127635000Y-47625000D03*
%TD*%
D15*
%TO.C,D5*%
X122555000Y-45085000D03*
D16*
X122555000Y-47625000D03*
%TD*%
D15*
%TO.C,D4*%
X117475000Y-45085000D03*
D16*
X117475000Y-47625000D03*
%TD*%
D15*
%TO.C,D3*%
X112395000Y-45085000D03*
D16*
X112395000Y-47625000D03*
%TD*%
D15*
%TO.C,D2*%
X107315000Y-45085000D03*
D16*
X107315000Y-47625000D03*
%TD*%
D15*
%TO.C,D1*%
X102235000Y-45085000D03*
D16*
X102235000Y-47625000D03*
%TD*%
D12*
%TO.C,C2*%
X107870000Y-143256000D03*
X102870000Y-143256000D03*
%TD*%
%TO.C,C1*%
X126920000Y-143256000D03*
X121920000Y-143256000D03*
%TD*%
M02*
