%TF.GenerationSoftware,KiCad,Pcbnew,5.1.6-c6e7f7d~87~ubuntu18.04.1*%
%TF.CreationDate,2020-10-23T19:42:14+01:00*%
%TF.ProjectId,Banked_ROM,42616e6b-6564-45f5-924f-4d2e6b696361,rev?*%
%TF.SameCoordinates,Original*%
%TF.FileFunction,Copper,L2,Bot*%
%TF.FilePolarity,Positive*%
%FSLAX46Y46*%
G04 Gerber Fmt 4.6, Leading zero omitted, Abs format (unit mm)*
G04 Created by KiCad (PCBNEW 5.1.6-c6e7f7d~87~ubuntu18.04.1) date 2020-10-23 19:42:14*
%MOMM*%
%LPD*%
G01*
G04 APERTURE LIST*
%TA.AperFunction,ComponentPad*%
%ADD10O,1.600000X1.600000*%
%TD*%
%TA.AperFunction,ComponentPad*%
%ADD11R,1.600000X1.600000*%
%TD*%
%TA.AperFunction,ComponentPad*%
%ADD12C,1.600000*%
%TD*%
%TA.AperFunction,ComponentPad*%
%ADD13O,1.700000X1.700000*%
%TD*%
%TA.AperFunction,ComponentPad*%
%ADD14R,1.700000X1.700000*%
%TD*%
%TA.AperFunction,ComponentPad*%
%ADD15C,1.800000*%
%TD*%
%TA.AperFunction,ComponentPad*%
%ADD16R,1.800000X1.800000*%
%TD*%
%TA.AperFunction,ViaPad*%
%ADD17C,0.800000*%
%TD*%
%TA.AperFunction,Conductor*%
%ADD18C,0.250000*%
%TD*%
%TA.AperFunction,Conductor*%
%ADD19C,0.254000*%
%TD*%
G04 APERTURE END LIST*
D10*
%TO.P,U6,20*%
%TO.N,+5V*%
X130048000Y-66040000D03*
%TO.P,U6,10*%
%TO.N,GND*%
X107188000Y-58420000D03*
%TO.P,U6,19*%
%TO.N,Net-(D8-Pad1)*%
X127508000Y-66040000D03*
%TO.P,U6,9*%
%TO.N,Net-(D4-Pad1)*%
X109728000Y-58420000D03*
%TO.P,U6,18*%
%TO.N,/D7*%
X124968000Y-66040000D03*
%TO.P,U6,8*%
%TO.N,/D3*%
X112268000Y-58420000D03*
%TO.P,U6,17*%
%TO.N,/D6*%
X122428000Y-66040000D03*
%TO.P,U6,7*%
%TO.N,/D2*%
X114808000Y-58420000D03*
%TO.P,U6,16*%
%TO.N,Net-(D7-Pad1)*%
X119888000Y-66040000D03*
%TO.P,U6,6*%
%TO.N,Net-(D3-Pad1)*%
X117348000Y-58420000D03*
%TO.P,U6,15*%
%TO.N,Net-(D6-Pad1)*%
X117348000Y-66040000D03*
%TO.P,U6,5*%
%TO.N,Net-(D2-Pad1)*%
X119888000Y-58420000D03*
%TO.P,U6,14*%
%TO.N,/D5*%
X114808000Y-66040000D03*
%TO.P,U6,4*%
%TO.N,/D1*%
X122428000Y-58420000D03*
%TO.P,U6,13*%
%TO.N,/D4*%
X112268000Y-66040000D03*
%TO.P,U6,3*%
%TO.N,/D0*%
X124968000Y-58420000D03*
%TO.P,U6,12*%
%TO.N,Net-(D5-Pad1)*%
X109728000Y-66040000D03*
%TO.P,U6,2*%
%TO.N,BANK_SEL*%
X127508000Y-58420000D03*
%TO.P,U6,11*%
%TO.N,Net-(U3-Pad2)*%
X107188000Y-66040000D03*
D11*
%TO.P,U6,1*%
%TO.N,RESET*%
X130048000Y-58420000D03*
%TD*%
D10*
%TO.P,U7,28*%
%TO.N,+5V*%
X102870000Y-139700000D03*
%TO.P,U7,14*%
%TO.N,GND*%
X118110000Y-106680000D03*
%TO.P,U7,27*%
%TO.N,MEM_WR*%
X102870000Y-137160000D03*
%TO.P,U7,13*%
%TO.N,/D2*%
X118110000Y-109220000D03*
%TO.P,U7,26*%
%TO.N,/A13*%
X102870000Y-134620000D03*
%TO.P,U7,12*%
%TO.N,/D1*%
X118110000Y-111760000D03*
%TO.P,U7,25*%
%TO.N,/A8*%
X102870000Y-132080000D03*
%TO.P,U7,11*%
%TO.N,/D0*%
X118110000Y-114300000D03*
%TO.P,U7,24*%
%TO.N,/A9*%
X102870000Y-129540000D03*
%TO.P,U7,10*%
%TO.N,/A0*%
X118110000Y-116840000D03*
%TO.P,U7,23*%
%TO.N,/A11*%
X102870000Y-127000000D03*
%TO.P,U7,9*%
%TO.N,/A1*%
X118110000Y-119380000D03*
%TO.P,U7,22*%
%TO.N,MEM_RD*%
X102870000Y-124460000D03*
%TO.P,U7,8*%
%TO.N,/A2*%
X118110000Y-121920000D03*
%TO.P,U7,21*%
%TO.N,/A10*%
X102870000Y-121920000D03*
%TO.P,U7,7*%
%TO.N,/A3*%
X118110000Y-124460000D03*
%TO.P,U7,20*%
%TO.N,RAM_EN*%
X102870000Y-119380000D03*
%TO.P,U7,6*%
%TO.N,/A4*%
X118110000Y-127000000D03*
%TO.P,U7,19*%
%TO.N,/D7*%
X102870000Y-116840000D03*
%TO.P,U7,5*%
%TO.N,/A5*%
X118110000Y-129540000D03*
%TO.P,U7,18*%
%TO.N,/D6*%
X102870000Y-114300000D03*
%TO.P,U7,4*%
%TO.N,/A6*%
X118110000Y-132080000D03*
%TO.P,U7,17*%
%TO.N,/D5*%
X102870000Y-111760000D03*
%TO.P,U7,3*%
%TO.N,/A7*%
X118110000Y-134620000D03*
%TO.P,U7,16*%
%TO.N,/D4*%
X102870000Y-109220000D03*
%TO.P,U7,2*%
%TO.N,/A12*%
X118110000Y-137160000D03*
%TO.P,U7,15*%
%TO.N,/D3*%
X102870000Y-106680000D03*
D11*
%TO.P,U7,1*%
%TO.N,/A14*%
X118110000Y-139700000D03*
%TD*%
D10*
%TO.P,U5,28*%
%TO.N,+5V*%
X121920000Y-139700000D03*
%TO.P,U5,14*%
%TO.N,GND*%
X137160000Y-106680000D03*
%TO.P,U5,27*%
%TO.N,Net-(R1-Pad2)*%
X121920000Y-137160000D03*
%TO.P,U5,13*%
%TO.N,/D2*%
X137160000Y-109220000D03*
%TO.P,U5,26*%
%TO.N,N/C*%
X121920000Y-134620000D03*
%TO.P,U5,12*%
%TO.N,/D1*%
X137160000Y-111760000D03*
%TO.P,U5,25*%
%TO.N,/A8*%
X121920000Y-132080000D03*
%TO.P,U5,11*%
%TO.N,/D0*%
X137160000Y-114300000D03*
%TO.P,U5,24*%
%TO.N,/A9*%
X121920000Y-129540000D03*
%TO.P,U5,10*%
%TO.N,/A0*%
X137160000Y-116840000D03*
%TO.P,U5,23*%
%TO.N,/A11*%
X121920000Y-127000000D03*
%TO.P,U5,9*%
%TO.N,/A1*%
X137160000Y-119380000D03*
%TO.P,U5,22*%
%TO.N,MEM_RD*%
X121920000Y-124460000D03*
%TO.P,U5,8*%
%TO.N,/A2*%
X137160000Y-121920000D03*
%TO.P,U5,21*%
%TO.N,/A10*%
X121920000Y-121920000D03*
%TO.P,U5,7*%
%TO.N,/A3*%
X137160000Y-124460000D03*
%TO.P,U5,20*%
%TO.N,ROM_EN*%
X121920000Y-119380000D03*
%TO.P,U5,6*%
%TO.N,/A4*%
X137160000Y-127000000D03*
%TO.P,U5,19*%
%TO.N,/D7*%
X121920000Y-116840000D03*
%TO.P,U5,5*%
%TO.N,/A5*%
X137160000Y-129540000D03*
%TO.P,U5,18*%
%TO.N,/D6*%
X121920000Y-114300000D03*
%TO.P,U5,4*%
%TO.N,/A6*%
X137160000Y-132080000D03*
%TO.P,U5,17*%
%TO.N,/D5*%
X121920000Y-111760000D03*
%TO.P,U5,3*%
%TO.N,/A7*%
X137160000Y-134620000D03*
%TO.P,U5,16*%
%TO.N,/D4*%
X121920000Y-109220000D03*
%TO.P,U5,2*%
%TO.N,/A12*%
X137160000Y-137160000D03*
%TO.P,U5,15*%
%TO.N,/D3*%
X121920000Y-106680000D03*
D11*
%TO.P,U5,1*%
%TO.N,N/C*%
X137160000Y-139700000D03*
%TD*%
D10*
%TO.P,U3,14*%
%TO.N,+5V*%
X132364480Y-79090520D03*
%TO.P,U3,7*%
%TO.N,GND*%
X117124480Y-71470520D03*
%TO.P,U3,13*%
X129824480Y-79090520D03*
%TO.P,U3,6*%
%TO.N,Net-(U2-Pad12)*%
X119664480Y-71470520D03*
%TO.P,U3,12*%
%TO.N,Net-(U3-Pad12)*%
X127284480Y-79090520D03*
%TO.P,U3,5*%
%TO.N,BANK_SEL*%
X122204480Y-71470520D03*
%TO.P,U3,11*%
%TO.N,GND*%
X124744480Y-79090520D03*
%TO.P,U3,4*%
%TO.N,Net-(U2-Pad2)*%
X124744480Y-71470520D03*
%TO.P,U3,10*%
%TO.N,Net-(U3-Pad10)*%
X122204480Y-79090520D03*
%TO.P,U3,3*%
%TO.N,/A7*%
X127284480Y-71470520D03*
%TO.P,U3,9*%
%TO.N,GND*%
X119664480Y-79090520D03*
%TO.P,U3,2*%
%TO.N,Net-(U3-Pad2)*%
X129824480Y-71470520D03*
%TO.P,U3,8*%
%TO.N,Net-(U3-Pad8)*%
X117124480Y-79090520D03*
D11*
%TO.P,U3,1*%
%TO.N,Net-(U2-Pad3)*%
X132364480Y-71470520D03*
%TD*%
D10*
%TO.P,U2,14*%
%TO.N,+5V*%
X132346700Y-90375740D03*
%TO.P,U2,7*%
%TO.N,GND*%
X117106700Y-82755740D03*
%TO.P,U2,13*%
%TO.N,A15*%
X129806700Y-90375740D03*
%TO.P,U2,6*%
%TO.N,Net-(U2-Pad1)*%
X119646700Y-82755740D03*
%TO.P,U2,12*%
%TO.N,Net-(U2-Pad12)*%
X127266700Y-90375740D03*
%TO.P,U2,5*%
%TO.N,WR*%
X122186700Y-82755740D03*
%TO.P,U2,11*%
%TO.N,RAM_EN*%
X124726700Y-90375740D03*
%TO.P,U2,4*%
%TO.N,IORQ*%
X124726700Y-82755740D03*
%TO.P,U2,10*%
%TO.N,A15*%
X122186700Y-90375740D03*
%TO.P,U2,3*%
%TO.N,Net-(U2-Pad3)*%
X127266700Y-82755740D03*
%TO.P,U2,9*%
%TO.N,BANK_SEL*%
X119646700Y-90375740D03*
%TO.P,U2,2*%
%TO.N,Net-(U2-Pad2)*%
X129806700Y-82755740D03*
%TO.P,U2,8*%
%TO.N,ROM_EN*%
X117106700Y-90375740D03*
D11*
%TO.P,U2,1*%
%TO.N,Net-(U2-Pad1)*%
X132346700Y-82755740D03*
%TD*%
D10*
%TO.P,U1,14*%
%TO.N,+5V*%
X132334000Y-101600000D03*
%TO.P,U1,7*%
%TO.N,GND*%
X117094000Y-93980000D03*
%TO.P,U1,13*%
X129794000Y-101600000D03*
%TO.P,U1,6*%
%TO.N,MEM_RD*%
X119634000Y-93980000D03*
%TO.P,U1,12*%
%TO.N,GND*%
X127254000Y-101600000D03*
%TO.P,U1,5*%
%TO.N,RD*%
X122174000Y-93980000D03*
%TO.P,U1,11*%
%TO.N,Net-(U1-Pad11)*%
X124714000Y-101600000D03*
%TO.P,U1,4*%
%TO.N,MREQ*%
X124714000Y-93980000D03*
%TO.P,U1,10*%
%TO.N,GND*%
X122174000Y-101600000D03*
%TO.P,U1,3*%
%TO.N,MEM_WR*%
X127254000Y-93980000D03*
%TO.P,U1,9*%
%TO.N,GND*%
X119634000Y-101600000D03*
%TO.P,U1,2*%
%TO.N,WR*%
X129794000Y-93980000D03*
%TO.P,U1,8*%
%TO.N,Net-(U1-Pad8)*%
X117094000Y-101600000D03*
D11*
%TO.P,U1,1*%
%TO.N,MREQ*%
X132334000Y-93980000D03*
%TD*%
D10*
%TO.P,RN1,9*%
%TO.N,Net-(D8-Pad2)*%
X122555000Y-53975000D03*
%TO.P,RN1,8*%
%TO.N,Net-(D7-Pad2)*%
X120015000Y-53975000D03*
%TO.P,RN1,7*%
%TO.N,Net-(D6-Pad2)*%
X117475000Y-53975000D03*
%TO.P,RN1,6*%
%TO.N,Net-(D5-Pad2)*%
X114935000Y-53975000D03*
%TO.P,RN1,5*%
%TO.N,Net-(D4-Pad2)*%
X112395000Y-53975000D03*
%TO.P,RN1,4*%
%TO.N,Net-(D3-Pad2)*%
X109855000Y-53975000D03*
%TO.P,RN1,3*%
%TO.N,Net-(D2-Pad2)*%
X107315000Y-53975000D03*
%TO.P,RN1,2*%
%TO.N,Net-(D1-Pad2)*%
X104775000Y-53975000D03*
D11*
%TO.P,RN1,1*%
%TO.N,+5V*%
X102235000Y-53975000D03*
%TD*%
D10*
%TO.P,R1,2*%
%TO.N,Net-(R1-Pad2)*%
X113030000Y-102108000D03*
D12*
%TO.P,R1,1*%
%TO.N,+5V*%
X113030000Y-94488000D03*
%TD*%
D13*
%TO.P,J1,40*%
%TO.N,Net-(J1-Pad40)*%
X96520000Y-144780000D03*
%TO.P,J1,39*%
%TO.N,Net-(J1-Pad39)*%
X96520000Y-142240000D03*
%TO.P,J1,38*%
%TO.N,Net-(J1-Pad38)*%
X96520000Y-139700000D03*
%TO.P,J1,37*%
%TO.N,Net-(J1-Pad37)*%
X96520000Y-137160000D03*
%TO.P,J1,36*%
%TO.N,Net-(J1-Pad36)*%
X96520000Y-134620000D03*
%TO.P,J1,35*%
%TO.N,Net-(J1-Pad35)*%
X96520000Y-132080000D03*
%TO.P,J1,34*%
%TO.N,A15*%
X96520000Y-129540000D03*
%TO.P,J1,33*%
%TO.N,/A14*%
X96520000Y-127000000D03*
%TO.P,J1,32*%
%TO.N,/A13*%
X96520000Y-124460000D03*
%TO.P,J1,31*%
%TO.N,/A12*%
X96520000Y-121920000D03*
%TO.P,J1,30*%
%TO.N,/A11*%
X96520000Y-119380000D03*
%TO.P,J1,29*%
%TO.N,/A10*%
X96520000Y-116840000D03*
%TO.P,J1,28*%
%TO.N,/A9*%
X96520000Y-114300000D03*
%TO.P,J1,27*%
%TO.N,/A8*%
X96520000Y-111760000D03*
%TO.P,J1,26*%
%TO.N,/A7*%
X96520000Y-109220000D03*
%TO.P,J1,25*%
%TO.N,/A6*%
X96520000Y-106680000D03*
%TO.P,J1,24*%
%TO.N,/A5*%
X96520000Y-104140000D03*
%TO.P,J1,23*%
%TO.N,/A4*%
X96520000Y-101600000D03*
%TO.P,J1,22*%
%TO.N,/A3*%
X96520000Y-99060000D03*
%TO.P,J1,21*%
%TO.N,/A2*%
X96520000Y-96520000D03*
%TO.P,J1,20*%
%TO.N,/A1*%
X96520000Y-93980000D03*
%TO.P,J1,19*%
%TO.N,/A0*%
X96520000Y-91440000D03*
%TO.P,J1,18*%
%TO.N,Net-(J1-Pad18)*%
X96520000Y-88900000D03*
%TO.P,J1,17*%
%TO.N,WR*%
X96520000Y-86360000D03*
%TO.P,J1,16*%
%TO.N,RD*%
X96520000Y-83820000D03*
%TO.P,J1,15*%
%TO.N,IORQ*%
X96520000Y-81280000D03*
%TO.P,J1,14*%
%TO.N,MREQ*%
X96520000Y-78740000D03*
%TO.P,J1,13*%
%TO.N,/D7*%
X96520000Y-76200000D03*
%TO.P,J1,12*%
%TO.N,/D6*%
X96520000Y-73660000D03*
%TO.P,J1,11*%
%TO.N,/D5*%
X96520000Y-71120000D03*
%TO.P,J1,10*%
%TO.N,/D4*%
X96520000Y-68580000D03*
%TO.P,J1,9*%
%TO.N,/D3*%
X96520000Y-66040000D03*
%TO.P,J1,8*%
%TO.N,/D2*%
X96520000Y-63500000D03*
%TO.P,J1,7*%
%TO.N,/D1*%
X96520000Y-60960000D03*
%TO.P,J1,6*%
%TO.N,/D0*%
X96520000Y-58420000D03*
%TO.P,J1,5*%
%TO.N,Net-(J1-Pad5)*%
X96520000Y-55880000D03*
%TO.P,J1,4*%
%TO.N,RESET*%
X96520000Y-53340000D03*
%TO.P,J1,3*%
%TO.N,Net-(J1-Pad3)*%
X96520000Y-50800000D03*
%TO.P,J1,2*%
%TO.N,GND*%
X96520000Y-48260000D03*
D14*
%TO.P,J1,1*%
%TO.N,+5V*%
X96520000Y-45720000D03*
%TD*%
D15*
%TO.P,D8,2*%
%TO.N,Net-(D8-Pad2)*%
X137795000Y-45085000D03*
D16*
%TO.P,D8,1*%
%TO.N,Net-(D8-Pad1)*%
X137795000Y-47625000D03*
%TD*%
D15*
%TO.P,D7,2*%
%TO.N,Net-(D7-Pad2)*%
X132715000Y-45085000D03*
D16*
%TO.P,D7,1*%
%TO.N,Net-(D7-Pad1)*%
X132715000Y-47625000D03*
%TD*%
D15*
%TO.P,D6,2*%
%TO.N,Net-(D6-Pad2)*%
X127635000Y-45085000D03*
D16*
%TO.P,D6,1*%
%TO.N,Net-(D6-Pad1)*%
X127635000Y-47625000D03*
%TD*%
D15*
%TO.P,D5,2*%
%TO.N,Net-(D5-Pad2)*%
X122555000Y-45085000D03*
D16*
%TO.P,D5,1*%
%TO.N,Net-(D5-Pad1)*%
X122555000Y-47625000D03*
%TD*%
D15*
%TO.P,D4,2*%
%TO.N,Net-(D4-Pad2)*%
X117475000Y-45085000D03*
D16*
%TO.P,D4,1*%
%TO.N,Net-(D4-Pad1)*%
X117475000Y-47625000D03*
%TD*%
D15*
%TO.P,D3,2*%
%TO.N,Net-(D3-Pad2)*%
X112395000Y-45085000D03*
D16*
%TO.P,D3,1*%
%TO.N,Net-(D3-Pad1)*%
X112395000Y-47625000D03*
%TD*%
D15*
%TO.P,D2,2*%
%TO.N,Net-(D2-Pad2)*%
X107315000Y-45085000D03*
D16*
%TO.P,D2,1*%
%TO.N,Net-(D2-Pad1)*%
X107315000Y-47625000D03*
%TD*%
D15*
%TO.P,D1,2*%
%TO.N,Net-(D1-Pad2)*%
X102235000Y-45085000D03*
D16*
%TO.P,D1,1*%
%TO.N,BANK_SEL*%
X102235000Y-47625000D03*
%TD*%
D12*
%TO.P,C2,2*%
%TO.N,GND*%
X107870000Y-143256000D03*
%TO.P,C2,1*%
%TO.N,+5V*%
X102870000Y-143256000D03*
%TD*%
%TO.P,C1,2*%
%TO.N,GND*%
X126920000Y-143256000D03*
%TO.P,C1,1*%
%TO.N,+5V*%
X121920000Y-143256000D03*
%TD*%
D17*
%TO.N,BANK_SEL*%
X118521699Y-75153301D03*
%TO.N,A15*%
X135049260Y-139514580D03*
X134651580Y-106870500D03*
X127782320Y-146029680D03*
%TO.N,/A7*%
X117609620Y-76804520D03*
X127271780Y-75928220D03*
%TO.N,WR*%
X120020080Y-86380320D03*
%TO.N,RD*%
X116583460Y-85635000D03*
%TO.N,IORQ*%
X116841085Y-77719501D03*
%TO.N,MREQ*%
X114853720Y-97221040D03*
X121145300Y-97241360D03*
X129743200Y-98277680D03*
%TO.N,/D2*%
X109982000Y-104902000D03*
%TO.N,/D1*%
X112776000Y-106680000D03*
%TO.N,/D0*%
X114046000Y-106680000D03*
%TO.N,Net-(R1-Pad2)*%
X132115560Y-137160000D03*
%TO.N,MEM_WR*%
X133926580Y-139484100D03*
%TO.N,Net-(U2-Pad12)*%
X124495560Y-85514180D03*
%TO.N,RAM_EN*%
X115966240Y-133930001D03*
X128513840Y-104757220D03*
%TO.N,ROM_EN*%
X123410980Y-105067100D03*
%TO.N,Net-(U3-Pad2)*%
X115691920Y-74554080D03*
X112273080Y-71051420D03*
%TD*%
D18*
%TO.N,Net-(D1-Pad2)*%
X102235000Y-45085000D02*
X104724200Y-47574200D01*
X104724200Y-53924200D02*
X104775000Y-53975000D01*
X104724200Y-47574200D02*
X104724200Y-53924200D01*
%TO.N,BANK_SEL*%
X118521699Y-75153301D02*
X122204480Y-71470520D01*
X101009999Y-44389761D02*
X101009999Y-46399999D01*
X118063001Y-43859999D02*
X101539761Y-43859999D01*
X101539761Y-43859999D02*
X101009999Y-44389761D01*
X119340009Y-45137007D02*
X118063001Y-43859999D01*
X119340009Y-46795011D02*
X119340009Y-45137007D01*
X127508000Y-54963002D02*
X119340009Y-46795011D01*
X101009999Y-46399999D02*
X102235000Y-47625000D01*
X127508000Y-58420000D02*
X127508000Y-54963002D01*
%TO.N,Net-(D2-Pad1)*%
X108540001Y-46399999D02*
X107315000Y-47625000D01*
X118635001Y-46399999D02*
X108540001Y-46399999D01*
X118889999Y-46654997D02*
X118635001Y-46399999D01*
X118889999Y-57421999D02*
X118889999Y-46654997D01*
X119888000Y-58420000D02*
X118889999Y-57421999D01*
%TO.N,Net-(D3-Pad1)*%
X108602999Y-61089759D02*
X109514210Y-62000970D01*
X108602999Y-50267001D02*
X108602999Y-61089759D01*
X112395000Y-47625000D02*
X111245000Y-47625000D01*
X111245000Y-47625000D02*
X108602999Y-50267001D01*
X113767030Y-62000970D02*
X117348000Y-58420000D01*
X109514210Y-62000970D02*
X113767030Y-62000970D01*
%TO.N,Net-(D4-Pad1)*%
X113520001Y-54627999D02*
X109728000Y-58420000D01*
X113520001Y-51579999D02*
X113520001Y-54627999D01*
X117475000Y-47625000D02*
X113520001Y-51579999D01*
%TO.N,Net-(D5-Pad1)*%
X128633001Y-58960001D02*
X124168772Y-63424230D01*
X122555000Y-47625000D02*
X128633001Y-53703001D01*
X128633001Y-53703001D02*
X128633001Y-58960001D01*
X112343770Y-63424230D02*
X109728000Y-66040000D01*
X124168772Y-63424230D02*
X112343770Y-63424230D01*
%TO.N,Net-(D6-Pad1)*%
X117348000Y-66040000D02*
X119513760Y-63874240D01*
X131173001Y-51163001D02*
X127635000Y-47625000D01*
X131173001Y-59480001D02*
X131173001Y-51163001D01*
X126778762Y-63874240D02*
X131173001Y-59480001D01*
X119513760Y-63874240D02*
X126778762Y-63874240D01*
%TO.N,Net-(D7-Pad1)*%
X132715000Y-58574412D02*
X126965162Y-64324250D01*
X132715000Y-47625000D02*
X132715000Y-58574412D01*
X121603750Y-64324250D02*
X119888000Y-66040000D01*
X126965162Y-64324250D02*
X121603750Y-64324250D01*
%TO.N,Net-(D8-Pad1)*%
X137795000Y-55753000D02*
X137795000Y-47625000D01*
X127508000Y-66040000D02*
X137795000Y-55753000D01*
%TO.N,A15*%
X123299001Y-91488041D02*
X123299001Y-94294741D01*
X122186700Y-90375740D02*
X123299001Y-91488041D01*
X128557020Y-106870500D02*
X134651580Y-106870500D01*
X125973840Y-96969580D02*
X125973840Y-105222040D01*
X125973840Y-105222040D02*
X127622300Y-106870500D01*
X123299001Y-94294741D02*
X125973840Y-96969580D01*
X127622300Y-106870500D02*
X128557020Y-106870500D01*
X129099845Y-146029680D02*
X127782320Y-146029680D01*
X135049260Y-139514580D02*
X135049260Y-140080265D01*
X135049260Y-140080265D02*
X129099845Y-146029680D01*
%TO.N,/A12*%
X135745001Y-138574999D02*
X137160000Y-137160000D01*
X119524999Y-138574999D02*
X135745001Y-138574999D01*
X118110000Y-137160000D02*
X119524999Y-138574999D01*
%TO.N,/A11*%
X120794999Y-128125001D02*
X121920000Y-127000000D01*
X103995001Y-128125001D02*
X120794999Y-128125001D01*
X102870000Y-127000000D02*
X103995001Y-128125001D01*
%TO.N,/A10*%
X120794999Y-123045001D02*
X121920000Y-121920000D01*
X103995001Y-123045001D02*
X120794999Y-123045001D01*
X102870000Y-121920000D02*
X103995001Y-123045001D01*
%TO.N,/A9*%
X120794999Y-130665001D02*
X121920000Y-129540000D01*
X103995001Y-130665001D02*
X120794999Y-130665001D01*
X102870000Y-129540000D02*
X103995001Y-130665001D01*
%TO.N,/A8*%
X120794999Y-133205001D02*
X121920000Y-132080000D01*
X103995001Y-133205001D02*
X120794999Y-133205001D01*
X102870000Y-132080000D02*
X103995001Y-133205001D01*
%TO.N,/A7*%
X119524999Y-136034999D02*
X135745001Y-136034999D01*
X135745001Y-136034999D02*
X137160000Y-134620000D01*
X118110000Y-134620000D02*
X119524999Y-136034999D01*
X117609620Y-76804520D02*
X126395480Y-76804520D01*
X126395480Y-76804520D02*
X127271780Y-75928220D01*
%TO.N,/A6*%
X136034999Y-130954999D02*
X137160000Y-132080000D01*
X121379999Y-130954999D02*
X136034999Y-130954999D01*
X120254998Y-132080000D02*
X121379999Y-130954999D01*
X118110000Y-132080000D02*
X120254998Y-132080000D01*
%TO.N,/A5*%
X136034999Y-128414999D02*
X137160000Y-129540000D01*
X120254998Y-129540000D02*
X121379999Y-128414999D01*
X121379999Y-128414999D02*
X136034999Y-128414999D01*
X118110000Y-129540000D02*
X120254998Y-129540000D01*
%TO.N,/A4*%
X121379999Y-125874999D02*
X136034999Y-125874999D01*
X136034999Y-125874999D02*
X137160000Y-127000000D01*
X120254998Y-127000000D02*
X121379999Y-125874999D01*
X118110000Y-127000000D02*
X120254998Y-127000000D01*
%TO.N,/A3*%
X136034999Y-123334999D02*
X137160000Y-124460000D01*
X121379999Y-123334999D02*
X136034999Y-123334999D01*
X120254998Y-124460000D02*
X121379999Y-123334999D01*
X118110000Y-124460000D02*
X120254998Y-124460000D01*
%TO.N,/A2*%
X136034999Y-120794999D02*
X137160000Y-121920000D01*
X119235001Y-120794999D02*
X136034999Y-120794999D01*
X118110000Y-121920000D02*
X119235001Y-120794999D01*
%TO.N,/A1*%
X136034999Y-118254999D02*
X137160000Y-119380000D01*
X121379999Y-118254999D02*
X136034999Y-118254999D01*
X120254998Y-119380000D02*
X121379999Y-118254999D01*
X118110000Y-119380000D02*
X120254998Y-119380000D01*
%TO.N,/A0*%
X136034999Y-115714999D02*
X137160000Y-116840000D01*
X120254998Y-116840000D02*
X121379999Y-115714999D01*
X121379999Y-115714999D02*
X136034999Y-115714999D01*
X118110000Y-116840000D02*
X120254998Y-116840000D01*
%TO.N,WR*%
X123311701Y-83880741D02*
X122186700Y-82755740D01*
X130931701Y-92842299D02*
X130931701Y-89835739D01*
X124976703Y-83880741D02*
X123311701Y-83880741D01*
X130931701Y-89835739D02*
X124976703Y-83880741D01*
X129794000Y-93980000D02*
X130931701Y-92842299D01*
X122186700Y-84213700D02*
X122186700Y-82755740D01*
X120020080Y-86380320D02*
X122186700Y-84213700D01*
%TO.N,RD*%
X121061699Y-92867699D02*
X122174000Y-93980000D01*
X121061699Y-90113239D02*
X121061699Y-92867699D01*
X116583460Y-85635000D02*
X121061699Y-90113239D01*
%TO.N,IORQ*%
X125851701Y-83880741D02*
X124726700Y-82755740D01*
X133406701Y-83880741D02*
X125851701Y-83880741D01*
X133471701Y-83815741D02*
X133406701Y-83880741D01*
X133471701Y-81695739D02*
X133471701Y-83815741D01*
X132956691Y-81180729D02*
X133471701Y-81695739D01*
X130249687Y-81180729D02*
X132956691Y-81180729D01*
X128699479Y-79630521D02*
X130249687Y-81180729D01*
X128699479Y-78840517D02*
X128699479Y-79630521D01*
X127578463Y-77719501D02*
X128699479Y-78840517D01*
X116841085Y-77719501D02*
X127578463Y-77719501D01*
%TO.N,MREQ*%
X114853720Y-97221040D02*
X121124980Y-97221040D01*
X121124980Y-97221040D02*
X121145300Y-97241360D01*
X129743200Y-98277680D02*
X131107180Y-98277680D01*
X132334000Y-97050860D02*
X132334000Y-93980000D01*
X131107180Y-98277680D02*
X132334000Y-97050860D01*
%TO.N,/D7*%
X120505001Y-118254999D02*
X121920000Y-116840000D01*
X104284999Y-118254999D02*
X120505001Y-118254999D01*
X102870000Y-116840000D02*
X104284999Y-118254999D01*
X98806000Y-116078000D02*
X99568000Y-116840000D01*
X98806000Y-76708000D02*
X98806000Y-116078000D01*
X96520000Y-76200000D02*
X98298000Y-76200000D01*
X99568000Y-116840000D02*
X102870000Y-116840000D01*
X98298000Y-76200000D02*
X98806000Y-76708000D01*
%TO.N,/D6*%
X120794999Y-115425001D02*
X121920000Y-114300000D01*
X103995001Y-115425001D02*
X120794999Y-115425001D01*
X102870000Y-114300000D02*
X103995001Y-115425001D01*
X96520000Y-73660000D02*
X99256010Y-76396010D01*
X99256010Y-76396010D02*
X99256010Y-113734010D01*
X99822000Y-114300000D02*
X102870000Y-114300000D01*
X99256010Y-113734010D02*
X99822000Y-114300000D01*
%TO.N,/D5*%
X120794999Y-112885001D02*
X121920000Y-111760000D01*
X103995001Y-112885001D02*
X120794999Y-112885001D01*
X102870000Y-111760000D02*
X103995001Y-112885001D01*
X96520000Y-71120000D02*
X99706020Y-74306020D01*
X99706020Y-74306020D02*
X99706020Y-111136020D01*
X100330000Y-111760000D02*
X102870000Y-111760000D01*
X99706020Y-111136020D02*
X100330000Y-111760000D01*
%TO.N,/D4*%
X120794999Y-110345001D02*
X121920000Y-109220000D01*
X103995001Y-110345001D02*
X120794999Y-110345001D01*
X102870000Y-109220000D02*
X103995001Y-110345001D01*
X102870000Y-109220000D02*
X100664030Y-109220000D01*
X100156030Y-108712000D02*
X100156030Y-72216030D01*
X100156030Y-72216030D02*
X96520000Y-68580000D01*
X100664030Y-109220000D02*
X100156030Y-108712000D01*
%TO.N,/D3*%
X120794999Y-107805001D02*
X121920000Y-106680000D01*
X103995001Y-107805001D02*
X120794999Y-107805001D01*
X102870000Y-106680000D02*
X103995001Y-107805001D01*
X100606040Y-106194040D02*
X101092000Y-106680000D01*
X101092000Y-106680000D02*
X102870000Y-106680000D01*
X96520000Y-66040000D02*
X100606040Y-70126040D01*
X100606040Y-70126040D02*
X100606040Y-106194040D01*
%TO.N,/D2*%
X135745001Y-107805001D02*
X137160000Y-109220000D01*
X121669997Y-107805001D02*
X135745001Y-107805001D01*
X120254998Y-109220000D02*
X121669997Y-107805001D01*
X118110000Y-109220000D02*
X120254998Y-109220000D01*
X96520000Y-63500000D02*
X101092000Y-68072000D01*
X101092000Y-68072000D02*
X101092000Y-103886000D01*
X101092000Y-103886000D02*
X102108000Y-104902000D01*
X102108000Y-104902000D02*
X109982000Y-104902000D01*
%TO.N,/D1*%
X136034999Y-110634999D02*
X137160000Y-111760000D01*
X120254998Y-111760000D02*
X121379999Y-110634999D01*
X121379999Y-110634999D02*
X136034999Y-110634999D01*
X118110000Y-111760000D02*
X120254998Y-111760000D01*
X96520000Y-60960000D02*
X101542010Y-65982010D01*
X101542010Y-65982010D02*
X101542010Y-103066010D01*
X101542010Y-103320010D02*
X102108000Y-103886000D01*
X101542010Y-103066010D02*
X101542010Y-103320010D01*
X112776000Y-106622998D02*
X112776000Y-106680000D01*
X102108000Y-103886000D02*
X110039002Y-103886000D01*
X110039002Y-103886000D02*
X112776000Y-106622998D01*
%TO.N,/D0*%
X136034999Y-113174999D02*
X137160000Y-114300000D01*
X121379999Y-113174999D02*
X136034999Y-113174999D01*
X120254998Y-114300000D02*
X121379999Y-113174999D01*
X118110000Y-114300000D02*
X120254998Y-114300000D01*
X96520000Y-58420000D02*
X101992020Y-63892020D01*
X101992020Y-103008020D02*
X102362000Y-103378000D01*
X101992020Y-63892020D02*
X101992020Y-103008020D01*
X102362000Y-103378000D02*
X110744000Y-103378000D01*
X110744000Y-103378000D02*
X114046000Y-106680000D01*
%TO.N,Net-(R1-Pad2)*%
X132115560Y-137160000D02*
X121920000Y-137160000D01*
%TO.N,MEM_RD*%
X120505001Y-125874999D02*
X121920000Y-124460000D01*
X104284999Y-125874999D02*
X120505001Y-125874999D01*
X102870000Y-124460000D02*
X104284999Y-125874999D01*
%TO.N,MEM_WR*%
X102870000Y-137160000D02*
X112384840Y-137160000D01*
X116049841Y-140825001D02*
X133116539Y-140825001D01*
X112384840Y-137160000D02*
X116049841Y-140825001D01*
X133116539Y-140825001D02*
X133926580Y-140014960D01*
X133926580Y-140014960D02*
X133926580Y-139484100D01*
%TO.N,Net-(U2-Pad1)*%
X131221699Y-81630739D02*
X132346700Y-82755740D01*
X120771701Y-81630739D02*
X131221699Y-81630739D01*
X119646700Y-82755740D02*
X120771701Y-81630739D01*
%TO.N,Net-(U2-Pad12)*%
X127266700Y-88285320D02*
X127266700Y-90375740D01*
X124495560Y-85514180D02*
X127266700Y-88285320D01*
%TO.N,RAM_EN*%
X101744999Y-120505001D02*
X101744999Y-132620001D01*
X102329999Y-133205001D02*
X103358591Y-133205001D01*
X103358591Y-133205001D02*
X104083591Y-133930001D01*
X102870000Y-119380000D02*
X101744999Y-120505001D01*
X101744999Y-132620001D02*
X102329999Y-133205001D01*
X104083591Y-133930001D02*
X115966240Y-133930001D01*
X125839001Y-94230003D02*
X125839001Y-91488041D01*
X128513840Y-96904842D02*
X125839001Y-94230003D01*
X125839001Y-91488041D02*
X124726700Y-90375740D01*
X128513840Y-104757220D02*
X128513840Y-96904842D01*
%TO.N,ROM_EN*%
X123410980Y-105067100D02*
X123410980Y-98120200D01*
X120759001Y-93439999D02*
X117694742Y-90375740D01*
X120759001Y-95468221D02*
X120759001Y-93439999D01*
X117694742Y-90375740D02*
X117106700Y-90375740D01*
X123410980Y-98120200D02*
X120759001Y-95468221D01*
%TO.N,Net-(U3-Pad2)*%
X117026302Y-75878302D02*
X125416698Y-75878302D01*
X125416698Y-75878302D02*
X129824480Y-71470520D01*
X115989319Y-74851479D02*
X115691920Y-74554080D01*
X117026302Y-75878302D02*
X115999479Y-74851479D01*
X115999479Y-74851479D02*
X115989319Y-74851479D01*
X107261660Y-66040000D02*
X107188000Y-66040000D01*
X112273080Y-71051420D02*
X107261660Y-66040000D01*
%TD*%
D19*
%TO.N,GND*%
G36*
X100469998Y-43849760D02*
G01*
X100414870Y-43916935D01*
X100375025Y-43965485D01*
X100351774Y-44008984D01*
X100304453Y-44097515D01*
X100260996Y-44240776D01*
X100249999Y-44352429D01*
X100249999Y-44352439D01*
X100246323Y-44389761D01*
X100249999Y-44427084D01*
X100250000Y-46362667D01*
X100246323Y-46399999D01*
X100250000Y-46437332D01*
X100260997Y-46548985D01*
X100264645Y-46561011D01*
X100304453Y-46692245D01*
X100375025Y-46824275D01*
X100446200Y-46911001D01*
X100469999Y-46940000D01*
X100498997Y-46963798D01*
X100696928Y-47161729D01*
X100696928Y-48525000D01*
X100709188Y-48649482D01*
X100745498Y-48769180D01*
X100804463Y-48879494D01*
X100883815Y-48976185D01*
X100980506Y-49055537D01*
X101090820Y-49114502D01*
X101210518Y-49150812D01*
X101335000Y-49163072D01*
X103135000Y-49163072D01*
X103259482Y-49150812D01*
X103379180Y-49114502D01*
X103489494Y-49055537D01*
X103586185Y-48976185D01*
X103665537Y-48879494D01*
X103724502Y-48769180D01*
X103760812Y-48649482D01*
X103773072Y-48525000D01*
X103773072Y-47697875D01*
X103964200Y-47889003D01*
X103964201Y-52790899D01*
X103860241Y-52860363D01*
X103661643Y-53058961D01*
X103660812Y-53050518D01*
X103624502Y-52930820D01*
X103565537Y-52820506D01*
X103486185Y-52723815D01*
X103389494Y-52644463D01*
X103279180Y-52585498D01*
X103159482Y-52549188D01*
X103035000Y-52536928D01*
X101435000Y-52536928D01*
X101310518Y-52549188D01*
X101190820Y-52585498D01*
X101080506Y-52644463D01*
X100983815Y-52723815D01*
X100904463Y-52820506D01*
X100845498Y-52930820D01*
X100809188Y-53050518D01*
X100796928Y-53175000D01*
X100796928Y-54775000D01*
X100809188Y-54899482D01*
X100845498Y-55019180D01*
X100904463Y-55129494D01*
X100983815Y-55226185D01*
X101080506Y-55305537D01*
X101190820Y-55364502D01*
X101310518Y-55400812D01*
X101435000Y-55413072D01*
X103035000Y-55413072D01*
X103159482Y-55400812D01*
X103279180Y-55364502D01*
X103389494Y-55305537D01*
X103486185Y-55226185D01*
X103565537Y-55129494D01*
X103624502Y-55019180D01*
X103660812Y-54899482D01*
X103661643Y-54891039D01*
X103860241Y-55089637D01*
X104095273Y-55246680D01*
X104356426Y-55354853D01*
X104633665Y-55410000D01*
X104916335Y-55410000D01*
X105193574Y-55354853D01*
X105454727Y-55246680D01*
X105689759Y-55089637D01*
X105889637Y-54889759D01*
X106045000Y-54657241D01*
X106200363Y-54889759D01*
X106400241Y-55089637D01*
X106635273Y-55246680D01*
X106896426Y-55354853D01*
X107173665Y-55410000D01*
X107456335Y-55410000D01*
X107733574Y-55354853D01*
X107842999Y-55309528D01*
X107843000Y-57150007D01*
X107671087Y-57068754D01*
X107537039Y-57028096D01*
X107315000Y-57150085D01*
X107315000Y-58293000D01*
X107335000Y-58293000D01*
X107335000Y-58547000D01*
X107315000Y-58547000D01*
X107315000Y-59689915D01*
X107537039Y-59811904D01*
X107671087Y-59771246D01*
X107843000Y-59689992D01*
X107843000Y-61052427D01*
X107839323Y-61089759D01*
X107843000Y-61127092D01*
X107853997Y-61238745D01*
X107867179Y-61282201D01*
X107897453Y-61382005D01*
X107968025Y-61514035D01*
X108039200Y-61600761D01*
X108062999Y-61629760D01*
X108091997Y-61653558D01*
X108950411Y-62511973D01*
X108974209Y-62540971D01*
X109003207Y-62564769D01*
X109089933Y-62635944D01*
X109163426Y-62675227D01*
X109221963Y-62706516D01*
X109365224Y-62749973D01*
X109476877Y-62760970D01*
X109476887Y-62760970D01*
X109514210Y-62764646D01*
X109551533Y-62760970D01*
X111972413Y-62760970D01*
X111919494Y-62789256D01*
X111919492Y-62789257D01*
X111919493Y-62789257D01*
X111832766Y-62860431D01*
X111832762Y-62860435D01*
X111803769Y-62884229D01*
X111779975Y-62913222D01*
X110051886Y-64641312D01*
X109869335Y-64605000D01*
X109586665Y-64605000D01*
X109309426Y-64660147D01*
X109048273Y-64768320D01*
X108813241Y-64925363D01*
X108613363Y-65125241D01*
X108458000Y-65357759D01*
X108302637Y-65125241D01*
X108102759Y-64925363D01*
X107867727Y-64768320D01*
X107606574Y-64660147D01*
X107329335Y-64605000D01*
X107046665Y-64605000D01*
X106769426Y-64660147D01*
X106508273Y-64768320D01*
X106273241Y-64925363D01*
X106073363Y-65125241D01*
X105916320Y-65360273D01*
X105808147Y-65621426D01*
X105753000Y-65898665D01*
X105753000Y-66181335D01*
X105808147Y-66458574D01*
X105916320Y-66719727D01*
X106073363Y-66954759D01*
X106273241Y-67154637D01*
X106508273Y-67311680D01*
X106769426Y-67419853D01*
X107046665Y-67475000D01*
X107329335Y-67475000D01*
X107573325Y-67426467D01*
X111238080Y-71091222D01*
X111238080Y-71153359D01*
X111277854Y-71353318D01*
X111355875Y-71541676D01*
X111469143Y-71711194D01*
X111613306Y-71855357D01*
X111782824Y-71968625D01*
X111971182Y-72046646D01*
X112171141Y-72086420D01*
X112375019Y-72086420D01*
X112574978Y-72046646D01*
X112763336Y-71968625D01*
X112932854Y-71855357D01*
X112968651Y-71819560D01*
X115732571Y-71819560D01*
X115827410Y-72084401D01*
X115972095Y-72325651D01*
X116161066Y-72534039D01*
X116387060Y-72701557D01*
X116641393Y-72821766D01*
X116775441Y-72862424D01*
X116997480Y-72740435D01*
X116997480Y-71597520D01*
X115853856Y-71597520D01*
X115732571Y-71819560D01*
X112968651Y-71819560D01*
X113077017Y-71711194D01*
X113190285Y-71541676D01*
X113268306Y-71353318D01*
X113308080Y-71153359D01*
X113308080Y-71121480D01*
X115732571Y-71121480D01*
X115853856Y-71343520D01*
X116997480Y-71343520D01*
X116997480Y-70200605D01*
X116775441Y-70078616D01*
X116641393Y-70119274D01*
X116387060Y-70239483D01*
X116161066Y-70407001D01*
X115972095Y-70615389D01*
X115827410Y-70856639D01*
X115732571Y-71121480D01*
X113308080Y-71121480D01*
X113308080Y-70949481D01*
X113268306Y-70749522D01*
X113190285Y-70561164D01*
X113077017Y-70391646D01*
X112932854Y-70247483D01*
X112763336Y-70134215D01*
X112574978Y-70056194D01*
X112375019Y-70016420D01*
X112312882Y-70016420D01*
X109771461Y-67475000D01*
X109869335Y-67475000D01*
X110146574Y-67419853D01*
X110407727Y-67311680D01*
X110642759Y-67154637D01*
X110842637Y-66954759D01*
X110998000Y-66722241D01*
X111153363Y-66954759D01*
X111353241Y-67154637D01*
X111588273Y-67311680D01*
X111849426Y-67419853D01*
X112126665Y-67475000D01*
X112409335Y-67475000D01*
X112686574Y-67419853D01*
X112947727Y-67311680D01*
X113182759Y-67154637D01*
X113382637Y-66954759D01*
X113538000Y-66722241D01*
X113693363Y-66954759D01*
X113893241Y-67154637D01*
X114128273Y-67311680D01*
X114389426Y-67419853D01*
X114666665Y-67475000D01*
X114949335Y-67475000D01*
X115226574Y-67419853D01*
X115487727Y-67311680D01*
X115722759Y-67154637D01*
X115922637Y-66954759D01*
X116078000Y-66722241D01*
X116233363Y-66954759D01*
X116433241Y-67154637D01*
X116668273Y-67311680D01*
X116929426Y-67419853D01*
X117206665Y-67475000D01*
X117489335Y-67475000D01*
X117766574Y-67419853D01*
X118027727Y-67311680D01*
X118262759Y-67154637D01*
X118462637Y-66954759D01*
X118618000Y-66722241D01*
X118773363Y-66954759D01*
X118973241Y-67154637D01*
X119208273Y-67311680D01*
X119469426Y-67419853D01*
X119746665Y-67475000D01*
X120029335Y-67475000D01*
X120306574Y-67419853D01*
X120567727Y-67311680D01*
X120802759Y-67154637D01*
X121002637Y-66954759D01*
X121158000Y-66722241D01*
X121313363Y-66954759D01*
X121513241Y-67154637D01*
X121748273Y-67311680D01*
X122009426Y-67419853D01*
X122286665Y-67475000D01*
X122569335Y-67475000D01*
X122846574Y-67419853D01*
X123107727Y-67311680D01*
X123342759Y-67154637D01*
X123542637Y-66954759D01*
X123698000Y-66722241D01*
X123853363Y-66954759D01*
X124053241Y-67154637D01*
X124288273Y-67311680D01*
X124549426Y-67419853D01*
X124826665Y-67475000D01*
X125109335Y-67475000D01*
X125386574Y-67419853D01*
X125647727Y-67311680D01*
X125882759Y-67154637D01*
X126082637Y-66954759D01*
X126238000Y-66722241D01*
X126393363Y-66954759D01*
X126593241Y-67154637D01*
X126828273Y-67311680D01*
X127089426Y-67419853D01*
X127366665Y-67475000D01*
X127649335Y-67475000D01*
X127926574Y-67419853D01*
X128187727Y-67311680D01*
X128422759Y-67154637D01*
X128622637Y-66954759D01*
X128778000Y-66722241D01*
X128933363Y-66954759D01*
X129133241Y-67154637D01*
X129368273Y-67311680D01*
X129629426Y-67419853D01*
X129906665Y-67475000D01*
X130189335Y-67475000D01*
X130466574Y-67419853D01*
X130727727Y-67311680D01*
X130962759Y-67154637D01*
X131162637Y-66954759D01*
X131319680Y-66719727D01*
X131427853Y-66458574D01*
X131483000Y-66181335D01*
X131483000Y-65898665D01*
X131427853Y-65621426D01*
X131319680Y-65360273D01*
X131162637Y-65125241D01*
X130962759Y-64925363D01*
X130727727Y-64768320D01*
X130466574Y-64660147D01*
X130189335Y-64605000D01*
X130017801Y-64605000D01*
X138306004Y-56316798D01*
X138335001Y-56293001D01*
X138361332Y-56260917D01*
X138429974Y-56177277D01*
X138500546Y-56045247D01*
X138500546Y-56045246D01*
X138544003Y-55901986D01*
X138555000Y-55790333D01*
X138555000Y-55790323D01*
X138558676Y-55753000D01*
X138555000Y-55715677D01*
X138555000Y-49163072D01*
X138695000Y-49163072D01*
X138819482Y-49150812D01*
X138939180Y-49114502D01*
X139049494Y-49055537D01*
X139146185Y-48976185D01*
X139225537Y-48879494D01*
X139284502Y-48769180D01*
X139320812Y-48649482D01*
X139333072Y-48525000D01*
X139333072Y-46725000D01*
X139320812Y-46600518D01*
X139284502Y-46480820D01*
X139225537Y-46370506D01*
X139146185Y-46273815D01*
X139049494Y-46194463D01*
X138939180Y-46135498D01*
X138920873Y-46129944D01*
X138987312Y-46063505D01*
X139155299Y-45812095D01*
X139271011Y-45532743D01*
X139330000Y-45236184D01*
X139330000Y-44933816D01*
X139271011Y-44637257D01*
X139155299Y-44357905D01*
X138987312Y-44106495D01*
X138773505Y-43892688D01*
X138694652Y-43840000D01*
X139426620Y-43840000D01*
X144120000Y-48533381D01*
X144120001Y-73386618D01*
X139256236Y-78250384D01*
X139231052Y-78271052D01*
X139210386Y-78296234D01*
X139148575Y-78371550D01*
X139144446Y-78379275D01*
X139087290Y-78486208D01*
X139049550Y-78610618D01*
X139040000Y-78707582D01*
X139040000Y-78707591D01*
X139036808Y-78740000D01*
X139040000Y-78772409D01*
X139040001Y-141966618D01*
X134346620Y-146660000D01*
X129529792Y-146660000D01*
X129639846Y-146569681D01*
X129663649Y-146540677D01*
X135560268Y-140644060D01*
X135589261Y-140620266D01*
X135613055Y-140591273D01*
X135613059Y-140591269D01*
X135684233Y-140504542D01*
X135686661Y-140500000D01*
X135721928Y-140434022D01*
X135721928Y-140500000D01*
X135734188Y-140624482D01*
X135770498Y-140744180D01*
X135829463Y-140854494D01*
X135908815Y-140951185D01*
X136005506Y-141030537D01*
X136115820Y-141089502D01*
X136235518Y-141125812D01*
X136360000Y-141138072D01*
X137960000Y-141138072D01*
X138084482Y-141125812D01*
X138204180Y-141089502D01*
X138314494Y-141030537D01*
X138411185Y-140951185D01*
X138490537Y-140854494D01*
X138549502Y-140744180D01*
X138585812Y-140624482D01*
X138598072Y-140500000D01*
X138598072Y-138900000D01*
X138585812Y-138775518D01*
X138549502Y-138655820D01*
X138490537Y-138545506D01*
X138411185Y-138448815D01*
X138314494Y-138369463D01*
X138204180Y-138310498D01*
X138084482Y-138274188D01*
X138076039Y-138273357D01*
X138274637Y-138074759D01*
X138431680Y-137839727D01*
X138539853Y-137578574D01*
X138595000Y-137301335D01*
X138595000Y-137018665D01*
X138539853Y-136741426D01*
X138431680Y-136480273D01*
X138274637Y-136245241D01*
X138074759Y-136045363D01*
X137842241Y-135890000D01*
X138074759Y-135734637D01*
X138274637Y-135534759D01*
X138431680Y-135299727D01*
X138539853Y-135038574D01*
X138595000Y-134761335D01*
X138595000Y-134478665D01*
X138539853Y-134201426D01*
X138431680Y-133940273D01*
X138274637Y-133705241D01*
X138074759Y-133505363D01*
X137842241Y-133350000D01*
X138074759Y-133194637D01*
X138274637Y-132994759D01*
X138431680Y-132759727D01*
X138539853Y-132498574D01*
X138595000Y-132221335D01*
X138595000Y-131938665D01*
X138539853Y-131661426D01*
X138431680Y-131400273D01*
X138274637Y-131165241D01*
X138074759Y-130965363D01*
X137842241Y-130810000D01*
X138074759Y-130654637D01*
X138274637Y-130454759D01*
X138431680Y-130219727D01*
X138539853Y-129958574D01*
X138595000Y-129681335D01*
X138595000Y-129398665D01*
X138539853Y-129121426D01*
X138431680Y-128860273D01*
X138274637Y-128625241D01*
X138074759Y-128425363D01*
X137842241Y-128270000D01*
X138074759Y-128114637D01*
X138274637Y-127914759D01*
X138431680Y-127679727D01*
X138539853Y-127418574D01*
X138595000Y-127141335D01*
X138595000Y-126858665D01*
X138539853Y-126581426D01*
X138431680Y-126320273D01*
X138274637Y-126085241D01*
X138074759Y-125885363D01*
X137842241Y-125730000D01*
X138074759Y-125574637D01*
X138274637Y-125374759D01*
X138431680Y-125139727D01*
X138539853Y-124878574D01*
X138595000Y-124601335D01*
X138595000Y-124318665D01*
X138539853Y-124041426D01*
X138431680Y-123780273D01*
X138274637Y-123545241D01*
X138074759Y-123345363D01*
X137842241Y-123190000D01*
X138074759Y-123034637D01*
X138274637Y-122834759D01*
X138431680Y-122599727D01*
X138539853Y-122338574D01*
X138595000Y-122061335D01*
X138595000Y-121778665D01*
X138539853Y-121501426D01*
X138431680Y-121240273D01*
X138274637Y-121005241D01*
X138074759Y-120805363D01*
X137842241Y-120650000D01*
X138074759Y-120494637D01*
X138274637Y-120294759D01*
X138431680Y-120059727D01*
X138539853Y-119798574D01*
X138595000Y-119521335D01*
X138595000Y-119238665D01*
X138539853Y-118961426D01*
X138431680Y-118700273D01*
X138274637Y-118465241D01*
X138074759Y-118265363D01*
X137842241Y-118110000D01*
X138074759Y-117954637D01*
X138274637Y-117754759D01*
X138431680Y-117519727D01*
X138539853Y-117258574D01*
X138595000Y-116981335D01*
X138595000Y-116698665D01*
X138539853Y-116421426D01*
X138431680Y-116160273D01*
X138274637Y-115925241D01*
X138074759Y-115725363D01*
X137842241Y-115570000D01*
X138074759Y-115414637D01*
X138274637Y-115214759D01*
X138431680Y-114979727D01*
X138539853Y-114718574D01*
X138595000Y-114441335D01*
X138595000Y-114158665D01*
X138539853Y-113881426D01*
X138431680Y-113620273D01*
X138274637Y-113385241D01*
X138074759Y-113185363D01*
X137842241Y-113030000D01*
X138074759Y-112874637D01*
X138274637Y-112674759D01*
X138431680Y-112439727D01*
X138539853Y-112178574D01*
X138595000Y-111901335D01*
X138595000Y-111618665D01*
X138539853Y-111341426D01*
X138431680Y-111080273D01*
X138274637Y-110845241D01*
X138074759Y-110645363D01*
X137842241Y-110490000D01*
X138074759Y-110334637D01*
X138274637Y-110134759D01*
X138431680Y-109899727D01*
X138539853Y-109638574D01*
X138595000Y-109361335D01*
X138595000Y-109078665D01*
X138539853Y-108801426D01*
X138431680Y-108540273D01*
X138274637Y-108305241D01*
X138074759Y-108105363D01*
X137839727Y-107948320D01*
X137829135Y-107943933D01*
X138015131Y-107832385D01*
X138223519Y-107643414D01*
X138391037Y-107417420D01*
X138511246Y-107163087D01*
X138551904Y-107029039D01*
X138429915Y-106807000D01*
X137287000Y-106807000D01*
X137287000Y-106827000D01*
X137033000Y-106827000D01*
X137033000Y-106807000D01*
X135890085Y-106807000D01*
X135768096Y-107029039D01*
X135772648Y-107044048D01*
X135745001Y-107041325D01*
X135707679Y-107045001D01*
X135672147Y-107045001D01*
X135686580Y-106972439D01*
X135686580Y-106768561D01*
X135646806Y-106568602D01*
X135568785Y-106380244D01*
X135535856Y-106330961D01*
X135768096Y-106330961D01*
X135890085Y-106553000D01*
X137033000Y-106553000D01*
X137033000Y-105409376D01*
X137287000Y-105409376D01*
X137287000Y-106553000D01*
X138429915Y-106553000D01*
X138551904Y-106330961D01*
X138511246Y-106196913D01*
X138391037Y-105942580D01*
X138223519Y-105716586D01*
X138015131Y-105527615D01*
X137773881Y-105382930D01*
X137509040Y-105288091D01*
X137287000Y-105409376D01*
X137033000Y-105409376D01*
X136810960Y-105288091D01*
X136546119Y-105382930D01*
X136304869Y-105527615D01*
X136096481Y-105716586D01*
X135928963Y-105942580D01*
X135808754Y-106196913D01*
X135768096Y-106330961D01*
X135535856Y-106330961D01*
X135455517Y-106210726D01*
X135311354Y-106066563D01*
X135141836Y-105953295D01*
X134953478Y-105875274D01*
X134753519Y-105835500D01*
X134549641Y-105835500D01*
X134349682Y-105875274D01*
X134161324Y-105953295D01*
X133991806Y-106066563D01*
X133947869Y-106110500D01*
X127937103Y-106110500D01*
X126733840Y-104907239D01*
X126733840Y-102933724D01*
X126770913Y-102951246D01*
X126904961Y-102991904D01*
X127127000Y-102869915D01*
X127127000Y-101727000D01*
X127107000Y-101727000D01*
X127107000Y-101473000D01*
X127127000Y-101473000D01*
X127127000Y-100330085D01*
X126904961Y-100208096D01*
X126770913Y-100248754D01*
X126733840Y-100266276D01*
X126733840Y-97006913D01*
X126737517Y-96969580D01*
X126722843Y-96820594D01*
X126679386Y-96677333D01*
X126608814Y-96545304D01*
X126537639Y-96458577D01*
X126513841Y-96429579D01*
X126484844Y-96405782D01*
X125349190Y-95270128D01*
X125393727Y-95251680D01*
X125628759Y-95094637D01*
X125628796Y-95094600D01*
X127753841Y-97219645D01*
X127753841Y-100256672D01*
X127737087Y-100248754D01*
X127603039Y-100208096D01*
X127381000Y-100330085D01*
X127381000Y-101473000D01*
X127401000Y-101473000D01*
X127401000Y-101727000D01*
X127381000Y-101727000D01*
X127381000Y-102869915D01*
X127603039Y-102991904D01*
X127737087Y-102951246D01*
X127753840Y-102943328D01*
X127753840Y-104053509D01*
X127709903Y-104097446D01*
X127596635Y-104266964D01*
X127518614Y-104455322D01*
X127478840Y-104655281D01*
X127478840Y-104859159D01*
X127518614Y-105059118D01*
X127596635Y-105247476D01*
X127709903Y-105416994D01*
X127854066Y-105561157D01*
X128023584Y-105674425D01*
X128211942Y-105752446D01*
X128411901Y-105792220D01*
X128615779Y-105792220D01*
X128815738Y-105752446D01*
X129004096Y-105674425D01*
X129173614Y-105561157D01*
X129317777Y-105416994D01*
X129431045Y-105247476D01*
X129509066Y-105059118D01*
X129548840Y-104859159D01*
X129548840Y-104655281D01*
X129509066Y-104455322D01*
X129431045Y-104266964D01*
X129317777Y-104097446D01*
X129273840Y-104053509D01*
X129273840Y-102933724D01*
X129310913Y-102951246D01*
X129444961Y-102991904D01*
X129667000Y-102869915D01*
X129667000Y-101727000D01*
X129647000Y-101727000D01*
X129647000Y-101473000D01*
X129667000Y-101473000D01*
X129667000Y-100330085D01*
X129921000Y-100330085D01*
X129921000Y-101473000D01*
X129941000Y-101473000D01*
X129941000Y-101727000D01*
X129921000Y-101727000D01*
X129921000Y-102869915D01*
X130143039Y-102991904D01*
X130277087Y-102951246D01*
X130531420Y-102831037D01*
X130757414Y-102663519D01*
X130946385Y-102455131D01*
X131057933Y-102269135D01*
X131062320Y-102279727D01*
X131219363Y-102514759D01*
X131419241Y-102714637D01*
X131654273Y-102871680D01*
X131915426Y-102979853D01*
X132192665Y-103035000D01*
X132475335Y-103035000D01*
X132752574Y-102979853D01*
X133013727Y-102871680D01*
X133248759Y-102714637D01*
X133448637Y-102514759D01*
X133605680Y-102279727D01*
X133713853Y-102018574D01*
X133769000Y-101741335D01*
X133769000Y-101458665D01*
X133713853Y-101181426D01*
X133605680Y-100920273D01*
X133448637Y-100685241D01*
X133248759Y-100485363D01*
X133013727Y-100328320D01*
X132752574Y-100220147D01*
X132475335Y-100165000D01*
X132192665Y-100165000D01*
X131915426Y-100220147D01*
X131654273Y-100328320D01*
X131419241Y-100485363D01*
X131219363Y-100685241D01*
X131062320Y-100920273D01*
X131057933Y-100930865D01*
X130946385Y-100744869D01*
X130757414Y-100536481D01*
X130531420Y-100368963D01*
X130277087Y-100248754D01*
X130143039Y-100208096D01*
X129921000Y-100330085D01*
X129667000Y-100330085D01*
X129444961Y-100208096D01*
X129310913Y-100248754D01*
X129273840Y-100266276D01*
X129273840Y-99203540D01*
X129441302Y-99272906D01*
X129641261Y-99312680D01*
X129845139Y-99312680D01*
X130045098Y-99272906D01*
X130233456Y-99194885D01*
X130402974Y-99081617D01*
X130446911Y-99037680D01*
X131069858Y-99037680D01*
X131107180Y-99041356D01*
X131144502Y-99037680D01*
X131144513Y-99037680D01*
X131256166Y-99026683D01*
X131399427Y-98983226D01*
X131531456Y-98912654D01*
X131647181Y-98817681D01*
X131670983Y-98788678D01*
X132845009Y-97614654D01*
X132874001Y-97590861D01*
X132897795Y-97561868D01*
X132897799Y-97561864D01*
X132968973Y-97475137D01*
X132968974Y-97475136D01*
X133039546Y-97343107D01*
X133083003Y-97199846D01*
X133094000Y-97088193D01*
X133094000Y-97088184D01*
X133097676Y-97050861D01*
X133094000Y-97013538D01*
X133094000Y-95418072D01*
X133134000Y-95418072D01*
X133258482Y-95405812D01*
X133378180Y-95369502D01*
X133488494Y-95310537D01*
X133585185Y-95231185D01*
X133664537Y-95134494D01*
X133723502Y-95024180D01*
X133759812Y-94904482D01*
X133772072Y-94780000D01*
X133772072Y-93180000D01*
X133759812Y-93055518D01*
X133723502Y-92935820D01*
X133664537Y-92825506D01*
X133585185Y-92728815D01*
X133488494Y-92649463D01*
X133378180Y-92590498D01*
X133258482Y-92554188D01*
X133134000Y-92541928D01*
X131691701Y-92541928D01*
X131691701Y-91657663D01*
X131928126Y-91755593D01*
X132205365Y-91810740D01*
X132488035Y-91810740D01*
X132765274Y-91755593D01*
X133026427Y-91647420D01*
X133261459Y-91490377D01*
X133461337Y-91290499D01*
X133618380Y-91055467D01*
X133726553Y-90794314D01*
X133781700Y-90517075D01*
X133781700Y-90234405D01*
X133726553Y-89957166D01*
X133618380Y-89696013D01*
X133461337Y-89460981D01*
X133261459Y-89261103D01*
X133026427Y-89104060D01*
X132765274Y-88995887D01*
X132488035Y-88940740D01*
X132205365Y-88940740D01*
X131928126Y-88995887D01*
X131666973Y-89104060D01*
X131431941Y-89261103D01*
X131431904Y-89261140D01*
X126811504Y-84640741D01*
X133369379Y-84640741D01*
X133406701Y-84644417D01*
X133444023Y-84640741D01*
X133444034Y-84640741D01*
X133555687Y-84629744D01*
X133698948Y-84586287D01*
X133830977Y-84515715D01*
X133946702Y-84420742D01*
X133970505Y-84391738D01*
X133982698Y-84379545D01*
X134011702Y-84355742D01*
X134106675Y-84240017D01*
X134177247Y-84107988D01*
X134220704Y-83964727D01*
X134231701Y-83853074D01*
X134231701Y-83853063D01*
X134235377Y-83815741D01*
X134231701Y-83778418D01*
X134231701Y-81733061D01*
X134235377Y-81695738D01*
X134231701Y-81658415D01*
X134231701Y-81658406D01*
X134220704Y-81546753D01*
X134177247Y-81403492D01*
X134142504Y-81338493D01*
X134106675Y-81271462D01*
X134035500Y-81184736D01*
X134011702Y-81155738D01*
X133982704Y-81131941D01*
X133520494Y-80669731D01*
X133496692Y-80640728D01*
X133380967Y-80545755D01*
X133248938Y-80475183D01*
X133105677Y-80431726D01*
X132994024Y-80420729D01*
X132994013Y-80420729D01*
X132956691Y-80417053D01*
X132919369Y-80420729D01*
X132902905Y-80420729D01*
X133044207Y-80362200D01*
X133279239Y-80205157D01*
X133479117Y-80005279D01*
X133636160Y-79770247D01*
X133744333Y-79509094D01*
X133799480Y-79231855D01*
X133799480Y-78949185D01*
X133744333Y-78671946D01*
X133636160Y-78410793D01*
X133479117Y-78175761D01*
X133279239Y-77975883D01*
X133044207Y-77818840D01*
X132783054Y-77710667D01*
X132505815Y-77655520D01*
X132223145Y-77655520D01*
X131945906Y-77710667D01*
X131684753Y-77818840D01*
X131449721Y-77975883D01*
X131249843Y-78175761D01*
X131092800Y-78410793D01*
X131088413Y-78421385D01*
X130976865Y-78235389D01*
X130787894Y-78027001D01*
X130561900Y-77859483D01*
X130307567Y-77739274D01*
X130173519Y-77698616D01*
X129951480Y-77820605D01*
X129951480Y-78963520D01*
X129971480Y-78963520D01*
X129971480Y-79217520D01*
X129951480Y-79217520D01*
X129951480Y-79237520D01*
X129697480Y-79237520D01*
X129697480Y-79217520D01*
X129677480Y-79217520D01*
X129677480Y-78963520D01*
X129697480Y-78963520D01*
X129697480Y-77820605D01*
X129475441Y-77698616D01*
X129341393Y-77739274D01*
X129087060Y-77859483D01*
X128918323Y-77984559D01*
X128142267Y-77208503D01*
X128118464Y-77179500D01*
X128002739Y-77084527D01*
X127870710Y-77013955D01*
X127727449Y-76970498D01*
X127615796Y-76959501D01*
X127615785Y-76959501D01*
X127578463Y-76955825D01*
X127541141Y-76959501D01*
X127392416Y-76959501D01*
X127573678Y-76923446D01*
X127762036Y-76845425D01*
X127931554Y-76732157D01*
X128075717Y-76587994D01*
X128188985Y-76418476D01*
X128267006Y-76230118D01*
X128306780Y-76030159D01*
X128306780Y-75826281D01*
X128267006Y-75626322D01*
X128188985Y-75437964D01*
X128075717Y-75268446D01*
X127931554Y-75124283D01*
X127762036Y-75011015D01*
X127573678Y-74932994D01*
X127459515Y-74910286D01*
X129500594Y-72869208D01*
X129683145Y-72905520D01*
X129965815Y-72905520D01*
X130243054Y-72850373D01*
X130504207Y-72742200D01*
X130739239Y-72585157D01*
X130937837Y-72386559D01*
X130938668Y-72395002D01*
X130974978Y-72514700D01*
X131033943Y-72625014D01*
X131113295Y-72721705D01*
X131209986Y-72801057D01*
X131320300Y-72860022D01*
X131439998Y-72896332D01*
X131564480Y-72908592D01*
X133164480Y-72908592D01*
X133288962Y-72896332D01*
X133408660Y-72860022D01*
X133518974Y-72801057D01*
X133615665Y-72721705D01*
X133695017Y-72625014D01*
X133753982Y-72514700D01*
X133790292Y-72395002D01*
X133802552Y-72270520D01*
X133802552Y-70670520D01*
X133790292Y-70546038D01*
X133753982Y-70426340D01*
X133695017Y-70316026D01*
X133615665Y-70219335D01*
X133518974Y-70139983D01*
X133408660Y-70081018D01*
X133288962Y-70044708D01*
X133164480Y-70032448D01*
X131564480Y-70032448D01*
X131439998Y-70044708D01*
X131320300Y-70081018D01*
X131209986Y-70139983D01*
X131113295Y-70219335D01*
X131033943Y-70316026D01*
X130974978Y-70426340D01*
X130938668Y-70546038D01*
X130937837Y-70554481D01*
X130739239Y-70355883D01*
X130504207Y-70198840D01*
X130243054Y-70090667D01*
X129965815Y-70035520D01*
X129683145Y-70035520D01*
X129405906Y-70090667D01*
X129144753Y-70198840D01*
X128909721Y-70355883D01*
X128709843Y-70555761D01*
X128554480Y-70788279D01*
X128399117Y-70555761D01*
X128199239Y-70355883D01*
X127964207Y-70198840D01*
X127703054Y-70090667D01*
X127425815Y-70035520D01*
X127143145Y-70035520D01*
X126865906Y-70090667D01*
X126604753Y-70198840D01*
X126369721Y-70355883D01*
X126169843Y-70555761D01*
X126014480Y-70788279D01*
X125859117Y-70555761D01*
X125659239Y-70355883D01*
X125424207Y-70198840D01*
X125163054Y-70090667D01*
X124885815Y-70035520D01*
X124603145Y-70035520D01*
X124325906Y-70090667D01*
X124064753Y-70198840D01*
X123829721Y-70355883D01*
X123629843Y-70555761D01*
X123474480Y-70788279D01*
X123319117Y-70555761D01*
X123119239Y-70355883D01*
X122884207Y-70198840D01*
X122623054Y-70090667D01*
X122345815Y-70035520D01*
X122063145Y-70035520D01*
X121785906Y-70090667D01*
X121524753Y-70198840D01*
X121289721Y-70355883D01*
X121089843Y-70555761D01*
X120934480Y-70788279D01*
X120779117Y-70555761D01*
X120579239Y-70355883D01*
X120344207Y-70198840D01*
X120083054Y-70090667D01*
X119805815Y-70035520D01*
X119523145Y-70035520D01*
X119245906Y-70090667D01*
X118984753Y-70198840D01*
X118749721Y-70355883D01*
X118549843Y-70555761D01*
X118392800Y-70790793D01*
X118388413Y-70801385D01*
X118276865Y-70615389D01*
X118087894Y-70407001D01*
X117861900Y-70239483D01*
X117607567Y-70119274D01*
X117473519Y-70078616D01*
X117251480Y-70200605D01*
X117251480Y-71343520D01*
X117271480Y-71343520D01*
X117271480Y-71597520D01*
X117251480Y-71597520D01*
X117251480Y-72740435D01*
X117473519Y-72862424D01*
X117607567Y-72821766D01*
X117861900Y-72701557D01*
X118087894Y-72534039D01*
X118276865Y-72325651D01*
X118388413Y-72139655D01*
X118392800Y-72150247D01*
X118549843Y-72385279D01*
X118749721Y-72585157D01*
X118984753Y-72742200D01*
X119245906Y-72850373D01*
X119523145Y-72905520D01*
X119694679Y-72905520D01*
X118481898Y-74118301D01*
X118419760Y-74118301D01*
X118219801Y-74158075D01*
X118031443Y-74236096D01*
X117861925Y-74349364D01*
X117717762Y-74493527D01*
X117604494Y-74663045D01*
X117526473Y-74851403D01*
X117486699Y-75051362D01*
X117486699Y-75118302D01*
X117341104Y-75118302D01*
X116726920Y-74504119D01*
X116726920Y-74452141D01*
X116687146Y-74252182D01*
X116609125Y-74063824D01*
X116495857Y-73894306D01*
X116351694Y-73750143D01*
X116182176Y-73636875D01*
X115993818Y-73558854D01*
X115793859Y-73519080D01*
X115589981Y-73519080D01*
X115390022Y-73558854D01*
X115201664Y-73636875D01*
X115032146Y-73750143D01*
X114887983Y-73894306D01*
X114774715Y-74063824D01*
X114696694Y-74252182D01*
X114656920Y-74452141D01*
X114656920Y-74656019D01*
X114696694Y-74855978D01*
X114774715Y-75044336D01*
X114887983Y-75213854D01*
X115032146Y-75358017D01*
X115201664Y-75471285D01*
X115390022Y-75549306D01*
X115589981Y-75589080D01*
X115662279Y-75589080D01*
X116462503Y-76389305D01*
X116486301Y-76418303D01*
X116515299Y-76442101D01*
X116602025Y-76513276D01*
X116611290Y-76518228D01*
X116574620Y-76702581D01*
X116574620Y-76717227D01*
X116539187Y-76724275D01*
X116350829Y-76802296D01*
X116181311Y-76915564D01*
X116037148Y-77059727D01*
X115923880Y-77229245D01*
X115845859Y-77417603D01*
X115806085Y-77617562D01*
X115806085Y-77821440D01*
X115845859Y-78021399D01*
X115923880Y-78209757D01*
X115955504Y-78257086D01*
X115852800Y-78410793D01*
X115744627Y-78671946D01*
X115689480Y-78949185D01*
X115689480Y-79231855D01*
X115744627Y-79509094D01*
X115852800Y-79770247D01*
X116009843Y-80005279D01*
X116209721Y-80205157D01*
X116444753Y-80362200D01*
X116705906Y-80470373D01*
X116983145Y-80525520D01*
X117265815Y-80525520D01*
X117543054Y-80470373D01*
X117804207Y-80362200D01*
X118039239Y-80205157D01*
X118239117Y-80005279D01*
X118396160Y-79770247D01*
X118400547Y-79759655D01*
X118512095Y-79945651D01*
X118701066Y-80154039D01*
X118927060Y-80321557D01*
X119181393Y-80441766D01*
X119315441Y-80482424D01*
X119537480Y-80360435D01*
X119537480Y-79217520D01*
X119517480Y-79217520D01*
X119517480Y-78963520D01*
X119537480Y-78963520D01*
X119537480Y-78943520D01*
X119791480Y-78943520D01*
X119791480Y-78963520D01*
X119811480Y-78963520D01*
X119811480Y-79217520D01*
X119791480Y-79217520D01*
X119791480Y-80360435D01*
X120013519Y-80482424D01*
X120147567Y-80441766D01*
X120401900Y-80321557D01*
X120627894Y-80154039D01*
X120816865Y-79945651D01*
X120928413Y-79759655D01*
X120932800Y-79770247D01*
X121089843Y-80005279D01*
X121289721Y-80205157D01*
X121524753Y-80362200D01*
X121785906Y-80470373D01*
X122063145Y-80525520D01*
X122345815Y-80525520D01*
X122623054Y-80470373D01*
X122884207Y-80362200D01*
X123119239Y-80205157D01*
X123319117Y-80005279D01*
X123476160Y-79770247D01*
X123480547Y-79759655D01*
X123592095Y-79945651D01*
X123781066Y-80154039D01*
X124007060Y-80321557D01*
X124261393Y-80441766D01*
X124395441Y-80482424D01*
X124617480Y-80360435D01*
X124617480Y-79217520D01*
X124597480Y-79217520D01*
X124597480Y-78963520D01*
X124617480Y-78963520D01*
X124617480Y-78943520D01*
X124871480Y-78943520D01*
X124871480Y-78963520D01*
X124891480Y-78963520D01*
X124891480Y-79217520D01*
X124871480Y-79217520D01*
X124871480Y-80360435D01*
X125093519Y-80482424D01*
X125227567Y-80441766D01*
X125481900Y-80321557D01*
X125707894Y-80154039D01*
X125896865Y-79945651D01*
X126008413Y-79759655D01*
X126012800Y-79770247D01*
X126169843Y-80005279D01*
X126369721Y-80205157D01*
X126604753Y-80362200D01*
X126865906Y-80470373D01*
X127143145Y-80525520D01*
X127425815Y-80525520D01*
X127703054Y-80470373D01*
X127964207Y-80362200D01*
X128199239Y-80205157D01*
X128199276Y-80205120D01*
X128864896Y-80870739D01*
X120809026Y-80870739D01*
X120771701Y-80867063D01*
X120734376Y-80870739D01*
X120734368Y-80870739D01*
X120622715Y-80881736D01*
X120479454Y-80925193D01*
X120347425Y-80995765D01*
X120231700Y-81090738D01*
X120207902Y-81119736D01*
X119970586Y-81357052D01*
X119788035Y-81320740D01*
X119505365Y-81320740D01*
X119228126Y-81375887D01*
X118966973Y-81484060D01*
X118731941Y-81641103D01*
X118532063Y-81840981D01*
X118375020Y-82076013D01*
X118370633Y-82086605D01*
X118259085Y-81900609D01*
X118070114Y-81692221D01*
X117844120Y-81524703D01*
X117589787Y-81404494D01*
X117455739Y-81363836D01*
X117233700Y-81485825D01*
X117233700Y-82628740D01*
X117253700Y-82628740D01*
X117253700Y-82882740D01*
X117233700Y-82882740D01*
X117233700Y-84025655D01*
X117455739Y-84147644D01*
X117589787Y-84106986D01*
X117844120Y-83986777D01*
X118070114Y-83819259D01*
X118259085Y-83610871D01*
X118370633Y-83424875D01*
X118375020Y-83435467D01*
X118532063Y-83670499D01*
X118731941Y-83870377D01*
X118966973Y-84027420D01*
X119228126Y-84135593D01*
X119505365Y-84190740D01*
X119788035Y-84190740D01*
X120065274Y-84135593D01*
X120326427Y-84027420D01*
X120561459Y-83870377D01*
X120761337Y-83670499D01*
X120916700Y-83437981D01*
X121072063Y-83670499D01*
X121271941Y-83870377D01*
X121381809Y-83943788D01*
X119980279Y-85345320D01*
X119918141Y-85345320D01*
X119718182Y-85385094D01*
X119529824Y-85463115D01*
X119360306Y-85576383D01*
X119216143Y-85720546D01*
X119102875Y-85890064D01*
X119024854Y-86078422D01*
X118985080Y-86278381D01*
X118985080Y-86482259D01*
X119024854Y-86682218D01*
X119102875Y-86870576D01*
X119216143Y-87040094D01*
X119360306Y-87184257D01*
X119529824Y-87297525D01*
X119718182Y-87375546D01*
X119918141Y-87415320D01*
X120122019Y-87415320D01*
X120321978Y-87375546D01*
X120510336Y-87297525D01*
X120679854Y-87184257D01*
X120824017Y-87040094D01*
X120937285Y-86870576D01*
X121015306Y-86682218D01*
X121055080Y-86482259D01*
X121055080Y-86420121D01*
X122697709Y-84777494D01*
X122726701Y-84753701D01*
X122750495Y-84724708D01*
X122750499Y-84724704D01*
X122821673Y-84637977D01*
X122821674Y-84637976D01*
X122887147Y-84515487D01*
X122887425Y-84515715D01*
X123019454Y-84586287D01*
X123162715Y-84629744D01*
X123274368Y-84640741D01*
X123274376Y-84640741D01*
X123311701Y-84644417D01*
X123349026Y-84640741D01*
X123939803Y-84640741D01*
X123835786Y-84710243D01*
X123691623Y-84854406D01*
X123578355Y-85023924D01*
X123500334Y-85212282D01*
X123460560Y-85412241D01*
X123460560Y-85616119D01*
X123500334Y-85816078D01*
X123578355Y-86004436D01*
X123691623Y-86173954D01*
X123835786Y-86318117D01*
X124005304Y-86431385D01*
X124193662Y-86509406D01*
X124393621Y-86549180D01*
X124455759Y-86549180D01*
X126506700Y-88600122D01*
X126506700Y-89157696D01*
X126351941Y-89261103D01*
X126152063Y-89460981D01*
X125996700Y-89693499D01*
X125841337Y-89460981D01*
X125641459Y-89261103D01*
X125406427Y-89104060D01*
X125145274Y-88995887D01*
X124868035Y-88940740D01*
X124585365Y-88940740D01*
X124308126Y-88995887D01*
X124046973Y-89104060D01*
X123811941Y-89261103D01*
X123612063Y-89460981D01*
X123456700Y-89693499D01*
X123301337Y-89460981D01*
X123101459Y-89261103D01*
X122866427Y-89104060D01*
X122605274Y-88995887D01*
X122328035Y-88940740D01*
X122045365Y-88940740D01*
X121768126Y-88995887D01*
X121506973Y-89104060D01*
X121279389Y-89256127D01*
X117618460Y-85595199D01*
X117618460Y-85533061D01*
X117578686Y-85333102D01*
X117500665Y-85144744D01*
X117387397Y-84975226D01*
X117243234Y-84831063D01*
X117073716Y-84717795D01*
X116885358Y-84639774D01*
X116685399Y-84600000D01*
X116481521Y-84600000D01*
X116281562Y-84639774D01*
X116093204Y-84717795D01*
X115923686Y-84831063D01*
X115779523Y-84975226D01*
X115666255Y-85144744D01*
X115588234Y-85333102D01*
X115548460Y-85533061D01*
X115548460Y-85736939D01*
X115588234Y-85936898D01*
X115666255Y-86125256D01*
X115779523Y-86294774D01*
X115923686Y-86438937D01*
X116093204Y-86552205D01*
X116281562Y-86630226D01*
X116481521Y-86670000D01*
X116543659Y-86670000D01*
X118974571Y-89100913D01*
X118966973Y-89104060D01*
X118731941Y-89261103D01*
X118532063Y-89460981D01*
X118376700Y-89693499D01*
X118221337Y-89460981D01*
X118021459Y-89261103D01*
X117786427Y-89104060D01*
X117525274Y-88995887D01*
X117248035Y-88940740D01*
X116965365Y-88940740D01*
X116688126Y-88995887D01*
X116426973Y-89104060D01*
X116191941Y-89261103D01*
X115992063Y-89460981D01*
X115835020Y-89696013D01*
X115726847Y-89957166D01*
X115671700Y-90234405D01*
X115671700Y-90517075D01*
X115726847Y-90794314D01*
X115835020Y-91055467D01*
X115992063Y-91290499D01*
X116191941Y-91490377D01*
X116426973Y-91647420D01*
X116688126Y-91755593D01*
X116965365Y-91810740D01*
X117248035Y-91810740D01*
X117525274Y-91755593D01*
X117786427Y-91647420D01*
X117849486Y-91605285D01*
X118953222Y-92709022D01*
X118719241Y-92865363D01*
X118519363Y-93065241D01*
X118362320Y-93300273D01*
X118357933Y-93310865D01*
X118246385Y-93124869D01*
X118057414Y-92916481D01*
X117831420Y-92748963D01*
X117577087Y-92628754D01*
X117443039Y-92588096D01*
X117221000Y-92710085D01*
X117221000Y-93853000D01*
X117241000Y-93853000D01*
X117241000Y-94107000D01*
X117221000Y-94107000D01*
X117221000Y-95249915D01*
X117443039Y-95371904D01*
X117577087Y-95331246D01*
X117831420Y-95211037D01*
X118057414Y-95043519D01*
X118246385Y-94835131D01*
X118357933Y-94649135D01*
X118362320Y-94659727D01*
X118519363Y-94894759D01*
X118719241Y-95094637D01*
X118954273Y-95251680D01*
X119215426Y-95359853D01*
X119492665Y-95415000D01*
X119775335Y-95415000D01*
X119999001Y-95370509D01*
X119999001Y-95430898D01*
X119995325Y-95468221D01*
X119999001Y-95505543D01*
X119999001Y-95505553D01*
X120009998Y-95617206D01*
X120053216Y-95759680D01*
X120053455Y-95760467D01*
X120124027Y-95892497D01*
X120163872Y-95941047D01*
X120219000Y-96008222D01*
X120248004Y-96032025D01*
X120586160Y-96370181D01*
X120485526Y-96437423D01*
X120461909Y-96461040D01*
X115557431Y-96461040D01*
X115513494Y-96417103D01*
X115343976Y-96303835D01*
X115155618Y-96225814D01*
X114955659Y-96186040D01*
X114751781Y-96186040D01*
X114551822Y-96225814D01*
X114363464Y-96303835D01*
X114193946Y-96417103D01*
X114049783Y-96561266D01*
X113936515Y-96730784D01*
X113858494Y-96919142D01*
X113818720Y-97119101D01*
X113818720Y-97322979D01*
X113858494Y-97522938D01*
X113936515Y-97711296D01*
X114049783Y-97880814D01*
X114193946Y-98024977D01*
X114363464Y-98138245D01*
X114551822Y-98216266D01*
X114751781Y-98256040D01*
X114955659Y-98256040D01*
X115155618Y-98216266D01*
X115343976Y-98138245D01*
X115513494Y-98024977D01*
X115557431Y-97981040D01*
X120421269Y-97981040D01*
X120485526Y-98045297D01*
X120655044Y-98158565D01*
X120843402Y-98236586D01*
X121043361Y-98276360D01*
X121247239Y-98276360D01*
X121447198Y-98236586D01*
X121635556Y-98158565D01*
X121805074Y-98045297D01*
X121949237Y-97901134D01*
X122016478Y-97800500D01*
X122650981Y-98435003D01*
X122650981Y-100246902D01*
X122523039Y-100208096D01*
X122301000Y-100330085D01*
X122301000Y-101473000D01*
X122321000Y-101473000D01*
X122321000Y-101727000D01*
X122301000Y-101727000D01*
X122301000Y-102869915D01*
X122523039Y-102991904D01*
X122650980Y-102953098D01*
X122650980Y-104363389D01*
X122607043Y-104407326D01*
X122493775Y-104576844D01*
X122415754Y-104765202D01*
X122375980Y-104965161D01*
X122375980Y-105169039D01*
X122407759Y-105328804D01*
X122338574Y-105300147D01*
X122061335Y-105245000D01*
X121778665Y-105245000D01*
X121501426Y-105300147D01*
X121240273Y-105408320D01*
X121005241Y-105565363D01*
X120805363Y-105765241D01*
X120648320Y-106000273D01*
X120540147Y-106261426D01*
X120485000Y-106538665D01*
X120485000Y-106821335D01*
X120521312Y-107003887D01*
X120480198Y-107045001D01*
X119497063Y-107045001D01*
X119501904Y-107029039D01*
X119379915Y-106807000D01*
X118237000Y-106807000D01*
X118237000Y-106827000D01*
X117983000Y-106827000D01*
X117983000Y-106807000D01*
X116840085Y-106807000D01*
X116718096Y-107029039D01*
X116722937Y-107045001D01*
X115015088Y-107045001D01*
X115041226Y-106981898D01*
X115081000Y-106781939D01*
X115081000Y-106578061D01*
X115041226Y-106378102D01*
X115021700Y-106330961D01*
X116718096Y-106330961D01*
X116840085Y-106553000D01*
X117983000Y-106553000D01*
X117983000Y-105409376D01*
X118237000Y-105409376D01*
X118237000Y-106553000D01*
X119379915Y-106553000D01*
X119501904Y-106330961D01*
X119461246Y-106196913D01*
X119341037Y-105942580D01*
X119173519Y-105716586D01*
X118965131Y-105527615D01*
X118723881Y-105382930D01*
X118459040Y-105288091D01*
X118237000Y-105409376D01*
X117983000Y-105409376D01*
X117760960Y-105288091D01*
X117496119Y-105382930D01*
X117254869Y-105527615D01*
X117046481Y-105716586D01*
X116878963Y-105942580D01*
X116758754Y-106196913D01*
X116718096Y-106330961D01*
X115021700Y-106330961D01*
X114963205Y-106189744D01*
X114849937Y-106020226D01*
X114705774Y-105876063D01*
X114536256Y-105762795D01*
X114347898Y-105684774D01*
X114147939Y-105645000D01*
X114085802Y-105645000D01*
X111307804Y-102867003D01*
X111284001Y-102837999D01*
X111168276Y-102743026D01*
X111036247Y-102672454D01*
X110892986Y-102628997D01*
X110781333Y-102618000D01*
X110781322Y-102618000D01*
X110744000Y-102614324D01*
X110706678Y-102618000D01*
X102752020Y-102618000D01*
X102752020Y-101966665D01*
X111595000Y-101966665D01*
X111595000Y-102249335D01*
X111650147Y-102526574D01*
X111758320Y-102787727D01*
X111915363Y-103022759D01*
X112115241Y-103222637D01*
X112350273Y-103379680D01*
X112611426Y-103487853D01*
X112888665Y-103543000D01*
X113171335Y-103543000D01*
X113448574Y-103487853D01*
X113709727Y-103379680D01*
X113944759Y-103222637D01*
X114144637Y-103022759D01*
X114301680Y-102787727D01*
X114409853Y-102526574D01*
X114465000Y-102249335D01*
X114465000Y-101966665D01*
X114409853Y-101689426D01*
X114314269Y-101458665D01*
X115659000Y-101458665D01*
X115659000Y-101741335D01*
X115714147Y-102018574D01*
X115822320Y-102279727D01*
X115979363Y-102514759D01*
X116179241Y-102714637D01*
X116414273Y-102871680D01*
X116675426Y-102979853D01*
X116952665Y-103035000D01*
X117235335Y-103035000D01*
X117512574Y-102979853D01*
X117773727Y-102871680D01*
X118008759Y-102714637D01*
X118208637Y-102514759D01*
X118365680Y-102279727D01*
X118370067Y-102269135D01*
X118481615Y-102455131D01*
X118670586Y-102663519D01*
X118896580Y-102831037D01*
X119150913Y-102951246D01*
X119284961Y-102991904D01*
X119507000Y-102869915D01*
X119507000Y-101727000D01*
X119761000Y-101727000D01*
X119761000Y-102869915D01*
X119983039Y-102991904D01*
X120117087Y-102951246D01*
X120371420Y-102831037D01*
X120597414Y-102663519D01*
X120786385Y-102455131D01*
X120904000Y-102259018D01*
X121021615Y-102455131D01*
X121210586Y-102663519D01*
X121436580Y-102831037D01*
X121690913Y-102951246D01*
X121824961Y-102991904D01*
X122047000Y-102869915D01*
X122047000Y-101727000D01*
X119761000Y-101727000D01*
X119507000Y-101727000D01*
X119487000Y-101727000D01*
X119487000Y-101473000D01*
X119507000Y-101473000D01*
X119507000Y-100330085D01*
X119761000Y-100330085D01*
X119761000Y-101473000D01*
X122047000Y-101473000D01*
X122047000Y-100330085D01*
X121824961Y-100208096D01*
X121690913Y-100248754D01*
X121436580Y-100368963D01*
X121210586Y-100536481D01*
X121021615Y-100744869D01*
X120904000Y-100940982D01*
X120786385Y-100744869D01*
X120597414Y-100536481D01*
X120371420Y-100368963D01*
X120117087Y-100248754D01*
X119983039Y-100208096D01*
X119761000Y-100330085D01*
X119507000Y-100330085D01*
X119284961Y-100208096D01*
X119150913Y-100248754D01*
X118896580Y-100368963D01*
X118670586Y-100536481D01*
X118481615Y-100744869D01*
X118370067Y-100930865D01*
X118365680Y-100920273D01*
X118208637Y-100685241D01*
X118008759Y-100485363D01*
X117773727Y-100328320D01*
X117512574Y-100220147D01*
X117235335Y-100165000D01*
X116952665Y-100165000D01*
X116675426Y-100220147D01*
X116414273Y-100328320D01*
X116179241Y-100485363D01*
X115979363Y-100685241D01*
X115822320Y-100920273D01*
X115714147Y-101181426D01*
X115659000Y-101458665D01*
X114314269Y-101458665D01*
X114301680Y-101428273D01*
X114144637Y-101193241D01*
X113944759Y-100993363D01*
X113709727Y-100836320D01*
X113448574Y-100728147D01*
X113171335Y-100673000D01*
X112888665Y-100673000D01*
X112611426Y-100728147D01*
X112350273Y-100836320D01*
X112115241Y-100993363D01*
X111915363Y-101193241D01*
X111758320Y-101428273D01*
X111650147Y-101689426D01*
X111595000Y-101966665D01*
X102752020Y-101966665D01*
X102752020Y-94346665D01*
X111595000Y-94346665D01*
X111595000Y-94629335D01*
X111650147Y-94906574D01*
X111758320Y-95167727D01*
X111915363Y-95402759D01*
X112115241Y-95602637D01*
X112350273Y-95759680D01*
X112611426Y-95867853D01*
X112888665Y-95923000D01*
X113171335Y-95923000D01*
X113448574Y-95867853D01*
X113709727Y-95759680D01*
X113944759Y-95602637D01*
X114144637Y-95402759D01*
X114301680Y-95167727D01*
X114409853Y-94906574D01*
X114465000Y-94629335D01*
X114465000Y-94346665D01*
X114461495Y-94329040D01*
X115702091Y-94329040D01*
X115796930Y-94593881D01*
X115941615Y-94835131D01*
X116130586Y-95043519D01*
X116356580Y-95211037D01*
X116610913Y-95331246D01*
X116744961Y-95371904D01*
X116967000Y-95249915D01*
X116967000Y-94107000D01*
X115823376Y-94107000D01*
X115702091Y-94329040D01*
X114461495Y-94329040D01*
X114409853Y-94069426D01*
X114301680Y-93808273D01*
X114183204Y-93630960D01*
X115702091Y-93630960D01*
X115823376Y-93853000D01*
X116967000Y-93853000D01*
X116967000Y-92710085D01*
X116744961Y-92588096D01*
X116610913Y-92628754D01*
X116356580Y-92748963D01*
X116130586Y-92916481D01*
X115941615Y-93124869D01*
X115796930Y-93366119D01*
X115702091Y-93630960D01*
X114183204Y-93630960D01*
X114144637Y-93573241D01*
X113944759Y-93373363D01*
X113709727Y-93216320D01*
X113448574Y-93108147D01*
X113171335Y-93053000D01*
X112888665Y-93053000D01*
X112611426Y-93108147D01*
X112350273Y-93216320D01*
X112115241Y-93373363D01*
X111915363Y-93573241D01*
X111758320Y-93808273D01*
X111650147Y-94069426D01*
X111595000Y-94346665D01*
X102752020Y-94346665D01*
X102752020Y-83104780D01*
X115714791Y-83104780D01*
X115809630Y-83369621D01*
X115954315Y-83610871D01*
X116143286Y-83819259D01*
X116369280Y-83986777D01*
X116623613Y-84106986D01*
X116757661Y-84147644D01*
X116979700Y-84025655D01*
X116979700Y-82882740D01*
X115836076Y-82882740D01*
X115714791Y-83104780D01*
X102752020Y-83104780D01*
X102752020Y-82406700D01*
X115714791Y-82406700D01*
X115836076Y-82628740D01*
X116979700Y-82628740D01*
X116979700Y-81485825D01*
X116757661Y-81363836D01*
X116623613Y-81404494D01*
X116369280Y-81524703D01*
X116143286Y-81692221D01*
X115954315Y-81900609D01*
X115809630Y-82141859D01*
X115714791Y-82406700D01*
X102752020Y-82406700D01*
X102752020Y-63929343D01*
X102755696Y-63892020D01*
X102752020Y-63854697D01*
X102752020Y-63854687D01*
X102741023Y-63743034D01*
X102697566Y-63599773D01*
X102678578Y-63564250D01*
X102626994Y-63467743D01*
X102555819Y-63381017D01*
X102532021Y-63352019D01*
X102503024Y-63328222D01*
X97961209Y-58786408D01*
X97964663Y-58769040D01*
X105796091Y-58769040D01*
X105890930Y-59033881D01*
X106035615Y-59275131D01*
X106224586Y-59483519D01*
X106450580Y-59651037D01*
X106704913Y-59771246D01*
X106838961Y-59811904D01*
X107061000Y-59689915D01*
X107061000Y-58547000D01*
X105917376Y-58547000D01*
X105796091Y-58769040D01*
X97964663Y-58769040D01*
X98005000Y-58566260D01*
X98005000Y-58273740D01*
X97964665Y-58070960D01*
X105796091Y-58070960D01*
X105917376Y-58293000D01*
X107061000Y-58293000D01*
X107061000Y-57150085D01*
X106838961Y-57028096D01*
X106704913Y-57068754D01*
X106450580Y-57188963D01*
X106224586Y-57356481D01*
X106035615Y-57564869D01*
X105890930Y-57806119D01*
X105796091Y-58070960D01*
X97964665Y-58070960D01*
X97947932Y-57986842D01*
X97835990Y-57716589D01*
X97673475Y-57473368D01*
X97466632Y-57266525D01*
X97292240Y-57150000D01*
X97466632Y-57033475D01*
X97673475Y-56826632D01*
X97835990Y-56583411D01*
X97947932Y-56313158D01*
X98005000Y-56026260D01*
X98005000Y-55733740D01*
X97947932Y-55446842D01*
X97835990Y-55176589D01*
X97673475Y-54933368D01*
X97466632Y-54726525D01*
X97292240Y-54610000D01*
X97466632Y-54493475D01*
X97673475Y-54286632D01*
X97835990Y-54043411D01*
X97947932Y-53773158D01*
X98005000Y-53486260D01*
X98005000Y-53193740D01*
X97947932Y-52906842D01*
X97835990Y-52636589D01*
X97673475Y-52393368D01*
X97466632Y-52186525D01*
X97292240Y-52070000D01*
X97466632Y-51953475D01*
X97673475Y-51746632D01*
X97835990Y-51503411D01*
X97947932Y-51233158D01*
X98005000Y-50946260D01*
X98005000Y-50653740D01*
X97947932Y-50366842D01*
X97835990Y-50096589D01*
X97673475Y-49853368D01*
X97466632Y-49646525D01*
X97284466Y-49524805D01*
X97401355Y-49455178D01*
X97617588Y-49260269D01*
X97791641Y-49026920D01*
X97916825Y-48764099D01*
X97961476Y-48616890D01*
X97840155Y-48387000D01*
X96647000Y-48387000D01*
X96647000Y-48407000D01*
X96393000Y-48407000D01*
X96393000Y-48387000D01*
X95199845Y-48387000D01*
X95078524Y-48616890D01*
X95123175Y-48764099D01*
X95248359Y-49026920D01*
X95422412Y-49260269D01*
X95638645Y-49455178D01*
X95755534Y-49524805D01*
X95573368Y-49646525D01*
X95366525Y-49853368D01*
X95204010Y-50096589D01*
X95092068Y-50366842D01*
X95035000Y-50653740D01*
X95035000Y-50946260D01*
X95092068Y-51233158D01*
X95204010Y-51503411D01*
X95366525Y-51746632D01*
X95573368Y-51953475D01*
X95747760Y-52070000D01*
X95573368Y-52186525D01*
X95366525Y-52393368D01*
X95204010Y-52636589D01*
X95092068Y-52906842D01*
X95035000Y-53193740D01*
X95035000Y-53486260D01*
X95092068Y-53773158D01*
X95204010Y-54043411D01*
X95366525Y-54286632D01*
X95573368Y-54493475D01*
X95747760Y-54610000D01*
X95573368Y-54726525D01*
X95366525Y-54933368D01*
X95204010Y-55176589D01*
X95092068Y-55446842D01*
X95035000Y-55733740D01*
X95035000Y-56026260D01*
X95092068Y-56313158D01*
X95204010Y-56583411D01*
X95366525Y-56826632D01*
X95573368Y-57033475D01*
X95747760Y-57150000D01*
X95573368Y-57266525D01*
X95366525Y-57473368D01*
X95204010Y-57716589D01*
X95092068Y-57986842D01*
X95035000Y-58273740D01*
X95035000Y-58566260D01*
X95092068Y-58853158D01*
X95204010Y-59123411D01*
X95366525Y-59366632D01*
X95573368Y-59573475D01*
X95747760Y-59690000D01*
X95573368Y-59806525D01*
X95366525Y-60013368D01*
X95204010Y-60256589D01*
X95092068Y-60526842D01*
X95035000Y-60813740D01*
X95035000Y-61106260D01*
X95092068Y-61393158D01*
X95204010Y-61663411D01*
X95366525Y-61906632D01*
X95573368Y-62113475D01*
X95747760Y-62230000D01*
X95573368Y-62346525D01*
X95366525Y-62553368D01*
X95204010Y-62796589D01*
X95092068Y-63066842D01*
X95035000Y-63353740D01*
X95035000Y-63646260D01*
X95092068Y-63933158D01*
X95204010Y-64203411D01*
X95366525Y-64446632D01*
X95573368Y-64653475D01*
X95747760Y-64770000D01*
X95573368Y-64886525D01*
X95366525Y-65093368D01*
X95204010Y-65336589D01*
X95092068Y-65606842D01*
X95035000Y-65893740D01*
X95035000Y-66186260D01*
X95092068Y-66473158D01*
X95204010Y-66743411D01*
X95366525Y-66986632D01*
X95573368Y-67193475D01*
X95747760Y-67310000D01*
X95573368Y-67426525D01*
X95366525Y-67633368D01*
X95204010Y-67876589D01*
X95092068Y-68146842D01*
X95035000Y-68433740D01*
X95035000Y-68726260D01*
X95092068Y-69013158D01*
X95204010Y-69283411D01*
X95366525Y-69526632D01*
X95573368Y-69733475D01*
X95747760Y-69850000D01*
X95573368Y-69966525D01*
X95366525Y-70173368D01*
X95204010Y-70416589D01*
X95092068Y-70686842D01*
X95035000Y-70973740D01*
X95035000Y-71266260D01*
X95092068Y-71553158D01*
X95204010Y-71823411D01*
X95366525Y-72066632D01*
X95573368Y-72273475D01*
X95747760Y-72390000D01*
X95573368Y-72506525D01*
X95366525Y-72713368D01*
X95204010Y-72956589D01*
X95092068Y-73226842D01*
X95035000Y-73513740D01*
X95035000Y-73806260D01*
X95092068Y-74093158D01*
X95204010Y-74363411D01*
X95366525Y-74606632D01*
X95573368Y-74813475D01*
X95747760Y-74930000D01*
X95573368Y-75046525D01*
X95366525Y-75253368D01*
X95204010Y-75496589D01*
X95092068Y-75766842D01*
X95035000Y-76053740D01*
X95035000Y-76346260D01*
X95092068Y-76633158D01*
X95204010Y-76903411D01*
X95366525Y-77146632D01*
X95573368Y-77353475D01*
X95747760Y-77470000D01*
X95573368Y-77586525D01*
X95366525Y-77793368D01*
X95204010Y-78036589D01*
X95092068Y-78306842D01*
X95035000Y-78593740D01*
X95035000Y-78886260D01*
X95092068Y-79173158D01*
X95204010Y-79443411D01*
X95366525Y-79686632D01*
X95573368Y-79893475D01*
X95747760Y-80010000D01*
X95573368Y-80126525D01*
X95366525Y-80333368D01*
X95204010Y-80576589D01*
X95092068Y-80846842D01*
X95035000Y-81133740D01*
X95035000Y-81426260D01*
X95092068Y-81713158D01*
X95204010Y-81983411D01*
X95366525Y-82226632D01*
X95573368Y-82433475D01*
X95747760Y-82550000D01*
X95573368Y-82666525D01*
X95366525Y-82873368D01*
X95204010Y-83116589D01*
X95092068Y-83386842D01*
X95035000Y-83673740D01*
X95035000Y-83966260D01*
X95092068Y-84253158D01*
X95204010Y-84523411D01*
X95366525Y-84766632D01*
X95573368Y-84973475D01*
X95747760Y-85090000D01*
X95573368Y-85206525D01*
X95366525Y-85413368D01*
X95204010Y-85656589D01*
X95092068Y-85926842D01*
X95035000Y-86213740D01*
X95035000Y-86506260D01*
X95092068Y-86793158D01*
X95204010Y-87063411D01*
X95366525Y-87306632D01*
X95573368Y-87513475D01*
X95747760Y-87630000D01*
X95573368Y-87746525D01*
X95366525Y-87953368D01*
X95204010Y-88196589D01*
X95092068Y-88466842D01*
X95035000Y-88753740D01*
X95035000Y-89046260D01*
X95092068Y-89333158D01*
X95204010Y-89603411D01*
X95366525Y-89846632D01*
X95573368Y-90053475D01*
X95747760Y-90170000D01*
X95573368Y-90286525D01*
X95366525Y-90493368D01*
X95204010Y-90736589D01*
X95092068Y-91006842D01*
X95035000Y-91293740D01*
X95035000Y-91586260D01*
X95092068Y-91873158D01*
X95204010Y-92143411D01*
X95366525Y-92386632D01*
X95573368Y-92593475D01*
X95747760Y-92710000D01*
X95573368Y-92826525D01*
X95366525Y-93033368D01*
X95204010Y-93276589D01*
X95092068Y-93546842D01*
X95035000Y-93833740D01*
X95035000Y-94126260D01*
X95092068Y-94413158D01*
X95204010Y-94683411D01*
X95366525Y-94926632D01*
X95573368Y-95133475D01*
X95747760Y-95250000D01*
X95573368Y-95366525D01*
X95366525Y-95573368D01*
X95204010Y-95816589D01*
X95092068Y-96086842D01*
X95035000Y-96373740D01*
X95035000Y-96666260D01*
X95092068Y-96953158D01*
X95204010Y-97223411D01*
X95366525Y-97466632D01*
X95573368Y-97673475D01*
X95747760Y-97790000D01*
X95573368Y-97906525D01*
X95366525Y-98113368D01*
X95204010Y-98356589D01*
X95092068Y-98626842D01*
X95035000Y-98913740D01*
X95035000Y-99206260D01*
X95092068Y-99493158D01*
X95204010Y-99763411D01*
X95366525Y-100006632D01*
X95573368Y-100213475D01*
X95747760Y-100330000D01*
X95573368Y-100446525D01*
X95366525Y-100653368D01*
X95204010Y-100896589D01*
X95092068Y-101166842D01*
X95035000Y-101453740D01*
X95035000Y-101746260D01*
X95092068Y-102033158D01*
X95204010Y-102303411D01*
X95366525Y-102546632D01*
X95573368Y-102753475D01*
X95747760Y-102870000D01*
X95573368Y-102986525D01*
X95366525Y-103193368D01*
X95204010Y-103436589D01*
X95092068Y-103706842D01*
X95035000Y-103993740D01*
X95035000Y-104286260D01*
X95092068Y-104573158D01*
X95204010Y-104843411D01*
X95366525Y-105086632D01*
X95573368Y-105293475D01*
X95747760Y-105410000D01*
X95573368Y-105526525D01*
X95366525Y-105733368D01*
X95204010Y-105976589D01*
X95092068Y-106246842D01*
X95035000Y-106533740D01*
X95035000Y-106826260D01*
X95092068Y-107113158D01*
X95204010Y-107383411D01*
X95366525Y-107626632D01*
X95573368Y-107833475D01*
X95747760Y-107950000D01*
X95573368Y-108066525D01*
X95366525Y-108273368D01*
X95204010Y-108516589D01*
X95092068Y-108786842D01*
X95035000Y-109073740D01*
X95035000Y-109366260D01*
X95092068Y-109653158D01*
X95204010Y-109923411D01*
X95366525Y-110166632D01*
X95573368Y-110373475D01*
X95747760Y-110490000D01*
X95573368Y-110606525D01*
X95366525Y-110813368D01*
X95204010Y-111056589D01*
X95092068Y-111326842D01*
X95035000Y-111613740D01*
X95035000Y-111906260D01*
X95092068Y-112193158D01*
X95204010Y-112463411D01*
X95366525Y-112706632D01*
X95573368Y-112913475D01*
X95747760Y-113030000D01*
X95573368Y-113146525D01*
X95366525Y-113353368D01*
X95204010Y-113596589D01*
X95092068Y-113866842D01*
X95035000Y-114153740D01*
X95035000Y-114446260D01*
X95092068Y-114733158D01*
X95204010Y-115003411D01*
X95366525Y-115246632D01*
X95573368Y-115453475D01*
X95747760Y-115570000D01*
X95573368Y-115686525D01*
X95366525Y-115893368D01*
X95204010Y-116136589D01*
X95092068Y-116406842D01*
X95035000Y-116693740D01*
X95035000Y-116986260D01*
X95092068Y-117273158D01*
X95204010Y-117543411D01*
X95366525Y-117786632D01*
X95573368Y-117993475D01*
X95747760Y-118110000D01*
X95573368Y-118226525D01*
X95366525Y-118433368D01*
X95204010Y-118676589D01*
X95092068Y-118946842D01*
X95035000Y-119233740D01*
X95035000Y-119526260D01*
X95092068Y-119813158D01*
X95204010Y-120083411D01*
X95366525Y-120326632D01*
X95573368Y-120533475D01*
X95747760Y-120650000D01*
X95573368Y-120766525D01*
X95366525Y-120973368D01*
X95204010Y-121216589D01*
X95092068Y-121486842D01*
X95035000Y-121773740D01*
X95035000Y-122066260D01*
X95092068Y-122353158D01*
X95204010Y-122623411D01*
X95366525Y-122866632D01*
X95573368Y-123073475D01*
X95747760Y-123190000D01*
X95573368Y-123306525D01*
X95366525Y-123513368D01*
X95204010Y-123756589D01*
X95092068Y-124026842D01*
X95035000Y-124313740D01*
X95035000Y-124606260D01*
X95092068Y-124893158D01*
X95204010Y-125163411D01*
X95366525Y-125406632D01*
X95573368Y-125613475D01*
X95747760Y-125730000D01*
X95573368Y-125846525D01*
X95366525Y-126053368D01*
X95204010Y-126296589D01*
X95092068Y-126566842D01*
X95035000Y-126853740D01*
X95035000Y-127146260D01*
X95092068Y-127433158D01*
X95204010Y-127703411D01*
X95366525Y-127946632D01*
X95573368Y-128153475D01*
X95747760Y-128270000D01*
X95573368Y-128386525D01*
X95366525Y-128593368D01*
X95204010Y-128836589D01*
X95092068Y-129106842D01*
X95035000Y-129393740D01*
X95035000Y-129686260D01*
X95092068Y-129973158D01*
X95204010Y-130243411D01*
X95366525Y-130486632D01*
X95573368Y-130693475D01*
X95747760Y-130810000D01*
X95573368Y-130926525D01*
X95366525Y-131133368D01*
X95204010Y-131376589D01*
X95092068Y-131646842D01*
X95035000Y-131933740D01*
X95035000Y-132226260D01*
X95092068Y-132513158D01*
X95204010Y-132783411D01*
X95366525Y-133026632D01*
X95573368Y-133233475D01*
X95747760Y-133350000D01*
X95573368Y-133466525D01*
X95366525Y-133673368D01*
X95204010Y-133916589D01*
X95092068Y-134186842D01*
X95035000Y-134473740D01*
X95035000Y-134766260D01*
X95092068Y-135053158D01*
X95204010Y-135323411D01*
X95366525Y-135566632D01*
X95573368Y-135773475D01*
X95747760Y-135890000D01*
X95573368Y-136006525D01*
X95366525Y-136213368D01*
X95204010Y-136456589D01*
X95092068Y-136726842D01*
X95035000Y-137013740D01*
X95035000Y-137306260D01*
X95092068Y-137593158D01*
X95204010Y-137863411D01*
X95366525Y-138106632D01*
X95573368Y-138313475D01*
X95747760Y-138430000D01*
X95573368Y-138546525D01*
X95366525Y-138753368D01*
X95204010Y-138996589D01*
X95092068Y-139266842D01*
X95035000Y-139553740D01*
X95035000Y-139846260D01*
X95092068Y-140133158D01*
X95204010Y-140403411D01*
X95366525Y-140646632D01*
X95573368Y-140853475D01*
X95747760Y-140970000D01*
X95573368Y-141086525D01*
X95366525Y-141293368D01*
X95204010Y-141536589D01*
X95092068Y-141806842D01*
X95035000Y-142093740D01*
X95035000Y-142386260D01*
X95092068Y-142673158D01*
X95204010Y-142943411D01*
X95366525Y-143186632D01*
X95573368Y-143393475D01*
X95747760Y-143510000D01*
X95573368Y-143626525D01*
X95366525Y-143833368D01*
X95204010Y-144076589D01*
X95092068Y-144346842D01*
X95035000Y-144633740D01*
X95035000Y-144926260D01*
X95092068Y-145213158D01*
X95204010Y-145483411D01*
X95366525Y-145726632D01*
X95573368Y-145933475D01*
X95816589Y-146095990D01*
X96086842Y-146207932D01*
X96373740Y-146265000D01*
X96666260Y-146265000D01*
X96953158Y-146207932D01*
X97223411Y-146095990D01*
X97466632Y-145933475D01*
X97673475Y-145726632D01*
X97835990Y-145483411D01*
X97947932Y-145213158D01*
X98005000Y-144926260D01*
X98005000Y-144633740D01*
X97947932Y-144346842D01*
X97835990Y-144076589D01*
X97673475Y-143833368D01*
X97466632Y-143626525D01*
X97292240Y-143510000D01*
X97466632Y-143393475D01*
X97673475Y-143186632D01*
X97721561Y-143114665D01*
X101435000Y-143114665D01*
X101435000Y-143397335D01*
X101490147Y-143674574D01*
X101598320Y-143935727D01*
X101755363Y-144170759D01*
X101955241Y-144370637D01*
X102190273Y-144527680D01*
X102451426Y-144635853D01*
X102728665Y-144691000D01*
X103011335Y-144691000D01*
X103288574Y-144635853D01*
X103549727Y-144527680D01*
X103784759Y-144370637D01*
X103906694Y-144248702D01*
X107056903Y-144248702D01*
X107128486Y-144492671D01*
X107383996Y-144613571D01*
X107658184Y-144682300D01*
X107940512Y-144696217D01*
X108220130Y-144654787D01*
X108486292Y-144559603D01*
X108611514Y-144492671D01*
X108683097Y-144248702D01*
X107870000Y-143435605D01*
X107056903Y-144248702D01*
X103906694Y-144248702D01*
X103984637Y-144170759D01*
X104141680Y-143935727D01*
X104249853Y-143674574D01*
X104305000Y-143397335D01*
X104305000Y-143326512D01*
X106429783Y-143326512D01*
X106471213Y-143606130D01*
X106566397Y-143872292D01*
X106633329Y-143997514D01*
X106877298Y-144069097D01*
X107690395Y-143256000D01*
X108049605Y-143256000D01*
X108862702Y-144069097D01*
X109106671Y-143997514D01*
X109227571Y-143742004D01*
X109296300Y-143467816D01*
X109310217Y-143185488D01*
X109299724Y-143114665D01*
X120485000Y-143114665D01*
X120485000Y-143397335D01*
X120540147Y-143674574D01*
X120648320Y-143935727D01*
X120805363Y-144170759D01*
X121005241Y-144370637D01*
X121240273Y-144527680D01*
X121501426Y-144635853D01*
X121778665Y-144691000D01*
X122061335Y-144691000D01*
X122338574Y-144635853D01*
X122599727Y-144527680D01*
X122834759Y-144370637D01*
X122956694Y-144248702D01*
X126106903Y-144248702D01*
X126178486Y-144492671D01*
X126433996Y-144613571D01*
X126708184Y-144682300D01*
X126990512Y-144696217D01*
X127270130Y-144654787D01*
X127536292Y-144559603D01*
X127661514Y-144492671D01*
X127733097Y-144248702D01*
X126920000Y-143435605D01*
X126106903Y-144248702D01*
X122956694Y-144248702D01*
X123034637Y-144170759D01*
X123191680Y-143935727D01*
X123299853Y-143674574D01*
X123355000Y-143397335D01*
X123355000Y-143326512D01*
X125479783Y-143326512D01*
X125521213Y-143606130D01*
X125616397Y-143872292D01*
X125683329Y-143997514D01*
X125927298Y-144069097D01*
X126740395Y-143256000D01*
X127099605Y-143256000D01*
X127912702Y-144069097D01*
X128156671Y-143997514D01*
X128277571Y-143742004D01*
X128346300Y-143467816D01*
X128360217Y-143185488D01*
X128318787Y-142905870D01*
X128223603Y-142639708D01*
X128156671Y-142514486D01*
X127912702Y-142442903D01*
X127099605Y-143256000D01*
X126740395Y-143256000D01*
X125927298Y-142442903D01*
X125683329Y-142514486D01*
X125562429Y-142769996D01*
X125493700Y-143044184D01*
X125479783Y-143326512D01*
X123355000Y-143326512D01*
X123355000Y-143114665D01*
X123299853Y-142837426D01*
X123191680Y-142576273D01*
X123034637Y-142341241D01*
X122956694Y-142263298D01*
X126106903Y-142263298D01*
X126920000Y-143076395D01*
X127733097Y-142263298D01*
X127661514Y-142019329D01*
X127406004Y-141898429D01*
X127131816Y-141829700D01*
X126849488Y-141815783D01*
X126569870Y-141857213D01*
X126303708Y-141952397D01*
X126178486Y-142019329D01*
X126106903Y-142263298D01*
X122956694Y-142263298D01*
X122834759Y-142141363D01*
X122599727Y-141984320D01*
X122338574Y-141876147D01*
X122061335Y-141821000D01*
X121778665Y-141821000D01*
X121501426Y-141876147D01*
X121240273Y-141984320D01*
X121005241Y-142141363D01*
X120805363Y-142341241D01*
X120648320Y-142576273D01*
X120540147Y-142837426D01*
X120485000Y-143114665D01*
X109299724Y-143114665D01*
X109268787Y-142905870D01*
X109173603Y-142639708D01*
X109106671Y-142514486D01*
X108862702Y-142442903D01*
X108049605Y-143256000D01*
X107690395Y-143256000D01*
X106877298Y-142442903D01*
X106633329Y-142514486D01*
X106512429Y-142769996D01*
X106443700Y-143044184D01*
X106429783Y-143326512D01*
X104305000Y-143326512D01*
X104305000Y-143114665D01*
X104249853Y-142837426D01*
X104141680Y-142576273D01*
X103984637Y-142341241D01*
X103906694Y-142263298D01*
X107056903Y-142263298D01*
X107870000Y-143076395D01*
X108683097Y-142263298D01*
X108611514Y-142019329D01*
X108356004Y-141898429D01*
X108081816Y-141829700D01*
X107799488Y-141815783D01*
X107519870Y-141857213D01*
X107253708Y-141952397D01*
X107128486Y-142019329D01*
X107056903Y-142263298D01*
X103906694Y-142263298D01*
X103784759Y-142141363D01*
X103549727Y-141984320D01*
X103288574Y-141876147D01*
X103011335Y-141821000D01*
X102728665Y-141821000D01*
X102451426Y-141876147D01*
X102190273Y-141984320D01*
X101955241Y-142141363D01*
X101755363Y-142341241D01*
X101598320Y-142576273D01*
X101490147Y-142837426D01*
X101435000Y-143114665D01*
X97721561Y-143114665D01*
X97835990Y-142943411D01*
X97947932Y-142673158D01*
X98005000Y-142386260D01*
X98005000Y-142093740D01*
X97947932Y-141806842D01*
X97835990Y-141536589D01*
X97673475Y-141293368D01*
X97466632Y-141086525D01*
X97292240Y-140970000D01*
X97466632Y-140853475D01*
X97673475Y-140646632D01*
X97835990Y-140403411D01*
X97947932Y-140133158D01*
X98005000Y-139846260D01*
X98005000Y-139553740D01*
X97947932Y-139266842D01*
X97835990Y-138996589D01*
X97673475Y-138753368D01*
X97466632Y-138546525D01*
X97292240Y-138430000D01*
X97466632Y-138313475D01*
X97673475Y-138106632D01*
X97835990Y-137863411D01*
X97947932Y-137593158D01*
X98005000Y-137306260D01*
X98005000Y-137013740D01*
X97947932Y-136726842D01*
X97835990Y-136456589D01*
X97673475Y-136213368D01*
X97466632Y-136006525D01*
X97292240Y-135890000D01*
X97466632Y-135773475D01*
X97673475Y-135566632D01*
X97835990Y-135323411D01*
X97947932Y-135053158D01*
X98005000Y-134766260D01*
X98005000Y-134473740D01*
X97947932Y-134186842D01*
X97835990Y-133916589D01*
X97673475Y-133673368D01*
X97466632Y-133466525D01*
X97292240Y-133350000D01*
X97466632Y-133233475D01*
X97673475Y-133026632D01*
X97835990Y-132783411D01*
X97947932Y-132513158D01*
X98005000Y-132226260D01*
X98005000Y-131933740D01*
X97947932Y-131646842D01*
X97835990Y-131376589D01*
X97673475Y-131133368D01*
X97466632Y-130926525D01*
X97292240Y-130810000D01*
X97466632Y-130693475D01*
X97673475Y-130486632D01*
X97835990Y-130243411D01*
X97947932Y-129973158D01*
X98005000Y-129686260D01*
X98005000Y-129393740D01*
X97947932Y-129106842D01*
X97835990Y-128836589D01*
X97673475Y-128593368D01*
X97466632Y-128386525D01*
X97292240Y-128270000D01*
X97466632Y-128153475D01*
X97673475Y-127946632D01*
X97835990Y-127703411D01*
X97947932Y-127433158D01*
X98005000Y-127146260D01*
X98005000Y-126853740D01*
X97947932Y-126566842D01*
X97835990Y-126296589D01*
X97673475Y-126053368D01*
X97466632Y-125846525D01*
X97292240Y-125730000D01*
X97466632Y-125613475D01*
X97673475Y-125406632D01*
X97835990Y-125163411D01*
X97947932Y-124893158D01*
X98005000Y-124606260D01*
X98005000Y-124313740D01*
X97947932Y-124026842D01*
X97835990Y-123756589D01*
X97673475Y-123513368D01*
X97466632Y-123306525D01*
X97292240Y-123190000D01*
X97466632Y-123073475D01*
X97673475Y-122866632D01*
X97835990Y-122623411D01*
X97947932Y-122353158D01*
X98005000Y-122066260D01*
X98005000Y-121773740D01*
X97947932Y-121486842D01*
X97835990Y-121216589D01*
X97673475Y-120973368D01*
X97466632Y-120766525D01*
X97292240Y-120650000D01*
X97466632Y-120533475D01*
X97673475Y-120326632D01*
X97835990Y-120083411D01*
X97947932Y-119813158D01*
X98005000Y-119526260D01*
X98005000Y-119233740D01*
X97947932Y-118946842D01*
X97835990Y-118676589D01*
X97673475Y-118433368D01*
X97466632Y-118226525D01*
X97292240Y-118110000D01*
X97466632Y-117993475D01*
X97673475Y-117786632D01*
X97835990Y-117543411D01*
X97947932Y-117273158D01*
X98005000Y-116986260D01*
X98005000Y-116693740D01*
X97947932Y-116406842D01*
X97835990Y-116136589D01*
X97673475Y-115893368D01*
X97466632Y-115686525D01*
X97292240Y-115570000D01*
X97466632Y-115453475D01*
X97673475Y-115246632D01*
X97835990Y-115003411D01*
X97947932Y-114733158D01*
X98005000Y-114446260D01*
X98005000Y-114153740D01*
X97947932Y-113866842D01*
X97835990Y-113596589D01*
X97673475Y-113353368D01*
X97466632Y-113146525D01*
X97292240Y-113030000D01*
X97466632Y-112913475D01*
X97673475Y-112706632D01*
X97835990Y-112463411D01*
X97947932Y-112193158D01*
X98005000Y-111906260D01*
X98005000Y-111613740D01*
X97947932Y-111326842D01*
X97835990Y-111056589D01*
X97673475Y-110813368D01*
X97466632Y-110606525D01*
X97292240Y-110490000D01*
X97466632Y-110373475D01*
X97673475Y-110166632D01*
X97835990Y-109923411D01*
X97947932Y-109653158D01*
X98005000Y-109366260D01*
X98005000Y-109073740D01*
X97947932Y-108786842D01*
X97835990Y-108516589D01*
X97673475Y-108273368D01*
X97466632Y-108066525D01*
X97292240Y-107950000D01*
X97466632Y-107833475D01*
X97673475Y-107626632D01*
X97835990Y-107383411D01*
X97947932Y-107113158D01*
X98005000Y-106826260D01*
X98005000Y-106533740D01*
X97947932Y-106246842D01*
X97835990Y-105976589D01*
X97673475Y-105733368D01*
X97466632Y-105526525D01*
X97292240Y-105410000D01*
X97466632Y-105293475D01*
X97673475Y-105086632D01*
X97835990Y-104843411D01*
X97947932Y-104573158D01*
X98005000Y-104286260D01*
X98005000Y-103993740D01*
X97947932Y-103706842D01*
X97835990Y-103436589D01*
X97673475Y-103193368D01*
X97466632Y-102986525D01*
X97292240Y-102870000D01*
X97466632Y-102753475D01*
X97673475Y-102546632D01*
X97835990Y-102303411D01*
X97947932Y-102033158D01*
X98005000Y-101746260D01*
X98005000Y-101453740D01*
X97947932Y-101166842D01*
X97835990Y-100896589D01*
X97673475Y-100653368D01*
X97466632Y-100446525D01*
X97292240Y-100330000D01*
X97466632Y-100213475D01*
X97673475Y-100006632D01*
X97835990Y-99763411D01*
X97947932Y-99493158D01*
X98005000Y-99206260D01*
X98005000Y-98913740D01*
X97947932Y-98626842D01*
X97835990Y-98356589D01*
X97673475Y-98113368D01*
X97466632Y-97906525D01*
X97292240Y-97790000D01*
X97466632Y-97673475D01*
X97673475Y-97466632D01*
X97835990Y-97223411D01*
X97947932Y-96953158D01*
X98005000Y-96666260D01*
X98005000Y-96373740D01*
X97947932Y-96086842D01*
X97835990Y-95816589D01*
X97673475Y-95573368D01*
X97466632Y-95366525D01*
X97292240Y-95250000D01*
X97466632Y-95133475D01*
X97673475Y-94926632D01*
X97835990Y-94683411D01*
X97947932Y-94413158D01*
X98005000Y-94126260D01*
X98005000Y-93833740D01*
X97947932Y-93546842D01*
X97835990Y-93276589D01*
X97673475Y-93033368D01*
X97466632Y-92826525D01*
X97292240Y-92710000D01*
X97466632Y-92593475D01*
X97673475Y-92386632D01*
X97835990Y-92143411D01*
X97947932Y-91873158D01*
X98005000Y-91586260D01*
X98005000Y-91293740D01*
X97947932Y-91006842D01*
X97835990Y-90736589D01*
X97673475Y-90493368D01*
X97466632Y-90286525D01*
X97292240Y-90170000D01*
X97466632Y-90053475D01*
X97673475Y-89846632D01*
X97835990Y-89603411D01*
X97947932Y-89333158D01*
X98005000Y-89046260D01*
X98005000Y-88753740D01*
X97947932Y-88466842D01*
X97835990Y-88196589D01*
X97673475Y-87953368D01*
X97466632Y-87746525D01*
X97292240Y-87630000D01*
X97466632Y-87513475D01*
X97673475Y-87306632D01*
X97835990Y-87063411D01*
X97947932Y-86793158D01*
X98005000Y-86506260D01*
X98005000Y-86213740D01*
X97947932Y-85926842D01*
X97835990Y-85656589D01*
X97673475Y-85413368D01*
X97466632Y-85206525D01*
X97292240Y-85090000D01*
X97466632Y-84973475D01*
X97673475Y-84766632D01*
X97835990Y-84523411D01*
X97947932Y-84253158D01*
X98005000Y-83966260D01*
X98005000Y-83673740D01*
X97947932Y-83386842D01*
X97835990Y-83116589D01*
X97673475Y-82873368D01*
X97466632Y-82666525D01*
X97292240Y-82550000D01*
X97466632Y-82433475D01*
X97673475Y-82226632D01*
X97835990Y-81983411D01*
X97947932Y-81713158D01*
X98005000Y-81426260D01*
X98005000Y-81133740D01*
X97947932Y-80846842D01*
X97835990Y-80576589D01*
X97673475Y-80333368D01*
X97466632Y-80126525D01*
X97292240Y-80010000D01*
X97466632Y-79893475D01*
X97673475Y-79686632D01*
X97835990Y-79443411D01*
X97947932Y-79173158D01*
X98005000Y-78886260D01*
X98005000Y-78593740D01*
X97947932Y-78306842D01*
X97835990Y-78036589D01*
X97673475Y-77793368D01*
X97466632Y-77586525D01*
X97292240Y-77470000D01*
X97466632Y-77353475D01*
X97673475Y-77146632D01*
X97798178Y-76960000D01*
X97983199Y-76960000D01*
X98046000Y-77022802D01*
X98046001Y-116040667D01*
X98042324Y-116078000D01*
X98046001Y-116115333D01*
X98047500Y-116130547D01*
X98056998Y-116226985D01*
X98100454Y-116370246D01*
X98171026Y-116502276D01*
X98242201Y-116589002D01*
X98266000Y-116618001D01*
X98294998Y-116641799D01*
X99004201Y-117351002D01*
X99027999Y-117380001D01*
X99143724Y-117474974D01*
X99275753Y-117545546D01*
X99419014Y-117589003D01*
X99530667Y-117600000D01*
X99530675Y-117600000D01*
X99568000Y-117603676D01*
X99605325Y-117600000D01*
X101651957Y-117600000D01*
X101755363Y-117754759D01*
X101955241Y-117954637D01*
X102187759Y-118110000D01*
X101955241Y-118265363D01*
X101755363Y-118465241D01*
X101598320Y-118700273D01*
X101490147Y-118961426D01*
X101435000Y-119238665D01*
X101435000Y-119521335D01*
X101471312Y-119703887D01*
X101234001Y-119941197D01*
X101204998Y-119965000D01*
X101163986Y-120014974D01*
X101110025Y-120080725D01*
X101084220Y-120129003D01*
X101039453Y-120212755D01*
X100995996Y-120356016D01*
X100984999Y-120467669D01*
X100984999Y-120467679D01*
X100981323Y-120505001D01*
X100984999Y-120542323D01*
X100985000Y-132582669D01*
X100981323Y-132620001D01*
X100985000Y-132657334D01*
X100995997Y-132768987D01*
X101001020Y-132785546D01*
X101039453Y-132912247D01*
X101110025Y-133044277D01*
X101177147Y-133126064D01*
X101204999Y-133160002D01*
X101233997Y-133183800D01*
X101755400Y-133705204D01*
X101755363Y-133705241D01*
X101598320Y-133940273D01*
X101490147Y-134201426D01*
X101435000Y-134478665D01*
X101435000Y-134761335D01*
X101490147Y-135038574D01*
X101598320Y-135299727D01*
X101755363Y-135534759D01*
X101955241Y-135734637D01*
X102187759Y-135890000D01*
X101955241Y-136045363D01*
X101755363Y-136245241D01*
X101598320Y-136480273D01*
X101490147Y-136741426D01*
X101435000Y-137018665D01*
X101435000Y-137301335D01*
X101490147Y-137578574D01*
X101598320Y-137839727D01*
X101755363Y-138074759D01*
X101955241Y-138274637D01*
X102187759Y-138430000D01*
X101955241Y-138585363D01*
X101755363Y-138785241D01*
X101598320Y-139020273D01*
X101490147Y-139281426D01*
X101435000Y-139558665D01*
X101435000Y-139841335D01*
X101490147Y-140118574D01*
X101598320Y-140379727D01*
X101755363Y-140614759D01*
X101955241Y-140814637D01*
X102190273Y-140971680D01*
X102451426Y-141079853D01*
X102728665Y-141135000D01*
X103011335Y-141135000D01*
X103288574Y-141079853D01*
X103549727Y-140971680D01*
X103784759Y-140814637D01*
X103984637Y-140614759D01*
X104141680Y-140379727D01*
X104249853Y-140118574D01*
X104305000Y-139841335D01*
X104305000Y-139558665D01*
X104249853Y-139281426D01*
X104141680Y-139020273D01*
X103984637Y-138785241D01*
X103784759Y-138585363D01*
X103552241Y-138430000D01*
X103784759Y-138274637D01*
X103984637Y-138074759D01*
X104088043Y-137920000D01*
X112070039Y-137920000D01*
X115486042Y-141336004D01*
X115509840Y-141365002D01*
X115538838Y-141388800D01*
X115625564Y-141459975D01*
X115757594Y-141530547D01*
X115900855Y-141574004D01*
X116012508Y-141585001D01*
X116012517Y-141585001D01*
X116049840Y-141588677D01*
X116087163Y-141585001D01*
X132469722Y-141585001D01*
X128785044Y-145269680D01*
X128486031Y-145269680D01*
X128442094Y-145225743D01*
X128272576Y-145112475D01*
X128084218Y-145034454D01*
X127884259Y-144994680D01*
X127680381Y-144994680D01*
X127480422Y-145034454D01*
X127292064Y-145112475D01*
X127122546Y-145225743D01*
X126978383Y-145369906D01*
X126865115Y-145539424D01*
X126787094Y-145727782D01*
X126747320Y-145927741D01*
X126747320Y-146131619D01*
X126787094Y-146331578D01*
X126865115Y-146519936D01*
X126958703Y-146660000D01*
X94640000Y-146660000D01*
X94640000Y-44870000D01*
X95031928Y-44870000D01*
X95031928Y-46570000D01*
X95044188Y-46694482D01*
X95080498Y-46814180D01*
X95139463Y-46924494D01*
X95218815Y-47021185D01*
X95315506Y-47100537D01*
X95425820Y-47159502D01*
X95506466Y-47183966D01*
X95422412Y-47259731D01*
X95248359Y-47493080D01*
X95123175Y-47755901D01*
X95078524Y-47903110D01*
X95199845Y-48133000D01*
X96393000Y-48133000D01*
X96393000Y-48113000D01*
X96647000Y-48113000D01*
X96647000Y-48133000D01*
X97840155Y-48133000D01*
X97961476Y-47903110D01*
X97916825Y-47755901D01*
X97791641Y-47493080D01*
X97617588Y-47259731D01*
X97533534Y-47183966D01*
X97614180Y-47159502D01*
X97724494Y-47100537D01*
X97821185Y-47021185D01*
X97900537Y-46924494D01*
X97959502Y-46814180D01*
X97995812Y-46694482D01*
X98008072Y-46570000D01*
X98008072Y-44870000D01*
X97995812Y-44745518D01*
X97959502Y-44625820D01*
X97900537Y-44515506D01*
X97821185Y-44418815D01*
X97724494Y-44339463D01*
X97614180Y-44280498D01*
X97494482Y-44244188D01*
X97370000Y-44231928D01*
X95670000Y-44231928D01*
X95545518Y-44244188D01*
X95425820Y-44280498D01*
X95315506Y-44339463D01*
X95218815Y-44418815D01*
X95139463Y-44515506D01*
X95080498Y-44625820D01*
X95044188Y-44745518D01*
X95031928Y-44870000D01*
X94640000Y-44870000D01*
X94640000Y-43840000D01*
X100481891Y-43840000D01*
X100469998Y-43849760D01*
G37*
X100469998Y-43849760D02*
X100414870Y-43916935D01*
X100375025Y-43965485D01*
X100351774Y-44008984D01*
X100304453Y-44097515D01*
X100260996Y-44240776D01*
X100249999Y-44352429D01*
X100249999Y-44352439D01*
X100246323Y-44389761D01*
X100249999Y-44427084D01*
X100250000Y-46362667D01*
X100246323Y-46399999D01*
X100250000Y-46437332D01*
X100260997Y-46548985D01*
X100264645Y-46561011D01*
X100304453Y-46692245D01*
X100375025Y-46824275D01*
X100446200Y-46911001D01*
X100469999Y-46940000D01*
X100498997Y-46963798D01*
X100696928Y-47161729D01*
X100696928Y-48525000D01*
X100709188Y-48649482D01*
X100745498Y-48769180D01*
X100804463Y-48879494D01*
X100883815Y-48976185D01*
X100980506Y-49055537D01*
X101090820Y-49114502D01*
X101210518Y-49150812D01*
X101335000Y-49163072D01*
X103135000Y-49163072D01*
X103259482Y-49150812D01*
X103379180Y-49114502D01*
X103489494Y-49055537D01*
X103586185Y-48976185D01*
X103665537Y-48879494D01*
X103724502Y-48769180D01*
X103760812Y-48649482D01*
X103773072Y-48525000D01*
X103773072Y-47697875D01*
X103964200Y-47889003D01*
X103964201Y-52790899D01*
X103860241Y-52860363D01*
X103661643Y-53058961D01*
X103660812Y-53050518D01*
X103624502Y-52930820D01*
X103565537Y-52820506D01*
X103486185Y-52723815D01*
X103389494Y-52644463D01*
X103279180Y-52585498D01*
X103159482Y-52549188D01*
X103035000Y-52536928D01*
X101435000Y-52536928D01*
X101310518Y-52549188D01*
X101190820Y-52585498D01*
X101080506Y-52644463D01*
X100983815Y-52723815D01*
X100904463Y-52820506D01*
X100845498Y-52930820D01*
X100809188Y-53050518D01*
X100796928Y-53175000D01*
X100796928Y-54775000D01*
X100809188Y-54899482D01*
X100845498Y-55019180D01*
X100904463Y-55129494D01*
X100983815Y-55226185D01*
X101080506Y-55305537D01*
X101190820Y-55364502D01*
X101310518Y-55400812D01*
X101435000Y-55413072D01*
X103035000Y-55413072D01*
X103159482Y-55400812D01*
X103279180Y-55364502D01*
X103389494Y-55305537D01*
X103486185Y-55226185D01*
X103565537Y-55129494D01*
X103624502Y-55019180D01*
X103660812Y-54899482D01*
X103661643Y-54891039D01*
X103860241Y-55089637D01*
X104095273Y-55246680D01*
X104356426Y-55354853D01*
X104633665Y-55410000D01*
X104916335Y-55410000D01*
X105193574Y-55354853D01*
X105454727Y-55246680D01*
X105689759Y-55089637D01*
X105889637Y-54889759D01*
X106045000Y-54657241D01*
X106200363Y-54889759D01*
X106400241Y-55089637D01*
X106635273Y-55246680D01*
X106896426Y-55354853D01*
X107173665Y-55410000D01*
X107456335Y-55410000D01*
X107733574Y-55354853D01*
X107842999Y-55309528D01*
X107843000Y-57150007D01*
X107671087Y-57068754D01*
X107537039Y-57028096D01*
X107315000Y-57150085D01*
X107315000Y-58293000D01*
X107335000Y-58293000D01*
X107335000Y-58547000D01*
X107315000Y-58547000D01*
X107315000Y-59689915D01*
X107537039Y-59811904D01*
X107671087Y-59771246D01*
X107843000Y-59689992D01*
X107843000Y-61052427D01*
X107839323Y-61089759D01*
X107843000Y-61127092D01*
X107853997Y-61238745D01*
X107867179Y-61282201D01*
X107897453Y-61382005D01*
X107968025Y-61514035D01*
X108039200Y-61600761D01*
X108062999Y-61629760D01*
X108091997Y-61653558D01*
X108950411Y-62511973D01*
X108974209Y-62540971D01*
X109003207Y-62564769D01*
X109089933Y-62635944D01*
X109163426Y-62675227D01*
X109221963Y-62706516D01*
X109365224Y-62749973D01*
X109476877Y-62760970D01*
X109476887Y-62760970D01*
X109514210Y-62764646D01*
X109551533Y-62760970D01*
X111972413Y-62760970D01*
X111919494Y-62789256D01*
X111919492Y-62789257D01*
X111919493Y-62789257D01*
X111832766Y-62860431D01*
X111832762Y-62860435D01*
X111803769Y-62884229D01*
X111779975Y-62913222D01*
X110051886Y-64641312D01*
X109869335Y-64605000D01*
X109586665Y-64605000D01*
X109309426Y-64660147D01*
X109048273Y-64768320D01*
X108813241Y-64925363D01*
X108613363Y-65125241D01*
X108458000Y-65357759D01*
X108302637Y-65125241D01*
X108102759Y-64925363D01*
X107867727Y-64768320D01*
X107606574Y-64660147D01*
X107329335Y-64605000D01*
X107046665Y-64605000D01*
X106769426Y-64660147D01*
X106508273Y-64768320D01*
X106273241Y-64925363D01*
X106073363Y-65125241D01*
X105916320Y-65360273D01*
X105808147Y-65621426D01*
X105753000Y-65898665D01*
X105753000Y-66181335D01*
X105808147Y-66458574D01*
X105916320Y-66719727D01*
X106073363Y-66954759D01*
X106273241Y-67154637D01*
X106508273Y-67311680D01*
X106769426Y-67419853D01*
X107046665Y-67475000D01*
X107329335Y-67475000D01*
X107573325Y-67426467D01*
X111238080Y-71091222D01*
X111238080Y-71153359D01*
X111277854Y-71353318D01*
X111355875Y-71541676D01*
X111469143Y-71711194D01*
X111613306Y-71855357D01*
X111782824Y-71968625D01*
X111971182Y-72046646D01*
X112171141Y-72086420D01*
X112375019Y-72086420D01*
X112574978Y-72046646D01*
X112763336Y-71968625D01*
X112932854Y-71855357D01*
X112968651Y-71819560D01*
X115732571Y-71819560D01*
X115827410Y-72084401D01*
X115972095Y-72325651D01*
X116161066Y-72534039D01*
X116387060Y-72701557D01*
X116641393Y-72821766D01*
X116775441Y-72862424D01*
X116997480Y-72740435D01*
X116997480Y-71597520D01*
X115853856Y-71597520D01*
X115732571Y-71819560D01*
X112968651Y-71819560D01*
X113077017Y-71711194D01*
X113190285Y-71541676D01*
X113268306Y-71353318D01*
X113308080Y-71153359D01*
X113308080Y-71121480D01*
X115732571Y-71121480D01*
X115853856Y-71343520D01*
X116997480Y-71343520D01*
X116997480Y-70200605D01*
X116775441Y-70078616D01*
X116641393Y-70119274D01*
X116387060Y-70239483D01*
X116161066Y-70407001D01*
X115972095Y-70615389D01*
X115827410Y-70856639D01*
X115732571Y-71121480D01*
X113308080Y-71121480D01*
X113308080Y-70949481D01*
X113268306Y-70749522D01*
X113190285Y-70561164D01*
X113077017Y-70391646D01*
X112932854Y-70247483D01*
X112763336Y-70134215D01*
X112574978Y-70056194D01*
X112375019Y-70016420D01*
X112312882Y-70016420D01*
X109771461Y-67475000D01*
X109869335Y-67475000D01*
X110146574Y-67419853D01*
X110407727Y-67311680D01*
X110642759Y-67154637D01*
X110842637Y-66954759D01*
X110998000Y-66722241D01*
X111153363Y-66954759D01*
X111353241Y-67154637D01*
X111588273Y-67311680D01*
X111849426Y-67419853D01*
X112126665Y-67475000D01*
X112409335Y-67475000D01*
X112686574Y-67419853D01*
X112947727Y-67311680D01*
X113182759Y-67154637D01*
X113382637Y-66954759D01*
X113538000Y-66722241D01*
X113693363Y-66954759D01*
X113893241Y-67154637D01*
X114128273Y-67311680D01*
X114389426Y-67419853D01*
X114666665Y-67475000D01*
X114949335Y-67475000D01*
X115226574Y-67419853D01*
X115487727Y-67311680D01*
X115722759Y-67154637D01*
X115922637Y-66954759D01*
X116078000Y-66722241D01*
X116233363Y-66954759D01*
X116433241Y-67154637D01*
X116668273Y-67311680D01*
X116929426Y-67419853D01*
X117206665Y-67475000D01*
X117489335Y-67475000D01*
X117766574Y-67419853D01*
X118027727Y-67311680D01*
X118262759Y-67154637D01*
X118462637Y-66954759D01*
X118618000Y-66722241D01*
X118773363Y-66954759D01*
X118973241Y-67154637D01*
X119208273Y-67311680D01*
X119469426Y-67419853D01*
X119746665Y-67475000D01*
X120029335Y-67475000D01*
X120306574Y-67419853D01*
X120567727Y-67311680D01*
X120802759Y-67154637D01*
X121002637Y-66954759D01*
X121158000Y-66722241D01*
X121313363Y-66954759D01*
X121513241Y-67154637D01*
X121748273Y-67311680D01*
X122009426Y-67419853D01*
X122286665Y-67475000D01*
X122569335Y-67475000D01*
X122846574Y-67419853D01*
X123107727Y-67311680D01*
X123342759Y-67154637D01*
X123542637Y-66954759D01*
X123698000Y-66722241D01*
X123853363Y-66954759D01*
X124053241Y-67154637D01*
X124288273Y-67311680D01*
X124549426Y-67419853D01*
X124826665Y-67475000D01*
X125109335Y-67475000D01*
X125386574Y-67419853D01*
X125647727Y-67311680D01*
X125882759Y-67154637D01*
X126082637Y-66954759D01*
X126238000Y-66722241D01*
X126393363Y-66954759D01*
X126593241Y-67154637D01*
X126828273Y-67311680D01*
X127089426Y-67419853D01*
X127366665Y-67475000D01*
X127649335Y-67475000D01*
X127926574Y-67419853D01*
X128187727Y-67311680D01*
X128422759Y-67154637D01*
X128622637Y-66954759D01*
X128778000Y-66722241D01*
X128933363Y-66954759D01*
X129133241Y-67154637D01*
X129368273Y-67311680D01*
X129629426Y-67419853D01*
X129906665Y-67475000D01*
X130189335Y-67475000D01*
X130466574Y-67419853D01*
X130727727Y-67311680D01*
X130962759Y-67154637D01*
X131162637Y-66954759D01*
X131319680Y-66719727D01*
X131427853Y-66458574D01*
X131483000Y-66181335D01*
X131483000Y-65898665D01*
X131427853Y-65621426D01*
X131319680Y-65360273D01*
X131162637Y-65125241D01*
X130962759Y-64925363D01*
X130727727Y-64768320D01*
X130466574Y-64660147D01*
X130189335Y-64605000D01*
X130017801Y-64605000D01*
X138306004Y-56316798D01*
X138335001Y-56293001D01*
X138361332Y-56260917D01*
X138429974Y-56177277D01*
X138500546Y-56045247D01*
X138500546Y-56045246D01*
X138544003Y-55901986D01*
X138555000Y-55790333D01*
X138555000Y-55790323D01*
X138558676Y-55753000D01*
X138555000Y-55715677D01*
X138555000Y-49163072D01*
X138695000Y-49163072D01*
X138819482Y-49150812D01*
X138939180Y-49114502D01*
X139049494Y-49055537D01*
X139146185Y-48976185D01*
X139225537Y-48879494D01*
X139284502Y-48769180D01*
X139320812Y-48649482D01*
X139333072Y-48525000D01*
X139333072Y-46725000D01*
X139320812Y-46600518D01*
X139284502Y-46480820D01*
X139225537Y-46370506D01*
X139146185Y-46273815D01*
X139049494Y-46194463D01*
X138939180Y-46135498D01*
X138920873Y-46129944D01*
X138987312Y-46063505D01*
X139155299Y-45812095D01*
X139271011Y-45532743D01*
X139330000Y-45236184D01*
X139330000Y-44933816D01*
X139271011Y-44637257D01*
X139155299Y-44357905D01*
X138987312Y-44106495D01*
X138773505Y-43892688D01*
X138694652Y-43840000D01*
X139426620Y-43840000D01*
X144120000Y-48533381D01*
X144120001Y-73386618D01*
X139256236Y-78250384D01*
X139231052Y-78271052D01*
X139210386Y-78296234D01*
X139148575Y-78371550D01*
X139144446Y-78379275D01*
X139087290Y-78486208D01*
X139049550Y-78610618D01*
X139040000Y-78707582D01*
X139040000Y-78707591D01*
X139036808Y-78740000D01*
X139040000Y-78772409D01*
X139040001Y-141966618D01*
X134346620Y-146660000D01*
X129529792Y-146660000D01*
X129639846Y-146569681D01*
X129663649Y-146540677D01*
X135560268Y-140644060D01*
X135589261Y-140620266D01*
X135613055Y-140591273D01*
X135613059Y-140591269D01*
X135684233Y-140504542D01*
X135686661Y-140500000D01*
X135721928Y-140434022D01*
X135721928Y-140500000D01*
X135734188Y-140624482D01*
X135770498Y-140744180D01*
X135829463Y-140854494D01*
X135908815Y-140951185D01*
X136005506Y-141030537D01*
X136115820Y-141089502D01*
X136235518Y-141125812D01*
X136360000Y-141138072D01*
X137960000Y-141138072D01*
X138084482Y-141125812D01*
X138204180Y-141089502D01*
X138314494Y-141030537D01*
X138411185Y-140951185D01*
X138490537Y-140854494D01*
X138549502Y-140744180D01*
X138585812Y-140624482D01*
X138598072Y-140500000D01*
X138598072Y-138900000D01*
X138585812Y-138775518D01*
X138549502Y-138655820D01*
X138490537Y-138545506D01*
X138411185Y-138448815D01*
X138314494Y-138369463D01*
X138204180Y-138310498D01*
X138084482Y-138274188D01*
X138076039Y-138273357D01*
X138274637Y-138074759D01*
X138431680Y-137839727D01*
X138539853Y-137578574D01*
X138595000Y-137301335D01*
X138595000Y-137018665D01*
X138539853Y-136741426D01*
X138431680Y-136480273D01*
X138274637Y-136245241D01*
X138074759Y-136045363D01*
X137842241Y-135890000D01*
X138074759Y-135734637D01*
X138274637Y-135534759D01*
X138431680Y-135299727D01*
X138539853Y-135038574D01*
X138595000Y-134761335D01*
X138595000Y-134478665D01*
X138539853Y-134201426D01*
X138431680Y-133940273D01*
X138274637Y-133705241D01*
X138074759Y-133505363D01*
X137842241Y-133350000D01*
X138074759Y-133194637D01*
X138274637Y-132994759D01*
X138431680Y-132759727D01*
X138539853Y-132498574D01*
X138595000Y-132221335D01*
X138595000Y-131938665D01*
X138539853Y-131661426D01*
X138431680Y-131400273D01*
X138274637Y-131165241D01*
X138074759Y-130965363D01*
X137842241Y-130810000D01*
X138074759Y-130654637D01*
X138274637Y-130454759D01*
X138431680Y-130219727D01*
X138539853Y-129958574D01*
X138595000Y-129681335D01*
X138595000Y-129398665D01*
X138539853Y-129121426D01*
X138431680Y-128860273D01*
X138274637Y-128625241D01*
X138074759Y-128425363D01*
X137842241Y-128270000D01*
X138074759Y-128114637D01*
X138274637Y-127914759D01*
X138431680Y-127679727D01*
X138539853Y-127418574D01*
X138595000Y-127141335D01*
X138595000Y-126858665D01*
X138539853Y-126581426D01*
X138431680Y-126320273D01*
X138274637Y-126085241D01*
X138074759Y-125885363D01*
X137842241Y-125730000D01*
X138074759Y-125574637D01*
X138274637Y-125374759D01*
X138431680Y-125139727D01*
X138539853Y-124878574D01*
X138595000Y-124601335D01*
X138595000Y-124318665D01*
X138539853Y-124041426D01*
X138431680Y-123780273D01*
X138274637Y-123545241D01*
X138074759Y-123345363D01*
X137842241Y-123190000D01*
X138074759Y-123034637D01*
X138274637Y-122834759D01*
X138431680Y-122599727D01*
X138539853Y-122338574D01*
X138595000Y-122061335D01*
X138595000Y-121778665D01*
X138539853Y-121501426D01*
X138431680Y-121240273D01*
X138274637Y-121005241D01*
X138074759Y-120805363D01*
X137842241Y-120650000D01*
X138074759Y-120494637D01*
X138274637Y-120294759D01*
X138431680Y-120059727D01*
X138539853Y-119798574D01*
X138595000Y-119521335D01*
X138595000Y-119238665D01*
X138539853Y-118961426D01*
X138431680Y-118700273D01*
X138274637Y-118465241D01*
X138074759Y-118265363D01*
X137842241Y-118110000D01*
X138074759Y-117954637D01*
X138274637Y-117754759D01*
X138431680Y-117519727D01*
X138539853Y-117258574D01*
X138595000Y-116981335D01*
X138595000Y-116698665D01*
X138539853Y-116421426D01*
X138431680Y-116160273D01*
X138274637Y-115925241D01*
X138074759Y-115725363D01*
X137842241Y-115570000D01*
X138074759Y-115414637D01*
X138274637Y-115214759D01*
X138431680Y-114979727D01*
X138539853Y-114718574D01*
X138595000Y-114441335D01*
X138595000Y-114158665D01*
X138539853Y-113881426D01*
X138431680Y-113620273D01*
X138274637Y-113385241D01*
X138074759Y-113185363D01*
X137842241Y-113030000D01*
X138074759Y-112874637D01*
X138274637Y-112674759D01*
X138431680Y-112439727D01*
X138539853Y-112178574D01*
X138595000Y-111901335D01*
X138595000Y-111618665D01*
X138539853Y-111341426D01*
X138431680Y-111080273D01*
X138274637Y-110845241D01*
X138074759Y-110645363D01*
X137842241Y-110490000D01*
X138074759Y-110334637D01*
X138274637Y-110134759D01*
X138431680Y-109899727D01*
X138539853Y-109638574D01*
X138595000Y-109361335D01*
X138595000Y-109078665D01*
X138539853Y-108801426D01*
X138431680Y-108540273D01*
X138274637Y-108305241D01*
X138074759Y-108105363D01*
X137839727Y-107948320D01*
X137829135Y-107943933D01*
X138015131Y-107832385D01*
X138223519Y-107643414D01*
X138391037Y-107417420D01*
X138511246Y-107163087D01*
X138551904Y-107029039D01*
X138429915Y-106807000D01*
X137287000Y-106807000D01*
X137287000Y-106827000D01*
X137033000Y-106827000D01*
X137033000Y-106807000D01*
X135890085Y-106807000D01*
X135768096Y-107029039D01*
X135772648Y-107044048D01*
X135745001Y-107041325D01*
X135707679Y-107045001D01*
X135672147Y-107045001D01*
X135686580Y-106972439D01*
X135686580Y-106768561D01*
X135646806Y-106568602D01*
X135568785Y-106380244D01*
X135535856Y-106330961D01*
X135768096Y-106330961D01*
X135890085Y-106553000D01*
X137033000Y-106553000D01*
X137033000Y-105409376D01*
X137287000Y-105409376D01*
X137287000Y-106553000D01*
X138429915Y-106553000D01*
X138551904Y-106330961D01*
X138511246Y-106196913D01*
X138391037Y-105942580D01*
X138223519Y-105716586D01*
X138015131Y-105527615D01*
X137773881Y-105382930D01*
X137509040Y-105288091D01*
X137287000Y-105409376D01*
X137033000Y-105409376D01*
X136810960Y-105288091D01*
X136546119Y-105382930D01*
X136304869Y-105527615D01*
X136096481Y-105716586D01*
X135928963Y-105942580D01*
X135808754Y-106196913D01*
X135768096Y-106330961D01*
X135535856Y-106330961D01*
X135455517Y-106210726D01*
X135311354Y-106066563D01*
X135141836Y-105953295D01*
X134953478Y-105875274D01*
X134753519Y-105835500D01*
X134549641Y-105835500D01*
X134349682Y-105875274D01*
X134161324Y-105953295D01*
X133991806Y-106066563D01*
X133947869Y-106110500D01*
X127937103Y-106110500D01*
X126733840Y-104907239D01*
X126733840Y-102933724D01*
X126770913Y-102951246D01*
X126904961Y-102991904D01*
X127127000Y-102869915D01*
X127127000Y-101727000D01*
X127107000Y-101727000D01*
X127107000Y-101473000D01*
X127127000Y-101473000D01*
X127127000Y-100330085D01*
X126904961Y-100208096D01*
X126770913Y-100248754D01*
X126733840Y-100266276D01*
X126733840Y-97006913D01*
X126737517Y-96969580D01*
X126722843Y-96820594D01*
X126679386Y-96677333D01*
X126608814Y-96545304D01*
X126537639Y-96458577D01*
X126513841Y-96429579D01*
X126484844Y-96405782D01*
X125349190Y-95270128D01*
X125393727Y-95251680D01*
X125628759Y-95094637D01*
X125628796Y-95094600D01*
X127753841Y-97219645D01*
X127753841Y-100256672D01*
X127737087Y-100248754D01*
X127603039Y-100208096D01*
X127381000Y-100330085D01*
X127381000Y-101473000D01*
X127401000Y-101473000D01*
X127401000Y-101727000D01*
X127381000Y-101727000D01*
X127381000Y-102869915D01*
X127603039Y-102991904D01*
X127737087Y-102951246D01*
X127753840Y-102943328D01*
X127753840Y-104053509D01*
X127709903Y-104097446D01*
X127596635Y-104266964D01*
X127518614Y-104455322D01*
X127478840Y-104655281D01*
X127478840Y-104859159D01*
X127518614Y-105059118D01*
X127596635Y-105247476D01*
X127709903Y-105416994D01*
X127854066Y-105561157D01*
X128023584Y-105674425D01*
X128211942Y-105752446D01*
X128411901Y-105792220D01*
X128615779Y-105792220D01*
X128815738Y-105752446D01*
X129004096Y-105674425D01*
X129173614Y-105561157D01*
X129317777Y-105416994D01*
X129431045Y-105247476D01*
X129509066Y-105059118D01*
X129548840Y-104859159D01*
X129548840Y-104655281D01*
X129509066Y-104455322D01*
X129431045Y-104266964D01*
X129317777Y-104097446D01*
X129273840Y-104053509D01*
X129273840Y-102933724D01*
X129310913Y-102951246D01*
X129444961Y-102991904D01*
X129667000Y-102869915D01*
X129667000Y-101727000D01*
X129647000Y-101727000D01*
X129647000Y-101473000D01*
X129667000Y-101473000D01*
X129667000Y-100330085D01*
X129921000Y-100330085D01*
X129921000Y-101473000D01*
X129941000Y-101473000D01*
X129941000Y-101727000D01*
X129921000Y-101727000D01*
X129921000Y-102869915D01*
X130143039Y-102991904D01*
X130277087Y-102951246D01*
X130531420Y-102831037D01*
X130757414Y-102663519D01*
X130946385Y-102455131D01*
X131057933Y-102269135D01*
X131062320Y-102279727D01*
X131219363Y-102514759D01*
X131419241Y-102714637D01*
X131654273Y-102871680D01*
X131915426Y-102979853D01*
X132192665Y-103035000D01*
X132475335Y-103035000D01*
X132752574Y-102979853D01*
X133013727Y-102871680D01*
X133248759Y-102714637D01*
X133448637Y-102514759D01*
X133605680Y-102279727D01*
X133713853Y-102018574D01*
X133769000Y-101741335D01*
X133769000Y-101458665D01*
X133713853Y-101181426D01*
X133605680Y-100920273D01*
X133448637Y-100685241D01*
X133248759Y-100485363D01*
X133013727Y-100328320D01*
X132752574Y-100220147D01*
X132475335Y-100165000D01*
X132192665Y-100165000D01*
X131915426Y-100220147D01*
X131654273Y-100328320D01*
X131419241Y-100485363D01*
X131219363Y-100685241D01*
X131062320Y-100920273D01*
X131057933Y-100930865D01*
X130946385Y-100744869D01*
X130757414Y-100536481D01*
X130531420Y-100368963D01*
X130277087Y-100248754D01*
X130143039Y-100208096D01*
X129921000Y-100330085D01*
X129667000Y-100330085D01*
X129444961Y-100208096D01*
X129310913Y-100248754D01*
X129273840Y-100266276D01*
X129273840Y-99203540D01*
X129441302Y-99272906D01*
X129641261Y-99312680D01*
X129845139Y-99312680D01*
X130045098Y-99272906D01*
X130233456Y-99194885D01*
X130402974Y-99081617D01*
X130446911Y-99037680D01*
X131069858Y-99037680D01*
X131107180Y-99041356D01*
X131144502Y-99037680D01*
X131144513Y-99037680D01*
X131256166Y-99026683D01*
X131399427Y-98983226D01*
X131531456Y-98912654D01*
X131647181Y-98817681D01*
X131670983Y-98788678D01*
X132845009Y-97614654D01*
X132874001Y-97590861D01*
X132897795Y-97561868D01*
X132897799Y-97561864D01*
X132968973Y-97475137D01*
X132968974Y-97475136D01*
X133039546Y-97343107D01*
X133083003Y-97199846D01*
X133094000Y-97088193D01*
X133094000Y-97088184D01*
X133097676Y-97050861D01*
X133094000Y-97013538D01*
X133094000Y-95418072D01*
X133134000Y-95418072D01*
X133258482Y-95405812D01*
X133378180Y-95369502D01*
X133488494Y-95310537D01*
X133585185Y-95231185D01*
X133664537Y-95134494D01*
X133723502Y-95024180D01*
X133759812Y-94904482D01*
X133772072Y-94780000D01*
X133772072Y-93180000D01*
X133759812Y-93055518D01*
X133723502Y-92935820D01*
X133664537Y-92825506D01*
X133585185Y-92728815D01*
X133488494Y-92649463D01*
X133378180Y-92590498D01*
X133258482Y-92554188D01*
X133134000Y-92541928D01*
X131691701Y-92541928D01*
X131691701Y-91657663D01*
X131928126Y-91755593D01*
X132205365Y-91810740D01*
X132488035Y-91810740D01*
X132765274Y-91755593D01*
X133026427Y-91647420D01*
X133261459Y-91490377D01*
X133461337Y-91290499D01*
X133618380Y-91055467D01*
X133726553Y-90794314D01*
X133781700Y-90517075D01*
X133781700Y-90234405D01*
X133726553Y-89957166D01*
X133618380Y-89696013D01*
X133461337Y-89460981D01*
X133261459Y-89261103D01*
X133026427Y-89104060D01*
X132765274Y-88995887D01*
X132488035Y-88940740D01*
X132205365Y-88940740D01*
X131928126Y-88995887D01*
X131666973Y-89104060D01*
X131431941Y-89261103D01*
X131431904Y-89261140D01*
X126811504Y-84640741D01*
X133369379Y-84640741D01*
X133406701Y-84644417D01*
X133444023Y-84640741D01*
X133444034Y-84640741D01*
X133555687Y-84629744D01*
X133698948Y-84586287D01*
X133830977Y-84515715D01*
X133946702Y-84420742D01*
X133970505Y-84391738D01*
X133982698Y-84379545D01*
X134011702Y-84355742D01*
X134106675Y-84240017D01*
X134177247Y-84107988D01*
X134220704Y-83964727D01*
X134231701Y-83853074D01*
X134231701Y-83853063D01*
X134235377Y-83815741D01*
X134231701Y-83778418D01*
X134231701Y-81733061D01*
X134235377Y-81695738D01*
X134231701Y-81658415D01*
X134231701Y-81658406D01*
X134220704Y-81546753D01*
X134177247Y-81403492D01*
X134142504Y-81338493D01*
X134106675Y-81271462D01*
X134035500Y-81184736D01*
X134011702Y-81155738D01*
X133982704Y-81131941D01*
X133520494Y-80669731D01*
X133496692Y-80640728D01*
X133380967Y-80545755D01*
X133248938Y-80475183D01*
X133105677Y-80431726D01*
X132994024Y-80420729D01*
X132994013Y-80420729D01*
X132956691Y-80417053D01*
X132919369Y-80420729D01*
X132902905Y-80420729D01*
X133044207Y-80362200D01*
X133279239Y-80205157D01*
X133479117Y-80005279D01*
X133636160Y-79770247D01*
X133744333Y-79509094D01*
X133799480Y-79231855D01*
X133799480Y-78949185D01*
X133744333Y-78671946D01*
X133636160Y-78410793D01*
X133479117Y-78175761D01*
X133279239Y-77975883D01*
X133044207Y-77818840D01*
X132783054Y-77710667D01*
X132505815Y-77655520D01*
X132223145Y-77655520D01*
X131945906Y-77710667D01*
X131684753Y-77818840D01*
X131449721Y-77975883D01*
X131249843Y-78175761D01*
X131092800Y-78410793D01*
X131088413Y-78421385D01*
X130976865Y-78235389D01*
X130787894Y-78027001D01*
X130561900Y-77859483D01*
X130307567Y-77739274D01*
X130173519Y-77698616D01*
X129951480Y-77820605D01*
X129951480Y-78963520D01*
X129971480Y-78963520D01*
X129971480Y-79217520D01*
X129951480Y-79217520D01*
X129951480Y-79237520D01*
X129697480Y-79237520D01*
X129697480Y-79217520D01*
X129677480Y-79217520D01*
X129677480Y-78963520D01*
X129697480Y-78963520D01*
X129697480Y-77820605D01*
X129475441Y-77698616D01*
X129341393Y-77739274D01*
X129087060Y-77859483D01*
X128918323Y-77984559D01*
X128142267Y-77208503D01*
X128118464Y-77179500D01*
X128002739Y-77084527D01*
X127870710Y-77013955D01*
X127727449Y-76970498D01*
X127615796Y-76959501D01*
X127615785Y-76959501D01*
X127578463Y-76955825D01*
X127541141Y-76959501D01*
X127392416Y-76959501D01*
X127573678Y-76923446D01*
X127762036Y-76845425D01*
X127931554Y-76732157D01*
X128075717Y-76587994D01*
X128188985Y-76418476D01*
X128267006Y-76230118D01*
X128306780Y-76030159D01*
X128306780Y-75826281D01*
X128267006Y-75626322D01*
X128188985Y-75437964D01*
X128075717Y-75268446D01*
X127931554Y-75124283D01*
X127762036Y-75011015D01*
X127573678Y-74932994D01*
X127459515Y-74910286D01*
X129500594Y-72869208D01*
X129683145Y-72905520D01*
X129965815Y-72905520D01*
X130243054Y-72850373D01*
X130504207Y-72742200D01*
X130739239Y-72585157D01*
X130937837Y-72386559D01*
X130938668Y-72395002D01*
X130974978Y-72514700D01*
X131033943Y-72625014D01*
X131113295Y-72721705D01*
X131209986Y-72801057D01*
X131320300Y-72860022D01*
X131439998Y-72896332D01*
X131564480Y-72908592D01*
X133164480Y-72908592D01*
X133288962Y-72896332D01*
X133408660Y-72860022D01*
X133518974Y-72801057D01*
X133615665Y-72721705D01*
X133695017Y-72625014D01*
X133753982Y-72514700D01*
X133790292Y-72395002D01*
X133802552Y-72270520D01*
X133802552Y-70670520D01*
X133790292Y-70546038D01*
X133753982Y-70426340D01*
X133695017Y-70316026D01*
X133615665Y-70219335D01*
X133518974Y-70139983D01*
X133408660Y-70081018D01*
X133288962Y-70044708D01*
X133164480Y-70032448D01*
X131564480Y-70032448D01*
X131439998Y-70044708D01*
X131320300Y-70081018D01*
X131209986Y-70139983D01*
X131113295Y-70219335D01*
X131033943Y-70316026D01*
X130974978Y-70426340D01*
X130938668Y-70546038D01*
X130937837Y-70554481D01*
X130739239Y-70355883D01*
X130504207Y-70198840D01*
X130243054Y-70090667D01*
X129965815Y-70035520D01*
X129683145Y-70035520D01*
X129405906Y-70090667D01*
X129144753Y-70198840D01*
X128909721Y-70355883D01*
X128709843Y-70555761D01*
X128554480Y-70788279D01*
X128399117Y-70555761D01*
X128199239Y-70355883D01*
X127964207Y-70198840D01*
X127703054Y-70090667D01*
X127425815Y-70035520D01*
X127143145Y-70035520D01*
X126865906Y-70090667D01*
X126604753Y-70198840D01*
X126369721Y-70355883D01*
X126169843Y-70555761D01*
X126014480Y-70788279D01*
X125859117Y-70555761D01*
X125659239Y-70355883D01*
X125424207Y-70198840D01*
X125163054Y-70090667D01*
X124885815Y-70035520D01*
X124603145Y-70035520D01*
X124325906Y-70090667D01*
X124064753Y-70198840D01*
X123829721Y-70355883D01*
X123629843Y-70555761D01*
X123474480Y-70788279D01*
X123319117Y-70555761D01*
X123119239Y-70355883D01*
X122884207Y-70198840D01*
X122623054Y-70090667D01*
X122345815Y-70035520D01*
X122063145Y-70035520D01*
X121785906Y-70090667D01*
X121524753Y-70198840D01*
X121289721Y-70355883D01*
X121089843Y-70555761D01*
X120934480Y-70788279D01*
X120779117Y-70555761D01*
X120579239Y-70355883D01*
X120344207Y-70198840D01*
X120083054Y-70090667D01*
X119805815Y-70035520D01*
X119523145Y-70035520D01*
X119245906Y-70090667D01*
X118984753Y-70198840D01*
X118749721Y-70355883D01*
X118549843Y-70555761D01*
X118392800Y-70790793D01*
X118388413Y-70801385D01*
X118276865Y-70615389D01*
X118087894Y-70407001D01*
X117861900Y-70239483D01*
X117607567Y-70119274D01*
X117473519Y-70078616D01*
X117251480Y-70200605D01*
X117251480Y-71343520D01*
X117271480Y-71343520D01*
X117271480Y-71597520D01*
X117251480Y-71597520D01*
X117251480Y-72740435D01*
X117473519Y-72862424D01*
X117607567Y-72821766D01*
X117861900Y-72701557D01*
X118087894Y-72534039D01*
X118276865Y-72325651D01*
X118388413Y-72139655D01*
X118392800Y-72150247D01*
X118549843Y-72385279D01*
X118749721Y-72585157D01*
X118984753Y-72742200D01*
X119245906Y-72850373D01*
X119523145Y-72905520D01*
X119694679Y-72905520D01*
X118481898Y-74118301D01*
X118419760Y-74118301D01*
X118219801Y-74158075D01*
X118031443Y-74236096D01*
X117861925Y-74349364D01*
X117717762Y-74493527D01*
X117604494Y-74663045D01*
X117526473Y-74851403D01*
X117486699Y-75051362D01*
X117486699Y-75118302D01*
X117341104Y-75118302D01*
X116726920Y-74504119D01*
X116726920Y-74452141D01*
X116687146Y-74252182D01*
X116609125Y-74063824D01*
X116495857Y-73894306D01*
X116351694Y-73750143D01*
X116182176Y-73636875D01*
X115993818Y-73558854D01*
X115793859Y-73519080D01*
X115589981Y-73519080D01*
X115390022Y-73558854D01*
X115201664Y-73636875D01*
X115032146Y-73750143D01*
X114887983Y-73894306D01*
X114774715Y-74063824D01*
X114696694Y-74252182D01*
X114656920Y-74452141D01*
X114656920Y-74656019D01*
X114696694Y-74855978D01*
X114774715Y-75044336D01*
X114887983Y-75213854D01*
X115032146Y-75358017D01*
X115201664Y-75471285D01*
X115390022Y-75549306D01*
X115589981Y-75589080D01*
X115662279Y-75589080D01*
X116462503Y-76389305D01*
X116486301Y-76418303D01*
X116515299Y-76442101D01*
X116602025Y-76513276D01*
X116611290Y-76518228D01*
X116574620Y-76702581D01*
X116574620Y-76717227D01*
X116539187Y-76724275D01*
X116350829Y-76802296D01*
X116181311Y-76915564D01*
X116037148Y-77059727D01*
X115923880Y-77229245D01*
X115845859Y-77417603D01*
X115806085Y-77617562D01*
X115806085Y-77821440D01*
X115845859Y-78021399D01*
X115923880Y-78209757D01*
X115955504Y-78257086D01*
X115852800Y-78410793D01*
X115744627Y-78671946D01*
X115689480Y-78949185D01*
X115689480Y-79231855D01*
X115744627Y-79509094D01*
X115852800Y-79770247D01*
X116009843Y-80005279D01*
X116209721Y-80205157D01*
X116444753Y-80362200D01*
X116705906Y-80470373D01*
X116983145Y-80525520D01*
X117265815Y-80525520D01*
X117543054Y-80470373D01*
X117804207Y-80362200D01*
X118039239Y-80205157D01*
X118239117Y-80005279D01*
X118396160Y-79770247D01*
X118400547Y-79759655D01*
X118512095Y-79945651D01*
X118701066Y-80154039D01*
X118927060Y-80321557D01*
X119181393Y-80441766D01*
X119315441Y-80482424D01*
X119537480Y-80360435D01*
X119537480Y-79217520D01*
X119517480Y-79217520D01*
X119517480Y-78963520D01*
X119537480Y-78963520D01*
X119537480Y-78943520D01*
X119791480Y-78943520D01*
X119791480Y-78963520D01*
X119811480Y-78963520D01*
X119811480Y-79217520D01*
X119791480Y-79217520D01*
X119791480Y-80360435D01*
X120013519Y-80482424D01*
X120147567Y-80441766D01*
X120401900Y-80321557D01*
X120627894Y-80154039D01*
X120816865Y-79945651D01*
X120928413Y-79759655D01*
X120932800Y-79770247D01*
X121089843Y-80005279D01*
X121289721Y-80205157D01*
X121524753Y-80362200D01*
X121785906Y-80470373D01*
X122063145Y-80525520D01*
X122345815Y-80525520D01*
X122623054Y-80470373D01*
X122884207Y-80362200D01*
X123119239Y-80205157D01*
X123319117Y-80005279D01*
X123476160Y-79770247D01*
X123480547Y-79759655D01*
X123592095Y-79945651D01*
X123781066Y-80154039D01*
X124007060Y-80321557D01*
X124261393Y-80441766D01*
X124395441Y-80482424D01*
X124617480Y-80360435D01*
X124617480Y-79217520D01*
X124597480Y-79217520D01*
X124597480Y-78963520D01*
X124617480Y-78963520D01*
X124617480Y-78943520D01*
X124871480Y-78943520D01*
X124871480Y-78963520D01*
X124891480Y-78963520D01*
X124891480Y-79217520D01*
X124871480Y-79217520D01*
X124871480Y-80360435D01*
X125093519Y-80482424D01*
X125227567Y-80441766D01*
X125481900Y-80321557D01*
X125707894Y-80154039D01*
X125896865Y-79945651D01*
X126008413Y-79759655D01*
X126012800Y-79770247D01*
X126169843Y-80005279D01*
X126369721Y-80205157D01*
X126604753Y-80362200D01*
X126865906Y-80470373D01*
X127143145Y-80525520D01*
X127425815Y-80525520D01*
X127703054Y-80470373D01*
X127964207Y-80362200D01*
X128199239Y-80205157D01*
X128199276Y-80205120D01*
X128864896Y-80870739D01*
X120809026Y-80870739D01*
X120771701Y-80867063D01*
X120734376Y-80870739D01*
X120734368Y-80870739D01*
X120622715Y-80881736D01*
X120479454Y-80925193D01*
X120347425Y-80995765D01*
X120231700Y-81090738D01*
X120207902Y-81119736D01*
X119970586Y-81357052D01*
X119788035Y-81320740D01*
X119505365Y-81320740D01*
X119228126Y-81375887D01*
X118966973Y-81484060D01*
X118731941Y-81641103D01*
X118532063Y-81840981D01*
X118375020Y-82076013D01*
X118370633Y-82086605D01*
X118259085Y-81900609D01*
X118070114Y-81692221D01*
X117844120Y-81524703D01*
X117589787Y-81404494D01*
X117455739Y-81363836D01*
X117233700Y-81485825D01*
X117233700Y-82628740D01*
X117253700Y-82628740D01*
X117253700Y-82882740D01*
X117233700Y-82882740D01*
X117233700Y-84025655D01*
X117455739Y-84147644D01*
X117589787Y-84106986D01*
X117844120Y-83986777D01*
X118070114Y-83819259D01*
X118259085Y-83610871D01*
X118370633Y-83424875D01*
X118375020Y-83435467D01*
X118532063Y-83670499D01*
X118731941Y-83870377D01*
X118966973Y-84027420D01*
X119228126Y-84135593D01*
X119505365Y-84190740D01*
X119788035Y-84190740D01*
X120065274Y-84135593D01*
X120326427Y-84027420D01*
X120561459Y-83870377D01*
X120761337Y-83670499D01*
X120916700Y-83437981D01*
X121072063Y-83670499D01*
X121271941Y-83870377D01*
X121381809Y-83943788D01*
X119980279Y-85345320D01*
X119918141Y-85345320D01*
X119718182Y-85385094D01*
X119529824Y-85463115D01*
X119360306Y-85576383D01*
X119216143Y-85720546D01*
X119102875Y-85890064D01*
X119024854Y-86078422D01*
X118985080Y-86278381D01*
X118985080Y-86482259D01*
X119024854Y-86682218D01*
X119102875Y-86870576D01*
X119216143Y-87040094D01*
X119360306Y-87184257D01*
X119529824Y-87297525D01*
X119718182Y-87375546D01*
X119918141Y-87415320D01*
X120122019Y-87415320D01*
X120321978Y-87375546D01*
X120510336Y-87297525D01*
X120679854Y-87184257D01*
X120824017Y-87040094D01*
X120937285Y-86870576D01*
X121015306Y-86682218D01*
X121055080Y-86482259D01*
X121055080Y-86420121D01*
X122697709Y-84777494D01*
X122726701Y-84753701D01*
X122750495Y-84724708D01*
X122750499Y-84724704D01*
X122821673Y-84637977D01*
X122821674Y-84637976D01*
X122887147Y-84515487D01*
X122887425Y-84515715D01*
X123019454Y-84586287D01*
X123162715Y-84629744D01*
X123274368Y-84640741D01*
X123274376Y-84640741D01*
X123311701Y-84644417D01*
X123349026Y-84640741D01*
X123939803Y-84640741D01*
X123835786Y-84710243D01*
X123691623Y-84854406D01*
X123578355Y-85023924D01*
X123500334Y-85212282D01*
X123460560Y-85412241D01*
X123460560Y-85616119D01*
X123500334Y-85816078D01*
X123578355Y-86004436D01*
X123691623Y-86173954D01*
X123835786Y-86318117D01*
X124005304Y-86431385D01*
X124193662Y-86509406D01*
X124393621Y-86549180D01*
X124455759Y-86549180D01*
X126506700Y-88600122D01*
X126506700Y-89157696D01*
X126351941Y-89261103D01*
X126152063Y-89460981D01*
X125996700Y-89693499D01*
X125841337Y-89460981D01*
X125641459Y-89261103D01*
X125406427Y-89104060D01*
X125145274Y-88995887D01*
X124868035Y-88940740D01*
X124585365Y-88940740D01*
X124308126Y-88995887D01*
X124046973Y-89104060D01*
X123811941Y-89261103D01*
X123612063Y-89460981D01*
X123456700Y-89693499D01*
X123301337Y-89460981D01*
X123101459Y-89261103D01*
X122866427Y-89104060D01*
X122605274Y-88995887D01*
X122328035Y-88940740D01*
X122045365Y-88940740D01*
X121768126Y-88995887D01*
X121506973Y-89104060D01*
X121279389Y-89256127D01*
X117618460Y-85595199D01*
X117618460Y-85533061D01*
X117578686Y-85333102D01*
X117500665Y-85144744D01*
X117387397Y-84975226D01*
X117243234Y-84831063D01*
X117073716Y-84717795D01*
X116885358Y-84639774D01*
X116685399Y-84600000D01*
X116481521Y-84600000D01*
X116281562Y-84639774D01*
X116093204Y-84717795D01*
X115923686Y-84831063D01*
X115779523Y-84975226D01*
X115666255Y-85144744D01*
X115588234Y-85333102D01*
X115548460Y-85533061D01*
X115548460Y-85736939D01*
X115588234Y-85936898D01*
X115666255Y-86125256D01*
X115779523Y-86294774D01*
X115923686Y-86438937D01*
X116093204Y-86552205D01*
X116281562Y-86630226D01*
X116481521Y-86670000D01*
X116543659Y-86670000D01*
X118974571Y-89100913D01*
X118966973Y-89104060D01*
X118731941Y-89261103D01*
X118532063Y-89460981D01*
X118376700Y-89693499D01*
X118221337Y-89460981D01*
X118021459Y-89261103D01*
X117786427Y-89104060D01*
X117525274Y-88995887D01*
X117248035Y-88940740D01*
X116965365Y-88940740D01*
X116688126Y-88995887D01*
X116426973Y-89104060D01*
X116191941Y-89261103D01*
X115992063Y-89460981D01*
X115835020Y-89696013D01*
X115726847Y-89957166D01*
X115671700Y-90234405D01*
X115671700Y-90517075D01*
X115726847Y-90794314D01*
X115835020Y-91055467D01*
X115992063Y-91290499D01*
X116191941Y-91490377D01*
X116426973Y-91647420D01*
X116688126Y-91755593D01*
X116965365Y-91810740D01*
X117248035Y-91810740D01*
X117525274Y-91755593D01*
X117786427Y-91647420D01*
X117849486Y-91605285D01*
X118953222Y-92709022D01*
X118719241Y-92865363D01*
X118519363Y-93065241D01*
X118362320Y-93300273D01*
X118357933Y-93310865D01*
X118246385Y-93124869D01*
X118057414Y-92916481D01*
X117831420Y-92748963D01*
X117577087Y-92628754D01*
X117443039Y-92588096D01*
X117221000Y-92710085D01*
X117221000Y-93853000D01*
X117241000Y-93853000D01*
X117241000Y-94107000D01*
X117221000Y-94107000D01*
X117221000Y-95249915D01*
X117443039Y-95371904D01*
X117577087Y-95331246D01*
X117831420Y-95211037D01*
X118057414Y-95043519D01*
X118246385Y-94835131D01*
X118357933Y-94649135D01*
X118362320Y-94659727D01*
X118519363Y-94894759D01*
X118719241Y-95094637D01*
X118954273Y-95251680D01*
X119215426Y-95359853D01*
X119492665Y-95415000D01*
X119775335Y-95415000D01*
X119999001Y-95370509D01*
X119999001Y-95430898D01*
X119995325Y-95468221D01*
X119999001Y-95505543D01*
X119999001Y-95505553D01*
X120009998Y-95617206D01*
X120053216Y-95759680D01*
X120053455Y-95760467D01*
X120124027Y-95892497D01*
X120163872Y-95941047D01*
X120219000Y-96008222D01*
X120248004Y-96032025D01*
X120586160Y-96370181D01*
X120485526Y-96437423D01*
X120461909Y-96461040D01*
X115557431Y-96461040D01*
X115513494Y-96417103D01*
X115343976Y-96303835D01*
X115155618Y-96225814D01*
X114955659Y-96186040D01*
X114751781Y-96186040D01*
X114551822Y-96225814D01*
X114363464Y-96303835D01*
X114193946Y-96417103D01*
X114049783Y-96561266D01*
X113936515Y-96730784D01*
X113858494Y-96919142D01*
X113818720Y-97119101D01*
X113818720Y-97322979D01*
X113858494Y-97522938D01*
X113936515Y-97711296D01*
X114049783Y-97880814D01*
X114193946Y-98024977D01*
X114363464Y-98138245D01*
X114551822Y-98216266D01*
X114751781Y-98256040D01*
X114955659Y-98256040D01*
X115155618Y-98216266D01*
X115343976Y-98138245D01*
X115513494Y-98024977D01*
X115557431Y-97981040D01*
X120421269Y-97981040D01*
X120485526Y-98045297D01*
X120655044Y-98158565D01*
X120843402Y-98236586D01*
X121043361Y-98276360D01*
X121247239Y-98276360D01*
X121447198Y-98236586D01*
X121635556Y-98158565D01*
X121805074Y-98045297D01*
X121949237Y-97901134D01*
X122016478Y-97800500D01*
X122650981Y-98435003D01*
X122650981Y-100246902D01*
X122523039Y-100208096D01*
X122301000Y-100330085D01*
X122301000Y-101473000D01*
X122321000Y-101473000D01*
X122321000Y-101727000D01*
X122301000Y-101727000D01*
X122301000Y-102869915D01*
X122523039Y-102991904D01*
X122650980Y-102953098D01*
X122650980Y-104363389D01*
X122607043Y-104407326D01*
X122493775Y-104576844D01*
X122415754Y-104765202D01*
X122375980Y-104965161D01*
X122375980Y-105169039D01*
X122407759Y-105328804D01*
X122338574Y-105300147D01*
X122061335Y-105245000D01*
X121778665Y-105245000D01*
X121501426Y-105300147D01*
X121240273Y-105408320D01*
X121005241Y-105565363D01*
X120805363Y-105765241D01*
X120648320Y-106000273D01*
X120540147Y-106261426D01*
X120485000Y-106538665D01*
X120485000Y-106821335D01*
X120521312Y-107003887D01*
X120480198Y-107045001D01*
X119497063Y-107045001D01*
X119501904Y-107029039D01*
X119379915Y-106807000D01*
X118237000Y-106807000D01*
X118237000Y-106827000D01*
X117983000Y-106827000D01*
X117983000Y-106807000D01*
X116840085Y-106807000D01*
X116718096Y-107029039D01*
X116722937Y-107045001D01*
X115015088Y-107045001D01*
X115041226Y-106981898D01*
X115081000Y-106781939D01*
X115081000Y-106578061D01*
X115041226Y-106378102D01*
X115021700Y-106330961D01*
X116718096Y-106330961D01*
X116840085Y-106553000D01*
X117983000Y-106553000D01*
X117983000Y-105409376D01*
X118237000Y-105409376D01*
X118237000Y-106553000D01*
X119379915Y-106553000D01*
X119501904Y-106330961D01*
X119461246Y-106196913D01*
X119341037Y-105942580D01*
X119173519Y-105716586D01*
X118965131Y-105527615D01*
X118723881Y-105382930D01*
X118459040Y-105288091D01*
X118237000Y-105409376D01*
X117983000Y-105409376D01*
X117760960Y-105288091D01*
X117496119Y-105382930D01*
X117254869Y-105527615D01*
X117046481Y-105716586D01*
X116878963Y-105942580D01*
X116758754Y-106196913D01*
X116718096Y-106330961D01*
X115021700Y-106330961D01*
X114963205Y-106189744D01*
X114849937Y-106020226D01*
X114705774Y-105876063D01*
X114536256Y-105762795D01*
X114347898Y-105684774D01*
X114147939Y-105645000D01*
X114085802Y-105645000D01*
X111307804Y-102867003D01*
X111284001Y-102837999D01*
X111168276Y-102743026D01*
X111036247Y-102672454D01*
X110892986Y-102628997D01*
X110781333Y-102618000D01*
X110781322Y-102618000D01*
X110744000Y-102614324D01*
X110706678Y-102618000D01*
X102752020Y-102618000D01*
X102752020Y-101966665D01*
X111595000Y-101966665D01*
X111595000Y-102249335D01*
X111650147Y-102526574D01*
X111758320Y-102787727D01*
X111915363Y-103022759D01*
X112115241Y-103222637D01*
X112350273Y-103379680D01*
X112611426Y-103487853D01*
X112888665Y-103543000D01*
X113171335Y-103543000D01*
X113448574Y-103487853D01*
X113709727Y-103379680D01*
X113944759Y-103222637D01*
X114144637Y-103022759D01*
X114301680Y-102787727D01*
X114409853Y-102526574D01*
X114465000Y-102249335D01*
X114465000Y-101966665D01*
X114409853Y-101689426D01*
X114314269Y-101458665D01*
X115659000Y-101458665D01*
X115659000Y-101741335D01*
X115714147Y-102018574D01*
X115822320Y-102279727D01*
X115979363Y-102514759D01*
X116179241Y-102714637D01*
X116414273Y-102871680D01*
X116675426Y-102979853D01*
X116952665Y-103035000D01*
X117235335Y-103035000D01*
X117512574Y-102979853D01*
X117773727Y-102871680D01*
X118008759Y-102714637D01*
X118208637Y-102514759D01*
X118365680Y-102279727D01*
X118370067Y-102269135D01*
X118481615Y-102455131D01*
X118670586Y-102663519D01*
X118896580Y-102831037D01*
X119150913Y-102951246D01*
X119284961Y-102991904D01*
X119507000Y-102869915D01*
X119507000Y-101727000D01*
X119761000Y-101727000D01*
X119761000Y-102869915D01*
X119983039Y-102991904D01*
X120117087Y-102951246D01*
X120371420Y-102831037D01*
X120597414Y-102663519D01*
X120786385Y-102455131D01*
X120904000Y-102259018D01*
X121021615Y-102455131D01*
X121210586Y-102663519D01*
X121436580Y-102831037D01*
X121690913Y-102951246D01*
X121824961Y-102991904D01*
X122047000Y-102869915D01*
X122047000Y-101727000D01*
X119761000Y-101727000D01*
X119507000Y-101727000D01*
X119487000Y-101727000D01*
X119487000Y-101473000D01*
X119507000Y-101473000D01*
X119507000Y-100330085D01*
X119761000Y-100330085D01*
X119761000Y-101473000D01*
X122047000Y-101473000D01*
X122047000Y-100330085D01*
X121824961Y-100208096D01*
X121690913Y-100248754D01*
X121436580Y-100368963D01*
X121210586Y-100536481D01*
X121021615Y-100744869D01*
X120904000Y-100940982D01*
X120786385Y-100744869D01*
X120597414Y-100536481D01*
X120371420Y-100368963D01*
X120117087Y-100248754D01*
X119983039Y-100208096D01*
X119761000Y-100330085D01*
X119507000Y-100330085D01*
X119284961Y-100208096D01*
X119150913Y-100248754D01*
X118896580Y-100368963D01*
X118670586Y-100536481D01*
X118481615Y-100744869D01*
X118370067Y-100930865D01*
X118365680Y-100920273D01*
X118208637Y-100685241D01*
X118008759Y-100485363D01*
X117773727Y-100328320D01*
X117512574Y-100220147D01*
X117235335Y-100165000D01*
X116952665Y-100165000D01*
X116675426Y-100220147D01*
X116414273Y-100328320D01*
X116179241Y-100485363D01*
X115979363Y-100685241D01*
X115822320Y-100920273D01*
X115714147Y-101181426D01*
X115659000Y-101458665D01*
X114314269Y-101458665D01*
X114301680Y-101428273D01*
X114144637Y-101193241D01*
X113944759Y-100993363D01*
X113709727Y-100836320D01*
X113448574Y-100728147D01*
X113171335Y-100673000D01*
X112888665Y-100673000D01*
X112611426Y-100728147D01*
X112350273Y-100836320D01*
X112115241Y-100993363D01*
X111915363Y-101193241D01*
X111758320Y-101428273D01*
X111650147Y-101689426D01*
X111595000Y-101966665D01*
X102752020Y-101966665D01*
X102752020Y-94346665D01*
X111595000Y-94346665D01*
X111595000Y-94629335D01*
X111650147Y-94906574D01*
X111758320Y-95167727D01*
X111915363Y-95402759D01*
X112115241Y-95602637D01*
X112350273Y-95759680D01*
X112611426Y-95867853D01*
X112888665Y-95923000D01*
X113171335Y-95923000D01*
X113448574Y-95867853D01*
X113709727Y-95759680D01*
X113944759Y-95602637D01*
X114144637Y-95402759D01*
X114301680Y-95167727D01*
X114409853Y-94906574D01*
X114465000Y-94629335D01*
X114465000Y-94346665D01*
X114461495Y-94329040D01*
X115702091Y-94329040D01*
X115796930Y-94593881D01*
X115941615Y-94835131D01*
X116130586Y-95043519D01*
X116356580Y-95211037D01*
X116610913Y-95331246D01*
X116744961Y-95371904D01*
X116967000Y-95249915D01*
X116967000Y-94107000D01*
X115823376Y-94107000D01*
X115702091Y-94329040D01*
X114461495Y-94329040D01*
X114409853Y-94069426D01*
X114301680Y-93808273D01*
X114183204Y-93630960D01*
X115702091Y-93630960D01*
X115823376Y-93853000D01*
X116967000Y-93853000D01*
X116967000Y-92710085D01*
X116744961Y-92588096D01*
X116610913Y-92628754D01*
X116356580Y-92748963D01*
X116130586Y-92916481D01*
X115941615Y-93124869D01*
X115796930Y-93366119D01*
X115702091Y-93630960D01*
X114183204Y-93630960D01*
X114144637Y-93573241D01*
X113944759Y-93373363D01*
X113709727Y-93216320D01*
X113448574Y-93108147D01*
X113171335Y-93053000D01*
X112888665Y-93053000D01*
X112611426Y-93108147D01*
X112350273Y-93216320D01*
X112115241Y-93373363D01*
X111915363Y-93573241D01*
X111758320Y-93808273D01*
X111650147Y-94069426D01*
X111595000Y-94346665D01*
X102752020Y-94346665D01*
X102752020Y-83104780D01*
X115714791Y-83104780D01*
X115809630Y-83369621D01*
X115954315Y-83610871D01*
X116143286Y-83819259D01*
X116369280Y-83986777D01*
X116623613Y-84106986D01*
X116757661Y-84147644D01*
X116979700Y-84025655D01*
X116979700Y-82882740D01*
X115836076Y-82882740D01*
X115714791Y-83104780D01*
X102752020Y-83104780D01*
X102752020Y-82406700D01*
X115714791Y-82406700D01*
X115836076Y-82628740D01*
X116979700Y-82628740D01*
X116979700Y-81485825D01*
X116757661Y-81363836D01*
X116623613Y-81404494D01*
X116369280Y-81524703D01*
X116143286Y-81692221D01*
X115954315Y-81900609D01*
X115809630Y-82141859D01*
X115714791Y-82406700D01*
X102752020Y-82406700D01*
X102752020Y-63929343D01*
X102755696Y-63892020D01*
X102752020Y-63854697D01*
X102752020Y-63854687D01*
X102741023Y-63743034D01*
X102697566Y-63599773D01*
X102678578Y-63564250D01*
X102626994Y-63467743D01*
X102555819Y-63381017D01*
X102532021Y-63352019D01*
X102503024Y-63328222D01*
X97961209Y-58786408D01*
X97964663Y-58769040D01*
X105796091Y-58769040D01*
X105890930Y-59033881D01*
X106035615Y-59275131D01*
X106224586Y-59483519D01*
X106450580Y-59651037D01*
X106704913Y-59771246D01*
X106838961Y-59811904D01*
X107061000Y-59689915D01*
X107061000Y-58547000D01*
X105917376Y-58547000D01*
X105796091Y-58769040D01*
X97964663Y-58769040D01*
X98005000Y-58566260D01*
X98005000Y-58273740D01*
X97964665Y-58070960D01*
X105796091Y-58070960D01*
X105917376Y-58293000D01*
X107061000Y-58293000D01*
X107061000Y-57150085D01*
X106838961Y-57028096D01*
X106704913Y-57068754D01*
X106450580Y-57188963D01*
X106224586Y-57356481D01*
X106035615Y-57564869D01*
X105890930Y-57806119D01*
X105796091Y-58070960D01*
X97964665Y-58070960D01*
X97947932Y-57986842D01*
X97835990Y-57716589D01*
X97673475Y-57473368D01*
X97466632Y-57266525D01*
X97292240Y-57150000D01*
X97466632Y-57033475D01*
X97673475Y-56826632D01*
X97835990Y-56583411D01*
X97947932Y-56313158D01*
X98005000Y-56026260D01*
X98005000Y-55733740D01*
X97947932Y-55446842D01*
X97835990Y-55176589D01*
X97673475Y-54933368D01*
X97466632Y-54726525D01*
X97292240Y-54610000D01*
X97466632Y-54493475D01*
X97673475Y-54286632D01*
X97835990Y-54043411D01*
X97947932Y-53773158D01*
X98005000Y-53486260D01*
X98005000Y-53193740D01*
X97947932Y-52906842D01*
X97835990Y-52636589D01*
X97673475Y-52393368D01*
X97466632Y-52186525D01*
X97292240Y-52070000D01*
X97466632Y-51953475D01*
X97673475Y-51746632D01*
X97835990Y-51503411D01*
X97947932Y-51233158D01*
X98005000Y-50946260D01*
X98005000Y-50653740D01*
X97947932Y-50366842D01*
X97835990Y-50096589D01*
X97673475Y-49853368D01*
X97466632Y-49646525D01*
X97284466Y-49524805D01*
X97401355Y-49455178D01*
X97617588Y-49260269D01*
X97791641Y-49026920D01*
X97916825Y-48764099D01*
X97961476Y-48616890D01*
X97840155Y-48387000D01*
X96647000Y-48387000D01*
X96647000Y-48407000D01*
X96393000Y-48407000D01*
X96393000Y-48387000D01*
X95199845Y-48387000D01*
X95078524Y-48616890D01*
X95123175Y-48764099D01*
X95248359Y-49026920D01*
X95422412Y-49260269D01*
X95638645Y-49455178D01*
X95755534Y-49524805D01*
X95573368Y-49646525D01*
X95366525Y-49853368D01*
X95204010Y-50096589D01*
X95092068Y-50366842D01*
X95035000Y-50653740D01*
X95035000Y-50946260D01*
X95092068Y-51233158D01*
X95204010Y-51503411D01*
X95366525Y-51746632D01*
X95573368Y-51953475D01*
X95747760Y-52070000D01*
X95573368Y-52186525D01*
X95366525Y-52393368D01*
X95204010Y-52636589D01*
X95092068Y-52906842D01*
X95035000Y-53193740D01*
X95035000Y-53486260D01*
X95092068Y-53773158D01*
X95204010Y-54043411D01*
X95366525Y-54286632D01*
X95573368Y-54493475D01*
X95747760Y-54610000D01*
X95573368Y-54726525D01*
X95366525Y-54933368D01*
X95204010Y-55176589D01*
X95092068Y-55446842D01*
X95035000Y-55733740D01*
X95035000Y-56026260D01*
X95092068Y-56313158D01*
X95204010Y-56583411D01*
X95366525Y-56826632D01*
X95573368Y-57033475D01*
X95747760Y-57150000D01*
X95573368Y-57266525D01*
X95366525Y-57473368D01*
X95204010Y-57716589D01*
X95092068Y-57986842D01*
X95035000Y-58273740D01*
X95035000Y-58566260D01*
X95092068Y-58853158D01*
X95204010Y-59123411D01*
X95366525Y-59366632D01*
X95573368Y-59573475D01*
X95747760Y-59690000D01*
X95573368Y-59806525D01*
X95366525Y-60013368D01*
X95204010Y-60256589D01*
X95092068Y-60526842D01*
X95035000Y-60813740D01*
X95035000Y-61106260D01*
X95092068Y-61393158D01*
X95204010Y-61663411D01*
X95366525Y-61906632D01*
X95573368Y-62113475D01*
X95747760Y-62230000D01*
X95573368Y-62346525D01*
X95366525Y-62553368D01*
X95204010Y-62796589D01*
X95092068Y-63066842D01*
X95035000Y-63353740D01*
X95035000Y-63646260D01*
X95092068Y-63933158D01*
X95204010Y-64203411D01*
X95366525Y-64446632D01*
X95573368Y-64653475D01*
X95747760Y-64770000D01*
X95573368Y-64886525D01*
X95366525Y-65093368D01*
X95204010Y-65336589D01*
X95092068Y-65606842D01*
X95035000Y-65893740D01*
X95035000Y-66186260D01*
X95092068Y-66473158D01*
X95204010Y-66743411D01*
X95366525Y-66986632D01*
X95573368Y-67193475D01*
X95747760Y-67310000D01*
X95573368Y-67426525D01*
X95366525Y-67633368D01*
X95204010Y-67876589D01*
X95092068Y-68146842D01*
X95035000Y-68433740D01*
X95035000Y-68726260D01*
X95092068Y-69013158D01*
X95204010Y-69283411D01*
X95366525Y-69526632D01*
X95573368Y-69733475D01*
X95747760Y-69850000D01*
X95573368Y-69966525D01*
X95366525Y-70173368D01*
X95204010Y-70416589D01*
X95092068Y-70686842D01*
X95035000Y-70973740D01*
X95035000Y-71266260D01*
X95092068Y-71553158D01*
X95204010Y-71823411D01*
X95366525Y-72066632D01*
X95573368Y-72273475D01*
X95747760Y-72390000D01*
X95573368Y-72506525D01*
X95366525Y-72713368D01*
X95204010Y-72956589D01*
X95092068Y-73226842D01*
X95035000Y-73513740D01*
X95035000Y-73806260D01*
X95092068Y-74093158D01*
X95204010Y-74363411D01*
X95366525Y-74606632D01*
X95573368Y-74813475D01*
X95747760Y-74930000D01*
X95573368Y-75046525D01*
X95366525Y-75253368D01*
X95204010Y-75496589D01*
X95092068Y-75766842D01*
X95035000Y-76053740D01*
X95035000Y-76346260D01*
X95092068Y-76633158D01*
X95204010Y-76903411D01*
X95366525Y-77146632D01*
X95573368Y-77353475D01*
X95747760Y-77470000D01*
X95573368Y-77586525D01*
X95366525Y-77793368D01*
X95204010Y-78036589D01*
X95092068Y-78306842D01*
X95035000Y-78593740D01*
X95035000Y-78886260D01*
X95092068Y-79173158D01*
X95204010Y-79443411D01*
X95366525Y-79686632D01*
X95573368Y-79893475D01*
X95747760Y-80010000D01*
X95573368Y-80126525D01*
X95366525Y-80333368D01*
X95204010Y-80576589D01*
X95092068Y-80846842D01*
X95035000Y-81133740D01*
X95035000Y-81426260D01*
X95092068Y-81713158D01*
X95204010Y-81983411D01*
X95366525Y-82226632D01*
X95573368Y-82433475D01*
X95747760Y-82550000D01*
X95573368Y-82666525D01*
X95366525Y-82873368D01*
X95204010Y-83116589D01*
X95092068Y-83386842D01*
X95035000Y-83673740D01*
X95035000Y-83966260D01*
X95092068Y-84253158D01*
X95204010Y-84523411D01*
X95366525Y-84766632D01*
X95573368Y-84973475D01*
X95747760Y-85090000D01*
X95573368Y-85206525D01*
X95366525Y-85413368D01*
X95204010Y-85656589D01*
X95092068Y-85926842D01*
X95035000Y-86213740D01*
X95035000Y-86506260D01*
X95092068Y-86793158D01*
X95204010Y-87063411D01*
X95366525Y-87306632D01*
X95573368Y-87513475D01*
X95747760Y-87630000D01*
X95573368Y-87746525D01*
X95366525Y-87953368D01*
X95204010Y-88196589D01*
X95092068Y-88466842D01*
X95035000Y-88753740D01*
X95035000Y-89046260D01*
X95092068Y-89333158D01*
X95204010Y-89603411D01*
X95366525Y-89846632D01*
X95573368Y-90053475D01*
X95747760Y-90170000D01*
X95573368Y-90286525D01*
X95366525Y-90493368D01*
X95204010Y-90736589D01*
X95092068Y-91006842D01*
X95035000Y-91293740D01*
X95035000Y-91586260D01*
X95092068Y-91873158D01*
X95204010Y-92143411D01*
X95366525Y-92386632D01*
X95573368Y-92593475D01*
X95747760Y-92710000D01*
X95573368Y-92826525D01*
X95366525Y-93033368D01*
X95204010Y-93276589D01*
X95092068Y-93546842D01*
X95035000Y-93833740D01*
X95035000Y-94126260D01*
X95092068Y-94413158D01*
X95204010Y-94683411D01*
X95366525Y-94926632D01*
X95573368Y-95133475D01*
X95747760Y-95250000D01*
X95573368Y-95366525D01*
X95366525Y-95573368D01*
X95204010Y-95816589D01*
X95092068Y-96086842D01*
X95035000Y-96373740D01*
X95035000Y-96666260D01*
X95092068Y-96953158D01*
X95204010Y-97223411D01*
X95366525Y-97466632D01*
X95573368Y-97673475D01*
X95747760Y-97790000D01*
X95573368Y-97906525D01*
X95366525Y-98113368D01*
X95204010Y-98356589D01*
X95092068Y-98626842D01*
X95035000Y-98913740D01*
X95035000Y-99206260D01*
X95092068Y-99493158D01*
X95204010Y-99763411D01*
X95366525Y-100006632D01*
X95573368Y-100213475D01*
X95747760Y-100330000D01*
X95573368Y-100446525D01*
X95366525Y-100653368D01*
X95204010Y-100896589D01*
X95092068Y-101166842D01*
X95035000Y-101453740D01*
X95035000Y-101746260D01*
X95092068Y-102033158D01*
X95204010Y-102303411D01*
X95366525Y-102546632D01*
X95573368Y-102753475D01*
X95747760Y-102870000D01*
X95573368Y-102986525D01*
X95366525Y-103193368D01*
X95204010Y-103436589D01*
X95092068Y-103706842D01*
X95035000Y-103993740D01*
X95035000Y-104286260D01*
X95092068Y-104573158D01*
X95204010Y-104843411D01*
X95366525Y-105086632D01*
X95573368Y-105293475D01*
X95747760Y-105410000D01*
X95573368Y-105526525D01*
X95366525Y-105733368D01*
X95204010Y-105976589D01*
X95092068Y-106246842D01*
X95035000Y-106533740D01*
X95035000Y-106826260D01*
X95092068Y-107113158D01*
X95204010Y-107383411D01*
X95366525Y-107626632D01*
X95573368Y-107833475D01*
X95747760Y-107950000D01*
X95573368Y-108066525D01*
X95366525Y-108273368D01*
X95204010Y-108516589D01*
X95092068Y-108786842D01*
X95035000Y-109073740D01*
X95035000Y-109366260D01*
X95092068Y-109653158D01*
X95204010Y-109923411D01*
X95366525Y-110166632D01*
X95573368Y-110373475D01*
X95747760Y-110490000D01*
X95573368Y-110606525D01*
X95366525Y-110813368D01*
X95204010Y-111056589D01*
X95092068Y-111326842D01*
X95035000Y-111613740D01*
X95035000Y-111906260D01*
X95092068Y-112193158D01*
X95204010Y-112463411D01*
X95366525Y-112706632D01*
X95573368Y-112913475D01*
X95747760Y-113030000D01*
X95573368Y-113146525D01*
X95366525Y-113353368D01*
X95204010Y-113596589D01*
X95092068Y-113866842D01*
X95035000Y-114153740D01*
X95035000Y-114446260D01*
X95092068Y-114733158D01*
X95204010Y-115003411D01*
X95366525Y-115246632D01*
X95573368Y-115453475D01*
X95747760Y-115570000D01*
X95573368Y-115686525D01*
X95366525Y-115893368D01*
X95204010Y-116136589D01*
X95092068Y-116406842D01*
X95035000Y-116693740D01*
X95035000Y-116986260D01*
X95092068Y-117273158D01*
X95204010Y-117543411D01*
X95366525Y-117786632D01*
X95573368Y-117993475D01*
X95747760Y-118110000D01*
X95573368Y-118226525D01*
X95366525Y-118433368D01*
X95204010Y-118676589D01*
X95092068Y-118946842D01*
X95035000Y-119233740D01*
X95035000Y-119526260D01*
X95092068Y-119813158D01*
X95204010Y-120083411D01*
X95366525Y-120326632D01*
X95573368Y-120533475D01*
X95747760Y-120650000D01*
X95573368Y-120766525D01*
X95366525Y-120973368D01*
X95204010Y-121216589D01*
X95092068Y-121486842D01*
X95035000Y-121773740D01*
X95035000Y-122066260D01*
X95092068Y-122353158D01*
X95204010Y-122623411D01*
X95366525Y-122866632D01*
X95573368Y-123073475D01*
X95747760Y-123190000D01*
X95573368Y-123306525D01*
X95366525Y-123513368D01*
X95204010Y-123756589D01*
X95092068Y-124026842D01*
X95035000Y-124313740D01*
X95035000Y-124606260D01*
X95092068Y-124893158D01*
X95204010Y-125163411D01*
X95366525Y-125406632D01*
X95573368Y-125613475D01*
X95747760Y-125730000D01*
X95573368Y-125846525D01*
X95366525Y-126053368D01*
X95204010Y-126296589D01*
X95092068Y-126566842D01*
X95035000Y-126853740D01*
X95035000Y-127146260D01*
X95092068Y-127433158D01*
X95204010Y-127703411D01*
X95366525Y-127946632D01*
X95573368Y-128153475D01*
X95747760Y-128270000D01*
X95573368Y-128386525D01*
X95366525Y-128593368D01*
X95204010Y-128836589D01*
X95092068Y-129106842D01*
X95035000Y-129393740D01*
X95035000Y-129686260D01*
X95092068Y-129973158D01*
X95204010Y-130243411D01*
X95366525Y-130486632D01*
X95573368Y-130693475D01*
X95747760Y-130810000D01*
X95573368Y-130926525D01*
X95366525Y-131133368D01*
X95204010Y-131376589D01*
X95092068Y-131646842D01*
X95035000Y-131933740D01*
X95035000Y-132226260D01*
X95092068Y-132513158D01*
X95204010Y-132783411D01*
X95366525Y-133026632D01*
X95573368Y-133233475D01*
X95747760Y-133350000D01*
X95573368Y-133466525D01*
X95366525Y-133673368D01*
X95204010Y-133916589D01*
X95092068Y-134186842D01*
X95035000Y-134473740D01*
X95035000Y-134766260D01*
X95092068Y-135053158D01*
X95204010Y-135323411D01*
X95366525Y-135566632D01*
X95573368Y-135773475D01*
X95747760Y-135890000D01*
X95573368Y-136006525D01*
X95366525Y-136213368D01*
X95204010Y-136456589D01*
X95092068Y-136726842D01*
X95035000Y-137013740D01*
X95035000Y-137306260D01*
X95092068Y-137593158D01*
X95204010Y-137863411D01*
X95366525Y-138106632D01*
X95573368Y-138313475D01*
X95747760Y-138430000D01*
X95573368Y-138546525D01*
X95366525Y-138753368D01*
X95204010Y-138996589D01*
X95092068Y-139266842D01*
X95035000Y-139553740D01*
X95035000Y-139846260D01*
X95092068Y-140133158D01*
X95204010Y-140403411D01*
X95366525Y-140646632D01*
X95573368Y-140853475D01*
X95747760Y-140970000D01*
X95573368Y-141086525D01*
X95366525Y-141293368D01*
X95204010Y-141536589D01*
X95092068Y-141806842D01*
X95035000Y-142093740D01*
X95035000Y-142386260D01*
X95092068Y-142673158D01*
X95204010Y-142943411D01*
X95366525Y-143186632D01*
X95573368Y-143393475D01*
X95747760Y-143510000D01*
X95573368Y-143626525D01*
X95366525Y-143833368D01*
X95204010Y-144076589D01*
X95092068Y-144346842D01*
X95035000Y-144633740D01*
X95035000Y-144926260D01*
X95092068Y-145213158D01*
X95204010Y-145483411D01*
X95366525Y-145726632D01*
X95573368Y-145933475D01*
X95816589Y-146095990D01*
X96086842Y-146207932D01*
X96373740Y-146265000D01*
X96666260Y-146265000D01*
X96953158Y-146207932D01*
X97223411Y-146095990D01*
X97466632Y-145933475D01*
X97673475Y-145726632D01*
X97835990Y-145483411D01*
X97947932Y-145213158D01*
X98005000Y-144926260D01*
X98005000Y-144633740D01*
X97947932Y-144346842D01*
X97835990Y-144076589D01*
X97673475Y-143833368D01*
X97466632Y-143626525D01*
X97292240Y-143510000D01*
X97466632Y-143393475D01*
X97673475Y-143186632D01*
X97721561Y-143114665D01*
X101435000Y-143114665D01*
X101435000Y-143397335D01*
X101490147Y-143674574D01*
X101598320Y-143935727D01*
X101755363Y-144170759D01*
X101955241Y-144370637D01*
X102190273Y-144527680D01*
X102451426Y-144635853D01*
X102728665Y-144691000D01*
X103011335Y-144691000D01*
X103288574Y-144635853D01*
X103549727Y-144527680D01*
X103784759Y-144370637D01*
X103906694Y-144248702D01*
X107056903Y-144248702D01*
X107128486Y-144492671D01*
X107383996Y-144613571D01*
X107658184Y-144682300D01*
X107940512Y-144696217D01*
X108220130Y-144654787D01*
X108486292Y-144559603D01*
X108611514Y-144492671D01*
X108683097Y-144248702D01*
X107870000Y-143435605D01*
X107056903Y-144248702D01*
X103906694Y-144248702D01*
X103984637Y-144170759D01*
X104141680Y-143935727D01*
X104249853Y-143674574D01*
X104305000Y-143397335D01*
X104305000Y-143326512D01*
X106429783Y-143326512D01*
X106471213Y-143606130D01*
X106566397Y-143872292D01*
X106633329Y-143997514D01*
X106877298Y-144069097D01*
X107690395Y-143256000D01*
X108049605Y-143256000D01*
X108862702Y-144069097D01*
X109106671Y-143997514D01*
X109227571Y-143742004D01*
X109296300Y-143467816D01*
X109310217Y-143185488D01*
X109299724Y-143114665D01*
X120485000Y-143114665D01*
X120485000Y-143397335D01*
X120540147Y-143674574D01*
X120648320Y-143935727D01*
X120805363Y-144170759D01*
X121005241Y-144370637D01*
X121240273Y-144527680D01*
X121501426Y-144635853D01*
X121778665Y-144691000D01*
X122061335Y-144691000D01*
X122338574Y-144635853D01*
X122599727Y-144527680D01*
X122834759Y-144370637D01*
X122956694Y-144248702D01*
X126106903Y-144248702D01*
X126178486Y-144492671D01*
X126433996Y-144613571D01*
X126708184Y-144682300D01*
X126990512Y-144696217D01*
X127270130Y-144654787D01*
X127536292Y-144559603D01*
X127661514Y-144492671D01*
X127733097Y-144248702D01*
X126920000Y-143435605D01*
X126106903Y-144248702D01*
X122956694Y-144248702D01*
X123034637Y-144170759D01*
X123191680Y-143935727D01*
X123299853Y-143674574D01*
X123355000Y-143397335D01*
X123355000Y-143326512D01*
X125479783Y-143326512D01*
X125521213Y-143606130D01*
X125616397Y-143872292D01*
X125683329Y-143997514D01*
X125927298Y-144069097D01*
X126740395Y-143256000D01*
X127099605Y-143256000D01*
X127912702Y-144069097D01*
X128156671Y-143997514D01*
X128277571Y-143742004D01*
X128346300Y-143467816D01*
X128360217Y-143185488D01*
X128318787Y-142905870D01*
X128223603Y-142639708D01*
X128156671Y-142514486D01*
X127912702Y-142442903D01*
X127099605Y-143256000D01*
X126740395Y-143256000D01*
X125927298Y-142442903D01*
X125683329Y-142514486D01*
X125562429Y-142769996D01*
X125493700Y-143044184D01*
X125479783Y-143326512D01*
X123355000Y-143326512D01*
X123355000Y-143114665D01*
X123299853Y-142837426D01*
X123191680Y-142576273D01*
X123034637Y-142341241D01*
X122956694Y-142263298D01*
X126106903Y-142263298D01*
X126920000Y-143076395D01*
X127733097Y-142263298D01*
X127661514Y-142019329D01*
X127406004Y-141898429D01*
X127131816Y-141829700D01*
X126849488Y-141815783D01*
X126569870Y-141857213D01*
X126303708Y-141952397D01*
X126178486Y-142019329D01*
X126106903Y-142263298D01*
X122956694Y-142263298D01*
X122834759Y-142141363D01*
X122599727Y-141984320D01*
X122338574Y-141876147D01*
X122061335Y-141821000D01*
X121778665Y-141821000D01*
X121501426Y-141876147D01*
X121240273Y-141984320D01*
X121005241Y-142141363D01*
X120805363Y-142341241D01*
X120648320Y-142576273D01*
X120540147Y-142837426D01*
X120485000Y-143114665D01*
X109299724Y-143114665D01*
X109268787Y-142905870D01*
X109173603Y-142639708D01*
X109106671Y-142514486D01*
X108862702Y-142442903D01*
X108049605Y-143256000D01*
X107690395Y-143256000D01*
X106877298Y-142442903D01*
X106633329Y-142514486D01*
X106512429Y-142769996D01*
X106443700Y-143044184D01*
X106429783Y-143326512D01*
X104305000Y-143326512D01*
X104305000Y-143114665D01*
X104249853Y-142837426D01*
X104141680Y-142576273D01*
X103984637Y-142341241D01*
X103906694Y-142263298D01*
X107056903Y-142263298D01*
X107870000Y-143076395D01*
X108683097Y-142263298D01*
X108611514Y-142019329D01*
X108356004Y-141898429D01*
X108081816Y-141829700D01*
X107799488Y-141815783D01*
X107519870Y-141857213D01*
X107253708Y-141952397D01*
X107128486Y-142019329D01*
X107056903Y-142263298D01*
X103906694Y-142263298D01*
X103784759Y-142141363D01*
X103549727Y-141984320D01*
X103288574Y-141876147D01*
X103011335Y-141821000D01*
X102728665Y-141821000D01*
X102451426Y-141876147D01*
X102190273Y-141984320D01*
X101955241Y-142141363D01*
X101755363Y-142341241D01*
X101598320Y-142576273D01*
X101490147Y-142837426D01*
X101435000Y-143114665D01*
X97721561Y-143114665D01*
X97835990Y-142943411D01*
X97947932Y-142673158D01*
X98005000Y-142386260D01*
X98005000Y-142093740D01*
X97947932Y-141806842D01*
X97835990Y-141536589D01*
X97673475Y-141293368D01*
X97466632Y-141086525D01*
X97292240Y-140970000D01*
X97466632Y-140853475D01*
X97673475Y-140646632D01*
X97835990Y-140403411D01*
X97947932Y-140133158D01*
X98005000Y-139846260D01*
X98005000Y-139553740D01*
X97947932Y-139266842D01*
X97835990Y-138996589D01*
X97673475Y-138753368D01*
X97466632Y-138546525D01*
X97292240Y-138430000D01*
X97466632Y-138313475D01*
X97673475Y-138106632D01*
X97835990Y-137863411D01*
X97947932Y-137593158D01*
X98005000Y-137306260D01*
X98005000Y-137013740D01*
X97947932Y-136726842D01*
X97835990Y-136456589D01*
X97673475Y-136213368D01*
X97466632Y-136006525D01*
X97292240Y-135890000D01*
X97466632Y-135773475D01*
X97673475Y-135566632D01*
X97835990Y-135323411D01*
X97947932Y-135053158D01*
X98005000Y-134766260D01*
X98005000Y-134473740D01*
X97947932Y-134186842D01*
X97835990Y-133916589D01*
X97673475Y-133673368D01*
X97466632Y-133466525D01*
X97292240Y-133350000D01*
X97466632Y-133233475D01*
X97673475Y-133026632D01*
X97835990Y-132783411D01*
X97947932Y-132513158D01*
X98005000Y-132226260D01*
X98005000Y-131933740D01*
X97947932Y-131646842D01*
X97835990Y-131376589D01*
X97673475Y-131133368D01*
X97466632Y-130926525D01*
X97292240Y-130810000D01*
X97466632Y-130693475D01*
X97673475Y-130486632D01*
X97835990Y-130243411D01*
X97947932Y-129973158D01*
X98005000Y-129686260D01*
X98005000Y-129393740D01*
X97947932Y-129106842D01*
X97835990Y-128836589D01*
X97673475Y-128593368D01*
X97466632Y-128386525D01*
X97292240Y-128270000D01*
X97466632Y-128153475D01*
X97673475Y-127946632D01*
X97835990Y-127703411D01*
X97947932Y-127433158D01*
X98005000Y-127146260D01*
X98005000Y-126853740D01*
X97947932Y-126566842D01*
X97835990Y-126296589D01*
X97673475Y-126053368D01*
X97466632Y-125846525D01*
X97292240Y-125730000D01*
X97466632Y-125613475D01*
X97673475Y-125406632D01*
X97835990Y-125163411D01*
X97947932Y-124893158D01*
X98005000Y-124606260D01*
X98005000Y-124313740D01*
X97947932Y-124026842D01*
X97835990Y-123756589D01*
X97673475Y-123513368D01*
X97466632Y-123306525D01*
X97292240Y-123190000D01*
X97466632Y-123073475D01*
X97673475Y-122866632D01*
X97835990Y-122623411D01*
X97947932Y-122353158D01*
X98005000Y-122066260D01*
X98005000Y-121773740D01*
X97947932Y-121486842D01*
X97835990Y-121216589D01*
X97673475Y-120973368D01*
X97466632Y-120766525D01*
X97292240Y-120650000D01*
X97466632Y-120533475D01*
X97673475Y-120326632D01*
X97835990Y-120083411D01*
X97947932Y-119813158D01*
X98005000Y-119526260D01*
X98005000Y-119233740D01*
X97947932Y-118946842D01*
X97835990Y-118676589D01*
X97673475Y-118433368D01*
X97466632Y-118226525D01*
X97292240Y-118110000D01*
X97466632Y-117993475D01*
X97673475Y-117786632D01*
X97835990Y-117543411D01*
X97947932Y-117273158D01*
X98005000Y-116986260D01*
X98005000Y-116693740D01*
X97947932Y-116406842D01*
X97835990Y-116136589D01*
X97673475Y-115893368D01*
X97466632Y-115686525D01*
X97292240Y-115570000D01*
X97466632Y-115453475D01*
X97673475Y-115246632D01*
X97835990Y-115003411D01*
X97947932Y-114733158D01*
X98005000Y-114446260D01*
X98005000Y-114153740D01*
X97947932Y-113866842D01*
X97835990Y-113596589D01*
X97673475Y-113353368D01*
X97466632Y-113146525D01*
X97292240Y-113030000D01*
X97466632Y-112913475D01*
X97673475Y-112706632D01*
X97835990Y-112463411D01*
X97947932Y-112193158D01*
X98005000Y-111906260D01*
X98005000Y-111613740D01*
X97947932Y-111326842D01*
X97835990Y-111056589D01*
X97673475Y-110813368D01*
X97466632Y-110606525D01*
X97292240Y-110490000D01*
X97466632Y-110373475D01*
X97673475Y-110166632D01*
X97835990Y-109923411D01*
X97947932Y-109653158D01*
X98005000Y-109366260D01*
X98005000Y-109073740D01*
X97947932Y-108786842D01*
X97835990Y-108516589D01*
X97673475Y-108273368D01*
X97466632Y-108066525D01*
X97292240Y-107950000D01*
X97466632Y-107833475D01*
X97673475Y-107626632D01*
X97835990Y-107383411D01*
X97947932Y-107113158D01*
X98005000Y-106826260D01*
X98005000Y-106533740D01*
X97947932Y-106246842D01*
X97835990Y-105976589D01*
X97673475Y-105733368D01*
X97466632Y-105526525D01*
X97292240Y-105410000D01*
X97466632Y-105293475D01*
X97673475Y-105086632D01*
X97835990Y-104843411D01*
X97947932Y-104573158D01*
X98005000Y-104286260D01*
X98005000Y-103993740D01*
X97947932Y-103706842D01*
X97835990Y-103436589D01*
X97673475Y-103193368D01*
X97466632Y-102986525D01*
X97292240Y-102870000D01*
X97466632Y-102753475D01*
X97673475Y-102546632D01*
X97835990Y-102303411D01*
X97947932Y-102033158D01*
X98005000Y-101746260D01*
X98005000Y-101453740D01*
X97947932Y-101166842D01*
X97835990Y-100896589D01*
X97673475Y-100653368D01*
X97466632Y-100446525D01*
X97292240Y-100330000D01*
X97466632Y-100213475D01*
X97673475Y-100006632D01*
X97835990Y-99763411D01*
X97947932Y-99493158D01*
X98005000Y-99206260D01*
X98005000Y-98913740D01*
X97947932Y-98626842D01*
X97835990Y-98356589D01*
X97673475Y-98113368D01*
X97466632Y-97906525D01*
X97292240Y-97790000D01*
X97466632Y-97673475D01*
X97673475Y-97466632D01*
X97835990Y-97223411D01*
X97947932Y-96953158D01*
X98005000Y-96666260D01*
X98005000Y-96373740D01*
X97947932Y-96086842D01*
X97835990Y-95816589D01*
X97673475Y-95573368D01*
X97466632Y-95366525D01*
X97292240Y-95250000D01*
X97466632Y-95133475D01*
X97673475Y-94926632D01*
X97835990Y-94683411D01*
X97947932Y-94413158D01*
X98005000Y-94126260D01*
X98005000Y-93833740D01*
X97947932Y-93546842D01*
X97835990Y-93276589D01*
X97673475Y-93033368D01*
X97466632Y-92826525D01*
X97292240Y-92710000D01*
X97466632Y-92593475D01*
X97673475Y-92386632D01*
X97835990Y-92143411D01*
X97947932Y-91873158D01*
X98005000Y-91586260D01*
X98005000Y-91293740D01*
X97947932Y-91006842D01*
X97835990Y-90736589D01*
X97673475Y-90493368D01*
X97466632Y-90286525D01*
X97292240Y-90170000D01*
X97466632Y-90053475D01*
X97673475Y-89846632D01*
X97835990Y-89603411D01*
X97947932Y-89333158D01*
X98005000Y-89046260D01*
X98005000Y-88753740D01*
X97947932Y-88466842D01*
X97835990Y-88196589D01*
X97673475Y-87953368D01*
X97466632Y-87746525D01*
X97292240Y-87630000D01*
X97466632Y-87513475D01*
X97673475Y-87306632D01*
X97835990Y-87063411D01*
X97947932Y-86793158D01*
X98005000Y-86506260D01*
X98005000Y-86213740D01*
X97947932Y-85926842D01*
X97835990Y-85656589D01*
X97673475Y-85413368D01*
X97466632Y-85206525D01*
X97292240Y-85090000D01*
X97466632Y-84973475D01*
X97673475Y-84766632D01*
X97835990Y-84523411D01*
X97947932Y-84253158D01*
X98005000Y-83966260D01*
X98005000Y-83673740D01*
X97947932Y-83386842D01*
X97835990Y-83116589D01*
X97673475Y-82873368D01*
X97466632Y-82666525D01*
X97292240Y-82550000D01*
X97466632Y-82433475D01*
X97673475Y-82226632D01*
X97835990Y-81983411D01*
X97947932Y-81713158D01*
X98005000Y-81426260D01*
X98005000Y-81133740D01*
X97947932Y-80846842D01*
X97835990Y-80576589D01*
X97673475Y-80333368D01*
X97466632Y-80126525D01*
X97292240Y-80010000D01*
X97466632Y-79893475D01*
X97673475Y-79686632D01*
X97835990Y-79443411D01*
X97947932Y-79173158D01*
X98005000Y-78886260D01*
X98005000Y-78593740D01*
X97947932Y-78306842D01*
X97835990Y-78036589D01*
X97673475Y-77793368D01*
X97466632Y-77586525D01*
X97292240Y-77470000D01*
X97466632Y-77353475D01*
X97673475Y-77146632D01*
X97798178Y-76960000D01*
X97983199Y-76960000D01*
X98046000Y-77022802D01*
X98046001Y-116040667D01*
X98042324Y-116078000D01*
X98046001Y-116115333D01*
X98047500Y-116130547D01*
X98056998Y-116226985D01*
X98100454Y-116370246D01*
X98171026Y-116502276D01*
X98242201Y-116589002D01*
X98266000Y-116618001D01*
X98294998Y-116641799D01*
X99004201Y-117351002D01*
X99027999Y-117380001D01*
X99143724Y-117474974D01*
X99275753Y-117545546D01*
X99419014Y-117589003D01*
X99530667Y-117600000D01*
X99530675Y-117600000D01*
X99568000Y-117603676D01*
X99605325Y-117600000D01*
X101651957Y-117600000D01*
X101755363Y-117754759D01*
X101955241Y-117954637D01*
X102187759Y-118110000D01*
X101955241Y-118265363D01*
X101755363Y-118465241D01*
X101598320Y-118700273D01*
X101490147Y-118961426D01*
X101435000Y-119238665D01*
X101435000Y-119521335D01*
X101471312Y-119703887D01*
X101234001Y-119941197D01*
X101204998Y-119965000D01*
X101163986Y-120014974D01*
X101110025Y-120080725D01*
X101084220Y-120129003D01*
X101039453Y-120212755D01*
X100995996Y-120356016D01*
X100984999Y-120467669D01*
X100984999Y-120467679D01*
X100981323Y-120505001D01*
X100984999Y-120542323D01*
X100985000Y-132582669D01*
X100981323Y-132620001D01*
X100985000Y-132657334D01*
X100995997Y-132768987D01*
X101001020Y-132785546D01*
X101039453Y-132912247D01*
X101110025Y-133044277D01*
X101177147Y-133126064D01*
X101204999Y-133160002D01*
X101233997Y-133183800D01*
X101755400Y-133705204D01*
X101755363Y-133705241D01*
X101598320Y-133940273D01*
X101490147Y-134201426D01*
X101435000Y-134478665D01*
X101435000Y-134761335D01*
X101490147Y-135038574D01*
X101598320Y-135299727D01*
X101755363Y-135534759D01*
X101955241Y-135734637D01*
X102187759Y-135890000D01*
X101955241Y-136045363D01*
X101755363Y-136245241D01*
X101598320Y-136480273D01*
X101490147Y-136741426D01*
X101435000Y-137018665D01*
X101435000Y-137301335D01*
X101490147Y-137578574D01*
X101598320Y-137839727D01*
X101755363Y-138074759D01*
X101955241Y-138274637D01*
X102187759Y-138430000D01*
X101955241Y-138585363D01*
X101755363Y-138785241D01*
X101598320Y-139020273D01*
X101490147Y-139281426D01*
X101435000Y-139558665D01*
X101435000Y-139841335D01*
X101490147Y-140118574D01*
X101598320Y-140379727D01*
X101755363Y-140614759D01*
X101955241Y-140814637D01*
X102190273Y-140971680D01*
X102451426Y-141079853D01*
X102728665Y-141135000D01*
X103011335Y-141135000D01*
X103288574Y-141079853D01*
X103549727Y-140971680D01*
X103784759Y-140814637D01*
X103984637Y-140614759D01*
X104141680Y-140379727D01*
X104249853Y-140118574D01*
X104305000Y-139841335D01*
X104305000Y-139558665D01*
X104249853Y-139281426D01*
X104141680Y-139020273D01*
X103984637Y-138785241D01*
X103784759Y-138585363D01*
X103552241Y-138430000D01*
X103784759Y-138274637D01*
X103984637Y-138074759D01*
X104088043Y-137920000D01*
X112070039Y-137920000D01*
X115486042Y-141336004D01*
X115509840Y-141365002D01*
X115538838Y-141388800D01*
X115625564Y-141459975D01*
X115757594Y-141530547D01*
X115900855Y-141574004D01*
X116012508Y-141585001D01*
X116012517Y-141585001D01*
X116049840Y-141588677D01*
X116087163Y-141585001D01*
X132469722Y-141585001D01*
X128785044Y-145269680D01*
X128486031Y-145269680D01*
X128442094Y-145225743D01*
X128272576Y-145112475D01*
X128084218Y-145034454D01*
X127884259Y-144994680D01*
X127680381Y-144994680D01*
X127480422Y-145034454D01*
X127292064Y-145112475D01*
X127122546Y-145225743D01*
X126978383Y-145369906D01*
X126865115Y-145539424D01*
X126787094Y-145727782D01*
X126747320Y-145927741D01*
X126747320Y-146131619D01*
X126787094Y-146331578D01*
X126865115Y-146519936D01*
X126958703Y-146660000D01*
X94640000Y-146660000D01*
X94640000Y-44870000D01*
X95031928Y-44870000D01*
X95031928Y-46570000D01*
X95044188Y-46694482D01*
X95080498Y-46814180D01*
X95139463Y-46924494D01*
X95218815Y-47021185D01*
X95315506Y-47100537D01*
X95425820Y-47159502D01*
X95506466Y-47183966D01*
X95422412Y-47259731D01*
X95248359Y-47493080D01*
X95123175Y-47755901D01*
X95078524Y-47903110D01*
X95199845Y-48133000D01*
X96393000Y-48133000D01*
X96393000Y-48113000D01*
X96647000Y-48113000D01*
X96647000Y-48133000D01*
X97840155Y-48133000D01*
X97961476Y-47903110D01*
X97916825Y-47755901D01*
X97791641Y-47493080D01*
X97617588Y-47259731D01*
X97533534Y-47183966D01*
X97614180Y-47159502D01*
X97724494Y-47100537D01*
X97821185Y-47021185D01*
X97900537Y-46924494D01*
X97959502Y-46814180D01*
X97995812Y-46694482D01*
X98008072Y-46570000D01*
X98008072Y-44870000D01*
X97995812Y-44745518D01*
X97959502Y-44625820D01*
X97900537Y-44515506D01*
X97821185Y-44418815D01*
X97724494Y-44339463D01*
X97614180Y-44280498D01*
X97494482Y-44244188D01*
X97370000Y-44231928D01*
X95670000Y-44231928D01*
X95545518Y-44244188D01*
X95425820Y-44280498D01*
X95315506Y-44339463D01*
X95218815Y-44418815D01*
X95139463Y-44515506D01*
X95080498Y-44625820D01*
X95044188Y-44745518D01*
X95031928Y-44870000D01*
X94640000Y-44870000D01*
X94640000Y-43840000D01*
X100481891Y-43840000D01*
X100469998Y-43849760D01*
%TD*%
M02*
