M48
; DRILL file {KiCad 5.1.6-c6e7f7d~87~ubuntu18.04.1} date Tue Aug 11 21:02:32 2020
; FORMAT={-:-/ absolute / inch / decimal}
; #@! TF.CreationDate,2020-08-11T21:02:32+01:00
; #@! TF.GenerationSoftware,Kicad,Pcbnew,5.1.6-c6e7f7d~87~ubuntu18.04.1
FMAT,2
INCH
T1C0.0157
T2C0.0315
T3C0.0394
%
G90
G05
T1
X4.55Y-3.85
X4.55Y-4.8
X4.7Y-3.5
X4.7Y-3.6
X5.09Y-4.88
X5.15Y-4.88
T2
X4.75Y-2.15
X5.05Y-2.15
X4.8Y-5.0
X4.8Y-5.1
X4.8Y-5.2
X4.8Y-5.3
X4.8Y-5.4
X4.8Y-5.5
X4.8Y-5.6
X5.1Y-5.0
X5.1Y-5.1
X5.1Y-5.2
X5.1Y-5.3
X5.1Y-5.4
X5.1Y-5.5
X5.1Y-5.6
T3
X4.4Y-2.15
X4.4Y-2.25
X4.4Y-2.35
X4.4Y-2.45
X4.4Y-2.55
X4.4Y-2.65
X4.4Y-2.75
X4.4Y-2.85
X4.4Y-2.95
X4.4Y-3.05
X4.4Y-3.15
X4.4Y-3.25
X4.4Y-3.35
X4.4Y-3.45
X4.4Y-3.55
X4.4Y-3.65
X4.4Y-3.75
X4.4Y-3.85
X4.4Y-3.95
X4.4Y-4.05
X4.4Y-4.15
X4.4Y-4.25
X4.4Y-4.35
X4.4Y-4.45
X4.4Y-4.55
X4.4Y-4.65
X4.4Y-4.75
X4.4Y-4.85
X4.4Y-4.95
X4.4Y-5.05
X4.4Y-5.15
X4.4Y-5.25
X4.4Y-5.35
X4.4Y-5.45
X4.4Y-5.55
X4.4Y-5.65
X4.4Y-5.75
X4.4Y-5.85
X4.4Y-5.95
X4.4Y-6.05
X4.8Y-2.95
X4.8Y-3.05
X4.8Y-3.15
X4.8Y-3.25
X4.8Y-3.35
X4.8Y-3.45
X4.8Y-3.55
X4.8Y-3.65
X4.8Y-3.75
X4.8Y-3.85
X4.8Y-3.95
X4.8Y-4.05
X4.8Y-4.15
X4.8Y-4.25
X5.4Y-2.95
X5.4Y-3.05
X5.4Y-3.15
X5.4Y-3.25
X5.4Y-3.35
X5.4Y-3.45
X5.4Y-3.55
X5.4Y-3.65
X5.4Y-3.75
X5.4Y-3.85
X5.4Y-3.95
X5.4Y-4.05
X5.4Y-4.15
X5.4Y-4.25
T0
M30
