%TF.GenerationSoftware,KiCad,Pcbnew,5.1.6-c6e7f7d~87~ubuntu18.04.1*%
%TF.CreationDate,2020-08-11T21:02:34+01:00*%
%TF.ProjectId,8KROM_Lower_Rev2,384b524f-4d5f-44c6-9f77-65725f526576,rev?*%
%TF.SameCoordinates,Original*%
%TF.FileFunction,Soldermask,Top*%
%TF.FilePolarity,Negative*%
%FSLAX46Y46*%
G04 Gerber Fmt 4.6, Leading zero omitted, Abs format (unit mm)*
G04 Created by KiCad (PCBNEW 5.1.6-c6e7f7d~87~ubuntu18.04.1) date 2020-08-11 21:02:34*
%MOMM*%
%LPD*%
G01*
G04 APERTURE LIST*
%ADD10O,2.100000X1.540000*%
%ADD11R,2.100000X1.540000*%
%ADD12O,1.700000X1.700000*%
%ADD13R,1.700000X1.700000*%
%ADD14C,1.700000*%
%ADD15O,1.800000X1.800000*%
%ADD16R,1.800000X1.800000*%
G04 APERTURE END LIST*
D10*
%TO.C,U2*%
X121920000Y-74930000D03*
X137160000Y-74930000D03*
X121920000Y-77470000D03*
X137160000Y-77470000D03*
X121920000Y-80010000D03*
X137160000Y-80010000D03*
X121920000Y-82550000D03*
X137160000Y-82550000D03*
X121920000Y-85090000D03*
X137160000Y-85090000D03*
X121920000Y-87630000D03*
X137160000Y-87630000D03*
X121920000Y-90170000D03*
X137160000Y-90170000D03*
X121920000Y-92710000D03*
X137160000Y-92710000D03*
X121920000Y-95250000D03*
X137160000Y-95250000D03*
X121920000Y-97790000D03*
X137160000Y-97790000D03*
X121920000Y-100330000D03*
X137160000Y-100330000D03*
X121920000Y-102870000D03*
X137160000Y-102870000D03*
X121920000Y-105410000D03*
X137160000Y-105410000D03*
X121920000Y-107950000D03*
D11*
X137160000Y-107950000D03*
%TD*%
D12*
%TO.C,U1*%
X129540000Y-127000000D03*
X121920000Y-142240000D03*
X129540000Y-129540000D03*
X121920000Y-139700000D03*
X129540000Y-132080000D03*
X121920000Y-137160000D03*
X129540000Y-134620000D03*
X121920000Y-134620000D03*
X129540000Y-137160000D03*
X121920000Y-132080000D03*
X129540000Y-139700000D03*
X121920000Y-129540000D03*
X129540000Y-142240000D03*
D13*
X121920000Y-127000000D03*
%TD*%
D12*
%TO.C,R1*%
X128270000Y-54610000D03*
D14*
X120650000Y-54610000D03*
%TD*%
D15*
%TO.C,J1*%
X111760000Y-153670000D03*
X111760000Y-151130000D03*
X111760000Y-148590000D03*
X111760000Y-146050000D03*
X111760000Y-143510000D03*
X111760000Y-140970000D03*
X111760000Y-138430000D03*
X111760000Y-135890000D03*
X111760000Y-133350000D03*
X111760000Y-130810000D03*
X111760000Y-128270000D03*
X111760000Y-125730000D03*
X111760000Y-123190000D03*
X111760000Y-120650000D03*
X111760000Y-118110000D03*
X111760000Y-115570000D03*
X111760000Y-113030000D03*
X111760000Y-110490000D03*
X111760000Y-107950000D03*
X111760000Y-105410000D03*
X111760000Y-102870000D03*
X111760000Y-100330000D03*
X111760000Y-97790000D03*
X111760000Y-95250000D03*
X111760000Y-92710000D03*
X111760000Y-90170000D03*
X111760000Y-87630000D03*
X111760000Y-85090000D03*
X111760000Y-82550000D03*
X111760000Y-80010000D03*
X111760000Y-77470000D03*
X111760000Y-74930000D03*
X111760000Y-72390000D03*
X111760000Y-69850000D03*
X111760000Y-67310000D03*
X111760000Y-64770000D03*
X111760000Y-62230000D03*
X111760000Y-59690000D03*
X111760000Y-57150000D03*
D16*
X111760000Y-54610000D03*
%TD*%
M02*
