%TF.GenerationSoftware,KiCad,Pcbnew,5.1.6-c6e7f7d~87~ubuntu18.04.1*%
%TF.CreationDate,2020-08-11T21:02:34+01:00*%
%TF.ProjectId,8KROM_Lower_Rev2,384b524f-4d5f-44c6-9f77-65725f526576,rev?*%
%TF.SameCoordinates,Original*%
%TF.FileFunction,Legend,Top*%
%TF.FilePolarity,Positive*%
%FSLAX46Y46*%
G04 Gerber Fmt 4.6, Leading zero omitted, Abs format (unit mm)*
G04 Created by KiCad (PCBNEW 5.1.6-c6e7f7d~87~ubuntu18.04.1) date 2020-08-11 21:02:34*
%MOMM*%
%LPD*%
G01*
G04 APERTURE LIST*
%ADD10C,0.150000*%
%ADD11C,0.120000*%
G04 APERTURE END LIST*
D10*
X158424047Y-57628452D02*
X158471666Y-57533214D01*
X158519285Y-57485595D01*
X158614523Y-57437976D01*
X158662142Y-57437976D01*
X158757380Y-57485595D01*
X158805000Y-57533214D01*
X158852619Y-57628452D01*
X158852619Y-57818928D01*
X158805000Y-57914166D01*
X158757380Y-57961785D01*
X158662142Y-58009404D01*
X158614523Y-58009404D01*
X158519285Y-57961785D01*
X158471666Y-57914166D01*
X158424047Y-57818928D01*
X158424047Y-57628452D01*
X158376428Y-57533214D01*
X158328809Y-57485595D01*
X158233571Y-57437976D01*
X158043095Y-57437976D01*
X157947857Y-57485595D01*
X157900238Y-57533214D01*
X157852619Y-57628452D01*
X157852619Y-57818928D01*
X157900238Y-57914166D01*
X157947857Y-57961785D01*
X158043095Y-58009404D01*
X158233571Y-58009404D01*
X158328809Y-57961785D01*
X158376428Y-57914166D01*
X158424047Y-57818928D01*
X157852619Y-58437976D02*
X158852619Y-58437976D01*
X157852619Y-59009404D02*
X158424047Y-58580833D01*
X158852619Y-59009404D02*
X158281190Y-58437976D01*
X157852619Y-60771309D02*
X158328809Y-60437976D01*
X157852619Y-60199880D02*
X158852619Y-60199880D01*
X158852619Y-60580833D01*
X158805000Y-60676071D01*
X158757380Y-60723690D01*
X158662142Y-60771309D01*
X158519285Y-60771309D01*
X158424047Y-60723690D01*
X158376428Y-60676071D01*
X158328809Y-60580833D01*
X158328809Y-60199880D01*
X158852619Y-61390357D02*
X158852619Y-61580833D01*
X158805000Y-61676071D01*
X158709761Y-61771309D01*
X158519285Y-61818928D01*
X158185952Y-61818928D01*
X157995476Y-61771309D01*
X157900238Y-61676071D01*
X157852619Y-61580833D01*
X157852619Y-61390357D01*
X157900238Y-61295119D01*
X157995476Y-61199880D01*
X158185952Y-61152261D01*
X158519285Y-61152261D01*
X158709761Y-61199880D01*
X158805000Y-61295119D01*
X158852619Y-61390357D01*
X157852619Y-62247500D02*
X158852619Y-62247500D01*
X158138333Y-62580833D01*
X158852619Y-62914166D01*
X157852619Y-62914166D01*
X157471666Y-64437976D02*
X157519285Y-64390357D01*
X157662142Y-64295119D01*
X157757380Y-64247500D01*
X157900238Y-64199880D01*
X158138333Y-64152261D01*
X158328809Y-64152261D01*
X158566904Y-64199880D01*
X158709761Y-64247500D01*
X158805000Y-64295119D01*
X158947857Y-64390357D01*
X158995476Y-64437976D01*
X158852619Y-65009404D02*
X158852619Y-65104642D01*
X158805000Y-65199880D01*
X158757380Y-65247500D01*
X158662142Y-65295119D01*
X158471666Y-65342738D01*
X158233571Y-65342738D01*
X158043095Y-65295119D01*
X157947857Y-65247500D01*
X157900238Y-65199880D01*
X157852619Y-65104642D01*
X157852619Y-65009404D01*
X157900238Y-64914166D01*
X157947857Y-64866547D01*
X158043095Y-64818928D01*
X158233571Y-64771309D01*
X158471666Y-64771309D01*
X158662142Y-64818928D01*
X158757380Y-64866547D01*
X158805000Y-64914166D01*
X158852619Y-65009404D01*
X157852619Y-65676071D02*
X158519285Y-66199880D01*
X158519285Y-65676071D02*
X157852619Y-66199880D01*
X158852619Y-66771309D02*
X158852619Y-66866547D01*
X158805000Y-66961785D01*
X158757380Y-67009404D01*
X158662142Y-67057023D01*
X158471666Y-67104642D01*
X158233571Y-67104642D01*
X158043095Y-67057023D01*
X157947857Y-67009404D01*
X157900238Y-66961785D01*
X157852619Y-66866547D01*
X157852619Y-66771309D01*
X157900238Y-66676071D01*
X157947857Y-66628452D01*
X158043095Y-66580833D01*
X158233571Y-66533214D01*
X158471666Y-66533214D01*
X158662142Y-66580833D01*
X158757380Y-66628452D01*
X158805000Y-66676071D01*
X158852619Y-66771309D01*
X158852619Y-67723690D02*
X158852619Y-67818928D01*
X158805000Y-67914166D01*
X158757380Y-67961785D01*
X158662142Y-68009404D01*
X158471666Y-68057023D01*
X158233571Y-68057023D01*
X158043095Y-68009404D01*
X157947857Y-67961785D01*
X157900238Y-67914166D01*
X157852619Y-67818928D01*
X157852619Y-67723690D01*
X157900238Y-67628452D01*
X157947857Y-67580833D01*
X158043095Y-67533214D01*
X158233571Y-67485595D01*
X158471666Y-67485595D01*
X158662142Y-67533214D01*
X158757380Y-67580833D01*
X158805000Y-67628452D01*
X158852619Y-67723690D01*
X158852619Y-68676071D02*
X158852619Y-68771309D01*
X158805000Y-68866547D01*
X158757380Y-68914166D01*
X158662142Y-68961785D01*
X158471666Y-69009404D01*
X158233571Y-69009404D01*
X158043095Y-68961785D01*
X157947857Y-68914166D01*
X157900238Y-68866547D01*
X157852619Y-68771309D01*
X157852619Y-68676071D01*
X157900238Y-68580833D01*
X157947857Y-68533214D01*
X158043095Y-68485595D01*
X158233571Y-68437976D01*
X158471666Y-68437976D01*
X158662142Y-68485595D01*
X158757380Y-68533214D01*
X158805000Y-68580833D01*
X158852619Y-68676071D01*
X158852619Y-69628452D02*
X158852619Y-69723690D01*
X158805000Y-69818928D01*
X158757380Y-69866547D01*
X158662142Y-69914166D01*
X158471666Y-69961785D01*
X158233571Y-69961785D01*
X158043095Y-69914166D01*
X157947857Y-69866547D01*
X157900238Y-69818928D01*
X157852619Y-69723690D01*
X157852619Y-69628452D01*
X157900238Y-69533214D01*
X157947857Y-69485595D01*
X158043095Y-69437976D01*
X158233571Y-69390357D01*
X158471666Y-69390357D01*
X158662142Y-69437976D01*
X158757380Y-69485595D01*
X158805000Y-69533214D01*
X158852619Y-69628452D01*
X158233571Y-71152261D02*
X158233571Y-71914166D01*
X158852619Y-73342738D02*
X158852619Y-73437976D01*
X158805000Y-73533214D01*
X158757380Y-73580833D01*
X158662142Y-73628452D01*
X158471666Y-73676071D01*
X158233571Y-73676071D01*
X158043095Y-73628452D01*
X157947857Y-73580833D01*
X157900238Y-73533214D01*
X157852619Y-73437976D01*
X157852619Y-73342738D01*
X157900238Y-73247500D01*
X157947857Y-73199880D01*
X158043095Y-73152261D01*
X158233571Y-73104642D01*
X158471666Y-73104642D01*
X158662142Y-73152261D01*
X158757380Y-73199880D01*
X158805000Y-73247500D01*
X158852619Y-73342738D01*
X157852619Y-74009404D02*
X158519285Y-74533214D01*
X158519285Y-74009404D02*
X157852619Y-74533214D01*
X157852619Y-75437976D02*
X157852619Y-74866547D01*
X157852619Y-75152261D02*
X158852619Y-75152261D01*
X158709761Y-75057023D01*
X158614523Y-74961785D01*
X158566904Y-74866547D01*
X158376428Y-76199880D02*
X158376428Y-75866547D01*
X157852619Y-75866547D02*
X158852619Y-75866547D01*
X158852619Y-76342738D01*
X158376428Y-77057023D02*
X158376428Y-76723690D01*
X157852619Y-76723690D02*
X158852619Y-76723690D01*
X158852619Y-77199880D01*
X158376428Y-77914166D02*
X158376428Y-77580833D01*
X157852619Y-77580833D02*
X158852619Y-77580833D01*
X158852619Y-78057023D01*
X157471666Y-78342738D02*
X157519285Y-78390357D01*
X157662142Y-78485595D01*
X157757380Y-78533214D01*
X157900238Y-78580833D01*
X158138333Y-78628452D01*
X158328809Y-78628452D01*
X158566904Y-78580833D01*
X158709761Y-78533214D01*
X158805000Y-78485595D01*
X158947857Y-78390357D01*
X158995476Y-78342738D01*
X156202619Y-58057023D02*
X156678809Y-57723690D01*
X156202619Y-57485595D02*
X157202619Y-57485595D01*
X157202619Y-57866547D01*
X157155000Y-57961785D01*
X157107380Y-58009404D01*
X157012142Y-58057023D01*
X156869285Y-58057023D01*
X156774047Y-58009404D01*
X156726428Y-57961785D01*
X156678809Y-57866547D01*
X156678809Y-57485595D01*
X156250238Y-58866547D02*
X156202619Y-58771309D01*
X156202619Y-58580833D01*
X156250238Y-58485595D01*
X156345476Y-58437976D01*
X156726428Y-58437976D01*
X156821666Y-58485595D01*
X156869285Y-58580833D01*
X156869285Y-58771309D01*
X156821666Y-58866547D01*
X156726428Y-58914166D01*
X156631190Y-58914166D01*
X156535952Y-58437976D01*
X156869285Y-59247500D02*
X156202619Y-59485595D01*
X156869285Y-59723690D01*
X156297857Y-60104642D02*
X156250238Y-60152261D01*
X156202619Y-60104642D01*
X156250238Y-60057023D01*
X156297857Y-60104642D01*
X156202619Y-60104642D01*
X157107380Y-61295119D02*
X157155000Y-61342738D01*
X157202619Y-61437976D01*
X157202619Y-61676071D01*
X157155000Y-61771309D01*
X157107380Y-61818928D01*
X157012142Y-61866547D01*
X156916904Y-61866547D01*
X156774047Y-61818928D01*
X156202619Y-61247500D01*
X156202619Y-61866547D01*
X156726428Y-62628452D02*
X156678809Y-62771309D01*
X156631190Y-62818928D01*
X156535952Y-62866547D01*
X156393095Y-62866547D01*
X156297857Y-62818928D01*
X156250238Y-62771309D01*
X156202619Y-62676071D01*
X156202619Y-62295119D01*
X157202619Y-62295119D01*
X157202619Y-62628452D01*
X157155000Y-62723690D01*
X157107380Y-62771309D01*
X157012142Y-62818928D01*
X156916904Y-62818928D01*
X156821666Y-62771309D01*
X156774047Y-62723690D01*
X156726428Y-62628452D01*
X156726428Y-62295119D01*
D11*
%TO.C,U2*%
X142910000Y-114300000D02*
G75*
G03*
X142910000Y-114300000I-2550000J0D01*
G01*
X141260000Y-114300000D02*
G75*
G03*
X141260000Y-114300000I-900000J0D01*
G01*
X141090000Y-111850000D02*
X141090000Y-68010000D01*
X141090000Y-68010000D02*
X117990000Y-68010000D01*
X117990000Y-68010000D02*
X117990000Y-118610000D01*
X117990000Y-118610000D02*
X141090000Y-118610000D01*
X141090000Y-118610000D02*
X141090000Y-116750000D01*
X138810000Y-118610000D02*
X138810000Y-116350000D01*
X142110000Y-106680000D02*
X142110000Y-109220000D01*
%TO.C,U1*%
X124730000Y-125670000D02*
X123080000Y-125670000D01*
X123080000Y-125670000D02*
X123080000Y-143570000D01*
X123080000Y-143570000D02*
X128380000Y-143570000D01*
X128380000Y-143570000D02*
X128380000Y-125670000D01*
X128380000Y-125670000D02*
X126730000Y-125670000D01*
X120590000Y-125610000D02*
X120590000Y-143630000D01*
X120590000Y-143630000D02*
X130870000Y-143630000D01*
X130870000Y-143630000D02*
X130870000Y-125610000D01*
X130870000Y-125610000D02*
X120590000Y-125610000D01*
X126730000Y-125670000D02*
G75*
G02*
X124730000Y-125670000I-1000000J0D01*
G01*
%TO.C,R1*%
X121190000Y-53570000D02*
X121190000Y-53240000D01*
X121190000Y-53240000D02*
X127730000Y-53240000D01*
X127730000Y-53240000D02*
X127730000Y-53570000D01*
X121190000Y-55650000D02*
X121190000Y-55980000D01*
X121190000Y-55980000D02*
X127730000Y-55980000D01*
X127730000Y-55980000D02*
X127730000Y-55650000D01*
%TO.C,J1*%
X110430000Y-155000000D02*
X113090000Y-155000000D01*
X110430000Y-55880000D02*
X110430000Y-155000000D01*
X113090000Y-55880000D02*
X113090000Y-155000000D01*
X110430000Y-55880000D02*
X113090000Y-55880000D01*
X110430000Y-54610000D02*
X110430000Y-53280000D01*
X110430000Y-53280000D02*
X111760000Y-53280000D01*
%TO.C,U2*%
D10*
X128778095Y-118962380D02*
X128778095Y-119771904D01*
X128825714Y-119867142D01*
X128873333Y-119914761D01*
X128968571Y-119962380D01*
X129159047Y-119962380D01*
X129254285Y-119914761D01*
X129301904Y-119867142D01*
X129349523Y-119771904D01*
X129349523Y-118962380D01*
X129778095Y-119057619D02*
X129825714Y-119010000D01*
X129920952Y-118962380D01*
X130159047Y-118962380D01*
X130254285Y-119010000D01*
X130301904Y-119057619D01*
X130349523Y-119152857D01*
X130349523Y-119248095D01*
X130301904Y-119390952D01*
X129730476Y-119962380D01*
X130349523Y-119962380D01*
%TO.C,U1*%
X124968095Y-124122380D02*
X124968095Y-124931904D01*
X125015714Y-125027142D01*
X125063333Y-125074761D01*
X125158571Y-125122380D01*
X125349047Y-125122380D01*
X125444285Y-125074761D01*
X125491904Y-125027142D01*
X125539523Y-124931904D01*
X125539523Y-124122380D01*
X126539523Y-125122380D02*
X125968095Y-125122380D01*
X126253809Y-125122380D02*
X126253809Y-124122380D01*
X126158571Y-124265238D01*
X126063333Y-124360476D01*
X125968095Y-124408095D01*
%TO.C,R1*%
X124293333Y-52692380D02*
X123960000Y-52216190D01*
X123721904Y-52692380D02*
X123721904Y-51692380D01*
X124102857Y-51692380D01*
X124198095Y-51740000D01*
X124245714Y-51787619D01*
X124293333Y-51882857D01*
X124293333Y-52025714D01*
X124245714Y-52120952D01*
X124198095Y-52168571D01*
X124102857Y-52216190D01*
X123721904Y-52216190D01*
X125245714Y-52692380D02*
X124674285Y-52692380D01*
X124960000Y-52692380D02*
X124960000Y-51692380D01*
X124864761Y-51835238D01*
X124769523Y-51930476D01*
X124674285Y-51978095D01*
%TO.C,J1*%
X111426666Y-51732380D02*
X111426666Y-52446666D01*
X111379047Y-52589523D01*
X111283809Y-52684761D01*
X111140952Y-52732380D01*
X111045714Y-52732380D01*
X112426666Y-52732380D02*
X111855238Y-52732380D01*
X112140952Y-52732380D02*
X112140952Y-51732380D01*
X112045714Y-51875238D01*
X111950476Y-51970476D01*
X111855238Y-52018095D01*
%TD*%
M02*
