%TF.GenerationSoftware,KiCad,Pcbnew,5.1.6-c6e7f7d~87~ubuntu18.04.1*%
%TF.CreationDate,2020-10-10T11:51:25+01:00*%
%TF.ProjectId,CFCard,43464361-7264-42e6-9b69-6361645f7063,rev?*%
%TF.SameCoordinates,Original*%
%TF.FileFunction,Legend,Top*%
%TF.FilePolarity,Positive*%
%FSLAX46Y46*%
G04 Gerber Fmt 4.6, Leading zero omitted, Abs format (unit mm)*
G04 Created by KiCad (PCBNEW 5.1.6-c6e7f7d~87~ubuntu18.04.1) date 2020-10-10 11:51:25*
%MOMM*%
%LPD*%
G01*
G04 APERTURE LIST*
%ADD10C,0.300000*%
%ADD11C,0.150000*%
%ADD12C,0.120000*%
G04 APERTURE END LIST*
D10*
X109760000Y-132528571D02*
X110260000Y-134028571D01*
X110760000Y-132528571D01*
X112117142Y-133885714D02*
X112045714Y-133957142D01*
X111831428Y-134028571D01*
X111688571Y-134028571D01*
X111474285Y-133957142D01*
X111331428Y-133814285D01*
X111260000Y-133671428D01*
X111188571Y-133385714D01*
X111188571Y-133171428D01*
X111260000Y-132885714D01*
X111331428Y-132742857D01*
X111474285Y-132600000D01*
X111688571Y-132528571D01*
X111831428Y-132528571D01*
X112045714Y-132600000D01*
X112117142Y-132671428D01*
X113617142Y-133885714D02*
X113545714Y-133957142D01*
X113331428Y-134028571D01*
X113188571Y-134028571D01*
X112974285Y-133957142D01*
X112831428Y-133814285D01*
X112760000Y-133671428D01*
X112688571Y-133385714D01*
X112688571Y-133171428D01*
X112760000Y-132885714D01*
X112831428Y-132742857D01*
X112974285Y-132600000D01*
X113188571Y-132528571D01*
X113331428Y-132528571D01*
X113545714Y-132600000D01*
X113617142Y-132671428D01*
D11*
X103227238Y-65311976D02*
X103179619Y-65454833D01*
X103179619Y-65692928D01*
X103227238Y-65788166D01*
X103274857Y-65835785D01*
X103370095Y-65883404D01*
X103465333Y-65883404D01*
X103560571Y-65835785D01*
X103608190Y-65788166D01*
X103655809Y-65692928D01*
X103703428Y-65502452D01*
X103751047Y-65407214D01*
X103798666Y-65359595D01*
X103893904Y-65311976D01*
X103989142Y-65311976D01*
X104084380Y-65359595D01*
X104132000Y-65407214D01*
X104179619Y-65502452D01*
X104179619Y-65740547D01*
X104132000Y-65883404D01*
X104322476Y-65597690D02*
X103036761Y-65597690D01*
X104179619Y-66216738D02*
X104179619Y-66835785D01*
X103798666Y-66502452D01*
X103798666Y-66645309D01*
X103751047Y-66740547D01*
X103703428Y-66788166D01*
X103608190Y-66835785D01*
X103370095Y-66835785D01*
X103274857Y-66788166D01*
X103227238Y-66740547D01*
X103179619Y-66645309D01*
X103179619Y-66359595D01*
X103227238Y-66264357D01*
X103274857Y-66216738D01*
X103751047Y-67407214D02*
X103798666Y-67311976D01*
X103846285Y-67264357D01*
X103941523Y-67216738D01*
X103989142Y-67216738D01*
X104084380Y-67264357D01*
X104132000Y-67311976D01*
X104179619Y-67407214D01*
X104179619Y-67597690D01*
X104132000Y-67692928D01*
X104084380Y-67740547D01*
X103989142Y-67788166D01*
X103941523Y-67788166D01*
X103846285Y-67740547D01*
X103798666Y-67692928D01*
X103751047Y-67597690D01*
X103751047Y-67407214D01*
X103703428Y-67311976D01*
X103655809Y-67264357D01*
X103560571Y-67216738D01*
X103370095Y-67216738D01*
X103274857Y-67264357D01*
X103227238Y-67311976D01*
X103179619Y-67407214D01*
X103179619Y-67597690D01*
X103227238Y-67692928D01*
X103274857Y-67740547D01*
X103370095Y-67788166D01*
X103560571Y-67788166D01*
X103655809Y-67740547D01*
X103703428Y-67692928D01*
X103751047Y-67597690D01*
X105767238Y-65311976D02*
X105719619Y-65454833D01*
X105719619Y-65692928D01*
X105767238Y-65788166D01*
X105814857Y-65835785D01*
X105910095Y-65883404D01*
X106005333Y-65883404D01*
X106100571Y-65835785D01*
X106148190Y-65788166D01*
X106195809Y-65692928D01*
X106243428Y-65502452D01*
X106291047Y-65407214D01*
X106338666Y-65359595D01*
X106433904Y-65311976D01*
X106529142Y-65311976D01*
X106624380Y-65359595D01*
X106672000Y-65407214D01*
X106719619Y-65502452D01*
X106719619Y-65740547D01*
X106672000Y-65883404D01*
X106862476Y-65597690D02*
X105576761Y-65597690D01*
X106719619Y-66216738D02*
X106719619Y-66835785D01*
X106338666Y-66502452D01*
X106338666Y-66645309D01*
X106291047Y-66740547D01*
X106243428Y-66788166D01*
X106148190Y-66835785D01*
X105910095Y-66835785D01*
X105814857Y-66788166D01*
X105767238Y-66740547D01*
X105719619Y-66645309D01*
X105719619Y-66359595D01*
X105767238Y-66264357D01*
X105814857Y-66216738D01*
X106719619Y-67454833D02*
X106719619Y-67550071D01*
X106672000Y-67645309D01*
X106624380Y-67692928D01*
X106529142Y-67740547D01*
X106338666Y-67788166D01*
X106100571Y-67788166D01*
X105910095Y-67740547D01*
X105814857Y-67692928D01*
X105767238Y-67645309D01*
X105719619Y-67550071D01*
X105719619Y-67454833D01*
X105767238Y-67359595D01*
X105814857Y-67311976D01*
X105910095Y-67264357D01*
X106100571Y-67216738D01*
X106338666Y-67216738D01*
X106529142Y-67264357D01*
X106624380Y-67311976D01*
X106672000Y-67359595D01*
X106719619Y-67454833D01*
X108307238Y-65311976D02*
X108259619Y-65454833D01*
X108259619Y-65692928D01*
X108307238Y-65788166D01*
X108354857Y-65835785D01*
X108450095Y-65883404D01*
X108545333Y-65883404D01*
X108640571Y-65835785D01*
X108688190Y-65788166D01*
X108735809Y-65692928D01*
X108783428Y-65502452D01*
X108831047Y-65407214D01*
X108878666Y-65359595D01*
X108973904Y-65311976D01*
X109069142Y-65311976D01*
X109164380Y-65359595D01*
X109212000Y-65407214D01*
X109259619Y-65502452D01*
X109259619Y-65740547D01*
X109212000Y-65883404D01*
X109402476Y-65597690D02*
X108116761Y-65597690D01*
X109164380Y-66264357D02*
X109212000Y-66311976D01*
X109259619Y-66407214D01*
X109259619Y-66645309D01*
X109212000Y-66740547D01*
X109164380Y-66788166D01*
X109069142Y-66835785D01*
X108973904Y-66835785D01*
X108831047Y-66788166D01*
X108259619Y-66216738D01*
X108259619Y-66835785D01*
X108831047Y-67407214D02*
X108878666Y-67311976D01*
X108926285Y-67264357D01*
X109021523Y-67216738D01*
X109069142Y-67216738D01*
X109164380Y-67264357D01*
X109212000Y-67311976D01*
X109259619Y-67407214D01*
X109259619Y-67597690D01*
X109212000Y-67692928D01*
X109164380Y-67740547D01*
X109069142Y-67788166D01*
X109021523Y-67788166D01*
X108926285Y-67740547D01*
X108878666Y-67692928D01*
X108831047Y-67597690D01*
X108831047Y-67407214D01*
X108783428Y-67311976D01*
X108735809Y-67264357D01*
X108640571Y-67216738D01*
X108450095Y-67216738D01*
X108354857Y-67264357D01*
X108307238Y-67311976D01*
X108259619Y-67407214D01*
X108259619Y-67597690D01*
X108307238Y-67692928D01*
X108354857Y-67740547D01*
X108450095Y-67788166D01*
X108640571Y-67788166D01*
X108735809Y-67740547D01*
X108783428Y-67692928D01*
X108831047Y-67597690D01*
X110847238Y-65311976D02*
X110799619Y-65454833D01*
X110799619Y-65692928D01*
X110847238Y-65788166D01*
X110894857Y-65835785D01*
X110990095Y-65883404D01*
X111085333Y-65883404D01*
X111180571Y-65835785D01*
X111228190Y-65788166D01*
X111275809Y-65692928D01*
X111323428Y-65502452D01*
X111371047Y-65407214D01*
X111418666Y-65359595D01*
X111513904Y-65311976D01*
X111609142Y-65311976D01*
X111704380Y-65359595D01*
X111752000Y-65407214D01*
X111799619Y-65502452D01*
X111799619Y-65740547D01*
X111752000Y-65883404D01*
X111942476Y-65597690D02*
X110656761Y-65597690D01*
X111704380Y-66264357D02*
X111752000Y-66311976D01*
X111799619Y-66407214D01*
X111799619Y-66645309D01*
X111752000Y-66740547D01*
X111704380Y-66788166D01*
X111609142Y-66835785D01*
X111513904Y-66835785D01*
X111371047Y-66788166D01*
X110799619Y-66216738D01*
X110799619Y-66835785D01*
X111799619Y-67454833D02*
X111799619Y-67550071D01*
X111752000Y-67645309D01*
X111704380Y-67692928D01*
X111609142Y-67740547D01*
X111418666Y-67788166D01*
X111180571Y-67788166D01*
X110990095Y-67740547D01*
X110894857Y-67692928D01*
X110847238Y-67645309D01*
X110799619Y-67550071D01*
X110799619Y-67454833D01*
X110847238Y-67359595D01*
X110894857Y-67311976D01*
X110990095Y-67264357D01*
X111180571Y-67216738D01*
X111418666Y-67216738D01*
X111609142Y-67264357D01*
X111704380Y-67311976D01*
X111752000Y-67359595D01*
X111799619Y-67454833D01*
X113387238Y-65311976D02*
X113339619Y-65454833D01*
X113339619Y-65692928D01*
X113387238Y-65788166D01*
X113434857Y-65835785D01*
X113530095Y-65883404D01*
X113625333Y-65883404D01*
X113720571Y-65835785D01*
X113768190Y-65788166D01*
X113815809Y-65692928D01*
X113863428Y-65502452D01*
X113911047Y-65407214D01*
X113958666Y-65359595D01*
X114053904Y-65311976D01*
X114149142Y-65311976D01*
X114244380Y-65359595D01*
X114292000Y-65407214D01*
X114339619Y-65502452D01*
X114339619Y-65740547D01*
X114292000Y-65883404D01*
X114482476Y-65597690D02*
X113196761Y-65597690D01*
X113339619Y-66835785D02*
X113339619Y-66264357D01*
X113339619Y-66550071D02*
X114339619Y-66550071D01*
X114196761Y-66454833D01*
X114101523Y-66359595D01*
X114053904Y-66264357D01*
X113911047Y-67407214D02*
X113958666Y-67311976D01*
X114006285Y-67264357D01*
X114101523Y-67216738D01*
X114149142Y-67216738D01*
X114244380Y-67264357D01*
X114292000Y-67311976D01*
X114339619Y-67407214D01*
X114339619Y-67597690D01*
X114292000Y-67692928D01*
X114244380Y-67740547D01*
X114149142Y-67788166D01*
X114101523Y-67788166D01*
X114006285Y-67740547D01*
X113958666Y-67692928D01*
X113911047Y-67597690D01*
X113911047Y-67407214D01*
X113863428Y-67311976D01*
X113815809Y-67264357D01*
X113720571Y-67216738D01*
X113530095Y-67216738D01*
X113434857Y-67264357D01*
X113387238Y-67311976D01*
X113339619Y-67407214D01*
X113339619Y-67597690D01*
X113387238Y-67692928D01*
X113434857Y-67740547D01*
X113530095Y-67788166D01*
X113720571Y-67788166D01*
X113815809Y-67740547D01*
X113863428Y-67692928D01*
X113911047Y-67597690D01*
X115927238Y-65311976D02*
X115879619Y-65454833D01*
X115879619Y-65692928D01*
X115927238Y-65788166D01*
X115974857Y-65835785D01*
X116070095Y-65883404D01*
X116165333Y-65883404D01*
X116260571Y-65835785D01*
X116308190Y-65788166D01*
X116355809Y-65692928D01*
X116403428Y-65502452D01*
X116451047Y-65407214D01*
X116498666Y-65359595D01*
X116593904Y-65311976D01*
X116689142Y-65311976D01*
X116784380Y-65359595D01*
X116832000Y-65407214D01*
X116879619Y-65502452D01*
X116879619Y-65740547D01*
X116832000Y-65883404D01*
X117022476Y-65597690D02*
X115736761Y-65597690D01*
X115879619Y-66835785D02*
X115879619Y-66264357D01*
X115879619Y-66550071D02*
X116879619Y-66550071D01*
X116736761Y-66454833D01*
X116641523Y-66359595D01*
X116593904Y-66264357D01*
X116879619Y-67454833D02*
X116879619Y-67550071D01*
X116832000Y-67645309D01*
X116784380Y-67692928D01*
X116689142Y-67740547D01*
X116498666Y-67788166D01*
X116260571Y-67788166D01*
X116070095Y-67740547D01*
X115974857Y-67692928D01*
X115927238Y-67645309D01*
X115879619Y-67550071D01*
X115879619Y-67454833D01*
X115927238Y-67359595D01*
X115974857Y-67311976D01*
X116070095Y-67264357D01*
X116260571Y-67216738D01*
X116498666Y-67216738D01*
X116689142Y-67264357D01*
X116784380Y-67311976D01*
X116832000Y-67359595D01*
X116879619Y-67454833D01*
X118467238Y-65311976D02*
X118419619Y-65454833D01*
X118419619Y-65692928D01*
X118467238Y-65788166D01*
X118514857Y-65835785D01*
X118610095Y-65883404D01*
X118705333Y-65883404D01*
X118800571Y-65835785D01*
X118848190Y-65788166D01*
X118895809Y-65692928D01*
X118943428Y-65502452D01*
X118991047Y-65407214D01*
X119038666Y-65359595D01*
X119133904Y-65311976D01*
X119229142Y-65311976D01*
X119324380Y-65359595D01*
X119372000Y-65407214D01*
X119419619Y-65502452D01*
X119419619Y-65740547D01*
X119372000Y-65883404D01*
X119562476Y-65597690D02*
X118276761Y-65597690D01*
X119419619Y-66502452D02*
X119419619Y-66597690D01*
X119372000Y-66692928D01*
X119324380Y-66740547D01*
X119229142Y-66788166D01*
X119038666Y-66835785D01*
X118800571Y-66835785D01*
X118610095Y-66788166D01*
X118514857Y-66740547D01*
X118467238Y-66692928D01*
X118419619Y-66597690D01*
X118419619Y-66502452D01*
X118467238Y-66407214D01*
X118514857Y-66359595D01*
X118610095Y-66311976D01*
X118800571Y-66264357D01*
X119038666Y-66264357D01*
X119229142Y-66311976D01*
X119324380Y-66359595D01*
X119372000Y-66407214D01*
X119419619Y-66502452D01*
X118991047Y-67407214D02*
X119038666Y-67311976D01*
X119086285Y-67264357D01*
X119181523Y-67216738D01*
X119229142Y-67216738D01*
X119324380Y-67264357D01*
X119372000Y-67311976D01*
X119419619Y-67407214D01*
X119419619Y-67597690D01*
X119372000Y-67692928D01*
X119324380Y-67740547D01*
X119229142Y-67788166D01*
X119181523Y-67788166D01*
X119086285Y-67740547D01*
X119038666Y-67692928D01*
X118991047Y-67597690D01*
X118991047Y-67407214D01*
X118943428Y-67311976D01*
X118895809Y-67264357D01*
X118800571Y-67216738D01*
X118610095Y-67216738D01*
X118514857Y-67264357D01*
X118467238Y-67311976D01*
X118419619Y-67407214D01*
X118419619Y-67597690D01*
X118467238Y-67692928D01*
X118514857Y-67740547D01*
X118610095Y-67788166D01*
X118800571Y-67788166D01*
X118895809Y-67740547D01*
X118943428Y-67692928D01*
X118991047Y-67597690D01*
X121007238Y-65311976D02*
X120959619Y-65454833D01*
X120959619Y-65692928D01*
X121007238Y-65788166D01*
X121054857Y-65835785D01*
X121150095Y-65883404D01*
X121245333Y-65883404D01*
X121340571Y-65835785D01*
X121388190Y-65788166D01*
X121435809Y-65692928D01*
X121483428Y-65502452D01*
X121531047Y-65407214D01*
X121578666Y-65359595D01*
X121673904Y-65311976D01*
X121769142Y-65311976D01*
X121864380Y-65359595D01*
X121912000Y-65407214D01*
X121959619Y-65502452D01*
X121959619Y-65740547D01*
X121912000Y-65883404D01*
X122102476Y-65597690D02*
X120816761Y-65597690D01*
X121959619Y-66502452D02*
X121959619Y-66597690D01*
X121912000Y-66692928D01*
X121864380Y-66740547D01*
X121769142Y-66788166D01*
X121578666Y-66835785D01*
X121340571Y-66835785D01*
X121150095Y-66788166D01*
X121054857Y-66740547D01*
X121007238Y-66692928D01*
X120959619Y-66597690D01*
X120959619Y-66502452D01*
X121007238Y-66407214D01*
X121054857Y-66359595D01*
X121150095Y-66311976D01*
X121340571Y-66264357D01*
X121578666Y-66264357D01*
X121769142Y-66311976D01*
X121864380Y-66359595D01*
X121912000Y-66407214D01*
X121959619Y-66502452D01*
X121959619Y-67454833D02*
X121959619Y-67550071D01*
X121912000Y-67645309D01*
X121864380Y-67692928D01*
X121769142Y-67740547D01*
X121578666Y-67788166D01*
X121340571Y-67788166D01*
X121150095Y-67740547D01*
X121054857Y-67692928D01*
X121007238Y-67645309D01*
X120959619Y-67550071D01*
X120959619Y-67454833D01*
X121007238Y-67359595D01*
X121054857Y-67311976D01*
X121150095Y-67264357D01*
X121340571Y-67216738D01*
X121578666Y-67216738D01*
X121769142Y-67264357D01*
X121864380Y-67311976D01*
X121912000Y-67359595D01*
X121959619Y-67454833D01*
X131785857Y-40277023D02*
X131738238Y-40229404D01*
X131690619Y-40086547D01*
X131690619Y-39991309D01*
X131738238Y-39848452D01*
X131833476Y-39753214D01*
X131928714Y-39705595D01*
X132119190Y-39657976D01*
X132262047Y-39657976D01*
X132452523Y-39705595D01*
X132547761Y-39753214D01*
X132643000Y-39848452D01*
X132690619Y-39991309D01*
X132690619Y-40086547D01*
X132643000Y-40229404D01*
X132595380Y-40277023D01*
X131690619Y-40848452D02*
X131738238Y-40753214D01*
X131785857Y-40705595D01*
X131881095Y-40657976D01*
X132166809Y-40657976D01*
X132262047Y-40705595D01*
X132309666Y-40753214D01*
X132357285Y-40848452D01*
X132357285Y-40991309D01*
X132309666Y-41086547D01*
X132262047Y-41134166D01*
X132166809Y-41181785D01*
X131881095Y-41181785D01*
X131785857Y-41134166D01*
X131738238Y-41086547D01*
X131690619Y-40991309D01*
X131690619Y-40848452D01*
X131690619Y-41610357D02*
X132357285Y-41610357D01*
X132262047Y-41610357D02*
X132309666Y-41657976D01*
X132357285Y-41753214D01*
X132357285Y-41896071D01*
X132309666Y-41991309D01*
X132214428Y-42038928D01*
X131690619Y-42038928D01*
X132214428Y-42038928D02*
X132309666Y-42086547D01*
X132357285Y-42181785D01*
X132357285Y-42324642D01*
X132309666Y-42419880D01*
X132214428Y-42467500D01*
X131690619Y-42467500D01*
X132357285Y-42943690D02*
X131357285Y-42943690D01*
X132309666Y-42943690D02*
X132357285Y-43038928D01*
X132357285Y-43229404D01*
X132309666Y-43324642D01*
X132262047Y-43372261D01*
X132166809Y-43419880D01*
X131881095Y-43419880D01*
X131785857Y-43372261D01*
X131738238Y-43324642D01*
X131690619Y-43229404D01*
X131690619Y-43038928D01*
X131738238Y-42943690D01*
X131690619Y-44277023D02*
X132214428Y-44277023D01*
X132309666Y-44229404D01*
X132357285Y-44134166D01*
X132357285Y-43943690D01*
X132309666Y-43848452D01*
X131738238Y-44277023D02*
X131690619Y-44181785D01*
X131690619Y-43943690D01*
X131738238Y-43848452D01*
X131833476Y-43800833D01*
X131928714Y-43800833D01*
X132023952Y-43848452D01*
X132071571Y-43943690D01*
X132071571Y-44181785D01*
X132119190Y-44277023D01*
X131738238Y-45181785D02*
X131690619Y-45086547D01*
X131690619Y-44896071D01*
X131738238Y-44800833D01*
X131785857Y-44753214D01*
X131881095Y-44705595D01*
X132166809Y-44705595D01*
X132262047Y-44753214D01*
X132309666Y-44800833D01*
X132357285Y-44896071D01*
X132357285Y-45086547D01*
X132309666Y-45181785D01*
X132357285Y-45467500D02*
X132357285Y-45848452D01*
X132690619Y-45610357D02*
X131833476Y-45610357D01*
X131738238Y-45657976D01*
X131690619Y-45753214D01*
X131690619Y-45848452D01*
X132214428Y-46515119D02*
X132214428Y-46181785D01*
X131690619Y-46181785D02*
X132690619Y-46181785D01*
X132690619Y-46657976D01*
X131690619Y-47181785D02*
X131738238Y-47086547D01*
X131833476Y-47038928D01*
X132690619Y-47038928D01*
X131690619Y-47991309D02*
X132214428Y-47991309D01*
X132309666Y-47943690D01*
X132357285Y-47848452D01*
X132357285Y-47657976D01*
X132309666Y-47562738D01*
X131738238Y-47991309D02*
X131690619Y-47896071D01*
X131690619Y-47657976D01*
X131738238Y-47562738D01*
X131833476Y-47515119D01*
X131928714Y-47515119D01*
X132023952Y-47562738D01*
X132071571Y-47657976D01*
X132071571Y-47896071D01*
X132119190Y-47991309D01*
X131738238Y-48419880D02*
X131690619Y-48515119D01*
X131690619Y-48705595D01*
X131738238Y-48800833D01*
X131833476Y-48848452D01*
X131881095Y-48848452D01*
X131976333Y-48800833D01*
X132023952Y-48705595D01*
X132023952Y-48562738D01*
X132071571Y-48467500D01*
X132166809Y-48419880D01*
X132214428Y-48419880D01*
X132309666Y-48467500D01*
X132357285Y-48562738D01*
X132357285Y-48705595D01*
X132309666Y-48800833D01*
X131690619Y-49277023D02*
X132690619Y-49277023D01*
X131690619Y-49705595D02*
X132214428Y-49705595D01*
X132309666Y-49657976D01*
X132357285Y-49562738D01*
X132357285Y-49419880D01*
X132309666Y-49324642D01*
X132262047Y-49277023D01*
X130040619Y-40277023D02*
X130516809Y-39943690D01*
X130040619Y-39705595D02*
X131040619Y-39705595D01*
X131040619Y-40086547D01*
X130993000Y-40181785D01*
X130945380Y-40229404D01*
X130850142Y-40277023D01*
X130707285Y-40277023D01*
X130612047Y-40229404D01*
X130564428Y-40181785D01*
X130516809Y-40086547D01*
X130516809Y-39705595D01*
X130088238Y-41086547D02*
X130040619Y-40991309D01*
X130040619Y-40800833D01*
X130088238Y-40705595D01*
X130183476Y-40657976D01*
X130564428Y-40657976D01*
X130659666Y-40705595D01*
X130707285Y-40800833D01*
X130707285Y-40991309D01*
X130659666Y-41086547D01*
X130564428Y-41134166D01*
X130469190Y-41134166D01*
X130373952Y-40657976D01*
X130707285Y-41467500D02*
X130040619Y-41705595D01*
X130707285Y-41943690D01*
X130135857Y-42324642D02*
X130088238Y-42372261D01*
X130040619Y-42324642D01*
X130088238Y-42277023D01*
X130135857Y-42324642D01*
X130040619Y-42324642D01*
X130945380Y-43515119D02*
X130993000Y-43562738D01*
X131040619Y-43657976D01*
X131040619Y-43896071D01*
X130993000Y-43991309D01*
X130945380Y-44038928D01*
X130850142Y-44086547D01*
X130754904Y-44086547D01*
X130612047Y-44038928D01*
X130040619Y-43467500D01*
X130040619Y-44086547D01*
D12*
%TO.C,J4*%
X118280000Y-132020000D02*
X118280000Y-137220000D01*
X118280000Y-137220000D02*
X120940000Y-137220000D01*
X120940000Y-137220000D02*
X120940000Y-132020000D01*
X120940000Y-132020000D02*
X118280000Y-132020000D01*
X120940000Y-132970000D02*
X126940000Y-132970000D01*
X126940000Y-132970000D02*
X126940000Y-133730000D01*
X126940000Y-133730000D02*
X120940000Y-133730000D01*
X120940000Y-133030000D02*
X126940000Y-133030000D01*
X120940000Y-133150000D02*
X126940000Y-133150000D01*
X120940000Y-133270000D02*
X126940000Y-133270000D01*
X120940000Y-133390000D02*
X126940000Y-133390000D01*
X120940000Y-133510000D02*
X126940000Y-133510000D01*
X120940000Y-133630000D02*
X126940000Y-133630000D01*
X117950000Y-132970000D02*
X118280000Y-132970000D01*
X117950000Y-133730000D02*
X118280000Y-133730000D01*
X118280000Y-134620000D02*
X120940000Y-134620000D01*
X120940000Y-135510000D02*
X126940000Y-135510000D01*
X126940000Y-135510000D02*
X126940000Y-136270000D01*
X126940000Y-136270000D02*
X120940000Y-136270000D01*
X117882929Y-135510000D02*
X118280000Y-135510000D01*
X117882929Y-136270000D02*
X118280000Y-136270000D01*
X115570000Y-133350000D02*
X115570000Y-132080000D01*
X115570000Y-132080000D02*
X116840000Y-132080000D01*
%TO.C,R4*%
X105950000Y-76430000D02*
X105950000Y-76100000D01*
X105950000Y-76100000D02*
X112490000Y-76100000D01*
X112490000Y-76100000D02*
X112490000Y-76430000D01*
X105950000Y-78510000D02*
X105950000Y-78840000D01*
X105950000Y-78840000D02*
X112490000Y-78840000D01*
X112490000Y-78840000D02*
X112490000Y-78510000D01*
%TO.C,R3*%
X130580000Y-48800000D02*
X130910000Y-48800000D01*
X130910000Y-48800000D02*
X130910000Y-55340000D01*
X130910000Y-55340000D02*
X130580000Y-55340000D01*
X128500000Y-48800000D02*
X128170000Y-48800000D01*
X128170000Y-48800000D02*
X128170000Y-55340000D01*
X128170000Y-55340000D02*
X128500000Y-55340000D01*
%TO.C,R2*%
X105950000Y-72620000D02*
X105950000Y-72290000D01*
X105950000Y-72290000D02*
X112490000Y-72290000D01*
X112490000Y-72290000D02*
X112490000Y-72620000D01*
X105950000Y-74700000D02*
X105950000Y-75030000D01*
X105950000Y-75030000D02*
X112490000Y-75030000D01*
X112490000Y-75030000D02*
X112490000Y-74700000D01*
%TO.C,R1*%
X105950000Y-80240000D02*
X105950000Y-79910000D01*
X105950000Y-79910000D02*
X112490000Y-79910000D01*
X112490000Y-79910000D02*
X112490000Y-80240000D01*
X105950000Y-82320000D02*
X105950000Y-82650000D01*
X105950000Y-82650000D02*
X112490000Y-82650000D01*
X112490000Y-82650000D02*
X112490000Y-82320000D01*
%TO.C,J1*%
X125210000Y-130940000D02*
X116090000Y-130940000D01*
X116090000Y-130940000D02*
X116090000Y-72260000D01*
X116090000Y-72260000D02*
X125210000Y-72260000D01*
X125210000Y-72260000D02*
X125210000Y-130940000D01*
X125210000Y-103650000D02*
X123900000Y-103650000D01*
X123900000Y-103650000D02*
X123900000Y-129640000D01*
X123900000Y-129640000D02*
X117400000Y-129640000D01*
X117400000Y-129640000D02*
X117400000Y-73560000D01*
X117400000Y-73560000D02*
X123900000Y-73560000D01*
X123900000Y-73560000D02*
X123900000Y-99550000D01*
X123900000Y-99550000D02*
X123900000Y-99550000D01*
X123900000Y-99550000D02*
X125210000Y-99550000D01*
X125600000Y-125730000D02*
X126600000Y-126230000D01*
X126600000Y-126230000D02*
X126600000Y-125230000D01*
X126600000Y-125230000D02*
X125600000Y-125730000D01*
%TO.C,D1*%
X129311130Y-62039837D02*
G75*
G02*
X127229039Y-62040000I-1041130J1079837D01*
G01*
X129311130Y-59880163D02*
G75*
G03*
X127229039Y-59880000I-1041130J-1079837D01*
G01*
X129942335Y-62038608D02*
G75*
G02*
X126710000Y-62195516I-1672335J1078608D01*
G01*
X129942335Y-59881392D02*
G75*
G03*
X126710000Y-59724484I-1672335J-1078608D01*
G01*
X126710000Y-59724000D02*
X126710000Y-59880000D01*
X126710000Y-62040000D02*
X126710000Y-62196000D01*
%TO.C,R6*%
X103278000Y-43402000D02*
X103608000Y-43402000D01*
X103278000Y-36862000D02*
X103278000Y-43402000D01*
X103608000Y-36862000D02*
X103278000Y-36862000D01*
X106018000Y-43402000D02*
X105688000Y-43402000D01*
X106018000Y-36862000D02*
X106018000Y-43402000D01*
X105688000Y-36862000D02*
X106018000Y-36862000D01*
%TO.C,U1*%
X126806000Y-39132000D02*
X126806000Y-37482000D01*
X126806000Y-37482000D02*
X108906000Y-37482000D01*
X108906000Y-37482000D02*
X108906000Y-42782000D01*
X108906000Y-42782000D02*
X126806000Y-42782000D01*
X126806000Y-42782000D02*
X126806000Y-41132000D01*
X126806000Y-41132000D02*
G75*
G02*
X126806000Y-39132000I0J1000000D01*
G01*
%TO.C,U2*%
X122742000Y-51832000D02*
X122742000Y-50182000D01*
X122742000Y-50182000D02*
X102302000Y-50182000D01*
X102302000Y-50182000D02*
X102302000Y-55482000D01*
X102302000Y-55482000D02*
X122742000Y-55482000D01*
X122742000Y-55482000D02*
X122742000Y-53832000D01*
X122742000Y-53832000D02*
G75*
G02*
X122742000Y-51832000I0J1000000D01*
G01*
%TO.C,J3*%
X102302000Y-59122000D02*
X102302000Y-64322000D01*
X120142000Y-59122000D02*
X102302000Y-59122000D01*
X122742000Y-64322000D02*
X102302000Y-64322000D01*
X120142000Y-59122000D02*
X120142000Y-61722000D01*
X120142000Y-61722000D02*
X122742000Y-61722000D01*
X122742000Y-61722000D02*
X122742000Y-64322000D01*
X121412000Y-59122000D02*
X122742000Y-59122000D01*
X122742000Y-59122000D02*
X122742000Y-60452000D01*
%TO.C,J2*%
X83760000Y-137220000D02*
X86420000Y-137220000D01*
X83760000Y-38100000D02*
X83760000Y-137220000D01*
X86420000Y-38100000D02*
X86420000Y-137220000D01*
X83760000Y-38100000D02*
X86420000Y-38100000D01*
X83760000Y-36830000D02*
X83760000Y-35500000D01*
X83760000Y-35500000D02*
X85090000Y-35500000D01*
%TO.C,J4*%
D11*
X120891666Y-130532380D02*
X120891666Y-131246666D01*
X120844047Y-131389523D01*
X120748809Y-131484761D01*
X120605952Y-131532380D01*
X120510714Y-131532380D01*
X121796428Y-130865714D02*
X121796428Y-131532380D01*
X121558333Y-130484761D02*
X121320238Y-131199047D01*
X121939285Y-131199047D01*
%TO.C,R4*%
X109053333Y-75552380D02*
X108720000Y-75076190D01*
X108481904Y-75552380D02*
X108481904Y-74552380D01*
X108862857Y-74552380D01*
X108958095Y-74600000D01*
X109005714Y-74647619D01*
X109053333Y-74742857D01*
X109053333Y-74885714D01*
X109005714Y-74980952D01*
X108958095Y-75028571D01*
X108862857Y-75076190D01*
X108481904Y-75076190D01*
X109910476Y-74885714D02*
X109910476Y-75552380D01*
X109672380Y-74504761D02*
X109434285Y-75219047D01*
X110053333Y-75219047D01*
%TO.C,R3*%
X132362380Y-52236666D02*
X131886190Y-52570000D01*
X132362380Y-52808095D02*
X131362380Y-52808095D01*
X131362380Y-52427142D01*
X131410000Y-52331904D01*
X131457619Y-52284285D01*
X131552857Y-52236666D01*
X131695714Y-52236666D01*
X131790952Y-52284285D01*
X131838571Y-52331904D01*
X131886190Y-52427142D01*
X131886190Y-52808095D01*
X131362380Y-51903333D02*
X131362380Y-51284285D01*
X131743333Y-51617619D01*
X131743333Y-51474761D01*
X131790952Y-51379523D01*
X131838571Y-51331904D01*
X131933809Y-51284285D01*
X132171904Y-51284285D01*
X132267142Y-51331904D01*
X132314761Y-51379523D01*
X132362380Y-51474761D01*
X132362380Y-51760476D01*
X132314761Y-51855714D01*
X132267142Y-51903333D01*
%TO.C,R2*%
X109053333Y-71742380D02*
X108720000Y-71266190D01*
X108481904Y-71742380D02*
X108481904Y-70742380D01*
X108862857Y-70742380D01*
X108958095Y-70790000D01*
X109005714Y-70837619D01*
X109053333Y-70932857D01*
X109053333Y-71075714D01*
X109005714Y-71170952D01*
X108958095Y-71218571D01*
X108862857Y-71266190D01*
X108481904Y-71266190D01*
X109434285Y-70837619D02*
X109481904Y-70790000D01*
X109577142Y-70742380D01*
X109815238Y-70742380D01*
X109910476Y-70790000D01*
X109958095Y-70837619D01*
X110005714Y-70932857D01*
X110005714Y-71028095D01*
X109958095Y-71170952D01*
X109386666Y-71742380D01*
X110005714Y-71742380D01*
%TO.C,R1*%
X109053333Y-79362380D02*
X108720000Y-78886190D01*
X108481904Y-79362380D02*
X108481904Y-78362380D01*
X108862857Y-78362380D01*
X108958095Y-78410000D01*
X109005714Y-78457619D01*
X109053333Y-78552857D01*
X109053333Y-78695714D01*
X109005714Y-78790952D01*
X108958095Y-78838571D01*
X108862857Y-78886190D01*
X108481904Y-78886190D01*
X110005714Y-79362380D02*
X109434285Y-79362380D01*
X109720000Y-79362380D02*
X109720000Y-78362380D01*
X109624761Y-78505238D01*
X109529523Y-78600476D01*
X109434285Y-78648095D01*
%TO.C,J1*%
X120316666Y-131282380D02*
X120316666Y-131996666D01*
X120269047Y-132139523D01*
X120173809Y-132234761D01*
X120030952Y-132282380D01*
X119935714Y-132282380D01*
X121316666Y-132282380D02*
X120745238Y-132282380D01*
X121030952Y-132282380D02*
X121030952Y-131282380D01*
X120935714Y-131425238D01*
X120840476Y-131520476D01*
X120745238Y-131568095D01*
%TO.C,D1*%
X127531904Y-58452380D02*
X127531904Y-57452380D01*
X127770000Y-57452380D01*
X127912857Y-57500000D01*
X128008095Y-57595238D01*
X128055714Y-57690476D01*
X128103333Y-57880952D01*
X128103333Y-58023809D01*
X128055714Y-58214285D01*
X128008095Y-58309523D01*
X127912857Y-58404761D01*
X127770000Y-58452380D01*
X127531904Y-58452380D01*
X129055714Y-58452380D02*
X128484285Y-58452380D01*
X128770000Y-58452380D02*
X128770000Y-57452380D01*
X128674761Y-57595238D01*
X128579523Y-57690476D01*
X128484285Y-57738095D01*
%TO.C,R6*%
X105100380Y-40298666D02*
X104624190Y-40632000D01*
X105100380Y-40870095D02*
X104100380Y-40870095D01*
X104100380Y-40489142D01*
X104148000Y-40393904D01*
X104195619Y-40346285D01*
X104290857Y-40298666D01*
X104433714Y-40298666D01*
X104528952Y-40346285D01*
X104576571Y-40393904D01*
X104624190Y-40489142D01*
X104624190Y-40870095D01*
X104100380Y-39441523D02*
X104100380Y-39632000D01*
X104148000Y-39727238D01*
X104195619Y-39774857D01*
X104338476Y-39870095D01*
X104528952Y-39917714D01*
X104909904Y-39917714D01*
X105005142Y-39870095D01*
X105052761Y-39822476D01*
X105100380Y-39727238D01*
X105100380Y-39536761D01*
X105052761Y-39441523D01*
X105005142Y-39393904D01*
X104909904Y-39346285D01*
X104671809Y-39346285D01*
X104576571Y-39393904D01*
X104528952Y-39441523D01*
X104481333Y-39536761D01*
X104481333Y-39727238D01*
X104528952Y-39822476D01*
X104576571Y-39870095D01*
X104671809Y-39917714D01*
%TO.C,U1*%
X124420380Y-40893904D02*
X125229904Y-40893904D01*
X125325142Y-40846285D01*
X125372761Y-40798666D01*
X125420380Y-40703428D01*
X125420380Y-40512952D01*
X125372761Y-40417714D01*
X125325142Y-40370095D01*
X125229904Y-40322476D01*
X124420380Y-40322476D01*
X125420380Y-39322476D02*
X125420380Y-39893904D01*
X125420380Y-39608190D02*
X124420380Y-39608190D01*
X124563238Y-39703428D01*
X124658476Y-39798666D01*
X124706095Y-39893904D01*
%TO.C,U2*%
X120356380Y-53593904D02*
X121165904Y-53593904D01*
X121261142Y-53546285D01*
X121308761Y-53498666D01*
X121356380Y-53403428D01*
X121356380Y-53212952D01*
X121308761Y-53117714D01*
X121261142Y-53070095D01*
X121165904Y-53022476D01*
X120356380Y-53022476D01*
X120451619Y-52593904D02*
X120404000Y-52546285D01*
X120356380Y-52451047D01*
X120356380Y-52212952D01*
X120404000Y-52117714D01*
X120451619Y-52070095D01*
X120546857Y-52022476D01*
X120642095Y-52022476D01*
X120784952Y-52070095D01*
X121356380Y-52641523D01*
X121356380Y-52022476D01*
%TO.C,J3*%
X100798380Y-62055333D02*
X101512666Y-62055333D01*
X101655523Y-62102952D01*
X101750761Y-62198190D01*
X101798380Y-62341047D01*
X101798380Y-62436285D01*
X100798380Y-61674380D02*
X100798380Y-61055333D01*
X101179333Y-61388666D01*
X101179333Y-61245809D01*
X101226952Y-61150571D01*
X101274571Y-61102952D01*
X101369809Y-61055333D01*
X101607904Y-61055333D01*
X101703142Y-61102952D01*
X101750761Y-61150571D01*
X101798380Y-61245809D01*
X101798380Y-61531523D01*
X101750761Y-61626761D01*
X101703142Y-61674380D01*
%TO.C,J2*%
X84756666Y-33952380D02*
X84756666Y-34666666D01*
X84709047Y-34809523D01*
X84613809Y-34904761D01*
X84470952Y-34952380D01*
X84375714Y-34952380D01*
X85185238Y-34047619D02*
X85232857Y-34000000D01*
X85328095Y-33952380D01*
X85566190Y-33952380D01*
X85661428Y-34000000D01*
X85709047Y-34047619D01*
X85756666Y-34142857D01*
X85756666Y-34238095D01*
X85709047Y-34380952D01*
X85137619Y-34952380D01*
X85756666Y-34952380D01*
%TD*%
M02*
