%TF.GenerationSoftware,KiCad,Pcbnew,5.1.6-c6e7f7d~87~ubuntu18.04.1*%
%TF.CreationDate,2020-10-10T11:51:25+01:00*%
%TF.ProjectId,CFCard,43464361-7264-42e6-9b69-6361645f7063,rev?*%
%TF.SameCoordinates,Original*%
%TF.FileFunction,Copper,L1,Top*%
%TF.FilePolarity,Positive*%
%FSLAX46Y46*%
G04 Gerber Fmt 4.6, Leading zero omitted, Abs format (unit mm)*
G04 Created by KiCad (PCBNEW 5.1.6-c6e7f7d~87~ubuntu18.04.1) date 2020-10-10 11:51:25*
%MOMM*%
%LPD*%
G01*
G04 APERTURE LIST*
%TA.AperFunction,ComponentPad*%
%ADD10O,1.700000X1.700000*%
%TD*%
%TA.AperFunction,ComponentPad*%
%ADD11R,1.700000X1.700000*%
%TD*%
%TA.AperFunction,ComponentPad*%
%ADD12O,1.600000X1.600000*%
%TD*%
%TA.AperFunction,ComponentPad*%
%ADD13C,1.600000*%
%TD*%
%TA.AperFunction,ComponentPad*%
%ADD14C,1.700000*%
%TD*%
%TA.AperFunction,ComponentPad*%
%ADD15C,1.800000*%
%TD*%
%TA.AperFunction,ComponentPad*%
%ADD16R,1.800000X1.800000*%
%TD*%
%TA.AperFunction,ComponentPad*%
%ADD17R,1.600000X1.600000*%
%TD*%
%TA.AperFunction,ViaPad*%
%ADD18C,0.800000*%
%TD*%
%TA.AperFunction,Conductor*%
%ADD19C,0.250000*%
%TD*%
G04 APERTURE END LIST*
D10*
%TO.P,J4,2*%
%TO.N,GND*%
X116840000Y-135890000D03*
D11*
%TO.P,J4,1*%
%TO.N,+5V*%
X116840000Y-133350000D03*
%TD*%
D12*
%TO.P,R4,2*%
%TO.N,Net-(J1-Pad29)*%
X113030000Y-77470000D03*
D13*
%TO.P,R4,1*%
%TO.N,+5V*%
X105410000Y-77470000D03*
%TD*%
D12*
%TO.P,R3,2*%
%TO.N,Net-(D1-Pad2)*%
X129540000Y-55880000D03*
D13*
%TO.P,R3,1*%
%TO.N,+5V*%
X129540000Y-48260000D03*
%TD*%
D12*
%TO.P,R2,2*%
%TO.N,Net-(J1-Pad38)*%
X113030000Y-73660000D03*
D13*
%TO.P,R2,1*%
%TO.N,+5V*%
X105410000Y-73660000D03*
%TD*%
D12*
%TO.P,R1,2*%
%TO.N,Net-(J1-Pad34)*%
X113030000Y-81280000D03*
D13*
%TO.P,R1,1*%
%TO.N,+5V*%
X105410000Y-81280000D03*
%TD*%
D14*
%TO.P,J1,40*%
%TO.N,GND*%
X119380000Y-77470000D03*
%TO.P,J1,38*%
%TO.N,Net-(J1-Pad38)*%
X119380000Y-80010000D03*
%TO.P,J1,36*%
%TO.N,A2*%
X119380000Y-82550000D03*
%TO.P,J1,34*%
%TO.N,Net-(J1-Pad34)*%
X119380000Y-85090000D03*
%TO.P,J1,32*%
%TO.N,Net-(J1-Pad32)*%
X119380000Y-87630000D03*
%TO.P,J1,30*%
%TO.N,GND*%
X119380000Y-90170000D03*
%TO.P,J1,28*%
X119380000Y-92710000D03*
%TO.P,J1,26*%
X119380000Y-95250000D03*
%TO.P,J1,24*%
X119380000Y-97790000D03*
%TO.P,J1,22*%
X119380000Y-100330000D03*
%TO.P,J1,20*%
%TO.N,Net-(J1-Pad20)*%
X119380000Y-102870000D03*
%TO.P,J1,18*%
%TO.N,Net-(J1-Pad18)*%
X119380000Y-105410000D03*
%TO.P,J1,16*%
%TO.N,Net-(J1-Pad16)*%
X119380000Y-107950000D03*
%TO.P,J1,14*%
%TO.N,Net-(J1-Pad14)*%
X119380000Y-110490000D03*
%TO.P,J1,12*%
%TO.N,Net-(J1-Pad12)*%
X119380000Y-113030000D03*
%TO.P,J1,10*%
%TO.N,Net-(J1-Pad10)*%
X119380000Y-115570000D03*
%TO.P,J1,8*%
%TO.N,Net-(J1-Pad8)*%
X119380000Y-118110000D03*
%TO.P,J1,6*%
%TO.N,Net-(J1-Pad6)*%
X119380000Y-120650000D03*
%TO.P,J1,4*%
%TO.N,Net-(J1-Pad4)*%
X119380000Y-123190000D03*
%TO.P,J1,2*%
%TO.N,GND*%
X119380000Y-125730000D03*
%TO.P,J1,39*%
%TO.N,Net-(D1-Pad1)*%
X121920000Y-77470000D03*
%TO.P,J1,37*%
%TO.N,CS0*%
X121920000Y-80010000D03*
%TO.P,J1,35*%
%TO.N,A0*%
X121920000Y-82550000D03*
%TO.P,J1,33*%
%TO.N,A1*%
X121920000Y-85090000D03*
%TO.P,J1,31*%
%TO.N,Net-(J1-Pad31)*%
X121920000Y-87630000D03*
%TO.P,J1,29*%
%TO.N,Net-(J1-Pad29)*%
X121920000Y-90170000D03*
%TO.P,J1,27*%
%TO.N,Net-(J1-Pad27)*%
X121920000Y-92710000D03*
%TO.P,J1,25*%
%TO.N,IORD*%
X121920000Y-95250000D03*
%TO.P,J1,23*%
%TO.N,IOWR*%
X121920000Y-97790000D03*
%TO.P,J1,21*%
%TO.N,Net-(J1-Pad21)*%
X121920000Y-100330000D03*
%TO.P,J1,19*%
%TO.N,GND*%
X121920000Y-102870000D03*
%TO.P,J1,17*%
%TO.N,D0*%
X121920000Y-105410000D03*
%TO.P,J1,15*%
%TO.N,D1*%
X121920000Y-107950000D03*
%TO.P,J1,13*%
%TO.N,D2*%
X121920000Y-110490000D03*
%TO.P,J1,11*%
%TO.N,D3*%
X121920000Y-113030000D03*
%TO.P,J1,9*%
%TO.N,D4*%
X121920000Y-115570000D03*
%TO.P,J1,7*%
%TO.N,D5*%
X121920000Y-118110000D03*
%TO.P,J1,5*%
%TO.N,D6*%
X121920000Y-120650000D03*
%TO.P,J1,3*%
%TO.N,D7*%
X121920000Y-123190000D03*
%TO.P,J1,1*%
%TO.N,RESET*%
%TA.AperFunction,ComponentPad*%
G36*
G01*
X122770000Y-125130000D02*
X122770000Y-126330000D01*
G75*
G02*
X122520000Y-126580000I-250000J0D01*
G01*
X121320000Y-126580000D01*
G75*
G02*
X121070000Y-126330000I0J250000D01*
G01*
X121070000Y-125130000D01*
G75*
G02*
X121320000Y-124880000I250000J0D01*
G01*
X122520000Y-124880000D01*
G75*
G02*
X122770000Y-125130000I0J-250000D01*
G01*
G37*
%TD.AperFunction*%
%TD*%
D15*
%TO.P,D1,2*%
%TO.N,Net-(D1-Pad2)*%
X129540000Y-60960000D03*
D16*
%TO.P,D1,1*%
%TO.N,Net-(D1-Pad1)*%
X127000000Y-60960000D03*
%TD*%
D12*
%TO.P,R6,2*%
%TO.N,Net-(R6-Pad2)*%
X104648000Y-43942000D03*
D13*
%TO.P,R6,1*%
%TO.N,+5V*%
X104648000Y-36322000D03*
%TD*%
D17*
%TO.P,U1,1*%
%TO.N,Net-(J2-Pad15)*%
X125476000Y-36322000D03*
D12*
%TO.P,U1,8*%
%TO.N,Net-(U1-Pad8)*%
X110236000Y-43942000D03*
%TO.P,U1,2*%
%TO.N,Net-(J2-Pad17)*%
X122936000Y-36322000D03*
%TO.P,U1,9*%
%TO.N,A6*%
X112776000Y-43942000D03*
%TO.P,U1,3*%
%TO.N,IOWR*%
X120396000Y-36322000D03*
%TO.P,U1,10*%
%TO.N,A7*%
X115316000Y-43942000D03*
%TO.P,U1,4*%
%TO.N,Net-(J2-Pad16)*%
X117856000Y-36322000D03*
%TO.P,U1,11*%
%TO.N,Net-(U1-Pad11)*%
X117856000Y-43942000D03*
%TO.P,U1,5*%
%TO.N,Net-(J2-Pad15)*%
X115316000Y-36322000D03*
%TO.P,U1,12*%
%TO.N,GND*%
X120396000Y-43942000D03*
%TO.P,U1,6*%
%TO.N,IORD*%
X112776000Y-36322000D03*
%TO.P,U1,13*%
%TO.N,GND*%
X122936000Y-43942000D03*
%TO.P,U1,7*%
X110236000Y-36322000D03*
%TO.P,U1,14*%
%TO.N,+5V*%
X125476000Y-43942000D03*
%TD*%
D17*
%TO.P,U2,1*%
%TO.N,A3*%
X121412000Y-49022000D03*
D12*
%TO.P,U2,9*%
%TO.N,Net-(J3-Pad13)*%
X103632000Y-56642000D03*
%TO.P,U2,2*%
%TO.N,A4*%
X118872000Y-49022000D03*
%TO.P,U2,10*%
%TO.N,Net-(J3-Pad11)*%
X106172000Y-56642000D03*
%TO.P,U2,3*%
%TO.N,A5*%
X116332000Y-49022000D03*
%TO.P,U2,11*%
%TO.N,Net-(J3-Pad9)*%
X108712000Y-56642000D03*
%TO.P,U2,4*%
%TO.N,Net-(U1-Pad8)*%
X113792000Y-49022000D03*
%TO.P,U2,12*%
%TO.N,Net-(J3-Pad7)*%
X111252000Y-56642000D03*
%TO.P,U2,5*%
%TO.N,Net-(J2-Pad15)*%
X111252000Y-49022000D03*
%TO.P,U2,13*%
%TO.N,Net-(J3-Pad5)*%
X113792000Y-56642000D03*
%TO.P,U2,6*%
%TO.N,Net-(R6-Pad2)*%
X108712000Y-49022000D03*
%TO.P,U2,14*%
%TO.N,Net-(J3-Pad3)*%
X116332000Y-56642000D03*
%TO.P,U2,7*%
%TO.N,Net-(J3-Pad15)*%
X106172000Y-49022000D03*
%TO.P,U2,15*%
%TO.N,Net-(J3-Pad1)*%
X118872000Y-56642000D03*
%TO.P,U2,8*%
%TO.N,GND*%
X103632000Y-49022000D03*
%TO.P,U2,16*%
%TO.N,+5V*%
X121412000Y-56642000D03*
%TD*%
D11*
%TO.P,J3,1*%
%TO.N,Net-(J3-Pad1)*%
X121412000Y-60452000D03*
D10*
%TO.P,J3,2*%
%TO.N,CS0*%
X121412000Y-62992000D03*
%TO.P,J3,3*%
%TO.N,Net-(J3-Pad3)*%
X118872000Y-60452000D03*
%TO.P,J3,4*%
%TO.N,CS0*%
X118872000Y-62992000D03*
%TO.P,J3,5*%
%TO.N,Net-(J3-Pad5)*%
X116332000Y-60452000D03*
%TO.P,J3,6*%
%TO.N,CS0*%
X116332000Y-62992000D03*
%TO.P,J3,7*%
%TO.N,Net-(J3-Pad7)*%
X113792000Y-60452000D03*
%TO.P,J3,8*%
%TO.N,CS0*%
X113792000Y-62992000D03*
%TO.P,J3,9*%
%TO.N,Net-(J3-Pad9)*%
X111252000Y-60452000D03*
%TO.P,J3,10*%
%TO.N,CS0*%
X111252000Y-62992000D03*
%TO.P,J3,11*%
%TO.N,Net-(J3-Pad11)*%
X108712000Y-60452000D03*
%TO.P,J3,12*%
%TO.N,CS0*%
X108712000Y-62992000D03*
%TO.P,J3,13*%
%TO.N,Net-(J3-Pad13)*%
X106172000Y-60452000D03*
%TO.P,J3,14*%
%TO.N,CS0*%
X106172000Y-62992000D03*
%TO.P,J3,15*%
%TO.N,Net-(J3-Pad15)*%
X103632000Y-60452000D03*
%TO.P,J3,16*%
%TO.N,CS0*%
X103632000Y-62992000D03*
%TD*%
D11*
%TO.P,J2,1*%
%TO.N,+5V*%
X85090000Y-36830000D03*
D10*
%TO.P,J2,2*%
%TO.N,GND*%
X85090000Y-39370000D03*
%TO.P,J2,3*%
%TO.N,Net-(J2-Pad3)*%
X85090000Y-41910000D03*
%TO.P,J2,4*%
%TO.N,RESET*%
X85090000Y-44450000D03*
%TO.P,J2,5*%
%TO.N,Net-(J2-Pad5)*%
X85090000Y-46990000D03*
%TO.P,J2,6*%
%TO.N,D0*%
X85090000Y-49530000D03*
%TO.P,J2,7*%
%TO.N,D1*%
X85090000Y-52070000D03*
%TO.P,J2,8*%
%TO.N,D2*%
X85090000Y-54610000D03*
%TO.P,J2,9*%
%TO.N,D3*%
X85090000Y-57150000D03*
%TO.P,J2,10*%
%TO.N,D4*%
X85090000Y-59690000D03*
%TO.P,J2,11*%
%TO.N,D5*%
X85090000Y-62230000D03*
%TO.P,J2,12*%
%TO.N,D6*%
X85090000Y-64770000D03*
%TO.P,J2,13*%
%TO.N,D7*%
X85090000Y-67310000D03*
%TO.P,J2,14*%
%TO.N,Net-(J2-Pad14)*%
X85090000Y-69850000D03*
%TO.P,J2,15*%
%TO.N,Net-(J2-Pad15)*%
X85090000Y-72390000D03*
%TO.P,J2,16*%
%TO.N,Net-(J2-Pad16)*%
X85090000Y-74930000D03*
%TO.P,J2,17*%
%TO.N,Net-(J2-Pad17)*%
X85090000Y-77470000D03*
%TO.P,J2,18*%
%TO.N,Net-(J2-Pad18)*%
X85090000Y-80010000D03*
%TO.P,J2,19*%
%TO.N,A0*%
X85090000Y-82550000D03*
%TO.P,J2,20*%
%TO.N,A1*%
X85090000Y-85090000D03*
%TO.P,J2,21*%
%TO.N,A2*%
X85090000Y-87630000D03*
%TO.P,J2,22*%
%TO.N,A3*%
X85090000Y-90170000D03*
%TO.P,J2,23*%
%TO.N,A4*%
X85090000Y-92710000D03*
%TO.P,J2,24*%
%TO.N,A5*%
X85090000Y-95250000D03*
%TO.P,J2,25*%
%TO.N,A6*%
X85090000Y-97790000D03*
%TO.P,J2,26*%
%TO.N,A7*%
X85090000Y-100330000D03*
%TO.P,J2,27*%
%TO.N,Net-(J2-Pad27)*%
X85090000Y-102870000D03*
%TO.P,J2,28*%
%TO.N,Net-(J2-Pad28)*%
X85090000Y-105410000D03*
%TO.P,J2,29*%
%TO.N,Net-(J2-Pad29)*%
X85090000Y-107950000D03*
%TO.P,J2,30*%
%TO.N,Net-(J2-Pad30)*%
X85090000Y-110490000D03*
%TO.P,J2,31*%
%TO.N,Net-(J2-Pad31)*%
X85090000Y-113030000D03*
%TO.P,J2,32*%
%TO.N,Net-(J2-Pad32)*%
X85090000Y-115570000D03*
%TO.P,J2,33*%
%TO.N,Net-(J2-Pad33)*%
X85090000Y-118110000D03*
%TO.P,J2,34*%
%TO.N,Net-(J2-Pad34)*%
X85090000Y-120650000D03*
%TO.P,J2,35*%
%TO.N,Net-(J2-Pad35)*%
X85090000Y-123190000D03*
%TO.P,J2,36*%
%TO.N,Net-(J2-Pad36)*%
X85090000Y-125730000D03*
%TO.P,J2,37*%
%TO.N,Net-(J2-Pad37)*%
X85090000Y-128270000D03*
%TO.P,J2,38*%
%TO.N,Net-(J2-Pad38)*%
X85090000Y-130810000D03*
%TO.P,J2,39*%
%TO.N,Net-(J2-Pad39)*%
X85090000Y-133350000D03*
%TO.P,J2,40*%
%TO.N,Net-(J2-Pad40)*%
X85090000Y-135890000D03*
%TD*%
D18*
%TO.N,A0*%
X96520000Y-82550000D03*
X107950000Y-82550000D03*
%TO.N,A1*%
X96520000Y-85090000D03*
%TO.N,A2*%
X96520000Y-87630000D03*
X114300000Y-87630000D03*
%TO.N,RESET*%
X87630000Y-71120000D03*
%TO.N,+5V*%
X105410000Y-92710000D03*
X105410000Y-102870000D03*
%TO.N,IORD*%
X103124000Y-42164000D03*
X102870000Y-81280000D03*
%TO.N,A7*%
X123227190Y-47740040D03*
%TO.N,A6*%
X116078000Y-53848000D03*
%TO.N,A5*%
X101600000Y-53442430D03*
%TO.N,Net-(J2-Pad16)*%
X114300000Y-41910000D03*
%TO.N,Net-(J2-Pad15)*%
X111760000Y-41910000D03*
%TD*%
D19*
%TO.N,Net-(J1-Pad29)*%
X123095001Y-88994999D02*
X121920000Y-90170000D01*
X122484001Y-81374999D02*
X123095001Y-81985999D01*
X123095001Y-81985999D02*
X123095001Y-88994999D01*
X120744999Y-80574001D02*
X121545997Y-81374999D01*
X121545997Y-81374999D02*
X122484001Y-81374999D01*
X119944001Y-78834999D02*
X120744999Y-79635997D01*
X114394999Y-78834999D02*
X119944001Y-78834999D01*
X120744999Y-79635997D02*
X120744999Y-80574001D01*
X113030000Y-77470000D02*
X114394999Y-78834999D01*
%TO.N,Net-(D1-Pad2)*%
X129540000Y-55880000D02*
X129540000Y-60960000D01*
%TO.N,Net-(D1-Pad1)*%
X121920000Y-77470000D02*
X121920000Y-72390000D01*
X127000000Y-67310000D02*
X127000000Y-60960000D01*
X121920000Y-72390000D02*
X127000000Y-67310000D01*
%TO.N,D2*%
X85090000Y-54610000D02*
X94430010Y-63950010D01*
X94430010Y-63950010D02*
X94430010Y-107130010D01*
X120744999Y-109314999D02*
X121920000Y-110490000D01*
X96614999Y-109314999D02*
X120744999Y-109314999D01*
X94430010Y-107130010D02*
X96614999Y-109314999D01*
%TO.N,D1*%
X85090000Y-52070000D02*
X95250000Y-62230000D01*
X95250000Y-62230000D02*
X95250000Y-105410000D01*
X120744999Y-106774999D02*
X121920000Y-107950000D01*
X96614999Y-106774999D02*
X120744999Y-106774999D01*
X95250000Y-105410000D02*
X96614999Y-106774999D01*
%TO.N,D0*%
X85090000Y-49530000D02*
X95700010Y-60140010D01*
X95700010Y-60140010D02*
X95700010Y-102050010D01*
X120744999Y-104234999D02*
X121920000Y-105410000D01*
X97884999Y-104234999D02*
X120744999Y-104234999D01*
X95700010Y-102050010D02*
X97884999Y-104234999D01*
%TO.N,A0*%
X96520000Y-82550000D02*
X101600000Y-82550000D01*
X107950000Y-82550000D02*
X101600000Y-82550000D01*
%TO.N,CS0*%
X121412000Y-62992000D02*
X103632000Y-62992000D01*
%TO.N,A1*%
X121119002Y-85090000D02*
X121920000Y-85090000D01*
X119849002Y-86360000D02*
X121119002Y-85090000D01*
X111760000Y-86360000D02*
X119849002Y-86360000D01*
X110490000Y-85090000D02*
X111760000Y-86360000D01*
X96520000Y-85090000D02*
X110490000Y-85090000D01*
%TO.N,A2*%
X96520000Y-87630000D02*
X101600000Y-87630000D01*
X101600000Y-87630000D02*
X114300000Y-87630000D01*
%TO.N,RESET*%
X87630000Y-71120000D02*
X87630000Y-123190000D01*
X120744999Y-126905001D02*
X121920000Y-125730000D01*
X91345001Y-126905001D02*
X120744999Y-126905001D01*
X87630000Y-123190000D02*
X91345001Y-126905001D01*
%TO.N,+5V*%
X89887138Y-36830000D02*
X90395138Y-36322000D01*
X85090000Y-36830000D02*
X89887138Y-36830000D01*
X90395138Y-36322000D02*
X101092000Y-36322000D01*
X125476000Y-48006000D02*
X125476000Y-49022000D01*
X121412000Y-53086000D02*
X125476000Y-49022000D01*
X121412000Y-56642000D02*
X121412000Y-53086000D01*
X101092000Y-36322000D02*
X104648000Y-36322000D01*
X111142999Y-42816999D02*
X104648000Y-36322000D01*
X124350999Y-42816999D02*
X111142999Y-42816999D01*
X125476000Y-43942000D02*
X124350999Y-42816999D01*
X125476000Y-43942000D02*
X125476000Y-49022000D01*
X129540000Y-48006000D02*
X129540000Y-48260000D01*
X125476000Y-43942000D02*
X129540000Y-48006000D01*
X105410000Y-73660000D02*
X105410000Y-81280000D01*
X105410000Y-92710000D02*
X105410000Y-102870000D01*
%TO.N,IOWR*%
X123545010Y-96164990D02*
X121920000Y-97790000D01*
X123545010Y-74080002D02*
X123545010Y-96164990D01*
X130765001Y-66860011D02*
X123545010Y-74080002D01*
X130765001Y-46691001D02*
X130765001Y-66860011D01*
X120396000Y-36322000D02*
X130765001Y-46691001D01*
%TO.N,IORD*%
X100424989Y-78834989D02*
X102870000Y-81280000D01*
X103124000Y-42164000D02*
X100424989Y-44863011D01*
X100424989Y-44863011D02*
X100424989Y-78834989D01*
%TO.N,D7*%
X120650000Y-121920000D02*
X121920000Y-123190000D01*
X93980000Y-121920000D02*
X120650000Y-121920000D01*
X91440000Y-119380000D02*
X93980000Y-121920000D01*
X85090000Y-67310000D02*
X91440000Y-73660000D01*
X91440000Y-73660000D02*
X91440000Y-119380000D01*
%TO.N,D6*%
X85090000Y-64770000D02*
X91890010Y-71570010D01*
X91890010Y-71570010D02*
X91890010Y-117290010D01*
X120744999Y-119474999D02*
X121920000Y-120650000D01*
X94074999Y-119474999D02*
X120744999Y-119474999D01*
X91890010Y-117290010D02*
X94074999Y-119474999D01*
%TO.N,D5*%
X85090000Y-62230000D02*
X92710000Y-69850000D01*
X92710000Y-69850000D02*
X92710000Y-115570000D01*
X120744999Y-116934999D02*
X121920000Y-118110000D01*
X94074999Y-116934999D02*
X120744999Y-116934999D01*
X92710000Y-115570000D02*
X94074999Y-116934999D01*
%TO.N,D4*%
X85090000Y-59690000D02*
X93160010Y-67760010D01*
X93160010Y-67760010D02*
X93160010Y-112210010D01*
X120744999Y-114394999D02*
X121920000Y-115570000D01*
X95344999Y-114394999D02*
X120744999Y-114394999D01*
X93160010Y-112210010D02*
X95344999Y-114394999D01*
%TO.N,D3*%
X85090000Y-57150000D02*
X93980000Y-66040000D01*
X93980000Y-66040000D02*
X93980000Y-110490000D01*
X95344999Y-111854999D02*
X120744999Y-111854999D01*
X120744999Y-111854999D02*
X121920000Y-113030000D01*
X93980000Y-110490000D02*
X95344999Y-111854999D01*
%TO.N,A7*%
X123227190Y-47740040D02*
X121969150Y-46482000D01*
X117856000Y-46482000D02*
X115316000Y-43942000D01*
X121969150Y-46482000D02*
X117856000Y-46482000D01*
%TO.N,A6*%
X116078000Y-53848000D02*
X117602000Y-52324000D01*
X112917002Y-43942000D02*
X112776000Y-43942000D01*
X117602000Y-48626998D02*
X112917002Y-43942000D01*
X117602000Y-52324000D02*
X117602000Y-48626998D01*
%TO.N,A5*%
X101600000Y-53442430D02*
X112927570Y-53442430D01*
X116332000Y-50038000D02*
X116332000Y-49022000D01*
X112927570Y-53442430D02*
X116332000Y-50038000D01*
%TO.N,Net-(J2-Pad16)*%
X85090000Y-74930000D02*
X86360000Y-74930000D01*
X117856000Y-38354000D02*
X117856000Y-36322000D01*
X114300000Y-41910000D02*
X117856000Y-38354000D01*
%TO.N,Net-(J2-Pad15)*%
X115316000Y-38354000D02*
X115316000Y-36322000D01*
X111760000Y-41910000D02*
X115316000Y-38354000D01*
%TO.N,Net-(J3-Pad15)*%
X103822427Y-50147001D02*
X105046999Y-50147001D01*
X105046999Y-50147001D02*
X106172000Y-49022000D01*
X100874999Y-53094429D02*
X103822427Y-50147001D01*
X100874999Y-57694999D02*
X100874999Y-53094429D01*
X103632000Y-60452000D02*
X100874999Y-57694999D01*
%TO.N,Net-(J3-Pad13)*%
X103632000Y-57912000D02*
X106172000Y-60452000D01*
X103632000Y-56642000D02*
X103632000Y-57912000D01*
%TO.N,Net-(J3-Pad11)*%
X106172000Y-57912000D02*
X108712000Y-60452000D01*
X106172000Y-56642000D02*
X106172000Y-57912000D01*
%TO.N,Net-(J3-Pad9)*%
X108712000Y-57912000D02*
X111252000Y-60452000D01*
X108712000Y-56642000D02*
X108712000Y-57912000D01*
%TO.N,Net-(J3-Pad7)*%
X111252000Y-57912000D02*
X113792000Y-60452000D01*
X111252000Y-56642000D02*
X111252000Y-57912000D01*
%TO.N,Net-(J3-Pad5)*%
X113792000Y-56642000D02*
X113792000Y-57912000D01*
X113792000Y-57912000D02*
X116332000Y-60452000D01*
%TO.N,Net-(J3-Pad3)*%
X116332000Y-57912000D02*
X118872000Y-60452000D01*
X116332000Y-56642000D02*
X116332000Y-57912000D01*
%TO.N,Net-(J3-Pad1)*%
X118872000Y-57912000D02*
X121412000Y-60452000D01*
X118872000Y-56642000D02*
X118872000Y-57912000D01*
%TO.N,Net-(U1-Pad8)*%
X113792000Y-47498000D02*
X113792000Y-49022000D01*
X110236000Y-43942000D02*
X113792000Y-47498000D01*
%TO.N,Net-(R6-Pad2)*%
X108712000Y-48006000D02*
X108712000Y-49022000D01*
X104648000Y-43942000D02*
X108712000Y-48006000D01*
%TO.N,Net-(J1-Pad38)*%
X111760000Y-74930000D02*
X113030000Y-73660000D01*
X111760000Y-77865002D02*
X111760000Y-74930000D01*
X119380000Y-80010000D02*
X113904998Y-80010000D01*
X113904998Y-80010000D02*
X111760000Y-77865002D01*
%TO.N,Net-(J1-Pad34)*%
X115570000Y-81280000D02*
X119380000Y-85090000D01*
X113030000Y-81280000D02*
X115570000Y-81280000D01*
%TO.N,CS0*%
X120744999Y-63659001D02*
X121412000Y-62992000D01*
X120744999Y-78834999D02*
X120744999Y-63659001D01*
X121920000Y-80010000D02*
X120744999Y-78834999D01*
%TD*%
M02*
