M48
; DRILL file {KiCad 5.1.6-c6e7f7d~87~ubuntu18.04.1} date Sat Oct 10 11:51:23 2020
; FORMAT={-:-/ absolute / inch / decimal}
; #@! TF.CreationDate,2020-10-10T11:51:23+01:00
; #@! TF.GenerationSoftware,Kicad,Pcbnew,5.1.6-c6e7f7d~87~ubuntu18.04.1
FMAT,2
INCH
T1C0.0157
T2C0.0315
T3C0.0354
T4C0.0394
%
G90
G05
T1
X3.45Y-2.8
X3.8Y-3.25
X3.8Y-3.35
X3.8Y-3.45
X4.0Y-2.104
X4.05Y-3.2
X4.06Y-1.66
X4.15Y-3.65
X4.15Y-4.05
X4.25Y-3.25
X4.4Y-1.65
X4.5Y-1.65
X4.5Y-3.45
X4.57Y-2.12
X4.8515Y-1.8795
T2
X4.15Y-3.2
X4.45Y-3.2
X4.12Y-1.43
X4.12Y-1.73
X4.15Y-2.9
X4.45Y-2.9
X4.34Y-1.43
X4.34Y-1.73
X4.44Y-1.43
X4.44Y-1.73
X4.54Y-1.43
X4.54Y-1.73
X4.64Y-1.43
X4.64Y-1.73
X4.74Y-1.43
X4.74Y-1.73
X4.84Y-1.43
X4.84Y-1.73
X4.94Y-1.43
X4.94Y-1.73
X5.1Y-1.9
X5.1Y-2.2
X4.15Y-3.05
X4.45Y-3.05
X4.08Y-1.93
X4.08Y-2.23
X4.18Y-1.93
X4.18Y-2.23
X4.28Y-1.93
X4.28Y-2.23
X4.38Y-1.93
X4.38Y-2.23
X4.48Y-1.93
X4.48Y-2.23
X4.58Y-1.93
X4.58Y-2.23
X4.68Y-1.93
X4.68Y-2.23
X4.78Y-1.93
X4.78Y-2.23
T3
X5.0Y-2.4
X5.1Y-2.4
T4
X4.7Y-3.05
X4.7Y-3.15
X4.7Y-3.25
X4.7Y-3.35
X4.7Y-3.45
X4.7Y-3.55
X4.7Y-3.65
X4.7Y-3.75
X4.7Y-3.85
X4.7Y-3.95
X4.7Y-4.05
X4.7Y-4.15
X4.7Y-4.25
X4.7Y-4.35
X4.7Y-4.45
X4.7Y-4.55
X4.7Y-4.65
X4.7Y-4.75
X4.7Y-4.85
X4.7Y-4.95
X4.8Y-3.05
X4.8Y-3.15
X4.8Y-3.25
X4.8Y-3.35
X4.8Y-3.45
X4.8Y-3.55
X4.8Y-3.65
X4.8Y-3.75
X4.8Y-3.85
X4.8Y-3.95
X4.8Y-4.05
X4.8Y-4.15
X4.8Y-4.25
X4.8Y-4.35
X4.8Y-4.45
X4.8Y-4.55
X4.8Y-4.65
X4.8Y-4.75
X4.8Y-4.85
X4.8Y-4.95
X4.6Y-5.25
X4.6Y-5.35
X3.35Y-1.45
X3.35Y-1.55
X3.35Y-1.65
X3.35Y-1.75
X3.35Y-1.85
X3.35Y-1.95
X3.35Y-2.05
X3.35Y-2.15
X3.35Y-2.25
X3.35Y-2.35
X3.35Y-2.45
X3.35Y-2.55
X3.35Y-2.65
X3.35Y-2.75
X3.35Y-2.85
X3.35Y-2.95
X3.35Y-3.05
X3.35Y-3.15
X3.35Y-3.25
X3.35Y-3.35
X3.35Y-3.45
X3.35Y-3.55
X3.35Y-3.65
X3.35Y-3.75
X3.35Y-3.85
X3.35Y-3.95
X3.35Y-4.05
X3.35Y-4.15
X3.35Y-4.25
X3.35Y-4.35
X3.35Y-4.45
X3.35Y-4.55
X3.35Y-4.65
X3.35Y-4.75
X3.35Y-4.85
X3.35Y-4.95
X3.35Y-5.05
X3.35Y-5.15
X3.35Y-5.25
X3.35Y-5.35
X4.08Y-2.38
X4.08Y-2.48
X4.18Y-2.38
X4.18Y-2.48
X4.28Y-2.38
X4.28Y-2.48
X4.38Y-2.38
X4.38Y-2.48
X4.48Y-2.38
X4.48Y-2.48
X4.58Y-2.38
X4.58Y-2.48
X4.68Y-2.38
X4.68Y-2.48
X4.78Y-2.38
X4.78Y-2.48
T0
M30
