%TF.GenerationSoftware,KiCad,Pcbnew,5.1.6-c6e7f7d~87~ubuntu18.04.1*%
%TF.CreationDate,2020-10-10T11:51:25+01:00*%
%TF.ProjectId,CFCard,43464361-7264-42e6-9b69-6361645f7063,rev?*%
%TF.SameCoordinates,Original*%
%TF.FileFunction,Copper,L2,Bot*%
%TF.FilePolarity,Positive*%
%FSLAX46Y46*%
G04 Gerber Fmt 4.6, Leading zero omitted, Abs format (unit mm)*
G04 Created by KiCad (PCBNEW 5.1.6-c6e7f7d~87~ubuntu18.04.1) date 2020-10-10 11:51:25*
%MOMM*%
%LPD*%
G01*
G04 APERTURE LIST*
%TA.AperFunction,ComponentPad*%
%ADD10O,1.700000X1.700000*%
%TD*%
%TA.AperFunction,ComponentPad*%
%ADD11R,1.700000X1.700000*%
%TD*%
%TA.AperFunction,ComponentPad*%
%ADD12O,1.600000X1.600000*%
%TD*%
%TA.AperFunction,ComponentPad*%
%ADD13C,1.600000*%
%TD*%
%TA.AperFunction,ComponentPad*%
%ADD14C,1.700000*%
%TD*%
%TA.AperFunction,ComponentPad*%
%ADD15C,1.800000*%
%TD*%
%TA.AperFunction,ComponentPad*%
%ADD16R,1.800000X1.800000*%
%TD*%
%TA.AperFunction,ComponentPad*%
%ADD17R,1.600000X1.600000*%
%TD*%
%TA.AperFunction,ViaPad*%
%ADD18C,0.800000*%
%TD*%
%TA.AperFunction,Conductor*%
%ADD19C,0.250000*%
%TD*%
%TA.AperFunction,Conductor*%
%ADD20C,0.254000*%
%TD*%
G04 APERTURE END LIST*
D10*
%TO.P,J4,2*%
%TO.N,GND*%
X116840000Y-135890000D03*
D11*
%TO.P,J4,1*%
%TO.N,+5V*%
X116840000Y-133350000D03*
%TD*%
D12*
%TO.P,R4,2*%
%TO.N,Net-(J1-Pad29)*%
X113030000Y-77470000D03*
D13*
%TO.P,R4,1*%
%TO.N,+5V*%
X105410000Y-77470000D03*
%TD*%
D12*
%TO.P,R3,2*%
%TO.N,Net-(D1-Pad2)*%
X129540000Y-55880000D03*
D13*
%TO.P,R3,1*%
%TO.N,+5V*%
X129540000Y-48260000D03*
%TD*%
D12*
%TO.P,R2,2*%
%TO.N,Net-(J1-Pad38)*%
X113030000Y-73660000D03*
D13*
%TO.P,R2,1*%
%TO.N,+5V*%
X105410000Y-73660000D03*
%TD*%
D12*
%TO.P,R1,2*%
%TO.N,Net-(J1-Pad34)*%
X113030000Y-81280000D03*
D13*
%TO.P,R1,1*%
%TO.N,+5V*%
X105410000Y-81280000D03*
%TD*%
D14*
%TO.P,J1,40*%
%TO.N,GND*%
X119380000Y-77470000D03*
%TO.P,J1,38*%
%TO.N,Net-(J1-Pad38)*%
X119380000Y-80010000D03*
%TO.P,J1,36*%
%TO.N,A2*%
X119380000Y-82550000D03*
%TO.P,J1,34*%
%TO.N,Net-(J1-Pad34)*%
X119380000Y-85090000D03*
%TO.P,J1,32*%
%TO.N,Net-(J1-Pad32)*%
X119380000Y-87630000D03*
%TO.P,J1,30*%
%TO.N,GND*%
X119380000Y-90170000D03*
%TO.P,J1,28*%
X119380000Y-92710000D03*
%TO.P,J1,26*%
X119380000Y-95250000D03*
%TO.P,J1,24*%
X119380000Y-97790000D03*
%TO.P,J1,22*%
X119380000Y-100330000D03*
%TO.P,J1,20*%
%TO.N,Net-(J1-Pad20)*%
X119380000Y-102870000D03*
%TO.P,J1,18*%
%TO.N,Net-(J1-Pad18)*%
X119380000Y-105410000D03*
%TO.P,J1,16*%
%TO.N,Net-(J1-Pad16)*%
X119380000Y-107950000D03*
%TO.P,J1,14*%
%TO.N,Net-(J1-Pad14)*%
X119380000Y-110490000D03*
%TO.P,J1,12*%
%TO.N,Net-(J1-Pad12)*%
X119380000Y-113030000D03*
%TO.P,J1,10*%
%TO.N,Net-(J1-Pad10)*%
X119380000Y-115570000D03*
%TO.P,J1,8*%
%TO.N,Net-(J1-Pad8)*%
X119380000Y-118110000D03*
%TO.P,J1,6*%
%TO.N,Net-(J1-Pad6)*%
X119380000Y-120650000D03*
%TO.P,J1,4*%
%TO.N,Net-(J1-Pad4)*%
X119380000Y-123190000D03*
%TO.P,J1,2*%
%TO.N,GND*%
X119380000Y-125730000D03*
%TO.P,J1,39*%
%TO.N,Net-(D1-Pad1)*%
X121920000Y-77470000D03*
%TO.P,J1,37*%
%TO.N,CS0*%
X121920000Y-80010000D03*
%TO.P,J1,35*%
%TO.N,A0*%
X121920000Y-82550000D03*
%TO.P,J1,33*%
%TO.N,A1*%
X121920000Y-85090000D03*
%TO.P,J1,31*%
%TO.N,Net-(J1-Pad31)*%
X121920000Y-87630000D03*
%TO.P,J1,29*%
%TO.N,Net-(J1-Pad29)*%
X121920000Y-90170000D03*
%TO.P,J1,27*%
%TO.N,Net-(J1-Pad27)*%
X121920000Y-92710000D03*
%TO.P,J1,25*%
%TO.N,IORD*%
X121920000Y-95250000D03*
%TO.P,J1,23*%
%TO.N,IOWR*%
X121920000Y-97790000D03*
%TO.P,J1,21*%
%TO.N,Net-(J1-Pad21)*%
X121920000Y-100330000D03*
%TO.P,J1,19*%
%TO.N,GND*%
X121920000Y-102870000D03*
%TO.P,J1,17*%
%TO.N,D0*%
X121920000Y-105410000D03*
%TO.P,J1,15*%
%TO.N,D1*%
X121920000Y-107950000D03*
%TO.P,J1,13*%
%TO.N,D2*%
X121920000Y-110490000D03*
%TO.P,J1,11*%
%TO.N,D3*%
X121920000Y-113030000D03*
%TO.P,J1,9*%
%TO.N,D4*%
X121920000Y-115570000D03*
%TO.P,J1,7*%
%TO.N,D5*%
X121920000Y-118110000D03*
%TO.P,J1,5*%
%TO.N,D6*%
X121920000Y-120650000D03*
%TO.P,J1,3*%
%TO.N,D7*%
X121920000Y-123190000D03*
%TO.P,J1,1*%
%TO.N,RESET*%
%TA.AperFunction,ComponentPad*%
G36*
G01*
X122770000Y-125130000D02*
X122770000Y-126330000D01*
G75*
G02*
X122520000Y-126580000I-250000J0D01*
G01*
X121320000Y-126580000D01*
G75*
G02*
X121070000Y-126330000I0J250000D01*
G01*
X121070000Y-125130000D01*
G75*
G02*
X121320000Y-124880000I250000J0D01*
G01*
X122520000Y-124880000D01*
G75*
G02*
X122770000Y-125130000I0J-250000D01*
G01*
G37*
%TD.AperFunction*%
%TD*%
D15*
%TO.P,D1,2*%
%TO.N,Net-(D1-Pad2)*%
X129540000Y-60960000D03*
D16*
%TO.P,D1,1*%
%TO.N,Net-(D1-Pad1)*%
X127000000Y-60960000D03*
%TD*%
D12*
%TO.P,R6,2*%
%TO.N,Net-(R6-Pad2)*%
X104648000Y-43942000D03*
D13*
%TO.P,R6,1*%
%TO.N,+5V*%
X104648000Y-36322000D03*
%TD*%
D17*
%TO.P,U1,1*%
%TO.N,Net-(J2-Pad15)*%
X125476000Y-36322000D03*
D12*
%TO.P,U1,8*%
%TO.N,Net-(U1-Pad8)*%
X110236000Y-43942000D03*
%TO.P,U1,2*%
%TO.N,Net-(J2-Pad17)*%
X122936000Y-36322000D03*
%TO.P,U1,9*%
%TO.N,A6*%
X112776000Y-43942000D03*
%TO.P,U1,3*%
%TO.N,IOWR*%
X120396000Y-36322000D03*
%TO.P,U1,10*%
%TO.N,A7*%
X115316000Y-43942000D03*
%TO.P,U1,4*%
%TO.N,Net-(J2-Pad16)*%
X117856000Y-36322000D03*
%TO.P,U1,11*%
%TO.N,Net-(U1-Pad11)*%
X117856000Y-43942000D03*
%TO.P,U1,5*%
%TO.N,Net-(J2-Pad15)*%
X115316000Y-36322000D03*
%TO.P,U1,12*%
%TO.N,GND*%
X120396000Y-43942000D03*
%TO.P,U1,6*%
%TO.N,IORD*%
X112776000Y-36322000D03*
%TO.P,U1,13*%
%TO.N,GND*%
X122936000Y-43942000D03*
%TO.P,U1,7*%
X110236000Y-36322000D03*
%TO.P,U1,14*%
%TO.N,+5V*%
X125476000Y-43942000D03*
%TD*%
D17*
%TO.P,U2,1*%
%TO.N,A3*%
X121412000Y-49022000D03*
D12*
%TO.P,U2,9*%
%TO.N,Net-(J3-Pad13)*%
X103632000Y-56642000D03*
%TO.P,U2,2*%
%TO.N,A4*%
X118872000Y-49022000D03*
%TO.P,U2,10*%
%TO.N,Net-(J3-Pad11)*%
X106172000Y-56642000D03*
%TO.P,U2,3*%
%TO.N,A5*%
X116332000Y-49022000D03*
%TO.P,U2,11*%
%TO.N,Net-(J3-Pad9)*%
X108712000Y-56642000D03*
%TO.P,U2,4*%
%TO.N,Net-(U1-Pad8)*%
X113792000Y-49022000D03*
%TO.P,U2,12*%
%TO.N,Net-(J3-Pad7)*%
X111252000Y-56642000D03*
%TO.P,U2,5*%
%TO.N,Net-(J2-Pad15)*%
X111252000Y-49022000D03*
%TO.P,U2,13*%
%TO.N,Net-(J3-Pad5)*%
X113792000Y-56642000D03*
%TO.P,U2,6*%
%TO.N,Net-(R6-Pad2)*%
X108712000Y-49022000D03*
%TO.P,U2,14*%
%TO.N,Net-(J3-Pad3)*%
X116332000Y-56642000D03*
%TO.P,U2,7*%
%TO.N,Net-(J3-Pad15)*%
X106172000Y-49022000D03*
%TO.P,U2,15*%
%TO.N,Net-(J3-Pad1)*%
X118872000Y-56642000D03*
%TO.P,U2,8*%
%TO.N,GND*%
X103632000Y-49022000D03*
%TO.P,U2,16*%
%TO.N,+5V*%
X121412000Y-56642000D03*
%TD*%
D11*
%TO.P,J3,1*%
%TO.N,Net-(J3-Pad1)*%
X121412000Y-60452000D03*
D10*
%TO.P,J3,2*%
%TO.N,CS0*%
X121412000Y-62992000D03*
%TO.P,J3,3*%
%TO.N,Net-(J3-Pad3)*%
X118872000Y-60452000D03*
%TO.P,J3,4*%
%TO.N,CS0*%
X118872000Y-62992000D03*
%TO.P,J3,5*%
%TO.N,Net-(J3-Pad5)*%
X116332000Y-60452000D03*
%TO.P,J3,6*%
%TO.N,CS0*%
X116332000Y-62992000D03*
%TO.P,J3,7*%
%TO.N,Net-(J3-Pad7)*%
X113792000Y-60452000D03*
%TO.P,J3,8*%
%TO.N,CS0*%
X113792000Y-62992000D03*
%TO.P,J3,9*%
%TO.N,Net-(J3-Pad9)*%
X111252000Y-60452000D03*
%TO.P,J3,10*%
%TO.N,CS0*%
X111252000Y-62992000D03*
%TO.P,J3,11*%
%TO.N,Net-(J3-Pad11)*%
X108712000Y-60452000D03*
%TO.P,J3,12*%
%TO.N,CS0*%
X108712000Y-62992000D03*
%TO.P,J3,13*%
%TO.N,Net-(J3-Pad13)*%
X106172000Y-60452000D03*
%TO.P,J3,14*%
%TO.N,CS0*%
X106172000Y-62992000D03*
%TO.P,J3,15*%
%TO.N,Net-(J3-Pad15)*%
X103632000Y-60452000D03*
%TO.P,J3,16*%
%TO.N,CS0*%
X103632000Y-62992000D03*
%TD*%
D11*
%TO.P,J2,1*%
%TO.N,+5V*%
X85090000Y-36830000D03*
D10*
%TO.P,J2,2*%
%TO.N,GND*%
X85090000Y-39370000D03*
%TO.P,J2,3*%
%TO.N,Net-(J2-Pad3)*%
X85090000Y-41910000D03*
%TO.P,J2,4*%
%TO.N,RESET*%
X85090000Y-44450000D03*
%TO.P,J2,5*%
%TO.N,Net-(J2-Pad5)*%
X85090000Y-46990000D03*
%TO.P,J2,6*%
%TO.N,D0*%
X85090000Y-49530000D03*
%TO.P,J2,7*%
%TO.N,D1*%
X85090000Y-52070000D03*
%TO.P,J2,8*%
%TO.N,D2*%
X85090000Y-54610000D03*
%TO.P,J2,9*%
%TO.N,D3*%
X85090000Y-57150000D03*
%TO.P,J2,10*%
%TO.N,D4*%
X85090000Y-59690000D03*
%TO.P,J2,11*%
%TO.N,D5*%
X85090000Y-62230000D03*
%TO.P,J2,12*%
%TO.N,D6*%
X85090000Y-64770000D03*
%TO.P,J2,13*%
%TO.N,D7*%
X85090000Y-67310000D03*
%TO.P,J2,14*%
%TO.N,Net-(J2-Pad14)*%
X85090000Y-69850000D03*
%TO.P,J2,15*%
%TO.N,Net-(J2-Pad15)*%
X85090000Y-72390000D03*
%TO.P,J2,16*%
%TO.N,Net-(J2-Pad16)*%
X85090000Y-74930000D03*
%TO.P,J2,17*%
%TO.N,Net-(J2-Pad17)*%
X85090000Y-77470000D03*
%TO.P,J2,18*%
%TO.N,Net-(J2-Pad18)*%
X85090000Y-80010000D03*
%TO.P,J2,19*%
%TO.N,A0*%
X85090000Y-82550000D03*
%TO.P,J2,20*%
%TO.N,A1*%
X85090000Y-85090000D03*
%TO.P,J2,21*%
%TO.N,A2*%
X85090000Y-87630000D03*
%TO.P,J2,22*%
%TO.N,A3*%
X85090000Y-90170000D03*
%TO.P,J2,23*%
%TO.N,A4*%
X85090000Y-92710000D03*
%TO.P,J2,24*%
%TO.N,A5*%
X85090000Y-95250000D03*
%TO.P,J2,25*%
%TO.N,A6*%
X85090000Y-97790000D03*
%TO.P,J2,26*%
%TO.N,A7*%
X85090000Y-100330000D03*
%TO.P,J2,27*%
%TO.N,Net-(J2-Pad27)*%
X85090000Y-102870000D03*
%TO.P,J2,28*%
%TO.N,Net-(J2-Pad28)*%
X85090000Y-105410000D03*
%TO.P,J2,29*%
%TO.N,Net-(J2-Pad29)*%
X85090000Y-107950000D03*
%TO.P,J2,30*%
%TO.N,Net-(J2-Pad30)*%
X85090000Y-110490000D03*
%TO.P,J2,31*%
%TO.N,Net-(J2-Pad31)*%
X85090000Y-113030000D03*
%TO.P,J2,32*%
%TO.N,Net-(J2-Pad32)*%
X85090000Y-115570000D03*
%TO.P,J2,33*%
%TO.N,Net-(J2-Pad33)*%
X85090000Y-118110000D03*
%TO.P,J2,34*%
%TO.N,Net-(J2-Pad34)*%
X85090000Y-120650000D03*
%TO.P,J2,35*%
%TO.N,Net-(J2-Pad35)*%
X85090000Y-123190000D03*
%TO.P,J2,36*%
%TO.N,Net-(J2-Pad36)*%
X85090000Y-125730000D03*
%TO.P,J2,37*%
%TO.N,Net-(J2-Pad37)*%
X85090000Y-128270000D03*
%TO.P,J2,38*%
%TO.N,Net-(J2-Pad38)*%
X85090000Y-130810000D03*
%TO.P,J2,39*%
%TO.N,Net-(J2-Pad39)*%
X85090000Y-133350000D03*
%TO.P,J2,40*%
%TO.N,Net-(J2-Pad40)*%
X85090000Y-135890000D03*
%TD*%
D18*
%TO.N,A0*%
X96520000Y-82550000D03*
X107950000Y-82550000D03*
%TO.N,A1*%
X96520000Y-85090000D03*
%TO.N,A2*%
X96520000Y-87630000D03*
X114300000Y-87630000D03*
%TO.N,RESET*%
X87630000Y-71120000D03*
%TO.N,+5V*%
X105410000Y-92710000D03*
X105410000Y-102870000D03*
%TO.N,IORD*%
X103124000Y-42164000D03*
X102870000Y-81280000D03*
%TO.N,A7*%
X123227190Y-47740040D03*
%TO.N,A6*%
X116078000Y-53848000D03*
%TO.N,A5*%
X101600000Y-53442430D03*
%TO.N,Net-(J2-Pad16)*%
X114300000Y-41910000D03*
%TO.N,Net-(J2-Pad15)*%
X111760000Y-41910000D03*
%TD*%
D19*
%TO.N,A0*%
X85090000Y-82550000D02*
X96520000Y-82550000D01*
X118815999Y-81374999D02*
X120744999Y-81374999D01*
X120744999Y-81374999D02*
X121920000Y-82550000D01*
X117640998Y-82550000D02*
X118815999Y-81374999D01*
X107950000Y-82550000D02*
X117640998Y-82550000D01*
%TO.N,A1*%
X85090000Y-85090000D02*
X96520000Y-85090000D01*
%TO.N,A2*%
X114300000Y-87630000D02*
X119380000Y-82550000D01*
X85090000Y-87630000D02*
X96520000Y-87630000D01*
%TO.N,RESET*%
X85090000Y-44450000D02*
X87630000Y-46990000D01*
X87630000Y-46990000D02*
X87630000Y-71120000D01*
%TO.N,+5V*%
X121920000Y-69850000D02*
X124460000Y-67310000D01*
X124460000Y-59690000D02*
X121412000Y-56642000D01*
X124460000Y-67310000D02*
X124460000Y-59690000D01*
X109220000Y-69850000D02*
X105410000Y-73660000D01*
X121920000Y-69850000D02*
X109220000Y-69850000D01*
X105410000Y-81280000D02*
X105410000Y-92710000D01*
X105410000Y-102870000D02*
X105410000Y-132080000D01*
X106680000Y-133350000D02*
X116840000Y-133350000D01*
X105410000Y-132080000D02*
X106680000Y-133350000D01*
%TO.N,IORD*%
X103124000Y-42164000D02*
X107442000Y-37846000D01*
X111252000Y-37846000D02*
X112776000Y-36322000D01*
X107442000Y-37846000D02*
X111252000Y-37846000D01*
X102870000Y-81280000D02*
X102870000Y-92710000D01*
X106585001Y-96425001D02*
X120744999Y-96425001D01*
X120744999Y-96425001D02*
X121920000Y-95250000D01*
X102870000Y-92710000D02*
X106585001Y-96425001D01*
%TO.N,A7*%
X118682411Y-54573001D02*
X123190000Y-50065412D01*
X101854000Y-55880000D02*
X103160999Y-54573001D01*
X103160999Y-54573001D02*
X118682411Y-54573001D01*
X123190000Y-50065412D02*
X123190000Y-47777230D01*
X123190000Y-47777230D02*
X123227190Y-47740040D01*
X101854000Y-55880000D02*
X101854000Y-88646000D01*
X90170000Y-100330000D02*
X85090000Y-100330000D01*
X101854000Y-88646000D02*
X90170000Y-100330000D01*
%TO.N,A6*%
X101346000Y-55626000D02*
X103124000Y-53848000D01*
X103124000Y-53848000D02*
X116078000Y-53848000D01*
X89342232Y-97790000D02*
X85090000Y-97790000D01*
X101346000Y-85786232D02*
X89342232Y-97790000D01*
X101346000Y-55626000D02*
X101346000Y-85786232D01*
%TO.N,A5*%
X100780010Y-54262420D02*
X101600000Y-53442430D01*
X91245822Y-95250000D02*
X85090000Y-95250000D01*
X100780009Y-85715813D02*
X91245822Y-95250000D01*
X100780010Y-54262420D02*
X100780009Y-85715813D01*
%TO.N,A4*%
X100330000Y-53340000D02*
X100952570Y-52717430D01*
X122472001Y-47896999D02*
X119997001Y-47896999D01*
X122537001Y-47961999D02*
X122472001Y-47896999D01*
X119997001Y-47896999D02*
X118872000Y-49022000D01*
X122537001Y-50082001D02*
X122537001Y-47961999D01*
X119901572Y-52717430D02*
X122537001Y-50082001D01*
X100952570Y-52717430D02*
X119901572Y-52717430D01*
X93149412Y-92710000D02*
X85090000Y-92710000D01*
X100330000Y-85529412D02*
X93149412Y-92710000D01*
X100330000Y-53340000D02*
X100330000Y-85529412D01*
%TO.N,A3*%
X118166580Y-52267420D02*
X121412000Y-49022000D01*
X100640580Y-52267420D02*
X118166580Y-52267420D01*
X99822000Y-53086000D02*
X100640580Y-52267420D01*
X95053002Y-90170000D02*
X85090000Y-90170000D01*
X99822000Y-85401002D02*
X95053002Y-90170000D01*
X99822000Y-53086000D02*
X99822000Y-85401002D01*
%TO.N,Net-(J2-Pad17)*%
X99315410Y-73404590D02*
X95250000Y-77470000D01*
X100331410Y-51817410D02*
X99315410Y-52833410D01*
X112661592Y-51817410D02*
X100331410Y-51817410D01*
X115206999Y-49272003D02*
X112661592Y-51817410D01*
X128270000Y-41656000D02*
X128270000Y-46482000D01*
X122936000Y-36322000D02*
X128270000Y-41656000D01*
X128270000Y-46482000D02*
X127762000Y-46990000D01*
X127762000Y-46990000D02*
X116698998Y-46990000D01*
X95250000Y-77470000D02*
X85090000Y-77470000D01*
X116698998Y-46990000D02*
X115206999Y-48481999D01*
X99315410Y-52833410D02*
X99315410Y-73404590D01*
X115206999Y-48481999D02*
X115206999Y-49272003D01*
%TO.N,Net-(J2-Pad16)*%
X98806000Y-52706410D02*
X100204410Y-51308000D01*
X110631002Y-51308000D02*
X112666999Y-49272003D01*
X100204410Y-51308000D02*
X110631002Y-51308000D01*
X112666999Y-45716003D02*
X114190999Y-44192003D01*
X112666999Y-49272003D02*
X112666999Y-45716003D01*
X114190999Y-44192003D02*
X114190999Y-42019001D01*
X114190999Y-42019001D02*
X114300000Y-41910000D01*
X94616410Y-74930000D02*
X85090000Y-74930000D01*
X98806000Y-70740410D02*
X94616410Y-74930000D01*
X98806000Y-52706410D02*
X98806000Y-70740410D01*
%TO.N,Net-(J2-Pad15)*%
X98298000Y-52578000D02*
X100330000Y-50546000D01*
X109728000Y-50546000D02*
X111252000Y-49022000D01*
X100330000Y-50546000D02*
X109728000Y-50546000D01*
X111252000Y-49022000D02*
X111361001Y-48912999D01*
X124350999Y-35196999D02*
X125476000Y-36322000D01*
X116441001Y-35196999D02*
X124350999Y-35196999D01*
X115316000Y-36322000D02*
X116441001Y-35196999D01*
X111361001Y-48912999D02*
X111361001Y-42308999D01*
X111361001Y-42308999D02*
X111760000Y-41910000D01*
X98298000Y-52578000D02*
X98298000Y-70612000D01*
X96520000Y-72390000D02*
X85090000Y-72390000D01*
X98298000Y-70612000D02*
X96520000Y-72390000D01*
%TD*%
D20*
%TO.N,GND*%
G36*
X103968273Y-35050320D02*
G01*
X103733241Y-35207363D01*
X103533363Y-35407241D01*
X103376320Y-35642273D01*
X103268147Y-35903426D01*
X103213000Y-36180665D01*
X103213000Y-36463335D01*
X103268147Y-36740574D01*
X103376320Y-37001727D01*
X103533363Y-37236759D01*
X103733241Y-37436637D01*
X103968273Y-37593680D01*
X104229426Y-37701853D01*
X104506665Y-37757000D01*
X104789335Y-37757000D01*
X105066574Y-37701853D01*
X105327727Y-37593680D01*
X105562759Y-37436637D01*
X105762637Y-37236759D01*
X105919680Y-37001727D01*
X106027853Y-36740574D01*
X106083000Y-36463335D01*
X106083000Y-36180665D01*
X106027853Y-35903426D01*
X105919680Y-35642273D01*
X105762637Y-35407241D01*
X105562759Y-35207363D01*
X105327727Y-35050320D01*
X105085533Y-34950000D01*
X109821338Y-34950000D01*
X109752913Y-34970754D01*
X109498580Y-35090963D01*
X109272586Y-35258481D01*
X109083615Y-35466869D01*
X108938930Y-35708119D01*
X108844091Y-35972960D01*
X108965376Y-36195000D01*
X110109000Y-36195000D01*
X110109000Y-36175000D01*
X110363000Y-36175000D01*
X110363000Y-36195000D01*
X110383000Y-36195000D01*
X110383000Y-36449000D01*
X110363000Y-36449000D01*
X110363000Y-36469000D01*
X110109000Y-36469000D01*
X110109000Y-36449000D01*
X108965376Y-36449000D01*
X108844091Y-36671040D01*
X108938930Y-36935881D01*
X109028961Y-37086000D01*
X107479322Y-37086000D01*
X107441999Y-37082324D01*
X107404676Y-37086000D01*
X107404667Y-37086000D01*
X107293014Y-37096997D01*
X107149753Y-37140454D01*
X107017724Y-37211026D01*
X106901999Y-37305999D01*
X106878201Y-37334997D01*
X103084199Y-41129000D01*
X103022061Y-41129000D01*
X102822102Y-41168774D01*
X102633744Y-41246795D01*
X102464226Y-41360063D01*
X102320063Y-41504226D01*
X102206795Y-41673744D01*
X102128774Y-41862102D01*
X102089000Y-42062061D01*
X102089000Y-42265939D01*
X102128774Y-42465898D01*
X102206795Y-42654256D01*
X102320063Y-42823774D01*
X102464226Y-42967937D01*
X102633744Y-43081205D01*
X102822102Y-43159226D01*
X103022061Y-43199000D01*
X103225939Y-43199000D01*
X103425898Y-43159226D01*
X103452550Y-43148186D01*
X103376320Y-43262273D01*
X103268147Y-43523426D01*
X103213000Y-43800665D01*
X103213000Y-44083335D01*
X103268147Y-44360574D01*
X103376320Y-44621727D01*
X103533363Y-44856759D01*
X103733241Y-45056637D01*
X103968273Y-45213680D01*
X104229426Y-45321853D01*
X104506665Y-45377000D01*
X104789335Y-45377000D01*
X105066574Y-45321853D01*
X105327727Y-45213680D01*
X105562759Y-45056637D01*
X105762637Y-44856759D01*
X105919680Y-44621727D01*
X106027853Y-44360574D01*
X106083000Y-44083335D01*
X106083000Y-43800665D01*
X106027853Y-43523426D01*
X105919680Y-43262273D01*
X105762637Y-43027241D01*
X105562759Y-42827363D01*
X105327727Y-42670320D01*
X105066574Y-42562147D01*
X104789335Y-42507000D01*
X104506665Y-42507000D01*
X104229426Y-42562147D01*
X104048278Y-42637181D01*
X104119226Y-42465898D01*
X104159000Y-42265939D01*
X104159000Y-42203801D01*
X107756802Y-38606000D01*
X111214678Y-38606000D01*
X111252000Y-38609676D01*
X111289322Y-38606000D01*
X111289333Y-38606000D01*
X111400986Y-38595003D01*
X111544247Y-38551546D01*
X111676276Y-38480974D01*
X111792001Y-38386001D01*
X111815803Y-38356998D01*
X112452114Y-37720688D01*
X112634665Y-37757000D01*
X112917335Y-37757000D01*
X113194574Y-37701853D01*
X113455727Y-37593680D01*
X113690759Y-37436637D01*
X113890637Y-37236759D01*
X114046000Y-37004241D01*
X114201363Y-37236759D01*
X114401241Y-37436637D01*
X114636273Y-37593680D01*
X114897426Y-37701853D01*
X115174665Y-37757000D01*
X115457335Y-37757000D01*
X115734574Y-37701853D01*
X115995727Y-37593680D01*
X116230759Y-37436637D01*
X116430637Y-37236759D01*
X116586000Y-37004241D01*
X116741363Y-37236759D01*
X116941241Y-37436637D01*
X117176273Y-37593680D01*
X117437426Y-37701853D01*
X117714665Y-37757000D01*
X117997335Y-37757000D01*
X118274574Y-37701853D01*
X118535727Y-37593680D01*
X118770759Y-37436637D01*
X118970637Y-37236759D01*
X119126000Y-37004241D01*
X119281363Y-37236759D01*
X119481241Y-37436637D01*
X119716273Y-37593680D01*
X119977426Y-37701853D01*
X120254665Y-37757000D01*
X120537335Y-37757000D01*
X120814574Y-37701853D01*
X121075727Y-37593680D01*
X121310759Y-37436637D01*
X121510637Y-37236759D01*
X121666000Y-37004241D01*
X121821363Y-37236759D01*
X122021241Y-37436637D01*
X122256273Y-37593680D01*
X122517426Y-37701853D01*
X122794665Y-37757000D01*
X123077335Y-37757000D01*
X123259887Y-37720688D01*
X127510000Y-41970802D01*
X127510001Y-46167198D01*
X127447199Y-46230000D01*
X116736320Y-46230000D01*
X116698997Y-46226324D01*
X116661674Y-46230000D01*
X116661665Y-46230000D01*
X116550012Y-46240997D01*
X116406751Y-46284454D01*
X116274722Y-46355026D01*
X116158997Y-46449999D01*
X116135200Y-46478996D01*
X114706796Y-47907400D01*
X114706759Y-47907363D01*
X114471727Y-47750320D01*
X114210574Y-47642147D01*
X113933335Y-47587000D01*
X113650665Y-47587000D01*
X113426999Y-47631491D01*
X113426999Y-46030804D01*
X114401204Y-45056600D01*
X114401241Y-45056637D01*
X114636273Y-45213680D01*
X114897426Y-45321853D01*
X115174665Y-45377000D01*
X115457335Y-45377000D01*
X115734574Y-45321853D01*
X115995727Y-45213680D01*
X116230759Y-45056637D01*
X116430637Y-44856759D01*
X116586000Y-44624241D01*
X116741363Y-44856759D01*
X116941241Y-45056637D01*
X117176273Y-45213680D01*
X117437426Y-45321853D01*
X117714665Y-45377000D01*
X117997335Y-45377000D01*
X118274574Y-45321853D01*
X118535727Y-45213680D01*
X118770759Y-45056637D01*
X118970637Y-44856759D01*
X119127680Y-44621727D01*
X119132067Y-44611135D01*
X119243615Y-44797131D01*
X119432586Y-45005519D01*
X119658580Y-45173037D01*
X119912913Y-45293246D01*
X120046961Y-45333904D01*
X120269000Y-45211915D01*
X120269000Y-44069000D01*
X120523000Y-44069000D01*
X120523000Y-45211915D01*
X120745039Y-45333904D01*
X120879087Y-45293246D01*
X121133420Y-45173037D01*
X121359414Y-45005519D01*
X121548385Y-44797131D01*
X121666000Y-44601018D01*
X121783615Y-44797131D01*
X121972586Y-45005519D01*
X122198580Y-45173037D01*
X122452913Y-45293246D01*
X122586961Y-45333904D01*
X122809000Y-45211915D01*
X122809000Y-44069000D01*
X120523000Y-44069000D01*
X120269000Y-44069000D01*
X120249000Y-44069000D01*
X120249000Y-43815000D01*
X120269000Y-43815000D01*
X120269000Y-42672085D01*
X120523000Y-42672085D01*
X120523000Y-43815000D01*
X122809000Y-43815000D01*
X122809000Y-42672085D01*
X123063000Y-42672085D01*
X123063000Y-43815000D01*
X123083000Y-43815000D01*
X123083000Y-44069000D01*
X123063000Y-44069000D01*
X123063000Y-45211915D01*
X123285039Y-45333904D01*
X123419087Y-45293246D01*
X123673420Y-45173037D01*
X123899414Y-45005519D01*
X124088385Y-44797131D01*
X124199933Y-44611135D01*
X124204320Y-44621727D01*
X124361363Y-44856759D01*
X124561241Y-45056637D01*
X124796273Y-45213680D01*
X125057426Y-45321853D01*
X125334665Y-45377000D01*
X125617335Y-45377000D01*
X125894574Y-45321853D01*
X126155727Y-45213680D01*
X126390759Y-45056637D01*
X126590637Y-44856759D01*
X126747680Y-44621727D01*
X126855853Y-44360574D01*
X126911000Y-44083335D01*
X126911000Y-43800665D01*
X126855853Y-43523426D01*
X126747680Y-43262273D01*
X126590637Y-43027241D01*
X126390759Y-42827363D01*
X126155727Y-42670320D01*
X125894574Y-42562147D01*
X125617335Y-42507000D01*
X125334665Y-42507000D01*
X125057426Y-42562147D01*
X124796273Y-42670320D01*
X124561241Y-42827363D01*
X124361363Y-43027241D01*
X124204320Y-43262273D01*
X124199933Y-43272865D01*
X124088385Y-43086869D01*
X123899414Y-42878481D01*
X123673420Y-42710963D01*
X123419087Y-42590754D01*
X123285039Y-42550096D01*
X123063000Y-42672085D01*
X122809000Y-42672085D01*
X122586961Y-42550096D01*
X122452913Y-42590754D01*
X122198580Y-42710963D01*
X121972586Y-42878481D01*
X121783615Y-43086869D01*
X121666000Y-43282982D01*
X121548385Y-43086869D01*
X121359414Y-42878481D01*
X121133420Y-42710963D01*
X120879087Y-42590754D01*
X120745039Y-42550096D01*
X120523000Y-42672085D01*
X120269000Y-42672085D01*
X120046961Y-42550096D01*
X119912913Y-42590754D01*
X119658580Y-42710963D01*
X119432586Y-42878481D01*
X119243615Y-43086869D01*
X119132067Y-43272865D01*
X119127680Y-43262273D01*
X118970637Y-43027241D01*
X118770759Y-42827363D01*
X118535727Y-42670320D01*
X118274574Y-42562147D01*
X117997335Y-42507000D01*
X117714665Y-42507000D01*
X117437426Y-42562147D01*
X117176273Y-42670320D01*
X116941241Y-42827363D01*
X116741363Y-43027241D01*
X116586000Y-43259759D01*
X116430637Y-43027241D01*
X116230759Y-42827363D01*
X115995727Y-42670320D01*
X115734574Y-42562147D01*
X115457335Y-42507000D01*
X115174665Y-42507000D01*
X115141469Y-42513603D01*
X115217205Y-42400256D01*
X115295226Y-42211898D01*
X115335000Y-42011939D01*
X115335000Y-41808061D01*
X115295226Y-41608102D01*
X115217205Y-41419744D01*
X115103937Y-41250226D01*
X114959774Y-41106063D01*
X114790256Y-40992795D01*
X114601898Y-40914774D01*
X114401939Y-40875000D01*
X114198061Y-40875000D01*
X113998102Y-40914774D01*
X113809744Y-40992795D01*
X113640226Y-41106063D01*
X113496063Y-41250226D01*
X113382795Y-41419744D01*
X113304774Y-41608102D01*
X113265000Y-41808061D01*
X113265000Y-42011939D01*
X113304774Y-42211898D01*
X113382795Y-42400256D01*
X113431000Y-42472400D01*
X113431000Y-42660078D01*
X113194574Y-42562147D01*
X112917335Y-42507000D01*
X112634665Y-42507000D01*
X112601469Y-42513603D01*
X112677205Y-42400256D01*
X112755226Y-42211898D01*
X112795000Y-42011939D01*
X112795000Y-41808061D01*
X112755226Y-41608102D01*
X112677205Y-41419744D01*
X112563937Y-41250226D01*
X112419774Y-41106063D01*
X112250256Y-40992795D01*
X112061898Y-40914774D01*
X111861939Y-40875000D01*
X111658061Y-40875000D01*
X111458102Y-40914774D01*
X111269744Y-40992795D01*
X111100226Y-41106063D01*
X110956063Y-41250226D01*
X110842795Y-41419744D01*
X110764774Y-41608102D01*
X110725000Y-41808061D01*
X110725000Y-41886644D01*
X110655455Y-42016753D01*
X110641712Y-42062061D01*
X110611999Y-42160013D01*
X110607839Y-42202246D01*
X110597325Y-42308999D01*
X110601002Y-42346331D01*
X110601002Y-42551491D01*
X110377335Y-42507000D01*
X110094665Y-42507000D01*
X109817426Y-42562147D01*
X109556273Y-42670320D01*
X109321241Y-42827363D01*
X109121363Y-43027241D01*
X108964320Y-43262273D01*
X108856147Y-43523426D01*
X108801000Y-43800665D01*
X108801000Y-44083335D01*
X108856147Y-44360574D01*
X108964320Y-44621727D01*
X109121363Y-44856759D01*
X109321241Y-45056637D01*
X109556273Y-45213680D01*
X109817426Y-45321853D01*
X110094665Y-45377000D01*
X110377335Y-45377000D01*
X110601002Y-45332509D01*
X110601001Y-47738420D01*
X110572273Y-47750320D01*
X110337241Y-47907363D01*
X110137363Y-48107241D01*
X109982000Y-48339759D01*
X109826637Y-48107241D01*
X109626759Y-47907363D01*
X109391727Y-47750320D01*
X109130574Y-47642147D01*
X108853335Y-47587000D01*
X108570665Y-47587000D01*
X108293426Y-47642147D01*
X108032273Y-47750320D01*
X107797241Y-47907363D01*
X107597363Y-48107241D01*
X107442000Y-48339759D01*
X107286637Y-48107241D01*
X107086759Y-47907363D01*
X106851727Y-47750320D01*
X106590574Y-47642147D01*
X106313335Y-47587000D01*
X106030665Y-47587000D01*
X105753426Y-47642147D01*
X105492273Y-47750320D01*
X105257241Y-47907363D01*
X105057363Y-48107241D01*
X104900320Y-48342273D01*
X104895933Y-48352865D01*
X104784385Y-48166869D01*
X104595414Y-47958481D01*
X104369420Y-47790963D01*
X104115087Y-47670754D01*
X103981039Y-47630096D01*
X103759000Y-47752085D01*
X103759000Y-48895000D01*
X103779000Y-48895000D01*
X103779000Y-49149000D01*
X103759000Y-49149000D01*
X103759000Y-49169000D01*
X103505000Y-49169000D01*
X103505000Y-49149000D01*
X102361376Y-49149000D01*
X102240091Y-49371040D01*
X102334930Y-49635881D01*
X102424961Y-49786000D01*
X100367323Y-49786000D01*
X100330000Y-49782324D01*
X100292677Y-49786000D01*
X100292667Y-49786000D01*
X100181014Y-49796997D01*
X100037753Y-49840454D01*
X99905723Y-49911026D01*
X99842201Y-49963158D01*
X99789999Y-50005999D01*
X99766201Y-50034997D01*
X97787003Y-52014196D01*
X97757999Y-52037999D01*
X97702871Y-52105174D01*
X97663026Y-52153724D01*
X97602254Y-52267420D01*
X97592454Y-52285754D01*
X97548997Y-52429015D01*
X97538000Y-52540668D01*
X97538000Y-52540678D01*
X97534324Y-52578000D01*
X97538000Y-52615322D01*
X97538001Y-70297197D01*
X96205199Y-71630000D01*
X88534013Y-71630000D01*
X88547205Y-71610256D01*
X88625226Y-71421898D01*
X88665000Y-71221939D01*
X88665000Y-71018061D01*
X88625226Y-70818102D01*
X88547205Y-70629744D01*
X88433937Y-70460226D01*
X88390000Y-70416289D01*
X88390000Y-48672960D01*
X102240091Y-48672960D01*
X102361376Y-48895000D01*
X103505000Y-48895000D01*
X103505000Y-47752085D01*
X103282961Y-47630096D01*
X103148913Y-47670754D01*
X102894580Y-47790963D01*
X102668586Y-47958481D01*
X102479615Y-48166869D01*
X102334930Y-48408119D01*
X102240091Y-48672960D01*
X88390000Y-48672960D01*
X88390000Y-47027322D01*
X88393676Y-46989999D01*
X88390000Y-46952676D01*
X88390000Y-46952667D01*
X88379003Y-46841014D01*
X88335546Y-46697753D01*
X88264974Y-46565724D01*
X88226902Y-46519333D01*
X88193799Y-46478996D01*
X88193795Y-46478992D01*
X88170001Y-46449999D01*
X88141009Y-46426206D01*
X86531210Y-44816408D01*
X86575000Y-44596260D01*
X86575000Y-44303740D01*
X86517932Y-44016842D01*
X86405990Y-43746589D01*
X86243475Y-43503368D01*
X86036632Y-43296525D01*
X85862240Y-43180000D01*
X86036632Y-43063475D01*
X86243475Y-42856632D01*
X86405990Y-42613411D01*
X86517932Y-42343158D01*
X86575000Y-42056260D01*
X86575000Y-41763740D01*
X86517932Y-41476842D01*
X86405990Y-41206589D01*
X86243475Y-40963368D01*
X86036632Y-40756525D01*
X85854466Y-40634805D01*
X85971355Y-40565178D01*
X86187588Y-40370269D01*
X86361641Y-40136920D01*
X86486825Y-39874099D01*
X86531476Y-39726890D01*
X86410155Y-39497000D01*
X85217000Y-39497000D01*
X85217000Y-39517000D01*
X84963000Y-39517000D01*
X84963000Y-39497000D01*
X83769845Y-39497000D01*
X83648524Y-39726890D01*
X83693175Y-39874099D01*
X83818359Y-40136920D01*
X83992412Y-40370269D01*
X84208645Y-40565178D01*
X84325534Y-40634805D01*
X84143368Y-40756525D01*
X83936525Y-40963368D01*
X83774010Y-41206589D01*
X83662068Y-41476842D01*
X83605000Y-41763740D01*
X83605000Y-42056260D01*
X83662068Y-42343158D01*
X83774010Y-42613411D01*
X83936525Y-42856632D01*
X84143368Y-43063475D01*
X84317760Y-43180000D01*
X84143368Y-43296525D01*
X83936525Y-43503368D01*
X83774010Y-43746589D01*
X83662068Y-44016842D01*
X83605000Y-44303740D01*
X83605000Y-44596260D01*
X83662068Y-44883158D01*
X83774010Y-45153411D01*
X83936525Y-45396632D01*
X84143368Y-45603475D01*
X84317760Y-45720000D01*
X84143368Y-45836525D01*
X83936525Y-46043368D01*
X83774010Y-46286589D01*
X83662068Y-46556842D01*
X83605000Y-46843740D01*
X83605000Y-47136260D01*
X83662068Y-47423158D01*
X83774010Y-47693411D01*
X83936525Y-47936632D01*
X84143368Y-48143475D01*
X84317760Y-48260000D01*
X84143368Y-48376525D01*
X83936525Y-48583368D01*
X83774010Y-48826589D01*
X83662068Y-49096842D01*
X83605000Y-49383740D01*
X83605000Y-49676260D01*
X83662068Y-49963158D01*
X83774010Y-50233411D01*
X83936525Y-50476632D01*
X84143368Y-50683475D01*
X84317760Y-50800000D01*
X84143368Y-50916525D01*
X83936525Y-51123368D01*
X83774010Y-51366589D01*
X83662068Y-51636842D01*
X83605000Y-51923740D01*
X83605000Y-52216260D01*
X83662068Y-52503158D01*
X83774010Y-52773411D01*
X83936525Y-53016632D01*
X84143368Y-53223475D01*
X84317760Y-53340000D01*
X84143368Y-53456525D01*
X83936525Y-53663368D01*
X83774010Y-53906589D01*
X83662068Y-54176842D01*
X83605000Y-54463740D01*
X83605000Y-54756260D01*
X83662068Y-55043158D01*
X83774010Y-55313411D01*
X83936525Y-55556632D01*
X84143368Y-55763475D01*
X84317760Y-55880000D01*
X84143368Y-55996525D01*
X83936525Y-56203368D01*
X83774010Y-56446589D01*
X83662068Y-56716842D01*
X83605000Y-57003740D01*
X83605000Y-57296260D01*
X83662068Y-57583158D01*
X83774010Y-57853411D01*
X83936525Y-58096632D01*
X84143368Y-58303475D01*
X84317760Y-58420000D01*
X84143368Y-58536525D01*
X83936525Y-58743368D01*
X83774010Y-58986589D01*
X83662068Y-59256842D01*
X83605000Y-59543740D01*
X83605000Y-59836260D01*
X83662068Y-60123158D01*
X83774010Y-60393411D01*
X83936525Y-60636632D01*
X84143368Y-60843475D01*
X84317760Y-60960000D01*
X84143368Y-61076525D01*
X83936525Y-61283368D01*
X83774010Y-61526589D01*
X83662068Y-61796842D01*
X83605000Y-62083740D01*
X83605000Y-62376260D01*
X83662068Y-62663158D01*
X83774010Y-62933411D01*
X83936525Y-63176632D01*
X84143368Y-63383475D01*
X84317760Y-63500000D01*
X84143368Y-63616525D01*
X83936525Y-63823368D01*
X83774010Y-64066589D01*
X83662068Y-64336842D01*
X83605000Y-64623740D01*
X83605000Y-64916260D01*
X83662068Y-65203158D01*
X83774010Y-65473411D01*
X83936525Y-65716632D01*
X84143368Y-65923475D01*
X84317760Y-66040000D01*
X84143368Y-66156525D01*
X83936525Y-66363368D01*
X83774010Y-66606589D01*
X83662068Y-66876842D01*
X83605000Y-67163740D01*
X83605000Y-67456260D01*
X83662068Y-67743158D01*
X83774010Y-68013411D01*
X83936525Y-68256632D01*
X84143368Y-68463475D01*
X84317760Y-68580000D01*
X84143368Y-68696525D01*
X83936525Y-68903368D01*
X83774010Y-69146589D01*
X83662068Y-69416842D01*
X83605000Y-69703740D01*
X83605000Y-69996260D01*
X83662068Y-70283158D01*
X83774010Y-70553411D01*
X83936525Y-70796632D01*
X84143368Y-71003475D01*
X84317760Y-71120000D01*
X84143368Y-71236525D01*
X83936525Y-71443368D01*
X83774010Y-71686589D01*
X83662068Y-71956842D01*
X83605000Y-72243740D01*
X83605000Y-72536260D01*
X83662068Y-72823158D01*
X83774010Y-73093411D01*
X83936525Y-73336632D01*
X84143368Y-73543475D01*
X84317760Y-73660000D01*
X84143368Y-73776525D01*
X83936525Y-73983368D01*
X83774010Y-74226589D01*
X83662068Y-74496842D01*
X83605000Y-74783740D01*
X83605000Y-75076260D01*
X83662068Y-75363158D01*
X83774010Y-75633411D01*
X83936525Y-75876632D01*
X84143368Y-76083475D01*
X84317760Y-76200000D01*
X84143368Y-76316525D01*
X83936525Y-76523368D01*
X83774010Y-76766589D01*
X83662068Y-77036842D01*
X83605000Y-77323740D01*
X83605000Y-77616260D01*
X83662068Y-77903158D01*
X83774010Y-78173411D01*
X83936525Y-78416632D01*
X84143368Y-78623475D01*
X84317760Y-78740000D01*
X84143368Y-78856525D01*
X83936525Y-79063368D01*
X83774010Y-79306589D01*
X83662068Y-79576842D01*
X83605000Y-79863740D01*
X83605000Y-80156260D01*
X83662068Y-80443158D01*
X83774010Y-80713411D01*
X83936525Y-80956632D01*
X84143368Y-81163475D01*
X84317760Y-81280000D01*
X84143368Y-81396525D01*
X83936525Y-81603368D01*
X83774010Y-81846589D01*
X83662068Y-82116842D01*
X83605000Y-82403740D01*
X83605000Y-82696260D01*
X83662068Y-82983158D01*
X83774010Y-83253411D01*
X83936525Y-83496632D01*
X84143368Y-83703475D01*
X84317760Y-83820000D01*
X84143368Y-83936525D01*
X83936525Y-84143368D01*
X83774010Y-84386589D01*
X83662068Y-84656842D01*
X83605000Y-84943740D01*
X83605000Y-85236260D01*
X83662068Y-85523158D01*
X83774010Y-85793411D01*
X83936525Y-86036632D01*
X84143368Y-86243475D01*
X84317760Y-86360000D01*
X84143368Y-86476525D01*
X83936525Y-86683368D01*
X83774010Y-86926589D01*
X83662068Y-87196842D01*
X83605000Y-87483740D01*
X83605000Y-87776260D01*
X83662068Y-88063158D01*
X83774010Y-88333411D01*
X83936525Y-88576632D01*
X84143368Y-88783475D01*
X84317760Y-88900000D01*
X84143368Y-89016525D01*
X83936525Y-89223368D01*
X83774010Y-89466589D01*
X83662068Y-89736842D01*
X83605000Y-90023740D01*
X83605000Y-90316260D01*
X83662068Y-90603158D01*
X83774010Y-90873411D01*
X83936525Y-91116632D01*
X84143368Y-91323475D01*
X84317760Y-91440000D01*
X84143368Y-91556525D01*
X83936525Y-91763368D01*
X83774010Y-92006589D01*
X83662068Y-92276842D01*
X83605000Y-92563740D01*
X83605000Y-92856260D01*
X83662068Y-93143158D01*
X83774010Y-93413411D01*
X83936525Y-93656632D01*
X84143368Y-93863475D01*
X84317760Y-93980000D01*
X84143368Y-94096525D01*
X83936525Y-94303368D01*
X83774010Y-94546589D01*
X83662068Y-94816842D01*
X83605000Y-95103740D01*
X83605000Y-95396260D01*
X83662068Y-95683158D01*
X83774010Y-95953411D01*
X83936525Y-96196632D01*
X84143368Y-96403475D01*
X84317760Y-96520000D01*
X84143368Y-96636525D01*
X83936525Y-96843368D01*
X83774010Y-97086589D01*
X83662068Y-97356842D01*
X83605000Y-97643740D01*
X83605000Y-97936260D01*
X83662068Y-98223158D01*
X83774010Y-98493411D01*
X83936525Y-98736632D01*
X84143368Y-98943475D01*
X84317760Y-99060000D01*
X84143368Y-99176525D01*
X83936525Y-99383368D01*
X83774010Y-99626589D01*
X83662068Y-99896842D01*
X83605000Y-100183740D01*
X83605000Y-100476260D01*
X83662068Y-100763158D01*
X83774010Y-101033411D01*
X83936525Y-101276632D01*
X84143368Y-101483475D01*
X84317760Y-101600000D01*
X84143368Y-101716525D01*
X83936525Y-101923368D01*
X83774010Y-102166589D01*
X83662068Y-102436842D01*
X83605000Y-102723740D01*
X83605000Y-103016260D01*
X83662068Y-103303158D01*
X83774010Y-103573411D01*
X83936525Y-103816632D01*
X84143368Y-104023475D01*
X84317760Y-104140000D01*
X84143368Y-104256525D01*
X83936525Y-104463368D01*
X83774010Y-104706589D01*
X83662068Y-104976842D01*
X83605000Y-105263740D01*
X83605000Y-105556260D01*
X83662068Y-105843158D01*
X83774010Y-106113411D01*
X83936525Y-106356632D01*
X84143368Y-106563475D01*
X84317760Y-106680000D01*
X84143368Y-106796525D01*
X83936525Y-107003368D01*
X83774010Y-107246589D01*
X83662068Y-107516842D01*
X83605000Y-107803740D01*
X83605000Y-108096260D01*
X83662068Y-108383158D01*
X83774010Y-108653411D01*
X83936525Y-108896632D01*
X84143368Y-109103475D01*
X84317760Y-109220000D01*
X84143368Y-109336525D01*
X83936525Y-109543368D01*
X83774010Y-109786589D01*
X83662068Y-110056842D01*
X83605000Y-110343740D01*
X83605000Y-110636260D01*
X83662068Y-110923158D01*
X83774010Y-111193411D01*
X83936525Y-111436632D01*
X84143368Y-111643475D01*
X84317760Y-111760000D01*
X84143368Y-111876525D01*
X83936525Y-112083368D01*
X83774010Y-112326589D01*
X83662068Y-112596842D01*
X83605000Y-112883740D01*
X83605000Y-113176260D01*
X83662068Y-113463158D01*
X83774010Y-113733411D01*
X83936525Y-113976632D01*
X84143368Y-114183475D01*
X84317760Y-114300000D01*
X84143368Y-114416525D01*
X83936525Y-114623368D01*
X83774010Y-114866589D01*
X83662068Y-115136842D01*
X83605000Y-115423740D01*
X83605000Y-115716260D01*
X83662068Y-116003158D01*
X83774010Y-116273411D01*
X83936525Y-116516632D01*
X84143368Y-116723475D01*
X84317760Y-116840000D01*
X84143368Y-116956525D01*
X83936525Y-117163368D01*
X83774010Y-117406589D01*
X83662068Y-117676842D01*
X83605000Y-117963740D01*
X83605000Y-118256260D01*
X83662068Y-118543158D01*
X83774010Y-118813411D01*
X83936525Y-119056632D01*
X84143368Y-119263475D01*
X84317760Y-119380000D01*
X84143368Y-119496525D01*
X83936525Y-119703368D01*
X83774010Y-119946589D01*
X83662068Y-120216842D01*
X83605000Y-120503740D01*
X83605000Y-120796260D01*
X83662068Y-121083158D01*
X83774010Y-121353411D01*
X83936525Y-121596632D01*
X84143368Y-121803475D01*
X84317760Y-121920000D01*
X84143368Y-122036525D01*
X83936525Y-122243368D01*
X83774010Y-122486589D01*
X83662068Y-122756842D01*
X83605000Y-123043740D01*
X83605000Y-123336260D01*
X83662068Y-123623158D01*
X83774010Y-123893411D01*
X83936525Y-124136632D01*
X84143368Y-124343475D01*
X84317760Y-124460000D01*
X84143368Y-124576525D01*
X83936525Y-124783368D01*
X83774010Y-125026589D01*
X83662068Y-125296842D01*
X83605000Y-125583740D01*
X83605000Y-125876260D01*
X83662068Y-126163158D01*
X83774010Y-126433411D01*
X83936525Y-126676632D01*
X84143368Y-126883475D01*
X84317760Y-127000000D01*
X84143368Y-127116525D01*
X83936525Y-127323368D01*
X83774010Y-127566589D01*
X83662068Y-127836842D01*
X83605000Y-128123740D01*
X83605000Y-128416260D01*
X83662068Y-128703158D01*
X83774010Y-128973411D01*
X83936525Y-129216632D01*
X84143368Y-129423475D01*
X84317760Y-129540000D01*
X84143368Y-129656525D01*
X83936525Y-129863368D01*
X83774010Y-130106589D01*
X83662068Y-130376842D01*
X83605000Y-130663740D01*
X83605000Y-130956260D01*
X83662068Y-131243158D01*
X83774010Y-131513411D01*
X83936525Y-131756632D01*
X84143368Y-131963475D01*
X84317760Y-132080000D01*
X84143368Y-132196525D01*
X83936525Y-132403368D01*
X83774010Y-132646589D01*
X83662068Y-132916842D01*
X83605000Y-133203740D01*
X83605000Y-133496260D01*
X83662068Y-133783158D01*
X83774010Y-134053411D01*
X83936525Y-134296632D01*
X84143368Y-134503475D01*
X84317760Y-134620000D01*
X84143368Y-134736525D01*
X83936525Y-134943368D01*
X83774010Y-135186589D01*
X83662068Y-135456842D01*
X83605000Y-135743740D01*
X83605000Y-136036260D01*
X83662068Y-136323158D01*
X83774010Y-136593411D01*
X83936525Y-136836632D01*
X84143368Y-137043475D01*
X84386589Y-137205990D01*
X84656842Y-137317932D01*
X84943740Y-137375000D01*
X85236260Y-137375000D01*
X85523158Y-137317932D01*
X85793411Y-137205990D01*
X86036632Y-137043475D01*
X86243475Y-136836632D01*
X86405990Y-136593411D01*
X86517932Y-136323158D01*
X86533102Y-136246890D01*
X115398524Y-136246890D01*
X115443175Y-136394099D01*
X115568359Y-136656920D01*
X115742412Y-136890269D01*
X115958645Y-137085178D01*
X116208748Y-137234157D01*
X116483109Y-137331481D01*
X116713000Y-137210814D01*
X116713000Y-136017000D01*
X116967000Y-136017000D01*
X116967000Y-137210814D01*
X117196891Y-137331481D01*
X117471252Y-137234157D01*
X117721355Y-137085178D01*
X117937588Y-136890269D01*
X118111641Y-136656920D01*
X118236825Y-136394099D01*
X118281476Y-136246890D01*
X118160155Y-136017000D01*
X116967000Y-136017000D01*
X116713000Y-136017000D01*
X115519845Y-136017000D01*
X115398524Y-136246890D01*
X86533102Y-136246890D01*
X86575000Y-136036260D01*
X86575000Y-135743740D01*
X86517932Y-135456842D01*
X86405990Y-135186589D01*
X86243475Y-134943368D01*
X86036632Y-134736525D01*
X85862240Y-134620000D01*
X86036632Y-134503475D01*
X86243475Y-134296632D01*
X86405990Y-134053411D01*
X86517932Y-133783158D01*
X86575000Y-133496260D01*
X86575000Y-133203740D01*
X86517932Y-132916842D01*
X86405990Y-132646589D01*
X86243475Y-132403368D01*
X86036632Y-132196525D01*
X85862240Y-132080000D01*
X86036632Y-131963475D01*
X86243475Y-131756632D01*
X86405990Y-131513411D01*
X86517932Y-131243158D01*
X86575000Y-130956260D01*
X86575000Y-130663740D01*
X86517932Y-130376842D01*
X86405990Y-130106589D01*
X86243475Y-129863368D01*
X86036632Y-129656525D01*
X85862240Y-129540000D01*
X86036632Y-129423475D01*
X86243475Y-129216632D01*
X86405990Y-128973411D01*
X86517932Y-128703158D01*
X86575000Y-128416260D01*
X86575000Y-128123740D01*
X86517932Y-127836842D01*
X86405990Y-127566589D01*
X86243475Y-127323368D01*
X86036632Y-127116525D01*
X85862240Y-127000000D01*
X86036632Y-126883475D01*
X86243475Y-126676632D01*
X86405990Y-126433411D01*
X86517932Y-126163158D01*
X86575000Y-125876260D01*
X86575000Y-125583740D01*
X86517932Y-125296842D01*
X86405990Y-125026589D01*
X86243475Y-124783368D01*
X86036632Y-124576525D01*
X85862240Y-124460000D01*
X86036632Y-124343475D01*
X86243475Y-124136632D01*
X86405990Y-123893411D01*
X86517932Y-123623158D01*
X86575000Y-123336260D01*
X86575000Y-123043740D01*
X86517932Y-122756842D01*
X86405990Y-122486589D01*
X86243475Y-122243368D01*
X86036632Y-122036525D01*
X85862240Y-121920000D01*
X86036632Y-121803475D01*
X86243475Y-121596632D01*
X86405990Y-121353411D01*
X86517932Y-121083158D01*
X86575000Y-120796260D01*
X86575000Y-120503740D01*
X86517932Y-120216842D01*
X86405990Y-119946589D01*
X86243475Y-119703368D01*
X86036632Y-119496525D01*
X85862240Y-119380000D01*
X86036632Y-119263475D01*
X86243475Y-119056632D01*
X86405990Y-118813411D01*
X86517932Y-118543158D01*
X86575000Y-118256260D01*
X86575000Y-117963740D01*
X86517932Y-117676842D01*
X86405990Y-117406589D01*
X86243475Y-117163368D01*
X86036632Y-116956525D01*
X85862240Y-116840000D01*
X86036632Y-116723475D01*
X86243475Y-116516632D01*
X86405990Y-116273411D01*
X86517932Y-116003158D01*
X86575000Y-115716260D01*
X86575000Y-115423740D01*
X86517932Y-115136842D01*
X86405990Y-114866589D01*
X86243475Y-114623368D01*
X86036632Y-114416525D01*
X85862240Y-114300000D01*
X86036632Y-114183475D01*
X86243475Y-113976632D01*
X86405990Y-113733411D01*
X86517932Y-113463158D01*
X86575000Y-113176260D01*
X86575000Y-112883740D01*
X86517932Y-112596842D01*
X86405990Y-112326589D01*
X86243475Y-112083368D01*
X86036632Y-111876525D01*
X85862240Y-111760000D01*
X86036632Y-111643475D01*
X86243475Y-111436632D01*
X86405990Y-111193411D01*
X86517932Y-110923158D01*
X86575000Y-110636260D01*
X86575000Y-110343740D01*
X86517932Y-110056842D01*
X86405990Y-109786589D01*
X86243475Y-109543368D01*
X86036632Y-109336525D01*
X85862240Y-109220000D01*
X86036632Y-109103475D01*
X86243475Y-108896632D01*
X86405990Y-108653411D01*
X86517932Y-108383158D01*
X86575000Y-108096260D01*
X86575000Y-107803740D01*
X86517932Y-107516842D01*
X86405990Y-107246589D01*
X86243475Y-107003368D01*
X86036632Y-106796525D01*
X85862240Y-106680000D01*
X86036632Y-106563475D01*
X86243475Y-106356632D01*
X86405990Y-106113411D01*
X86517932Y-105843158D01*
X86575000Y-105556260D01*
X86575000Y-105263740D01*
X86517932Y-104976842D01*
X86405990Y-104706589D01*
X86243475Y-104463368D01*
X86036632Y-104256525D01*
X85862240Y-104140000D01*
X86036632Y-104023475D01*
X86243475Y-103816632D01*
X86405990Y-103573411D01*
X86517932Y-103303158D01*
X86575000Y-103016260D01*
X86575000Y-102768061D01*
X104375000Y-102768061D01*
X104375000Y-102971939D01*
X104414774Y-103171898D01*
X104492795Y-103360256D01*
X104606063Y-103529774D01*
X104650000Y-103573711D01*
X104650001Y-132042667D01*
X104646324Y-132080000D01*
X104660998Y-132228985D01*
X104704454Y-132372246D01*
X104775026Y-132504276D01*
X104845379Y-132590000D01*
X104870000Y-132620001D01*
X104898998Y-132643799D01*
X106116201Y-133861003D01*
X106139999Y-133890001D01*
X106255724Y-133984974D01*
X106387753Y-134055546D01*
X106531014Y-134099003D01*
X106642667Y-134110000D01*
X106642676Y-134110000D01*
X106679999Y-134113676D01*
X106717322Y-134110000D01*
X115351928Y-134110000D01*
X115351928Y-134200000D01*
X115364188Y-134324482D01*
X115400498Y-134444180D01*
X115459463Y-134554494D01*
X115538815Y-134651185D01*
X115635506Y-134730537D01*
X115745820Y-134789502D01*
X115826466Y-134813966D01*
X115742412Y-134889731D01*
X115568359Y-135123080D01*
X115443175Y-135385901D01*
X115398524Y-135533110D01*
X115519845Y-135763000D01*
X116713000Y-135763000D01*
X116713000Y-135743000D01*
X116967000Y-135743000D01*
X116967000Y-135763000D01*
X118160155Y-135763000D01*
X118281476Y-135533110D01*
X118236825Y-135385901D01*
X118111641Y-135123080D01*
X117937588Y-134889731D01*
X117853534Y-134813966D01*
X117934180Y-134789502D01*
X118044494Y-134730537D01*
X118141185Y-134651185D01*
X118220537Y-134554494D01*
X118279502Y-134444180D01*
X118315812Y-134324482D01*
X118328072Y-134200000D01*
X118328072Y-132500000D01*
X118315812Y-132375518D01*
X118279502Y-132255820D01*
X118220537Y-132145506D01*
X118141185Y-132048815D01*
X118044494Y-131969463D01*
X117934180Y-131910498D01*
X117814482Y-131874188D01*
X117690000Y-131861928D01*
X115990000Y-131861928D01*
X115865518Y-131874188D01*
X115745820Y-131910498D01*
X115635506Y-131969463D01*
X115538815Y-132048815D01*
X115459463Y-132145506D01*
X115400498Y-132255820D01*
X115364188Y-132375518D01*
X115351928Y-132500000D01*
X115351928Y-132590000D01*
X106994802Y-132590000D01*
X106170000Y-131765199D01*
X106170000Y-126758397D01*
X118531208Y-126758397D01*
X118608843Y-127007472D01*
X118872883Y-127133371D01*
X119156411Y-127205339D01*
X119448531Y-127220611D01*
X119738019Y-127178599D01*
X120013747Y-127080919D01*
X120151157Y-127007472D01*
X120228792Y-126758397D01*
X119380000Y-125909605D01*
X118531208Y-126758397D01*
X106170000Y-126758397D01*
X106170000Y-125798531D01*
X117889389Y-125798531D01*
X117931401Y-126088019D01*
X118029081Y-126363747D01*
X118102528Y-126501157D01*
X118351603Y-126578792D01*
X119200395Y-125730000D01*
X118351603Y-124881208D01*
X118102528Y-124958843D01*
X117976629Y-125222883D01*
X117904661Y-125506411D01*
X117889389Y-125798531D01*
X106170000Y-125798531D01*
X106170000Y-103573711D01*
X106213937Y-103529774D01*
X106327205Y-103360256D01*
X106405226Y-103171898D01*
X106445000Y-102971939D01*
X106445000Y-102768061D01*
X106436185Y-102723740D01*
X117895000Y-102723740D01*
X117895000Y-103016260D01*
X117952068Y-103303158D01*
X118064010Y-103573411D01*
X118226525Y-103816632D01*
X118433368Y-104023475D01*
X118607760Y-104140000D01*
X118433368Y-104256525D01*
X118226525Y-104463368D01*
X118064010Y-104706589D01*
X117952068Y-104976842D01*
X117895000Y-105263740D01*
X117895000Y-105556260D01*
X117952068Y-105843158D01*
X118064010Y-106113411D01*
X118226525Y-106356632D01*
X118433368Y-106563475D01*
X118607760Y-106680000D01*
X118433368Y-106796525D01*
X118226525Y-107003368D01*
X118064010Y-107246589D01*
X117952068Y-107516842D01*
X117895000Y-107803740D01*
X117895000Y-108096260D01*
X117952068Y-108383158D01*
X118064010Y-108653411D01*
X118226525Y-108896632D01*
X118433368Y-109103475D01*
X118607760Y-109220000D01*
X118433368Y-109336525D01*
X118226525Y-109543368D01*
X118064010Y-109786589D01*
X117952068Y-110056842D01*
X117895000Y-110343740D01*
X117895000Y-110636260D01*
X117952068Y-110923158D01*
X118064010Y-111193411D01*
X118226525Y-111436632D01*
X118433368Y-111643475D01*
X118607760Y-111760000D01*
X118433368Y-111876525D01*
X118226525Y-112083368D01*
X118064010Y-112326589D01*
X117952068Y-112596842D01*
X117895000Y-112883740D01*
X117895000Y-113176260D01*
X117952068Y-113463158D01*
X118064010Y-113733411D01*
X118226525Y-113976632D01*
X118433368Y-114183475D01*
X118607760Y-114300000D01*
X118433368Y-114416525D01*
X118226525Y-114623368D01*
X118064010Y-114866589D01*
X117952068Y-115136842D01*
X117895000Y-115423740D01*
X117895000Y-115716260D01*
X117952068Y-116003158D01*
X118064010Y-116273411D01*
X118226525Y-116516632D01*
X118433368Y-116723475D01*
X118607760Y-116840000D01*
X118433368Y-116956525D01*
X118226525Y-117163368D01*
X118064010Y-117406589D01*
X117952068Y-117676842D01*
X117895000Y-117963740D01*
X117895000Y-118256260D01*
X117952068Y-118543158D01*
X118064010Y-118813411D01*
X118226525Y-119056632D01*
X118433368Y-119263475D01*
X118607760Y-119380000D01*
X118433368Y-119496525D01*
X118226525Y-119703368D01*
X118064010Y-119946589D01*
X117952068Y-120216842D01*
X117895000Y-120503740D01*
X117895000Y-120796260D01*
X117952068Y-121083158D01*
X118064010Y-121353411D01*
X118226525Y-121596632D01*
X118433368Y-121803475D01*
X118607760Y-121920000D01*
X118433368Y-122036525D01*
X118226525Y-122243368D01*
X118064010Y-122486589D01*
X117952068Y-122756842D01*
X117895000Y-123043740D01*
X117895000Y-123336260D01*
X117952068Y-123623158D01*
X118064010Y-123893411D01*
X118226525Y-124136632D01*
X118433368Y-124343475D01*
X118606729Y-124459311D01*
X118531208Y-124701603D01*
X119380000Y-125550395D01*
X120228792Y-124701603D01*
X120153271Y-124459311D01*
X120326632Y-124343475D01*
X120533475Y-124136632D01*
X120650000Y-123962240D01*
X120766525Y-124136632D01*
X120953608Y-124323715D01*
X120826614Y-124391595D01*
X120692038Y-124502038D01*
X120581595Y-124636614D01*
X120499528Y-124790150D01*
X120466420Y-124899293D01*
X120408397Y-124881208D01*
X119559605Y-125730000D01*
X120408397Y-126578792D01*
X120466420Y-126560707D01*
X120499528Y-126669850D01*
X120581595Y-126823386D01*
X120692038Y-126957962D01*
X120826614Y-127068405D01*
X120980150Y-127150472D01*
X121146746Y-127201008D01*
X121320000Y-127218072D01*
X122520000Y-127218072D01*
X122693254Y-127201008D01*
X122859850Y-127150472D01*
X123013386Y-127068405D01*
X123147962Y-126957962D01*
X123258405Y-126823386D01*
X123340472Y-126669850D01*
X123391008Y-126503254D01*
X123408072Y-126330000D01*
X123408072Y-125130000D01*
X123391008Y-124956746D01*
X123340472Y-124790150D01*
X123258405Y-124636614D01*
X123147962Y-124502038D01*
X123013386Y-124391595D01*
X122886392Y-124323715D01*
X123073475Y-124136632D01*
X123235990Y-123893411D01*
X123347932Y-123623158D01*
X123405000Y-123336260D01*
X123405000Y-123043740D01*
X123347932Y-122756842D01*
X123235990Y-122486589D01*
X123073475Y-122243368D01*
X122866632Y-122036525D01*
X122692240Y-121920000D01*
X122866632Y-121803475D01*
X123073475Y-121596632D01*
X123235990Y-121353411D01*
X123347932Y-121083158D01*
X123405000Y-120796260D01*
X123405000Y-120503740D01*
X123347932Y-120216842D01*
X123235990Y-119946589D01*
X123073475Y-119703368D01*
X122866632Y-119496525D01*
X122692240Y-119380000D01*
X122866632Y-119263475D01*
X123073475Y-119056632D01*
X123235990Y-118813411D01*
X123347932Y-118543158D01*
X123405000Y-118256260D01*
X123405000Y-117963740D01*
X123347932Y-117676842D01*
X123235990Y-117406589D01*
X123073475Y-117163368D01*
X122866632Y-116956525D01*
X122692240Y-116840000D01*
X122866632Y-116723475D01*
X123073475Y-116516632D01*
X123235990Y-116273411D01*
X123347932Y-116003158D01*
X123405000Y-115716260D01*
X123405000Y-115423740D01*
X123347932Y-115136842D01*
X123235990Y-114866589D01*
X123073475Y-114623368D01*
X122866632Y-114416525D01*
X122692240Y-114300000D01*
X122866632Y-114183475D01*
X123073475Y-113976632D01*
X123235990Y-113733411D01*
X123347932Y-113463158D01*
X123405000Y-113176260D01*
X123405000Y-112883740D01*
X123347932Y-112596842D01*
X123235990Y-112326589D01*
X123073475Y-112083368D01*
X122866632Y-111876525D01*
X122692240Y-111760000D01*
X122866632Y-111643475D01*
X123073475Y-111436632D01*
X123235990Y-111193411D01*
X123347932Y-110923158D01*
X123405000Y-110636260D01*
X123405000Y-110343740D01*
X123347932Y-110056842D01*
X123235990Y-109786589D01*
X123073475Y-109543368D01*
X122866632Y-109336525D01*
X122692240Y-109220000D01*
X122866632Y-109103475D01*
X123073475Y-108896632D01*
X123235990Y-108653411D01*
X123347932Y-108383158D01*
X123405000Y-108096260D01*
X123405000Y-107803740D01*
X123347932Y-107516842D01*
X123235990Y-107246589D01*
X123073475Y-107003368D01*
X122866632Y-106796525D01*
X122692240Y-106680000D01*
X122866632Y-106563475D01*
X123073475Y-106356632D01*
X123235990Y-106113411D01*
X123347932Y-105843158D01*
X123405000Y-105556260D01*
X123405000Y-105263740D01*
X123347932Y-104976842D01*
X123235990Y-104706589D01*
X123073475Y-104463368D01*
X122866632Y-104256525D01*
X122693271Y-104140689D01*
X122768792Y-103898397D01*
X121920000Y-103049605D01*
X121071208Y-103898397D01*
X121146729Y-104140689D01*
X120973368Y-104256525D01*
X120766525Y-104463368D01*
X120650000Y-104637760D01*
X120533475Y-104463368D01*
X120326632Y-104256525D01*
X120152240Y-104140000D01*
X120326632Y-104023475D01*
X120533475Y-103816632D01*
X120649311Y-103643271D01*
X120891603Y-103718792D01*
X121740395Y-102870000D01*
X122099605Y-102870000D01*
X122948397Y-103718792D01*
X123197472Y-103641157D01*
X123323371Y-103377117D01*
X123395339Y-103093589D01*
X123410611Y-102801469D01*
X123368599Y-102511981D01*
X123270919Y-102236253D01*
X123197472Y-102098843D01*
X122948397Y-102021208D01*
X122099605Y-102870000D01*
X121740395Y-102870000D01*
X120891603Y-102021208D01*
X120649311Y-102096729D01*
X120533475Y-101923368D01*
X120326632Y-101716525D01*
X120153271Y-101600689D01*
X120228792Y-101358397D01*
X119380000Y-100509605D01*
X118531208Y-101358397D01*
X118606729Y-101600689D01*
X118433368Y-101716525D01*
X118226525Y-101923368D01*
X118064010Y-102166589D01*
X117952068Y-102436842D01*
X117895000Y-102723740D01*
X106436185Y-102723740D01*
X106405226Y-102568102D01*
X106327205Y-102379744D01*
X106213937Y-102210226D01*
X106069774Y-102066063D01*
X105900256Y-101952795D01*
X105711898Y-101874774D01*
X105511939Y-101835000D01*
X105308061Y-101835000D01*
X105108102Y-101874774D01*
X104919744Y-101952795D01*
X104750226Y-102066063D01*
X104606063Y-102210226D01*
X104492795Y-102379744D01*
X104414774Y-102568102D01*
X104375000Y-102768061D01*
X86575000Y-102768061D01*
X86575000Y-102723740D01*
X86517932Y-102436842D01*
X86405990Y-102166589D01*
X86243475Y-101923368D01*
X86036632Y-101716525D01*
X85862240Y-101600000D01*
X86036632Y-101483475D01*
X86243475Y-101276632D01*
X86368178Y-101090000D01*
X90132678Y-101090000D01*
X90170000Y-101093676D01*
X90207322Y-101090000D01*
X90207333Y-101090000D01*
X90318986Y-101079003D01*
X90462247Y-101035546D01*
X90594276Y-100964974D01*
X90710001Y-100870001D01*
X90733804Y-100840997D01*
X91176270Y-100398531D01*
X117889389Y-100398531D01*
X117931401Y-100688019D01*
X118029081Y-100963747D01*
X118102528Y-101101157D01*
X118351603Y-101178792D01*
X119200395Y-100330000D01*
X118351603Y-99481208D01*
X118102528Y-99558843D01*
X117976629Y-99822883D01*
X117904661Y-100106411D01*
X117889389Y-100398531D01*
X91176270Y-100398531D01*
X92756404Y-98818397D01*
X118531208Y-98818397D01*
X118606514Y-99060000D01*
X118531208Y-99301603D01*
X119380000Y-100150395D01*
X120228792Y-99301603D01*
X120153486Y-99060000D01*
X120228792Y-98818397D01*
X119380000Y-97969605D01*
X118531208Y-98818397D01*
X92756404Y-98818397D01*
X102110001Y-89464801D01*
X102110001Y-92672668D01*
X102106324Y-92710000D01*
X102120998Y-92858985D01*
X102164454Y-93002246D01*
X102235026Y-93134276D01*
X102289175Y-93200256D01*
X102330000Y-93250001D01*
X102358998Y-93273799D01*
X106021202Y-96936004D01*
X106045000Y-96965002D01*
X106160725Y-97059975D01*
X106292754Y-97130547D01*
X106436015Y-97174004D01*
X106547668Y-97185001D01*
X106547676Y-97185001D01*
X106585001Y-97188677D01*
X106622326Y-97185001D01*
X118023301Y-97185001D01*
X117976629Y-97282883D01*
X117904661Y-97566411D01*
X117889389Y-97858531D01*
X117931401Y-98148019D01*
X118029081Y-98423747D01*
X118102528Y-98561157D01*
X118351603Y-98638792D01*
X119200395Y-97790000D01*
X119186253Y-97775858D01*
X119365858Y-97596253D01*
X119380000Y-97610395D01*
X119394143Y-97596253D01*
X119573748Y-97775858D01*
X119559605Y-97790000D01*
X120408397Y-98638792D01*
X120650689Y-98563271D01*
X120766525Y-98736632D01*
X120973368Y-98943475D01*
X121147760Y-99060000D01*
X120973368Y-99176525D01*
X120766525Y-99383368D01*
X120650689Y-99556729D01*
X120408397Y-99481208D01*
X119559605Y-100330000D01*
X120408397Y-101178792D01*
X120650689Y-101103271D01*
X120766525Y-101276632D01*
X120973368Y-101483475D01*
X121146729Y-101599311D01*
X121071208Y-101841603D01*
X121920000Y-102690395D01*
X122768792Y-101841603D01*
X122693271Y-101599311D01*
X122866632Y-101483475D01*
X123073475Y-101276632D01*
X123235990Y-101033411D01*
X123347932Y-100763158D01*
X123405000Y-100476260D01*
X123405000Y-100183740D01*
X123347932Y-99896842D01*
X123235990Y-99626589D01*
X123073475Y-99383368D01*
X122866632Y-99176525D01*
X122692240Y-99060000D01*
X122866632Y-98943475D01*
X123073475Y-98736632D01*
X123235990Y-98493411D01*
X123347932Y-98223158D01*
X123405000Y-97936260D01*
X123405000Y-97643740D01*
X123347932Y-97356842D01*
X123235990Y-97086589D01*
X123073475Y-96843368D01*
X122866632Y-96636525D01*
X122692240Y-96520000D01*
X122866632Y-96403475D01*
X123073475Y-96196632D01*
X123235990Y-95953411D01*
X123347932Y-95683158D01*
X123405000Y-95396260D01*
X123405000Y-95103740D01*
X123347932Y-94816842D01*
X123235990Y-94546589D01*
X123073475Y-94303368D01*
X122866632Y-94096525D01*
X122692240Y-93980000D01*
X122866632Y-93863475D01*
X123073475Y-93656632D01*
X123235990Y-93413411D01*
X123347932Y-93143158D01*
X123405000Y-92856260D01*
X123405000Y-92563740D01*
X123347932Y-92276842D01*
X123235990Y-92006589D01*
X123073475Y-91763368D01*
X122866632Y-91556525D01*
X122692240Y-91440000D01*
X122866632Y-91323475D01*
X123073475Y-91116632D01*
X123235990Y-90873411D01*
X123347932Y-90603158D01*
X123405000Y-90316260D01*
X123405000Y-90023740D01*
X123347932Y-89736842D01*
X123235990Y-89466589D01*
X123073475Y-89223368D01*
X122866632Y-89016525D01*
X122692240Y-88900000D01*
X122866632Y-88783475D01*
X123073475Y-88576632D01*
X123235990Y-88333411D01*
X123347932Y-88063158D01*
X123405000Y-87776260D01*
X123405000Y-87483740D01*
X123347932Y-87196842D01*
X123235990Y-86926589D01*
X123073475Y-86683368D01*
X122866632Y-86476525D01*
X122692240Y-86360000D01*
X122866632Y-86243475D01*
X123073475Y-86036632D01*
X123235990Y-85793411D01*
X123347932Y-85523158D01*
X123405000Y-85236260D01*
X123405000Y-84943740D01*
X123347932Y-84656842D01*
X123235990Y-84386589D01*
X123073475Y-84143368D01*
X122866632Y-83936525D01*
X122692240Y-83820000D01*
X122866632Y-83703475D01*
X123073475Y-83496632D01*
X123235990Y-83253411D01*
X123347932Y-82983158D01*
X123405000Y-82696260D01*
X123405000Y-82403740D01*
X123347932Y-82116842D01*
X123235990Y-81846589D01*
X123073475Y-81603368D01*
X122866632Y-81396525D01*
X122692240Y-81280000D01*
X122866632Y-81163475D01*
X123073475Y-80956632D01*
X123235990Y-80713411D01*
X123347932Y-80443158D01*
X123405000Y-80156260D01*
X123405000Y-79863740D01*
X123347932Y-79576842D01*
X123235990Y-79306589D01*
X123073475Y-79063368D01*
X122866632Y-78856525D01*
X122692240Y-78740000D01*
X122866632Y-78623475D01*
X123073475Y-78416632D01*
X123235990Y-78173411D01*
X123347932Y-77903158D01*
X123405000Y-77616260D01*
X123405000Y-77323740D01*
X123347932Y-77036842D01*
X123235990Y-76766589D01*
X123073475Y-76523368D01*
X122866632Y-76316525D01*
X122623411Y-76154010D01*
X122353158Y-76042068D01*
X122066260Y-75985000D01*
X121773740Y-75985000D01*
X121486842Y-76042068D01*
X121216589Y-76154010D01*
X120973368Y-76316525D01*
X120766525Y-76523368D01*
X120650689Y-76696729D01*
X120408397Y-76621208D01*
X119559605Y-77470000D01*
X120408397Y-78318792D01*
X120650689Y-78243271D01*
X120766525Y-78416632D01*
X120973368Y-78623475D01*
X121147760Y-78740000D01*
X120973368Y-78856525D01*
X120766525Y-79063368D01*
X120650000Y-79237760D01*
X120533475Y-79063368D01*
X120326632Y-78856525D01*
X120153271Y-78740689D01*
X120228792Y-78498397D01*
X119380000Y-77649605D01*
X118531208Y-78498397D01*
X118606729Y-78740689D01*
X118433368Y-78856525D01*
X118226525Y-79063368D01*
X118064010Y-79306589D01*
X117952068Y-79576842D01*
X117895000Y-79863740D01*
X117895000Y-80156260D01*
X117952068Y-80443158D01*
X118064010Y-80713411D01*
X118199704Y-80916492D01*
X117326197Y-81790000D01*
X114371983Y-81790000D01*
X114409853Y-81698574D01*
X114465000Y-81421335D01*
X114465000Y-81138665D01*
X114409853Y-80861426D01*
X114301680Y-80600273D01*
X114144637Y-80365241D01*
X113944759Y-80165363D01*
X113709727Y-80008320D01*
X113448574Y-79900147D01*
X113171335Y-79845000D01*
X112888665Y-79845000D01*
X112611426Y-79900147D01*
X112350273Y-80008320D01*
X112115241Y-80165363D01*
X111915363Y-80365241D01*
X111758320Y-80600273D01*
X111650147Y-80861426D01*
X111595000Y-81138665D01*
X111595000Y-81421335D01*
X111650147Y-81698574D01*
X111688017Y-81790000D01*
X108653711Y-81790000D01*
X108609774Y-81746063D01*
X108440256Y-81632795D01*
X108251898Y-81554774D01*
X108051939Y-81515000D01*
X107848061Y-81515000D01*
X107648102Y-81554774D01*
X107459744Y-81632795D01*
X107290226Y-81746063D01*
X107146063Y-81890226D01*
X107032795Y-82059744D01*
X106954774Y-82248102D01*
X106915000Y-82448061D01*
X106915000Y-82651939D01*
X106954774Y-82851898D01*
X107032795Y-83040256D01*
X107146063Y-83209774D01*
X107290226Y-83353937D01*
X107459744Y-83467205D01*
X107648102Y-83545226D01*
X107848061Y-83585000D01*
X108051939Y-83585000D01*
X108251898Y-83545226D01*
X108440256Y-83467205D01*
X108609774Y-83353937D01*
X108653711Y-83310000D01*
X117545198Y-83310000D01*
X114260199Y-86595000D01*
X114198061Y-86595000D01*
X113998102Y-86634774D01*
X113809744Y-86712795D01*
X113640226Y-86826063D01*
X113496063Y-86970226D01*
X113382795Y-87139744D01*
X113304774Y-87328102D01*
X113265000Y-87528061D01*
X113265000Y-87731939D01*
X113304774Y-87931898D01*
X113382795Y-88120256D01*
X113496063Y-88289774D01*
X113640226Y-88433937D01*
X113809744Y-88547205D01*
X113998102Y-88625226D01*
X114198061Y-88665000D01*
X114401939Y-88665000D01*
X114601898Y-88625226D01*
X114790256Y-88547205D01*
X114959774Y-88433937D01*
X115103937Y-88289774D01*
X115217205Y-88120256D01*
X115295226Y-87931898D01*
X115335000Y-87731939D01*
X115335000Y-87669801D01*
X117895000Y-85109802D01*
X117895000Y-85236260D01*
X117952068Y-85523158D01*
X118064010Y-85793411D01*
X118226525Y-86036632D01*
X118433368Y-86243475D01*
X118607760Y-86360000D01*
X118433368Y-86476525D01*
X118226525Y-86683368D01*
X118064010Y-86926589D01*
X117952068Y-87196842D01*
X117895000Y-87483740D01*
X117895000Y-87776260D01*
X117952068Y-88063158D01*
X118064010Y-88333411D01*
X118226525Y-88576632D01*
X118433368Y-88783475D01*
X118606729Y-88899311D01*
X118531208Y-89141603D01*
X119380000Y-89990395D01*
X120228792Y-89141603D01*
X120153271Y-88899311D01*
X120326632Y-88783475D01*
X120533475Y-88576632D01*
X120650000Y-88402240D01*
X120766525Y-88576632D01*
X120973368Y-88783475D01*
X121147760Y-88900000D01*
X120973368Y-89016525D01*
X120766525Y-89223368D01*
X120650689Y-89396729D01*
X120408397Y-89321208D01*
X119559605Y-90170000D01*
X120408397Y-91018792D01*
X120650689Y-90943271D01*
X120766525Y-91116632D01*
X120973368Y-91323475D01*
X121147760Y-91440000D01*
X120973368Y-91556525D01*
X120766525Y-91763368D01*
X120650689Y-91936729D01*
X120408397Y-91861208D01*
X119559605Y-92710000D01*
X120408397Y-93558792D01*
X120650689Y-93483271D01*
X120766525Y-93656632D01*
X120973368Y-93863475D01*
X121147760Y-93980000D01*
X120973368Y-94096525D01*
X120766525Y-94303368D01*
X120650689Y-94476729D01*
X120408397Y-94401208D01*
X119559605Y-95250000D01*
X119573748Y-95264143D01*
X119394143Y-95443748D01*
X119380000Y-95429605D01*
X119365858Y-95443748D01*
X119186253Y-95264143D01*
X119200395Y-95250000D01*
X118351603Y-94401208D01*
X118102528Y-94478843D01*
X117976629Y-94742883D01*
X117904661Y-95026411D01*
X117889389Y-95318531D01*
X117931401Y-95608019D01*
X117951588Y-95665001D01*
X106899803Y-95665001D01*
X103630000Y-92395199D01*
X103630000Y-81983711D01*
X103673937Y-81939774D01*
X103787205Y-81770256D01*
X103865226Y-81581898D01*
X103905000Y-81381939D01*
X103905000Y-81178061D01*
X103897164Y-81138665D01*
X103975000Y-81138665D01*
X103975000Y-81421335D01*
X104030147Y-81698574D01*
X104138320Y-81959727D01*
X104295363Y-82194759D01*
X104495241Y-82394637D01*
X104650000Y-82498043D01*
X104650001Y-92006288D01*
X104606063Y-92050226D01*
X104492795Y-92219744D01*
X104414774Y-92408102D01*
X104375000Y-92608061D01*
X104375000Y-92811939D01*
X104414774Y-93011898D01*
X104492795Y-93200256D01*
X104606063Y-93369774D01*
X104750226Y-93513937D01*
X104919744Y-93627205D01*
X105108102Y-93705226D01*
X105308061Y-93745000D01*
X105511939Y-93745000D01*
X105545134Y-93738397D01*
X118531208Y-93738397D01*
X118606514Y-93980000D01*
X118531208Y-94221603D01*
X119380000Y-95070395D01*
X120228792Y-94221603D01*
X120153486Y-93980000D01*
X120228792Y-93738397D01*
X119380000Y-92889605D01*
X118531208Y-93738397D01*
X105545134Y-93738397D01*
X105711898Y-93705226D01*
X105900256Y-93627205D01*
X106069774Y-93513937D01*
X106213937Y-93369774D01*
X106327205Y-93200256D01*
X106405226Y-93011898D01*
X106445000Y-92811939D01*
X106445000Y-92778531D01*
X117889389Y-92778531D01*
X117931401Y-93068019D01*
X118029081Y-93343747D01*
X118102528Y-93481157D01*
X118351603Y-93558792D01*
X119200395Y-92710000D01*
X118351603Y-91861208D01*
X118102528Y-91938843D01*
X117976629Y-92202883D01*
X117904661Y-92486411D01*
X117889389Y-92778531D01*
X106445000Y-92778531D01*
X106445000Y-92608061D01*
X106405226Y-92408102D01*
X106327205Y-92219744D01*
X106213937Y-92050226D01*
X106170000Y-92006289D01*
X106170000Y-91198397D01*
X118531208Y-91198397D01*
X118606514Y-91440000D01*
X118531208Y-91681603D01*
X119380000Y-92530395D01*
X120228792Y-91681603D01*
X120153486Y-91440000D01*
X120228792Y-91198397D01*
X119380000Y-90349605D01*
X118531208Y-91198397D01*
X106170000Y-91198397D01*
X106170000Y-90238531D01*
X117889389Y-90238531D01*
X117931401Y-90528019D01*
X118029081Y-90803747D01*
X118102528Y-90941157D01*
X118351603Y-91018792D01*
X119200395Y-90170000D01*
X118351603Y-89321208D01*
X118102528Y-89398843D01*
X117976629Y-89662883D01*
X117904661Y-89946411D01*
X117889389Y-90238531D01*
X106170000Y-90238531D01*
X106170000Y-82498043D01*
X106324759Y-82394637D01*
X106524637Y-82194759D01*
X106681680Y-81959727D01*
X106789853Y-81698574D01*
X106845000Y-81421335D01*
X106845000Y-81138665D01*
X106789853Y-80861426D01*
X106681680Y-80600273D01*
X106524637Y-80365241D01*
X106324759Y-80165363D01*
X106089727Y-80008320D01*
X105828574Y-79900147D01*
X105551335Y-79845000D01*
X105268665Y-79845000D01*
X104991426Y-79900147D01*
X104730273Y-80008320D01*
X104495241Y-80165363D01*
X104295363Y-80365241D01*
X104138320Y-80600273D01*
X104030147Y-80861426D01*
X103975000Y-81138665D01*
X103897164Y-81138665D01*
X103865226Y-80978102D01*
X103787205Y-80789744D01*
X103673937Y-80620226D01*
X103529774Y-80476063D01*
X103360256Y-80362795D01*
X103171898Y-80284774D01*
X102971939Y-80245000D01*
X102768061Y-80245000D01*
X102614000Y-80275644D01*
X102614000Y-77328665D01*
X103975000Y-77328665D01*
X103975000Y-77611335D01*
X104030147Y-77888574D01*
X104138320Y-78149727D01*
X104295363Y-78384759D01*
X104495241Y-78584637D01*
X104730273Y-78741680D01*
X104991426Y-78849853D01*
X105268665Y-78905000D01*
X105551335Y-78905000D01*
X105828574Y-78849853D01*
X106089727Y-78741680D01*
X106324759Y-78584637D01*
X106524637Y-78384759D01*
X106681680Y-78149727D01*
X106789853Y-77888574D01*
X106845000Y-77611335D01*
X106845000Y-77328665D01*
X111595000Y-77328665D01*
X111595000Y-77611335D01*
X111650147Y-77888574D01*
X111758320Y-78149727D01*
X111915363Y-78384759D01*
X112115241Y-78584637D01*
X112350273Y-78741680D01*
X112611426Y-78849853D01*
X112888665Y-78905000D01*
X113171335Y-78905000D01*
X113448574Y-78849853D01*
X113709727Y-78741680D01*
X113944759Y-78584637D01*
X114144637Y-78384759D01*
X114301680Y-78149727D01*
X114409853Y-77888574D01*
X114465000Y-77611335D01*
X114465000Y-77538531D01*
X117889389Y-77538531D01*
X117931401Y-77828019D01*
X118029081Y-78103747D01*
X118102528Y-78241157D01*
X118351603Y-78318792D01*
X119200395Y-77470000D01*
X118351603Y-76621208D01*
X118102528Y-76698843D01*
X117976629Y-76962883D01*
X117904661Y-77246411D01*
X117889389Y-77538531D01*
X114465000Y-77538531D01*
X114465000Y-77328665D01*
X114409853Y-77051426D01*
X114301680Y-76790273D01*
X114144637Y-76555241D01*
X114030999Y-76441603D01*
X118531208Y-76441603D01*
X119380000Y-77290395D01*
X120228792Y-76441603D01*
X120151157Y-76192528D01*
X119887117Y-76066629D01*
X119603589Y-75994661D01*
X119311469Y-75979389D01*
X119021981Y-76021401D01*
X118746253Y-76119081D01*
X118608843Y-76192528D01*
X118531208Y-76441603D01*
X114030999Y-76441603D01*
X113944759Y-76355363D01*
X113709727Y-76198320D01*
X113448574Y-76090147D01*
X113171335Y-76035000D01*
X112888665Y-76035000D01*
X112611426Y-76090147D01*
X112350273Y-76198320D01*
X112115241Y-76355363D01*
X111915363Y-76555241D01*
X111758320Y-76790273D01*
X111650147Y-77051426D01*
X111595000Y-77328665D01*
X106845000Y-77328665D01*
X106789853Y-77051426D01*
X106681680Y-76790273D01*
X106524637Y-76555241D01*
X106324759Y-76355363D01*
X106089727Y-76198320D01*
X105828574Y-76090147D01*
X105551335Y-76035000D01*
X105268665Y-76035000D01*
X104991426Y-76090147D01*
X104730273Y-76198320D01*
X104495241Y-76355363D01*
X104295363Y-76555241D01*
X104138320Y-76790273D01*
X104030147Y-77051426D01*
X103975000Y-77328665D01*
X102614000Y-77328665D01*
X102614000Y-64074107D01*
X102685368Y-64145475D01*
X102928589Y-64307990D01*
X103198842Y-64419932D01*
X103485740Y-64477000D01*
X103778260Y-64477000D01*
X104065158Y-64419932D01*
X104335411Y-64307990D01*
X104578632Y-64145475D01*
X104785475Y-63938632D01*
X104902000Y-63764240D01*
X105018525Y-63938632D01*
X105225368Y-64145475D01*
X105468589Y-64307990D01*
X105738842Y-64419932D01*
X106025740Y-64477000D01*
X106318260Y-64477000D01*
X106605158Y-64419932D01*
X106875411Y-64307990D01*
X107118632Y-64145475D01*
X107325475Y-63938632D01*
X107442000Y-63764240D01*
X107558525Y-63938632D01*
X107765368Y-64145475D01*
X108008589Y-64307990D01*
X108278842Y-64419932D01*
X108565740Y-64477000D01*
X108858260Y-64477000D01*
X109145158Y-64419932D01*
X109415411Y-64307990D01*
X109658632Y-64145475D01*
X109865475Y-63938632D01*
X109982000Y-63764240D01*
X110098525Y-63938632D01*
X110305368Y-64145475D01*
X110548589Y-64307990D01*
X110818842Y-64419932D01*
X111105740Y-64477000D01*
X111398260Y-64477000D01*
X111685158Y-64419932D01*
X111955411Y-64307990D01*
X112198632Y-64145475D01*
X112405475Y-63938632D01*
X112522000Y-63764240D01*
X112638525Y-63938632D01*
X112845368Y-64145475D01*
X113088589Y-64307990D01*
X113358842Y-64419932D01*
X113645740Y-64477000D01*
X113938260Y-64477000D01*
X114225158Y-64419932D01*
X114495411Y-64307990D01*
X114738632Y-64145475D01*
X114945475Y-63938632D01*
X115062000Y-63764240D01*
X115178525Y-63938632D01*
X115385368Y-64145475D01*
X115628589Y-64307990D01*
X115898842Y-64419932D01*
X116185740Y-64477000D01*
X116478260Y-64477000D01*
X116765158Y-64419932D01*
X117035411Y-64307990D01*
X117278632Y-64145475D01*
X117485475Y-63938632D01*
X117602000Y-63764240D01*
X117718525Y-63938632D01*
X117925368Y-64145475D01*
X118168589Y-64307990D01*
X118438842Y-64419932D01*
X118725740Y-64477000D01*
X119018260Y-64477000D01*
X119305158Y-64419932D01*
X119575411Y-64307990D01*
X119818632Y-64145475D01*
X120025475Y-63938632D01*
X120142000Y-63764240D01*
X120258525Y-63938632D01*
X120465368Y-64145475D01*
X120708589Y-64307990D01*
X120978842Y-64419932D01*
X121265740Y-64477000D01*
X121558260Y-64477000D01*
X121845158Y-64419932D01*
X122115411Y-64307990D01*
X122358632Y-64145475D01*
X122565475Y-63938632D01*
X122727990Y-63695411D01*
X122839932Y-63425158D01*
X122897000Y-63138260D01*
X122897000Y-62845740D01*
X122839932Y-62558842D01*
X122727990Y-62288589D01*
X122565475Y-62045368D01*
X122433620Y-61913513D01*
X122506180Y-61891502D01*
X122616494Y-61832537D01*
X122713185Y-61753185D01*
X122792537Y-61656494D01*
X122851502Y-61546180D01*
X122887812Y-61426482D01*
X122900072Y-61302000D01*
X122900072Y-59602000D01*
X122887812Y-59477518D01*
X122851502Y-59357820D01*
X122792537Y-59247506D01*
X122713185Y-59150815D01*
X122616494Y-59071463D01*
X122506180Y-59012498D01*
X122386482Y-58976188D01*
X122262000Y-58963928D01*
X120562000Y-58963928D01*
X120437518Y-58976188D01*
X120317820Y-59012498D01*
X120207506Y-59071463D01*
X120110815Y-59150815D01*
X120031463Y-59247506D01*
X119972498Y-59357820D01*
X119950487Y-59430380D01*
X119818632Y-59298525D01*
X119575411Y-59136010D01*
X119305158Y-59024068D01*
X119018260Y-58967000D01*
X118725740Y-58967000D01*
X118438842Y-59024068D01*
X118168589Y-59136010D01*
X117925368Y-59298525D01*
X117718525Y-59505368D01*
X117602000Y-59679760D01*
X117485475Y-59505368D01*
X117278632Y-59298525D01*
X117035411Y-59136010D01*
X116765158Y-59024068D01*
X116478260Y-58967000D01*
X116185740Y-58967000D01*
X115898842Y-59024068D01*
X115628589Y-59136010D01*
X115385368Y-59298525D01*
X115178525Y-59505368D01*
X115062000Y-59679760D01*
X114945475Y-59505368D01*
X114738632Y-59298525D01*
X114495411Y-59136010D01*
X114225158Y-59024068D01*
X113938260Y-58967000D01*
X113645740Y-58967000D01*
X113358842Y-59024068D01*
X113088589Y-59136010D01*
X112845368Y-59298525D01*
X112638525Y-59505368D01*
X112522000Y-59679760D01*
X112405475Y-59505368D01*
X112198632Y-59298525D01*
X111955411Y-59136010D01*
X111685158Y-59024068D01*
X111398260Y-58967000D01*
X111105740Y-58967000D01*
X110818842Y-59024068D01*
X110548589Y-59136010D01*
X110305368Y-59298525D01*
X110098525Y-59505368D01*
X109982000Y-59679760D01*
X109865475Y-59505368D01*
X109658632Y-59298525D01*
X109415411Y-59136010D01*
X109145158Y-59024068D01*
X108858260Y-58967000D01*
X108565740Y-58967000D01*
X108278842Y-59024068D01*
X108008589Y-59136010D01*
X107765368Y-59298525D01*
X107558525Y-59505368D01*
X107442000Y-59679760D01*
X107325475Y-59505368D01*
X107118632Y-59298525D01*
X106875411Y-59136010D01*
X106605158Y-59024068D01*
X106318260Y-58967000D01*
X106025740Y-58967000D01*
X105738842Y-59024068D01*
X105468589Y-59136010D01*
X105225368Y-59298525D01*
X105018525Y-59505368D01*
X104902000Y-59679760D01*
X104785475Y-59505368D01*
X104578632Y-59298525D01*
X104335411Y-59136010D01*
X104065158Y-59024068D01*
X103778260Y-58967000D01*
X103485740Y-58967000D01*
X103198842Y-59024068D01*
X102928589Y-59136010D01*
X102685368Y-59298525D01*
X102614000Y-59369893D01*
X102614000Y-57653396D01*
X102717241Y-57756637D01*
X102952273Y-57913680D01*
X103213426Y-58021853D01*
X103490665Y-58077000D01*
X103773335Y-58077000D01*
X104050574Y-58021853D01*
X104311727Y-57913680D01*
X104546759Y-57756637D01*
X104746637Y-57556759D01*
X104902000Y-57324241D01*
X105057363Y-57556759D01*
X105257241Y-57756637D01*
X105492273Y-57913680D01*
X105753426Y-58021853D01*
X106030665Y-58077000D01*
X106313335Y-58077000D01*
X106590574Y-58021853D01*
X106851727Y-57913680D01*
X107086759Y-57756637D01*
X107286637Y-57556759D01*
X107442000Y-57324241D01*
X107597363Y-57556759D01*
X107797241Y-57756637D01*
X108032273Y-57913680D01*
X108293426Y-58021853D01*
X108570665Y-58077000D01*
X108853335Y-58077000D01*
X109130574Y-58021853D01*
X109391727Y-57913680D01*
X109626759Y-57756637D01*
X109826637Y-57556759D01*
X109982000Y-57324241D01*
X110137363Y-57556759D01*
X110337241Y-57756637D01*
X110572273Y-57913680D01*
X110833426Y-58021853D01*
X111110665Y-58077000D01*
X111393335Y-58077000D01*
X111670574Y-58021853D01*
X111931727Y-57913680D01*
X112166759Y-57756637D01*
X112366637Y-57556759D01*
X112522000Y-57324241D01*
X112677363Y-57556759D01*
X112877241Y-57756637D01*
X113112273Y-57913680D01*
X113373426Y-58021853D01*
X113650665Y-58077000D01*
X113933335Y-58077000D01*
X114210574Y-58021853D01*
X114471727Y-57913680D01*
X114706759Y-57756637D01*
X114906637Y-57556759D01*
X115062000Y-57324241D01*
X115217363Y-57556759D01*
X115417241Y-57756637D01*
X115652273Y-57913680D01*
X115913426Y-58021853D01*
X116190665Y-58077000D01*
X116473335Y-58077000D01*
X116750574Y-58021853D01*
X117011727Y-57913680D01*
X117246759Y-57756637D01*
X117446637Y-57556759D01*
X117602000Y-57324241D01*
X117757363Y-57556759D01*
X117957241Y-57756637D01*
X118192273Y-57913680D01*
X118453426Y-58021853D01*
X118730665Y-58077000D01*
X119013335Y-58077000D01*
X119290574Y-58021853D01*
X119551727Y-57913680D01*
X119786759Y-57756637D01*
X119986637Y-57556759D01*
X120142000Y-57324241D01*
X120297363Y-57556759D01*
X120497241Y-57756637D01*
X120732273Y-57913680D01*
X120993426Y-58021853D01*
X121270665Y-58077000D01*
X121553335Y-58077000D01*
X121735886Y-58040688D01*
X123700001Y-60004803D01*
X123700000Y-66995197D01*
X121605199Y-69090000D01*
X109257325Y-69090000D01*
X109220000Y-69086324D01*
X109182675Y-69090000D01*
X109182667Y-69090000D01*
X109071014Y-69100997D01*
X108927753Y-69144454D01*
X108795724Y-69215026D01*
X108679999Y-69309999D01*
X108656201Y-69338997D01*
X105733887Y-72261312D01*
X105551335Y-72225000D01*
X105268665Y-72225000D01*
X104991426Y-72280147D01*
X104730273Y-72388320D01*
X104495241Y-72545363D01*
X104295363Y-72745241D01*
X104138320Y-72980273D01*
X104030147Y-73241426D01*
X103975000Y-73518665D01*
X103975000Y-73801335D01*
X104030147Y-74078574D01*
X104138320Y-74339727D01*
X104295363Y-74574759D01*
X104495241Y-74774637D01*
X104730273Y-74931680D01*
X104991426Y-75039853D01*
X105268665Y-75095000D01*
X105551335Y-75095000D01*
X105828574Y-75039853D01*
X106089727Y-74931680D01*
X106324759Y-74774637D01*
X106524637Y-74574759D01*
X106681680Y-74339727D01*
X106789853Y-74078574D01*
X106845000Y-73801335D01*
X106845000Y-73518665D01*
X111595000Y-73518665D01*
X111595000Y-73801335D01*
X111650147Y-74078574D01*
X111758320Y-74339727D01*
X111915363Y-74574759D01*
X112115241Y-74774637D01*
X112350273Y-74931680D01*
X112611426Y-75039853D01*
X112888665Y-75095000D01*
X113171335Y-75095000D01*
X113448574Y-75039853D01*
X113709727Y-74931680D01*
X113944759Y-74774637D01*
X114144637Y-74574759D01*
X114301680Y-74339727D01*
X114409853Y-74078574D01*
X114465000Y-73801335D01*
X114465000Y-73518665D01*
X114409853Y-73241426D01*
X114301680Y-72980273D01*
X114144637Y-72745241D01*
X113944759Y-72545363D01*
X113709727Y-72388320D01*
X113448574Y-72280147D01*
X113171335Y-72225000D01*
X112888665Y-72225000D01*
X112611426Y-72280147D01*
X112350273Y-72388320D01*
X112115241Y-72545363D01*
X111915363Y-72745241D01*
X111758320Y-72980273D01*
X111650147Y-73241426D01*
X111595000Y-73518665D01*
X106845000Y-73518665D01*
X106808688Y-73336113D01*
X109534802Y-70610000D01*
X121882678Y-70610000D01*
X121920000Y-70613676D01*
X121957322Y-70610000D01*
X121957333Y-70610000D01*
X122068986Y-70599003D01*
X122212247Y-70555546D01*
X122344276Y-70484974D01*
X122460001Y-70390001D01*
X122483804Y-70360997D01*
X124971009Y-67873794D01*
X125000001Y-67850001D01*
X125023795Y-67821008D01*
X125023799Y-67821004D01*
X125094973Y-67734277D01*
X125094974Y-67734276D01*
X125165546Y-67602247D01*
X125209003Y-67458986D01*
X125220000Y-67347333D01*
X125220000Y-67347324D01*
X125223676Y-67310001D01*
X125220000Y-67272678D01*
X125220000Y-60060000D01*
X125461928Y-60060000D01*
X125461928Y-61860000D01*
X125474188Y-61984482D01*
X125510498Y-62104180D01*
X125569463Y-62214494D01*
X125648815Y-62311185D01*
X125745506Y-62390537D01*
X125855820Y-62449502D01*
X125975518Y-62485812D01*
X126100000Y-62498072D01*
X127900000Y-62498072D01*
X128024482Y-62485812D01*
X128144180Y-62449502D01*
X128254494Y-62390537D01*
X128351185Y-62311185D01*
X128430537Y-62214494D01*
X128489502Y-62104180D01*
X128495056Y-62085873D01*
X128561495Y-62152312D01*
X128812905Y-62320299D01*
X129092257Y-62436011D01*
X129388816Y-62495000D01*
X129691184Y-62495000D01*
X129987743Y-62436011D01*
X130267095Y-62320299D01*
X130518505Y-62152312D01*
X130732312Y-61938505D01*
X130900299Y-61687095D01*
X131016011Y-61407743D01*
X131075000Y-61111184D01*
X131075000Y-60808816D01*
X131016011Y-60512257D01*
X130900299Y-60232905D01*
X130732312Y-59981495D01*
X130518505Y-59767688D01*
X130267095Y-59599701D01*
X129987743Y-59483989D01*
X129691184Y-59425000D01*
X129388816Y-59425000D01*
X129092257Y-59483989D01*
X128812905Y-59599701D01*
X128561495Y-59767688D01*
X128495056Y-59834127D01*
X128489502Y-59815820D01*
X128430537Y-59705506D01*
X128351185Y-59608815D01*
X128254494Y-59529463D01*
X128144180Y-59470498D01*
X128024482Y-59434188D01*
X127900000Y-59421928D01*
X126100000Y-59421928D01*
X125975518Y-59434188D01*
X125855820Y-59470498D01*
X125745506Y-59529463D01*
X125648815Y-59608815D01*
X125569463Y-59705506D01*
X125510498Y-59815820D01*
X125474188Y-59935518D01*
X125461928Y-60060000D01*
X125220000Y-60060000D01*
X125220000Y-59727323D01*
X125223676Y-59690000D01*
X125220000Y-59652677D01*
X125220000Y-59652667D01*
X125209003Y-59541014D01*
X125165546Y-59397753D01*
X125112507Y-59298525D01*
X125094974Y-59265723D01*
X125023799Y-59178997D01*
X125000001Y-59149999D01*
X124971003Y-59126201D01*
X122810688Y-56965886D01*
X122847000Y-56783335D01*
X122847000Y-56500665D01*
X122791853Y-56223426D01*
X122683680Y-55962273D01*
X122534271Y-55738665D01*
X128105000Y-55738665D01*
X128105000Y-56021335D01*
X128160147Y-56298574D01*
X128268320Y-56559727D01*
X128425363Y-56794759D01*
X128625241Y-56994637D01*
X128860273Y-57151680D01*
X129121426Y-57259853D01*
X129398665Y-57315000D01*
X129681335Y-57315000D01*
X129958574Y-57259853D01*
X130219727Y-57151680D01*
X130454759Y-56994637D01*
X130654637Y-56794759D01*
X130811680Y-56559727D01*
X130919853Y-56298574D01*
X130975000Y-56021335D01*
X130975000Y-55738665D01*
X130919853Y-55461426D01*
X130811680Y-55200273D01*
X130654637Y-54965241D01*
X130454759Y-54765363D01*
X130219727Y-54608320D01*
X129958574Y-54500147D01*
X129681335Y-54445000D01*
X129398665Y-54445000D01*
X129121426Y-54500147D01*
X128860273Y-54608320D01*
X128625241Y-54765363D01*
X128425363Y-54965241D01*
X128268320Y-55200273D01*
X128160147Y-55461426D01*
X128105000Y-55738665D01*
X122534271Y-55738665D01*
X122526637Y-55727241D01*
X122326759Y-55527363D01*
X122091727Y-55370320D01*
X121830574Y-55262147D01*
X121553335Y-55207000D01*
X121270665Y-55207000D01*
X120993426Y-55262147D01*
X120732273Y-55370320D01*
X120497241Y-55527363D01*
X120297363Y-55727241D01*
X120142000Y-55959759D01*
X119986637Y-55727241D01*
X119786759Y-55527363D01*
X119551727Y-55370320D01*
X119290574Y-55262147D01*
X119082698Y-55220797D01*
X119106687Y-55207975D01*
X119222412Y-55113002D01*
X119246215Y-55083998D01*
X123701009Y-50629206D01*
X123730001Y-50605413D01*
X123753795Y-50576420D01*
X123753799Y-50576416D01*
X123824973Y-50489689D01*
X123824974Y-50489688D01*
X123895546Y-50357659D01*
X123939003Y-50214398D01*
X123950000Y-50102745D01*
X123950000Y-50102736D01*
X123953676Y-50065413D01*
X123950000Y-50028090D01*
X123950000Y-48480941D01*
X124031127Y-48399814D01*
X124144395Y-48230296D01*
X124222416Y-48041938D01*
X124262190Y-47841979D01*
X124262190Y-47750000D01*
X127724678Y-47750000D01*
X127762000Y-47753676D01*
X127799322Y-47750000D01*
X127799333Y-47750000D01*
X127910986Y-47739003D01*
X128054247Y-47695546D01*
X128186276Y-47624974D01*
X128301801Y-47530165D01*
X128268320Y-47580273D01*
X128160147Y-47841426D01*
X128105000Y-48118665D01*
X128105000Y-48401335D01*
X128160147Y-48678574D01*
X128268320Y-48939727D01*
X128425363Y-49174759D01*
X128625241Y-49374637D01*
X128860273Y-49531680D01*
X129121426Y-49639853D01*
X129398665Y-49695000D01*
X129681335Y-49695000D01*
X129958574Y-49639853D01*
X130219727Y-49531680D01*
X130454759Y-49374637D01*
X130654637Y-49174759D01*
X130811680Y-48939727D01*
X130919853Y-48678574D01*
X130975000Y-48401335D01*
X130975000Y-48118665D01*
X130919853Y-47841426D01*
X130811680Y-47580273D01*
X130654637Y-47345241D01*
X130454759Y-47145363D01*
X130219727Y-46988320D01*
X129958574Y-46880147D01*
X129681335Y-46825000D01*
X129398665Y-46825000D01*
X129121426Y-46880147D01*
X128860273Y-46988320D01*
X128810165Y-47021801D01*
X128904974Y-46906276D01*
X128975546Y-46774247D01*
X129019003Y-46630986D01*
X129030000Y-46519333D01*
X129030000Y-46519324D01*
X129033676Y-46482001D01*
X129030000Y-46444678D01*
X129030000Y-41693322D01*
X129033676Y-41655999D01*
X129030000Y-41618676D01*
X129030000Y-41618667D01*
X129019003Y-41507014D01*
X128975546Y-41363753D01*
X128928120Y-41275026D01*
X128904974Y-41231723D01*
X128833799Y-41144997D01*
X128810001Y-41115999D01*
X128781004Y-41092202D01*
X125448873Y-37760072D01*
X126276000Y-37760072D01*
X126400482Y-37747812D01*
X126520180Y-37711502D01*
X126630494Y-37652537D01*
X126727185Y-37573185D01*
X126806537Y-37476494D01*
X126865502Y-37366180D01*
X126901812Y-37246482D01*
X126914072Y-37122000D01*
X126914072Y-35522000D01*
X126901812Y-35397518D01*
X126865502Y-35277820D01*
X126806537Y-35167506D01*
X126727185Y-35070815D01*
X126630494Y-34991463D01*
X126552923Y-34950000D01*
X127996620Y-34950000D01*
X132690001Y-39643382D01*
X132690000Y-64496619D01*
X127826236Y-69360384D01*
X127801052Y-69381052D01*
X127780386Y-69406234D01*
X127718575Y-69481550D01*
X127677844Y-69557753D01*
X127657290Y-69596208D01*
X127619550Y-69720618D01*
X127610000Y-69817582D01*
X127610000Y-69817591D01*
X127606808Y-69850000D01*
X127610000Y-69882409D01*
X127610001Y-133076618D01*
X122916620Y-137770000D01*
X83210000Y-137770000D01*
X83210000Y-35980000D01*
X83601928Y-35980000D01*
X83601928Y-37680000D01*
X83614188Y-37804482D01*
X83650498Y-37924180D01*
X83709463Y-38034494D01*
X83788815Y-38131185D01*
X83885506Y-38210537D01*
X83995820Y-38269502D01*
X84076466Y-38293966D01*
X83992412Y-38369731D01*
X83818359Y-38603080D01*
X83693175Y-38865901D01*
X83648524Y-39013110D01*
X83769845Y-39243000D01*
X84963000Y-39243000D01*
X84963000Y-39223000D01*
X85217000Y-39223000D01*
X85217000Y-39243000D01*
X86410155Y-39243000D01*
X86531476Y-39013110D01*
X86486825Y-38865901D01*
X86361641Y-38603080D01*
X86187588Y-38369731D01*
X86103534Y-38293966D01*
X86184180Y-38269502D01*
X86294494Y-38210537D01*
X86391185Y-38131185D01*
X86470537Y-38034494D01*
X86529502Y-37924180D01*
X86565812Y-37804482D01*
X86578072Y-37680000D01*
X86578072Y-35980000D01*
X86565812Y-35855518D01*
X86529502Y-35735820D01*
X86470537Y-35625506D01*
X86391185Y-35528815D01*
X86294494Y-35449463D01*
X86184180Y-35390498D01*
X86064482Y-35354188D01*
X85940000Y-35341928D01*
X84240000Y-35341928D01*
X84115518Y-35354188D01*
X83995820Y-35390498D01*
X83885506Y-35449463D01*
X83788815Y-35528815D01*
X83709463Y-35625506D01*
X83650498Y-35735820D01*
X83614188Y-35855518D01*
X83601928Y-35980000D01*
X83210000Y-35980000D01*
X83210000Y-34950000D01*
X104210467Y-34950000D01*
X103968273Y-35050320D01*
G37*
X103968273Y-35050320D02*
X103733241Y-35207363D01*
X103533363Y-35407241D01*
X103376320Y-35642273D01*
X103268147Y-35903426D01*
X103213000Y-36180665D01*
X103213000Y-36463335D01*
X103268147Y-36740574D01*
X103376320Y-37001727D01*
X103533363Y-37236759D01*
X103733241Y-37436637D01*
X103968273Y-37593680D01*
X104229426Y-37701853D01*
X104506665Y-37757000D01*
X104789335Y-37757000D01*
X105066574Y-37701853D01*
X105327727Y-37593680D01*
X105562759Y-37436637D01*
X105762637Y-37236759D01*
X105919680Y-37001727D01*
X106027853Y-36740574D01*
X106083000Y-36463335D01*
X106083000Y-36180665D01*
X106027853Y-35903426D01*
X105919680Y-35642273D01*
X105762637Y-35407241D01*
X105562759Y-35207363D01*
X105327727Y-35050320D01*
X105085533Y-34950000D01*
X109821338Y-34950000D01*
X109752913Y-34970754D01*
X109498580Y-35090963D01*
X109272586Y-35258481D01*
X109083615Y-35466869D01*
X108938930Y-35708119D01*
X108844091Y-35972960D01*
X108965376Y-36195000D01*
X110109000Y-36195000D01*
X110109000Y-36175000D01*
X110363000Y-36175000D01*
X110363000Y-36195000D01*
X110383000Y-36195000D01*
X110383000Y-36449000D01*
X110363000Y-36449000D01*
X110363000Y-36469000D01*
X110109000Y-36469000D01*
X110109000Y-36449000D01*
X108965376Y-36449000D01*
X108844091Y-36671040D01*
X108938930Y-36935881D01*
X109028961Y-37086000D01*
X107479322Y-37086000D01*
X107441999Y-37082324D01*
X107404676Y-37086000D01*
X107404667Y-37086000D01*
X107293014Y-37096997D01*
X107149753Y-37140454D01*
X107017724Y-37211026D01*
X106901999Y-37305999D01*
X106878201Y-37334997D01*
X103084199Y-41129000D01*
X103022061Y-41129000D01*
X102822102Y-41168774D01*
X102633744Y-41246795D01*
X102464226Y-41360063D01*
X102320063Y-41504226D01*
X102206795Y-41673744D01*
X102128774Y-41862102D01*
X102089000Y-42062061D01*
X102089000Y-42265939D01*
X102128774Y-42465898D01*
X102206795Y-42654256D01*
X102320063Y-42823774D01*
X102464226Y-42967937D01*
X102633744Y-43081205D01*
X102822102Y-43159226D01*
X103022061Y-43199000D01*
X103225939Y-43199000D01*
X103425898Y-43159226D01*
X103452550Y-43148186D01*
X103376320Y-43262273D01*
X103268147Y-43523426D01*
X103213000Y-43800665D01*
X103213000Y-44083335D01*
X103268147Y-44360574D01*
X103376320Y-44621727D01*
X103533363Y-44856759D01*
X103733241Y-45056637D01*
X103968273Y-45213680D01*
X104229426Y-45321853D01*
X104506665Y-45377000D01*
X104789335Y-45377000D01*
X105066574Y-45321853D01*
X105327727Y-45213680D01*
X105562759Y-45056637D01*
X105762637Y-44856759D01*
X105919680Y-44621727D01*
X106027853Y-44360574D01*
X106083000Y-44083335D01*
X106083000Y-43800665D01*
X106027853Y-43523426D01*
X105919680Y-43262273D01*
X105762637Y-43027241D01*
X105562759Y-42827363D01*
X105327727Y-42670320D01*
X105066574Y-42562147D01*
X104789335Y-42507000D01*
X104506665Y-42507000D01*
X104229426Y-42562147D01*
X104048278Y-42637181D01*
X104119226Y-42465898D01*
X104159000Y-42265939D01*
X104159000Y-42203801D01*
X107756802Y-38606000D01*
X111214678Y-38606000D01*
X111252000Y-38609676D01*
X111289322Y-38606000D01*
X111289333Y-38606000D01*
X111400986Y-38595003D01*
X111544247Y-38551546D01*
X111676276Y-38480974D01*
X111792001Y-38386001D01*
X111815803Y-38356998D01*
X112452114Y-37720688D01*
X112634665Y-37757000D01*
X112917335Y-37757000D01*
X113194574Y-37701853D01*
X113455727Y-37593680D01*
X113690759Y-37436637D01*
X113890637Y-37236759D01*
X114046000Y-37004241D01*
X114201363Y-37236759D01*
X114401241Y-37436637D01*
X114636273Y-37593680D01*
X114897426Y-37701853D01*
X115174665Y-37757000D01*
X115457335Y-37757000D01*
X115734574Y-37701853D01*
X115995727Y-37593680D01*
X116230759Y-37436637D01*
X116430637Y-37236759D01*
X116586000Y-37004241D01*
X116741363Y-37236759D01*
X116941241Y-37436637D01*
X117176273Y-37593680D01*
X117437426Y-37701853D01*
X117714665Y-37757000D01*
X117997335Y-37757000D01*
X118274574Y-37701853D01*
X118535727Y-37593680D01*
X118770759Y-37436637D01*
X118970637Y-37236759D01*
X119126000Y-37004241D01*
X119281363Y-37236759D01*
X119481241Y-37436637D01*
X119716273Y-37593680D01*
X119977426Y-37701853D01*
X120254665Y-37757000D01*
X120537335Y-37757000D01*
X120814574Y-37701853D01*
X121075727Y-37593680D01*
X121310759Y-37436637D01*
X121510637Y-37236759D01*
X121666000Y-37004241D01*
X121821363Y-37236759D01*
X122021241Y-37436637D01*
X122256273Y-37593680D01*
X122517426Y-37701853D01*
X122794665Y-37757000D01*
X123077335Y-37757000D01*
X123259887Y-37720688D01*
X127510000Y-41970802D01*
X127510001Y-46167198D01*
X127447199Y-46230000D01*
X116736320Y-46230000D01*
X116698997Y-46226324D01*
X116661674Y-46230000D01*
X116661665Y-46230000D01*
X116550012Y-46240997D01*
X116406751Y-46284454D01*
X116274722Y-46355026D01*
X116158997Y-46449999D01*
X116135200Y-46478996D01*
X114706796Y-47907400D01*
X114706759Y-47907363D01*
X114471727Y-47750320D01*
X114210574Y-47642147D01*
X113933335Y-47587000D01*
X113650665Y-47587000D01*
X113426999Y-47631491D01*
X113426999Y-46030804D01*
X114401204Y-45056600D01*
X114401241Y-45056637D01*
X114636273Y-45213680D01*
X114897426Y-45321853D01*
X115174665Y-45377000D01*
X115457335Y-45377000D01*
X115734574Y-45321853D01*
X115995727Y-45213680D01*
X116230759Y-45056637D01*
X116430637Y-44856759D01*
X116586000Y-44624241D01*
X116741363Y-44856759D01*
X116941241Y-45056637D01*
X117176273Y-45213680D01*
X117437426Y-45321853D01*
X117714665Y-45377000D01*
X117997335Y-45377000D01*
X118274574Y-45321853D01*
X118535727Y-45213680D01*
X118770759Y-45056637D01*
X118970637Y-44856759D01*
X119127680Y-44621727D01*
X119132067Y-44611135D01*
X119243615Y-44797131D01*
X119432586Y-45005519D01*
X119658580Y-45173037D01*
X119912913Y-45293246D01*
X120046961Y-45333904D01*
X120269000Y-45211915D01*
X120269000Y-44069000D01*
X120523000Y-44069000D01*
X120523000Y-45211915D01*
X120745039Y-45333904D01*
X120879087Y-45293246D01*
X121133420Y-45173037D01*
X121359414Y-45005519D01*
X121548385Y-44797131D01*
X121666000Y-44601018D01*
X121783615Y-44797131D01*
X121972586Y-45005519D01*
X122198580Y-45173037D01*
X122452913Y-45293246D01*
X122586961Y-45333904D01*
X122809000Y-45211915D01*
X122809000Y-44069000D01*
X120523000Y-44069000D01*
X120269000Y-44069000D01*
X120249000Y-44069000D01*
X120249000Y-43815000D01*
X120269000Y-43815000D01*
X120269000Y-42672085D01*
X120523000Y-42672085D01*
X120523000Y-43815000D01*
X122809000Y-43815000D01*
X122809000Y-42672085D01*
X123063000Y-42672085D01*
X123063000Y-43815000D01*
X123083000Y-43815000D01*
X123083000Y-44069000D01*
X123063000Y-44069000D01*
X123063000Y-45211915D01*
X123285039Y-45333904D01*
X123419087Y-45293246D01*
X123673420Y-45173037D01*
X123899414Y-45005519D01*
X124088385Y-44797131D01*
X124199933Y-44611135D01*
X124204320Y-44621727D01*
X124361363Y-44856759D01*
X124561241Y-45056637D01*
X124796273Y-45213680D01*
X125057426Y-45321853D01*
X125334665Y-45377000D01*
X125617335Y-45377000D01*
X125894574Y-45321853D01*
X126155727Y-45213680D01*
X126390759Y-45056637D01*
X126590637Y-44856759D01*
X126747680Y-44621727D01*
X126855853Y-44360574D01*
X126911000Y-44083335D01*
X126911000Y-43800665D01*
X126855853Y-43523426D01*
X126747680Y-43262273D01*
X126590637Y-43027241D01*
X126390759Y-42827363D01*
X126155727Y-42670320D01*
X125894574Y-42562147D01*
X125617335Y-42507000D01*
X125334665Y-42507000D01*
X125057426Y-42562147D01*
X124796273Y-42670320D01*
X124561241Y-42827363D01*
X124361363Y-43027241D01*
X124204320Y-43262273D01*
X124199933Y-43272865D01*
X124088385Y-43086869D01*
X123899414Y-42878481D01*
X123673420Y-42710963D01*
X123419087Y-42590754D01*
X123285039Y-42550096D01*
X123063000Y-42672085D01*
X122809000Y-42672085D01*
X122586961Y-42550096D01*
X122452913Y-42590754D01*
X122198580Y-42710963D01*
X121972586Y-42878481D01*
X121783615Y-43086869D01*
X121666000Y-43282982D01*
X121548385Y-43086869D01*
X121359414Y-42878481D01*
X121133420Y-42710963D01*
X120879087Y-42590754D01*
X120745039Y-42550096D01*
X120523000Y-42672085D01*
X120269000Y-42672085D01*
X120046961Y-42550096D01*
X119912913Y-42590754D01*
X119658580Y-42710963D01*
X119432586Y-42878481D01*
X119243615Y-43086869D01*
X119132067Y-43272865D01*
X119127680Y-43262273D01*
X118970637Y-43027241D01*
X118770759Y-42827363D01*
X118535727Y-42670320D01*
X118274574Y-42562147D01*
X117997335Y-42507000D01*
X117714665Y-42507000D01*
X117437426Y-42562147D01*
X117176273Y-42670320D01*
X116941241Y-42827363D01*
X116741363Y-43027241D01*
X116586000Y-43259759D01*
X116430637Y-43027241D01*
X116230759Y-42827363D01*
X115995727Y-42670320D01*
X115734574Y-42562147D01*
X115457335Y-42507000D01*
X115174665Y-42507000D01*
X115141469Y-42513603D01*
X115217205Y-42400256D01*
X115295226Y-42211898D01*
X115335000Y-42011939D01*
X115335000Y-41808061D01*
X115295226Y-41608102D01*
X115217205Y-41419744D01*
X115103937Y-41250226D01*
X114959774Y-41106063D01*
X114790256Y-40992795D01*
X114601898Y-40914774D01*
X114401939Y-40875000D01*
X114198061Y-40875000D01*
X113998102Y-40914774D01*
X113809744Y-40992795D01*
X113640226Y-41106063D01*
X113496063Y-41250226D01*
X113382795Y-41419744D01*
X113304774Y-41608102D01*
X113265000Y-41808061D01*
X113265000Y-42011939D01*
X113304774Y-42211898D01*
X113382795Y-42400256D01*
X113431000Y-42472400D01*
X113431000Y-42660078D01*
X113194574Y-42562147D01*
X112917335Y-42507000D01*
X112634665Y-42507000D01*
X112601469Y-42513603D01*
X112677205Y-42400256D01*
X112755226Y-42211898D01*
X112795000Y-42011939D01*
X112795000Y-41808061D01*
X112755226Y-41608102D01*
X112677205Y-41419744D01*
X112563937Y-41250226D01*
X112419774Y-41106063D01*
X112250256Y-40992795D01*
X112061898Y-40914774D01*
X111861939Y-40875000D01*
X111658061Y-40875000D01*
X111458102Y-40914774D01*
X111269744Y-40992795D01*
X111100226Y-41106063D01*
X110956063Y-41250226D01*
X110842795Y-41419744D01*
X110764774Y-41608102D01*
X110725000Y-41808061D01*
X110725000Y-41886644D01*
X110655455Y-42016753D01*
X110641712Y-42062061D01*
X110611999Y-42160013D01*
X110607839Y-42202246D01*
X110597325Y-42308999D01*
X110601002Y-42346331D01*
X110601002Y-42551491D01*
X110377335Y-42507000D01*
X110094665Y-42507000D01*
X109817426Y-42562147D01*
X109556273Y-42670320D01*
X109321241Y-42827363D01*
X109121363Y-43027241D01*
X108964320Y-43262273D01*
X108856147Y-43523426D01*
X108801000Y-43800665D01*
X108801000Y-44083335D01*
X108856147Y-44360574D01*
X108964320Y-44621727D01*
X109121363Y-44856759D01*
X109321241Y-45056637D01*
X109556273Y-45213680D01*
X109817426Y-45321853D01*
X110094665Y-45377000D01*
X110377335Y-45377000D01*
X110601002Y-45332509D01*
X110601001Y-47738420D01*
X110572273Y-47750320D01*
X110337241Y-47907363D01*
X110137363Y-48107241D01*
X109982000Y-48339759D01*
X109826637Y-48107241D01*
X109626759Y-47907363D01*
X109391727Y-47750320D01*
X109130574Y-47642147D01*
X108853335Y-47587000D01*
X108570665Y-47587000D01*
X108293426Y-47642147D01*
X108032273Y-47750320D01*
X107797241Y-47907363D01*
X107597363Y-48107241D01*
X107442000Y-48339759D01*
X107286637Y-48107241D01*
X107086759Y-47907363D01*
X106851727Y-47750320D01*
X106590574Y-47642147D01*
X106313335Y-47587000D01*
X106030665Y-47587000D01*
X105753426Y-47642147D01*
X105492273Y-47750320D01*
X105257241Y-47907363D01*
X105057363Y-48107241D01*
X104900320Y-48342273D01*
X104895933Y-48352865D01*
X104784385Y-48166869D01*
X104595414Y-47958481D01*
X104369420Y-47790963D01*
X104115087Y-47670754D01*
X103981039Y-47630096D01*
X103759000Y-47752085D01*
X103759000Y-48895000D01*
X103779000Y-48895000D01*
X103779000Y-49149000D01*
X103759000Y-49149000D01*
X103759000Y-49169000D01*
X103505000Y-49169000D01*
X103505000Y-49149000D01*
X102361376Y-49149000D01*
X102240091Y-49371040D01*
X102334930Y-49635881D01*
X102424961Y-49786000D01*
X100367323Y-49786000D01*
X100330000Y-49782324D01*
X100292677Y-49786000D01*
X100292667Y-49786000D01*
X100181014Y-49796997D01*
X100037753Y-49840454D01*
X99905723Y-49911026D01*
X99842201Y-49963158D01*
X99789999Y-50005999D01*
X99766201Y-50034997D01*
X97787003Y-52014196D01*
X97757999Y-52037999D01*
X97702871Y-52105174D01*
X97663026Y-52153724D01*
X97602254Y-52267420D01*
X97592454Y-52285754D01*
X97548997Y-52429015D01*
X97538000Y-52540668D01*
X97538000Y-52540678D01*
X97534324Y-52578000D01*
X97538000Y-52615322D01*
X97538001Y-70297197D01*
X96205199Y-71630000D01*
X88534013Y-71630000D01*
X88547205Y-71610256D01*
X88625226Y-71421898D01*
X88665000Y-71221939D01*
X88665000Y-71018061D01*
X88625226Y-70818102D01*
X88547205Y-70629744D01*
X88433937Y-70460226D01*
X88390000Y-70416289D01*
X88390000Y-48672960D01*
X102240091Y-48672960D01*
X102361376Y-48895000D01*
X103505000Y-48895000D01*
X103505000Y-47752085D01*
X103282961Y-47630096D01*
X103148913Y-47670754D01*
X102894580Y-47790963D01*
X102668586Y-47958481D01*
X102479615Y-48166869D01*
X102334930Y-48408119D01*
X102240091Y-48672960D01*
X88390000Y-48672960D01*
X88390000Y-47027322D01*
X88393676Y-46989999D01*
X88390000Y-46952676D01*
X88390000Y-46952667D01*
X88379003Y-46841014D01*
X88335546Y-46697753D01*
X88264974Y-46565724D01*
X88226902Y-46519333D01*
X88193799Y-46478996D01*
X88193795Y-46478992D01*
X88170001Y-46449999D01*
X88141009Y-46426206D01*
X86531210Y-44816408D01*
X86575000Y-44596260D01*
X86575000Y-44303740D01*
X86517932Y-44016842D01*
X86405990Y-43746589D01*
X86243475Y-43503368D01*
X86036632Y-43296525D01*
X85862240Y-43180000D01*
X86036632Y-43063475D01*
X86243475Y-42856632D01*
X86405990Y-42613411D01*
X86517932Y-42343158D01*
X86575000Y-42056260D01*
X86575000Y-41763740D01*
X86517932Y-41476842D01*
X86405990Y-41206589D01*
X86243475Y-40963368D01*
X86036632Y-40756525D01*
X85854466Y-40634805D01*
X85971355Y-40565178D01*
X86187588Y-40370269D01*
X86361641Y-40136920D01*
X86486825Y-39874099D01*
X86531476Y-39726890D01*
X86410155Y-39497000D01*
X85217000Y-39497000D01*
X85217000Y-39517000D01*
X84963000Y-39517000D01*
X84963000Y-39497000D01*
X83769845Y-39497000D01*
X83648524Y-39726890D01*
X83693175Y-39874099D01*
X83818359Y-40136920D01*
X83992412Y-40370269D01*
X84208645Y-40565178D01*
X84325534Y-40634805D01*
X84143368Y-40756525D01*
X83936525Y-40963368D01*
X83774010Y-41206589D01*
X83662068Y-41476842D01*
X83605000Y-41763740D01*
X83605000Y-42056260D01*
X83662068Y-42343158D01*
X83774010Y-42613411D01*
X83936525Y-42856632D01*
X84143368Y-43063475D01*
X84317760Y-43180000D01*
X84143368Y-43296525D01*
X83936525Y-43503368D01*
X83774010Y-43746589D01*
X83662068Y-44016842D01*
X83605000Y-44303740D01*
X83605000Y-44596260D01*
X83662068Y-44883158D01*
X83774010Y-45153411D01*
X83936525Y-45396632D01*
X84143368Y-45603475D01*
X84317760Y-45720000D01*
X84143368Y-45836525D01*
X83936525Y-46043368D01*
X83774010Y-46286589D01*
X83662068Y-46556842D01*
X83605000Y-46843740D01*
X83605000Y-47136260D01*
X83662068Y-47423158D01*
X83774010Y-47693411D01*
X83936525Y-47936632D01*
X84143368Y-48143475D01*
X84317760Y-48260000D01*
X84143368Y-48376525D01*
X83936525Y-48583368D01*
X83774010Y-48826589D01*
X83662068Y-49096842D01*
X83605000Y-49383740D01*
X83605000Y-49676260D01*
X83662068Y-49963158D01*
X83774010Y-50233411D01*
X83936525Y-50476632D01*
X84143368Y-50683475D01*
X84317760Y-50800000D01*
X84143368Y-50916525D01*
X83936525Y-51123368D01*
X83774010Y-51366589D01*
X83662068Y-51636842D01*
X83605000Y-51923740D01*
X83605000Y-52216260D01*
X83662068Y-52503158D01*
X83774010Y-52773411D01*
X83936525Y-53016632D01*
X84143368Y-53223475D01*
X84317760Y-53340000D01*
X84143368Y-53456525D01*
X83936525Y-53663368D01*
X83774010Y-53906589D01*
X83662068Y-54176842D01*
X83605000Y-54463740D01*
X83605000Y-54756260D01*
X83662068Y-55043158D01*
X83774010Y-55313411D01*
X83936525Y-55556632D01*
X84143368Y-55763475D01*
X84317760Y-55880000D01*
X84143368Y-55996525D01*
X83936525Y-56203368D01*
X83774010Y-56446589D01*
X83662068Y-56716842D01*
X83605000Y-57003740D01*
X83605000Y-57296260D01*
X83662068Y-57583158D01*
X83774010Y-57853411D01*
X83936525Y-58096632D01*
X84143368Y-58303475D01*
X84317760Y-58420000D01*
X84143368Y-58536525D01*
X83936525Y-58743368D01*
X83774010Y-58986589D01*
X83662068Y-59256842D01*
X83605000Y-59543740D01*
X83605000Y-59836260D01*
X83662068Y-60123158D01*
X83774010Y-60393411D01*
X83936525Y-60636632D01*
X84143368Y-60843475D01*
X84317760Y-60960000D01*
X84143368Y-61076525D01*
X83936525Y-61283368D01*
X83774010Y-61526589D01*
X83662068Y-61796842D01*
X83605000Y-62083740D01*
X83605000Y-62376260D01*
X83662068Y-62663158D01*
X83774010Y-62933411D01*
X83936525Y-63176632D01*
X84143368Y-63383475D01*
X84317760Y-63500000D01*
X84143368Y-63616525D01*
X83936525Y-63823368D01*
X83774010Y-64066589D01*
X83662068Y-64336842D01*
X83605000Y-64623740D01*
X83605000Y-64916260D01*
X83662068Y-65203158D01*
X83774010Y-65473411D01*
X83936525Y-65716632D01*
X84143368Y-65923475D01*
X84317760Y-66040000D01*
X84143368Y-66156525D01*
X83936525Y-66363368D01*
X83774010Y-66606589D01*
X83662068Y-66876842D01*
X83605000Y-67163740D01*
X83605000Y-67456260D01*
X83662068Y-67743158D01*
X83774010Y-68013411D01*
X83936525Y-68256632D01*
X84143368Y-68463475D01*
X84317760Y-68580000D01*
X84143368Y-68696525D01*
X83936525Y-68903368D01*
X83774010Y-69146589D01*
X83662068Y-69416842D01*
X83605000Y-69703740D01*
X83605000Y-69996260D01*
X83662068Y-70283158D01*
X83774010Y-70553411D01*
X83936525Y-70796632D01*
X84143368Y-71003475D01*
X84317760Y-71120000D01*
X84143368Y-71236525D01*
X83936525Y-71443368D01*
X83774010Y-71686589D01*
X83662068Y-71956842D01*
X83605000Y-72243740D01*
X83605000Y-72536260D01*
X83662068Y-72823158D01*
X83774010Y-73093411D01*
X83936525Y-73336632D01*
X84143368Y-73543475D01*
X84317760Y-73660000D01*
X84143368Y-73776525D01*
X83936525Y-73983368D01*
X83774010Y-74226589D01*
X83662068Y-74496842D01*
X83605000Y-74783740D01*
X83605000Y-75076260D01*
X83662068Y-75363158D01*
X83774010Y-75633411D01*
X83936525Y-75876632D01*
X84143368Y-76083475D01*
X84317760Y-76200000D01*
X84143368Y-76316525D01*
X83936525Y-76523368D01*
X83774010Y-76766589D01*
X83662068Y-77036842D01*
X83605000Y-77323740D01*
X83605000Y-77616260D01*
X83662068Y-77903158D01*
X83774010Y-78173411D01*
X83936525Y-78416632D01*
X84143368Y-78623475D01*
X84317760Y-78740000D01*
X84143368Y-78856525D01*
X83936525Y-79063368D01*
X83774010Y-79306589D01*
X83662068Y-79576842D01*
X83605000Y-79863740D01*
X83605000Y-80156260D01*
X83662068Y-80443158D01*
X83774010Y-80713411D01*
X83936525Y-80956632D01*
X84143368Y-81163475D01*
X84317760Y-81280000D01*
X84143368Y-81396525D01*
X83936525Y-81603368D01*
X83774010Y-81846589D01*
X83662068Y-82116842D01*
X83605000Y-82403740D01*
X83605000Y-82696260D01*
X83662068Y-82983158D01*
X83774010Y-83253411D01*
X83936525Y-83496632D01*
X84143368Y-83703475D01*
X84317760Y-83820000D01*
X84143368Y-83936525D01*
X83936525Y-84143368D01*
X83774010Y-84386589D01*
X83662068Y-84656842D01*
X83605000Y-84943740D01*
X83605000Y-85236260D01*
X83662068Y-85523158D01*
X83774010Y-85793411D01*
X83936525Y-86036632D01*
X84143368Y-86243475D01*
X84317760Y-86360000D01*
X84143368Y-86476525D01*
X83936525Y-86683368D01*
X83774010Y-86926589D01*
X83662068Y-87196842D01*
X83605000Y-87483740D01*
X83605000Y-87776260D01*
X83662068Y-88063158D01*
X83774010Y-88333411D01*
X83936525Y-88576632D01*
X84143368Y-88783475D01*
X84317760Y-88900000D01*
X84143368Y-89016525D01*
X83936525Y-89223368D01*
X83774010Y-89466589D01*
X83662068Y-89736842D01*
X83605000Y-90023740D01*
X83605000Y-90316260D01*
X83662068Y-90603158D01*
X83774010Y-90873411D01*
X83936525Y-91116632D01*
X84143368Y-91323475D01*
X84317760Y-91440000D01*
X84143368Y-91556525D01*
X83936525Y-91763368D01*
X83774010Y-92006589D01*
X83662068Y-92276842D01*
X83605000Y-92563740D01*
X83605000Y-92856260D01*
X83662068Y-93143158D01*
X83774010Y-93413411D01*
X83936525Y-93656632D01*
X84143368Y-93863475D01*
X84317760Y-93980000D01*
X84143368Y-94096525D01*
X83936525Y-94303368D01*
X83774010Y-94546589D01*
X83662068Y-94816842D01*
X83605000Y-95103740D01*
X83605000Y-95396260D01*
X83662068Y-95683158D01*
X83774010Y-95953411D01*
X83936525Y-96196632D01*
X84143368Y-96403475D01*
X84317760Y-96520000D01*
X84143368Y-96636525D01*
X83936525Y-96843368D01*
X83774010Y-97086589D01*
X83662068Y-97356842D01*
X83605000Y-97643740D01*
X83605000Y-97936260D01*
X83662068Y-98223158D01*
X83774010Y-98493411D01*
X83936525Y-98736632D01*
X84143368Y-98943475D01*
X84317760Y-99060000D01*
X84143368Y-99176525D01*
X83936525Y-99383368D01*
X83774010Y-99626589D01*
X83662068Y-99896842D01*
X83605000Y-100183740D01*
X83605000Y-100476260D01*
X83662068Y-100763158D01*
X83774010Y-101033411D01*
X83936525Y-101276632D01*
X84143368Y-101483475D01*
X84317760Y-101600000D01*
X84143368Y-101716525D01*
X83936525Y-101923368D01*
X83774010Y-102166589D01*
X83662068Y-102436842D01*
X83605000Y-102723740D01*
X83605000Y-103016260D01*
X83662068Y-103303158D01*
X83774010Y-103573411D01*
X83936525Y-103816632D01*
X84143368Y-104023475D01*
X84317760Y-104140000D01*
X84143368Y-104256525D01*
X83936525Y-104463368D01*
X83774010Y-104706589D01*
X83662068Y-104976842D01*
X83605000Y-105263740D01*
X83605000Y-105556260D01*
X83662068Y-105843158D01*
X83774010Y-106113411D01*
X83936525Y-106356632D01*
X84143368Y-106563475D01*
X84317760Y-106680000D01*
X84143368Y-106796525D01*
X83936525Y-107003368D01*
X83774010Y-107246589D01*
X83662068Y-107516842D01*
X83605000Y-107803740D01*
X83605000Y-108096260D01*
X83662068Y-108383158D01*
X83774010Y-108653411D01*
X83936525Y-108896632D01*
X84143368Y-109103475D01*
X84317760Y-109220000D01*
X84143368Y-109336525D01*
X83936525Y-109543368D01*
X83774010Y-109786589D01*
X83662068Y-110056842D01*
X83605000Y-110343740D01*
X83605000Y-110636260D01*
X83662068Y-110923158D01*
X83774010Y-111193411D01*
X83936525Y-111436632D01*
X84143368Y-111643475D01*
X84317760Y-111760000D01*
X84143368Y-111876525D01*
X83936525Y-112083368D01*
X83774010Y-112326589D01*
X83662068Y-112596842D01*
X83605000Y-112883740D01*
X83605000Y-113176260D01*
X83662068Y-113463158D01*
X83774010Y-113733411D01*
X83936525Y-113976632D01*
X84143368Y-114183475D01*
X84317760Y-114300000D01*
X84143368Y-114416525D01*
X83936525Y-114623368D01*
X83774010Y-114866589D01*
X83662068Y-115136842D01*
X83605000Y-115423740D01*
X83605000Y-115716260D01*
X83662068Y-116003158D01*
X83774010Y-116273411D01*
X83936525Y-116516632D01*
X84143368Y-116723475D01*
X84317760Y-116840000D01*
X84143368Y-116956525D01*
X83936525Y-117163368D01*
X83774010Y-117406589D01*
X83662068Y-117676842D01*
X83605000Y-117963740D01*
X83605000Y-118256260D01*
X83662068Y-118543158D01*
X83774010Y-118813411D01*
X83936525Y-119056632D01*
X84143368Y-119263475D01*
X84317760Y-119380000D01*
X84143368Y-119496525D01*
X83936525Y-119703368D01*
X83774010Y-119946589D01*
X83662068Y-120216842D01*
X83605000Y-120503740D01*
X83605000Y-120796260D01*
X83662068Y-121083158D01*
X83774010Y-121353411D01*
X83936525Y-121596632D01*
X84143368Y-121803475D01*
X84317760Y-121920000D01*
X84143368Y-122036525D01*
X83936525Y-122243368D01*
X83774010Y-122486589D01*
X83662068Y-122756842D01*
X83605000Y-123043740D01*
X83605000Y-123336260D01*
X83662068Y-123623158D01*
X83774010Y-123893411D01*
X83936525Y-124136632D01*
X84143368Y-124343475D01*
X84317760Y-124460000D01*
X84143368Y-124576525D01*
X83936525Y-124783368D01*
X83774010Y-125026589D01*
X83662068Y-125296842D01*
X83605000Y-125583740D01*
X83605000Y-125876260D01*
X83662068Y-126163158D01*
X83774010Y-126433411D01*
X83936525Y-126676632D01*
X84143368Y-126883475D01*
X84317760Y-127000000D01*
X84143368Y-127116525D01*
X83936525Y-127323368D01*
X83774010Y-127566589D01*
X83662068Y-127836842D01*
X83605000Y-128123740D01*
X83605000Y-128416260D01*
X83662068Y-128703158D01*
X83774010Y-128973411D01*
X83936525Y-129216632D01*
X84143368Y-129423475D01*
X84317760Y-129540000D01*
X84143368Y-129656525D01*
X83936525Y-129863368D01*
X83774010Y-130106589D01*
X83662068Y-130376842D01*
X83605000Y-130663740D01*
X83605000Y-130956260D01*
X83662068Y-131243158D01*
X83774010Y-131513411D01*
X83936525Y-131756632D01*
X84143368Y-131963475D01*
X84317760Y-132080000D01*
X84143368Y-132196525D01*
X83936525Y-132403368D01*
X83774010Y-132646589D01*
X83662068Y-132916842D01*
X83605000Y-133203740D01*
X83605000Y-133496260D01*
X83662068Y-133783158D01*
X83774010Y-134053411D01*
X83936525Y-134296632D01*
X84143368Y-134503475D01*
X84317760Y-134620000D01*
X84143368Y-134736525D01*
X83936525Y-134943368D01*
X83774010Y-135186589D01*
X83662068Y-135456842D01*
X83605000Y-135743740D01*
X83605000Y-136036260D01*
X83662068Y-136323158D01*
X83774010Y-136593411D01*
X83936525Y-136836632D01*
X84143368Y-137043475D01*
X84386589Y-137205990D01*
X84656842Y-137317932D01*
X84943740Y-137375000D01*
X85236260Y-137375000D01*
X85523158Y-137317932D01*
X85793411Y-137205990D01*
X86036632Y-137043475D01*
X86243475Y-136836632D01*
X86405990Y-136593411D01*
X86517932Y-136323158D01*
X86533102Y-136246890D01*
X115398524Y-136246890D01*
X115443175Y-136394099D01*
X115568359Y-136656920D01*
X115742412Y-136890269D01*
X115958645Y-137085178D01*
X116208748Y-137234157D01*
X116483109Y-137331481D01*
X116713000Y-137210814D01*
X116713000Y-136017000D01*
X116967000Y-136017000D01*
X116967000Y-137210814D01*
X117196891Y-137331481D01*
X117471252Y-137234157D01*
X117721355Y-137085178D01*
X117937588Y-136890269D01*
X118111641Y-136656920D01*
X118236825Y-136394099D01*
X118281476Y-136246890D01*
X118160155Y-136017000D01*
X116967000Y-136017000D01*
X116713000Y-136017000D01*
X115519845Y-136017000D01*
X115398524Y-136246890D01*
X86533102Y-136246890D01*
X86575000Y-136036260D01*
X86575000Y-135743740D01*
X86517932Y-135456842D01*
X86405990Y-135186589D01*
X86243475Y-134943368D01*
X86036632Y-134736525D01*
X85862240Y-134620000D01*
X86036632Y-134503475D01*
X86243475Y-134296632D01*
X86405990Y-134053411D01*
X86517932Y-133783158D01*
X86575000Y-133496260D01*
X86575000Y-133203740D01*
X86517932Y-132916842D01*
X86405990Y-132646589D01*
X86243475Y-132403368D01*
X86036632Y-132196525D01*
X85862240Y-132080000D01*
X86036632Y-131963475D01*
X86243475Y-131756632D01*
X86405990Y-131513411D01*
X86517932Y-131243158D01*
X86575000Y-130956260D01*
X86575000Y-130663740D01*
X86517932Y-130376842D01*
X86405990Y-130106589D01*
X86243475Y-129863368D01*
X86036632Y-129656525D01*
X85862240Y-129540000D01*
X86036632Y-129423475D01*
X86243475Y-129216632D01*
X86405990Y-128973411D01*
X86517932Y-128703158D01*
X86575000Y-128416260D01*
X86575000Y-128123740D01*
X86517932Y-127836842D01*
X86405990Y-127566589D01*
X86243475Y-127323368D01*
X86036632Y-127116525D01*
X85862240Y-127000000D01*
X86036632Y-126883475D01*
X86243475Y-126676632D01*
X86405990Y-126433411D01*
X86517932Y-126163158D01*
X86575000Y-125876260D01*
X86575000Y-125583740D01*
X86517932Y-125296842D01*
X86405990Y-125026589D01*
X86243475Y-124783368D01*
X86036632Y-124576525D01*
X85862240Y-124460000D01*
X86036632Y-124343475D01*
X86243475Y-124136632D01*
X86405990Y-123893411D01*
X86517932Y-123623158D01*
X86575000Y-123336260D01*
X86575000Y-123043740D01*
X86517932Y-122756842D01*
X86405990Y-122486589D01*
X86243475Y-122243368D01*
X86036632Y-122036525D01*
X85862240Y-121920000D01*
X86036632Y-121803475D01*
X86243475Y-121596632D01*
X86405990Y-121353411D01*
X86517932Y-121083158D01*
X86575000Y-120796260D01*
X86575000Y-120503740D01*
X86517932Y-120216842D01*
X86405990Y-119946589D01*
X86243475Y-119703368D01*
X86036632Y-119496525D01*
X85862240Y-119380000D01*
X86036632Y-119263475D01*
X86243475Y-119056632D01*
X86405990Y-118813411D01*
X86517932Y-118543158D01*
X86575000Y-118256260D01*
X86575000Y-117963740D01*
X86517932Y-117676842D01*
X86405990Y-117406589D01*
X86243475Y-117163368D01*
X86036632Y-116956525D01*
X85862240Y-116840000D01*
X86036632Y-116723475D01*
X86243475Y-116516632D01*
X86405990Y-116273411D01*
X86517932Y-116003158D01*
X86575000Y-115716260D01*
X86575000Y-115423740D01*
X86517932Y-115136842D01*
X86405990Y-114866589D01*
X86243475Y-114623368D01*
X86036632Y-114416525D01*
X85862240Y-114300000D01*
X86036632Y-114183475D01*
X86243475Y-113976632D01*
X86405990Y-113733411D01*
X86517932Y-113463158D01*
X86575000Y-113176260D01*
X86575000Y-112883740D01*
X86517932Y-112596842D01*
X86405990Y-112326589D01*
X86243475Y-112083368D01*
X86036632Y-111876525D01*
X85862240Y-111760000D01*
X86036632Y-111643475D01*
X86243475Y-111436632D01*
X86405990Y-111193411D01*
X86517932Y-110923158D01*
X86575000Y-110636260D01*
X86575000Y-110343740D01*
X86517932Y-110056842D01*
X86405990Y-109786589D01*
X86243475Y-109543368D01*
X86036632Y-109336525D01*
X85862240Y-109220000D01*
X86036632Y-109103475D01*
X86243475Y-108896632D01*
X86405990Y-108653411D01*
X86517932Y-108383158D01*
X86575000Y-108096260D01*
X86575000Y-107803740D01*
X86517932Y-107516842D01*
X86405990Y-107246589D01*
X86243475Y-107003368D01*
X86036632Y-106796525D01*
X85862240Y-106680000D01*
X86036632Y-106563475D01*
X86243475Y-106356632D01*
X86405990Y-106113411D01*
X86517932Y-105843158D01*
X86575000Y-105556260D01*
X86575000Y-105263740D01*
X86517932Y-104976842D01*
X86405990Y-104706589D01*
X86243475Y-104463368D01*
X86036632Y-104256525D01*
X85862240Y-104140000D01*
X86036632Y-104023475D01*
X86243475Y-103816632D01*
X86405990Y-103573411D01*
X86517932Y-103303158D01*
X86575000Y-103016260D01*
X86575000Y-102768061D01*
X104375000Y-102768061D01*
X104375000Y-102971939D01*
X104414774Y-103171898D01*
X104492795Y-103360256D01*
X104606063Y-103529774D01*
X104650000Y-103573711D01*
X104650001Y-132042667D01*
X104646324Y-132080000D01*
X104660998Y-132228985D01*
X104704454Y-132372246D01*
X104775026Y-132504276D01*
X104845379Y-132590000D01*
X104870000Y-132620001D01*
X104898998Y-132643799D01*
X106116201Y-133861003D01*
X106139999Y-133890001D01*
X106255724Y-133984974D01*
X106387753Y-134055546D01*
X106531014Y-134099003D01*
X106642667Y-134110000D01*
X106642676Y-134110000D01*
X106679999Y-134113676D01*
X106717322Y-134110000D01*
X115351928Y-134110000D01*
X115351928Y-134200000D01*
X115364188Y-134324482D01*
X115400498Y-134444180D01*
X115459463Y-134554494D01*
X115538815Y-134651185D01*
X115635506Y-134730537D01*
X115745820Y-134789502D01*
X115826466Y-134813966D01*
X115742412Y-134889731D01*
X115568359Y-135123080D01*
X115443175Y-135385901D01*
X115398524Y-135533110D01*
X115519845Y-135763000D01*
X116713000Y-135763000D01*
X116713000Y-135743000D01*
X116967000Y-135743000D01*
X116967000Y-135763000D01*
X118160155Y-135763000D01*
X118281476Y-135533110D01*
X118236825Y-135385901D01*
X118111641Y-135123080D01*
X117937588Y-134889731D01*
X117853534Y-134813966D01*
X117934180Y-134789502D01*
X118044494Y-134730537D01*
X118141185Y-134651185D01*
X118220537Y-134554494D01*
X118279502Y-134444180D01*
X118315812Y-134324482D01*
X118328072Y-134200000D01*
X118328072Y-132500000D01*
X118315812Y-132375518D01*
X118279502Y-132255820D01*
X118220537Y-132145506D01*
X118141185Y-132048815D01*
X118044494Y-131969463D01*
X117934180Y-131910498D01*
X117814482Y-131874188D01*
X117690000Y-131861928D01*
X115990000Y-131861928D01*
X115865518Y-131874188D01*
X115745820Y-131910498D01*
X115635506Y-131969463D01*
X115538815Y-132048815D01*
X115459463Y-132145506D01*
X115400498Y-132255820D01*
X115364188Y-132375518D01*
X115351928Y-132500000D01*
X115351928Y-132590000D01*
X106994802Y-132590000D01*
X106170000Y-131765199D01*
X106170000Y-126758397D01*
X118531208Y-126758397D01*
X118608843Y-127007472D01*
X118872883Y-127133371D01*
X119156411Y-127205339D01*
X119448531Y-127220611D01*
X119738019Y-127178599D01*
X120013747Y-127080919D01*
X120151157Y-127007472D01*
X120228792Y-126758397D01*
X119380000Y-125909605D01*
X118531208Y-126758397D01*
X106170000Y-126758397D01*
X106170000Y-125798531D01*
X117889389Y-125798531D01*
X117931401Y-126088019D01*
X118029081Y-126363747D01*
X118102528Y-126501157D01*
X118351603Y-126578792D01*
X119200395Y-125730000D01*
X118351603Y-124881208D01*
X118102528Y-124958843D01*
X117976629Y-125222883D01*
X117904661Y-125506411D01*
X117889389Y-125798531D01*
X106170000Y-125798531D01*
X106170000Y-103573711D01*
X106213937Y-103529774D01*
X106327205Y-103360256D01*
X106405226Y-103171898D01*
X106445000Y-102971939D01*
X106445000Y-102768061D01*
X106436185Y-102723740D01*
X117895000Y-102723740D01*
X117895000Y-103016260D01*
X117952068Y-103303158D01*
X118064010Y-103573411D01*
X118226525Y-103816632D01*
X118433368Y-104023475D01*
X118607760Y-104140000D01*
X118433368Y-104256525D01*
X118226525Y-104463368D01*
X118064010Y-104706589D01*
X117952068Y-104976842D01*
X117895000Y-105263740D01*
X117895000Y-105556260D01*
X117952068Y-105843158D01*
X118064010Y-106113411D01*
X118226525Y-106356632D01*
X118433368Y-106563475D01*
X118607760Y-106680000D01*
X118433368Y-106796525D01*
X118226525Y-107003368D01*
X118064010Y-107246589D01*
X117952068Y-107516842D01*
X117895000Y-107803740D01*
X117895000Y-108096260D01*
X117952068Y-108383158D01*
X118064010Y-108653411D01*
X118226525Y-108896632D01*
X118433368Y-109103475D01*
X118607760Y-109220000D01*
X118433368Y-109336525D01*
X118226525Y-109543368D01*
X118064010Y-109786589D01*
X117952068Y-110056842D01*
X117895000Y-110343740D01*
X117895000Y-110636260D01*
X117952068Y-110923158D01*
X118064010Y-111193411D01*
X118226525Y-111436632D01*
X118433368Y-111643475D01*
X118607760Y-111760000D01*
X118433368Y-111876525D01*
X118226525Y-112083368D01*
X118064010Y-112326589D01*
X117952068Y-112596842D01*
X117895000Y-112883740D01*
X117895000Y-113176260D01*
X117952068Y-113463158D01*
X118064010Y-113733411D01*
X118226525Y-113976632D01*
X118433368Y-114183475D01*
X118607760Y-114300000D01*
X118433368Y-114416525D01*
X118226525Y-114623368D01*
X118064010Y-114866589D01*
X117952068Y-115136842D01*
X117895000Y-115423740D01*
X117895000Y-115716260D01*
X117952068Y-116003158D01*
X118064010Y-116273411D01*
X118226525Y-116516632D01*
X118433368Y-116723475D01*
X118607760Y-116840000D01*
X118433368Y-116956525D01*
X118226525Y-117163368D01*
X118064010Y-117406589D01*
X117952068Y-117676842D01*
X117895000Y-117963740D01*
X117895000Y-118256260D01*
X117952068Y-118543158D01*
X118064010Y-118813411D01*
X118226525Y-119056632D01*
X118433368Y-119263475D01*
X118607760Y-119380000D01*
X118433368Y-119496525D01*
X118226525Y-119703368D01*
X118064010Y-119946589D01*
X117952068Y-120216842D01*
X117895000Y-120503740D01*
X117895000Y-120796260D01*
X117952068Y-121083158D01*
X118064010Y-121353411D01*
X118226525Y-121596632D01*
X118433368Y-121803475D01*
X118607760Y-121920000D01*
X118433368Y-122036525D01*
X118226525Y-122243368D01*
X118064010Y-122486589D01*
X117952068Y-122756842D01*
X117895000Y-123043740D01*
X117895000Y-123336260D01*
X117952068Y-123623158D01*
X118064010Y-123893411D01*
X118226525Y-124136632D01*
X118433368Y-124343475D01*
X118606729Y-124459311D01*
X118531208Y-124701603D01*
X119380000Y-125550395D01*
X120228792Y-124701603D01*
X120153271Y-124459311D01*
X120326632Y-124343475D01*
X120533475Y-124136632D01*
X120650000Y-123962240D01*
X120766525Y-124136632D01*
X120953608Y-124323715D01*
X120826614Y-124391595D01*
X120692038Y-124502038D01*
X120581595Y-124636614D01*
X120499528Y-124790150D01*
X120466420Y-124899293D01*
X120408397Y-124881208D01*
X119559605Y-125730000D01*
X120408397Y-126578792D01*
X120466420Y-126560707D01*
X120499528Y-126669850D01*
X120581595Y-126823386D01*
X120692038Y-126957962D01*
X120826614Y-127068405D01*
X120980150Y-127150472D01*
X121146746Y-127201008D01*
X121320000Y-127218072D01*
X122520000Y-127218072D01*
X122693254Y-127201008D01*
X122859850Y-127150472D01*
X123013386Y-127068405D01*
X123147962Y-126957962D01*
X123258405Y-126823386D01*
X123340472Y-126669850D01*
X123391008Y-126503254D01*
X123408072Y-126330000D01*
X123408072Y-125130000D01*
X123391008Y-124956746D01*
X123340472Y-124790150D01*
X123258405Y-124636614D01*
X123147962Y-124502038D01*
X123013386Y-124391595D01*
X122886392Y-124323715D01*
X123073475Y-124136632D01*
X123235990Y-123893411D01*
X123347932Y-123623158D01*
X123405000Y-123336260D01*
X123405000Y-123043740D01*
X123347932Y-122756842D01*
X123235990Y-122486589D01*
X123073475Y-122243368D01*
X122866632Y-122036525D01*
X122692240Y-121920000D01*
X122866632Y-121803475D01*
X123073475Y-121596632D01*
X123235990Y-121353411D01*
X123347932Y-121083158D01*
X123405000Y-120796260D01*
X123405000Y-120503740D01*
X123347932Y-120216842D01*
X123235990Y-119946589D01*
X123073475Y-119703368D01*
X122866632Y-119496525D01*
X122692240Y-119380000D01*
X122866632Y-119263475D01*
X123073475Y-119056632D01*
X123235990Y-118813411D01*
X123347932Y-118543158D01*
X123405000Y-118256260D01*
X123405000Y-117963740D01*
X123347932Y-117676842D01*
X123235990Y-117406589D01*
X123073475Y-117163368D01*
X122866632Y-116956525D01*
X122692240Y-116840000D01*
X122866632Y-116723475D01*
X123073475Y-116516632D01*
X123235990Y-116273411D01*
X123347932Y-116003158D01*
X123405000Y-115716260D01*
X123405000Y-115423740D01*
X123347932Y-115136842D01*
X123235990Y-114866589D01*
X123073475Y-114623368D01*
X122866632Y-114416525D01*
X122692240Y-114300000D01*
X122866632Y-114183475D01*
X123073475Y-113976632D01*
X123235990Y-113733411D01*
X123347932Y-113463158D01*
X123405000Y-113176260D01*
X123405000Y-112883740D01*
X123347932Y-112596842D01*
X123235990Y-112326589D01*
X123073475Y-112083368D01*
X122866632Y-111876525D01*
X122692240Y-111760000D01*
X122866632Y-111643475D01*
X123073475Y-111436632D01*
X123235990Y-111193411D01*
X123347932Y-110923158D01*
X123405000Y-110636260D01*
X123405000Y-110343740D01*
X123347932Y-110056842D01*
X123235990Y-109786589D01*
X123073475Y-109543368D01*
X122866632Y-109336525D01*
X122692240Y-109220000D01*
X122866632Y-109103475D01*
X123073475Y-108896632D01*
X123235990Y-108653411D01*
X123347932Y-108383158D01*
X123405000Y-108096260D01*
X123405000Y-107803740D01*
X123347932Y-107516842D01*
X123235990Y-107246589D01*
X123073475Y-107003368D01*
X122866632Y-106796525D01*
X122692240Y-106680000D01*
X122866632Y-106563475D01*
X123073475Y-106356632D01*
X123235990Y-106113411D01*
X123347932Y-105843158D01*
X123405000Y-105556260D01*
X123405000Y-105263740D01*
X123347932Y-104976842D01*
X123235990Y-104706589D01*
X123073475Y-104463368D01*
X122866632Y-104256525D01*
X122693271Y-104140689D01*
X122768792Y-103898397D01*
X121920000Y-103049605D01*
X121071208Y-103898397D01*
X121146729Y-104140689D01*
X120973368Y-104256525D01*
X120766525Y-104463368D01*
X120650000Y-104637760D01*
X120533475Y-104463368D01*
X120326632Y-104256525D01*
X120152240Y-104140000D01*
X120326632Y-104023475D01*
X120533475Y-103816632D01*
X120649311Y-103643271D01*
X120891603Y-103718792D01*
X121740395Y-102870000D01*
X122099605Y-102870000D01*
X122948397Y-103718792D01*
X123197472Y-103641157D01*
X123323371Y-103377117D01*
X123395339Y-103093589D01*
X123410611Y-102801469D01*
X123368599Y-102511981D01*
X123270919Y-102236253D01*
X123197472Y-102098843D01*
X122948397Y-102021208D01*
X122099605Y-102870000D01*
X121740395Y-102870000D01*
X120891603Y-102021208D01*
X120649311Y-102096729D01*
X120533475Y-101923368D01*
X120326632Y-101716525D01*
X120153271Y-101600689D01*
X120228792Y-101358397D01*
X119380000Y-100509605D01*
X118531208Y-101358397D01*
X118606729Y-101600689D01*
X118433368Y-101716525D01*
X118226525Y-101923368D01*
X118064010Y-102166589D01*
X117952068Y-102436842D01*
X117895000Y-102723740D01*
X106436185Y-102723740D01*
X106405226Y-102568102D01*
X106327205Y-102379744D01*
X106213937Y-102210226D01*
X106069774Y-102066063D01*
X105900256Y-101952795D01*
X105711898Y-101874774D01*
X105511939Y-101835000D01*
X105308061Y-101835000D01*
X105108102Y-101874774D01*
X104919744Y-101952795D01*
X104750226Y-102066063D01*
X104606063Y-102210226D01*
X104492795Y-102379744D01*
X104414774Y-102568102D01*
X104375000Y-102768061D01*
X86575000Y-102768061D01*
X86575000Y-102723740D01*
X86517932Y-102436842D01*
X86405990Y-102166589D01*
X86243475Y-101923368D01*
X86036632Y-101716525D01*
X85862240Y-101600000D01*
X86036632Y-101483475D01*
X86243475Y-101276632D01*
X86368178Y-101090000D01*
X90132678Y-101090000D01*
X90170000Y-101093676D01*
X90207322Y-101090000D01*
X90207333Y-101090000D01*
X90318986Y-101079003D01*
X90462247Y-101035546D01*
X90594276Y-100964974D01*
X90710001Y-100870001D01*
X90733804Y-100840997D01*
X91176270Y-100398531D01*
X117889389Y-100398531D01*
X117931401Y-100688019D01*
X118029081Y-100963747D01*
X118102528Y-101101157D01*
X118351603Y-101178792D01*
X119200395Y-100330000D01*
X118351603Y-99481208D01*
X118102528Y-99558843D01*
X117976629Y-99822883D01*
X117904661Y-100106411D01*
X117889389Y-100398531D01*
X91176270Y-100398531D01*
X92756404Y-98818397D01*
X118531208Y-98818397D01*
X118606514Y-99060000D01*
X118531208Y-99301603D01*
X119380000Y-100150395D01*
X120228792Y-99301603D01*
X120153486Y-99060000D01*
X120228792Y-98818397D01*
X119380000Y-97969605D01*
X118531208Y-98818397D01*
X92756404Y-98818397D01*
X102110001Y-89464801D01*
X102110001Y-92672668D01*
X102106324Y-92710000D01*
X102120998Y-92858985D01*
X102164454Y-93002246D01*
X102235026Y-93134276D01*
X102289175Y-93200256D01*
X102330000Y-93250001D01*
X102358998Y-93273799D01*
X106021202Y-96936004D01*
X106045000Y-96965002D01*
X106160725Y-97059975D01*
X106292754Y-97130547D01*
X106436015Y-97174004D01*
X106547668Y-97185001D01*
X106547676Y-97185001D01*
X106585001Y-97188677D01*
X106622326Y-97185001D01*
X118023301Y-97185001D01*
X117976629Y-97282883D01*
X117904661Y-97566411D01*
X117889389Y-97858531D01*
X117931401Y-98148019D01*
X118029081Y-98423747D01*
X118102528Y-98561157D01*
X118351603Y-98638792D01*
X119200395Y-97790000D01*
X119186253Y-97775858D01*
X119365858Y-97596253D01*
X119380000Y-97610395D01*
X119394143Y-97596253D01*
X119573748Y-97775858D01*
X119559605Y-97790000D01*
X120408397Y-98638792D01*
X120650689Y-98563271D01*
X120766525Y-98736632D01*
X120973368Y-98943475D01*
X121147760Y-99060000D01*
X120973368Y-99176525D01*
X120766525Y-99383368D01*
X120650689Y-99556729D01*
X120408397Y-99481208D01*
X119559605Y-100330000D01*
X120408397Y-101178792D01*
X120650689Y-101103271D01*
X120766525Y-101276632D01*
X120973368Y-101483475D01*
X121146729Y-101599311D01*
X121071208Y-101841603D01*
X121920000Y-102690395D01*
X122768792Y-101841603D01*
X122693271Y-101599311D01*
X122866632Y-101483475D01*
X123073475Y-101276632D01*
X123235990Y-101033411D01*
X123347932Y-100763158D01*
X123405000Y-100476260D01*
X123405000Y-100183740D01*
X123347932Y-99896842D01*
X123235990Y-99626589D01*
X123073475Y-99383368D01*
X122866632Y-99176525D01*
X122692240Y-99060000D01*
X122866632Y-98943475D01*
X123073475Y-98736632D01*
X123235990Y-98493411D01*
X123347932Y-98223158D01*
X123405000Y-97936260D01*
X123405000Y-97643740D01*
X123347932Y-97356842D01*
X123235990Y-97086589D01*
X123073475Y-96843368D01*
X122866632Y-96636525D01*
X122692240Y-96520000D01*
X122866632Y-96403475D01*
X123073475Y-96196632D01*
X123235990Y-95953411D01*
X123347932Y-95683158D01*
X123405000Y-95396260D01*
X123405000Y-95103740D01*
X123347932Y-94816842D01*
X123235990Y-94546589D01*
X123073475Y-94303368D01*
X122866632Y-94096525D01*
X122692240Y-93980000D01*
X122866632Y-93863475D01*
X123073475Y-93656632D01*
X123235990Y-93413411D01*
X123347932Y-93143158D01*
X123405000Y-92856260D01*
X123405000Y-92563740D01*
X123347932Y-92276842D01*
X123235990Y-92006589D01*
X123073475Y-91763368D01*
X122866632Y-91556525D01*
X122692240Y-91440000D01*
X122866632Y-91323475D01*
X123073475Y-91116632D01*
X123235990Y-90873411D01*
X123347932Y-90603158D01*
X123405000Y-90316260D01*
X123405000Y-90023740D01*
X123347932Y-89736842D01*
X123235990Y-89466589D01*
X123073475Y-89223368D01*
X122866632Y-89016525D01*
X122692240Y-88900000D01*
X122866632Y-88783475D01*
X123073475Y-88576632D01*
X123235990Y-88333411D01*
X123347932Y-88063158D01*
X123405000Y-87776260D01*
X123405000Y-87483740D01*
X123347932Y-87196842D01*
X123235990Y-86926589D01*
X123073475Y-86683368D01*
X122866632Y-86476525D01*
X122692240Y-86360000D01*
X122866632Y-86243475D01*
X123073475Y-86036632D01*
X123235990Y-85793411D01*
X123347932Y-85523158D01*
X123405000Y-85236260D01*
X123405000Y-84943740D01*
X123347932Y-84656842D01*
X123235990Y-84386589D01*
X123073475Y-84143368D01*
X122866632Y-83936525D01*
X122692240Y-83820000D01*
X122866632Y-83703475D01*
X123073475Y-83496632D01*
X123235990Y-83253411D01*
X123347932Y-82983158D01*
X123405000Y-82696260D01*
X123405000Y-82403740D01*
X123347932Y-82116842D01*
X123235990Y-81846589D01*
X123073475Y-81603368D01*
X122866632Y-81396525D01*
X122692240Y-81280000D01*
X122866632Y-81163475D01*
X123073475Y-80956632D01*
X123235990Y-80713411D01*
X123347932Y-80443158D01*
X123405000Y-80156260D01*
X123405000Y-79863740D01*
X123347932Y-79576842D01*
X123235990Y-79306589D01*
X123073475Y-79063368D01*
X122866632Y-78856525D01*
X122692240Y-78740000D01*
X122866632Y-78623475D01*
X123073475Y-78416632D01*
X123235990Y-78173411D01*
X123347932Y-77903158D01*
X123405000Y-77616260D01*
X123405000Y-77323740D01*
X123347932Y-77036842D01*
X123235990Y-76766589D01*
X123073475Y-76523368D01*
X122866632Y-76316525D01*
X122623411Y-76154010D01*
X122353158Y-76042068D01*
X122066260Y-75985000D01*
X121773740Y-75985000D01*
X121486842Y-76042068D01*
X121216589Y-76154010D01*
X120973368Y-76316525D01*
X120766525Y-76523368D01*
X120650689Y-76696729D01*
X120408397Y-76621208D01*
X119559605Y-77470000D01*
X120408397Y-78318792D01*
X120650689Y-78243271D01*
X120766525Y-78416632D01*
X120973368Y-78623475D01*
X121147760Y-78740000D01*
X120973368Y-78856525D01*
X120766525Y-79063368D01*
X120650000Y-79237760D01*
X120533475Y-79063368D01*
X120326632Y-78856525D01*
X120153271Y-78740689D01*
X120228792Y-78498397D01*
X119380000Y-77649605D01*
X118531208Y-78498397D01*
X118606729Y-78740689D01*
X118433368Y-78856525D01*
X118226525Y-79063368D01*
X118064010Y-79306589D01*
X117952068Y-79576842D01*
X117895000Y-79863740D01*
X117895000Y-80156260D01*
X117952068Y-80443158D01*
X118064010Y-80713411D01*
X118199704Y-80916492D01*
X117326197Y-81790000D01*
X114371983Y-81790000D01*
X114409853Y-81698574D01*
X114465000Y-81421335D01*
X114465000Y-81138665D01*
X114409853Y-80861426D01*
X114301680Y-80600273D01*
X114144637Y-80365241D01*
X113944759Y-80165363D01*
X113709727Y-80008320D01*
X113448574Y-79900147D01*
X113171335Y-79845000D01*
X112888665Y-79845000D01*
X112611426Y-79900147D01*
X112350273Y-80008320D01*
X112115241Y-80165363D01*
X111915363Y-80365241D01*
X111758320Y-80600273D01*
X111650147Y-80861426D01*
X111595000Y-81138665D01*
X111595000Y-81421335D01*
X111650147Y-81698574D01*
X111688017Y-81790000D01*
X108653711Y-81790000D01*
X108609774Y-81746063D01*
X108440256Y-81632795D01*
X108251898Y-81554774D01*
X108051939Y-81515000D01*
X107848061Y-81515000D01*
X107648102Y-81554774D01*
X107459744Y-81632795D01*
X107290226Y-81746063D01*
X107146063Y-81890226D01*
X107032795Y-82059744D01*
X106954774Y-82248102D01*
X106915000Y-82448061D01*
X106915000Y-82651939D01*
X106954774Y-82851898D01*
X107032795Y-83040256D01*
X107146063Y-83209774D01*
X107290226Y-83353937D01*
X107459744Y-83467205D01*
X107648102Y-83545226D01*
X107848061Y-83585000D01*
X108051939Y-83585000D01*
X108251898Y-83545226D01*
X108440256Y-83467205D01*
X108609774Y-83353937D01*
X108653711Y-83310000D01*
X117545198Y-83310000D01*
X114260199Y-86595000D01*
X114198061Y-86595000D01*
X113998102Y-86634774D01*
X113809744Y-86712795D01*
X113640226Y-86826063D01*
X113496063Y-86970226D01*
X113382795Y-87139744D01*
X113304774Y-87328102D01*
X113265000Y-87528061D01*
X113265000Y-87731939D01*
X113304774Y-87931898D01*
X113382795Y-88120256D01*
X113496063Y-88289774D01*
X113640226Y-88433937D01*
X113809744Y-88547205D01*
X113998102Y-88625226D01*
X114198061Y-88665000D01*
X114401939Y-88665000D01*
X114601898Y-88625226D01*
X114790256Y-88547205D01*
X114959774Y-88433937D01*
X115103937Y-88289774D01*
X115217205Y-88120256D01*
X115295226Y-87931898D01*
X115335000Y-87731939D01*
X115335000Y-87669801D01*
X117895000Y-85109802D01*
X117895000Y-85236260D01*
X117952068Y-85523158D01*
X118064010Y-85793411D01*
X118226525Y-86036632D01*
X118433368Y-86243475D01*
X118607760Y-86360000D01*
X118433368Y-86476525D01*
X118226525Y-86683368D01*
X118064010Y-86926589D01*
X117952068Y-87196842D01*
X117895000Y-87483740D01*
X117895000Y-87776260D01*
X117952068Y-88063158D01*
X118064010Y-88333411D01*
X118226525Y-88576632D01*
X118433368Y-88783475D01*
X118606729Y-88899311D01*
X118531208Y-89141603D01*
X119380000Y-89990395D01*
X120228792Y-89141603D01*
X120153271Y-88899311D01*
X120326632Y-88783475D01*
X120533475Y-88576632D01*
X120650000Y-88402240D01*
X120766525Y-88576632D01*
X120973368Y-88783475D01*
X121147760Y-88900000D01*
X120973368Y-89016525D01*
X120766525Y-89223368D01*
X120650689Y-89396729D01*
X120408397Y-89321208D01*
X119559605Y-90170000D01*
X120408397Y-91018792D01*
X120650689Y-90943271D01*
X120766525Y-91116632D01*
X120973368Y-91323475D01*
X121147760Y-91440000D01*
X120973368Y-91556525D01*
X120766525Y-91763368D01*
X120650689Y-91936729D01*
X120408397Y-91861208D01*
X119559605Y-92710000D01*
X120408397Y-93558792D01*
X120650689Y-93483271D01*
X120766525Y-93656632D01*
X120973368Y-93863475D01*
X121147760Y-93980000D01*
X120973368Y-94096525D01*
X120766525Y-94303368D01*
X120650689Y-94476729D01*
X120408397Y-94401208D01*
X119559605Y-95250000D01*
X119573748Y-95264143D01*
X119394143Y-95443748D01*
X119380000Y-95429605D01*
X119365858Y-95443748D01*
X119186253Y-95264143D01*
X119200395Y-95250000D01*
X118351603Y-94401208D01*
X118102528Y-94478843D01*
X117976629Y-94742883D01*
X117904661Y-95026411D01*
X117889389Y-95318531D01*
X117931401Y-95608019D01*
X117951588Y-95665001D01*
X106899803Y-95665001D01*
X103630000Y-92395199D01*
X103630000Y-81983711D01*
X103673937Y-81939774D01*
X103787205Y-81770256D01*
X103865226Y-81581898D01*
X103905000Y-81381939D01*
X103905000Y-81178061D01*
X103897164Y-81138665D01*
X103975000Y-81138665D01*
X103975000Y-81421335D01*
X104030147Y-81698574D01*
X104138320Y-81959727D01*
X104295363Y-82194759D01*
X104495241Y-82394637D01*
X104650000Y-82498043D01*
X104650001Y-92006288D01*
X104606063Y-92050226D01*
X104492795Y-92219744D01*
X104414774Y-92408102D01*
X104375000Y-92608061D01*
X104375000Y-92811939D01*
X104414774Y-93011898D01*
X104492795Y-93200256D01*
X104606063Y-93369774D01*
X104750226Y-93513937D01*
X104919744Y-93627205D01*
X105108102Y-93705226D01*
X105308061Y-93745000D01*
X105511939Y-93745000D01*
X105545134Y-93738397D01*
X118531208Y-93738397D01*
X118606514Y-93980000D01*
X118531208Y-94221603D01*
X119380000Y-95070395D01*
X120228792Y-94221603D01*
X120153486Y-93980000D01*
X120228792Y-93738397D01*
X119380000Y-92889605D01*
X118531208Y-93738397D01*
X105545134Y-93738397D01*
X105711898Y-93705226D01*
X105900256Y-93627205D01*
X106069774Y-93513937D01*
X106213937Y-93369774D01*
X106327205Y-93200256D01*
X106405226Y-93011898D01*
X106445000Y-92811939D01*
X106445000Y-92778531D01*
X117889389Y-92778531D01*
X117931401Y-93068019D01*
X118029081Y-93343747D01*
X118102528Y-93481157D01*
X118351603Y-93558792D01*
X119200395Y-92710000D01*
X118351603Y-91861208D01*
X118102528Y-91938843D01*
X117976629Y-92202883D01*
X117904661Y-92486411D01*
X117889389Y-92778531D01*
X106445000Y-92778531D01*
X106445000Y-92608061D01*
X106405226Y-92408102D01*
X106327205Y-92219744D01*
X106213937Y-92050226D01*
X106170000Y-92006289D01*
X106170000Y-91198397D01*
X118531208Y-91198397D01*
X118606514Y-91440000D01*
X118531208Y-91681603D01*
X119380000Y-92530395D01*
X120228792Y-91681603D01*
X120153486Y-91440000D01*
X120228792Y-91198397D01*
X119380000Y-90349605D01*
X118531208Y-91198397D01*
X106170000Y-91198397D01*
X106170000Y-90238531D01*
X117889389Y-90238531D01*
X117931401Y-90528019D01*
X118029081Y-90803747D01*
X118102528Y-90941157D01*
X118351603Y-91018792D01*
X119200395Y-90170000D01*
X118351603Y-89321208D01*
X118102528Y-89398843D01*
X117976629Y-89662883D01*
X117904661Y-89946411D01*
X117889389Y-90238531D01*
X106170000Y-90238531D01*
X106170000Y-82498043D01*
X106324759Y-82394637D01*
X106524637Y-82194759D01*
X106681680Y-81959727D01*
X106789853Y-81698574D01*
X106845000Y-81421335D01*
X106845000Y-81138665D01*
X106789853Y-80861426D01*
X106681680Y-80600273D01*
X106524637Y-80365241D01*
X106324759Y-80165363D01*
X106089727Y-80008320D01*
X105828574Y-79900147D01*
X105551335Y-79845000D01*
X105268665Y-79845000D01*
X104991426Y-79900147D01*
X104730273Y-80008320D01*
X104495241Y-80165363D01*
X104295363Y-80365241D01*
X104138320Y-80600273D01*
X104030147Y-80861426D01*
X103975000Y-81138665D01*
X103897164Y-81138665D01*
X103865226Y-80978102D01*
X103787205Y-80789744D01*
X103673937Y-80620226D01*
X103529774Y-80476063D01*
X103360256Y-80362795D01*
X103171898Y-80284774D01*
X102971939Y-80245000D01*
X102768061Y-80245000D01*
X102614000Y-80275644D01*
X102614000Y-77328665D01*
X103975000Y-77328665D01*
X103975000Y-77611335D01*
X104030147Y-77888574D01*
X104138320Y-78149727D01*
X104295363Y-78384759D01*
X104495241Y-78584637D01*
X104730273Y-78741680D01*
X104991426Y-78849853D01*
X105268665Y-78905000D01*
X105551335Y-78905000D01*
X105828574Y-78849853D01*
X106089727Y-78741680D01*
X106324759Y-78584637D01*
X106524637Y-78384759D01*
X106681680Y-78149727D01*
X106789853Y-77888574D01*
X106845000Y-77611335D01*
X106845000Y-77328665D01*
X111595000Y-77328665D01*
X111595000Y-77611335D01*
X111650147Y-77888574D01*
X111758320Y-78149727D01*
X111915363Y-78384759D01*
X112115241Y-78584637D01*
X112350273Y-78741680D01*
X112611426Y-78849853D01*
X112888665Y-78905000D01*
X113171335Y-78905000D01*
X113448574Y-78849853D01*
X113709727Y-78741680D01*
X113944759Y-78584637D01*
X114144637Y-78384759D01*
X114301680Y-78149727D01*
X114409853Y-77888574D01*
X114465000Y-77611335D01*
X114465000Y-77538531D01*
X117889389Y-77538531D01*
X117931401Y-77828019D01*
X118029081Y-78103747D01*
X118102528Y-78241157D01*
X118351603Y-78318792D01*
X119200395Y-77470000D01*
X118351603Y-76621208D01*
X118102528Y-76698843D01*
X117976629Y-76962883D01*
X117904661Y-77246411D01*
X117889389Y-77538531D01*
X114465000Y-77538531D01*
X114465000Y-77328665D01*
X114409853Y-77051426D01*
X114301680Y-76790273D01*
X114144637Y-76555241D01*
X114030999Y-76441603D01*
X118531208Y-76441603D01*
X119380000Y-77290395D01*
X120228792Y-76441603D01*
X120151157Y-76192528D01*
X119887117Y-76066629D01*
X119603589Y-75994661D01*
X119311469Y-75979389D01*
X119021981Y-76021401D01*
X118746253Y-76119081D01*
X118608843Y-76192528D01*
X118531208Y-76441603D01*
X114030999Y-76441603D01*
X113944759Y-76355363D01*
X113709727Y-76198320D01*
X113448574Y-76090147D01*
X113171335Y-76035000D01*
X112888665Y-76035000D01*
X112611426Y-76090147D01*
X112350273Y-76198320D01*
X112115241Y-76355363D01*
X111915363Y-76555241D01*
X111758320Y-76790273D01*
X111650147Y-77051426D01*
X111595000Y-77328665D01*
X106845000Y-77328665D01*
X106789853Y-77051426D01*
X106681680Y-76790273D01*
X106524637Y-76555241D01*
X106324759Y-76355363D01*
X106089727Y-76198320D01*
X105828574Y-76090147D01*
X105551335Y-76035000D01*
X105268665Y-76035000D01*
X104991426Y-76090147D01*
X104730273Y-76198320D01*
X104495241Y-76355363D01*
X104295363Y-76555241D01*
X104138320Y-76790273D01*
X104030147Y-77051426D01*
X103975000Y-77328665D01*
X102614000Y-77328665D01*
X102614000Y-64074107D01*
X102685368Y-64145475D01*
X102928589Y-64307990D01*
X103198842Y-64419932D01*
X103485740Y-64477000D01*
X103778260Y-64477000D01*
X104065158Y-64419932D01*
X104335411Y-64307990D01*
X104578632Y-64145475D01*
X104785475Y-63938632D01*
X104902000Y-63764240D01*
X105018525Y-63938632D01*
X105225368Y-64145475D01*
X105468589Y-64307990D01*
X105738842Y-64419932D01*
X106025740Y-64477000D01*
X106318260Y-64477000D01*
X106605158Y-64419932D01*
X106875411Y-64307990D01*
X107118632Y-64145475D01*
X107325475Y-63938632D01*
X107442000Y-63764240D01*
X107558525Y-63938632D01*
X107765368Y-64145475D01*
X108008589Y-64307990D01*
X108278842Y-64419932D01*
X108565740Y-64477000D01*
X108858260Y-64477000D01*
X109145158Y-64419932D01*
X109415411Y-64307990D01*
X109658632Y-64145475D01*
X109865475Y-63938632D01*
X109982000Y-63764240D01*
X110098525Y-63938632D01*
X110305368Y-64145475D01*
X110548589Y-64307990D01*
X110818842Y-64419932D01*
X111105740Y-64477000D01*
X111398260Y-64477000D01*
X111685158Y-64419932D01*
X111955411Y-64307990D01*
X112198632Y-64145475D01*
X112405475Y-63938632D01*
X112522000Y-63764240D01*
X112638525Y-63938632D01*
X112845368Y-64145475D01*
X113088589Y-64307990D01*
X113358842Y-64419932D01*
X113645740Y-64477000D01*
X113938260Y-64477000D01*
X114225158Y-64419932D01*
X114495411Y-64307990D01*
X114738632Y-64145475D01*
X114945475Y-63938632D01*
X115062000Y-63764240D01*
X115178525Y-63938632D01*
X115385368Y-64145475D01*
X115628589Y-64307990D01*
X115898842Y-64419932D01*
X116185740Y-64477000D01*
X116478260Y-64477000D01*
X116765158Y-64419932D01*
X117035411Y-64307990D01*
X117278632Y-64145475D01*
X117485475Y-63938632D01*
X117602000Y-63764240D01*
X117718525Y-63938632D01*
X117925368Y-64145475D01*
X118168589Y-64307990D01*
X118438842Y-64419932D01*
X118725740Y-64477000D01*
X119018260Y-64477000D01*
X119305158Y-64419932D01*
X119575411Y-64307990D01*
X119818632Y-64145475D01*
X120025475Y-63938632D01*
X120142000Y-63764240D01*
X120258525Y-63938632D01*
X120465368Y-64145475D01*
X120708589Y-64307990D01*
X120978842Y-64419932D01*
X121265740Y-64477000D01*
X121558260Y-64477000D01*
X121845158Y-64419932D01*
X122115411Y-64307990D01*
X122358632Y-64145475D01*
X122565475Y-63938632D01*
X122727990Y-63695411D01*
X122839932Y-63425158D01*
X122897000Y-63138260D01*
X122897000Y-62845740D01*
X122839932Y-62558842D01*
X122727990Y-62288589D01*
X122565475Y-62045368D01*
X122433620Y-61913513D01*
X122506180Y-61891502D01*
X122616494Y-61832537D01*
X122713185Y-61753185D01*
X122792537Y-61656494D01*
X122851502Y-61546180D01*
X122887812Y-61426482D01*
X122900072Y-61302000D01*
X122900072Y-59602000D01*
X122887812Y-59477518D01*
X122851502Y-59357820D01*
X122792537Y-59247506D01*
X122713185Y-59150815D01*
X122616494Y-59071463D01*
X122506180Y-59012498D01*
X122386482Y-58976188D01*
X122262000Y-58963928D01*
X120562000Y-58963928D01*
X120437518Y-58976188D01*
X120317820Y-59012498D01*
X120207506Y-59071463D01*
X120110815Y-59150815D01*
X120031463Y-59247506D01*
X119972498Y-59357820D01*
X119950487Y-59430380D01*
X119818632Y-59298525D01*
X119575411Y-59136010D01*
X119305158Y-59024068D01*
X119018260Y-58967000D01*
X118725740Y-58967000D01*
X118438842Y-59024068D01*
X118168589Y-59136010D01*
X117925368Y-59298525D01*
X117718525Y-59505368D01*
X117602000Y-59679760D01*
X117485475Y-59505368D01*
X117278632Y-59298525D01*
X117035411Y-59136010D01*
X116765158Y-59024068D01*
X116478260Y-58967000D01*
X116185740Y-58967000D01*
X115898842Y-59024068D01*
X115628589Y-59136010D01*
X115385368Y-59298525D01*
X115178525Y-59505368D01*
X115062000Y-59679760D01*
X114945475Y-59505368D01*
X114738632Y-59298525D01*
X114495411Y-59136010D01*
X114225158Y-59024068D01*
X113938260Y-58967000D01*
X113645740Y-58967000D01*
X113358842Y-59024068D01*
X113088589Y-59136010D01*
X112845368Y-59298525D01*
X112638525Y-59505368D01*
X112522000Y-59679760D01*
X112405475Y-59505368D01*
X112198632Y-59298525D01*
X111955411Y-59136010D01*
X111685158Y-59024068D01*
X111398260Y-58967000D01*
X111105740Y-58967000D01*
X110818842Y-59024068D01*
X110548589Y-59136010D01*
X110305368Y-59298525D01*
X110098525Y-59505368D01*
X109982000Y-59679760D01*
X109865475Y-59505368D01*
X109658632Y-59298525D01*
X109415411Y-59136010D01*
X109145158Y-59024068D01*
X108858260Y-58967000D01*
X108565740Y-58967000D01*
X108278842Y-59024068D01*
X108008589Y-59136010D01*
X107765368Y-59298525D01*
X107558525Y-59505368D01*
X107442000Y-59679760D01*
X107325475Y-59505368D01*
X107118632Y-59298525D01*
X106875411Y-59136010D01*
X106605158Y-59024068D01*
X106318260Y-58967000D01*
X106025740Y-58967000D01*
X105738842Y-59024068D01*
X105468589Y-59136010D01*
X105225368Y-59298525D01*
X105018525Y-59505368D01*
X104902000Y-59679760D01*
X104785475Y-59505368D01*
X104578632Y-59298525D01*
X104335411Y-59136010D01*
X104065158Y-59024068D01*
X103778260Y-58967000D01*
X103485740Y-58967000D01*
X103198842Y-59024068D01*
X102928589Y-59136010D01*
X102685368Y-59298525D01*
X102614000Y-59369893D01*
X102614000Y-57653396D01*
X102717241Y-57756637D01*
X102952273Y-57913680D01*
X103213426Y-58021853D01*
X103490665Y-58077000D01*
X103773335Y-58077000D01*
X104050574Y-58021853D01*
X104311727Y-57913680D01*
X104546759Y-57756637D01*
X104746637Y-57556759D01*
X104902000Y-57324241D01*
X105057363Y-57556759D01*
X105257241Y-57756637D01*
X105492273Y-57913680D01*
X105753426Y-58021853D01*
X106030665Y-58077000D01*
X106313335Y-58077000D01*
X106590574Y-58021853D01*
X106851727Y-57913680D01*
X107086759Y-57756637D01*
X107286637Y-57556759D01*
X107442000Y-57324241D01*
X107597363Y-57556759D01*
X107797241Y-57756637D01*
X108032273Y-57913680D01*
X108293426Y-58021853D01*
X108570665Y-58077000D01*
X108853335Y-58077000D01*
X109130574Y-58021853D01*
X109391727Y-57913680D01*
X109626759Y-57756637D01*
X109826637Y-57556759D01*
X109982000Y-57324241D01*
X110137363Y-57556759D01*
X110337241Y-57756637D01*
X110572273Y-57913680D01*
X110833426Y-58021853D01*
X111110665Y-58077000D01*
X111393335Y-58077000D01*
X111670574Y-58021853D01*
X111931727Y-57913680D01*
X112166759Y-57756637D01*
X112366637Y-57556759D01*
X112522000Y-57324241D01*
X112677363Y-57556759D01*
X112877241Y-57756637D01*
X113112273Y-57913680D01*
X113373426Y-58021853D01*
X113650665Y-58077000D01*
X113933335Y-58077000D01*
X114210574Y-58021853D01*
X114471727Y-57913680D01*
X114706759Y-57756637D01*
X114906637Y-57556759D01*
X115062000Y-57324241D01*
X115217363Y-57556759D01*
X115417241Y-57756637D01*
X115652273Y-57913680D01*
X115913426Y-58021853D01*
X116190665Y-58077000D01*
X116473335Y-58077000D01*
X116750574Y-58021853D01*
X117011727Y-57913680D01*
X117246759Y-57756637D01*
X117446637Y-57556759D01*
X117602000Y-57324241D01*
X117757363Y-57556759D01*
X117957241Y-57756637D01*
X118192273Y-57913680D01*
X118453426Y-58021853D01*
X118730665Y-58077000D01*
X119013335Y-58077000D01*
X119290574Y-58021853D01*
X119551727Y-57913680D01*
X119786759Y-57756637D01*
X119986637Y-57556759D01*
X120142000Y-57324241D01*
X120297363Y-57556759D01*
X120497241Y-57756637D01*
X120732273Y-57913680D01*
X120993426Y-58021853D01*
X121270665Y-58077000D01*
X121553335Y-58077000D01*
X121735886Y-58040688D01*
X123700001Y-60004803D01*
X123700000Y-66995197D01*
X121605199Y-69090000D01*
X109257325Y-69090000D01*
X109220000Y-69086324D01*
X109182675Y-69090000D01*
X109182667Y-69090000D01*
X109071014Y-69100997D01*
X108927753Y-69144454D01*
X108795724Y-69215026D01*
X108679999Y-69309999D01*
X108656201Y-69338997D01*
X105733887Y-72261312D01*
X105551335Y-72225000D01*
X105268665Y-72225000D01*
X104991426Y-72280147D01*
X104730273Y-72388320D01*
X104495241Y-72545363D01*
X104295363Y-72745241D01*
X104138320Y-72980273D01*
X104030147Y-73241426D01*
X103975000Y-73518665D01*
X103975000Y-73801335D01*
X104030147Y-74078574D01*
X104138320Y-74339727D01*
X104295363Y-74574759D01*
X104495241Y-74774637D01*
X104730273Y-74931680D01*
X104991426Y-75039853D01*
X105268665Y-75095000D01*
X105551335Y-75095000D01*
X105828574Y-75039853D01*
X106089727Y-74931680D01*
X106324759Y-74774637D01*
X106524637Y-74574759D01*
X106681680Y-74339727D01*
X106789853Y-74078574D01*
X106845000Y-73801335D01*
X106845000Y-73518665D01*
X111595000Y-73518665D01*
X111595000Y-73801335D01*
X111650147Y-74078574D01*
X111758320Y-74339727D01*
X111915363Y-74574759D01*
X112115241Y-74774637D01*
X112350273Y-74931680D01*
X112611426Y-75039853D01*
X112888665Y-75095000D01*
X113171335Y-75095000D01*
X113448574Y-75039853D01*
X113709727Y-74931680D01*
X113944759Y-74774637D01*
X114144637Y-74574759D01*
X114301680Y-74339727D01*
X114409853Y-74078574D01*
X114465000Y-73801335D01*
X114465000Y-73518665D01*
X114409853Y-73241426D01*
X114301680Y-72980273D01*
X114144637Y-72745241D01*
X113944759Y-72545363D01*
X113709727Y-72388320D01*
X113448574Y-72280147D01*
X113171335Y-72225000D01*
X112888665Y-72225000D01*
X112611426Y-72280147D01*
X112350273Y-72388320D01*
X112115241Y-72545363D01*
X111915363Y-72745241D01*
X111758320Y-72980273D01*
X111650147Y-73241426D01*
X111595000Y-73518665D01*
X106845000Y-73518665D01*
X106808688Y-73336113D01*
X109534802Y-70610000D01*
X121882678Y-70610000D01*
X121920000Y-70613676D01*
X121957322Y-70610000D01*
X121957333Y-70610000D01*
X122068986Y-70599003D01*
X122212247Y-70555546D01*
X122344276Y-70484974D01*
X122460001Y-70390001D01*
X122483804Y-70360997D01*
X124971009Y-67873794D01*
X125000001Y-67850001D01*
X125023795Y-67821008D01*
X125023799Y-67821004D01*
X125094973Y-67734277D01*
X125094974Y-67734276D01*
X125165546Y-67602247D01*
X125209003Y-67458986D01*
X125220000Y-67347333D01*
X125220000Y-67347324D01*
X125223676Y-67310001D01*
X125220000Y-67272678D01*
X125220000Y-60060000D01*
X125461928Y-60060000D01*
X125461928Y-61860000D01*
X125474188Y-61984482D01*
X125510498Y-62104180D01*
X125569463Y-62214494D01*
X125648815Y-62311185D01*
X125745506Y-62390537D01*
X125855820Y-62449502D01*
X125975518Y-62485812D01*
X126100000Y-62498072D01*
X127900000Y-62498072D01*
X128024482Y-62485812D01*
X128144180Y-62449502D01*
X128254494Y-62390537D01*
X128351185Y-62311185D01*
X128430537Y-62214494D01*
X128489502Y-62104180D01*
X128495056Y-62085873D01*
X128561495Y-62152312D01*
X128812905Y-62320299D01*
X129092257Y-62436011D01*
X129388816Y-62495000D01*
X129691184Y-62495000D01*
X129987743Y-62436011D01*
X130267095Y-62320299D01*
X130518505Y-62152312D01*
X130732312Y-61938505D01*
X130900299Y-61687095D01*
X131016011Y-61407743D01*
X131075000Y-61111184D01*
X131075000Y-60808816D01*
X131016011Y-60512257D01*
X130900299Y-60232905D01*
X130732312Y-59981495D01*
X130518505Y-59767688D01*
X130267095Y-59599701D01*
X129987743Y-59483989D01*
X129691184Y-59425000D01*
X129388816Y-59425000D01*
X129092257Y-59483989D01*
X128812905Y-59599701D01*
X128561495Y-59767688D01*
X128495056Y-59834127D01*
X128489502Y-59815820D01*
X128430537Y-59705506D01*
X128351185Y-59608815D01*
X128254494Y-59529463D01*
X128144180Y-59470498D01*
X128024482Y-59434188D01*
X127900000Y-59421928D01*
X126100000Y-59421928D01*
X125975518Y-59434188D01*
X125855820Y-59470498D01*
X125745506Y-59529463D01*
X125648815Y-59608815D01*
X125569463Y-59705506D01*
X125510498Y-59815820D01*
X125474188Y-59935518D01*
X125461928Y-60060000D01*
X125220000Y-60060000D01*
X125220000Y-59727323D01*
X125223676Y-59690000D01*
X125220000Y-59652677D01*
X125220000Y-59652667D01*
X125209003Y-59541014D01*
X125165546Y-59397753D01*
X125112507Y-59298525D01*
X125094974Y-59265723D01*
X125023799Y-59178997D01*
X125000001Y-59149999D01*
X124971003Y-59126201D01*
X122810688Y-56965886D01*
X122847000Y-56783335D01*
X122847000Y-56500665D01*
X122791853Y-56223426D01*
X122683680Y-55962273D01*
X122534271Y-55738665D01*
X128105000Y-55738665D01*
X128105000Y-56021335D01*
X128160147Y-56298574D01*
X128268320Y-56559727D01*
X128425363Y-56794759D01*
X128625241Y-56994637D01*
X128860273Y-57151680D01*
X129121426Y-57259853D01*
X129398665Y-57315000D01*
X129681335Y-57315000D01*
X129958574Y-57259853D01*
X130219727Y-57151680D01*
X130454759Y-56994637D01*
X130654637Y-56794759D01*
X130811680Y-56559727D01*
X130919853Y-56298574D01*
X130975000Y-56021335D01*
X130975000Y-55738665D01*
X130919853Y-55461426D01*
X130811680Y-55200273D01*
X130654637Y-54965241D01*
X130454759Y-54765363D01*
X130219727Y-54608320D01*
X129958574Y-54500147D01*
X129681335Y-54445000D01*
X129398665Y-54445000D01*
X129121426Y-54500147D01*
X128860273Y-54608320D01*
X128625241Y-54765363D01*
X128425363Y-54965241D01*
X128268320Y-55200273D01*
X128160147Y-55461426D01*
X128105000Y-55738665D01*
X122534271Y-55738665D01*
X122526637Y-55727241D01*
X122326759Y-55527363D01*
X122091727Y-55370320D01*
X121830574Y-55262147D01*
X121553335Y-55207000D01*
X121270665Y-55207000D01*
X120993426Y-55262147D01*
X120732273Y-55370320D01*
X120497241Y-55527363D01*
X120297363Y-55727241D01*
X120142000Y-55959759D01*
X119986637Y-55727241D01*
X119786759Y-55527363D01*
X119551727Y-55370320D01*
X119290574Y-55262147D01*
X119082698Y-55220797D01*
X119106687Y-55207975D01*
X119222412Y-55113002D01*
X119246215Y-55083998D01*
X123701009Y-50629206D01*
X123730001Y-50605413D01*
X123753795Y-50576420D01*
X123753799Y-50576416D01*
X123824973Y-50489689D01*
X123824974Y-50489688D01*
X123895546Y-50357659D01*
X123939003Y-50214398D01*
X123950000Y-50102745D01*
X123950000Y-50102736D01*
X123953676Y-50065413D01*
X123950000Y-50028090D01*
X123950000Y-48480941D01*
X124031127Y-48399814D01*
X124144395Y-48230296D01*
X124222416Y-48041938D01*
X124262190Y-47841979D01*
X124262190Y-47750000D01*
X127724678Y-47750000D01*
X127762000Y-47753676D01*
X127799322Y-47750000D01*
X127799333Y-47750000D01*
X127910986Y-47739003D01*
X128054247Y-47695546D01*
X128186276Y-47624974D01*
X128301801Y-47530165D01*
X128268320Y-47580273D01*
X128160147Y-47841426D01*
X128105000Y-48118665D01*
X128105000Y-48401335D01*
X128160147Y-48678574D01*
X128268320Y-48939727D01*
X128425363Y-49174759D01*
X128625241Y-49374637D01*
X128860273Y-49531680D01*
X129121426Y-49639853D01*
X129398665Y-49695000D01*
X129681335Y-49695000D01*
X129958574Y-49639853D01*
X130219727Y-49531680D01*
X130454759Y-49374637D01*
X130654637Y-49174759D01*
X130811680Y-48939727D01*
X130919853Y-48678574D01*
X130975000Y-48401335D01*
X130975000Y-48118665D01*
X130919853Y-47841426D01*
X130811680Y-47580273D01*
X130654637Y-47345241D01*
X130454759Y-47145363D01*
X130219727Y-46988320D01*
X129958574Y-46880147D01*
X129681335Y-46825000D01*
X129398665Y-46825000D01*
X129121426Y-46880147D01*
X128860273Y-46988320D01*
X128810165Y-47021801D01*
X128904974Y-46906276D01*
X128975546Y-46774247D01*
X129019003Y-46630986D01*
X129030000Y-46519333D01*
X129030000Y-46519324D01*
X129033676Y-46482001D01*
X129030000Y-46444678D01*
X129030000Y-41693322D01*
X129033676Y-41655999D01*
X129030000Y-41618676D01*
X129030000Y-41618667D01*
X129019003Y-41507014D01*
X128975546Y-41363753D01*
X128928120Y-41275026D01*
X128904974Y-41231723D01*
X128833799Y-41144997D01*
X128810001Y-41115999D01*
X128781004Y-41092202D01*
X125448873Y-37760072D01*
X126276000Y-37760072D01*
X126400482Y-37747812D01*
X126520180Y-37711502D01*
X126630494Y-37652537D01*
X126727185Y-37573185D01*
X126806537Y-37476494D01*
X126865502Y-37366180D01*
X126901812Y-37246482D01*
X126914072Y-37122000D01*
X126914072Y-35522000D01*
X126901812Y-35397518D01*
X126865502Y-35277820D01*
X126806537Y-35167506D01*
X126727185Y-35070815D01*
X126630494Y-34991463D01*
X126552923Y-34950000D01*
X127996620Y-34950000D01*
X132690001Y-39643382D01*
X132690000Y-64496619D01*
X127826236Y-69360384D01*
X127801052Y-69381052D01*
X127780386Y-69406234D01*
X127718575Y-69481550D01*
X127677844Y-69557753D01*
X127657290Y-69596208D01*
X127619550Y-69720618D01*
X127610000Y-69817582D01*
X127610000Y-69817591D01*
X127606808Y-69850000D01*
X127610000Y-69882409D01*
X127610001Y-133076618D01*
X122916620Y-137770000D01*
X83210000Y-137770000D01*
X83210000Y-35980000D01*
X83601928Y-35980000D01*
X83601928Y-37680000D01*
X83614188Y-37804482D01*
X83650498Y-37924180D01*
X83709463Y-38034494D01*
X83788815Y-38131185D01*
X83885506Y-38210537D01*
X83995820Y-38269502D01*
X84076466Y-38293966D01*
X83992412Y-38369731D01*
X83818359Y-38603080D01*
X83693175Y-38865901D01*
X83648524Y-39013110D01*
X83769845Y-39243000D01*
X84963000Y-39243000D01*
X84963000Y-39223000D01*
X85217000Y-39223000D01*
X85217000Y-39243000D01*
X86410155Y-39243000D01*
X86531476Y-39013110D01*
X86486825Y-38865901D01*
X86361641Y-38603080D01*
X86187588Y-38369731D01*
X86103534Y-38293966D01*
X86184180Y-38269502D01*
X86294494Y-38210537D01*
X86391185Y-38131185D01*
X86470537Y-38034494D01*
X86529502Y-37924180D01*
X86565812Y-37804482D01*
X86578072Y-37680000D01*
X86578072Y-35980000D01*
X86565812Y-35855518D01*
X86529502Y-35735820D01*
X86470537Y-35625506D01*
X86391185Y-35528815D01*
X86294494Y-35449463D01*
X86184180Y-35390498D01*
X86064482Y-35354188D01*
X85940000Y-35341928D01*
X84240000Y-35341928D01*
X84115518Y-35354188D01*
X83995820Y-35390498D01*
X83885506Y-35449463D01*
X83788815Y-35528815D01*
X83709463Y-35625506D01*
X83650498Y-35735820D01*
X83614188Y-35855518D01*
X83601928Y-35980000D01*
X83210000Y-35980000D01*
X83210000Y-34950000D01*
X104210467Y-34950000D01*
X103968273Y-35050320D01*
%TD*%
M02*
