%TF.GenerationSoftware,KiCad,Pcbnew,5.1.6-c6e7f7d~87~ubuntu18.04.1*%
%TF.CreationDate,2020-07-13T17:05:48+01:00*%
%TF.ProjectId,Serial_6850_Rev1,53657269-616c-45f3-9638-35305f526576,rev?*%
%TF.SameCoordinates,Original*%
%TF.FileFunction,Legend,Top*%
%TF.FilePolarity,Positive*%
%FSLAX46Y46*%
G04 Gerber Fmt 4.6, Leading zero omitted, Abs format (unit mm)*
G04 Created by KiCad (PCBNEW 5.1.6-c6e7f7d~87~ubuntu18.04.1) date 2020-07-13 17:05:48*
%MOMM*%
%LPD*%
G01*
G04 APERTURE LIST*
%ADD10C,0.150000*%
%ADD11C,0.120000*%
G04 APERTURE END LIST*
D10*
X156582619Y-58755595D02*
X157582619Y-58755595D01*
X156868333Y-59088928D01*
X157582619Y-59422261D01*
X156582619Y-59422261D01*
X156677857Y-60469880D02*
X156630238Y-60422261D01*
X156582619Y-60279404D01*
X156582619Y-60184166D01*
X156630238Y-60041309D01*
X156725476Y-59946071D01*
X156820714Y-59898452D01*
X157011190Y-59850833D01*
X157154047Y-59850833D01*
X157344523Y-59898452D01*
X157439761Y-59946071D01*
X157535000Y-60041309D01*
X157582619Y-60184166D01*
X157582619Y-60279404D01*
X157535000Y-60422261D01*
X157487380Y-60469880D01*
X157582619Y-61327023D02*
X157582619Y-61136547D01*
X157535000Y-61041309D01*
X157487380Y-60993690D01*
X157344523Y-60898452D01*
X157154047Y-60850833D01*
X156773095Y-60850833D01*
X156677857Y-60898452D01*
X156630238Y-60946071D01*
X156582619Y-61041309D01*
X156582619Y-61231785D01*
X156630238Y-61327023D01*
X156677857Y-61374642D01*
X156773095Y-61422261D01*
X157011190Y-61422261D01*
X157106428Y-61374642D01*
X157154047Y-61327023D01*
X157201666Y-61231785D01*
X157201666Y-61041309D01*
X157154047Y-60946071D01*
X157106428Y-60898452D01*
X157011190Y-60850833D01*
X157154047Y-61993690D02*
X157201666Y-61898452D01*
X157249285Y-61850833D01*
X157344523Y-61803214D01*
X157392142Y-61803214D01*
X157487380Y-61850833D01*
X157535000Y-61898452D01*
X157582619Y-61993690D01*
X157582619Y-62184166D01*
X157535000Y-62279404D01*
X157487380Y-62327023D01*
X157392142Y-62374642D01*
X157344523Y-62374642D01*
X157249285Y-62327023D01*
X157201666Y-62279404D01*
X157154047Y-62184166D01*
X157154047Y-61993690D01*
X157106428Y-61898452D01*
X157058809Y-61850833D01*
X156963571Y-61803214D01*
X156773095Y-61803214D01*
X156677857Y-61850833D01*
X156630238Y-61898452D01*
X156582619Y-61993690D01*
X156582619Y-62184166D01*
X156630238Y-62279404D01*
X156677857Y-62327023D01*
X156773095Y-62374642D01*
X156963571Y-62374642D01*
X157058809Y-62327023D01*
X157106428Y-62279404D01*
X157154047Y-62184166D01*
X157582619Y-63279404D02*
X157582619Y-62803214D01*
X157106428Y-62755595D01*
X157154047Y-62803214D01*
X157201666Y-62898452D01*
X157201666Y-63136547D01*
X157154047Y-63231785D01*
X157106428Y-63279404D01*
X157011190Y-63327023D01*
X156773095Y-63327023D01*
X156677857Y-63279404D01*
X156630238Y-63231785D01*
X156582619Y-63136547D01*
X156582619Y-62898452D01*
X156630238Y-62803214D01*
X156677857Y-62755595D01*
X157582619Y-63946071D02*
X157582619Y-64041309D01*
X157535000Y-64136547D01*
X157487380Y-64184166D01*
X157392142Y-64231785D01*
X157201666Y-64279404D01*
X156963571Y-64279404D01*
X156773095Y-64231785D01*
X156677857Y-64184166D01*
X156630238Y-64136547D01*
X156582619Y-64041309D01*
X156582619Y-63946071D01*
X156630238Y-63850833D01*
X156677857Y-63803214D01*
X156773095Y-63755595D01*
X156963571Y-63707976D01*
X157201666Y-63707976D01*
X157392142Y-63755595D01*
X157487380Y-63803214D01*
X157535000Y-63850833D01*
X157582619Y-63946071D01*
X156630238Y-65422261D02*
X156582619Y-65565119D01*
X156582619Y-65803214D01*
X156630238Y-65898452D01*
X156677857Y-65946071D01*
X156773095Y-65993690D01*
X156868333Y-65993690D01*
X156963571Y-65946071D01*
X157011190Y-65898452D01*
X157058809Y-65803214D01*
X157106428Y-65612738D01*
X157154047Y-65517500D01*
X157201666Y-65469880D01*
X157296904Y-65422261D01*
X157392142Y-65422261D01*
X157487380Y-65469880D01*
X157535000Y-65517500D01*
X157582619Y-65612738D01*
X157582619Y-65850833D01*
X157535000Y-65993690D01*
X156630238Y-66803214D02*
X156582619Y-66707976D01*
X156582619Y-66517500D01*
X156630238Y-66422261D01*
X156725476Y-66374642D01*
X157106428Y-66374642D01*
X157201666Y-66422261D01*
X157249285Y-66517500D01*
X157249285Y-66707976D01*
X157201666Y-66803214D01*
X157106428Y-66850833D01*
X157011190Y-66850833D01*
X156915952Y-66374642D01*
X156582619Y-67279404D02*
X157249285Y-67279404D01*
X157058809Y-67279404D02*
X157154047Y-67327023D01*
X157201666Y-67374642D01*
X157249285Y-67469880D01*
X157249285Y-67565119D01*
X156582619Y-67898452D02*
X157249285Y-67898452D01*
X157582619Y-67898452D02*
X157535000Y-67850833D01*
X157487380Y-67898452D01*
X157535000Y-67946071D01*
X157582619Y-67898452D01*
X157487380Y-67898452D01*
X156582619Y-68803214D02*
X157106428Y-68803214D01*
X157201666Y-68755595D01*
X157249285Y-68660357D01*
X157249285Y-68469880D01*
X157201666Y-68374642D01*
X156630238Y-68803214D02*
X156582619Y-68707976D01*
X156582619Y-68469880D01*
X156630238Y-68374642D01*
X156725476Y-68327023D01*
X156820714Y-68327023D01*
X156915952Y-68374642D01*
X156963571Y-68469880D01*
X156963571Y-68707976D01*
X157011190Y-68803214D01*
X156582619Y-69422261D02*
X156630238Y-69327023D01*
X156725476Y-69279404D01*
X157582619Y-69279404D01*
X156582619Y-70565119D02*
X157582619Y-70565119D01*
X157630238Y-71755595D02*
X156344523Y-70898452D01*
X157582619Y-72279404D02*
X157582619Y-72469880D01*
X157535000Y-72565119D01*
X157439761Y-72660357D01*
X157249285Y-72707976D01*
X156915952Y-72707976D01*
X156725476Y-72660357D01*
X156630238Y-72565119D01*
X156582619Y-72469880D01*
X156582619Y-72279404D01*
X156630238Y-72184166D01*
X156725476Y-72088928D01*
X156915952Y-72041309D01*
X157249285Y-72041309D01*
X157439761Y-72088928D01*
X157535000Y-72184166D01*
X157582619Y-72279404D01*
X154932619Y-59327023D02*
X155408809Y-58993690D01*
X154932619Y-58755595D02*
X155932619Y-58755595D01*
X155932619Y-59136547D01*
X155885000Y-59231785D01*
X155837380Y-59279404D01*
X155742142Y-59327023D01*
X155599285Y-59327023D01*
X155504047Y-59279404D01*
X155456428Y-59231785D01*
X155408809Y-59136547D01*
X155408809Y-58755595D01*
X154980238Y-60136547D02*
X154932619Y-60041309D01*
X154932619Y-59850833D01*
X154980238Y-59755595D01*
X155075476Y-59707976D01*
X155456428Y-59707976D01*
X155551666Y-59755595D01*
X155599285Y-59850833D01*
X155599285Y-60041309D01*
X155551666Y-60136547D01*
X155456428Y-60184166D01*
X155361190Y-60184166D01*
X155265952Y-59707976D01*
X155599285Y-60517500D02*
X154932619Y-60755595D01*
X155599285Y-60993690D01*
X155027857Y-61374642D02*
X154980238Y-61422261D01*
X154932619Y-61374642D01*
X154980238Y-61327023D01*
X155027857Y-61374642D01*
X154932619Y-61374642D01*
X154932619Y-63136547D02*
X154932619Y-62565119D01*
X154932619Y-62850833D02*
X155932619Y-62850833D01*
X155789761Y-62755595D01*
X155694523Y-62660357D01*
X155646904Y-62565119D01*
X126230000Y-59279404D02*
X126277619Y-59184166D01*
X126277619Y-59041309D01*
X126230000Y-58898452D01*
X126134761Y-58803214D01*
X126039523Y-58755595D01*
X125849047Y-58707976D01*
X125706190Y-58707976D01*
X125515714Y-58755595D01*
X125420476Y-58803214D01*
X125325238Y-58898452D01*
X125277619Y-59041309D01*
X125277619Y-59136547D01*
X125325238Y-59279404D01*
X125372857Y-59327023D01*
X125706190Y-59327023D01*
X125706190Y-59136547D01*
X125277619Y-59755595D02*
X126277619Y-59755595D01*
X125277619Y-60327023D01*
X126277619Y-60327023D01*
X125277619Y-60803214D02*
X126277619Y-60803214D01*
X126277619Y-61041309D01*
X126230000Y-61184166D01*
X126134761Y-61279404D01*
X126039523Y-61327023D01*
X125849047Y-61374642D01*
X125706190Y-61374642D01*
X125515714Y-61327023D01*
X125420476Y-61279404D01*
X125325238Y-61184166D01*
X125277619Y-61041309D01*
X125277619Y-60803214D01*
X128198571Y-58755595D02*
X128198571Y-59517500D01*
X127817619Y-59136547D02*
X128579523Y-59136547D01*
X128817619Y-60469880D02*
X128817619Y-59993690D01*
X128341428Y-59946071D01*
X128389047Y-59993690D01*
X128436666Y-60088928D01*
X128436666Y-60327023D01*
X128389047Y-60422261D01*
X128341428Y-60469880D01*
X128246190Y-60517500D01*
X128008095Y-60517500D01*
X127912857Y-60469880D01*
X127865238Y-60422261D01*
X127817619Y-60327023D01*
X127817619Y-60088928D01*
X127865238Y-59993690D01*
X127912857Y-59946071D01*
X128817619Y-60803214D02*
X127817619Y-61136547D01*
X128817619Y-61469880D01*
X131357619Y-58612738D02*
X131357619Y-59184166D01*
X130357619Y-58898452D02*
X131357619Y-58898452D01*
X131357619Y-59422261D02*
X130357619Y-60088928D01*
X131357619Y-60088928D02*
X130357619Y-59422261D01*
X132897619Y-59327023D02*
X133373809Y-58993690D01*
X132897619Y-58755595D02*
X133897619Y-58755595D01*
X133897619Y-59136547D01*
X133850000Y-59231785D01*
X133802380Y-59279404D01*
X133707142Y-59327023D01*
X133564285Y-59327023D01*
X133469047Y-59279404D01*
X133421428Y-59231785D01*
X133373809Y-59136547D01*
X133373809Y-58755595D01*
X133897619Y-59660357D02*
X132897619Y-60327023D01*
X133897619Y-60327023D02*
X132897619Y-59660357D01*
D11*
%TO.C,J1*%
X109160000Y-156270000D02*
X111820000Y-156270000D01*
X109160000Y-57150000D02*
X109160000Y-156270000D01*
X111820000Y-57150000D02*
X111820000Y-156270000D01*
X109160000Y-57150000D02*
X111820000Y-57150000D01*
X109160000Y-55880000D02*
X109160000Y-54550000D01*
X109160000Y-54550000D02*
X110490000Y-54550000D01*
%TO.C,J2*%
X134680000Y-54550000D02*
X134680000Y-55880000D01*
X133350000Y-54550000D02*
X134680000Y-54550000D01*
X132080000Y-54550000D02*
X132080000Y-57210000D01*
X132080000Y-57210000D02*
X124400000Y-57210000D01*
X132080000Y-54550000D02*
X124400000Y-54550000D01*
X124400000Y-54550000D02*
X124400000Y-57210000D01*
%TO.C,U3*%
X126000000Y-69790000D02*
X120540000Y-69790000D01*
X120540000Y-69790000D02*
X120540000Y-100390000D01*
X120540000Y-100390000D02*
X133460000Y-100390000D01*
X133460000Y-100390000D02*
X133460000Y-69790000D01*
X133460000Y-69790000D02*
X128000000Y-69790000D01*
X118050000Y-69730000D02*
X118050000Y-100450000D01*
X118050000Y-100450000D02*
X135950000Y-100450000D01*
X135950000Y-100450000D02*
X135950000Y-69730000D01*
X135950000Y-69730000D02*
X118050000Y-69730000D01*
X128000000Y-69790000D02*
G75*
G02*
X126000000Y-69790000I-1000000J0D01*
G01*
%TO.C,U2*%
X122190000Y-102810000D02*
X120540000Y-102810000D01*
X120540000Y-102810000D02*
X120540000Y-120710000D01*
X120540000Y-120710000D02*
X125840000Y-120710000D01*
X125840000Y-120710000D02*
X125840000Y-102810000D01*
X125840000Y-102810000D02*
X124190000Y-102810000D01*
X118050000Y-102750000D02*
X118050000Y-120770000D01*
X118050000Y-120770000D02*
X128330000Y-120770000D01*
X128330000Y-120770000D02*
X128330000Y-102750000D01*
X128330000Y-102750000D02*
X118050000Y-102750000D01*
X124190000Y-102810000D02*
G75*
G02*
X122190000Y-102810000I-1000000J0D01*
G01*
%TO.C,U1*%
X133620000Y-102810000D02*
X131970000Y-102810000D01*
X131970000Y-102810000D02*
X131970000Y-120710000D01*
X131970000Y-120710000D02*
X137270000Y-120710000D01*
X137270000Y-120710000D02*
X137270000Y-102810000D01*
X137270000Y-102810000D02*
X135620000Y-102810000D01*
X129480000Y-102750000D02*
X129480000Y-120770000D01*
X129480000Y-120770000D02*
X139760000Y-120770000D01*
X139760000Y-120770000D02*
X139760000Y-102750000D01*
X139760000Y-102750000D02*
X129480000Y-102750000D01*
X135620000Y-102810000D02*
G75*
G02*
X133620000Y-102810000I-1000000J0D01*
G01*
%TO.C,R2*%
X140740000Y-76740000D02*
X141070000Y-76740000D01*
X141070000Y-76740000D02*
X141070000Y-83280000D01*
X141070000Y-83280000D02*
X140740000Y-83280000D01*
X138660000Y-76740000D02*
X138330000Y-76740000D01*
X138330000Y-76740000D02*
X138330000Y-83280000D01*
X138330000Y-83280000D02*
X138660000Y-83280000D01*
%TO.C,R1*%
X144550000Y-76740000D02*
X144880000Y-76740000D01*
X144880000Y-76740000D02*
X144880000Y-83280000D01*
X144880000Y-83280000D02*
X144550000Y-83280000D01*
X142470000Y-76740000D02*
X142140000Y-76740000D01*
X142140000Y-76740000D02*
X142140000Y-83280000D01*
X142140000Y-83280000D02*
X142470000Y-83280000D01*
%TO.C,JP1*%
X119955000Y-61595000D02*
X122615000Y-61595000D01*
X119955000Y-61595000D02*
X119955000Y-64195000D01*
X119955000Y-64195000D02*
X122615000Y-64195000D01*
X122615000Y-61595000D02*
X122615000Y-64195000D01*
X122615000Y-58995000D02*
X122615000Y-60325000D01*
X121285000Y-58995000D02*
X122615000Y-58995000D01*
%TO.C,D1*%
X114450000Y-68160000D02*
X116690000Y-68160000D01*
X116690000Y-68160000D02*
X116690000Y-63920000D01*
X116690000Y-63920000D02*
X114450000Y-63920000D01*
X114450000Y-63920000D02*
X114450000Y-68160000D01*
X115570000Y-68810000D02*
X115570000Y-68160000D01*
X115570000Y-63270000D02*
X115570000Y-63920000D01*
X114450000Y-67440000D02*
X116690000Y-67440000D01*
X114450000Y-67320000D02*
X116690000Y-67320000D01*
X114450000Y-67560000D02*
X116690000Y-67560000D01*
%TO.C,U3*%
D10*
X126238095Y-68242380D02*
X126238095Y-69051904D01*
X126285714Y-69147142D01*
X126333333Y-69194761D01*
X126428571Y-69242380D01*
X126619047Y-69242380D01*
X126714285Y-69194761D01*
X126761904Y-69147142D01*
X126809523Y-69051904D01*
X126809523Y-68242380D01*
X127190476Y-68242380D02*
X127809523Y-68242380D01*
X127476190Y-68623333D01*
X127619047Y-68623333D01*
X127714285Y-68670952D01*
X127761904Y-68718571D01*
X127809523Y-68813809D01*
X127809523Y-69051904D01*
X127761904Y-69147142D01*
X127714285Y-69194761D01*
X127619047Y-69242380D01*
X127333333Y-69242380D01*
X127238095Y-69194761D01*
X127190476Y-69147142D01*
%TO.C,U2*%
X122428095Y-121372380D02*
X122428095Y-122181904D01*
X122475714Y-122277142D01*
X122523333Y-122324761D01*
X122618571Y-122372380D01*
X122809047Y-122372380D01*
X122904285Y-122324761D01*
X122951904Y-122277142D01*
X122999523Y-122181904D01*
X122999523Y-121372380D01*
X123428095Y-121467619D02*
X123475714Y-121420000D01*
X123570952Y-121372380D01*
X123809047Y-121372380D01*
X123904285Y-121420000D01*
X123951904Y-121467619D01*
X123999523Y-121562857D01*
X123999523Y-121658095D01*
X123951904Y-121800952D01*
X123380476Y-122372380D01*
X123999523Y-122372380D01*
%TO.C,U1*%
X133858095Y-121372380D02*
X133858095Y-122181904D01*
X133905714Y-122277142D01*
X133953333Y-122324761D01*
X134048571Y-122372380D01*
X134239047Y-122372380D01*
X134334285Y-122324761D01*
X134381904Y-122277142D01*
X134429523Y-122181904D01*
X134429523Y-121372380D01*
X135429523Y-122372380D02*
X134858095Y-122372380D01*
X135143809Y-122372380D02*
X135143809Y-121372380D01*
X135048571Y-121515238D01*
X134953333Y-121610476D01*
X134858095Y-121658095D01*
%TO.C,R2*%
X140152380Y-80176666D02*
X139676190Y-80510000D01*
X140152380Y-80748095D02*
X139152380Y-80748095D01*
X139152380Y-80367142D01*
X139200000Y-80271904D01*
X139247619Y-80224285D01*
X139342857Y-80176666D01*
X139485714Y-80176666D01*
X139580952Y-80224285D01*
X139628571Y-80271904D01*
X139676190Y-80367142D01*
X139676190Y-80748095D01*
X139247619Y-79795714D02*
X139200000Y-79748095D01*
X139152380Y-79652857D01*
X139152380Y-79414761D01*
X139200000Y-79319523D01*
X139247619Y-79271904D01*
X139342857Y-79224285D01*
X139438095Y-79224285D01*
X139580952Y-79271904D01*
X140152380Y-79843333D01*
X140152380Y-79224285D01*
%TO.C,R1*%
X143962380Y-80176666D02*
X143486190Y-80510000D01*
X143962380Y-80748095D02*
X142962380Y-80748095D01*
X142962380Y-80367142D01*
X143010000Y-80271904D01*
X143057619Y-80224285D01*
X143152857Y-80176666D01*
X143295714Y-80176666D01*
X143390952Y-80224285D01*
X143438571Y-80271904D01*
X143486190Y-80367142D01*
X143486190Y-80748095D01*
X143962380Y-79224285D02*
X143962380Y-79795714D01*
X143962380Y-79510000D02*
X142962380Y-79510000D01*
X143105238Y-79605238D01*
X143200476Y-79700476D01*
X143248095Y-79795714D01*
%TO.C,JP1*%
X120451666Y-57007380D02*
X120451666Y-57721666D01*
X120404047Y-57864523D01*
X120308809Y-57959761D01*
X120165952Y-58007380D01*
X120070714Y-58007380D01*
X120927857Y-58007380D02*
X120927857Y-57007380D01*
X121308809Y-57007380D01*
X121404047Y-57055000D01*
X121451666Y-57102619D01*
X121499285Y-57197857D01*
X121499285Y-57340714D01*
X121451666Y-57435952D01*
X121404047Y-57483571D01*
X121308809Y-57531190D01*
X120927857Y-57531190D01*
X122451666Y-58007380D02*
X121880238Y-58007380D01*
X122165952Y-58007380D02*
X122165952Y-57007380D01*
X122070714Y-57150238D01*
X121975476Y-57245476D01*
X121880238Y-57293095D01*
%TO.C,D1*%
X116022380Y-66778095D02*
X115022380Y-66778095D01*
X115022380Y-66540000D01*
X115070000Y-66397142D01*
X115165238Y-66301904D01*
X115260476Y-66254285D01*
X115450952Y-66206666D01*
X115593809Y-66206666D01*
X115784285Y-66254285D01*
X115879523Y-66301904D01*
X115974761Y-66397142D01*
X116022380Y-66540000D01*
X116022380Y-66778095D01*
X116022380Y-65254285D02*
X116022380Y-65825714D01*
X116022380Y-65540000D02*
X115022380Y-65540000D01*
X115165238Y-65635238D01*
X115260476Y-65730476D01*
X115308095Y-65825714D01*
X114222380Y-70111904D02*
X113222380Y-70111904D01*
X114222380Y-69540476D02*
X113650952Y-69969047D01*
X113222380Y-69540476D02*
X113793809Y-70111904D01*
%TD*%
M02*
