%TF.GenerationSoftware,KiCad,Pcbnew,5.1.6-c6e7f7d~87~ubuntu18.04.1*%
%TF.CreationDate,2020-07-13T17:05:48+01:00*%
%TF.ProjectId,Serial_6850_Rev1,53657269-616c-45f3-9638-35305f526576,rev?*%
%TF.SameCoordinates,Original*%
%TF.FileFunction,Copper,L2,Bot*%
%TF.FilePolarity,Positive*%
%FSLAX46Y46*%
G04 Gerber Fmt 4.6, Leading zero omitted, Abs format (unit mm)*
G04 Created by KiCad (PCBNEW 5.1.6-c6e7f7d~87~ubuntu18.04.1) date 2020-07-13 17:05:48*
%MOMM*%
%LPD*%
G01*
G04 APERTURE LIST*
%TA.AperFunction,ComponentPad*%
%ADD10O,1.700000X1.700000*%
%TD*%
%TA.AperFunction,ComponentPad*%
%ADD11R,1.700000X1.700000*%
%TD*%
%TA.AperFunction,ComponentPad*%
%ADD12O,1.600000X1.600000*%
%TD*%
%TA.AperFunction,ComponentPad*%
%ADD13R,1.600000X1.600000*%
%TD*%
%TA.AperFunction,ComponentPad*%
%ADD14C,1.600000*%
%TD*%
%TA.AperFunction,ViaPad*%
%ADD15C,0.800000*%
%TD*%
%TA.AperFunction,Conductor*%
%ADD16C,0.250000*%
%TD*%
%TA.AperFunction,Conductor*%
%ADD17C,0.254000*%
%TD*%
G04 APERTURE END LIST*
D10*
%TO.P,J1,40*%
%TO.N,Net-(J1-Pad40)*%
X110490000Y-154940000D03*
%TO.P,J1,39*%
%TO.N,Net-(J1-Pad39)*%
X110490000Y-152400000D03*
%TO.P,J1,38*%
%TO.N,Net-(J1-Pad38)*%
X110490000Y-149860000D03*
%TO.P,J1,37*%
%TO.N,Net-(J1-Pad37)*%
X110490000Y-147320000D03*
%TO.P,J1,36*%
%TO.N,Net-(J1-Pad36)*%
X110490000Y-144780000D03*
%TO.P,J1,35*%
%TO.N,Net-(J1-Pad35)*%
X110490000Y-142240000D03*
%TO.P,J1,34*%
%TO.N,Net-(J1-Pad34)*%
X110490000Y-139700000D03*
%TO.P,J1,33*%
%TO.N,Net-(J1-Pad33)*%
X110490000Y-137160000D03*
%TO.P,J1,32*%
%TO.N,Net-(J1-Pad32)*%
X110490000Y-134620000D03*
%TO.P,J1,31*%
%TO.N,Net-(J1-Pad31)*%
X110490000Y-132080000D03*
%TO.P,J1,30*%
%TO.N,Net-(J1-Pad30)*%
X110490000Y-129540000D03*
%TO.P,J1,29*%
%TO.N,Net-(J1-Pad29)*%
X110490000Y-127000000D03*
%TO.P,J1,28*%
%TO.N,Net-(J1-Pad28)*%
X110490000Y-124460000D03*
%TO.P,J1,27*%
%TO.N,Net-(J1-Pad27)*%
X110490000Y-121920000D03*
%TO.P,J1,26*%
%TO.N,Net-(J1-Pad26)*%
X110490000Y-119380000D03*
%TO.P,J1,25*%
%TO.N,Net-(J1-Pad25)*%
X110490000Y-116840000D03*
%TO.P,J1,24*%
%TO.N,Net-(J1-Pad24)*%
X110490000Y-114300000D03*
%TO.P,J1,23*%
%TO.N,Net-(J1-Pad23)*%
X110490000Y-111760000D03*
%TO.P,J1,22*%
%TO.N,Net-(J1-Pad22)*%
X110490000Y-109220000D03*
%TO.P,J1,21*%
%TO.N,Net-(J1-Pad21)*%
X110490000Y-106680000D03*
%TO.P,J1,20*%
%TO.N,Net-(J1-Pad20)*%
X110490000Y-104140000D03*
%TO.P,J1,19*%
%TO.N,Net-(J1-Pad19)*%
X110490000Y-101600000D03*
%TO.P,J1,18*%
%TO.N,Net-(J1-Pad18)*%
X110490000Y-99060000D03*
%TO.P,J1,17*%
%TO.N,Net-(J1-Pad17)*%
X110490000Y-96520000D03*
%TO.P,J1,16*%
%TO.N,Net-(J1-Pad16)*%
X110490000Y-93980000D03*
%TO.P,J1,15*%
%TO.N,Net-(J1-Pad15)*%
X110490000Y-91440000D03*
%TO.P,J1,14*%
%TO.N,Net-(J1-Pad14)*%
X110490000Y-88900000D03*
%TO.P,J1,13*%
%TO.N,Net-(J1-Pad13)*%
X110490000Y-86360000D03*
%TO.P,J1,12*%
%TO.N,Net-(J1-Pad12)*%
X110490000Y-83820000D03*
%TO.P,J1,11*%
%TO.N,Net-(J1-Pad11)*%
X110490000Y-81280000D03*
%TO.P,J1,10*%
%TO.N,Net-(J1-Pad10)*%
X110490000Y-78740000D03*
%TO.P,J1,9*%
%TO.N,Net-(J1-Pad9)*%
X110490000Y-76200000D03*
%TO.P,J1,8*%
%TO.N,Net-(J1-Pad8)*%
X110490000Y-73660000D03*
%TO.P,J1,7*%
%TO.N,Net-(J1-Pad7)*%
X110490000Y-71120000D03*
%TO.P,J1,6*%
%TO.N,Net-(J1-Pad6)*%
X110490000Y-68580000D03*
%TO.P,J1,5*%
%TO.N,Net-(D1-Pad2)*%
X110490000Y-66040000D03*
%TO.P,J1,4*%
%TO.N,Net-(J1-Pad4)*%
X110490000Y-63500000D03*
%TO.P,J1,3*%
%TO.N,Net-(J1-Pad3)*%
X110490000Y-60960000D03*
%TO.P,J1,2*%
%TO.N,/GND*%
X110490000Y-58420000D03*
D11*
%TO.P,J1,1*%
%TO.N,/+5V*%
X110490000Y-55880000D03*
%TD*%
D10*
%TO.P,J2,4*%
%TO.N,/GND*%
X125730000Y-55880000D03*
%TO.P,J2,3*%
%TO.N,Net-(J2-Pad3)*%
X128270000Y-55880000D03*
%TO.P,J2,2*%
%TO.N,Net-(J2-Pad2)*%
X130810000Y-55880000D03*
D11*
%TO.P,J2,1*%
%TO.N,Net-(J2-Pad1)*%
X133350000Y-55880000D03*
%TD*%
D12*
%TO.P,U3,24*%
%TO.N,/GND*%
X134620000Y-71120000D03*
%TO.P,U3,12*%
%TO.N,/+5V*%
X119380000Y-99060000D03*
%TO.P,U3,23*%
%TO.N,/GND*%
X134620000Y-73660000D03*
%TO.P,U3,11*%
%TO.N,Net-(J1-Pad19)*%
X119380000Y-96520000D03*
%TO.P,U3,22*%
%TO.N,Net-(J1-Pad6)*%
X134620000Y-76200000D03*
%TO.P,U3,10*%
%TO.N,CS1*%
X119380000Y-93980000D03*
%TO.P,U3,21*%
%TO.N,Net-(J1-Pad7)*%
X134620000Y-78740000D03*
%TO.P,U3,9*%
%TO.N,CS2*%
X119380000Y-91440000D03*
%TO.P,U3,20*%
%TO.N,Net-(J1-Pad8)*%
X134620000Y-81280000D03*
%TO.P,U3,8*%
%TO.N,CS0*%
X119380000Y-88900000D03*
%TO.P,U3,19*%
%TO.N,Net-(J1-Pad9)*%
X134620000Y-83820000D03*
%TO.P,U3,7*%
%TO.N,Net-(D1-Pad1)*%
X119380000Y-86360000D03*
%TO.P,U3,18*%
%TO.N,Net-(J1-Pad10)*%
X134620000Y-86360000D03*
%TO.P,U3,6*%
%TO.N,Net-(R2-Pad2)*%
X119380000Y-83820000D03*
%TO.P,U3,17*%
%TO.N,Net-(J1-Pad11)*%
X134620000Y-88900000D03*
%TO.P,U3,5*%
%TO.N,Net-(U3-Pad5)*%
X119380000Y-81280000D03*
%TO.P,U3,16*%
%TO.N,Net-(J1-Pad12)*%
X134620000Y-91440000D03*
%TO.P,U3,4*%
%TO.N,Net-(J1-Pad3)*%
X119380000Y-78740000D03*
%TO.P,U3,15*%
%TO.N,Net-(J1-Pad13)*%
X134620000Y-93980000D03*
%TO.P,U3,3*%
%TO.N,Net-(J1-Pad3)*%
X119380000Y-76200000D03*
%TO.P,U3,14*%
%TO.N,Net-(U1-Pad2)*%
X134620000Y-96520000D03*
%TO.P,U3,2*%
%TO.N,Net-(R1-Pad2)*%
X119380000Y-73660000D03*
%TO.P,U3,13*%
%TO.N,Net-(J1-Pad17)*%
X134620000Y-99060000D03*
D13*
%TO.P,U3,1*%
%TO.N,/GND*%
X119380000Y-71120000D03*
%TD*%
D12*
%TO.P,U2,14*%
%TO.N,/+5V*%
X127000000Y-104140000D03*
%TO.P,U2,7*%
%TO.N,/GND*%
X119380000Y-119380000D03*
%TO.P,U2,13*%
%TO.N,Net-(J1-Pad25)*%
X127000000Y-106680000D03*
%TO.P,U2,6*%
%TO.N,Net-(U2-Pad10)*%
X119380000Y-116840000D03*
%TO.P,U2,12*%
%TO.N,Net-(J1-Pad24)*%
X127000000Y-109220000D03*
%TO.P,U2,5*%
%TO.N,Net-(J1-Pad23)*%
X119380000Y-114300000D03*
%TO.P,U2,11*%
%TO.N,Net-(U1-Pad3)*%
X127000000Y-111760000D03*
%TO.P,U2,4*%
%TO.N,Net-(J1-Pad22)*%
X119380000Y-111760000D03*
%TO.P,U2,10*%
%TO.N,Net-(U2-Pad10)*%
X127000000Y-114300000D03*
%TO.P,U2,3*%
%TO.N,Net-(U2-Pad3)*%
X119380000Y-109220000D03*
%TO.P,U2,9*%
X127000000Y-116840000D03*
%TO.P,U2,2*%
%TO.N,Net-(J1-Pad21)*%
X119380000Y-106680000D03*
%TO.P,U2,8*%
%TO.N,CS2*%
X127000000Y-119380000D03*
D13*
%TO.P,U2,1*%
%TO.N,Net-(J1-Pad20)*%
X119380000Y-104140000D03*
%TD*%
D12*
%TO.P,U1,14*%
%TO.N,/+5V*%
X138430000Y-104140000D03*
%TO.P,U1,7*%
%TO.N,/GND*%
X130810000Y-119380000D03*
%TO.P,U1,13*%
%TO.N,N/C*%
X138430000Y-106680000D03*
%TO.P,U1,6*%
%TO.N,CS0*%
X130810000Y-116840000D03*
%TO.P,U1,12*%
%TO.N,N/C*%
X138430000Y-109220000D03*
%TO.P,U1,5*%
%TO.N,Net-(J1-Pad26)*%
X130810000Y-114300000D03*
%TO.P,U1,11*%
%TO.N,N/C*%
X138430000Y-111760000D03*
%TO.P,U1,4*%
%TO.N,CS1*%
X130810000Y-111760000D03*
%TO.P,U1,10*%
%TO.N,N/C*%
X138430000Y-114300000D03*
%TO.P,U1,3*%
%TO.N,Net-(U1-Pad3)*%
X130810000Y-109220000D03*
%TO.P,U1,9*%
%TO.N,N/C*%
X138430000Y-116840000D03*
%TO.P,U1,2*%
%TO.N,Net-(U1-Pad2)*%
X130810000Y-106680000D03*
%TO.P,U1,8*%
%TO.N,N/C*%
X138430000Y-119380000D03*
D13*
%TO.P,U1,1*%
%TO.N,Net-(J1-Pad15)*%
X130810000Y-104140000D03*
%TD*%
D12*
%TO.P,R2,2*%
%TO.N,Net-(R2-Pad2)*%
X139700000Y-83820000D03*
D14*
%TO.P,R2,1*%
%TO.N,Net-(J2-Pad2)*%
X139700000Y-76200000D03*
%TD*%
D12*
%TO.P,R1,2*%
%TO.N,Net-(R1-Pad2)*%
X143510000Y-83820000D03*
D14*
%TO.P,R1,1*%
%TO.N,Net-(J2-Pad1)*%
X143510000Y-76200000D03*
%TD*%
D10*
%TO.P,JP1,2*%
%TO.N,Net-(J2-Pad3)*%
X121285000Y-62865000D03*
D11*
%TO.P,JP1,1*%
%TO.N,/+5V*%
X121285000Y-60325000D03*
%TD*%
D12*
%TO.P,D1,2*%
%TO.N,Net-(D1-Pad2)*%
X115570000Y-62230000D03*
D13*
%TO.P,D1,1*%
%TO.N,Net-(D1-Pad1)*%
X115570000Y-69850000D03*
%TD*%
D15*
%TO.N,CS0*%
X125730000Y-88900000D03*
%TO.N,CS1*%
X132080000Y-95250000D03*
X125730000Y-93980000D03*
%TO.N,CS2*%
X116840000Y-100330000D03*
X116840000Y-102870000D03*
%TD*%
D16*
%TO.N,Net-(D1-Pad1)*%
X115570000Y-82550000D02*
X119380000Y-86360000D01*
X115570000Y-69850000D02*
X115570000Y-82550000D01*
%TO.N,Net-(J1-Pad17)*%
X110490000Y-96520000D02*
X115570000Y-101600000D01*
X132080000Y-101600000D02*
X134620000Y-99060000D01*
X115570000Y-101600000D02*
X132080000Y-101600000D01*
%TO.N,Net-(J1-Pad3)*%
X119380000Y-76200000D02*
X119380000Y-78740000D01*
X116695001Y-67165001D02*
X110490000Y-60960000D01*
X116695001Y-73515001D02*
X116695001Y-67165001D01*
X119380000Y-76200000D02*
X116695001Y-73515001D01*
%TO.N,CS0*%
X134079999Y-92565001D02*
X130810000Y-89295002D01*
X134870003Y-92565001D02*
X134079999Y-92565001D01*
X137304999Y-94999997D02*
X134870003Y-92565001D01*
X130810000Y-116840000D02*
X137304999Y-110345001D01*
X137304999Y-110345001D02*
X137304999Y-94999997D01*
X130810000Y-89295002D02*
X126125002Y-89295002D01*
X126125002Y-89295002D02*
X125730000Y-88900000D01*
%TO.N,CS1*%
X132080000Y-95250000D02*
X127000000Y-95250000D01*
X127000000Y-95250000D02*
X125730000Y-93980000D01*
%TO.N,Net-(U1-Pad3)*%
X128270000Y-111760000D02*
X130810000Y-109220000D01*
X127000000Y-111760000D02*
X128270000Y-111760000D01*
%TO.N,Net-(U2-Pad3)*%
X119380000Y-109220000D02*
X127000000Y-116840000D01*
%TO.N,CS2*%
X119380000Y-91440000D02*
X116840000Y-93980000D01*
X116840000Y-93980000D02*
X116840000Y-100330000D01*
X125874999Y-116589997D02*
X125874999Y-118254999D01*
X119129997Y-110634999D02*
X119920001Y-110634999D01*
X125874999Y-118254999D02*
X127000000Y-119380000D01*
X116840000Y-108345002D02*
X119129997Y-110634999D01*
X119920001Y-110634999D02*
X125874999Y-116589997D01*
X116840000Y-102870000D02*
X116840000Y-108345002D01*
%TO.N,/+5V*%
X121285000Y-60325000D02*
X123190000Y-62230000D01*
X123190000Y-95250000D02*
X119380000Y-99060000D01*
X123190000Y-62230000D02*
X123190000Y-95250000D01*
%TD*%
D17*
%TO.N,/GND*%
G36*
X158090000Y-58693381D02*
G01*
X158090001Y-82517572D01*
X158090000Y-82517582D01*
X158090001Y-83546618D01*
X153226232Y-88410388D01*
X153201053Y-88431052D01*
X153180389Y-88456231D01*
X153180386Y-88456234D01*
X153118575Y-88531550D01*
X153057290Y-88646208D01*
X153019551Y-88770618D01*
X153006808Y-88900000D01*
X153010001Y-88932419D01*
X153010000Y-152126619D01*
X148316620Y-156820000D01*
X108610000Y-156820000D01*
X108610000Y-60813740D01*
X109005000Y-60813740D01*
X109005000Y-61106260D01*
X109062068Y-61393158D01*
X109174010Y-61663411D01*
X109336525Y-61906632D01*
X109543368Y-62113475D01*
X109717760Y-62230000D01*
X109543368Y-62346525D01*
X109336525Y-62553368D01*
X109174010Y-62796589D01*
X109062068Y-63066842D01*
X109005000Y-63353740D01*
X109005000Y-63646260D01*
X109062068Y-63933158D01*
X109174010Y-64203411D01*
X109336525Y-64446632D01*
X109543368Y-64653475D01*
X109717760Y-64770000D01*
X109543368Y-64886525D01*
X109336525Y-65093368D01*
X109174010Y-65336589D01*
X109062068Y-65606842D01*
X109005000Y-65893740D01*
X109005000Y-66186260D01*
X109062068Y-66473158D01*
X109174010Y-66743411D01*
X109336525Y-66986632D01*
X109543368Y-67193475D01*
X109717760Y-67310000D01*
X109543368Y-67426525D01*
X109336525Y-67633368D01*
X109174010Y-67876589D01*
X109062068Y-68146842D01*
X109005000Y-68433740D01*
X109005000Y-68726260D01*
X109062068Y-69013158D01*
X109174010Y-69283411D01*
X109336525Y-69526632D01*
X109543368Y-69733475D01*
X109717760Y-69850000D01*
X109543368Y-69966525D01*
X109336525Y-70173368D01*
X109174010Y-70416589D01*
X109062068Y-70686842D01*
X109005000Y-70973740D01*
X109005000Y-71266260D01*
X109062068Y-71553158D01*
X109174010Y-71823411D01*
X109336525Y-72066632D01*
X109543368Y-72273475D01*
X109717760Y-72390000D01*
X109543368Y-72506525D01*
X109336525Y-72713368D01*
X109174010Y-72956589D01*
X109062068Y-73226842D01*
X109005000Y-73513740D01*
X109005000Y-73806260D01*
X109062068Y-74093158D01*
X109174010Y-74363411D01*
X109336525Y-74606632D01*
X109543368Y-74813475D01*
X109717760Y-74930000D01*
X109543368Y-75046525D01*
X109336525Y-75253368D01*
X109174010Y-75496589D01*
X109062068Y-75766842D01*
X109005000Y-76053740D01*
X109005000Y-76346260D01*
X109062068Y-76633158D01*
X109174010Y-76903411D01*
X109336525Y-77146632D01*
X109543368Y-77353475D01*
X109717760Y-77470000D01*
X109543368Y-77586525D01*
X109336525Y-77793368D01*
X109174010Y-78036589D01*
X109062068Y-78306842D01*
X109005000Y-78593740D01*
X109005000Y-78886260D01*
X109062068Y-79173158D01*
X109174010Y-79443411D01*
X109336525Y-79686632D01*
X109543368Y-79893475D01*
X109717760Y-80010000D01*
X109543368Y-80126525D01*
X109336525Y-80333368D01*
X109174010Y-80576589D01*
X109062068Y-80846842D01*
X109005000Y-81133740D01*
X109005000Y-81426260D01*
X109062068Y-81713158D01*
X109174010Y-81983411D01*
X109336525Y-82226632D01*
X109543368Y-82433475D01*
X109717760Y-82550000D01*
X109543368Y-82666525D01*
X109336525Y-82873368D01*
X109174010Y-83116589D01*
X109062068Y-83386842D01*
X109005000Y-83673740D01*
X109005000Y-83966260D01*
X109062068Y-84253158D01*
X109174010Y-84523411D01*
X109336525Y-84766632D01*
X109543368Y-84973475D01*
X109717760Y-85090000D01*
X109543368Y-85206525D01*
X109336525Y-85413368D01*
X109174010Y-85656589D01*
X109062068Y-85926842D01*
X109005000Y-86213740D01*
X109005000Y-86506260D01*
X109062068Y-86793158D01*
X109174010Y-87063411D01*
X109336525Y-87306632D01*
X109543368Y-87513475D01*
X109717760Y-87630000D01*
X109543368Y-87746525D01*
X109336525Y-87953368D01*
X109174010Y-88196589D01*
X109062068Y-88466842D01*
X109005000Y-88753740D01*
X109005000Y-89046260D01*
X109062068Y-89333158D01*
X109174010Y-89603411D01*
X109336525Y-89846632D01*
X109543368Y-90053475D01*
X109717760Y-90170000D01*
X109543368Y-90286525D01*
X109336525Y-90493368D01*
X109174010Y-90736589D01*
X109062068Y-91006842D01*
X109005000Y-91293740D01*
X109005000Y-91586260D01*
X109062068Y-91873158D01*
X109174010Y-92143411D01*
X109336525Y-92386632D01*
X109543368Y-92593475D01*
X109717760Y-92710000D01*
X109543368Y-92826525D01*
X109336525Y-93033368D01*
X109174010Y-93276589D01*
X109062068Y-93546842D01*
X109005000Y-93833740D01*
X109005000Y-94126260D01*
X109062068Y-94413158D01*
X109174010Y-94683411D01*
X109336525Y-94926632D01*
X109543368Y-95133475D01*
X109717760Y-95250000D01*
X109543368Y-95366525D01*
X109336525Y-95573368D01*
X109174010Y-95816589D01*
X109062068Y-96086842D01*
X109005000Y-96373740D01*
X109005000Y-96666260D01*
X109062068Y-96953158D01*
X109174010Y-97223411D01*
X109336525Y-97466632D01*
X109543368Y-97673475D01*
X109717760Y-97790000D01*
X109543368Y-97906525D01*
X109336525Y-98113368D01*
X109174010Y-98356589D01*
X109062068Y-98626842D01*
X109005000Y-98913740D01*
X109005000Y-99206260D01*
X109062068Y-99493158D01*
X109174010Y-99763411D01*
X109336525Y-100006632D01*
X109543368Y-100213475D01*
X109717760Y-100330000D01*
X109543368Y-100446525D01*
X109336525Y-100653368D01*
X109174010Y-100896589D01*
X109062068Y-101166842D01*
X109005000Y-101453740D01*
X109005000Y-101746260D01*
X109062068Y-102033158D01*
X109174010Y-102303411D01*
X109336525Y-102546632D01*
X109543368Y-102753475D01*
X109717760Y-102870000D01*
X109543368Y-102986525D01*
X109336525Y-103193368D01*
X109174010Y-103436589D01*
X109062068Y-103706842D01*
X109005000Y-103993740D01*
X109005000Y-104286260D01*
X109062068Y-104573158D01*
X109174010Y-104843411D01*
X109336525Y-105086632D01*
X109543368Y-105293475D01*
X109717760Y-105410000D01*
X109543368Y-105526525D01*
X109336525Y-105733368D01*
X109174010Y-105976589D01*
X109062068Y-106246842D01*
X109005000Y-106533740D01*
X109005000Y-106826260D01*
X109062068Y-107113158D01*
X109174010Y-107383411D01*
X109336525Y-107626632D01*
X109543368Y-107833475D01*
X109717760Y-107950000D01*
X109543368Y-108066525D01*
X109336525Y-108273368D01*
X109174010Y-108516589D01*
X109062068Y-108786842D01*
X109005000Y-109073740D01*
X109005000Y-109366260D01*
X109062068Y-109653158D01*
X109174010Y-109923411D01*
X109336525Y-110166632D01*
X109543368Y-110373475D01*
X109717760Y-110490000D01*
X109543368Y-110606525D01*
X109336525Y-110813368D01*
X109174010Y-111056589D01*
X109062068Y-111326842D01*
X109005000Y-111613740D01*
X109005000Y-111906260D01*
X109062068Y-112193158D01*
X109174010Y-112463411D01*
X109336525Y-112706632D01*
X109543368Y-112913475D01*
X109717760Y-113030000D01*
X109543368Y-113146525D01*
X109336525Y-113353368D01*
X109174010Y-113596589D01*
X109062068Y-113866842D01*
X109005000Y-114153740D01*
X109005000Y-114446260D01*
X109062068Y-114733158D01*
X109174010Y-115003411D01*
X109336525Y-115246632D01*
X109543368Y-115453475D01*
X109717760Y-115570000D01*
X109543368Y-115686525D01*
X109336525Y-115893368D01*
X109174010Y-116136589D01*
X109062068Y-116406842D01*
X109005000Y-116693740D01*
X109005000Y-116986260D01*
X109062068Y-117273158D01*
X109174010Y-117543411D01*
X109336525Y-117786632D01*
X109543368Y-117993475D01*
X109717760Y-118110000D01*
X109543368Y-118226525D01*
X109336525Y-118433368D01*
X109174010Y-118676589D01*
X109062068Y-118946842D01*
X109005000Y-119233740D01*
X109005000Y-119526260D01*
X109062068Y-119813158D01*
X109174010Y-120083411D01*
X109336525Y-120326632D01*
X109543368Y-120533475D01*
X109717760Y-120650000D01*
X109543368Y-120766525D01*
X109336525Y-120973368D01*
X109174010Y-121216589D01*
X109062068Y-121486842D01*
X109005000Y-121773740D01*
X109005000Y-122066260D01*
X109062068Y-122353158D01*
X109174010Y-122623411D01*
X109336525Y-122866632D01*
X109543368Y-123073475D01*
X109717760Y-123190000D01*
X109543368Y-123306525D01*
X109336525Y-123513368D01*
X109174010Y-123756589D01*
X109062068Y-124026842D01*
X109005000Y-124313740D01*
X109005000Y-124606260D01*
X109062068Y-124893158D01*
X109174010Y-125163411D01*
X109336525Y-125406632D01*
X109543368Y-125613475D01*
X109717760Y-125730000D01*
X109543368Y-125846525D01*
X109336525Y-126053368D01*
X109174010Y-126296589D01*
X109062068Y-126566842D01*
X109005000Y-126853740D01*
X109005000Y-127146260D01*
X109062068Y-127433158D01*
X109174010Y-127703411D01*
X109336525Y-127946632D01*
X109543368Y-128153475D01*
X109717760Y-128270000D01*
X109543368Y-128386525D01*
X109336525Y-128593368D01*
X109174010Y-128836589D01*
X109062068Y-129106842D01*
X109005000Y-129393740D01*
X109005000Y-129686260D01*
X109062068Y-129973158D01*
X109174010Y-130243411D01*
X109336525Y-130486632D01*
X109543368Y-130693475D01*
X109717760Y-130810000D01*
X109543368Y-130926525D01*
X109336525Y-131133368D01*
X109174010Y-131376589D01*
X109062068Y-131646842D01*
X109005000Y-131933740D01*
X109005000Y-132226260D01*
X109062068Y-132513158D01*
X109174010Y-132783411D01*
X109336525Y-133026632D01*
X109543368Y-133233475D01*
X109717760Y-133350000D01*
X109543368Y-133466525D01*
X109336525Y-133673368D01*
X109174010Y-133916589D01*
X109062068Y-134186842D01*
X109005000Y-134473740D01*
X109005000Y-134766260D01*
X109062068Y-135053158D01*
X109174010Y-135323411D01*
X109336525Y-135566632D01*
X109543368Y-135773475D01*
X109717760Y-135890000D01*
X109543368Y-136006525D01*
X109336525Y-136213368D01*
X109174010Y-136456589D01*
X109062068Y-136726842D01*
X109005000Y-137013740D01*
X109005000Y-137306260D01*
X109062068Y-137593158D01*
X109174010Y-137863411D01*
X109336525Y-138106632D01*
X109543368Y-138313475D01*
X109717760Y-138430000D01*
X109543368Y-138546525D01*
X109336525Y-138753368D01*
X109174010Y-138996589D01*
X109062068Y-139266842D01*
X109005000Y-139553740D01*
X109005000Y-139846260D01*
X109062068Y-140133158D01*
X109174010Y-140403411D01*
X109336525Y-140646632D01*
X109543368Y-140853475D01*
X109717760Y-140970000D01*
X109543368Y-141086525D01*
X109336525Y-141293368D01*
X109174010Y-141536589D01*
X109062068Y-141806842D01*
X109005000Y-142093740D01*
X109005000Y-142386260D01*
X109062068Y-142673158D01*
X109174010Y-142943411D01*
X109336525Y-143186632D01*
X109543368Y-143393475D01*
X109717760Y-143510000D01*
X109543368Y-143626525D01*
X109336525Y-143833368D01*
X109174010Y-144076589D01*
X109062068Y-144346842D01*
X109005000Y-144633740D01*
X109005000Y-144926260D01*
X109062068Y-145213158D01*
X109174010Y-145483411D01*
X109336525Y-145726632D01*
X109543368Y-145933475D01*
X109717760Y-146050000D01*
X109543368Y-146166525D01*
X109336525Y-146373368D01*
X109174010Y-146616589D01*
X109062068Y-146886842D01*
X109005000Y-147173740D01*
X109005000Y-147466260D01*
X109062068Y-147753158D01*
X109174010Y-148023411D01*
X109336525Y-148266632D01*
X109543368Y-148473475D01*
X109717760Y-148590000D01*
X109543368Y-148706525D01*
X109336525Y-148913368D01*
X109174010Y-149156589D01*
X109062068Y-149426842D01*
X109005000Y-149713740D01*
X109005000Y-150006260D01*
X109062068Y-150293158D01*
X109174010Y-150563411D01*
X109336525Y-150806632D01*
X109543368Y-151013475D01*
X109717760Y-151130000D01*
X109543368Y-151246525D01*
X109336525Y-151453368D01*
X109174010Y-151696589D01*
X109062068Y-151966842D01*
X109005000Y-152253740D01*
X109005000Y-152546260D01*
X109062068Y-152833158D01*
X109174010Y-153103411D01*
X109336525Y-153346632D01*
X109543368Y-153553475D01*
X109717760Y-153670000D01*
X109543368Y-153786525D01*
X109336525Y-153993368D01*
X109174010Y-154236589D01*
X109062068Y-154506842D01*
X109005000Y-154793740D01*
X109005000Y-155086260D01*
X109062068Y-155373158D01*
X109174010Y-155643411D01*
X109336525Y-155886632D01*
X109543368Y-156093475D01*
X109786589Y-156255990D01*
X110056842Y-156367932D01*
X110343740Y-156425000D01*
X110636260Y-156425000D01*
X110923158Y-156367932D01*
X111193411Y-156255990D01*
X111436632Y-156093475D01*
X111643475Y-155886632D01*
X111805990Y-155643411D01*
X111917932Y-155373158D01*
X111975000Y-155086260D01*
X111975000Y-154793740D01*
X111917932Y-154506842D01*
X111805990Y-154236589D01*
X111643475Y-153993368D01*
X111436632Y-153786525D01*
X111262240Y-153670000D01*
X111436632Y-153553475D01*
X111643475Y-153346632D01*
X111805990Y-153103411D01*
X111917932Y-152833158D01*
X111975000Y-152546260D01*
X111975000Y-152253740D01*
X111917932Y-151966842D01*
X111805990Y-151696589D01*
X111643475Y-151453368D01*
X111436632Y-151246525D01*
X111262240Y-151130000D01*
X111436632Y-151013475D01*
X111643475Y-150806632D01*
X111805990Y-150563411D01*
X111917932Y-150293158D01*
X111975000Y-150006260D01*
X111975000Y-149713740D01*
X111917932Y-149426842D01*
X111805990Y-149156589D01*
X111643475Y-148913368D01*
X111436632Y-148706525D01*
X111262240Y-148590000D01*
X111436632Y-148473475D01*
X111643475Y-148266632D01*
X111805990Y-148023411D01*
X111917932Y-147753158D01*
X111975000Y-147466260D01*
X111975000Y-147173740D01*
X111917932Y-146886842D01*
X111805990Y-146616589D01*
X111643475Y-146373368D01*
X111436632Y-146166525D01*
X111262240Y-146050000D01*
X111436632Y-145933475D01*
X111643475Y-145726632D01*
X111805990Y-145483411D01*
X111917932Y-145213158D01*
X111975000Y-144926260D01*
X111975000Y-144633740D01*
X111917932Y-144346842D01*
X111805990Y-144076589D01*
X111643475Y-143833368D01*
X111436632Y-143626525D01*
X111262240Y-143510000D01*
X111436632Y-143393475D01*
X111643475Y-143186632D01*
X111805990Y-142943411D01*
X111917932Y-142673158D01*
X111975000Y-142386260D01*
X111975000Y-142093740D01*
X111917932Y-141806842D01*
X111805990Y-141536589D01*
X111643475Y-141293368D01*
X111436632Y-141086525D01*
X111262240Y-140970000D01*
X111436632Y-140853475D01*
X111643475Y-140646632D01*
X111805990Y-140403411D01*
X111917932Y-140133158D01*
X111975000Y-139846260D01*
X111975000Y-139553740D01*
X111917932Y-139266842D01*
X111805990Y-138996589D01*
X111643475Y-138753368D01*
X111436632Y-138546525D01*
X111262240Y-138430000D01*
X111436632Y-138313475D01*
X111643475Y-138106632D01*
X111805990Y-137863411D01*
X111917932Y-137593158D01*
X111975000Y-137306260D01*
X111975000Y-137013740D01*
X111917932Y-136726842D01*
X111805990Y-136456589D01*
X111643475Y-136213368D01*
X111436632Y-136006525D01*
X111262240Y-135890000D01*
X111436632Y-135773475D01*
X111643475Y-135566632D01*
X111805990Y-135323411D01*
X111917932Y-135053158D01*
X111975000Y-134766260D01*
X111975000Y-134473740D01*
X111917932Y-134186842D01*
X111805990Y-133916589D01*
X111643475Y-133673368D01*
X111436632Y-133466525D01*
X111262240Y-133350000D01*
X111436632Y-133233475D01*
X111643475Y-133026632D01*
X111805990Y-132783411D01*
X111917932Y-132513158D01*
X111975000Y-132226260D01*
X111975000Y-131933740D01*
X111917932Y-131646842D01*
X111805990Y-131376589D01*
X111643475Y-131133368D01*
X111436632Y-130926525D01*
X111262240Y-130810000D01*
X111436632Y-130693475D01*
X111643475Y-130486632D01*
X111805990Y-130243411D01*
X111917932Y-129973158D01*
X111975000Y-129686260D01*
X111975000Y-129393740D01*
X111917932Y-129106842D01*
X111805990Y-128836589D01*
X111643475Y-128593368D01*
X111436632Y-128386525D01*
X111262240Y-128270000D01*
X111436632Y-128153475D01*
X111643475Y-127946632D01*
X111805990Y-127703411D01*
X111917932Y-127433158D01*
X111975000Y-127146260D01*
X111975000Y-126853740D01*
X111917932Y-126566842D01*
X111805990Y-126296589D01*
X111643475Y-126053368D01*
X111436632Y-125846525D01*
X111262240Y-125730000D01*
X111436632Y-125613475D01*
X111643475Y-125406632D01*
X111805990Y-125163411D01*
X111917932Y-124893158D01*
X111975000Y-124606260D01*
X111975000Y-124313740D01*
X111917932Y-124026842D01*
X111805990Y-123756589D01*
X111643475Y-123513368D01*
X111436632Y-123306525D01*
X111262240Y-123190000D01*
X111436632Y-123073475D01*
X111643475Y-122866632D01*
X111805990Y-122623411D01*
X111917932Y-122353158D01*
X111975000Y-122066260D01*
X111975000Y-121773740D01*
X111917932Y-121486842D01*
X111805990Y-121216589D01*
X111643475Y-120973368D01*
X111436632Y-120766525D01*
X111262240Y-120650000D01*
X111436632Y-120533475D01*
X111643475Y-120326632D01*
X111805990Y-120083411D01*
X111917932Y-119813158D01*
X111934664Y-119729039D01*
X117988096Y-119729039D01*
X118028754Y-119863087D01*
X118148963Y-120117420D01*
X118316481Y-120343414D01*
X118524869Y-120532385D01*
X118766119Y-120677070D01*
X119030960Y-120771909D01*
X119253000Y-120650624D01*
X119253000Y-119507000D01*
X119507000Y-119507000D01*
X119507000Y-120650624D01*
X119729040Y-120771909D01*
X119993881Y-120677070D01*
X120235131Y-120532385D01*
X120443519Y-120343414D01*
X120611037Y-120117420D01*
X120731246Y-119863087D01*
X120771904Y-119729039D01*
X120649915Y-119507000D01*
X119507000Y-119507000D01*
X119253000Y-119507000D01*
X118110085Y-119507000D01*
X117988096Y-119729039D01*
X111934664Y-119729039D01*
X111975000Y-119526260D01*
X111975000Y-119233740D01*
X111917932Y-118946842D01*
X111805990Y-118676589D01*
X111643475Y-118433368D01*
X111436632Y-118226525D01*
X111262240Y-118110000D01*
X111436632Y-117993475D01*
X111643475Y-117786632D01*
X111805990Y-117543411D01*
X111917932Y-117273158D01*
X111975000Y-116986260D01*
X111975000Y-116693740D01*
X111917932Y-116406842D01*
X111805990Y-116136589D01*
X111643475Y-115893368D01*
X111436632Y-115686525D01*
X111262240Y-115570000D01*
X111436632Y-115453475D01*
X111643475Y-115246632D01*
X111805990Y-115003411D01*
X111917932Y-114733158D01*
X111975000Y-114446260D01*
X111975000Y-114153740D01*
X111917932Y-113866842D01*
X111805990Y-113596589D01*
X111643475Y-113353368D01*
X111436632Y-113146525D01*
X111262240Y-113030000D01*
X111436632Y-112913475D01*
X111643475Y-112706632D01*
X111805990Y-112463411D01*
X111917932Y-112193158D01*
X111975000Y-111906260D01*
X111975000Y-111613740D01*
X111917932Y-111326842D01*
X111805990Y-111056589D01*
X111643475Y-110813368D01*
X111436632Y-110606525D01*
X111262240Y-110490000D01*
X111436632Y-110373475D01*
X111643475Y-110166632D01*
X111805990Y-109923411D01*
X111917932Y-109653158D01*
X111975000Y-109366260D01*
X111975000Y-109073740D01*
X111917932Y-108786842D01*
X111805990Y-108516589D01*
X111643475Y-108273368D01*
X111436632Y-108066525D01*
X111262240Y-107950000D01*
X111436632Y-107833475D01*
X111643475Y-107626632D01*
X111805990Y-107383411D01*
X111917932Y-107113158D01*
X111975000Y-106826260D01*
X111975000Y-106533740D01*
X111917932Y-106246842D01*
X111805990Y-105976589D01*
X111643475Y-105733368D01*
X111436632Y-105526525D01*
X111262240Y-105410000D01*
X111436632Y-105293475D01*
X111643475Y-105086632D01*
X111805990Y-104843411D01*
X111917932Y-104573158D01*
X111975000Y-104286260D01*
X111975000Y-103993740D01*
X111917932Y-103706842D01*
X111805990Y-103436589D01*
X111643475Y-103193368D01*
X111436632Y-102986525D01*
X111262240Y-102870000D01*
X111436632Y-102753475D01*
X111643475Y-102546632D01*
X111805990Y-102303411D01*
X111917932Y-102033158D01*
X111975000Y-101746260D01*
X111975000Y-101453740D01*
X111917932Y-101166842D01*
X111805990Y-100896589D01*
X111643475Y-100653368D01*
X111436632Y-100446525D01*
X111262240Y-100330000D01*
X111436632Y-100213475D01*
X111643475Y-100006632D01*
X111805990Y-99763411D01*
X111917932Y-99493158D01*
X111975000Y-99206260D01*
X111975000Y-99079801D01*
X115006201Y-102111003D01*
X115029999Y-102140001D01*
X115058997Y-102163799D01*
X115145723Y-102234974D01*
X115273759Y-102303411D01*
X115277753Y-102305546D01*
X115421014Y-102349003D01*
X115532667Y-102360000D01*
X115532677Y-102360000D01*
X115570000Y-102363676D01*
X115607323Y-102360000D01*
X115935987Y-102360000D01*
X115922795Y-102379744D01*
X115844774Y-102568102D01*
X115805000Y-102768061D01*
X115805000Y-102971939D01*
X115844774Y-103171898D01*
X115922795Y-103360256D01*
X116036063Y-103529774D01*
X116080000Y-103573711D01*
X116080001Y-108307670D01*
X116076324Y-108345002D01*
X116080001Y-108382335D01*
X116090998Y-108493988D01*
X116097854Y-108516589D01*
X116134454Y-108637248D01*
X116205026Y-108769278D01*
X116276201Y-108856004D01*
X116300000Y-108885003D01*
X116328998Y-108908801D01*
X118265400Y-110845204D01*
X118265363Y-110845241D01*
X118108320Y-111080273D01*
X118000147Y-111341426D01*
X117945000Y-111618665D01*
X117945000Y-111901335D01*
X118000147Y-112178574D01*
X118108320Y-112439727D01*
X118265363Y-112674759D01*
X118465241Y-112874637D01*
X118697759Y-113030000D01*
X118465241Y-113185363D01*
X118265363Y-113385241D01*
X118108320Y-113620273D01*
X118000147Y-113881426D01*
X117945000Y-114158665D01*
X117945000Y-114441335D01*
X118000147Y-114718574D01*
X118108320Y-114979727D01*
X118265363Y-115214759D01*
X118465241Y-115414637D01*
X118697759Y-115570000D01*
X118465241Y-115725363D01*
X118265363Y-115925241D01*
X118108320Y-116160273D01*
X118000147Y-116421426D01*
X117945000Y-116698665D01*
X117945000Y-116981335D01*
X118000147Y-117258574D01*
X118108320Y-117519727D01*
X118265363Y-117754759D01*
X118465241Y-117954637D01*
X118700273Y-118111680D01*
X118710865Y-118116067D01*
X118524869Y-118227615D01*
X118316481Y-118416586D01*
X118148963Y-118642580D01*
X118028754Y-118896913D01*
X117988096Y-119030961D01*
X118110085Y-119253000D01*
X119253000Y-119253000D01*
X119253000Y-119233000D01*
X119507000Y-119233000D01*
X119507000Y-119253000D01*
X120649915Y-119253000D01*
X120771904Y-119030961D01*
X120731246Y-118896913D01*
X120611037Y-118642580D01*
X120443519Y-118416586D01*
X120235131Y-118227615D01*
X120049135Y-118116067D01*
X120059727Y-118111680D01*
X120294759Y-117954637D01*
X120494637Y-117754759D01*
X120651680Y-117519727D01*
X120759853Y-117258574D01*
X120815000Y-116981335D01*
X120815000Y-116698665D01*
X120759853Y-116421426D01*
X120651680Y-116160273D01*
X120494637Y-115925241D01*
X120294759Y-115725363D01*
X120062241Y-115570000D01*
X120294759Y-115414637D01*
X120494637Y-115214759D01*
X120651680Y-114979727D01*
X120759853Y-114718574D01*
X120815000Y-114441335D01*
X120815000Y-114158665D01*
X120759853Y-113881426D01*
X120651680Y-113620273D01*
X120494637Y-113385241D01*
X120294759Y-113185363D01*
X120062241Y-113030000D01*
X120294759Y-112874637D01*
X120494637Y-112674759D01*
X120650978Y-112440777D01*
X125114999Y-116904799D01*
X125115000Y-118217667D01*
X125111323Y-118254999D01*
X125115000Y-118292332D01*
X125125997Y-118403985D01*
X125134910Y-118433368D01*
X125169453Y-118547245D01*
X125240025Y-118679275D01*
X125311200Y-118766001D01*
X125334999Y-118795000D01*
X125363997Y-118818798D01*
X125601312Y-119056113D01*
X125565000Y-119238665D01*
X125565000Y-119521335D01*
X125620147Y-119798574D01*
X125728320Y-120059727D01*
X125885363Y-120294759D01*
X126085241Y-120494637D01*
X126320273Y-120651680D01*
X126581426Y-120759853D01*
X126858665Y-120815000D01*
X127141335Y-120815000D01*
X127418574Y-120759853D01*
X127679727Y-120651680D01*
X127914759Y-120494637D01*
X128114637Y-120294759D01*
X128271680Y-120059727D01*
X128379853Y-119798574D01*
X128393684Y-119729039D01*
X129418096Y-119729039D01*
X129458754Y-119863087D01*
X129578963Y-120117420D01*
X129746481Y-120343414D01*
X129954869Y-120532385D01*
X130196119Y-120677070D01*
X130460960Y-120771909D01*
X130683000Y-120650624D01*
X130683000Y-119507000D01*
X130937000Y-119507000D01*
X130937000Y-120650624D01*
X131159040Y-120771909D01*
X131423881Y-120677070D01*
X131665131Y-120532385D01*
X131873519Y-120343414D01*
X132041037Y-120117420D01*
X132161246Y-119863087D01*
X132201904Y-119729039D01*
X132079915Y-119507000D01*
X130937000Y-119507000D01*
X130683000Y-119507000D01*
X129540085Y-119507000D01*
X129418096Y-119729039D01*
X128393684Y-119729039D01*
X128435000Y-119521335D01*
X128435000Y-119238665D01*
X128379853Y-118961426D01*
X128271680Y-118700273D01*
X128114637Y-118465241D01*
X127914759Y-118265363D01*
X127682241Y-118110000D01*
X127914759Y-117954637D01*
X128114637Y-117754759D01*
X128271680Y-117519727D01*
X128379853Y-117258574D01*
X128435000Y-116981335D01*
X128435000Y-116698665D01*
X128379853Y-116421426D01*
X128271680Y-116160273D01*
X128114637Y-115925241D01*
X127914759Y-115725363D01*
X127682241Y-115570000D01*
X127914759Y-115414637D01*
X128114637Y-115214759D01*
X128271680Y-114979727D01*
X128379853Y-114718574D01*
X128435000Y-114441335D01*
X128435000Y-114158665D01*
X128379853Y-113881426D01*
X128271680Y-113620273D01*
X128114637Y-113385241D01*
X127914759Y-113185363D01*
X127682241Y-113030000D01*
X127914759Y-112874637D01*
X128114637Y-112674759D01*
X128218043Y-112520000D01*
X128232678Y-112520000D01*
X128270000Y-112523676D01*
X128307322Y-112520000D01*
X128307333Y-112520000D01*
X128418986Y-112509003D01*
X128562247Y-112465546D01*
X128694276Y-112394974D01*
X128810001Y-112300001D01*
X128833804Y-112270997D01*
X129375000Y-111729801D01*
X129375000Y-111901335D01*
X129430147Y-112178574D01*
X129538320Y-112439727D01*
X129695363Y-112674759D01*
X129895241Y-112874637D01*
X130127759Y-113030000D01*
X129895241Y-113185363D01*
X129695363Y-113385241D01*
X129538320Y-113620273D01*
X129430147Y-113881426D01*
X129375000Y-114158665D01*
X129375000Y-114441335D01*
X129430147Y-114718574D01*
X129538320Y-114979727D01*
X129695363Y-115214759D01*
X129895241Y-115414637D01*
X130127759Y-115570000D01*
X129895241Y-115725363D01*
X129695363Y-115925241D01*
X129538320Y-116160273D01*
X129430147Y-116421426D01*
X129375000Y-116698665D01*
X129375000Y-116981335D01*
X129430147Y-117258574D01*
X129538320Y-117519727D01*
X129695363Y-117754759D01*
X129895241Y-117954637D01*
X130130273Y-118111680D01*
X130140865Y-118116067D01*
X129954869Y-118227615D01*
X129746481Y-118416586D01*
X129578963Y-118642580D01*
X129458754Y-118896913D01*
X129418096Y-119030961D01*
X129540085Y-119253000D01*
X130683000Y-119253000D01*
X130683000Y-119233000D01*
X130937000Y-119233000D01*
X130937000Y-119253000D01*
X132079915Y-119253000D01*
X132201904Y-119030961D01*
X132161246Y-118896913D01*
X132041037Y-118642580D01*
X131873519Y-118416586D01*
X131665131Y-118227615D01*
X131479135Y-118116067D01*
X131489727Y-118111680D01*
X131724759Y-117954637D01*
X131924637Y-117754759D01*
X132081680Y-117519727D01*
X132189853Y-117258574D01*
X132245000Y-116981335D01*
X132245000Y-116698665D01*
X132208688Y-116516113D01*
X136995000Y-111729802D01*
X136995000Y-111901335D01*
X137050147Y-112178574D01*
X137158320Y-112439727D01*
X137315363Y-112674759D01*
X137515241Y-112874637D01*
X137747759Y-113030000D01*
X137515241Y-113185363D01*
X137315363Y-113385241D01*
X137158320Y-113620273D01*
X137050147Y-113881426D01*
X136995000Y-114158665D01*
X136995000Y-114441335D01*
X137050147Y-114718574D01*
X137158320Y-114979727D01*
X137315363Y-115214759D01*
X137515241Y-115414637D01*
X137747759Y-115570000D01*
X137515241Y-115725363D01*
X137315363Y-115925241D01*
X137158320Y-116160273D01*
X137050147Y-116421426D01*
X136995000Y-116698665D01*
X136995000Y-116981335D01*
X137050147Y-117258574D01*
X137158320Y-117519727D01*
X137315363Y-117754759D01*
X137515241Y-117954637D01*
X137747759Y-118110000D01*
X137515241Y-118265363D01*
X137315363Y-118465241D01*
X137158320Y-118700273D01*
X137050147Y-118961426D01*
X136995000Y-119238665D01*
X136995000Y-119521335D01*
X137050147Y-119798574D01*
X137158320Y-120059727D01*
X137315363Y-120294759D01*
X137515241Y-120494637D01*
X137750273Y-120651680D01*
X138011426Y-120759853D01*
X138288665Y-120815000D01*
X138571335Y-120815000D01*
X138848574Y-120759853D01*
X139109727Y-120651680D01*
X139344759Y-120494637D01*
X139544637Y-120294759D01*
X139701680Y-120059727D01*
X139809853Y-119798574D01*
X139865000Y-119521335D01*
X139865000Y-119238665D01*
X139809853Y-118961426D01*
X139701680Y-118700273D01*
X139544637Y-118465241D01*
X139344759Y-118265363D01*
X139112241Y-118110000D01*
X139344759Y-117954637D01*
X139544637Y-117754759D01*
X139701680Y-117519727D01*
X139809853Y-117258574D01*
X139865000Y-116981335D01*
X139865000Y-116698665D01*
X139809853Y-116421426D01*
X139701680Y-116160273D01*
X139544637Y-115925241D01*
X139344759Y-115725363D01*
X139112241Y-115570000D01*
X139344759Y-115414637D01*
X139544637Y-115214759D01*
X139701680Y-114979727D01*
X139809853Y-114718574D01*
X139865000Y-114441335D01*
X139865000Y-114158665D01*
X139809853Y-113881426D01*
X139701680Y-113620273D01*
X139544637Y-113385241D01*
X139344759Y-113185363D01*
X139112241Y-113030000D01*
X139344759Y-112874637D01*
X139544637Y-112674759D01*
X139701680Y-112439727D01*
X139809853Y-112178574D01*
X139865000Y-111901335D01*
X139865000Y-111618665D01*
X139809853Y-111341426D01*
X139701680Y-111080273D01*
X139544637Y-110845241D01*
X139344759Y-110645363D01*
X139112241Y-110490000D01*
X139344759Y-110334637D01*
X139544637Y-110134759D01*
X139701680Y-109899727D01*
X139809853Y-109638574D01*
X139865000Y-109361335D01*
X139865000Y-109078665D01*
X139809853Y-108801426D01*
X139701680Y-108540273D01*
X139544637Y-108305241D01*
X139344759Y-108105363D01*
X139112241Y-107950000D01*
X139344759Y-107794637D01*
X139544637Y-107594759D01*
X139701680Y-107359727D01*
X139809853Y-107098574D01*
X139865000Y-106821335D01*
X139865000Y-106538665D01*
X139809853Y-106261426D01*
X139701680Y-106000273D01*
X139544637Y-105765241D01*
X139344759Y-105565363D01*
X139112241Y-105410000D01*
X139344759Y-105254637D01*
X139544637Y-105054759D01*
X139701680Y-104819727D01*
X139809853Y-104558574D01*
X139865000Y-104281335D01*
X139865000Y-103998665D01*
X139809853Y-103721426D01*
X139701680Y-103460273D01*
X139544637Y-103225241D01*
X139344759Y-103025363D01*
X139109727Y-102868320D01*
X138848574Y-102760147D01*
X138571335Y-102705000D01*
X138288665Y-102705000D01*
X138064999Y-102749491D01*
X138064999Y-95037319D01*
X138068675Y-94999996D01*
X138064999Y-94962673D01*
X138064999Y-94962664D01*
X138054002Y-94851011D01*
X138010545Y-94707750D01*
X137939973Y-94575721D01*
X137845000Y-94459996D01*
X137816002Y-94436198D01*
X135734600Y-92354796D01*
X135734637Y-92354759D01*
X135891680Y-92119727D01*
X135999853Y-91858574D01*
X136055000Y-91581335D01*
X136055000Y-91298665D01*
X135999853Y-91021426D01*
X135891680Y-90760273D01*
X135734637Y-90525241D01*
X135534759Y-90325363D01*
X135302241Y-90170000D01*
X135534759Y-90014637D01*
X135734637Y-89814759D01*
X135891680Y-89579727D01*
X135999853Y-89318574D01*
X136055000Y-89041335D01*
X136055000Y-88758665D01*
X135999853Y-88481426D01*
X135891680Y-88220273D01*
X135734637Y-87985241D01*
X135534759Y-87785363D01*
X135302241Y-87630000D01*
X135534759Y-87474637D01*
X135734637Y-87274759D01*
X135891680Y-87039727D01*
X135999853Y-86778574D01*
X136055000Y-86501335D01*
X136055000Y-86218665D01*
X135999853Y-85941426D01*
X135891680Y-85680273D01*
X135734637Y-85445241D01*
X135534759Y-85245363D01*
X135302241Y-85090000D01*
X135534759Y-84934637D01*
X135734637Y-84734759D01*
X135891680Y-84499727D01*
X135999853Y-84238574D01*
X136055000Y-83961335D01*
X136055000Y-83678665D01*
X138265000Y-83678665D01*
X138265000Y-83961335D01*
X138320147Y-84238574D01*
X138428320Y-84499727D01*
X138585363Y-84734759D01*
X138785241Y-84934637D01*
X139020273Y-85091680D01*
X139281426Y-85199853D01*
X139558665Y-85255000D01*
X139841335Y-85255000D01*
X140118574Y-85199853D01*
X140379727Y-85091680D01*
X140614759Y-84934637D01*
X140814637Y-84734759D01*
X140971680Y-84499727D01*
X141079853Y-84238574D01*
X141135000Y-83961335D01*
X141135000Y-83678665D01*
X142075000Y-83678665D01*
X142075000Y-83961335D01*
X142130147Y-84238574D01*
X142238320Y-84499727D01*
X142395363Y-84734759D01*
X142595241Y-84934637D01*
X142830273Y-85091680D01*
X143091426Y-85199853D01*
X143368665Y-85255000D01*
X143651335Y-85255000D01*
X143928574Y-85199853D01*
X144189727Y-85091680D01*
X144424759Y-84934637D01*
X144624637Y-84734759D01*
X144781680Y-84499727D01*
X144889853Y-84238574D01*
X144945000Y-83961335D01*
X144945000Y-83678665D01*
X144889853Y-83401426D01*
X144781680Y-83140273D01*
X144624637Y-82905241D01*
X144424759Y-82705363D01*
X144189727Y-82548320D01*
X143928574Y-82440147D01*
X143651335Y-82385000D01*
X143368665Y-82385000D01*
X143091426Y-82440147D01*
X142830273Y-82548320D01*
X142595241Y-82705363D01*
X142395363Y-82905241D01*
X142238320Y-83140273D01*
X142130147Y-83401426D01*
X142075000Y-83678665D01*
X141135000Y-83678665D01*
X141079853Y-83401426D01*
X140971680Y-83140273D01*
X140814637Y-82905241D01*
X140614759Y-82705363D01*
X140379727Y-82548320D01*
X140118574Y-82440147D01*
X139841335Y-82385000D01*
X139558665Y-82385000D01*
X139281426Y-82440147D01*
X139020273Y-82548320D01*
X138785241Y-82705363D01*
X138585363Y-82905241D01*
X138428320Y-83140273D01*
X138320147Y-83401426D01*
X138265000Y-83678665D01*
X136055000Y-83678665D01*
X135999853Y-83401426D01*
X135891680Y-83140273D01*
X135734637Y-82905241D01*
X135534759Y-82705363D01*
X135302241Y-82550000D01*
X135534759Y-82394637D01*
X135734637Y-82194759D01*
X135891680Y-81959727D01*
X135999853Y-81698574D01*
X136055000Y-81421335D01*
X136055000Y-81138665D01*
X135999853Y-80861426D01*
X135891680Y-80600273D01*
X135734637Y-80365241D01*
X135534759Y-80165363D01*
X135302241Y-80010000D01*
X135534759Y-79854637D01*
X135734637Y-79654759D01*
X135891680Y-79419727D01*
X135999853Y-79158574D01*
X136055000Y-78881335D01*
X136055000Y-78598665D01*
X135999853Y-78321426D01*
X135891680Y-78060273D01*
X135734637Y-77825241D01*
X135534759Y-77625363D01*
X135302241Y-77470000D01*
X135534759Y-77314637D01*
X135734637Y-77114759D01*
X135891680Y-76879727D01*
X135999853Y-76618574D01*
X136055000Y-76341335D01*
X136055000Y-76058665D01*
X138265000Y-76058665D01*
X138265000Y-76341335D01*
X138320147Y-76618574D01*
X138428320Y-76879727D01*
X138585363Y-77114759D01*
X138785241Y-77314637D01*
X139020273Y-77471680D01*
X139281426Y-77579853D01*
X139558665Y-77635000D01*
X139841335Y-77635000D01*
X140118574Y-77579853D01*
X140379727Y-77471680D01*
X140614759Y-77314637D01*
X140814637Y-77114759D01*
X140971680Y-76879727D01*
X141079853Y-76618574D01*
X141135000Y-76341335D01*
X141135000Y-76058665D01*
X142075000Y-76058665D01*
X142075000Y-76341335D01*
X142130147Y-76618574D01*
X142238320Y-76879727D01*
X142395363Y-77114759D01*
X142595241Y-77314637D01*
X142830273Y-77471680D01*
X143091426Y-77579853D01*
X143368665Y-77635000D01*
X143651335Y-77635000D01*
X143928574Y-77579853D01*
X144189727Y-77471680D01*
X144424759Y-77314637D01*
X144624637Y-77114759D01*
X144781680Y-76879727D01*
X144889853Y-76618574D01*
X144945000Y-76341335D01*
X144945000Y-76058665D01*
X144889853Y-75781426D01*
X144781680Y-75520273D01*
X144624637Y-75285241D01*
X144424759Y-75085363D01*
X144189727Y-74928320D01*
X143928574Y-74820147D01*
X143651335Y-74765000D01*
X143368665Y-74765000D01*
X143091426Y-74820147D01*
X142830273Y-74928320D01*
X142595241Y-75085363D01*
X142395363Y-75285241D01*
X142238320Y-75520273D01*
X142130147Y-75781426D01*
X142075000Y-76058665D01*
X141135000Y-76058665D01*
X141079853Y-75781426D01*
X140971680Y-75520273D01*
X140814637Y-75285241D01*
X140614759Y-75085363D01*
X140379727Y-74928320D01*
X140118574Y-74820147D01*
X139841335Y-74765000D01*
X139558665Y-74765000D01*
X139281426Y-74820147D01*
X139020273Y-74928320D01*
X138785241Y-75085363D01*
X138585363Y-75285241D01*
X138428320Y-75520273D01*
X138320147Y-75781426D01*
X138265000Y-76058665D01*
X136055000Y-76058665D01*
X135999853Y-75781426D01*
X135891680Y-75520273D01*
X135734637Y-75285241D01*
X135534759Y-75085363D01*
X135299727Y-74928320D01*
X135289135Y-74923933D01*
X135475131Y-74812385D01*
X135683519Y-74623414D01*
X135851037Y-74397420D01*
X135971246Y-74143087D01*
X136011904Y-74009039D01*
X135889915Y-73787000D01*
X134747000Y-73787000D01*
X134747000Y-73807000D01*
X134493000Y-73807000D01*
X134493000Y-73787000D01*
X133350085Y-73787000D01*
X133228096Y-74009039D01*
X133268754Y-74143087D01*
X133388963Y-74397420D01*
X133556481Y-74623414D01*
X133764869Y-74812385D01*
X133950865Y-74923933D01*
X133940273Y-74928320D01*
X133705241Y-75085363D01*
X133505363Y-75285241D01*
X133348320Y-75520273D01*
X133240147Y-75781426D01*
X133185000Y-76058665D01*
X133185000Y-76341335D01*
X133240147Y-76618574D01*
X133348320Y-76879727D01*
X133505363Y-77114759D01*
X133705241Y-77314637D01*
X133937759Y-77470000D01*
X133705241Y-77625363D01*
X133505363Y-77825241D01*
X133348320Y-78060273D01*
X133240147Y-78321426D01*
X133185000Y-78598665D01*
X133185000Y-78881335D01*
X133240147Y-79158574D01*
X133348320Y-79419727D01*
X133505363Y-79654759D01*
X133705241Y-79854637D01*
X133937759Y-80010000D01*
X133705241Y-80165363D01*
X133505363Y-80365241D01*
X133348320Y-80600273D01*
X133240147Y-80861426D01*
X133185000Y-81138665D01*
X133185000Y-81421335D01*
X133240147Y-81698574D01*
X133348320Y-81959727D01*
X133505363Y-82194759D01*
X133705241Y-82394637D01*
X133937759Y-82550000D01*
X133705241Y-82705363D01*
X133505363Y-82905241D01*
X133348320Y-83140273D01*
X133240147Y-83401426D01*
X133185000Y-83678665D01*
X133185000Y-83961335D01*
X133240147Y-84238574D01*
X133348320Y-84499727D01*
X133505363Y-84734759D01*
X133705241Y-84934637D01*
X133937759Y-85090000D01*
X133705241Y-85245363D01*
X133505363Y-85445241D01*
X133348320Y-85680273D01*
X133240147Y-85941426D01*
X133185000Y-86218665D01*
X133185000Y-86501335D01*
X133240147Y-86778574D01*
X133348320Y-87039727D01*
X133505363Y-87274759D01*
X133705241Y-87474637D01*
X133937759Y-87630000D01*
X133705241Y-87785363D01*
X133505363Y-87985241D01*
X133348320Y-88220273D01*
X133240147Y-88481426D01*
X133185000Y-88758665D01*
X133185000Y-89041335D01*
X133240147Y-89318574D01*
X133348320Y-89579727D01*
X133505363Y-89814759D01*
X133705241Y-90014637D01*
X133937759Y-90170000D01*
X133705241Y-90325363D01*
X133505363Y-90525241D01*
X133349022Y-90759222D01*
X131373804Y-88784005D01*
X131350001Y-88755001D01*
X131234276Y-88660028D01*
X131102247Y-88589456D01*
X130958986Y-88545999D01*
X130847333Y-88535002D01*
X130847322Y-88535002D01*
X130810000Y-88531326D01*
X130772678Y-88535002D01*
X126699089Y-88535002D01*
X126647205Y-88409744D01*
X126533937Y-88240226D01*
X126389774Y-88096063D01*
X126220256Y-87982795D01*
X126031898Y-87904774D01*
X125831939Y-87865000D01*
X125628061Y-87865000D01*
X125428102Y-87904774D01*
X125239744Y-87982795D01*
X125070226Y-88096063D01*
X124926063Y-88240226D01*
X124812795Y-88409744D01*
X124734774Y-88598102D01*
X124695000Y-88798061D01*
X124695000Y-89001939D01*
X124734774Y-89201898D01*
X124812795Y-89390256D01*
X124926063Y-89559774D01*
X125070226Y-89703937D01*
X125239744Y-89817205D01*
X125428102Y-89895226D01*
X125628061Y-89935000D01*
X125710125Y-89935000D01*
X125832755Y-90000548D01*
X125976016Y-90044005D01*
X126087669Y-90055002D01*
X126087678Y-90055002D01*
X126125001Y-90058678D01*
X126162324Y-90055002D01*
X130495199Y-90055002D01*
X133505400Y-93065204D01*
X133505363Y-93065241D01*
X133348320Y-93300273D01*
X133240147Y-93561426D01*
X133185000Y-93838665D01*
X133185000Y-94121335D01*
X133240147Y-94398574D01*
X133348320Y-94659727D01*
X133505363Y-94894759D01*
X133705241Y-95094637D01*
X133937759Y-95250000D01*
X133705241Y-95405363D01*
X133505363Y-95605241D01*
X133348320Y-95840273D01*
X133240147Y-96101426D01*
X133185000Y-96378665D01*
X133185000Y-96661335D01*
X133240147Y-96938574D01*
X133348320Y-97199727D01*
X133505363Y-97434759D01*
X133705241Y-97634637D01*
X133937759Y-97790000D01*
X133705241Y-97945363D01*
X133505363Y-98145241D01*
X133348320Y-98380273D01*
X133240147Y-98641426D01*
X133185000Y-98918665D01*
X133185000Y-99201335D01*
X133221312Y-99383886D01*
X131765199Y-100840000D01*
X117744013Y-100840000D01*
X117757205Y-100820256D01*
X117835226Y-100631898D01*
X117875000Y-100431939D01*
X117875000Y-100228061D01*
X117835226Y-100028102D01*
X117757205Y-99839744D01*
X117643937Y-99670226D01*
X117600000Y-99626289D01*
X117600000Y-94294801D01*
X117945000Y-93949801D01*
X117945000Y-94121335D01*
X118000147Y-94398574D01*
X118108320Y-94659727D01*
X118265363Y-94894759D01*
X118465241Y-95094637D01*
X118697759Y-95250000D01*
X118465241Y-95405363D01*
X118265363Y-95605241D01*
X118108320Y-95840273D01*
X118000147Y-96101426D01*
X117945000Y-96378665D01*
X117945000Y-96661335D01*
X118000147Y-96938574D01*
X118108320Y-97199727D01*
X118265363Y-97434759D01*
X118465241Y-97634637D01*
X118697759Y-97790000D01*
X118465241Y-97945363D01*
X118265363Y-98145241D01*
X118108320Y-98380273D01*
X118000147Y-98641426D01*
X117945000Y-98918665D01*
X117945000Y-99201335D01*
X118000147Y-99478574D01*
X118108320Y-99739727D01*
X118265363Y-99974759D01*
X118465241Y-100174637D01*
X118700273Y-100331680D01*
X118961426Y-100439853D01*
X119238665Y-100495000D01*
X119521335Y-100495000D01*
X119798574Y-100439853D01*
X120059727Y-100331680D01*
X120294759Y-100174637D01*
X120494637Y-99974759D01*
X120651680Y-99739727D01*
X120759853Y-99478574D01*
X120815000Y-99201335D01*
X120815000Y-98918665D01*
X120778688Y-98736113D01*
X123701003Y-95813799D01*
X123730001Y-95790001D01*
X123824974Y-95674276D01*
X123895546Y-95542247D01*
X123939003Y-95398986D01*
X123950000Y-95287333D01*
X123950000Y-95287325D01*
X123953676Y-95250000D01*
X123950000Y-95212675D01*
X123950000Y-93878061D01*
X124695000Y-93878061D01*
X124695000Y-94081939D01*
X124734774Y-94281898D01*
X124812795Y-94470256D01*
X124926063Y-94639774D01*
X125070226Y-94783937D01*
X125239744Y-94897205D01*
X125428102Y-94975226D01*
X125628061Y-95015000D01*
X125690199Y-95015000D01*
X126436201Y-95761003D01*
X126459999Y-95790001D01*
X126575724Y-95884974D01*
X126707753Y-95955546D01*
X126851014Y-95999003D01*
X126962667Y-96010000D01*
X126962676Y-96010000D01*
X126999999Y-96013676D01*
X127037322Y-96010000D01*
X131376289Y-96010000D01*
X131420226Y-96053937D01*
X131589744Y-96167205D01*
X131778102Y-96245226D01*
X131978061Y-96285000D01*
X132181939Y-96285000D01*
X132381898Y-96245226D01*
X132570256Y-96167205D01*
X132739774Y-96053937D01*
X132883937Y-95909774D01*
X132997205Y-95740256D01*
X133075226Y-95551898D01*
X133115000Y-95351939D01*
X133115000Y-95148061D01*
X133075226Y-94948102D01*
X132997205Y-94759744D01*
X132883937Y-94590226D01*
X132739774Y-94446063D01*
X132570256Y-94332795D01*
X132381898Y-94254774D01*
X132181939Y-94215000D01*
X131978061Y-94215000D01*
X131778102Y-94254774D01*
X131589744Y-94332795D01*
X131420226Y-94446063D01*
X131376289Y-94490000D01*
X127314802Y-94490000D01*
X126765000Y-93940199D01*
X126765000Y-93878061D01*
X126725226Y-93678102D01*
X126647205Y-93489744D01*
X126533937Y-93320226D01*
X126389774Y-93176063D01*
X126220256Y-93062795D01*
X126031898Y-92984774D01*
X125831939Y-92945000D01*
X125628061Y-92945000D01*
X125428102Y-92984774D01*
X125239744Y-93062795D01*
X125070226Y-93176063D01*
X124926063Y-93320226D01*
X124812795Y-93489744D01*
X124734774Y-93678102D01*
X124695000Y-93878061D01*
X123950000Y-93878061D01*
X123950000Y-71469039D01*
X133228096Y-71469039D01*
X133268754Y-71603087D01*
X133388963Y-71857420D01*
X133556481Y-72083414D01*
X133764869Y-72272385D01*
X133960982Y-72390000D01*
X133764869Y-72507615D01*
X133556481Y-72696586D01*
X133388963Y-72922580D01*
X133268754Y-73176913D01*
X133228096Y-73310961D01*
X133350085Y-73533000D01*
X134493000Y-73533000D01*
X134493000Y-71247000D01*
X134747000Y-71247000D01*
X134747000Y-73533000D01*
X135889915Y-73533000D01*
X136011904Y-73310961D01*
X135971246Y-73176913D01*
X135851037Y-72922580D01*
X135683519Y-72696586D01*
X135475131Y-72507615D01*
X135279018Y-72390000D01*
X135475131Y-72272385D01*
X135683519Y-72083414D01*
X135851037Y-71857420D01*
X135971246Y-71603087D01*
X136011904Y-71469039D01*
X135889915Y-71247000D01*
X134747000Y-71247000D01*
X134493000Y-71247000D01*
X133350085Y-71247000D01*
X133228096Y-71469039D01*
X123950000Y-71469039D01*
X123950000Y-70770961D01*
X133228096Y-70770961D01*
X133350085Y-70993000D01*
X134493000Y-70993000D01*
X134493000Y-69849376D01*
X134747000Y-69849376D01*
X134747000Y-70993000D01*
X135889915Y-70993000D01*
X136011904Y-70770961D01*
X135971246Y-70636913D01*
X135851037Y-70382580D01*
X135683519Y-70156586D01*
X135475131Y-69967615D01*
X135233881Y-69822930D01*
X134969040Y-69728091D01*
X134747000Y-69849376D01*
X134493000Y-69849376D01*
X134270960Y-69728091D01*
X134006119Y-69822930D01*
X133764869Y-69967615D01*
X133556481Y-70156586D01*
X133388963Y-70382580D01*
X133268754Y-70636913D01*
X133228096Y-70770961D01*
X123950000Y-70770961D01*
X123950000Y-62267323D01*
X123953676Y-62230000D01*
X123950000Y-62192677D01*
X123950000Y-62192667D01*
X123939003Y-62081014D01*
X123895546Y-61937753D01*
X123824974Y-61805724D01*
X123730001Y-61689999D01*
X123701004Y-61666202D01*
X122773072Y-60738271D01*
X122773072Y-59475000D01*
X122760812Y-59350518D01*
X122724502Y-59230820D01*
X122665537Y-59120506D01*
X122586185Y-59023815D01*
X122489494Y-58944463D01*
X122379180Y-58885498D01*
X122259482Y-58849188D01*
X122135000Y-58836928D01*
X120435000Y-58836928D01*
X120310518Y-58849188D01*
X120190820Y-58885498D01*
X120080506Y-58944463D01*
X119983815Y-59023815D01*
X119904463Y-59120506D01*
X119845498Y-59230820D01*
X119809188Y-59350518D01*
X119796928Y-59475000D01*
X119796928Y-61175000D01*
X119809188Y-61299482D01*
X119845498Y-61419180D01*
X119904463Y-61529494D01*
X119983815Y-61626185D01*
X120080506Y-61705537D01*
X120190820Y-61764502D01*
X120263380Y-61786513D01*
X120131525Y-61918368D01*
X119969010Y-62161589D01*
X119857068Y-62431842D01*
X119800000Y-62718740D01*
X119800000Y-63011260D01*
X119857068Y-63298158D01*
X119969010Y-63568411D01*
X120131525Y-63811632D01*
X120338368Y-64018475D01*
X120581589Y-64180990D01*
X120851842Y-64292932D01*
X121138740Y-64350000D01*
X121431260Y-64350000D01*
X121718158Y-64292932D01*
X121988411Y-64180990D01*
X122231632Y-64018475D01*
X122430000Y-63820107D01*
X122430001Y-94935197D01*
X120815000Y-96550198D01*
X120815000Y-96378665D01*
X120759853Y-96101426D01*
X120651680Y-95840273D01*
X120494637Y-95605241D01*
X120294759Y-95405363D01*
X120062241Y-95250000D01*
X120294759Y-95094637D01*
X120494637Y-94894759D01*
X120651680Y-94659727D01*
X120759853Y-94398574D01*
X120815000Y-94121335D01*
X120815000Y-93838665D01*
X120759853Y-93561426D01*
X120651680Y-93300273D01*
X120494637Y-93065241D01*
X120294759Y-92865363D01*
X120062241Y-92710000D01*
X120294759Y-92554637D01*
X120494637Y-92354759D01*
X120651680Y-92119727D01*
X120759853Y-91858574D01*
X120815000Y-91581335D01*
X120815000Y-91298665D01*
X120759853Y-91021426D01*
X120651680Y-90760273D01*
X120494637Y-90525241D01*
X120294759Y-90325363D01*
X120062241Y-90170000D01*
X120294759Y-90014637D01*
X120494637Y-89814759D01*
X120651680Y-89579727D01*
X120759853Y-89318574D01*
X120815000Y-89041335D01*
X120815000Y-88758665D01*
X120759853Y-88481426D01*
X120651680Y-88220273D01*
X120494637Y-87985241D01*
X120294759Y-87785363D01*
X120062241Y-87630000D01*
X120294759Y-87474637D01*
X120494637Y-87274759D01*
X120651680Y-87039727D01*
X120759853Y-86778574D01*
X120815000Y-86501335D01*
X120815000Y-86218665D01*
X120759853Y-85941426D01*
X120651680Y-85680273D01*
X120494637Y-85445241D01*
X120294759Y-85245363D01*
X120062241Y-85090000D01*
X120294759Y-84934637D01*
X120494637Y-84734759D01*
X120651680Y-84499727D01*
X120759853Y-84238574D01*
X120815000Y-83961335D01*
X120815000Y-83678665D01*
X120759853Y-83401426D01*
X120651680Y-83140273D01*
X120494637Y-82905241D01*
X120294759Y-82705363D01*
X120062241Y-82550000D01*
X120294759Y-82394637D01*
X120494637Y-82194759D01*
X120651680Y-81959727D01*
X120759853Y-81698574D01*
X120815000Y-81421335D01*
X120815000Y-81138665D01*
X120759853Y-80861426D01*
X120651680Y-80600273D01*
X120494637Y-80365241D01*
X120294759Y-80165363D01*
X120062241Y-80010000D01*
X120294759Y-79854637D01*
X120494637Y-79654759D01*
X120651680Y-79419727D01*
X120759853Y-79158574D01*
X120815000Y-78881335D01*
X120815000Y-78598665D01*
X120759853Y-78321426D01*
X120651680Y-78060273D01*
X120494637Y-77825241D01*
X120294759Y-77625363D01*
X120140000Y-77521957D01*
X120140000Y-77418043D01*
X120294759Y-77314637D01*
X120494637Y-77114759D01*
X120651680Y-76879727D01*
X120759853Y-76618574D01*
X120815000Y-76341335D01*
X120815000Y-76058665D01*
X120759853Y-75781426D01*
X120651680Y-75520273D01*
X120494637Y-75285241D01*
X120294759Y-75085363D01*
X120062241Y-74930000D01*
X120294759Y-74774637D01*
X120494637Y-74574759D01*
X120651680Y-74339727D01*
X120759853Y-74078574D01*
X120815000Y-73801335D01*
X120815000Y-73518665D01*
X120759853Y-73241426D01*
X120651680Y-72980273D01*
X120494637Y-72745241D01*
X120296039Y-72546643D01*
X120304482Y-72545812D01*
X120424180Y-72509502D01*
X120534494Y-72450537D01*
X120631185Y-72371185D01*
X120710537Y-72274494D01*
X120769502Y-72164180D01*
X120805812Y-72044482D01*
X120818072Y-71920000D01*
X120815000Y-71405750D01*
X120656250Y-71247000D01*
X119507000Y-71247000D01*
X119507000Y-71267000D01*
X119253000Y-71267000D01*
X119253000Y-71247000D01*
X118103750Y-71247000D01*
X117945000Y-71405750D01*
X117941928Y-71920000D01*
X117954188Y-72044482D01*
X117990498Y-72164180D01*
X118049463Y-72274494D01*
X118128815Y-72371185D01*
X118225506Y-72450537D01*
X118335820Y-72509502D01*
X118455518Y-72545812D01*
X118463961Y-72546643D01*
X118265363Y-72745241D01*
X118108320Y-72980273D01*
X118000147Y-73241426D01*
X117945000Y-73518665D01*
X117945000Y-73690199D01*
X117455001Y-73200200D01*
X117455001Y-70320000D01*
X117941928Y-70320000D01*
X117945000Y-70834250D01*
X118103750Y-70993000D01*
X119253000Y-70993000D01*
X119253000Y-69843750D01*
X119507000Y-69843750D01*
X119507000Y-70993000D01*
X120656250Y-70993000D01*
X120815000Y-70834250D01*
X120818072Y-70320000D01*
X120805812Y-70195518D01*
X120769502Y-70075820D01*
X120710537Y-69965506D01*
X120631185Y-69868815D01*
X120534494Y-69789463D01*
X120424180Y-69730498D01*
X120304482Y-69694188D01*
X120180000Y-69681928D01*
X119665750Y-69685000D01*
X119507000Y-69843750D01*
X119253000Y-69843750D01*
X119094250Y-69685000D01*
X118580000Y-69681928D01*
X118455518Y-69694188D01*
X118335820Y-69730498D01*
X118225506Y-69789463D01*
X118128815Y-69868815D01*
X118049463Y-69965506D01*
X117990498Y-70075820D01*
X117954188Y-70195518D01*
X117941928Y-70320000D01*
X117455001Y-70320000D01*
X117455001Y-67202334D01*
X117458678Y-67165001D01*
X117444004Y-67016015D01*
X117400547Y-66872754D01*
X117329975Y-66740725D01*
X117258800Y-66653998D01*
X117235002Y-66625000D01*
X117206004Y-66601202D01*
X112693467Y-62088665D01*
X114135000Y-62088665D01*
X114135000Y-62371335D01*
X114190147Y-62648574D01*
X114298320Y-62909727D01*
X114455363Y-63144759D01*
X114655241Y-63344637D01*
X114890273Y-63501680D01*
X115151426Y-63609853D01*
X115428665Y-63665000D01*
X115711335Y-63665000D01*
X115988574Y-63609853D01*
X116249727Y-63501680D01*
X116484759Y-63344637D01*
X116684637Y-63144759D01*
X116841680Y-62909727D01*
X116949853Y-62648574D01*
X117005000Y-62371335D01*
X117005000Y-62088665D01*
X116949853Y-61811426D01*
X116841680Y-61550273D01*
X116684637Y-61315241D01*
X116484759Y-61115363D01*
X116249727Y-60958320D01*
X115988574Y-60850147D01*
X115711335Y-60795000D01*
X115428665Y-60795000D01*
X115151426Y-60850147D01*
X114890273Y-60958320D01*
X114655241Y-61115363D01*
X114455363Y-61315241D01*
X114298320Y-61550273D01*
X114190147Y-61811426D01*
X114135000Y-62088665D01*
X112693467Y-62088665D01*
X111931209Y-61326408D01*
X111975000Y-61106260D01*
X111975000Y-60813740D01*
X111917932Y-60526842D01*
X111805990Y-60256589D01*
X111643475Y-60013368D01*
X111436632Y-59806525D01*
X111254466Y-59684805D01*
X111371355Y-59615178D01*
X111587588Y-59420269D01*
X111761641Y-59186920D01*
X111886825Y-58924099D01*
X111931476Y-58776890D01*
X111810155Y-58547000D01*
X110617000Y-58547000D01*
X110617000Y-58567000D01*
X110363000Y-58567000D01*
X110363000Y-58547000D01*
X109169845Y-58547000D01*
X109048524Y-58776890D01*
X109093175Y-58924099D01*
X109218359Y-59186920D01*
X109392412Y-59420269D01*
X109608645Y-59615178D01*
X109725534Y-59684805D01*
X109543368Y-59806525D01*
X109336525Y-60013368D01*
X109174010Y-60256589D01*
X109062068Y-60526842D01*
X109005000Y-60813740D01*
X108610000Y-60813740D01*
X108610000Y-55030000D01*
X109001928Y-55030000D01*
X109001928Y-56730000D01*
X109014188Y-56854482D01*
X109050498Y-56974180D01*
X109109463Y-57084494D01*
X109188815Y-57181185D01*
X109285506Y-57260537D01*
X109395820Y-57319502D01*
X109476466Y-57343966D01*
X109392412Y-57419731D01*
X109218359Y-57653080D01*
X109093175Y-57915901D01*
X109048524Y-58063110D01*
X109169845Y-58293000D01*
X110363000Y-58293000D01*
X110363000Y-58273000D01*
X110617000Y-58273000D01*
X110617000Y-58293000D01*
X111810155Y-58293000D01*
X111931476Y-58063110D01*
X111886825Y-57915901D01*
X111761641Y-57653080D01*
X111587588Y-57419731D01*
X111503534Y-57343966D01*
X111584180Y-57319502D01*
X111694494Y-57260537D01*
X111791185Y-57181185D01*
X111870537Y-57084494D01*
X111929502Y-56974180D01*
X111965812Y-56854482D01*
X111978072Y-56730000D01*
X111978072Y-56236891D01*
X124288519Y-56236891D01*
X124385843Y-56511252D01*
X124534822Y-56761355D01*
X124729731Y-56977588D01*
X124963080Y-57151641D01*
X125225901Y-57276825D01*
X125373110Y-57321476D01*
X125603000Y-57200155D01*
X125603000Y-56007000D01*
X124409186Y-56007000D01*
X124288519Y-56236891D01*
X111978072Y-56236891D01*
X111978072Y-55523109D01*
X124288519Y-55523109D01*
X124409186Y-55753000D01*
X125603000Y-55753000D01*
X125603000Y-54559845D01*
X125857000Y-54559845D01*
X125857000Y-55753000D01*
X125877000Y-55753000D01*
X125877000Y-56007000D01*
X125857000Y-56007000D01*
X125857000Y-57200155D01*
X126086890Y-57321476D01*
X126234099Y-57276825D01*
X126496920Y-57151641D01*
X126730269Y-56977588D01*
X126925178Y-56761355D01*
X126994805Y-56644466D01*
X127116525Y-56826632D01*
X127323368Y-57033475D01*
X127566589Y-57195990D01*
X127836842Y-57307932D01*
X128123740Y-57365000D01*
X128416260Y-57365000D01*
X128703158Y-57307932D01*
X128973411Y-57195990D01*
X129216632Y-57033475D01*
X129423475Y-56826632D01*
X129540000Y-56652240D01*
X129656525Y-56826632D01*
X129863368Y-57033475D01*
X130106589Y-57195990D01*
X130376842Y-57307932D01*
X130663740Y-57365000D01*
X130956260Y-57365000D01*
X131243158Y-57307932D01*
X131513411Y-57195990D01*
X131756632Y-57033475D01*
X131888487Y-56901620D01*
X131910498Y-56974180D01*
X131969463Y-57084494D01*
X132048815Y-57181185D01*
X132145506Y-57260537D01*
X132255820Y-57319502D01*
X132375518Y-57355812D01*
X132500000Y-57368072D01*
X134200000Y-57368072D01*
X134324482Y-57355812D01*
X134444180Y-57319502D01*
X134554494Y-57260537D01*
X134651185Y-57181185D01*
X134730537Y-57084494D01*
X134789502Y-56974180D01*
X134825812Y-56854482D01*
X134838072Y-56730000D01*
X134838072Y-55030000D01*
X134825812Y-54905518D01*
X134789502Y-54785820D01*
X134730537Y-54675506D01*
X134651185Y-54578815D01*
X134554494Y-54499463D01*
X134444180Y-54440498D01*
X134324482Y-54404188D01*
X134200000Y-54391928D01*
X132500000Y-54391928D01*
X132375518Y-54404188D01*
X132255820Y-54440498D01*
X132145506Y-54499463D01*
X132048815Y-54578815D01*
X131969463Y-54675506D01*
X131910498Y-54785820D01*
X131888487Y-54858380D01*
X131756632Y-54726525D01*
X131513411Y-54564010D01*
X131243158Y-54452068D01*
X130956260Y-54395000D01*
X130663740Y-54395000D01*
X130376842Y-54452068D01*
X130106589Y-54564010D01*
X129863368Y-54726525D01*
X129656525Y-54933368D01*
X129540000Y-55107760D01*
X129423475Y-54933368D01*
X129216632Y-54726525D01*
X128973411Y-54564010D01*
X128703158Y-54452068D01*
X128416260Y-54395000D01*
X128123740Y-54395000D01*
X127836842Y-54452068D01*
X127566589Y-54564010D01*
X127323368Y-54726525D01*
X127116525Y-54933368D01*
X126994805Y-55115534D01*
X126925178Y-54998645D01*
X126730269Y-54782412D01*
X126496920Y-54608359D01*
X126234099Y-54483175D01*
X126086890Y-54438524D01*
X125857000Y-54559845D01*
X125603000Y-54559845D01*
X125373110Y-54438524D01*
X125225901Y-54483175D01*
X124963080Y-54608359D01*
X124729731Y-54782412D01*
X124534822Y-54998645D01*
X124385843Y-55248748D01*
X124288519Y-55523109D01*
X111978072Y-55523109D01*
X111978072Y-55030000D01*
X111965812Y-54905518D01*
X111929502Y-54785820D01*
X111870537Y-54675506D01*
X111791185Y-54578815D01*
X111694494Y-54499463D01*
X111584180Y-54440498D01*
X111464482Y-54404188D01*
X111340000Y-54391928D01*
X109640000Y-54391928D01*
X109515518Y-54404188D01*
X109395820Y-54440498D01*
X109285506Y-54499463D01*
X109188815Y-54578815D01*
X109109463Y-54675506D01*
X109050498Y-54785820D01*
X109014188Y-54905518D01*
X109001928Y-55030000D01*
X108610000Y-55030000D01*
X108610000Y-54000000D01*
X153396620Y-54000000D01*
X158090000Y-58693381D01*
G37*
X158090000Y-58693381D02*
X158090001Y-82517572D01*
X158090000Y-82517582D01*
X158090001Y-83546618D01*
X153226232Y-88410388D01*
X153201053Y-88431052D01*
X153180389Y-88456231D01*
X153180386Y-88456234D01*
X153118575Y-88531550D01*
X153057290Y-88646208D01*
X153019551Y-88770618D01*
X153006808Y-88900000D01*
X153010001Y-88932419D01*
X153010000Y-152126619D01*
X148316620Y-156820000D01*
X108610000Y-156820000D01*
X108610000Y-60813740D01*
X109005000Y-60813740D01*
X109005000Y-61106260D01*
X109062068Y-61393158D01*
X109174010Y-61663411D01*
X109336525Y-61906632D01*
X109543368Y-62113475D01*
X109717760Y-62230000D01*
X109543368Y-62346525D01*
X109336525Y-62553368D01*
X109174010Y-62796589D01*
X109062068Y-63066842D01*
X109005000Y-63353740D01*
X109005000Y-63646260D01*
X109062068Y-63933158D01*
X109174010Y-64203411D01*
X109336525Y-64446632D01*
X109543368Y-64653475D01*
X109717760Y-64770000D01*
X109543368Y-64886525D01*
X109336525Y-65093368D01*
X109174010Y-65336589D01*
X109062068Y-65606842D01*
X109005000Y-65893740D01*
X109005000Y-66186260D01*
X109062068Y-66473158D01*
X109174010Y-66743411D01*
X109336525Y-66986632D01*
X109543368Y-67193475D01*
X109717760Y-67310000D01*
X109543368Y-67426525D01*
X109336525Y-67633368D01*
X109174010Y-67876589D01*
X109062068Y-68146842D01*
X109005000Y-68433740D01*
X109005000Y-68726260D01*
X109062068Y-69013158D01*
X109174010Y-69283411D01*
X109336525Y-69526632D01*
X109543368Y-69733475D01*
X109717760Y-69850000D01*
X109543368Y-69966525D01*
X109336525Y-70173368D01*
X109174010Y-70416589D01*
X109062068Y-70686842D01*
X109005000Y-70973740D01*
X109005000Y-71266260D01*
X109062068Y-71553158D01*
X109174010Y-71823411D01*
X109336525Y-72066632D01*
X109543368Y-72273475D01*
X109717760Y-72390000D01*
X109543368Y-72506525D01*
X109336525Y-72713368D01*
X109174010Y-72956589D01*
X109062068Y-73226842D01*
X109005000Y-73513740D01*
X109005000Y-73806260D01*
X109062068Y-74093158D01*
X109174010Y-74363411D01*
X109336525Y-74606632D01*
X109543368Y-74813475D01*
X109717760Y-74930000D01*
X109543368Y-75046525D01*
X109336525Y-75253368D01*
X109174010Y-75496589D01*
X109062068Y-75766842D01*
X109005000Y-76053740D01*
X109005000Y-76346260D01*
X109062068Y-76633158D01*
X109174010Y-76903411D01*
X109336525Y-77146632D01*
X109543368Y-77353475D01*
X109717760Y-77470000D01*
X109543368Y-77586525D01*
X109336525Y-77793368D01*
X109174010Y-78036589D01*
X109062068Y-78306842D01*
X109005000Y-78593740D01*
X109005000Y-78886260D01*
X109062068Y-79173158D01*
X109174010Y-79443411D01*
X109336525Y-79686632D01*
X109543368Y-79893475D01*
X109717760Y-80010000D01*
X109543368Y-80126525D01*
X109336525Y-80333368D01*
X109174010Y-80576589D01*
X109062068Y-80846842D01*
X109005000Y-81133740D01*
X109005000Y-81426260D01*
X109062068Y-81713158D01*
X109174010Y-81983411D01*
X109336525Y-82226632D01*
X109543368Y-82433475D01*
X109717760Y-82550000D01*
X109543368Y-82666525D01*
X109336525Y-82873368D01*
X109174010Y-83116589D01*
X109062068Y-83386842D01*
X109005000Y-83673740D01*
X109005000Y-83966260D01*
X109062068Y-84253158D01*
X109174010Y-84523411D01*
X109336525Y-84766632D01*
X109543368Y-84973475D01*
X109717760Y-85090000D01*
X109543368Y-85206525D01*
X109336525Y-85413368D01*
X109174010Y-85656589D01*
X109062068Y-85926842D01*
X109005000Y-86213740D01*
X109005000Y-86506260D01*
X109062068Y-86793158D01*
X109174010Y-87063411D01*
X109336525Y-87306632D01*
X109543368Y-87513475D01*
X109717760Y-87630000D01*
X109543368Y-87746525D01*
X109336525Y-87953368D01*
X109174010Y-88196589D01*
X109062068Y-88466842D01*
X109005000Y-88753740D01*
X109005000Y-89046260D01*
X109062068Y-89333158D01*
X109174010Y-89603411D01*
X109336525Y-89846632D01*
X109543368Y-90053475D01*
X109717760Y-90170000D01*
X109543368Y-90286525D01*
X109336525Y-90493368D01*
X109174010Y-90736589D01*
X109062068Y-91006842D01*
X109005000Y-91293740D01*
X109005000Y-91586260D01*
X109062068Y-91873158D01*
X109174010Y-92143411D01*
X109336525Y-92386632D01*
X109543368Y-92593475D01*
X109717760Y-92710000D01*
X109543368Y-92826525D01*
X109336525Y-93033368D01*
X109174010Y-93276589D01*
X109062068Y-93546842D01*
X109005000Y-93833740D01*
X109005000Y-94126260D01*
X109062068Y-94413158D01*
X109174010Y-94683411D01*
X109336525Y-94926632D01*
X109543368Y-95133475D01*
X109717760Y-95250000D01*
X109543368Y-95366525D01*
X109336525Y-95573368D01*
X109174010Y-95816589D01*
X109062068Y-96086842D01*
X109005000Y-96373740D01*
X109005000Y-96666260D01*
X109062068Y-96953158D01*
X109174010Y-97223411D01*
X109336525Y-97466632D01*
X109543368Y-97673475D01*
X109717760Y-97790000D01*
X109543368Y-97906525D01*
X109336525Y-98113368D01*
X109174010Y-98356589D01*
X109062068Y-98626842D01*
X109005000Y-98913740D01*
X109005000Y-99206260D01*
X109062068Y-99493158D01*
X109174010Y-99763411D01*
X109336525Y-100006632D01*
X109543368Y-100213475D01*
X109717760Y-100330000D01*
X109543368Y-100446525D01*
X109336525Y-100653368D01*
X109174010Y-100896589D01*
X109062068Y-101166842D01*
X109005000Y-101453740D01*
X109005000Y-101746260D01*
X109062068Y-102033158D01*
X109174010Y-102303411D01*
X109336525Y-102546632D01*
X109543368Y-102753475D01*
X109717760Y-102870000D01*
X109543368Y-102986525D01*
X109336525Y-103193368D01*
X109174010Y-103436589D01*
X109062068Y-103706842D01*
X109005000Y-103993740D01*
X109005000Y-104286260D01*
X109062068Y-104573158D01*
X109174010Y-104843411D01*
X109336525Y-105086632D01*
X109543368Y-105293475D01*
X109717760Y-105410000D01*
X109543368Y-105526525D01*
X109336525Y-105733368D01*
X109174010Y-105976589D01*
X109062068Y-106246842D01*
X109005000Y-106533740D01*
X109005000Y-106826260D01*
X109062068Y-107113158D01*
X109174010Y-107383411D01*
X109336525Y-107626632D01*
X109543368Y-107833475D01*
X109717760Y-107950000D01*
X109543368Y-108066525D01*
X109336525Y-108273368D01*
X109174010Y-108516589D01*
X109062068Y-108786842D01*
X109005000Y-109073740D01*
X109005000Y-109366260D01*
X109062068Y-109653158D01*
X109174010Y-109923411D01*
X109336525Y-110166632D01*
X109543368Y-110373475D01*
X109717760Y-110490000D01*
X109543368Y-110606525D01*
X109336525Y-110813368D01*
X109174010Y-111056589D01*
X109062068Y-111326842D01*
X109005000Y-111613740D01*
X109005000Y-111906260D01*
X109062068Y-112193158D01*
X109174010Y-112463411D01*
X109336525Y-112706632D01*
X109543368Y-112913475D01*
X109717760Y-113030000D01*
X109543368Y-113146525D01*
X109336525Y-113353368D01*
X109174010Y-113596589D01*
X109062068Y-113866842D01*
X109005000Y-114153740D01*
X109005000Y-114446260D01*
X109062068Y-114733158D01*
X109174010Y-115003411D01*
X109336525Y-115246632D01*
X109543368Y-115453475D01*
X109717760Y-115570000D01*
X109543368Y-115686525D01*
X109336525Y-115893368D01*
X109174010Y-116136589D01*
X109062068Y-116406842D01*
X109005000Y-116693740D01*
X109005000Y-116986260D01*
X109062068Y-117273158D01*
X109174010Y-117543411D01*
X109336525Y-117786632D01*
X109543368Y-117993475D01*
X109717760Y-118110000D01*
X109543368Y-118226525D01*
X109336525Y-118433368D01*
X109174010Y-118676589D01*
X109062068Y-118946842D01*
X109005000Y-119233740D01*
X109005000Y-119526260D01*
X109062068Y-119813158D01*
X109174010Y-120083411D01*
X109336525Y-120326632D01*
X109543368Y-120533475D01*
X109717760Y-120650000D01*
X109543368Y-120766525D01*
X109336525Y-120973368D01*
X109174010Y-121216589D01*
X109062068Y-121486842D01*
X109005000Y-121773740D01*
X109005000Y-122066260D01*
X109062068Y-122353158D01*
X109174010Y-122623411D01*
X109336525Y-122866632D01*
X109543368Y-123073475D01*
X109717760Y-123190000D01*
X109543368Y-123306525D01*
X109336525Y-123513368D01*
X109174010Y-123756589D01*
X109062068Y-124026842D01*
X109005000Y-124313740D01*
X109005000Y-124606260D01*
X109062068Y-124893158D01*
X109174010Y-125163411D01*
X109336525Y-125406632D01*
X109543368Y-125613475D01*
X109717760Y-125730000D01*
X109543368Y-125846525D01*
X109336525Y-126053368D01*
X109174010Y-126296589D01*
X109062068Y-126566842D01*
X109005000Y-126853740D01*
X109005000Y-127146260D01*
X109062068Y-127433158D01*
X109174010Y-127703411D01*
X109336525Y-127946632D01*
X109543368Y-128153475D01*
X109717760Y-128270000D01*
X109543368Y-128386525D01*
X109336525Y-128593368D01*
X109174010Y-128836589D01*
X109062068Y-129106842D01*
X109005000Y-129393740D01*
X109005000Y-129686260D01*
X109062068Y-129973158D01*
X109174010Y-130243411D01*
X109336525Y-130486632D01*
X109543368Y-130693475D01*
X109717760Y-130810000D01*
X109543368Y-130926525D01*
X109336525Y-131133368D01*
X109174010Y-131376589D01*
X109062068Y-131646842D01*
X109005000Y-131933740D01*
X109005000Y-132226260D01*
X109062068Y-132513158D01*
X109174010Y-132783411D01*
X109336525Y-133026632D01*
X109543368Y-133233475D01*
X109717760Y-133350000D01*
X109543368Y-133466525D01*
X109336525Y-133673368D01*
X109174010Y-133916589D01*
X109062068Y-134186842D01*
X109005000Y-134473740D01*
X109005000Y-134766260D01*
X109062068Y-135053158D01*
X109174010Y-135323411D01*
X109336525Y-135566632D01*
X109543368Y-135773475D01*
X109717760Y-135890000D01*
X109543368Y-136006525D01*
X109336525Y-136213368D01*
X109174010Y-136456589D01*
X109062068Y-136726842D01*
X109005000Y-137013740D01*
X109005000Y-137306260D01*
X109062068Y-137593158D01*
X109174010Y-137863411D01*
X109336525Y-138106632D01*
X109543368Y-138313475D01*
X109717760Y-138430000D01*
X109543368Y-138546525D01*
X109336525Y-138753368D01*
X109174010Y-138996589D01*
X109062068Y-139266842D01*
X109005000Y-139553740D01*
X109005000Y-139846260D01*
X109062068Y-140133158D01*
X109174010Y-140403411D01*
X109336525Y-140646632D01*
X109543368Y-140853475D01*
X109717760Y-140970000D01*
X109543368Y-141086525D01*
X109336525Y-141293368D01*
X109174010Y-141536589D01*
X109062068Y-141806842D01*
X109005000Y-142093740D01*
X109005000Y-142386260D01*
X109062068Y-142673158D01*
X109174010Y-142943411D01*
X109336525Y-143186632D01*
X109543368Y-143393475D01*
X109717760Y-143510000D01*
X109543368Y-143626525D01*
X109336525Y-143833368D01*
X109174010Y-144076589D01*
X109062068Y-144346842D01*
X109005000Y-144633740D01*
X109005000Y-144926260D01*
X109062068Y-145213158D01*
X109174010Y-145483411D01*
X109336525Y-145726632D01*
X109543368Y-145933475D01*
X109717760Y-146050000D01*
X109543368Y-146166525D01*
X109336525Y-146373368D01*
X109174010Y-146616589D01*
X109062068Y-146886842D01*
X109005000Y-147173740D01*
X109005000Y-147466260D01*
X109062068Y-147753158D01*
X109174010Y-148023411D01*
X109336525Y-148266632D01*
X109543368Y-148473475D01*
X109717760Y-148590000D01*
X109543368Y-148706525D01*
X109336525Y-148913368D01*
X109174010Y-149156589D01*
X109062068Y-149426842D01*
X109005000Y-149713740D01*
X109005000Y-150006260D01*
X109062068Y-150293158D01*
X109174010Y-150563411D01*
X109336525Y-150806632D01*
X109543368Y-151013475D01*
X109717760Y-151130000D01*
X109543368Y-151246525D01*
X109336525Y-151453368D01*
X109174010Y-151696589D01*
X109062068Y-151966842D01*
X109005000Y-152253740D01*
X109005000Y-152546260D01*
X109062068Y-152833158D01*
X109174010Y-153103411D01*
X109336525Y-153346632D01*
X109543368Y-153553475D01*
X109717760Y-153670000D01*
X109543368Y-153786525D01*
X109336525Y-153993368D01*
X109174010Y-154236589D01*
X109062068Y-154506842D01*
X109005000Y-154793740D01*
X109005000Y-155086260D01*
X109062068Y-155373158D01*
X109174010Y-155643411D01*
X109336525Y-155886632D01*
X109543368Y-156093475D01*
X109786589Y-156255990D01*
X110056842Y-156367932D01*
X110343740Y-156425000D01*
X110636260Y-156425000D01*
X110923158Y-156367932D01*
X111193411Y-156255990D01*
X111436632Y-156093475D01*
X111643475Y-155886632D01*
X111805990Y-155643411D01*
X111917932Y-155373158D01*
X111975000Y-155086260D01*
X111975000Y-154793740D01*
X111917932Y-154506842D01*
X111805990Y-154236589D01*
X111643475Y-153993368D01*
X111436632Y-153786525D01*
X111262240Y-153670000D01*
X111436632Y-153553475D01*
X111643475Y-153346632D01*
X111805990Y-153103411D01*
X111917932Y-152833158D01*
X111975000Y-152546260D01*
X111975000Y-152253740D01*
X111917932Y-151966842D01*
X111805990Y-151696589D01*
X111643475Y-151453368D01*
X111436632Y-151246525D01*
X111262240Y-151130000D01*
X111436632Y-151013475D01*
X111643475Y-150806632D01*
X111805990Y-150563411D01*
X111917932Y-150293158D01*
X111975000Y-150006260D01*
X111975000Y-149713740D01*
X111917932Y-149426842D01*
X111805990Y-149156589D01*
X111643475Y-148913368D01*
X111436632Y-148706525D01*
X111262240Y-148590000D01*
X111436632Y-148473475D01*
X111643475Y-148266632D01*
X111805990Y-148023411D01*
X111917932Y-147753158D01*
X111975000Y-147466260D01*
X111975000Y-147173740D01*
X111917932Y-146886842D01*
X111805990Y-146616589D01*
X111643475Y-146373368D01*
X111436632Y-146166525D01*
X111262240Y-146050000D01*
X111436632Y-145933475D01*
X111643475Y-145726632D01*
X111805990Y-145483411D01*
X111917932Y-145213158D01*
X111975000Y-144926260D01*
X111975000Y-144633740D01*
X111917932Y-144346842D01*
X111805990Y-144076589D01*
X111643475Y-143833368D01*
X111436632Y-143626525D01*
X111262240Y-143510000D01*
X111436632Y-143393475D01*
X111643475Y-143186632D01*
X111805990Y-142943411D01*
X111917932Y-142673158D01*
X111975000Y-142386260D01*
X111975000Y-142093740D01*
X111917932Y-141806842D01*
X111805990Y-141536589D01*
X111643475Y-141293368D01*
X111436632Y-141086525D01*
X111262240Y-140970000D01*
X111436632Y-140853475D01*
X111643475Y-140646632D01*
X111805990Y-140403411D01*
X111917932Y-140133158D01*
X111975000Y-139846260D01*
X111975000Y-139553740D01*
X111917932Y-139266842D01*
X111805990Y-138996589D01*
X111643475Y-138753368D01*
X111436632Y-138546525D01*
X111262240Y-138430000D01*
X111436632Y-138313475D01*
X111643475Y-138106632D01*
X111805990Y-137863411D01*
X111917932Y-137593158D01*
X111975000Y-137306260D01*
X111975000Y-137013740D01*
X111917932Y-136726842D01*
X111805990Y-136456589D01*
X111643475Y-136213368D01*
X111436632Y-136006525D01*
X111262240Y-135890000D01*
X111436632Y-135773475D01*
X111643475Y-135566632D01*
X111805990Y-135323411D01*
X111917932Y-135053158D01*
X111975000Y-134766260D01*
X111975000Y-134473740D01*
X111917932Y-134186842D01*
X111805990Y-133916589D01*
X111643475Y-133673368D01*
X111436632Y-133466525D01*
X111262240Y-133350000D01*
X111436632Y-133233475D01*
X111643475Y-133026632D01*
X111805990Y-132783411D01*
X111917932Y-132513158D01*
X111975000Y-132226260D01*
X111975000Y-131933740D01*
X111917932Y-131646842D01*
X111805990Y-131376589D01*
X111643475Y-131133368D01*
X111436632Y-130926525D01*
X111262240Y-130810000D01*
X111436632Y-130693475D01*
X111643475Y-130486632D01*
X111805990Y-130243411D01*
X111917932Y-129973158D01*
X111975000Y-129686260D01*
X111975000Y-129393740D01*
X111917932Y-129106842D01*
X111805990Y-128836589D01*
X111643475Y-128593368D01*
X111436632Y-128386525D01*
X111262240Y-128270000D01*
X111436632Y-128153475D01*
X111643475Y-127946632D01*
X111805990Y-127703411D01*
X111917932Y-127433158D01*
X111975000Y-127146260D01*
X111975000Y-126853740D01*
X111917932Y-126566842D01*
X111805990Y-126296589D01*
X111643475Y-126053368D01*
X111436632Y-125846525D01*
X111262240Y-125730000D01*
X111436632Y-125613475D01*
X111643475Y-125406632D01*
X111805990Y-125163411D01*
X111917932Y-124893158D01*
X111975000Y-124606260D01*
X111975000Y-124313740D01*
X111917932Y-124026842D01*
X111805990Y-123756589D01*
X111643475Y-123513368D01*
X111436632Y-123306525D01*
X111262240Y-123190000D01*
X111436632Y-123073475D01*
X111643475Y-122866632D01*
X111805990Y-122623411D01*
X111917932Y-122353158D01*
X111975000Y-122066260D01*
X111975000Y-121773740D01*
X111917932Y-121486842D01*
X111805990Y-121216589D01*
X111643475Y-120973368D01*
X111436632Y-120766525D01*
X111262240Y-120650000D01*
X111436632Y-120533475D01*
X111643475Y-120326632D01*
X111805990Y-120083411D01*
X111917932Y-119813158D01*
X111934664Y-119729039D01*
X117988096Y-119729039D01*
X118028754Y-119863087D01*
X118148963Y-120117420D01*
X118316481Y-120343414D01*
X118524869Y-120532385D01*
X118766119Y-120677070D01*
X119030960Y-120771909D01*
X119253000Y-120650624D01*
X119253000Y-119507000D01*
X119507000Y-119507000D01*
X119507000Y-120650624D01*
X119729040Y-120771909D01*
X119993881Y-120677070D01*
X120235131Y-120532385D01*
X120443519Y-120343414D01*
X120611037Y-120117420D01*
X120731246Y-119863087D01*
X120771904Y-119729039D01*
X120649915Y-119507000D01*
X119507000Y-119507000D01*
X119253000Y-119507000D01*
X118110085Y-119507000D01*
X117988096Y-119729039D01*
X111934664Y-119729039D01*
X111975000Y-119526260D01*
X111975000Y-119233740D01*
X111917932Y-118946842D01*
X111805990Y-118676589D01*
X111643475Y-118433368D01*
X111436632Y-118226525D01*
X111262240Y-118110000D01*
X111436632Y-117993475D01*
X111643475Y-117786632D01*
X111805990Y-117543411D01*
X111917932Y-117273158D01*
X111975000Y-116986260D01*
X111975000Y-116693740D01*
X111917932Y-116406842D01*
X111805990Y-116136589D01*
X111643475Y-115893368D01*
X111436632Y-115686525D01*
X111262240Y-115570000D01*
X111436632Y-115453475D01*
X111643475Y-115246632D01*
X111805990Y-115003411D01*
X111917932Y-114733158D01*
X111975000Y-114446260D01*
X111975000Y-114153740D01*
X111917932Y-113866842D01*
X111805990Y-113596589D01*
X111643475Y-113353368D01*
X111436632Y-113146525D01*
X111262240Y-113030000D01*
X111436632Y-112913475D01*
X111643475Y-112706632D01*
X111805990Y-112463411D01*
X111917932Y-112193158D01*
X111975000Y-111906260D01*
X111975000Y-111613740D01*
X111917932Y-111326842D01*
X111805990Y-111056589D01*
X111643475Y-110813368D01*
X111436632Y-110606525D01*
X111262240Y-110490000D01*
X111436632Y-110373475D01*
X111643475Y-110166632D01*
X111805990Y-109923411D01*
X111917932Y-109653158D01*
X111975000Y-109366260D01*
X111975000Y-109073740D01*
X111917932Y-108786842D01*
X111805990Y-108516589D01*
X111643475Y-108273368D01*
X111436632Y-108066525D01*
X111262240Y-107950000D01*
X111436632Y-107833475D01*
X111643475Y-107626632D01*
X111805990Y-107383411D01*
X111917932Y-107113158D01*
X111975000Y-106826260D01*
X111975000Y-106533740D01*
X111917932Y-106246842D01*
X111805990Y-105976589D01*
X111643475Y-105733368D01*
X111436632Y-105526525D01*
X111262240Y-105410000D01*
X111436632Y-105293475D01*
X111643475Y-105086632D01*
X111805990Y-104843411D01*
X111917932Y-104573158D01*
X111975000Y-104286260D01*
X111975000Y-103993740D01*
X111917932Y-103706842D01*
X111805990Y-103436589D01*
X111643475Y-103193368D01*
X111436632Y-102986525D01*
X111262240Y-102870000D01*
X111436632Y-102753475D01*
X111643475Y-102546632D01*
X111805990Y-102303411D01*
X111917932Y-102033158D01*
X111975000Y-101746260D01*
X111975000Y-101453740D01*
X111917932Y-101166842D01*
X111805990Y-100896589D01*
X111643475Y-100653368D01*
X111436632Y-100446525D01*
X111262240Y-100330000D01*
X111436632Y-100213475D01*
X111643475Y-100006632D01*
X111805990Y-99763411D01*
X111917932Y-99493158D01*
X111975000Y-99206260D01*
X111975000Y-99079801D01*
X115006201Y-102111003D01*
X115029999Y-102140001D01*
X115058997Y-102163799D01*
X115145723Y-102234974D01*
X115273759Y-102303411D01*
X115277753Y-102305546D01*
X115421014Y-102349003D01*
X115532667Y-102360000D01*
X115532677Y-102360000D01*
X115570000Y-102363676D01*
X115607323Y-102360000D01*
X115935987Y-102360000D01*
X115922795Y-102379744D01*
X115844774Y-102568102D01*
X115805000Y-102768061D01*
X115805000Y-102971939D01*
X115844774Y-103171898D01*
X115922795Y-103360256D01*
X116036063Y-103529774D01*
X116080000Y-103573711D01*
X116080001Y-108307670D01*
X116076324Y-108345002D01*
X116080001Y-108382335D01*
X116090998Y-108493988D01*
X116097854Y-108516589D01*
X116134454Y-108637248D01*
X116205026Y-108769278D01*
X116276201Y-108856004D01*
X116300000Y-108885003D01*
X116328998Y-108908801D01*
X118265400Y-110845204D01*
X118265363Y-110845241D01*
X118108320Y-111080273D01*
X118000147Y-111341426D01*
X117945000Y-111618665D01*
X117945000Y-111901335D01*
X118000147Y-112178574D01*
X118108320Y-112439727D01*
X118265363Y-112674759D01*
X118465241Y-112874637D01*
X118697759Y-113030000D01*
X118465241Y-113185363D01*
X118265363Y-113385241D01*
X118108320Y-113620273D01*
X118000147Y-113881426D01*
X117945000Y-114158665D01*
X117945000Y-114441335D01*
X118000147Y-114718574D01*
X118108320Y-114979727D01*
X118265363Y-115214759D01*
X118465241Y-115414637D01*
X118697759Y-115570000D01*
X118465241Y-115725363D01*
X118265363Y-115925241D01*
X118108320Y-116160273D01*
X118000147Y-116421426D01*
X117945000Y-116698665D01*
X117945000Y-116981335D01*
X118000147Y-117258574D01*
X118108320Y-117519727D01*
X118265363Y-117754759D01*
X118465241Y-117954637D01*
X118700273Y-118111680D01*
X118710865Y-118116067D01*
X118524869Y-118227615D01*
X118316481Y-118416586D01*
X118148963Y-118642580D01*
X118028754Y-118896913D01*
X117988096Y-119030961D01*
X118110085Y-119253000D01*
X119253000Y-119253000D01*
X119253000Y-119233000D01*
X119507000Y-119233000D01*
X119507000Y-119253000D01*
X120649915Y-119253000D01*
X120771904Y-119030961D01*
X120731246Y-118896913D01*
X120611037Y-118642580D01*
X120443519Y-118416586D01*
X120235131Y-118227615D01*
X120049135Y-118116067D01*
X120059727Y-118111680D01*
X120294759Y-117954637D01*
X120494637Y-117754759D01*
X120651680Y-117519727D01*
X120759853Y-117258574D01*
X120815000Y-116981335D01*
X120815000Y-116698665D01*
X120759853Y-116421426D01*
X120651680Y-116160273D01*
X120494637Y-115925241D01*
X120294759Y-115725363D01*
X120062241Y-115570000D01*
X120294759Y-115414637D01*
X120494637Y-115214759D01*
X120651680Y-114979727D01*
X120759853Y-114718574D01*
X120815000Y-114441335D01*
X120815000Y-114158665D01*
X120759853Y-113881426D01*
X120651680Y-113620273D01*
X120494637Y-113385241D01*
X120294759Y-113185363D01*
X120062241Y-113030000D01*
X120294759Y-112874637D01*
X120494637Y-112674759D01*
X120650978Y-112440777D01*
X125114999Y-116904799D01*
X125115000Y-118217667D01*
X125111323Y-118254999D01*
X125115000Y-118292332D01*
X125125997Y-118403985D01*
X125134910Y-118433368D01*
X125169453Y-118547245D01*
X125240025Y-118679275D01*
X125311200Y-118766001D01*
X125334999Y-118795000D01*
X125363997Y-118818798D01*
X125601312Y-119056113D01*
X125565000Y-119238665D01*
X125565000Y-119521335D01*
X125620147Y-119798574D01*
X125728320Y-120059727D01*
X125885363Y-120294759D01*
X126085241Y-120494637D01*
X126320273Y-120651680D01*
X126581426Y-120759853D01*
X126858665Y-120815000D01*
X127141335Y-120815000D01*
X127418574Y-120759853D01*
X127679727Y-120651680D01*
X127914759Y-120494637D01*
X128114637Y-120294759D01*
X128271680Y-120059727D01*
X128379853Y-119798574D01*
X128393684Y-119729039D01*
X129418096Y-119729039D01*
X129458754Y-119863087D01*
X129578963Y-120117420D01*
X129746481Y-120343414D01*
X129954869Y-120532385D01*
X130196119Y-120677070D01*
X130460960Y-120771909D01*
X130683000Y-120650624D01*
X130683000Y-119507000D01*
X130937000Y-119507000D01*
X130937000Y-120650624D01*
X131159040Y-120771909D01*
X131423881Y-120677070D01*
X131665131Y-120532385D01*
X131873519Y-120343414D01*
X132041037Y-120117420D01*
X132161246Y-119863087D01*
X132201904Y-119729039D01*
X132079915Y-119507000D01*
X130937000Y-119507000D01*
X130683000Y-119507000D01*
X129540085Y-119507000D01*
X129418096Y-119729039D01*
X128393684Y-119729039D01*
X128435000Y-119521335D01*
X128435000Y-119238665D01*
X128379853Y-118961426D01*
X128271680Y-118700273D01*
X128114637Y-118465241D01*
X127914759Y-118265363D01*
X127682241Y-118110000D01*
X127914759Y-117954637D01*
X128114637Y-117754759D01*
X128271680Y-117519727D01*
X128379853Y-117258574D01*
X128435000Y-116981335D01*
X128435000Y-116698665D01*
X128379853Y-116421426D01*
X128271680Y-116160273D01*
X128114637Y-115925241D01*
X127914759Y-115725363D01*
X127682241Y-115570000D01*
X127914759Y-115414637D01*
X128114637Y-115214759D01*
X128271680Y-114979727D01*
X128379853Y-114718574D01*
X128435000Y-114441335D01*
X128435000Y-114158665D01*
X128379853Y-113881426D01*
X128271680Y-113620273D01*
X128114637Y-113385241D01*
X127914759Y-113185363D01*
X127682241Y-113030000D01*
X127914759Y-112874637D01*
X128114637Y-112674759D01*
X128218043Y-112520000D01*
X128232678Y-112520000D01*
X128270000Y-112523676D01*
X128307322Y-112520000D01*
X128307333Y-112520000D01*
X128418986Y-112509003D01*
X128562247Y-112465546D01*
X128694276Y-112394974D01*
X128810001Y-112300001D01*
X128833804Y-112270997D01*
X129375000Y-111729801D01*
X129375000Y-111901335D01*
X129430147Y-112178574D01*
X129538320Y-112439727D01*
X129695363Y-112674759D01*
X129895241Y-112874637D01*
X130127759Y-113030000D01*
X129895241Y-113185363D01*
X129695363Y-113385241D01*
X129538320Y-113620273D01*
X129430147Y-113881426D01*
X129375000Y-114158665D01*
X129375000Y-114441335D01*
X129430147Y-114718574D01*
X129538320Y-114979727D01*
X129695363Y-115214759D01*
X129895241Y-115414637D01*
X130127759Y-115570000D01*
X129895241Y-115725363D01*
X129695363Y-115925241D01*
X129538320Y-116160273D01*
X129430147Y-116421426D01*
X129375000Y-116698665D01*
X129375000Y-116981335D01*
X129430147Y-117258574D01*
X129538320Y-117519727D01*
X129695363Y-117754759D01*
X129895241Y-117954637D01*
X130130273Y-118111680D01*
X130140865Y-118116067D01*
X129954869Y-118227615D01*
X129746481Y-118416586D01*
X129578963Y-118642580D01*
X129458754Y-118896913D01*
X129418096Y-119030961D01*
X129540085Y-119253000D01*
X130683000Y-119253000D01*
X130683000Y-119233000D01*
X130937000Y-119233000D01*
X130937000Y-119253000D01*
X132079915Y-119253000D01*
X132201904Y-119030961D01*
X132161246Y-118896913D01*
X132041037Y-118642580D01*
X131873519Y-118416586D01*
X131665131Y-118227615D01*
X131479135Y-118116067D01*
X131489727Y-118111680D01*
X131724759Y-117954637D01*
X131924637Y-117754759D01*
X132081680Y-117519727D01*
X132189853Y-117258574D01*
X132245000Y-116981335D01*
X132245000Y-116698665D01*
X132208688Y-116516113D01*
X136995000Y-111729802D01*
X136995000Y-111901335D01*
X137050147Y-112178574D01*
X137158320Y-112439727D01*
X137315363Y-112674759D01*
X137515241Y-112874637D01*
X137747759Y-113030000D01*
X137515241Y-113185363D01*
X137315363Y-113385241D01*
X137158320Y-113620273D01*
X137050147Y-113881426D01*
X136995000Y-114158665D01*
X136995000Y-114441335D01*
X137050147Y-114718574D01*
X137158320Y-114979727D01*
X137315363Y-115214759D01*
X137515241Y-115414637D01*
X137747759Y-115570000D01*
X137515241Y-115725363D01*
X137315363Y-115925241D01*
X137158320Y-116160273D01*
X137050147Y-116421426D01*
X136995000Y-116698665D01*
X136995000Y-116981335D01*
X137050147Y-117258574D01*
X137158320Y-117519727D01*
X137315363Y-117754759D01*
X137515241Y-117954637D01*
X137747759Y-118110000D01*
X137515241Y-118265363D01*
X137315363Y-118465241D01*
X137158320Y-118700273D01*
X137050147Y-118961426D01*
X136995000Y-119238665D01*
X136995000Y-119521335D01*
X137050147Y-119798574D01*
X137158320Y-120059727D01*
X137315363Y-120294759D01*
X137515241Y-120494637D01*
X137750273Y-120651680D01*
X138011426Y-120759853D01*
X138288665Y-120815000D01*
X138571335Y-120815000D01*
X138848574Y-120759853D01*
X139109727Y-120651680D01*
X139344759Y-120494637D01*
X139544637Y-120294759D01*
X139701680Y-120059727D01*
X139809853Y-119798574D01*
X139865000Y-119521335D01*
X139865000Y-119238665D01*
X139809853Y-118961426D01*
X139701680Y-118700273D01*
X139544637Y-118465241D01*
X139344759Y-118265363D01*
X139112241Y-118110000D01*
X139344759Y-117954637D01*
X139544637Y-117754759D01*
X139701680Y-117519727D01*
X139809853Y-117258574D01*
X139865000Y-116981335D01*
X139865000Y-116698665D01*
X139809853Y-116421426D01*
X139701680Y-116160273D01*
X139544637Y-115925241D01*
X139344759Y-115725363D01*
X139112241Y-115570000D01*
X139344759Y-115414637D01*
X139544637Y-115214759D01*
X139701680Y-114979727D01*
X139809853Y-114718574D01*
X139865000Y-114441335D01*
X139865000Y-114158665D01*
X139809853Y-113881426D01*
X139701680Y-113620273D01*
X139544637Y-113385241D01*
X139344759Y-113185363D01*
X139112241Y-113030000D01*
X139344759Y-112874637D01*
X139544637Y-112674759D01*
X139701680Y-112439727D01*
X139809853Y-112178574D01*
X139865000Y-111901335D01*
X139865000Y-111618665D01*
X139809853Y-111341426D01*
X139701680Y-111080273D01*
X139544637Y-110845241D01*
X139344759Y-110645363D01*
X139112241Y-110490000D01*
X139344759Y-110334637D01*
X139544637Y-110134759D01*
X139701680Y-109899727D01*
X139809853Y-109638574D01*
X139865000Y-109361335D01*
X139865000Y-109078665D01*
X139809853Y-108801426D01*
X139701680Y-108540273D01*
X139544637Y-108305241D01*
X139344759Y-108105363D01*
X139112241Y-107950000D01*
X139344759Y-107794637D01*
X139544637Y-107594759D01*
X139701680Y-107359727D01*
X139809853Y-107098574D01*
X139865000Y-106821335D01*
X139865000Y-106538665D01*
X139809853Y-106261426D01*
X139701680Y-106000273D01*
X139544637Y-105765241D01*
X139344759Y-105565363D01*
X139112241Y-105410000D01*
X139344759Y-105254637D01*
X139544637Y-105054759D01*
X139701680Y-104819727D01*
X139809853Y-104558574D01*
X139865000Y-104281335D01*
X139865000Y-103998665D01*
X139809853Y-103721426D01*
X139701680Y-103460273D01*
X139544637Y-103225241D01*
X139344759Y-103025363D01*
X139109727Y-102868320D01*
X138848574Y-102760147D01*
X138571335Y-102705000D01*
X138288665Y-102705000D01*
X138064999Y-102749491D01*
X138064999Y-95037319D01*
X138068675Y-94999996D01*
X138064999Y-94962673D01*
X138064999Y-94962664D01*
X138054002Y-94851011D01*
X138010545Y-94707750D01*
X137939973Y-94575721D01*
X137845000Y-94459996D01*
X137816002Y-94436198D01*
X135734600Y-92354796D01*
X135734637Y-92354759D01*
X135891680Y-92119727D01*
X135999853Y-91858574D01*
X136055000Y-91581335D01*
X136055000Y-91298665D01*
X135999853Y-91021426D01*
X135891680Y-90760273D01*
X135734637Y-90525241D01*
X135534759Y-90325363D01*
X135302241Y-90170000D01*
X135534759Y-90014637D01*
X135734637Y-89814759D01*
X135891680Y-89579727D01*
X135999853Y-89318574D01*
X136055000Y-89041335D01*
X136055000Y-88758665D01*
X135999853Y-88481426D01*
X135891680Y-88220273D01*
X135734637Y-87985241D01*
X135534759Y-87785363D01*
X135302241Y-87630000D01*
X135534759Y-87474637D01*
X135734637Y-87274759D01*
X135891680Y-87039727D01*
X135999853Y-86778574D01*
X136055000Y-86501335D01*
X136055000Y-86218665D01*
X135999853Y-85941426D01*
X135891680Y-85680273D01*
X135734637Y-85445241D01*
X135534759Y-85245363D01*
X135302241Y-85090000D01*
X135534759Y-84934637D01*
X135734637Y-84734759D01*
X135891680Y-84499727D01*
X135999853Y-84238574D01*
X136055000Y-83961335D01*
X136055000Y-83678665D01*
X138265000Y-83678665D01*
X138265000Y-83961335D01*
X138320147Y-84238574D01*
X138428320Y-84499727D01*
X138585363Y-84734759D01*
X138785241Y-84934637D01*
X139020273Y-85091680D01*
X139281426Y-85199853D01*
X139558665Y-85255000D01*
X139841335Y-85255000D01*
X140118574Y-85199853D01*
X140379727Y-85091680D01*
X140614759Y-84934637D01*
X140814637Y-84734759D01*
X140971680Y-84499727D01*
X141079853Y-84238574D01*
X141135000Y-83961335D01*
X141135000Y-83678665D01*
X142075000Y-83678665D01*
X142075000Y-83961335D01*
X142130147Y-84238574D01*
X142238320Y-84499727D01*
X142395363Y-84734759D01*
X142595241Y-84934637D01*
X142830273Y-85091680D01*
X143091426Y-85199853D01*
X143368665Y-85255000D01*
X143651335Y-85255000D01*
X143928574Y-85199853D01*
X144189727Y-85091680D01*
X144424759Y-84934637D01*
X144624637Y-84734759D01*
X144781680Y-84499727D01*
X144889853Y-84238574D01*
X144945000Y-83961335D01*
X144945000Y-83678665D01*
X144889853Y-83401426D01*
X144781680Y-83140273D01*
X144624637Y-82905241D01*
X144424759Y-82705363D01*
X144189727Y-82548320D01*
X143928574Y-82440147D01*
X143651335Y-82385000D01*
X143368665Y-82385000D01*
X143091426Y-82440147D01*
X142830273Y-82548320D01*
X142595241Y-82705363D01*
X142395363Y-82905241D01*
X142238320Y-83140273D01*
X142130147Y-83401426D01*
X142075000Y-83678665D01*
X141135000Y-83678665D01*
X141079853Y-83401426D01*
X140971680Y-83140273D01*
X140814637Y-82905241D01*
X140614759Y-82705363D01*
X140379727Y-82548320D01*
X140118574Y-82440147D01*
X139841335Y-82385000D01*
X139558665Y-82385000D01*
X139281426Y-82440147D01*
X139020273Y-82548320D01*
X138785241Y-82705363D01*
X138585363Y-82905241D01*
X138428320Y-83140273D01*
X138320147Y-83401426D01*
X138265000Y-83678665D01*
X136055000Y-83678665D01*
X135999853Y-83401426D01*
X135891680Y-83140273D01*
X135734637Y-82905241D01*
X135534759Y-82705363D01*
X135302241Y-82550000D01*
X135534759Y-82394637D01*
X135734637Y-82194759D01*
X135891680Y-81959727D01*
X135999853Y-81698574D01*
X136055000Y-81421335D01*
X136055000Y-81138665D01*
X135999853Y-80861426D01*
X135891680Y-80600273D01*
X135734637Y-80365241D01*
X135534759Y-80165363D01*
X135302241Y-80010000D01*
X135534759Y-79854637D01*
X135734637Y-79654759D01*
X135891680Y-79419727D01*
X135999853Y-79158574D01*
X136055000Y-78881335D01*
X136055000Y-78598665D01*
X135999853Y-78321426D01*
X135891680Y-78060273D01*
X135734637Y-77825241D01*
X135534759Y-77625363D01*
X135302241Y-77470000D01*
X135534759Y-77314637D01*
X135734637Y-77114759D01*
X135891680Y-76879727D01*
X135999853Y-76618574D01*
X136055000Y-76341335D01*
X136055000Y-76058665D01*
X138265000Y-76058665D01*
X138265000Y-76341335D01*
X138320147Y-76618574D01*
X138428320Y-76879727D01*
X138585363Y-77114759D01*
X138785241Y-77314637D01*
X139020273Y-77471680D01*
X139281426Y-77579853D01*
X139558665Y-77635000D01*
X139841335Y-77635000D01*
X140118574Y-77579853D01*
X140379727Y-77471680D01*
X140614759Y-77314637D01*
X140814637Y-77114759D01*
X140971680Y-76879727D01*
X141079853Y-76618574D01*
X141135000Y-76341335D01*
X141135000Y-76058665D01*
X142075000Y-76058665D01*
X142075000Y-76341335D01*
X142130147Y-76618574D01*
X142238320Y-76879727D01*
X142395363Y-77114759D01*
X142595241Y-77314637D01*
X142830273Y-77471680D01*
X143091426Y-77579853D01*
X143368665Y-77635000D01*
X143651335Y-77635000D01*
X143928574Y-77579853D01*
X144189727Y-77471680D01*
X144424759Y-77314637D01*
X144624637Y-77114759D01*
X144781680Y-76879727D01*
X144889853Y-76618574D01*
X144945000Y-76341335D01*
X144945000Y-76058665D01*
X144889853Y-75781426D01*
X144781680Y-75520273D01*
X144624637Y-75285241D01*
X144424759Y-75085363D01*
X144189727Y-74928320D01*
X143928574Y-74820147D01*
X143651335Y-74765000D01*
X143368665Y-74765000D01*
X143091426Y-74820147D01*
X142830273Y-74928320D01*
X142595241Y-75085363D01*
X142395363Y-75285241D01*
X142238320Y-75520273D01*
X142130147Y-75781426D01*
X142075000Y-76058665D01*
X141135000Y-76058665D01*
X141079853Y-75781426D01*
X140971680Y-75520273D01*
X140814637Y-75285241D01*
X140614759Y-75085363D01*
X140379727Y-74928320D01*
X140118574Y-74820147D01*
X139841335Y-74765000D01*
X139558665Y-74765000D01*
X139281426Y-74820147D01*
X139020273Y-74928320D01*
X138785241Y-75085363D01*
X138585363Y-75285241D01*
X138428320Y-75520273D01*
X138320147Y-75781426D01*
X138265000Y-76058665D01*
X136055000Y-76058665D01*
X135999853Y-75781426D01*
X135891680Y-75520273D01*
X135734637Y-75285241D01*
X135534759Y-75085363D01*
X135299727Y-74928320D01*
X135289135Y-74923933D01*
X135475131Y-74812385D01*
X135683519Y-74623414D01*
X135851037Y-74397420D01*
X135971246Y-74143087D01*
X136011904Y-74009039D01*
X135889915Y-73787000D01*
X134747000Y-73787000D01*
X134747000Y-73807000D01*
X134493000Y-73807000D01*
X134493000Y-73787000D01*
X133350085Y-73787000D01*
X133228096Y-74009039D01*
X133268754Y-74143087D01*
X133388963Y-74397420D01*
X133556481Y-74623414D01*
X133764869Y-74812385D01*
X133950865Y-74923933D01*
X133940273Y-74928320D01*
X133705241Y-75085363D01*
X133505363Y-75285241D01*
X133348320Y-75520273D01*
X133240147Y-75781426D01*
X133185000Y-76058665D01*
X133185000Y-76341335D01*
X133240147Y-76618574D01*
X133348320Y-76879727D01*
X133505363Y-77114759D01*
X133705241Y-77314637D01*
X133937759Y-77470000D01*
X133705241Y-77625363D01*
X133505363Y-77825241D01*
X133348320Y-78060273D01*
X133240147Y-78321426D01*
X133185000Y-78598665D01*
X133185000Y-78881335D01*
X133240147Y-79158574D01*
X133348320Y-79419727D01*
X133505363Y-79654759D01*
X133705241Y-79854637D01*
X133937759Y-80010000D01*
X133705241Y-80165363D01*
X133505363Y-80365241D01*
X133348320Y-80600273D01*
X133240147Y-80861426D01*
X133185000Y-81138665D01*
X133185000Y-81421335D01*
X133240147Y-81698574D01*
X133348320Y-81959727D01*
X133505363Y-82194759D01*
X133705241Y-82394637D01*
X133937759Y-82550000D01*
X133705241Y-82705363D01*
X133505363Y-82905241D01*
X133348320Y-83140273D01*
X133240147Y-83401426D01*
X133185000Y-83678665D01*
X133185000Y-83961335D01*
X133240147Y-84238574D01*
X133348320Y-84499727D01*
X133505363Y-84734759D01*
X133705241Y-84934637D01*
X133937759Y-85090000D01*
X133705241Y-85245363D01*
X133505363Y-85445241D01*
X133348320Y-85680273D01*
X133240147Y-85941426D01*
X133185000Y-86218665D01*
X133185000Y-86501335D01*
X133240147Y-86778574D01*
X133348320Y-87039727D01*
X133505363Y-87274759D01*
X133705241Y-87474637D01*
X133937759Y-87630000D01*
X133705241Y-87785363D01*
X133505363Y-87985241D01*
X133348320Y-88220273D01*
X133240147Y-88481426D01*
X133185000Y-88758665D01*
X133185000Y-89041335D01*
X133240147Y-89318574D01*
X133348320Y-89579727D01*
X133505363Y-89814759D01*
X133705241Y-90014637D01*
X133937759Y-90170000D01*
X133705241Y-90325363D01*
X133505363Y-90525241D01*
X133349022Y-90759222D01*
X131373804Y-88784005D01*
X131350001Y-88755001D01*
X131234276Y-88660028D01*
X131102247Y-88589456D01*
X130958986Y-88545999D01*
X130847333Y-88535002D01*
X130847322Y-88535002D01*
X130810000Y-88531326D01*
X130772678Y-88535002D01*
X126699089Y-88535002D01*
X126647205Y-88409744D01*
X126533937Y-88240226D01*
X126389774Y-88096063D01*
X126220256Y-87982795D01*
X126031898Y-87904774D01*
X125831939Y-87865000D01*
X125628061Y-87865000D01*
X125428102Y-87904774D01*
X125239744Y-87982795D01*
X125070226Y-88096063D01*
X124926063Y-88240226D01*
X124812795Y-88409744D01*
X124734774Y-88598102D01*
X124695000Y-88798061D01*
X124695000Y-89001939D01*
X124734774Y-89201898D01*
X124812795Y-89390256D01*
X124926063Y-89559774D01*
X125070226Y-89703937D01*
X125239744Y-89817205D01*
X125428102Y-89895226D01*
X125628061Y-89935000D01*
X125710125Y-89935000D01*
X125832755Y-90000548D01*
X125976016Y-90044005D01*
X126087669Y-90055002D01*
X126087678Y-90055002D01*
X126125001Y-90058678D01*
X126162324Y-90055002D01*
X130495199Y-90055002D01*
X133505400Y-93065204D01*
X133505363Y-93065241D01*
X133348320Y-93300273D01*
X133240147Y-93561426D01*
X133185000Y-93838665D01*
X133185000Y-94121335D01*
X133240147Y-94398574D01*
X133348320Y-94659727D01*
X133505363Y-94894759D01*
X133705241Y-95094637D01*
X133937759Y-95250000D01*
X133705241Y-95405363D01*
X133505363Y-95605241D01*
X133348320Y-95840273D01*
X133240147Y-96101426D01*
X133185000Y-96378665D01*
X133185000Y-96661335D01*
X133240147Y-96938574D01*
X133348320Y-97199727D01*
X133505363Y-97434759D01*
X133705241Y-97634637D01*
X133937759Y-97790000D01*
X133705241Y-97945363D01*
X133505363Y-98145241D01*
X133348320Y-98380273D01*
X133240147Y-98641426D01*
X133185000Y-98918665D01*
X133185000Y-99201335D01*
X133221312Y-99383886D01*
X131765199Y-100840000D01*
X117744013Y-100840000D01*
X117757205Y-100820256D01*
X117835226Y-100631898D01*
X117875000Y-100431939D01*
X117875000Y-100228061D01*
X117835226Y-100028102D01*
X117757205Y-99839744D01*
X117643937Y-99670226D01*
X117600000Y-99626289D01*
X117600000Y-94294801D01*
X117945000Y-93949801D01*
X117945000Y-94121335D01*
X118000147Y-94398574D01*
X118108320Y-94659727D01*
X118265363Y-94894759D01*
X118465241Y-95094637D01*
X118697759Y-95250000D01*
X118465241Y-95405363D01*
X118265363Y-95605241D01*
X118108320Y-95840273D01*
X118000147Y-96101426D01*
X117945000Y-96378665D01*
X117945000Y-96661335D01*
X118000147Y-96938574D01*
X118108320Y-97199727D01*
X118265363Y-97434759D01*
X118465241Y-97634637D01*
X118697759Y-97790000D01*
X118465241Y-97945363D01*
X118265363Y-98145241D01*
X118108320Y-98380273D01*
X118000147Y-98641426D01*
X117945000Y-98918665D01*
X117945000Y-99201335D01*
X118000147Y-99478574D01*
X118108320Y-99739727D01*
X118265363Y-99974759D01*
X118465241Y-100174637D01*
X118700273Y-100331680D01*
X118961426Y-100439853D01*
X119238665Y-100495000D01*
X119521335Y-100495000D01*
X119798574Y-100439853D01*
X120059727Y-100331680D01*
X120294759Y-100174637D01*
X120494637Y-99974759D01*
X120651680Y-99739727D01*
X120759853Y-99478574D01*
X120815000Y-99201335D01*
X120815000Y-98918665D01*
X120778688Y-98736113D01*
X123701003Y-95813799D01*
X123730001Y-95790001D01*
X123824974Y-95674276D01*
X123895546Y-95542247D01*
X123939003Y-95398986D01*
X123950000Y-95287333D01*
X123950000Y-95287325D01*
X123953676Y-95250000D01*
X123950000Y-95212675D01*
X123950000Y-93878061D01*
X124695000Y-93878061D01*
X124695000Y-94081939D01*
X124734774Y-94281898D01*
X124812795Y-94470256D01*
X124926063Y-94639774D01*
X125070226Y-94783937D01*
X125239744Y-94897205D01*
X125428102Y-94975226D01*
X125628061Y-95015000D01*
X125690199Y-95015000D01*
X126436201Y-95761003D01*
X126459999Y-95790001D01*
X126575724Y-95884974D01*
X126707753Y-95955546D01*
X126851014Y-95999003D01*
X126962667Y-96010000D01*
X126962676Y-96010000D01*
X126999999Y-96013676D01*
X127037322Y-96010000D01*
X131376289Y-96010000D01*
X131420226Y-96053937D01*
X131589744Y-96167205D01*
X131778102Y-96245226D01*
X131978061Y-96285000D01*
X132181939Y-96285000D01*
X132381898Y-96245226D01*
X132570256Y-96167205D01*
X132739774Y-96053937D01*
X132883937Y-95909774D01*
X132997205Y-95740256D01*
X133075226Y-95551898D01*
X133115000Y-95351939D01*
X133115000Y-95148061D01*
X133075226Y-94948102D01*
X132997205Y-94759744D01*
X132883937Y-94590226D01*
X132739774Y-94446063D01*
X132570256Y-94332795D01*
X132381898Y-94254774D01*
X132181939Y-94215000D01*
X131978061Y-94215000D01*
X131778102Y-94254774D01*
X131589744Y-94332795D01*
X131420226Y-94446063D01*
X131376289Y-94490000D01*
X127314802Y-94490000D01*
X126765000Y-93940199D01*
X126765000Y-93878061D01*
X126725226Y-93678102D01*
X126647205Y-93489744D01*
X126533937Y-93320226D01*
X126389774Y-93176063D01*
X126220256Y-93062795D01*
X126031898Y-92984774D01*
X125831939Y-92945000D01*
X125628061Y-92945000D01*
X125428102Y-92984774D01*
X125239744Y-93062795D01*
X125070226Y-93176063D01*
X124926063Y-93320226D01*
X124812795Y-93489744D01*
X124734774Y-93678102D01*
X124695000Y-93878061D01*
X123950000Y-93878061D01*
X123950000Y-71469039D01*
X133228096Y-71469039D01*
X133268754Y-71603087D01*
X133388963Y-71857420D01*
X133556481Y-72083414D01*
X133764869Y-72272385D01*
X133960982Y-72390000D01*
X133764869Y-72507615D01*
X133556481Y-72696586D01*
X133388963Y-72922580D01*
X133268754Y-73176913D01*
X133228096Y-73310961D01*
X133350085Y-73533000D01*
X134493000Y-73533000D01*
X134493000Y-71247000D01*
X134747000Y-71247000D01*
X134747000Y-73533000D01*
X135889915Y-73533000D01*
X136011904Y-73310961D01*
X135971246Y-73176913D01*
X135851037Y-72922580D01*
X135683519Y-72696586D01*
X135475131Y-72507615D01*
X135279018Y-72390000D01*
X135475131Y-72272385D01*
X135683519Y-72083414D01*
X135851037Y-71857420D01*
X135971246Y-71603087D01*
X136011904Y-71469039D01*
X135889915Y-71247000D01*
X134747000Y-71247000D01*
X134493000Y-71247000D01*
X133350085Y-71247000D01*
X133228096Y-71469039D01*
X123950000Y-71469039D01*
X123950000Y-70770961D01*
X133228096Y-70770961D01*
X133350085Y-70993000D01*
X134493000Y-70993000D01*
X134493000Y-69849376D01*
X134747000Y-69849376D01*
X134747000Y-70993000D01*
X135889915Y-70993000D01*
X136011904Y-70770961D01*
X135971246Y-70636913D01*
X135851037Y-70382580D01*
X135683519Y-70156586D01*
X135475131Y-69967615D01*
X135233881Y-69822930D01*
X134969040Y-69728091D01*
X134747000Y-69849376D01*
X134493000Y-69849376D01*
X134270960Y-69728091D01*
X134006119Y-69822930D01*
X133764869Y-69967615D01*
X133556481Y-70156586D01*
X133388963Y-70382580D01*
X133268754Y-70636913D01*
X133228096Y-70770961D01*
X123950000Y-70770961D01*
X123950000Y-62267323D01*
X123953676Y-62230000D01*
X123950000Y-62192677D01*
X123950000Y-62192667D01*
X123939003Y-62081014D01*
X123895546Y-61937753D01*
X123824974Y-61805724D01*
X123730001Y-61689999D01*
X123701004Y-61666202D01*
X122773072Y-60738271D01*
X122773072Y-59475000D01*
X122760812Y-59350518D01*
X122724502Y-59230820D01*
X122665537Y-59120506D01*
X122586185Y-59023815D01*
X122489494Y-58944463D01*
X122379180Y-58885498D01*
X122259482Y-58849188D01*
X122135000Y-58836928D01*
X120435000Y-58836928D01*
X120310518Y-58849188D01*
X120190820Y-58885498D01*
X120080506Y-58944463D01*
X119983815Y-59023815D01*
X119904463Y-59120506D01*
X119845498Y-59230820D01*
X119809188Y-59350518D01*
X119796928Y-59475000D01*
X119796928Y-61175000D01*
X119809188Y-61299482D01*
X119845498Y-61419180D01*
X119904463Y-61529494D01*
X119983815Y-61626185D01*
X120080506Y-61705537D01*
X120190820Y-61764502D01*
X120263380Y-61786513D01*
X120131525Y-61918368D01*
X119969010Y-62161589D01*
X119857068Y-62431842D01*
X119800000Y-62718740D01*
X119800000Y-63011260D01*
X119857068Y-63298158D01*
X119969010Y-63568411D01*
X120131525Y-63811632D01*
X120338368Y-64018475D01*
X120581589Y-64180990D01*
X120851842Y-64292932D01*
X121138740Y-64350000D01*
X121431260Y-64350000D01*
X121718158Y-64292932D01*
X121988411Y-64180990D01*
X122231632Y-64018475D01*
X122430000Y-63820107D01*
X122430001Y-94935197D01*
X120815000Y-96550198D01*
X120815000Y-96378665D01*
X120759853Y-96101426D01*
X120651680Y-95840273D01*
X120494637Y-95605241D01*
X120294759Y-95405363D01*
X120062241Y-95250000D01*
X120294759Y-95094637D01*
X120494637Y-94894759D01*
X120651680Y-94659727D01*
X120759853Y-94398574D01*
X120815000Y-94121335D01*
X120815000Y-93838665D01*
X120759853Y-93561426D01*
X120651680Y-93300273D01*
X120494637Y-93065241D01*
X120294759Y-92865363D01*
X120062241Y-92710000D01*
X120294759Y-92554637D01*
X120494637Y-92354759D01*
X120651680Y-92119727D01*
X120759853Y-91858574D01*
X120815000Y-91581335D01*
X120815000Y-91298665D01*
X120759853Y-91021426D01*
X120651680Y-90760273D01*
X120494637Y-90525241D01*
X120294759Y-90325363D01*
X120062241Y-90170000D01*
X120294759Y-90014637D01*
X120494637Y-89814759D01*
X120651680Y-89579727D01*
X120759853Y-89318574D01*
X120815000Y-89041335D01*
X120815000Y-88758665D01*
X120759853Y-88481426D01*
X120651680Y-88220273D01*
X120494637Y-87985241D01*
X120294759Y-87785363D01*
X120062241Y-87630000D01*
X120294759Y-87474637D01*
X120494637Y-87274759D01*
X120651680Y-87039727D01*
X120759853Y-86778574D01*
X120815000Y-86501335D01*
X120815000Y-86218665D01*
X120759853Y-85941426D01*
X120651680Y-85680273D01*
X120494637Y-85445241D01*
X120294759Y-85245363D01*
X120062241Y-85090000D01*
X120294759Y-84934637D01*
X120494637Y-84734759D01*
X120651680Y-84499727D01*
X120759853Y-84238574D01*
X120815000Y-83961335D01*
X120815000Y-83678665D01*
X120759853Y-83401426D01*
X120651680Y-83140273D01*
X120494637Y-82905241D01*
X120294759Y-82705363D01*
X120062241Y-82550000D01*
X120294759Y-82394637D01*
X120494637Y-82194759D01*
X120651680Y-81959727D01*
X120759853Y-81698574D01*
X120815000Y-81421335D01*
X120815000Y-81138665D01*
X120759853Y-80861426D01*
X120651680Y-80600273D01*
X120494637Y-80365241D01*
X120294759Y-80165363D01*
X120062241Y-80010000D01*
X120294759Y-79854637D01*
X120494637Y-79654759D01*
X120651680Y-79419727D01*
X120759853Y-79158574D01*
X120815000Y-78881335D01*
X120815000Y-78598665D01*
X120759853Y-78321426D01*
X120651680Y-78060273D01*
X120494637Y-77825241D01*
X120294759Y-77625363D01*
X120140000Y-77521957D01*
X120140000Y-77418043D01*
X120294759Y-77314637D01*
X120494637Y-77114759D01*
X120651680Y-76879727D01*
X120759853Y-76618574D01*
X120815000Y-76341335D01*
X120815000Y-76058665D01*
X120759853Y-75781426D01*
X120651680Y-75520273D01*
X120494637Y-75285241D01*
X120294759Y-75085363D01*
X120062241Y-74930000D01*
X120294759Y-74774637D01*
X120494637Y-74574759D01*
X120651680Y-74339727D01*
X120759853Y-74078574D01*
X120815000Y-73801335D01*
X120815000Y-73518665D01*
X120759853Y-73241426D01*
X120651680Y-72980273D01*
X120494637Y-72745241D01*
X120296039Y-72546643D01*
X120304482Y-72545812D01*
X120424180Y-72509502D01*
X120534494Y-72450537D01*
X120631185Y-72371185D01*
X120710537Y-72274494D01*
X120769502Y-72164180D01*
X120805812Y-72044482D01*
X120818072Y-71920000D01*
X120815000Y-71405750D01*
X120656250Y-71247000D01*
X119507000Y-71247000D01*
X119507000Y-71267000D01*
X119253000Y-71267000D01*
X119253000Y-71247000D01*
X118103750Y-71247000D01*
X117945000Y-71405750D01*
X117941928Y-71920000D01*
X117954188Y-72044482D01*
X117990498Y-72164180D01*
X118049463Y-72274494D01*
X118128815Y-72371185D01*
X118225506Y-72450537D01*
X118335820Y-72509502D01*
X118455518Y-72545812D01*
X118463961Y-72546643D01*
X118265363Y-72745241D01*
X118108320Y-72980273D01*
X118000147Y-73241426D01*
X117945000Y-73518665D01*
X117945000Y-73690199D01*
X117455001Y-73200200D01*
X117455001Y-70320000D01*
X117941928Y-70320000D01*
X117945000Y-70834250D01*
X118103750Y-70993000D01*
X119253000Y-70993000D01*
X119253000Y-69843750D01*
X119507000Y-69843750D01*
X119507000Y-70993000D01*
X120656250Y-70993000D01*
X120815000Y-70834250D01*
X120818072Y-70320000D01*
X120805812Y-70195518D01*
X120769502Y-70075820D01*
X120710537Y-69965506D01*
X120631185Y-69868815D01*
X120534494Y-69789463D01*
X120424180Y-69730498D01*
X120304482Y-69694188D01*
X120180000Y-69681928D01*
X119665750Y-69685000D01*
X119507000Y-69843750D01*
X119253000Y-69843750D01*
X119094250Y-69685000D01*
X118580000Y-69681928D01*
X118455518Y-69694188D01*
X118335820Y-69730498D01*
X118225506Y-69789463D01*
X118128815Y-69868815D01*
X118049463Y-69965506D01*
X117990498Y-70075820D01*
X117954188Y-70195518D01*
X117941928Y-70320000D01*
X117455001Y-70320000D01*
X117455001Y-67202334D01*
X117458678Y-67165001D01*
X117444004Y-67016015D01*
X117400547Y-66872754D01*
X117329975Y-66740725D01*
X117258800Y-66653998D01*
X117235002Y-66625000D01*
X117206004Y-66601202D01*
X112693467Y-62088665D01*
X114135000Y-62088665D01*
X114135000Y-62371335D01*
X114190147Y-62648574D01*
X114298320Y-62909727D01*
X114455363Y-63144759D01*
X114655241Y-63344637D01*
X114890273Y-63501680D01*
X115151426Y-63609853D01*
X115428665Y-63665000D01*
X115711335Y-63665000D01*
X115988574Y-63609853D01*
X116249727Y-63501680D01*
X116484759Y-63344637D01*
X116684637Y-63144759D01*
X116841680Y-62909727D01*
X116949853Y-62648574D01*
X117005000Y-62371335D01*
X117005000Y-62088665D01*
X116949853Y-61811426D01*
X116841680Y-61550273D01*
X116684637Y-61315241D01*
X116484759Y-61115363D01*
X116249727Y-60958320D01*
X115988574Y-60850147D01*
X115711335Y-60795000D01*
X115428665Y-60795000D01*
X115151426Y-60850147D01*
X114890273Y-60958320D01*
X114655241Y-61115363D01*
X114455363Y-61315241D01*
X114298320Y-61550273D01*
X114190147Y-61811426D01*
X114135000Y-62088665D01*
X112693467Y-62088665D01*
X111931209Y-61326408D01*
X111975000Y-61106260D01*
X111975000Y-60813740D01*
X111917932Y-60526842D01*
X111805990Y-60256589D01*
X111643475Y-60013368D01*
X111436632Y-59806525D01*
X111254466Y-59684805D01*
X111371355Y-59615178D01*
X111587588Y-59420269D01*
X111761641Y-59186920D01*
X111886825Y-58924099D01*
X111931476Y-58776890D01*
X111810155Y-58547000D01*
X110617000Y-58547000D01*
X110617000Y-58567000D01*
X110363000Y-58567000D01*
X110363000Y-58547000D01*
X109169845Y-58547000D01*
X109048524Y-58776890D01*
X109093175Y-58924099D01*
X109218359Y-59186920D01*
X109392412Y-59420269D01*
X109608645Y-59615178D01*
X109725534Y-59684805D01*
X109543368Y-59806525D01*
X109336525Y-60013368D01*
X109174010Y-60256589D01*
X109062068Y-60526842D01*
X109005000Y-60813740D01*
X108610000Y-60813740D01*
X108610000Y-55030000D01*
X109001928Y-55030000D01*
X109001928Y-56730000D01*
X109014188Y-56854482D01*
X109050498Y-56974180D01*
X109109463Y-57084494D01*
X109188815Y-57181185D01*
X109285506Y-57260537D01*
X109395820Y-57319502D01*
X109476466Y-57343966D01*
X109392412Y-57419731D01*
X109218359Y-57653080D01*
X109093175Y-57915901D01*
X109048524Y-58063110D01*
X109169845Y-58293000D01*
X110363000Y-58293000D01*
X110363000Y-58273000D01*
X110617000Y-58273000D01*
X110617000Y-58293000D01*
X111810155Y-58293000D01*
X111931476Y-58063110D01*
X111886825Y-57915901D01*
X111761641Y-57653080D01*
X111587588Y-57419731D01*
X111503534Y-57343966D01*
X111584180Y-57319502D01*
X111694494Y-57260537D01*
X111791185Y-57181185D01*
X111870537Y-57084494D01*
X111929502Y-56974180D01*
X111965812Y-56854482D01*
X111978072Y-56730000D01*
X111978072Y-56236891D01*
X124288519Y-56236891D01*
X124385843Y-56511252D01*
X124534822Y-56761355D01*
X124729731Y-56977588D01*
X124963080Y-57151641D01*
X125225901Y-57276825D01*
X125373110Y-57321476D01*
X125603000Y-57200155D01*
X125603000Y-56007000D01*
X124409186Y-56007000D01*
X124288519Y-56236891D01*
X111978072Y-56236891D01*
X111978072Y-55523109D01*
X124288519Y-55523109D01*
X124409186Y-55753000D01*
X125603000Y-55753000D01*
X125603000Y-54559845D01*
X125857000Y-54559845D01*
X125857000Y-55753000D01*
X125877000Y-55753000D01*
X125877000Y-56007000D01*
X125857000Y-56007000D01*
X125857000Y-57200155D01*
X126086890Y-57321476D01*
X126234099Y-57276825D01*
X126496920Y-57151641D01*
X126730269Y-56977588D01*
X126925178Y-56761355D01*
X126994805Y-56644466D01*
X127116525Y-56826632D01*
X127323368Y-57033475D01*
X127566589Y-57195990D01*
X127836842Y-57307932D01*
X128123740Y-57365000D01*
X128416260Y-57365000D01*
X128703158Y-57307932D01*
X128973411Y-57195990D01*
X129216632Y-57033475D01*
X129423475Y-56826632D01*
X129540000Y-56652240D01*
X129656525Y-56826632D01*
X129863368Y-57033475D01*
X130106589Y-57195990D01*
X130376842Y-57307932D01*
X130663740Y-57365000D01*
X130956260Y-57365000D01*
X131243158Y-57307932D01*
X131513411Y-57195990D01*
X131756632Y-57033475D01*
X131888487Y-56901620D01*
X131910498Y-56974180D01*
X131969463Y-57084494D01*
X132048815Y-57181185D01*
X132145506Y-57260537D01*
X132255820Y-57319502D01*
X132375518Y-57355812D01*
X132500000Y-57368072D01*
X134200000Y-57368072D01*
X134324482Y-57355812D01*
X134444180Y-57319502D01*
X134554494Y-57260537D01*
X134651185Y-57181185D01*
X134730537Y-57084494D01*
X134789502Y-56974180D01*
X134825812Y-56854482D01*
X134838072Y-56730000D01*
X134838072Y-55030000D01*
X134825812Y-54905518D01*
X134789502Y-54785820D01*
X134730537Y-54675506D01*
X134651185Y-54578815D01*
X134554494Y-54499463D01*
X134444180Y-54440498D01*
X134324482Y-54404188D01*
X134200000Y-54391928D01*
X132500000Y-54391928D01*
X132375518Y-54404188D01*
X132255820Y-54440498D01*
X132145506Y-54499463D01*
X132048815Y-54578815D01*
X131969463Y-54675506D01*
X131910498Y-54785820D01*
X131888487Y-54858380D01*
X131756632Y-54726525D01*
X131513411Y-54564010D01*
X131243158Y-54452068D01*
X130956260Y-54395000D01*
X130663740Y-54395000D01*
X130376842Y-54452068D01*
X130106589Y-54564010D01*
X129863368Y-54726525D01*
X129656525Y-54933368D01*
X129540000Y-55107760D01*
X129423475Y-54933368D01*
X129216632Y-54726525D01*
X128973411Y-54564010D01*
X128703158Y-54452068D01*
X128416260Y-54395000D01*
X128123740Y-54395000D01*
X127836842Y-54452068D01*
X127566589Y-54564010D01*
X127323368Y-54726525D01*
X127116525Y-54933368D01*
X126994805Y-55115534D01*
X126925178Y-54998645D01*
X126730269Y-54782412D01*
X126496920Y-54608359D01*
X126234099Y-54483175D01*
X126086890Y-54438524D01*
X125857000Y-54559845D01*
X125603000Y-54559845D01*
X125373110Y-54438524D01*
X125225901Y-54483175D01*
X124963080Y-54608359D01*
X124729731Y-54782412D01*
X124534822Y-54998645D01*
X124385843Y-55248748D01*
X124288519Y-55523109D01*
X111978072Y-55523109D01*
X111978072Y-55030000D01*
X111965812Y-54905518D01*
X111929502Y-54785820D01*
X111870537Y-54675506D01*
X111791185Y-54578815D01*
X111694494Y-54499463D01*
X111584180Y-54440498D01*
X111464482Y-54404188D01*
X111340000Y-54391928D01*
X109640000Y-54391928D01*
X109515518Y-54404188D01*
X109395820Y-54440498D01*
X109285506Y-54499463D01*
X109188815Y-54578815D01*
X109109463Y-54675506D01*
X109050498Y-54785820D01*
X109014188Y-54905518D01*
X109001928Y-55030000D01*
X108610000Y-55030000D01*
X108610000Y-54000000D01*
X153396620Y-54000000D01*
X158090000Y-58693381D01*
%TD*%
M02*
