%TF.GenerationSoftware,KiCad,Pcbnew,5.1.6-c6e7f7d~87~ubuntu18.04.1*%
%TF.CreationDate,2020-07-13T17:05:48+01:00*%
%TF.ProjectId,Serial_6850_Rev1,53657269-616c-45f3-9638-35305f526576,rev?*%
%TF.SameCoordinates,Original*%
%TF.FileFunction,Copper,L1,Top*%
%TF.FilePolarity,Positive*%
%FSLAX46Y46*%
G04 Gerber Fmt 4.6, Leading zero omitted, Abs format (unit mm)*
G04 Created by KiCad (PCBNEW 5.1.6-c6e7f7d~87~ubuntu18.04.1) date 2020-07-13 17:05:48*
%MOMM*%
%LPD*%
G01*
G04 APERTURE LIST*
%TA.AperFunction,ComponentPad*%
%ADD10O,1.700000X1.700000*%
%TD*%
%TA.AperFunction,ComponentPad*%
%ADD11R,1.700000X1.700000*%
%TD*%
%TA.AperFunction,ComponentPad*%
%ADD12O,1.600000X1.600000*%
%TD*%
%TA.AperFunction,ComponentPad*%
%ADD13R,1.600000X1.600000*%
%TD*%
%TA.AperFunction,ComponentPad*%
%ADD14C,1.600000*%
%TD*%
%TA.AperFunction,ViaPad*%
%ADD15C,0.800000*%
%TD*%
%TA.AperFunction,Conductor*%
%ADD16C,0.250000*%
%TD*%
G04 APERTURE END LIST*
D10*
%TO.P,J1,40*%
%TO.N,Net-(J1-Pad40)*%
X110490000Y-154940000D03*
%TO.P,J1,39*%
%TO.N,Net-(J1-Pad39)*%
X110490000Y-152400000D03*
%TO.P,J1,38*%
%TO.N,Net-(J1-Pad38)*%
X110490000Y-149860000D03*
%TO.P,J1,37*%
%TO.N,Net-(J1-Pad37)*%
X110490000Y-147320000D03*
%TO.P,J1,36*%
%TO.N,Net-(J1-Pad36)*%
X110490000Y-144780000D03*
%TO.P,J1,35*%
%TO.N,Net-(J1-Pad35)*%
X110490000Y-142240000D03*
%TO.P,J1,34*%
%TO.N,Net-(J1-Pad34)*%
X110490000Y-139700000D03*
%TO.P,J1,33*%
%TO.N,Net-(J1-Pad33)*%
X110490000Y-137160000D03*
%TO.P,J1,32*%
%TO.N,Net-(J1-Pad32)*%
X110490000Y-134620000D03*
%TO.P,J1,31*%
%TO.N,Net-(J1-Pad31)*%
X110490000Y-132080000D03*
%TO.P,J1,30*%
%TO.N,Net-(J1-Pad30)*%
X110490000Y-129540000D03*
%TO.P,J1,29*%
%TO.N,Net-(J1-Pad29)*%
X110490000Y-127000000D03*
%TO.P,J1,28*%
%TO.N,Net-(J1-Pad28)*%
X110490000Y-124460000D03*
%TO.P,J1,27*%
%TO.N,Net-(J1-Pad27)*%
X110490000Y-121920000D03*
%TO.P,J1,26*%
%TO.N,Net-(J1-Pad26)*%
X110490000Y-119380000D03*
%TO.P,J1,25*%
%TO.N,Net-(J1-Pad25)*%
X110490000Y-116840000D03*
%TO.P,J1,24*%
%TO.N,Net-(J1-Pad24)*%
X110490000Y-114300000D03*
%TO.P,J1,23*%
%TO.N,Net-(J1-Pad23)*%
X110490000Y-111760000D03*
%TO.P,J1,22*%
%TO.N,Net-(J1-Pad22)*%
X110490000Y-109220000D03*
%TO.P,J1,21*%
%TO.N,Net-(J1-Pad21)*%
X110490000Y-106680000D03*
%TO.P,J1,20*%
%TO.N,Net-(J1-Pad20)*%
X110490000Y-104140000D03*
%TO.P,J1,19*%
%TO.N,Net-(J1-Pad19)*%
X110490000Y-101600000D03*
%TO.P,J1,18*%
%TO.N,Net-(J1-Pad18)*%
X110490000Y-99060000D03*
%TO.P,J1,17*%
%TO.N,Net-(J1-Pad17)*%
X110490000Y-96520000D03*
%TO.P,J1,16*%
%TO.N,Net-(J1-Pad16)*%
X110490000Y-93980000D03*
%TO.P,J1,15*%
%TO.N,Net-(J1-Pad15)*%
X110490000Y-91440000D03*
%TO.P,J1,14*%
%TO.N,Net-(J1-Pad14)*%
X110490000Y-88900000D03*
%TO.P,J1,13*%
%TO.N,Net-(J1-Pad13)*%
X110490000Y-86360000D03*
%TO.P,J1,12*%
%TO.N,Net-(J1-Pad12)*%
X110490000Y-83820000D03*
%TO.P,J1,11*%
%TO.N,Net-(J1-Pad11)*%
X110490000Y-81280000D03*
%TO.P,J1,10*%
%TO.N,Net-(J1-Pad10)*%
X110490000Y-78740000D03*
%TO.P,J1,9*%
%TO.N,Net-(J1-Pad9)*%
X110490000Y-76200000D03*
%TO.P,J1,8*%
%TO.N,Net-(J1-Pad8)*%
X110490000Y-73660000D03*
%TO.P,J1,7*%
%TO.N,Net-(J1-Pad7)*%
X110490000Y-71120000D03*
%TO.P,J1,6*%
%TO.N,Net-(J1-Pad6)*%
X110490000Y-68580000D03*
%TO.P,J1,5*%
%TO.N,Net-(D1-Pad2)*%
X110490000Y-66040000D03*
%TO.P,J1,4*%
%TO.N,Net-(J1-Pad4)*%
X110490000Y-63500000D03*
%TO.P,J1,3*%
%TO.N,Net-(J1-Pad3)*%
X110490000Y-60960000D03*
%TO.P,J1,2*%
%TO.N,/GND*%
X110490000Y-58420000D03*
D11*
%TO.P,J1,1*%
%TO.N,/+5V*%
X110490000Y-55880000D03*
%TD*%
D10*
%TO.P,J2,4*%
%TO.N,/GND*%
X125730000Y-55880000D03*
%TO.P,J2,3*%
%TO.N,Net-(J2-Pad3)*%
X128270000Y-55880000D03*
%TO.P,J2,2*%
%TO.N,Net-(J2-Pad2)*%
X130810000Y-55880000D03*
D11*
%TO.P,J2,1*%
%TO.N,Net-(J2-Pad1)*%
X133350000Y-55880000D03*
%TD*%
D12*
%TO.P,U3,24*%
%TO.N,/GND*%
X134620000Y-71120000D03*
%TO.P,U3,12*%
%TO.N,/+5V*%
X119380000Y-99060000D03*
%TO.P,U3,23*%
%TO.N,/GND*%
X134620000Y-73660000D03*
%TO.P,U3,11*%
%TO.N,Net-(J1-Pad19)*%
X119380000Y-96520000D03*
%TO.P,U3,22*%
%TO.N,Net-(J1-Pad6)*%
X134620000Y-76200000D03*
%TO.P,U3,10*%
%TO.N,CS1*%
X119380000Y-93980000D03*
%TO.P,U3,21*%
%TO.N,Net-(J1-Pad7)*%
X134620000Y-78740000D03*
%TO.P,U3,9*%
%TO.N,CS2*%
X119380000Y-91440000D03*
%TO.P,U3,20*%
%TO.N,Net-(J1-Pad8)*%
X134620000Y-81280000D03*
%TO.P,U3,8*%
%TO.N,CS0*%
X119380000Y-88900000D03*
%TO.P,U3,19*%
%TO.N,Net-(J1-Pad9)*%
X134620000Y-83820000D03*
%TO.P,U3,7*%
%TO.N,Net-(D1-Pad1)*%
X119380000Y-86360000D03*
%TO.P,U3,18*%
%TO.N,Net-(J1-Pad10)*%
X134620000Y-86360000D03*
%TO.P,U3,6*%
%TO.N,Net-(R2-Pad2)*%
X119380000Y-83820000D03*
%TO.P,U3,17*%
%TO.N,Net-(J1-Pad11)*%
X134620000Y-88900000D03*
%TO.P,U3,5*%
%TO.N,Net-(U3-Pad5)*%
X119380000Y-81280000D03*
%TO.P,U3,16*%
%TO.N,Net-(J1-Pad12)*%
X134620000Y-91440000D03*
%TO.P,U3,4*%
%TO.N,Net-(J1-Pad3)*%
X119380000Y-78740000D03*
%TO.P,U3,15*%
%TO.N,Net-(J1-Pad13)*%
X134620000Y-93980000D03*
%TO.P,U3,3*%
%TO.N,Net-(J1-Pad3)*%
X119380000Y-76200000D03*
%TO.P,U3,14*%
%TO.N,Net-(U1-Pad2)*%
X134620000Y-96520000D03*
%TO.P,U3,2*%
%TO.N,Net-(R1-Pad2)*%
X119380000Y-73660000D03*
%TO.P,U3,13*%
%TO.N,Net-(J1-Pad17)*%
X134620000Y-99060000D03*
D13*
%TO.P,U3,1*%
%TO.N,/GND*%
X119380000Y-71120000D03*
%TD*%
D12*
%TO.P,U2,14*%
%TO.N,/+5V*%
X127000000Y-104140000D03*
%TO.P,U2,7*%
%TO.N,/GND*%
X119380000Y-119380000D03*
%TO.P,U2,13*%
%TO.N,Net-(J1-Pad25)*%
X127000000Y-106680000D03*
%TO.P,U2,6*%
%TO.N,Net-(U2-Pad10)*%
X119380000Y-116840000D03*
%TO.P,U2,12*%
%TO.N,Net-(J1-Pad24)*%
X127000000Y-109220000D03*
%TO.P,U2,5*%
%TO.N,Net-(J1-Pad23)*%
X119380000Y-114300000D03*
%TO.P,U2,11*%
%TO.N,Net-(U1-Pad3)*%
X127000000Y-111760000D03*
%TO.P,U2,4*%
%TO.N,Net-(J1-Pad22)*%
X119380000Y-111760000D03*
%TO.P,U2,10*%
%TO.N,Net-(U2-Pad10)*%
X127000000Y-114300000D03*
%TO.P,U2,3*%
%TO.N,Net-(U2-Pad3)*%
X119380000Y-109220000D03*
%TO.P,U2,9*%
X127000000Y-116840000D03*
%TO.P,U2,2*%
%TO.N,Net-(J1-Pad21)*%
X119380000Y-106680000D03*
%TO.P,U2,8*%
%TO.N,CS2*%
X127000000Y-119380000D03*
D13*
%TO.P,U2,1*%
%TO.N,Net-(J1-Pad20)*%
X119380000Y-104140000D03*
%TD*%
D12*
%TO.P,U1,14*%
%TO.N,/+5V*%
X138430000Y-104140000D03*
%TO.P,U1,7*%
%TO.N,/GND*%
X130810000Y-119380000D03*
%TO.P,U1,13*%
%TO.N,N/C*%
X138430000Y-106680000D03*
%TO.P,U1,6*%
%TO.N,CS0*%
X130810000Y-116840000D03*
%TO.P,U1,12*%
%TO.N,N/C*%
X138430000Y-109220000D03*
%TO.P,U1,5*%
%TO.N,Net-(J1-Pad26)*%
X130810000Y-114300000D03*
%TO.P,U1,11*%
%TO.N,N/C*%
X138430000Y-111760000D03*
%TO.P,U1,4*%
%TO.N,CS1*%
X130810000Y-111760000D03*
%TO.P,U1,10*%
%TO.N,N/C*%
X138430000Y-114300000D03*
%TO.P,U1,3*%
%TO.N,Net-(U1-Pad3)*%
X130810000Y-109220000D03*
%TO.P,U1,9*%
%TO.N,N/C*%
X138430000Y-116840000D03*
%TO.P,U1,2*%
%TO.N,Net-(U1-Pad2)*%
X130810000Y-106680000D03*
%TO.P,U1,8*%
%TO.N,N/C*%
X138430000Y-119380000D03*
D13*
%TO.P,U1,1*%
%TO.N,Net-(J1-Pad15)*%
X130810000Y-104140000D03*
%TD*%
D12*
%TO.P,R2,2*%
%TO.N,Net-(R2-Pad2)*%
X139700000Y-83820000D03*
D14*
%TO.P,R2,1*%
%TO.N,Net-(J2-Pad2)*%
X139700000Y-76200000D03*
%TD*%
D12*
%TO.P,R1,2*%
%TO.N,Net-(R1-Pad2)*%
X143510000Y-83820000D03*
D14*
%TO.P,R1,1*%
%TO.N,Net-(J2-Pad1)*%
X143510000Y-76200000D03*
%TD*%
D10*
%TO.P,JP1,2*%
%TO.N,Net-(J2-Pad3)*%
X121285000Y-62865000D03*
D11*
%TO.P,JP1,1*%
%TO.N,/+5V*%
X121285000Y-60325000D03*
%TD*%
D12*
%TO.P,D1,2*%
%TO.N,Net-(D1-Pad2)*%
X115570000Y-62230000D03*
D13*
%TO.P,D1,1*%
%TO.N,Net-(D1-Pad1)*%
X115570000Y-69850000D03*
%TD*%
D15*
%TO.N,CS0*%
X125730000Y-88900000D03*
%TO.N,CS1*%
X132080000Y-95250000D03*
X125730000Y-93980000D03*
%TO.N,CS2*%
X116840000Y-100330000D03*
X116840000Y-102870000D03*
%TD*%
D16*
%TO.N,Net-(D1-Pad2)*%
X115395000Y-62230000D02*
X115570000Y-62230000D01*
X111240000Y-66385000D02*
X115395000Y-62230000D01*
%TO.N,Net-(J1-Pad26)*%
X127470003Y-120574999D02*
X128575011Y-119469991D01*
X111240000Y-119725000D02*
X112089999Y-120574999D01*
X112089999Y-120574999D02*
X127470003Y-120574999D01*
X128575011Y-116534989D02*
X130810000Y-114300000D01*
X128575011Y-119469991D02*
X128575011Y-116534989D01*
%TO.N,Net-(J1-Pad25)*%
X127470003Y-118034999D02*
X128125001Y-117380001D01*
X128125001Y-117380001D02*
X128125001Y-107805001D01*
X112089999Y-118034999D02*
X127470003Y-118034999D01*
X128125001Y-107805001D02*
X127000000Y-106680000D01*
X111240000Y-117185000D02*
X112089999Y-118034999D01*
%TO.N,Net-(J1-Pad24)*%
X120725001Y-115494999D02*
X127000000Y-109220000D01*
X112089999Y-115494999D02*
X120725001Y-115494999D01*
X111240000Y-114645000D02*
X112089999Y-115494999D01*
%TO.N,Net-(J1-Pad23)*%
X117185000Y-112105000D02*
X119380000Y-114300000D01*
X111240000Y-112105000D02*
X117185000Y-112105000D01*
%TO.N,Net-(J1-Pad22)*%
X117185000Y-109565000D02*
X119380000Y-111760000D01*
X111240000Y-109565000D02*
X117185000Y-109565000D01*
%TO.N,Net-(J1-Pad21)*%
X119035000Y-107025000D02*
X119380000Y-106680000D01*
X111240000Y-107025000D02*
X119035000Y-107025000D01*
%TO.N,Net-(J1-Pad20)*%
X119035000Y-104485000D02*
X119380000Y-104140000D01*
X111240000Y-104485000D02*
X119035000Y-104485000D01*
%TO.N,Net-(J1-Pad19)*%
X113955000Y-101945000D02*
X119380000Y-96520000D01*
X111240000Y-101945000D02*
X113955000Y-101945000D01*
%TO.N,Net-(J1-Pad15)*%
X112089999Y-92634999D02*
X129464999Y-92634999D01*
X111240000Y-91785000D02*
X112089999Y-92634999D01*
X130810000Y-93980000D02*
X130810000Y-104140000D01*
X129464999Y-92634999D02*
X130810000Y-93980000D01*
%TO.N,Net-(J1-Pad13)*%
X111240000Y-86705000D02*
X114705000Y-90170000D01*
X130810000Y-90170000D02*
X134620000Y-93980000D01*
X114705000Y-90170000D02*
X130810000Y-90170000D01*
%TO.N,Net-(J1-Pad12)*%
X111240000Y-84165000D02*
X114705000Y-87630000D01*
X130810000Y-87630000D02*
X134620000Y-91440000D01*
X114705000Y-87630000D02*
X130810000Y-87630000D01*
%TO.N,Net-(J1-Pad11)*%
X130810000Y-85090000D02*
X134620000Y-88900000D01*
X111240000Y-81625000D02*
X114705000Y-85090000D01*
X114705000Y-85090000D02*
X130810000Y-85090000D01*
%TO.N,Net-(J1-Pad10)*%
X130810000Y-82550000D02*
X134620000Y-86360000D01*
X111240000Y-79085000D02*
X114705000Y-82550000D01*
X114705000Y-82550000D02*
X130810000Y-82550000D01*
%TO.N,Net-(J1-Pad9)*%
X111240000Y-76545000D02*
X114705000Y-80010000D01*
X130810000Y-80010000D02*
X134620000Y-83820000D01*
X114705000Y-80010000D02*
X130810000Y-80010000D01*
%TO.N,Net-(J1-Pad8)*%
X111240000Y-74005000D02*
X114705000Y-77470000D01*
X130810000Y-77470000D02*
X134620000Y-81280000D01*
X114705000Y-77470000D02*
X130810000Y-77470000D01*
%TO.N,Net-(J1-Pad7)*%
X111240000Y-71465000D02*
X114705000Y-74930000D01*
X130810000Y-74930000D02*
X134620000Y-78740000D01*
X114705000Y-74930000D02*
X130810000Y-74930000D01*
%TO.N,Net-(J1-Pad6)*%
X111240000Y-68925000D02*
X114705000Y-72390000D01*
X130810000Y-72390000D02*
X134620000Y-76200000D01*
X114705000Y-72390000D02*
X130810000Y-72390000D01*
%TO.N,Net-(J2-Pad3)*%
X121285000Y-62865000D02*
X123825000Y-60325000D01*
X121285000Y-62865000D02*
X128270000Y-55880000D01*
%TO.N,Net-(J2-Pad2)*%
X130810000Y-56515000D02*
X131445000Y-55880000D01*
X139700000Y-64770000D02*
X139700000Y-76200000D01*
X130810000Y-55880000D02*
X139700000Y-64770000D01*
%TO.N,Net-(J2-Pad1)*%
X134450000Y-55880000D02*
X143510000Y-64940000D01*
X143510000Y-64940000D02*
X143510000Y-76200000D01*
X133350000Y-55880000D02*
X134450000Y-55880000D01*
%TO.N,Net-(R1-Pad2)*%
X137304999Y-77614999D02*
X143510000Y-83820000D01*
X134369997Y-77614999D02*
X137304999Y-77614999D01*
X130414998Y-73660000D02*
X134369997Y-77614999D01*
X119380000Y-73660000D02*
X130414998Y-73660000D01*
%TO.N,Net-(R2-Pad2)*%
X136034999Y-87485001D02*
X139700000Y-83820000D01*
X134079999Y-87485001D02*
X136034999Y-87485001D01*
X130414998Y-83820000D02*
X134079999Y-87485001D01*
X119380000Y-83820000D02*
X130414998Y-83820000D01*
%TO.N,CS0*%
X137160000Y-115570000D02*
X135890000Y-116840000D01*
X135890000Y-116840000D02*
X130810000Y-116840000D01*
X125730000Y-88900000D02*
X119380000Y-88900000D01*
%TO.N,CS1*%
X132224999Y-110345001D02*
X138970001Y-110345001D01*
X130810000Y-111760000D02*
X132224999Y-110345001D01*
X138970001Y-110345001D02*
X140005010Y-109309992D01*
X140005010Y-109309992D02*
X140005010Y-100240008D01*
X140005010Y-100240008D02*
X135015002Y-95250000D01*
X135015002Y-95250000D02*
X132080000Y-95250000D01*
X125730000Y-93980000D02*
X119380000Y-93980000D01*
%TO.N,Net-(U1-Pad2)*%
X139555001Y-107220001D02*
X139555001Y-101455001D01*
X139555001Y-101455001D02*
X134620000Y-96520000D01*
X131935001Y-107805001D02*
X138970001Y-107805001D01*
X138970001Y-107805001D02*
X139555001Y-107220001D01*
X130810000Y-106680000D02*
X131935001Y-107805001D01*
%TO.N,Net-(U2-Pad10)*%
X124460000Y-116840000D02*
X127000000Y-114300000D01*
X119380000Y-116840000D02*
X124460000Y-116840000D01*
%TO.N,CS2*%
X116840000Y-100330000D02*
X116840000Y-102870000D01*
%TO.N,/+5V*%
X127000000Y-104140000D02*
X127000000Y-100330000D01*
X125730000Y-99060000D02*
X119380000Y-99060000D01*
X127000000Y-100330000D02*
X125730000Y-99060000D01*
X137304999Y-105265001D02*
X138430000Y-104140000D01*
X128125001Y-105265001D02*
X137304999Y-105265001D01*
X127000000Y-104140000D02*
X128125001Y-105265001D01*
X117185000Y-56225000D02*
X121285000Y-60325000D01*
X111240000Y-56225000D02*
X117185000Y-56225000D01*
%TD*%
M02*
