%TF.GenerationSoftware,KiCad,Pcbnew,5.1.6-c6e7f7d~87~ubuntu18.04.1*%
%TF.CreationDate,2020-07-13T17:05:48+01:00*%
%TF.ProjectId,Serial_6850_Rev1,53657269-616c-45f3-9638-35305f526576,rev?*%
%TF.SameCoordinates,Original*%
%TF.FileFunction,Soldermask,Top*%
%TF.FilePolarity,Negative*%
%FSLAX46Y46*%
G04 Gerber Fmt 4.6, Leading zero omitted, Abs format (unit mm)*
G04 Created by KiCad (PCBNEW 5.1.6-c6e7f7d~87~ubuntu18.04.1) date 2020-07-13 17:05:48*
%MOMM*%
%LPD*%
G01*
G04 APERTURE LIST*
%ADD10O,1.800000X1.800000*%
%ADD11R,1.800000X1.800000*%
%ADD12O,1.700000X1.700000*%
%ADD13R,1.700000X1.700000*%
%ADD14C,1.700000*%
G04 APERTURE END LIST*
D10*
%TO.C,J1*%
X110490000Y-154940000D03*
X110490000Y-152400000D03*
X110490000Y-149860000D03*
X110490000Y-147320000D03*
X110490000Y-144780000D03*
X110490000Y-142240000D03*
X110490000Y-139700000D03*
X110490000Y-137160000D03*
X110490000Y-134620000D03*
X110490000Y-132080000D03*
X110490000Y-129540000D03*
X110490000Y-127000000D03*
X110490000Y-124460000D03*
X110490000Y-121920000D03*
X110490000Y-119380000D03*
X110490000Y-116840000D03*
X110490000Y-114300000D03*
X110490000Y-111760000D03*
X110490000Y-109220000D03*
X110490000Y-106680000D03*
X110490000Y-104140000D03*
X110490000Y-101600000D03*
X110490000Y-99060000D03*
X110490000Y-96520000D03*
X110490000Y-93980000D03*
X110490000Y-91440000D03*
X110490000Y-88900000D03*
X110490000Y-86360000D03*
X110490000Y-83820000D03*
X110490000Y-81280000D03*
X110490000Y-78740000D03*
X110490000Y-76200000D03*
X110490000Y-73660000D03*
X110490000Y-71120000D03*
X110490000Y-68580000D03*
X110490000Y-66040000D03*
X110490000Y-63500000D03*
X110490000Y-60960000D03*
X110490000Y-58420000D03*
D11*
X110490000Y-55880000D03*
%TD*%
D10*
%TO.C,J2*%
X125730000Y-55880000D03*
X128270000Y-55880000D03*
X130810000Y-55880000D03*
D11*
X133350000Y-55880000D03*
%TD*%
D12*
%TO.C,U3*%
X134620000Y-71120000D03*
X119380000Y-99060000D03*
X134620000Y-73660000D03*
X119380000Y-96520000D03*
X134620000Y-76200000D03*
X119380000Y-93980000D03*
X134620000Y-78740000D03*
X119380000Y-91440000D03*
X134620000Y-81280000D03*
X119380000Y-88900000D03*
X134620000Y-83820000D03*
X119380000Y-86360000D03*
X134620000Y-86360000D03*
X119380000Y-83820000D03*
X134620000Y-88900000D03*
X119380000Y-81280000D03*
X134620000Y-91440000D03*
X119380000Y-78740000D03*
X134620000Y-93980000D03*
X119380000Y-76200000D03*
X134620000Y-96520000D03*
X119380000Y-73660000D03*
X134620000Y-99060000D03*
D13*
X119380000Y-71120000D03*
%TD*%
D12*
%TO.C,U2*%
X127000000Y-104140000D03*
X119380000Y-119380000D03*
X127000000Y-106680000D03*
X119380000Y-116840000D03*
X127000000Y-109220000D03*
X119380000Y-114300000D03*
X127000000Y-111760000D03*
X119380000Y-111760000D03*
X127000000Y-114300000D03*
X119380000Y-109220000D03*
X127000000Y-116840000D03*
X119380000Y-106680000D03*
X127000000Y-119380000D03*
D13*
X119380000Y-104140000D03*
%TD*%
D12*
%TO.C,U1*%
X138430000Y-104140000D03*
X130810000Y-119380000D03*
X138430000Y-106680000D03*
X130810000Y-116840000D03*
X138430000Y-109220000D03*
X130810000Y-114300000D03*
X138430000Y-111760000D03*
X130810000Y-111760000D03*
X138430000Y-114300000D03*
X130810000Y-109220000D03*
X138430000Y-116840000D03*
X130810000Y-106680000D03*
X138430000Y-119380000D03*
D13*
X130810000Y-104140000D03*
%TD*%
D12*
%TO.C,R2*%
X139700000Y-83820000D03*
D14*
X139700000Y-76200000D03*
%TD*%
D12*
%TO.C,R1*%
X143510000Y-83820000D03*
D14*
X143510000Y-76200000D03*
%TD*%
D10*
%TO.C,JP1*%
X121285000Y-62865000D03*
D11*
X121285000Y-60325000D03*
%TD*%
D12*
%TO.C,D1*%
X115570000Y-62230000D03*
D13*
X115570000Y-69850000D03*
%TD*%
M02*
