%TF.GenerationSoftware,KiCad,Pcbnew,5.1.6-c6e7f7d~87~ubuntu18.04.1*%
%TF.CreationDate,2020-07-13T16:41:44+01:00*%
%TF.ProjectId,Z80_Rev2,5a38305f-5265-4763-922e-6b696361645f,rev?*%
%TF.SameCoordinates,Original*%
%TF.FileFunction,Soldermask,Top*%
%TF.FilePolarity,Negative*%
%FSLAX46Y46*%
G04 Gerber Fmt 4.6, Leading zero omitted, Abs format (unit mm)*
G04 Created by KiCad (PCBNEW 5.1.6-c6e7f7d~87~ubuntu18.04.1) date 2020-07-13 16:41:44*
%MOMM*%
%LPD*%
G01*
G04 APERTURE LIST*
%ADD10O,1.700000X1.700000*%
%ADD11R,1.700000X1.700000*%
%ADD12C,1.700000*%
%ADD13O,1.800000X1.800000*%
%ADD14R,1.800000X1.800000*%
%ADD15C,1.900000*%
%ADD16R,1.900000X1.900000*%
G04 APERTURE END LIST*
D10*
%TO.C,U1*%
X88900000Y-101600000D03*
X104140000Y-53340000D03*
X88900000Y-99060000D03*
X104140000Y-55880000D03*
X88900000Y-96520000D03*
X104140000Y-58420000D03*
X88900000Y-93980000D03*
X104140000Y-60960000D03*
X88900000Y-91440000D03*
X104140000Y-63500000D03*
X88900000Y-88900000D03*
X104140000Y-66040000D03*
X88900000Y-86360000D03*
X104140000Y-68580000D03*
X88900000Y-83820000D03*
X104140000Y-71120000D03*
X88900000Y-81280000D03*
X104140000Y-73660000D03*
X88900000Y-78740000D03*
X104140000Y-76200000D03*
X88900000Y-76200000D03*
X104140000Y-78740000D03*
X88900000Y-73660000D03*
X104140000Y-81280000D03*
X88900000Y-71120000D03*
X104140000Y-83820000D03*
X88900000Y-68580000D03*
X104140000Y-86360000D03*
X88900000Y-66040000D03*
X104140000Y-88900000D03*
X88900000Y-63500000D03*
X104140000Y-91440000D03*
X88900000Y-60960000D03*
X104140000Y-93980000D03*
X88900000Y-58420000D03*
X104140000Y-96520000D03*
X88900000Y-55880000D03*
X104140000Y-99060000D03*
X88900000Y-53340000D03*
D11*
X104140000Y-101600000D03*
%TD*%
D10*
%TO.C,R5*%
X116840000Y-40640000D03*
D12*
X116840000Y-48260000D03*
%TD*%
D10*
%TO.C,R4*%
X99060000Y-43180000D03*
D12*
X99060000Y-35560000D03*
%TD*%
D10*
%TO.C,R3*%
X91440000Y-43180000D03*
D12*
X91440000Y-35560000D03*
%TD*%
D10*
%TO.C,R2*%
X95250000Y-43180000D03*
D12*
X95250000Y-35560000D03*
%TD*%
D10*
%TO.C,R1*%
X102870000Y-43180000D03*
D12*
X102870000Y-35560000D03*
%TD*%
D13*
%TO.C,J1*%
X78740000Y-129540000D03*
X78740000Y-127000000D03*
X78740000Y-124460000D03*
X78740000Y-121920000D03*
X78740000Y-119380000D03*
X78740000Y-116840000D03*
X78740000Y-114300000D03*
X78740000Y-111760000D03*
X78740000Y-109220000D03*
X78740000Y-106680000D03*
X78740000Y-104140000D03*
X78740000Y-101600000D03*
X78740000Y-99060000D03*
X78740000Y-96520000D03*
X78740000Y-93980000D03*
X78740000Y-91440000D03*
X78740000Y-88900000D03*
X78740000Y-86360000D03*
X78740000Y-83820000D03*
X78740000Y-81280000D03*
X78740000Y-78740000D03*
X78740000Y-76200000D03*
X78740000Y-73660000D03*
X78740000Y-71120000D03*
X78740000Y-68580000D03*
X78740000Y-66040000D03*
X78740000Y-63500000D03*
X78740000Y-60960000D03*
X78740000Y-58420000D03*
X78740000Y-55880000D03*
X78740000Y-53340000D03*
X78740000Y-50800000D03*
X78740000Y-48260000D03*
X78740000Y-45720000D03*
X78740000Y-43180000D03*
X78740000Y-40640000D03*
X78740000Y-38100000D03*
X78740000Y-35560000D03*
X78740000Y-33020000D03*
D14*
X78740000Y-30480000D03*
%TD*%
D15*
%TO.C,D1*%
X121920000Y-55880000D03*
D16*
X124460000Y-55880000D03*
%TD*%
M02*
