%TF.GenerationSoftware,KiCad,Pcbnew,5.1.6-c6e7f7d~87~ubuntu18.04.1*%
%TF.CreationDate,2020-07-13T16:41:44+01:00*%
%TF.ProjectId,Z80_Rev2,5a38305f-5265-4763-922e-6b696361645f,rev?*%
%TF.SameCoordinates,Original*%
%TF.FileFunction,Legend,Top*%
%TF.FilePolarity,Positive*%
%FSLAX46Y46*%
G04 Gerber Fmt 4.6, Leading zero omitted, Abs format (unit mm)*
G04 Created by KiCad (PCBNEW 5.1.6-c6e7f7d~87~ubuntu18.04.1) date 2020-07-13 16:41:44*
%MOMM*%
%LPD*%
G01*
G04 APERTURE LIST*
%ADD10C,0.150000*%
%ADD11C,0.120000*%
G04 APERTURE END LIST*
D10*
X125832619Y-33260357D02*
X125832619Y-33927023D01*
X124832619Y-33260357D01*
X124832619Y-33927023D01*
X125404047Y-34450833D02*
X125451666Y-34355595D01*
X125499285Y-34307976D01*
X125594523Y-34260357D01*
X125642142Y-34260357D01*
X125737380Y-34307976D01*
X125785000Y-34355595D01*
X125832619Y-34450833D01*
X125832619Y-34641309D01*
X125785000Y-34736547D01*
X125737380Y-34784166D01*
X125642142Y-34831785D01*
X125594523Y-34831785D01*
X125499285Y-34784166D01*
X125451666Y-34736547D01*
X125404047Y-34641309D01*
X125404047Y-34450833D01*
X125356428Y-34355595D01*
X125308809Y-34307976D01*
X125213571Y-34260357D01*
X125023095Y-34260357D01*
X124927857Y-34307976D01*
X124880238Y-34355595D01*
X124832619Y-34450833D01*
X124832619Y-34641309D01*
X124880238Y-34736547D01*
X124927857Y-34784166D01*
X125023095Y-34831785D01*
X125213571Y-34831785D01*
X125308809Y-34784166D01*
X125356428Y-34736547D01*
X125404047Y-34641309D01*
X125832619Y-35450833D02*
X125832619Y-35546071D01*
X125785000Y-35641309D01*
X125737380Y-35688928D01*
X125642142Y-35736547D01*
X125451666Y-35784166D01*
X125213571Y-35784166D01*
X125023095Y-35736547D01*
X124927857Y-35688928D01*
X124880238Y-35641309D01*
X124832619Y-35546071D01*
X124832619Y-35450833D01*
X124880238Y-35355595D01*
X124927857Y-35307976D01*
X125023095Y-35260357D01*
X125213571Y-35212738D01*
X125451666Y-35212738D01*
X125642142Y-35260357D01*
X125737380Y-35307976D01*
X125785000Y-35355595D01*
X125832619Y-35450833D01*
X123182619Y-33927023D02*
X123658809Y-33593690D01*
X123182619Y-33355595D02*
X124182619Y-33355595D01*
X124182619Y-33736547D01*
X124135000Y-33831785D01*
X124087380Y-33879404D01*
X123992142Y-33927023D01*
X123849285Y-33927023D01*
X123754047Y-33879404D01*
X123706428Y-33831785D01*
X123658809Y-33736547D01*
X123658809Y-33355595D01*
X123230238Y-34736547D02*
X123182619Y-34641309D01*
X123182619Y-34450833D01*
X123230238Y-34355595D01*
X123325476Y-34307976D01*
X123706428Y-34307976D01*
X123801666Y-34355595D01*
X123849285Y-34450833D01*
X123849285Y-34641309D01*
X123801666Y-34736547D01*
X123706428Y-34784166D01*
X123611190Y-34784166D01*
X123515952Y-34307976D01*
X123849285Y-35117500D02*
X123182619Y-35355595D01*
X123849285Y-35593690D01*
X123277857Y-35974642D02*
X123230238Y-36022261D01*
X123182619Y-35974642D01*
X123230238Y-35927023D01*
X123277857Y-35974642D01*
X123182619Y-35974642D01*
X124087380Y-37165119D02*
X124135000Y-37212738D01*
X124182619Y-37307976D01*
X124182619Y-37546071D01*
X124135000Y-37641309D01*
X124087380Y-37688928D01*
X123992142Y-37736547D01*
X123896904Y-37736547D01*
X123754047Y-37688928D01*
X123182619Y-37117500D01*
X123182619Y-37736547D01*
D11*
%TO.C,U1*%
X97520000Y-102930000D02*
X102980000Y-102930000D01*
X102980000Y-102930000D02*
X102980000Y-52010000D01*
X102980000Y-52010000D02*
X90060000Y-52010000D01*
X90060000Y-52010000D02*
X90060000Y-102930000D01*
X90060000Y-102930000D02*
X95520000Y-102930000D01*
X105470000Y-102990000D02*
X105470000Y-51950000D01*
X105470000Y-51950000D02*
X87570000Y-51950000D01*
X87570000Y-51950000D02*
X87570000Y-102990000D01*
X87570000Y-102990000D02*
X105470000Y-102990000D01*
X95520000Y-102930000D02*
G75*
G02*
X97520000Y-102930000I1000000J0D01*
G01*
%TO.C,R5*%
X115800000Y-47720000D02*
X115470000Y-47720000D01*
X115470000Y-47720000D02*
X115470000Y-41180000D01*
X115470000Y-41180000D02*
X115800000Y-41180000D01*
X117880000Y-47720000D02*
X118210000Y-47720000D01*
X118210000Y-47720000D02*
X118210000Y-41180000D01*
X118210000Y-41180000D02*
X117880000Y-41180000D01*
%TO.C,R4*%
X100100000Y-36100000D02*
X100430000Y-36100000D01*
X100430000Y-36100000D02*
X100430000Y-42640000D01*
X100430000Y-42640000D02*
X100100000Y-42640000D01*
X98020000Y-36100000D02*
X97690000Y-36100000D01*
X97690000Y-36100000D02*
X97690000Y-42640000D01*
X97690000Y-42640000D02*
X98020000Y-42640000D01*
%TO.C,R3*%
X92480000Y-36100000D02*
X92810000Y-36100000D01*
X92810000Y-36100000D02*
X92810000Y-42640000D01*
X92810000Y-42640000D02*
X92480000Y-42640000D01*
X90400000Y-36100000D02*
X90070000Y-36100000D01*
X90070000Y-36100000D02*
X90070000Y-42640000D01*
X90070000Y-42640000D02*
X90400000Y-42640000D01*
%TO.C,R2*%
X96290000Y-36100000D02*
X96620000Y-36100000D01*
X96620000Y-36100000D02*
X96620000Y-42640000D01*
X96620000Y-42640000D02*
X96290000Y-42640000D01*
X94210000Y-36100000D02*
X93880000Y-36100000D01*
X93880000Y-36100000D02*
X93880000Y-42640000D01*
X93880000Y-42640000D02*
X94210000Y-42640000D01*
%TO.C,R1*%
X103910000Y-36100000D02*
X104240000Y-36100000D01*
X104240000Y-36100000D02*
X104240000Y-42640000D01*
X104240000Y-42640000D02*
X103910000Y-42640000D01*
X101830000Y-36100000D02*
X101500000Y-36100000D01*
X101500000Y-36100000D02*
X101500000Y-42640000D01*
X101500000Y-42640000D02*
X101830000Y-42640000D01*
%TO.C,J1*%
X77410000Y-130870000D02*
X80070000Y-130870000D01*
X77410000Y-31750000D02*
X77410000Y-130870000D01*
X80070000Y-31750000D02*
X80070000Y-130870000D01*
X77410000Y-31750000D02*
X80070000Y-31750000D01*
X77410000Y-30480000D02*
X77410000Y-29150000D01*
X77410000Y-29150000D02*
X78740000Y-29150000D01*
%TO.C,D1*%
X124750000Y-57116000D02*
X124750000Y-56960000D01*
X124750000Y-54800000D02*
X124750000Y-54644000D01*
X122148870Y-54800163D02*
G75*
G02*
X124230961Y-54800000I1041130J-1079837D01*
G01*
X122148870Y-56959837D02*
G75*
G03*
X124230961Y-56960000I1041130J1079837D01*
G01*
X121517665Y-54801392D02*
G75*
G02*
X124750000Y-54644484I1672335J-1078608D01*
G01*
X121517665Y-56958608D02*
G75*
G03*
X124750000Y-57115516I1672335J1078608D01*
G01*
%TO.C,U1*%
D10*
X95758095Y-103382380D02*
X95758095Y-104191904D01*
X95805714Y-104287142D01*
X95853333Y-104334761D01*
X95948571Y-104382380D01*
X96139047Y-104382380D01*
X96234285Y-104334761D01*
X96281904Y-104287142D01*
X96329523Y-104191904D01*
X96329523Y-103382380D01*
X97329523Y-104382380D02*
X96758095Y-104382380D01*
X97043809Y-104382380D02*
X97043809Y-103382380D01*
X96948571Y-103525238D01*
X96853333Y-103620476D01*
X96758095Y-103668095D01*
%TO.C,R5*%
X117292380Y-44616666D02*
X116816190Y-44950000D01*
X117292380Y-45188095D02*
X116292380Y-45188095D01*
X116292380Y-44807142D01*
X116340000Y-44711904D01*
X116387619Y-44664285D01*
X116482857Y-44616666D01*
X116625714Y-44616666D01*
X116720952Y-44664285D01*
X116768571Y-44711904D01*
X116816190Y-44807142D01*
X116816190Y-45188095D01*
X116292380Y-43711904D02*
X116292380Y-44188095D01*
X116768571Y-44235714D01*
X116720952Y-44188095D01*
X116673333Y-44092857D01*
X116673333Y-43854761D01*
X116720952Y-43759523D01*
X116768571Y-43711904D01*
X116863809Y-43664285D01*
X117101904Y-43664285D01*
X117197142Y-43711904D01*
X117244761Y-43759523D01*
X117292380Y-43854761D01*
X117292380Y-44092857D01*
X117244761Y-44188095D01*
X117197142Y-44235714D01*
%TO.C,R4*%
X99512380Y-39536666D02*
X99036190Y-39870000D01*
X99512380Y-40108095D02*
X98512380Y-40108095D01*
X98512380Y-39727142D01*
X98560000Y-39631904D01*
X98607619Y-39584285D01*
X98702857Y-39536666D01*
X98845714Y-39536666D01*
X98940952Y-39584285D01*
X98988571Y-39631904D01*
X99036190Y-39727142D01*
X99036190Y-40108095D01*
X98845714Y-38679523D02*
X99512380Y-38679523D01*
X98464761Y-38917619D02*
X99179047Y-39155714D01*
X99179047Y-38536666D01*
%TO.C,R3*%
X91892380Y-39536666D02*
X91416190Y-39870000D01*
X91892380Y-40108095D02*
X90892380Y-40108095D01*
X90892380Y-39727142D01*
X90940000Y-39631904D01*
X90987619Y-39584285D01*
X91082857Y-39536666D01*
X91225714Y-39536666D01*
X91320952Y-39584285D01*
X91368571Y-39631904D01*
X91416190Y-39727142D01*
X91416190Y-40108095D01*
X90892380Y-39203333D02*
X90892380Y-38584285D01*
X91273333Y-38917619D01*
X91273333Y-38774761D01*
X91320952Y-38679523D01*
X91368571Y-38631904D01*
X91463809Y-38584285D01*
X91701904Y-38584285D01*
X91797142Y-38631904D01*
X91844761Y-38679523D01*
X91892380Y-38774761D01*
X91892380Y-39060476D01*
X91844761Y-39155714D01*
X91797142Y-39203333D01*
%TO.C,R2*%
X95730069Y-39510952D02*
X95253879Y-39844286D01*
X95730069Y-40082381D02*
X94730069Y-40082381D01*
X94730069Y-39701428D01*
X94777689Y-39606190D01*
X94825308Y-39558571D01*
X94920546Y-39510952D01*
X95063403Y-39510952D01*
X95158641Y-39558571D01*
X95206260Y-39606190D01*
X95253879Y-39701428D01*
X95253879Y-40082381D01*
X94825308Y-39130000D02*
X94777689Y-39082381D01*
X94730069Y-38987143D01*
X94730069Y-38749047D01*
X94777689Y-38653809D01*
X94825308Y-38606190D01*
X94920546Y-38558571D01*
X95015784Y-38558571D01*
X95158641Y-38606190D01*
X95730069Y-39177619D01*
X95730069Y-38558571D01*
%TO.C,R1*%
X103317037Y-39483042D02*
X102840847Y-39816376D01*
X103317037Y-40054471D02*
X102317037Y-40054471D01*
X102317037Y-39673518D01*
X102364657Y-39578280D01*
X102412276Y-39530661D01*
X102507514Y-39483042D01*
X102650371Y-39483042D01*
X102745609Y-39530661D01*
X102793228Y-39578280D01*
X102840847Y-39673518D01*
X102840847Y-40054471D01*
X103317037Y-38530661D02*
X103317037Y-39102090D01*
X103317037Y-38816376D02*
X102317037Y-38816376D01*
X102459895Y-38911614D01*
X102555133Y-39006852D01*
X102602752Y-39102090D01*
%TO.C,J1*%
X78406666Y-27602380D02*
X78406666Y-28316666D01*
X78359047Y-28459523D01*
X78263809Y-28554761D01*
X78120952Y-28602380D01*
X78025714Y-28602380D01*
X79406666Y-28602380D02*
X78835238Y-28602380D01*
X79120952Y-28602380D02*
X79120952Y-27602380D01*
X79025714Y-27745238D01*
X78930476Y-27840476D01*
X78835238Y-27888095D01*
%TO.C,D1*%
X119832380Y-56618095D02*
X118832380Y-56618095D01*
X118832380Y-56380000D01*
X118880000Y-56237142D01*
X118975238Y-56141904D01*
X119070476Y-56094285D01*
X119260952Y-56046666D01*
X119403809Y-56046666D01*
X119594285Y-56094285D01*
X119689523Y-56141904D01*
X119784761Y-56237142D01*
X119832380Y-56380000D01*
X119832380Y-56618095D01*
X119832380Y-55094285D02*
X119832380Y-55665714D01*
X119832380Y-55380000D02*
X118832380Y-55380000D01*
X118975238Y-55475238D01*
X119070476Y-55570476D01*
X119118095Y-55665714D01*
%TD*%
M02*
