M48
; DRILL file {KiCad 5.1.6-c6e7f7d~86~ubuntu18.04.1} date Fri Jun 26 23:18:11 2020
; FORMAT={-:-/ absolute / inch / decimal}
; #@! TF.CreationDate,2020-06-26T23:18:11+01:00
; #@! TF.GenerationSoftware,Kicad,Pcbnew,5.1.6-c6e7f7d~86~ubuntu18.04.1
FMAT,2
INCH
T1C0.0157
T2C0.0315
T3C0.0394
%
G90
G05
T1
X2.425Y-5.55
X2.575Y-5.85
X2.5965Y-5.55
X2.6Y-4.675
X2.675Y-5.575
X2.7Y-4.475
X2.7Y-4.575
X2.725Y-4.65
X2.725Y-5.15
X2.775Y-5.575
X2.7965Y-4.575
X2.8Y-4.075
X2.8535Y-5.125
X2.875Y-5.325
X2.925Y-5.175
X2.975Y-4.075
T2
X2.525Y-5.775
X2.525Y-6.075
X2.625Y-5.775
X2.625Y-6.075
X2.725Y-5.775
X2.725Y-6.075
X2.825Y-5.775
X2.825Y-6.075
X2.925Y-5.775
X2.925Y-6.075
X3.025Y-5.775
X3.025Y-6.075
X3.125Y-5.775
X3.125Y-6.075
X3.275Y-4.025
X3.275Y-4.125
X3.275Y-4.225
X3.275Y-4.325
X3.275Y-4.425
X3.275Y-4.525
X3.275Y-4.625
X3.575Y-4.025
X3.575Y-4.125
X3.575Y-4.225
X3.575Y-4.325
X3.575Y-4.425
X3.575Y-4.525
X3.575Y-4.625
X2.5Y-3.625
X2.5Y-3.725
X2.5Y-3.825
X2.5Y-3.925
X2.5Y-4.025
X2.5Y-4.125
X2.5Y-4.225
X2.5Y-4.325
X2.5Y-4.425
X2.5Y-4.525
X2.5Y-4.625
X2.5Y-4.725
X2.5Y-4.825
X2.5Y-4.925
X3.1Y-3.625
X3.1Y-3.725
X3.1Y-3.825
X3.1Y-3.925
X3.1Y-4.025
X3.1Y-4.125
X3.1Y-4.225
X3.1Y-4.325
X3.1Y-4.425
X3.1Y-4.525
X3.1Y-4.625
X3.1Y-4.725
X3.1Y-4.825
X3.1Y-4.925
T3
X2.325Y-2.825
X2.325Y-2.925
X2.325Y-3.025
X2.325Y-3.125
X2.325Y-3.225
X2.325Y-3.325
X2.325Y-3.425
X2.325Y-3.525
X2.325Y-3.625
X2.325Y-3.725
X2.325Y-3.825
X2.325Y-3.925
X2.325Y-4.025
X2.325Y-4.125
X2.325Y-4.225
X2.325Y-4.325
X2.325Y-4.425
X2.325Y-4.525
X2.325Y-4.625
X2.325Y-4.725
X2.325Y-4.825
X2.325Y-4.925
X2.325Y-5.025
X2.325Y-5.125
X2.325Y-5.225
X2.325Y-5.325
X2.325Y-5.425
X2.325Y-5.525
X2.325Y-5.625
X2.325Y-5.725
X2.325Y-5.825
X2.325Y-5.925
X2.325Y-6.025
X2.325Y-6.125
X2.325Y-6.225
X2.325Y-6.325
T0
M30
